<svg width="16" height="16" viewBox="0 0 16 16" fill="none" xmlns="http://www.w3.org/2000/svg">
<rect width="16" height="16" rx="2" fill="#ECEDEF"/>
<path d="M10.3947 8.28571C11.0857 8.28571 11.7484 8.53406 12.2369 8.97611C12.7255 9.41816 13 10.0177 13 10.6429C13 11.268 12.7255 11.8676 12.2369 12.3096C11.7484 12.7517 11.0857 13 10.3947 13C9.70378 13 9.04112 12.7517 8.55254 12.3096C8.06396 11.8676 7.78947 11.268 7.78947 10.6429C7.78947 10.0177 8.06396 9.41816 8.55254 8.97611C9.04112 8.53406 9.70378 8.28571 10.3947 8.28571V8.28571ZM4.71195 5.12586L4.71053 6.03571V10.5374C4.71053 10.9068 4.87272 11.2611 5.16143 11.5223C5.45014 11.7835 5.84171 11.9303 6.25 11.9303L7.66395 11.9307C7.79987 12.1659 7.97213 12.3823 8.17553 12.5736H6.25C5.95449 12.5736 5.66187 12.5209 5.38885 12.4186C5.11584 12.3162 4.86778 12.1663 4.65884 11.9772C4.4499 11.7881 4.28418 11.5636 4.17114 11.3166C4.05809 11.0696 3.99994 10.8048 4 10.5374V6.03571C4 5.61571 4.297 5.25786 4.71195 5.12586ZM10.7661 9.39529C10.7266 9.37059 10.6796 9.35736 10.6316 9.35736C10.5835 9.35736 10.5366 9.37059 10.4971 9.39529L10.4639 9.41971L10.4369 9.44971C10.4096 9.4855 10.395 9.52795 10.395 9.57143C10.395 9.61491 10.4096 9.65736 10.4369 9.69314L10.4639 9.72314L11.2436 10.4281L8.97084 10.4286L8.92821 10.432C8.88089 10.4398 8.83732 10.4605 8.8033 10.4913C8.76929 10.5221 8.74644 10.5615 8.73779 10.6043L8.734 10.6429L8.73779 10.6814C8.74644 10.7242 8.76929 10.7637 8.8033 10.7944C8.83732 10.8252 8.88089 10.8459 8.92821 10.8537L8.97084 10.8571L11.2445 10.8567L10.4639 11.5626L10.4369 11.5926C10.4057 11.6338 10.3914 11.6836 10.3965 11.7334C10.4016 11.7832 10.4258 11.8298 10.4649 11.8651C10.5039 11.9004 10.5554 11.9223 10.6104 11.9269C10.6655 11.9316 10.7205 11.9187 10.7661 11.8904L10.7993 11.866L11.9977 10.7804L12.0147 10.759L12.0346 10.7247L12.0469 10.6891L12.0517 10.6617V10.624L12.0469 10.5966L12.0417 10.5781L12.0266 10.5447L12.0152 10.5267L11.9972 10.5053L10.7988 9.41971L10.7661 9.39529V9.39529ZM10.5132 4C10.6531 4 10.7917 4.02494 10.921 4.0734C11.0503 4.12186 11.1678 4.19289 11.2668 4.28243C11.3658 4.37197 11.4443 4.47828 11.4978 4.59527C11.5514 4.71226 11.5789 4.83765 11.5789 4.96429V8.07057C11.351 7.98469 11.1124 7.92411 10.8684 7.89014V4.96429C10.8684 4.87904 10.831 4.79728 10.7644 4.737C10.6977 4.67672 10.6074 4.64286 10.5132 4.64286H6.25C6.15578 4.64286 6.06542 4.67672 5.99879 4.737C5.93217 4.79728 5.89474 4.87904 5.89474 4.96429V10.5357C5.89474 10.7131 6.05389 10.8571 6.25 10.8571H7.32479C7.34374 11.08 7.39111 11.2951 7.46453 11.5H6.25C5.96734 11.5 5.69625 11.3984 5.49637 11.2176C5.2965 11.0367 5.18421 10.7915 5.18421 10.5357V4.96429C5.18421 4.70854 5.2965 4.46327 5.49637 4.28243C5.69625 4.10159 5.96734 4 6.25 4H10.5132Z" fill="#929CAC"/>
</svg>
