<svg width="16" height="16" viewBox="0 0 16 16" fill="none" xmlns="http://www.w3.org/2000/svg">
<rect width="16" height="16" rx="2" fill="#C43F40" fill-opacity="0.1"/>
<path d="M5.3125 12C5.07187 12 4.86596 11.913 4.69475 11.7391C4.52325 11.5649 4.4375 11.3556 4.4375 11.1111V5.33333H4V4.44444H6.1875V4H8.8125V4.44444H11V5.33333H10.5625V11.1111C10.5625 11.3556 10.4769 11.5649 10.3057 11.7391C10.1342 11.913 9.92813 12 9.6875 12H5.3125ZM9.6875 5.33333H5.3125V11.1111H9.6875V5.33333ZM6.1875 10.2222H7.0625V6.22222H6.1875V10.2222ZM7.9375 10.2222H8.8125V6.22222H7.9375V10.2222Z" fill="#C43F40"/>
</svg>
