<svg width="30" height="29" viewBox="0 0 30 29" fill="none" xmlns="http://www.w3.org/2000/svg">
<path fill-rule="evenodd" clip-rule="evenodd" d="M0.132812 14.5C0.132812 6.49147 6.62428 0 14.6328 0C22.6413 0 29.1328 6.49147 29.1328 14.5C29.1328 22.5076 22.6413 29 14.6328 29C6.62428 29 0.132812 22.5076 0.132812 14.5ZM20.7621 16.0954C21.0523 14.144 20.2083 12.0344 18.8372 9.87204C18.8108 10.6104 18.5207 11.296 18.0197 11.797C18.0197 10.2149 17.7033 8.10524 16.6748 6.89224C16.6748 7.76244 16.3584 8.63265 15.831 9.31827C15.831 7.94704 15.5146 5.57374 14.4333 4.2025C14.2064 6.45869 12.7144 8.41968 11.276 10.3101C9.70521 12.3746 8.19843 14.3549 8.47372 16.5436C8.81655 18.8114 10.9525 21.2374 14.4333 24.7975C14.8169 23.8851 15.7915 22.932 16.8668 21.8805C18.5265 20.2574 20.426 18.3997 20.7621 16.0954Z" fill="white"/>
</svg>
