<svg width="30" height="29" viewBox="0 0 30 29" fill="none" xmlns="http://www.w3.org/2000/svg">
<path d="M17.502 14.5C17.502 16.0329 16.2594 17.2754 14.7266 17.2754C13.1938 17.2754 11.9512 16.0328 11.9512 14.5C11.9512 12.9672 13.1938 11.7246 14.7266 11.7246C16.2594 11.7246 17.502 12.9672 17.502 14.5Z" fill="white"/>
<path d="M21.2172 9.58955C21.0837 9.22789 20.8709 8.90074 20.5943 8.63215C20.3258 8.35557 19.9986 8.14274 19.637 8.00933C19.3436 7.89543 18.9029 7.75977 18.0911 7.72284C17.2129 7.6828 16.9496 7.67413 14.7265 7.67413C12.5031 7.67413 12.2399 7.68257 11.3619 7.72262C10.5502 7.75977 10.1091 7.89537 9.81603 8.00933C9.45432 8.14269 9.12715 8.35553 8.85864 8.63215C8.58206 8.90075 8.36917 9.22789 8.23559 9.58955C8.12169 9.88295 7.98603 10.3239 7.9491 11.1357C7.90906 12.0136 7.90039 12.2769 7.90039 14.5002C7.90039 16.7234 7.90906 16.9866 7.9491 17.8648C7.98603 18.6766 8.12169 19.1174 8.23559 19.4107C8.36909 19.7723 8.5819 20.0995 8.85841 20.3681C9.12696 20.6447 9.45412 20.8575 9.81581 20.9909C10.1092 21.105 10.5502 21.2407 11.3619 21.2776C12.2399 21.3177 12.5029 21.3261 14.7263 21.3261C16.9499 21.3261 17.2131 21.3177 18.0908 21.2776C18.9026 21.2407 19.3436 21.105 19.637 20.9909C19.9961 20.8524 20.3222 20.6402 20.5943 20.3681C20.8665 20.0959 21.0787 19.7698 21.2172 19.4107C21.3311 19.1173 21.4667 18.6766 21.5039 17.8648C21.5439 16.9866 21.5524 16.7234 21.5524 14.5002C21.5524 12.2769 21.5439 12.0136 21.5039 11.1357C21.467 10.3239 21.3313 9.88289 21.2172 9.58955ZM14.7265 18.7755C12.3651 18.7755 10.4508 16.8614 10.4508 14.5C10.4508 12.1386 12.3651 10.2245 14.7265 10.2245C17.0877 10.2245 19.002 12.1386 19.002 14.5C19.002 16.8614 17.0877 18.7755 14.7265 18.7755ZM19.171 11.0547C18.6192 11.0547 18.1719 10.6073 18.1719 10.0555C18.1719 9.50379 18.6192 9.05633 19.171 9.05633C19.7228 9.05633 20.1702 9.50368 20.1702 10.0555C20.1699 10.6073 19.7228 11.0547 19.171 11.0547Z" fill="white"/>
<path d="M14.7266 0C6.71967 0 0.226562 6.49311 0.226562 14.5C0.226562 22.5069 6.71967 29 14.7266 29C22.7335 29 29.2266 22.5069 29.2266 14.5C29.2266 6.49311 22.7335 0 14.7266 0ZM23.0025 17.9327C22.9623 18.8191 22.8213 19.4242 22.6155 19.9539C22.4016 20.507 22.0745 21.0093 21.6552 21.4286C21.2358 21.848 20.7335 22.1751 20.1804 22.389C19.651 22.5947 19.0456 22.7354 18.1595 22.7759C17.2717 22.8164 16.988 22.8262 14.7268 22.8262C12.4654 22.8262 12.1819 22.8164 11.2938 22.7759C10.4077 22.7354 9.8024 22.5947 9.27286 22.389C8.71723 22.1799 8.21391 21.8522 7.79805 21.4285C7.37454 21.0126 7.04684 20.5094 6.83783 19.9539C6.63205 19.4244 6.49113 18.8191 6.45086 17.9329C6.40991 17.0448 6.40039 16.7612 6.40039 14.5C6.40039 12.2388 6.40991 11.9551 6.45063 11.0673C6.49085 10.1809 6.6316 9.57583 6.83737 9.04613C7.04646 8.49054 7.3743 7.98728 7.798 7.57149C8.21381 7.14783 8.71709 6.82005 9.27269 6.61104C9.8024 6.40526 10.4075 6.26457 11.2939 6.22407C12.1817 6.18357 12.4654 6.17383 14.7266 6.17383C16.9878 6.17383 17.2714 6.18357 18.1593 6.22424C19.0456 6.26457 19.6507 6.40526 20.1804 6.61081C20.7361 6.81994 21.2394 7.14777 21.6554 7.57144C22.0789 7.9873 22.4066 8.49057 22.6155 9.04613C22.8215 9.57583 22.9622 10.1809 23.0027 11.0673C23.0432 11.9551 23.0527 12.2388 23.0527 14.5C23.0527 16.7612 23.0432 17.0449 23.0025 17.9327Z" fill="white"/>
</svg>
