<svg width="31" height="31" viewBox="0 0 31 31" fill="none" xmlns="http://www.w3.org/2000/svg">
<path d="M15.2829 30.028C6.99069 30.028 0.268921 23.3062 0.268921 15.014C0.268921 6.72177 6.99069 0 15.2829 0C23.5752 0 30.2969 6.72177 30.2969 15.014C30.2969 23.3062 23.5752 30.028 15.2829 30.028ZM11.2432 21.6302V11.6529H8.24036V21.6302H11.2432ZM9.74176 7.30682C8.77335 7.30682 8.14126 7.97994 8.16078 8.87828C8.14076 9.73508 8.77335 10.4287 9.72224 10.4287C10.7097 10.4287 11.3423 9.73508 11.3423 8.87778C11.3222 7.97994 10.7097 7.30682 9.74176 7.30682ZM13.6539 21.6302H16.6567V15.8763C16.6567 15.591 16.6967 15.2848 16.7758 15.1006C16.973 14.5301 17.467 13.938 18.2972 13.938C19.3833 13.938 19.8187 14.8153 19.8187 16.101V21.6302H22.8215V15.7132C22.8215 12.7754 21.3401 11.4282 19.3637 11.4282C17.7637 11.4282 16.7758 12.3876 16.3804 13.0196H16.3209L16.1828 11.6529H13.5748C13.6144 12.5302 13.6539 13.5912 13.6539 14.8358V21.6302Z" fill="white"/>
</svg>
