<svg width="30" height="29" viewBox="0 0 30 29" fill="none" xmlns="http://www.w3.org/2000/svg">
<path d="M15.1133 0C7.10639 0 0.613281 6.49311 0.613281 14.5C0.613281 22.5069 7.10639 29 15.1133 29C23.1202 29 29.6133 22.5069 29.6133 14.5C29.6133 6.49311 23.1202 0 15.1133 0ZM10.8998 21.9199H7.36836V11.2956H10.8997L10.8998 21.9199ZM9.13413 9.84482H9.11113C7.9261 9.84482 7.15969 9.02908 7.15969 8.00955C7.15969 6.96702 7.94955 6.17383 9.15763 6.17383C10.3657 6.17383 11.1091 6.96702 11.1321 8.00955C11.1321 9.02908 10.3657 9.84488 9.13413 9.84488V9.84482ZM23.6333 21.9199H20.1024V16.2361C20.1024 14.8078 19.5911 13.8336 18.3133 13.8336C17.3378 13.8336 16.7568 14.4907 16.5015 15.125C16.4081 15.352 16.3853 15.6693 16.3853 15.9868V21.9199H12.8541C12.8541 21.9199 12.9004 12.2923 12.8541 11.2956H16.3853V12.7999C16.8546 12.076 17.6943 11.0463 19.5678 11.0463C21.8912 11.0463 23.6333 12.5647 23.6333 15.8279V21.9199Z" fill="white"/>
</svg>
