<svg width="31" height="31" viewBox="0 0 31 31" fill="none" xmlns="http://www.w3.org/2000/svg">
<path d="M15.986 0C7.69477 0 0.971985 6.72279 0.971985 15.014C0.971985 23.3052 7.69477 30.028 15.986 30.028C24.2772 30.028 31 23.3052 31 15.014C31 6.72279 24.2772 0 15.986 0ZM24.5654 8.50235L23.1981 9.81272C23.0774 9.90321 23.0205 10.0507 23.0439 10.1948V19.8366C23.0205 19.984 23.0774 20.1315 23.1981 20.2186L24.5386 21.529V21.8206H17.8091V21.5424L19.1932 20.1985C19.3306 20.0611 19.3306 20.0209 19.3306 19.8165V12.0146L15.4766 21.7871H14.9571L10.473 12.0146V18.5664C10.4328 18.8412 10.53 19.1194 10.7244 19.3171L12.5274 21.4988V21.7904H7.40656V21.4988L9.20958 19.3171C9.40396 19.1194 9.48774 18.8379 9.44417 18.5664V10.9924C9.46763 10.7813 9.3872 10.5768 9.22634 10.4327L7.6244 8.50235V8.21078H12.6011L16.4418 16.6394L19.8233 8.21749H24.5654V8.50235Z" fill="white"/>
</svg>
