<svg width="30" height="29" viewBox="0 0 30 29" fill="none" xmlns="http://www.w3.org/2000/svg">
<path fill-rule="evenodd" clip-rule="evenodd" d="M0.0664062 14.5C0.0664062 6.49147 6.55788 0 14.5664 0C22.5749 0 29.0664 6.49147 29.0664 14.5C29.0664 22.5076 22.5749 29 14.5664 29C6.55788 29 0.0664062 22.5076 0.0664062 14.5ZM17.467 7.4276L22.687 10.0376C22.7023 10.0452 22.7158 10.0558 22.7267 10.0689C22.7377 10.0819 22.7458 10.0971 22.7505 10.1135C22.7553 10.1298 22.7566 10.147 22.7544 10.1639C22.7523 10.1808 22.7466 10.197 22.7378 10.2116L17.6003 18.56L14.0088 12.7237L17.226 7.49557C17.2595 7.44029 17.323 7.40857 17.3864 7.40857L17.3918 7.40948C17.4179 7.41009 17.4435 7.41627 17.467 7.4276ZM12.3069 16.5209V10.8868L17.3148 19.024L12.3069 16.5209ZM22.3508 21.5388L17.7525 19.2397L22.8076 11.0254V21.257C22.8076 21.537 22.6019 21.6639 22.3508 21.5388ZM6.93732 7.65598L11.754 10.0639C11.7744 10.074 11.7915 10.0896 11.8034 10.109C11.8153 10.1284 11.8214 10.1508 11.8211 10.1735V21.2597C11.8211 21.4672 11.7096 21.5905 11.5501 21.5905C11.4856 21.5888 11.4224 21.5724 11.3653 21.5424L6.63282 19.1762C6.46517 19.0928 6.32832 18.8708 6.32832 18.6841V7.69132C6.32603 7.63371 6.34363 7.57707 6.37817 7.53091C6.39415 7.51168 6.41427 7.49631 6.43702 7.48596C6.45978 7.4756 6.48458 7.47052 6.50957 7.4711C6.55263 7.47229 6.59482 7.48346 6.63282 7.50373L6.93732 7.65598Z" fill="white"/>
</svg>
