<svg width="30" height="29" viewBox="0 0 30 29" fill="none" xmlns="http://www.w3.org/2000/svg">
<path fill-rule="evenodd" clip-rule="evenodd" d="M15.2155 0C7.19575 0 0.679688 6.46808 0.679688 14.5002C0.679688 22.5319 7.19575 29 15.2155 29C23.2353 29 29.6797 22.5319 29.6797 14.5002C29.6797 6.46808 23.2353 0 15.2155 0ZM16.3612 18.4094C15.2872 18.3382 14.8575 17.7698 13.9982 17.2722C13.5686 19.6886 12.9958 21.963 11.3489 23.1715C10.8476 19.5466 12.0649 16.8458 12.6378 13.9314C11.6353 12.2966 12.781 8.88492 14.8575 9.73772C17.4353 10.7329 12.6378 15.9926 15.86 16.6322C19.297 17.343 20.6575 10.7329 18.581 8.60048C15.5019 5.54407 9.70189 8.52933 10.418 12.9362C10.6327 14.0026 11.7069 14.3578 10.9192 15.8506C8.91428 15.4242 8.34141 13.8602 8.41304 11.8701C8.55622 8.52933 11.4204 6.18364 14.3562 5.82845C18.0081 5.40205 21.4452 7.17886 21.8748 10.5905C22.4476 14.5002 20.2279 18.6939 16.3612 18.4094Z" fill="white"/>
</svg>
