<svg width="31" height="31" viewBox="0 0 31 31" fill="none" xmlns="http://www.w3.org/2000/svg">
<path d="M15.8824 0C7.59053 0 0.868347 6.72218 0.868347 15.014C0.868347 23.3058 7.59053 30.028 15.8824 30.028C24.1742 30.028 30.8964 23.3058 30.8964 15.014C30.8964 6.72218 24.1742 0 15.8824 0ZM17.2636 19.5605C16.154 19.5605 15.1098 18.9477 14.7508 18.2516C14.7508 18.2516 14.1544 20.6702 14.0274 21.137C13.8145 21.9259 13.4037 22.7135 13.0229 23.3372C12.4796 24.047 11.8531 23.5201 11.7781 22.8732C11.7535 22.1525 11.7794 21.2994 11.9582 20.5228C12.1561 19.6711 13.2808 14.8024 13.2808 14.8024C13.2808 14.8024 12.9519 14.1323 12.9519 13.1413C12.9519 11.5854 13.835 10.4238 14.9351 10.4238C15.8701 10.4238 16.3219 11.1418 16.3219 12.0003C16.3219 12.9598 15.7227 14.3957 15.4142 15.7251C15.1562 16.8389 15.9615 17.7466 17.0371 17.7466C18.9848 17.7466 20.2978 15.1914 20.2978 12.1654C20.2978 9.8642 18.7801 8.14305 16.0188 8.14305C12.9 8.14305 10.9564 10.518 10.9564 13.17C10.9564 14.0845 11.2198 14.7301 11.6348 15.2283C11.8245 15.4576 11.8518 15.5504 11.7822 15.8138C11.733 16.0077 11.6197 16.4717 11.5733 16.656C11.5051 16.9221 11.2935 17.0163 11.0588 16.9181C9.62151 16.3189 8.95271 14.7124 8.95271 12.908C8.95271 9.92562 11.4164 6.34956 16.3014 6.34956C20.2269 6.34956 22.8106 9.24999 22.8106 12.3634C22.812 16.484 20.5695 19.5605 17.2636 19.5605Z" fill="white"/>
</svg>
