<svg width="30" height="29" viewBox="0 0 30 29" fill="none" xmlns="http://www.w3.org/2000/svg">
<path d="M17.7764 13.5651C17.7871 14.637 17.5535 15.6973 17.0934 16.6654C16.6088 15.9729 16.0269 15.3852 15.1969 15.1983L15.0195 15.162C14.5031 15.0773 13.975 15.0954 13.4656 15.2152C12.9561 15.335 12.4753 15.5543 12.0508 15.8603L12.4324 16.6406C12.4324 16.6406 12.814 16.4212 13.7679 16.6406C14.2373 16.7494 14.6246 17.2836 15.0271 17.9762C15.1378 18.167 15.2485 18.3577 15.3629 18.5676C15.2514 18.6182 15.1367 18.6616 15.0195 18.6973C14.7578 18.7895 14.4823 18.8366 14.2048 18.8366C12.2302 18.8404 10.6313 16.4785 10.6313 13.5651C10.6313 10.6518 12.2302 8.29169 14.2048 8.29169C14.4821 8.292 14.7574 8.33842 15.0195 8.42906C16.5992 8.96708 17.7764 11.0658 17.7764 13.5651Z" fill="white"/>
<path d="M15.0195 0C12.1517 0 9.34828 0.85041 6.96377 2.44369C4.57926 4.03697 2.72076 6.30156 1.62328 8.95109C0.525814 11.6006 0.238665 14.5161 0.798151 17.3288C1.35764 20.1415 2.73863 22.7252 4.76649 24.753C6.79435 26.7809 9.378 28.1619 12.1907 28.7214C15.0035 29.2809 17.9189 28.9937 20.5684 27.8963C23.218 26.7988 25.4826 24.9403 27.0758 22.5558C28.6691 20.1713 29.5195 17.3678 29.5195 14.5C29.5195 10.6544 27.9919 6.96623 25.2726 4.24695C22.5533 1.52767 18.8652 0 15.0195 0ZM18.9822 21.75C17.5761 21.75 16.6775 20.7388 15.9697 19.6151C15.6581 19.7115 15.339 19.7817 15.0157 19.8249C14.7459 19.8632 14.4736 19.8824 14.2011 19.8822C10.8222 19.8822 8.07671 17.0547 8.07671 13.5651C8.07671 10.0756 10.8222 7.25 14.2049 7.25C14.4774 7.25012 14.7495 7.26861 15.0195 7.30533C18.0168 7.71743 20.3292 10.358 20.3292 13.5651C20.3334 14.4774 20.1419 15.38 19.7677 16.212C19.3935 17.044 18.8452 17.7861 18.1599 18.3883C18.6274 19.1114 19.1253 19.6685 19.8561 19.6685C20.81 19.6685 20.873 18.6287 20.873 18.6287H21.9624C21.9624 18.6287 21.8441 21.75 18.9822 21.75Z" fill="white"/>
</svg>
