<svg width="31" height="31" viewBox="0 0 31 31" fill="none" xmlns="http://www.w3.org/2000/svg">
<path d="M18.3505 19.556C18.5292 19.7347 18.5292 19.9077 18.3505 20.0751C17.6584 20.7672 16.5465 21.1132 15.015 21.1132C13.4835 21.1132 12.3716 20.7672 11.6795 20.0751C11.5008 19.9077 11.5008 19.7347 11.6795 19.556C11.7467 19.4888 11.8304 19.4551 11.9305 19.4551C12.0306 19.4551 12.1142 19.4888 12.1815 19.556C12.7177 20.1037 13.6615 20.3775 15.0129 20.3775C16.3528 20.3775 17.2966 20.1037 17.8443 19.556C17.9115 19.4888 17.9951 19.4551 18.0952 19.4551C18.1953 19.4551 18.279 19.4888 18.3462 19.556H18.3505ZM13.2046 16.5229C13.2046 16.9362 13.0595 17.288 12.7692 17.5783C12.4789 17.8686 12.1271 18.0137 11.7138 18.0137C11.3006 18.0137 10.9459 17.8686 10.6499 17.5783C10.3539 17.288 10.2059 16.9362 10.2059 16.5229C10.2059 16.0982 10.3539 15.7407 10.6499 15.4504C10.9459 15.1601 11.3006 15.015 11.7138 15.015C12.1271 15.015 12.4789 15.163 12.7692 15.459C13.0595 15.755 13.2046 16.1097 13.2046 16.5229V16.5229ZM19.8241 16.5229C19.8241 16.9362 19.6761 17.288 19.3801 17.5783C19.0841 17.8686 18.7294 18.0137 18.3162 18.0137C17.9029 18.0137 17.5511 17.8686 17.2608 17.5783C16.9705 17.288 16.8254 16.9362 16.8254 16.5229C16.8254 16.1097 16.9705 15.755 17.2608 15.459C17.5511 15.163 17.9029 15.015 18.3162 15.015C18.7294 15.015 19.0841 15.1601 19.3801 15.4504C19.6761 15.7407 19.8241 16.0982 19.8241 16.5229V16.5229ZM24.0304 14.5131C24.0304 13.9654 23.8352 13.4963 23.4448 13.1059C23.0545 12.7156 22.5797 12.5204 22.0206 12.5204C21.4614 12.5204 20.981 12.7213 20.5791 13.1231C19.1262 12.1178 17.3888 11.5816 15.3668 11.5144L16.4221 6.77176L19.7748 7.5268C19.7748 7.94007 19.9199 8.29185 20.2102 8.58214C20.5005 8.87243 20.8523 9.01758 21.2655 9.01758C21.6788 9.01758 22.0334 8.86957 22.3294 8.57356C22.6255 8.27755 22.7735 7.92291 22.7735 7.50964C22.7735 7.09637 22.6255 6.74173 22.3294 6.44572C22.0334 6.14971 21.6788 6.00171 21.2655 6.00171C20.6621 6.00171 20.2152 6.28127 19.9249 6.8404L16.2205 6.01887C16.0088 5.9631 15.8694 6.05247 15.8022 6.28699L14.6461 11.5165C12.6355 11.5952 10.9095 12.1371 9.46803 13.1424C9.07764 12.7291 8.59144 12.5225 8.00943 12.5225C7.4503 12.5225 6.97554 12.7177 6.58515 13.1081C6.19476 13.4985 5.99956 13.9675 5.99956 14.5152C5.99956 14.9056 6.10324 15.2631 6.31059 15.5877C6.51794 15.9123 6.79464 16.1583 7.1407 16.3256C7.07349 16.6273 7.03989 16.9405 7.03989 17.2651C7.03989 18.851 7.8221 20.208 9.38652 21.3363C10.9509 22.4646 12.8335 23.0287 15.0343 23.0287C17.2465 23.0287 19.1348 22.4646 20.6992 21.3363C22.2637 20.208 23.0459 18.851 23.0459 17.2651C23.0459 16.9076 23.0066 16.5894 22.9279 16.3106C23.2625 16.1433 23.5306 15.9002 23.7323 15.5813C23.9339 15.2624 24.0347 14.9077 24.0347 14.5174L24.0304 14.5131ZM30.03 15.015C30.03 17.0485 29.6332 18.9925 28.8395 20.8473C28.0459 22.702 26.9791 24.2993 25.6392 25.6392C24.2993 26.9791 22.702 28.0459 20.8473 28.8395C18.9925 29.6332 17.0485 30.03 15.015 30.03C12.9815 30.03 11.0375 29.6332 9.18274 28.8395C7.32803 28.0459 5.73072 26.9791 4.39081 25.6392C3.05091 24.2993 1.98412 22.702 1.19048 20.8473C0.396825 18.9925 0 17.0485 0 15.015C0 12.9815 0.396825 11.0375 1.19048 9.18274C1.98412 7.32803 3.05091 5.73072 4.39081 4.39081C5.73072 3.05091 7.32803 1.98412 9.18274 1.19047C11.0375 0.396825 12.9815 0 15.015 0C17.0485 0 18.9925 0.396825 20.8473 1.19047C22.702 1.98412 24.2993 3.05091 25.6392 4.39081C26.9791 5.73072 28.0459 7.32803 28.8395 9.18274C29.6332 11.0375 30.03 12.9815 30.03 15.015V15.015Z" fill="white"/>
</svg>
