<svg width="30" height="29" viewBox="0 0 30 29" fill="none" xmlns="http://www.w3.org/2000/svg">
<path d="M14.793 0C6.78485 0 0.292969 6.49188 0.292969 14.5C0.292969 22.5081 6.78485 29 14.793 29C22.8011 29 29.293 22.5081 29.293 14.5C29.293 6.49188 22.8011 0 14.793 0ZM11.1667 19.51L11.0293 19.6474C10.7447 19.932 10.4405 20.2019 10.1265 20.4521L9.76336 20.7367C9.73882 20.7563 9.70938 20.7662 9.67994 20.7662C9.65541 20.7662 9.63087 20.7613 9.61124 20.7465C9.56217 20.7171 9.53764 20.6631 9.55236 20.6042L9.69466 19.9614C9.85168 19.2646 9.81734 18.5335 9.59652 17.8514L9.51801 17.6159C9.42969 17.3411 9.32173 17.0712 9.20887 16.8063L7.53561 12.8562L7.35405 12.3164C7.30008 12.1496 7.26082 11.9778 7.24119 11.8012L7.21175 11.5313C7.12833 10.7707 7.3884 10.0249 7.92816 9.48511L8.06556 9.34772C8.35016 9.06311 8.65439 8.79323 8.96843 8.54298L9.33155 8.25838C9.37571 8.22403 9.43459 8.21912 9.48366 8.24856C9.53273 8.278 9.55727 8.33198 9.54255 8.39086L9.40024 9.03367C9.24322 9.73046 9.27757 10.4616 9.49838 11.1437L9.57689 11.3792C9.66522 11.654 9.77317 11.9239 9.88603 12.1888L11.5642 16.1389L11.7458 16.6787C11.7997 16.8455 11.839 17.0173 11.8586 17.1939L11.8881 17.4638C11.9666 18.2195 11.7065 18.9702 11.1667 19.51ZM16.8293 20.8054L16.6527 20.9821C16.2945 21.3403 15.9118 21.6838 15.5143 21.9929L15.0432 22.3658C15.0187 22.3854 14.9843 22.3953 14.9549 22.3953C14.9304 22.3953 14.9009 22.3854 14.8764 22.3707C14.8224 22.3364 14.7979 22.2775 14.8126 22.2186L14.9991 21.3893C15.1953 20.5061 15.1512 19.5836 14.8715 18.7249L14.7733 18.4256C14.6605 18.0772 14.528 17.7337 14.3808 17.4L12.2659 12.4195L12.0402 11.7423C11.9715 11.5362 11.9224 11.3154 11.8979 11.0995L11.8586 10.756C11.7507 9.80406 12.0794 8.87174 12.7517 8.18968L12.9283 8.01303C13.2865 7.65482 13.6693 7.31134 14.0667 7.0022L14.5378 6.62927C14.5869 6.59002 14.6507 6.58511 14.7046 6.61946C14.7586 6.65381 14.7832 6.71269 14.7684 6.77157L14.582 7.60085C14.3857 8.48409 14.4299 9.4066 14.7096 10.2653L14.8077 10.5646C14.9205 10.9081 15.053 11.2565 15.2002 11.5902L17.3151 16.5756L17.5409 17.2528C17.6096 17.4589 17.6586 17.6797 17.6832 17.8956L17.7224 18.2391C17.8304 19.191 17.5016 20.1283 16.8293 20.8054ZM21.6578 19.51L21.5204 19.6474C21.2358 19.932 20.9315 20.2019 20.6175 20.4521L20.2544 20.7367C20.2299 20.7563 20.2004 20.7662 20.171 20.7662C20.1464 20.7662 20.1219 20.7613 20.1023 20.7465C20.0532 20.7171 20.0287 20.6631 20.0434 20.6042L20.1857 19.9614C20.3427 19.2646 20.3084 18.5335 20.0876 17.8514L20.009 17.6159C19.9207 17.3411 19.8128 17.0712 19.6999 16.8063L18.0217 12.8562L17.8402 12.3164C17.7862 12.1496 17.7469 11.9778 17.7273 11.8012L17.6979 11.5313C17.6145 10.7707 17.8745 10.0249 18.4143 9.48511L18.5517 9.34772C18.8363 9.06311 19.1405 8.79323 19.4546 8.54298L19.8177 8.25838C19.8618 8.22403 19.9207 8.21912 19.9698 8.24856C20.0189 8.278 20.0434 8.33198 20.0287 8.39086L19.8864 9.03367C19.7293 9.73046 19.7637 10.4616 19.9845 11.1437L20.063 11.3792C20.1513 11.654 20.2593 11.9239 20.3722 12.1888L22.0503 16.1389L22.2319 16.6787C22.2859 16.8455 22.3251 17.0173 22.3447 17.1939L22.3742 17.4638C22.4576 18.2195 22.1975 18.9702 21.6578 19.51Z" fill="white"/>
</svg>
