<svg width="30" height="29" viewBox="0 0 30 29" fill="none" xmlns="http://www.w3.org/2000/svg">
<path d="M14.9531 29C22.9632 29 29.4531 22.51 29.4531 14.5C29.4531 6.48996 22.9632 0 14.9531 0C6.94308 0 0.453125 6.48996 0.453125 14.5C0.453125 22.51 6.94308 29 14.9531 29ZM7.08808 14.1858L21.0685 8.79546C21.7174 8.56104 22.2841 8.95375 22.0738 9.93492L22.075 9.93371L19.6946 21.1483C19.5182 21.9433 19.0458 22.1367 18.3848 21.7621L14.7598 19.0905L13.0113 20.7749C12.818 20.9682 12.6549 21.1313 12.2803 21.1313L12.5377 17.4423L19.256 11.3728C19.5484 11.1155 19.1908 10.9705 18.8053 11.2266L10.5028 16.4539L6.92375 15.3374C6.14679 15.0909 6.12988 14.5604 7.08808 14.1858Z" fill="white"/>
</svg>
