<svg width="22" height="22" viewBox="0 0 22 22" fill="none" xmlns="http://www.w3.org/2000/svg">
<path fill-rule="evenodd" clip-rule="evenodd" d="M11 22C17.0751 22 22 17.0751 22 11C22 4.92487 17.0751 0 11 0C4.92487 0 0 4.92487 0 11C0 17.0751 4.92487 22 11 22ZM12.5533 9.5201C12.9626 9.92939 13.1673 10.4233 13.1673 11.0017C13.1673 11.5802 12.9626 12.074 12.5533 12.4833C12.1441 12.8926 11.6502 13.0972 11.0717 13.0972C10.4933 13.0972 9.99942 12.8926 9.59014 12.4833C9.18086 12.074 8.97621 11.5802 8.97621 11.0017C8.97621 10.4233 9.18086 9.92939 9.59014 9.5201C9.99942 9.11082 10.4933 8.90618 11.0717 8.90618C11.6502 8.90618 12.1441 9.11082 12.5533 9.5201ZM13.3555 13.2855C13.9831 12.6579 14.2969 11.8967 14.2969 11.0017C14.2969 10.1067 13.9831 9.34548 13.3555 8.71791C12.728 8.09034 11.9667 7.77656 11.0717 7.77656C10.1768 7.77656 9.41551 8.09034 8.78794 8.71791C8.16038 9.34548 7.84659 10.1067 7.84659 11.0017C7.84659 11.8967 8.16038 12.6579 8.78794 13.2855C9.41551 13.9131 10.1768 14.2269 11.0717 14.2269C11.9667 14.2269 12.728 13.9131 13.3555 13.2855ZM14.9599 8.17765C15.1073 8.03031 15.1809 7.85296 15.1809 7.64559C15.1809 7.43822 15.1073 7.26086 14.9599 7.11352C14.8126 6.96618 14.6352 6.89251 14.4279 6.89251C14.2205 6.89251 14.0431 6.96618 13.8958 7.11352C13.7485 7.26086 13.6748 7.43822 13.6748 7.64559C13.6748 7.85296 13.7485 8.03031 13.8958 8.17765C14.0431 8.325 14.2205 8.39867 14.4279 8.39867C14.6352 8.39867 14.8126 8.325 14.9599 8.17765ZM10.4455 5.84065C10.8248 5.84338 11.0335 5.84474 11.0717 5.84474C11.1099 5.84474 11.3187 5.84338 11.6979 5.84065C12.0772 5.83792 12.3651 5.83792 12.5615 5.84065C12.758 5.84338 13.0213 5.85156 13.3514 5.86521C13.6816 5.87885 13.9626 5.90613 14.1946 5.94706C14.4265 5.98799 14.6216 6.03847 14.7798 6.0985C15.0527 6.20764 15.2928 6.36589 15.5002 6.57326C15.7076 6.78063 15.8658 7.02075 15.975 7.2936C16.035 7.45186 16.0855 7.64695 16.1264 7.87888C16.1673 8.1108 16.1946 8.39185 16.2082 8.722C16.2219 9.05216 16.2301 9.31546 16.2328 9.51192C16.2355 9.70837 16.2355 9.99623 16.2328 10.3755C16.2301 10.7548 16.2287 10.9635 16.2287 11.0017C16.2287 11.0399 16.2301 11.2486 16.2328 11.6279C16.2355 12.0072 16.2355 12.295 16.2328 12.4915C16.2301 12.688 16.2219 12.9513 16.2082 13.2814C16.1946 13.6116 16.1673 13.8926 16.1264 14.1245C16.0855 14.3565 16.035 14.5516 15.975 14.7098C15.8658 14.9827 15.7076 15.2228 15.5002 15.4301C15.2928 15.6375 15.0527 15.7958 14.7798 15.9049C14.6216 15.9649 14.4265 16.0154 14.1946 16.0564C13.9626 16.0973 13.6816 16.1246 13.3514 16.1382C13.0213 16.1519 12.758 16.16 12.5615 16.1628C12.3651 16.1655 12.0772 16.1655 11.6979 16.1628C11.3187 16.16 11.1099 16.1587 11.0717 16.1587C11.0335 16.1587 10.8248 16.16 10.4455 16.1628C10.0663 16.1655 9.77841 16.1655 9.58195 16.1628C9.3855 16.16 9.12219 16.1519 8.79204 16.1382C8.46188 16.1246 8.18084 16.0973 7.94891 16.0564C7.71699 16.0154 7.5219 15.9649 7.36364 15.9049C7.09078 15.7958 6.85067 15.6375 6.6433 15.4301C6.43593 15.2228 6.27767 14.9827 6.16853 14.7098C6.1085 14.5516 6.05803 14.3565 6.0171 14.1245C5.97617 13.8926 5.94888 13.6116 5.93524 13.2814C5.9216 12.9513 5.91341 12.688 5.91068 12.4915C5.90796 12.295 5.90796 12.0072 5.91068 11.6279C5.91341 11.2486 5.91478 11.0399 5.91478 11.0017C5.91478 10.9635 5.91341 10.7548 5.91068 10.3755C5.90796 9.99623 5.90796 9.70837 5.91068 9.51192C5.91341 9.31546 5.9216 9.05216 5.93524 8.722C5.94888 8.39185 5.97617 8.1108 6.0171 7.87888C6.05803 7.64695 6.1085 7.45186 6.16853 7.2936C6.27767 7.02075 6.43593 6.78063 6.6433 6.57326C6.85067 6.36589 7.09078 6.20764 7.36364 6.0985C7.5219 6.03847 7.71699 5.98799 7.94891 5.94706C8.18084 5.90613 8.46188 5.87885 8.79204 5.86521C9.12219 5.85156 9.3855 5.84338 9.58195 5.84065C9.77841 5.83792 10.0663 5.83792 10.4455 5.84065ZM17.3174 13.5966C17.3447 13.1163 17.3583 12.2514 17.3583 11.0017C17.3583 9.75203 17.3447 8.88708 17.3174 8.40685C17.2628 7.27177 16.9245 6.39318 16.3024 5.77107C15.6803 5.14896 14.8017 4.81062 13.6666 4.75605C13.1864 4.72876 12.3214 4.71512 11.0717 4.71512C9.82207 4.71512 8.95711 4.72876 8.47689 4.75605C7.34181 4.81062 6.46322 5.14896 5.84111 5.77107C5.219 6.39318 4.88066 7.27177 4.82608 8.40685C4.7988 8.88708 4.78516 9.75203 4.78516 11.0017C4.78516 12.2514 4.7988 13.1163 4.82608 13.5966C4.88066 14.7316 5.219 15.6102 5.84111 16.2323C6.46322 16.8545 7.34181 17.1928 8.47689 17.2474C8.95711 17.2747 9.82207 17.2883 11.0717 17.2883C12.3214 17.2883 13.1864 17.2747 13.6666 17.2474C14.8017 17.1928 15.6803 16.8545 16.3024 16.2323C16.9245 15.6102 17.2628 14.7316 17.3174 13.5966Z" fill="#090909" fill-opacity="0.7"/>
</svg>
