<svg width="22" height="22" viewBox="0 0 22 22" fill="none" xmlns="http://www.w3.org/2000/svg">
<circle cx="11" cy="11" r="11" fill="#F0F0F0"/>
<path d="M14.4375 11C14.4375 11.9117 14.0753 12.786 13.4307 13.4307C12.786 14.0753 11.9117 14.4375 11 14.4375C10.0883 14.4375 9.21398 14.0753 8.56932 13.4307C7.92466 12.786 7.5625 11.9117 7.5625 11C7.5625 10.8041 7.58312 10.6127 7.61864 10.4271H6.41667V15.007C6.41667 15.3255 6.67448 15.5833 6.99302 15.5833H15.0081C15.1608 15.583 15.3071 15.5222 15.4149 15.4141C15.5228 15.3061 15.5833 15.1596 15.5833 15.007V10.4271H14.3814C14.4169 10.6127 14.4375 10.8041 14.4375 11V11ZM11 13.2917C11.301 13.2916 11.5991 13.2322 11.8772 13.117C12.1552 13.0017 12.4079 12.8328 12.6207 12.6199C12.8335 12.407 13.0023 12.1542 13.1174 11.8761C13.2325 11.598 13.2917 11.2999 13.2917 10.9989C13.2916 10.6978 13.2322 10.3998 13.117 10.1217C13.0017 9.84362 12.8328 9.59096 12.6199 9.37816C12.407 9.16536 12.1542 8.99658 11.8761 8.88145C11.598 8.76633 11.2999 8.70711 10.9989 8.70719C10.3909 8.70734 9.80793 8.94899 9.37816 9.37897C8.94839 9.80896 8.70703 10.3921 8.70719 11C8.70734 11.6079 8.94899 12.1909 9.37897 12.6207C9.80896 13.0505 10.3921 13.2918 11 13.2917V13.2917ZM13.75 8.59375H15.1239C15.2151 8.59375 15.3027 8.55757 15.3673 8.49314C15.432 8.4287 15.4684 8.34127 15.4687 8.25V6.87615C15.4687 6.78467 15.4324 6.69695 15.3677 6.63227C15.3031 6.56759 15.2153 6.53125 15.1239 6.53125H13.75C13.6585 6.53125 13.5708 6.56759 13.5061 6.63227C13.4414 6.69695 13.4051 6.78467 13.4051 6.87615V8.25C13.4062 8.43906 13.5609 8.59375 13.75 8.59375V8.59375ZM11 0C8.08262 0 5.28473 1.15892 3.22182 3.22182C1.15892 5.28473 0 8.08262 0 11C0 13.9174 1.15892 16.7153 3.22182 18.7782C5.28473 20.8411 8.08262 22 11 22C12.4445 22 13.8749 21.7155 15.2095 21.1627C16.5441 20.6099 17.7567 19.7996 18.7782 18.7782C19.7996 17.7567 20.6099 16.5441 21.1627 15.2095C21.7155 13.8749 22 12.4445 22 11C22 9.55546 21.7155 8.12506 21.1627 6.79048C20.6099 5.4559 19.7996 4.24327 18.7782 3.22182C17.7567 2.20038 16.5441 1.39013 15.2095 0.837325C13.8749 0.284523 12.4445 0 11 0V0ZM16.7292 15.4561C16.7292 16.1562 16.1562 16.7292 15.4561 16.7292H6.54385C5.84375 16.7292 5.27083 16.1562 5.27083 15.4561V6.54385C5.27083 5.84375 5.84375 5.27083 6.54385 5.27083H15.4561C16.1562 5.27083 16.7292 5.84375 16.7292 6.54385V15.4561V15.4561Z" fill="#666666"/>
</svg>
