<svg width="27" height="27" viewBox="0 0 27 27" fill="none" xmlns="http://www.w3.org/2000/svg">
<circle cx="13.5078" cy="13.9004" r="13" fill="#666666"/>
<path d="M16.5051 13.9022C16.5051 13.0991 16.2209 12.4134 15.6527 11.8452C15.0844 11.2769 14.3987 10.9928 13.5956 10.9928C12.7925 10.9928 12.1068 11.2769 11.5385 11.8452C10.9703 12.4134 10.6861 13.0991 10.6861 13.9022C10.6861 14.7054 10.9703 15.3911 11.5385 15.9593C12.1068 16.5276 12.7925 16.8117 13.5956 16.8117C14.3987 16.8117 15.0844 16.5276 15.6527 15.9593C16.2209 15.3911 16.5051 14.7054 16.5051 13.9022ZM18.0735 13.9022C18.0735 15.1448 17.6378 16.2018 16.7665 17.0731C15.8951 17.9444 14.8382 18.3801 13.5956 18.3801C12.353 18.3801 11.2961 17.9444 10.4247 17.0731C9.55341 16.2018 9.11774 15.1448 9.11774 13.9022C9.11774 12.6597 9.55341 11.6027 10.4247 10.7314C11.2961 9.86005 12.353 9.42438 13.5956 9.42438C14.8382 9.42438 15.8951 9.86005 16.7665 10.7314C17.6378 11.6027 18.0735 12.6597 18.0735 13.9022ZM19.3009 9.24254C19.3009 9.53046 19.1986 9.7767 18.994 9.98127C18.7895 10.1858 18.5432 10.2881 18.2553 10.2881C17.9674 10.2881 17.7211 10.1858 17.5166 9.98127C17.312 9.7767 17.2097 9.53046 17.2097 9.24254C17.2097 8.95463 17.312 8.70838 17.5166 8.50381C17.7211 8.29924 17.9674 8.19695 18.2553 8.19695C18.5432 8.19695 18.7895 8.29924 18.994 8.50381C19.1986 8.70838 19.3009 8.95463 19.3009 9.24254ZM13.5956 6.74221C13.5426 6.74221 13.2528 6.74032 12.7262 6.73653C12.1996 6.73274 11.7999 6.73274 11.5271 6.73653C11.2544 6.74032 10.8888 6.75169 10.4304 6.77063C9.97202 6.78957 9.58182 6.82745 9.25981 6.88428C8.9378 6.9411 8.66693 7.01119 8.4472 7.09453C8.06836 7.24607 7.73499 7.46579 7.44707 7.75371C7.15915 8.04163 6.93943 8.375 6.78789 8.75384C6.70455 8.97357 6.63446 9.24444 6.57764 9.56645C6.52081 9.88846 6.48293 10.2787 6.46399 10.7371C6.44505 11.1954 6.43368 11.561 6.42989 11.8338C6.4261 12.1066 6.4261 12.5062 6.42989 13.0328C6.43368 13.5594 6.43557 13.8492 6.43557 13.9022C6.43557 13.9553 6.43368 14.2451 6.42989 14.7717C6.4261 15.2983 6.4261 15.6979 6.42989 15.9707C6.43368 16.2435 6.44505 16.609 6.46399 17.0674C6.48293 17.5258 6.52081 17.916 6.57764 18.238C6.63446 18.56 6.70455 18.8309 6.78789 19.0506C6.93943 19.4295 7.15915 19.7629 7.44707 20.0508C7.73499 20.3387 8.06836 20.5584 8.4472 20.7099C8.66693 20.7933 8.9378 20.8634 9.25981 20.9202C9.58182 20.977 9.97202 21.0149 10.4304 21.0339C10.8888 21.0528 11.2544 21.0642 11.5271 21.068C11.7999 21.0717 12.1996 21.0717 12.7262 21.068C13.2528 21.0642 13.5426 21.0623 13.5956 21.0623C13.6486 21.0623 13.9384 21.0642 14.465 21.068C14.9916 21.0717 15.3913 21.0717 15.6641 21.068C15.9368 21.0642 16.3024 21.0528 16.7608 21.0339C17.2192 21.0149 17.6094 20.977 17.9314 20.9202C18.2534 20.8634 18.5243 20.7933 18.744 20.7099C19.1228 20.5584 19.4562 20.3387 19.7441 20.0508C20.032 19.7629 20.2518 19.4295 20.4033 19.0506C20.4867 18.8309 20.5567 18.56 20.6136 18.238C20.6704 17.916 20.7083 17.5258 20.7272 17.0674C20.7462 16.609 20.7575 16.2435 20.7613 15.9707C20.7651 15.6979 20.7651 15.2983 20.7613 14.7717C20.7575 14.2451 20.7556 13.9553 20.7556 13.9022C20.7556 13.8492 20.7575 13.5594 20.7613 13.0328C20.7651 12.5062 20.7651 12.1066 20.7613 11.8338C20.7575 11.561 20.7462 11.1954 20.7272 10.7371C20.7083 10.2787 20.6704 9.88846 20.6136 9.56645C20.5567 9.24444 20.4867 8.97357 20.4033 8.75384C20.2518 8.375 20.032 8.04163 19.7441 7.75371C19.4562 7.46579 19.1228 7.24607 18.744 7.09453C18.5243 7.01119 18.2534 6.9411 17.9314 6.88428C17.6094 6.82745 17.2192 6.78957 16.7608 6.77063C16.3024 6.75169 15.9368 6.74032 15.6641 6.73653C15.3913 6.73274 14.9916 6.73274 14.465 6.73653C13.9384 6.74032 13.6486 6.74221 13.5956 6.74221V6.74221ZM22.324 13.9022C22.324 15.6373 22.3051 16.8382 22.2672 17.505C22.1914 19.0809 21.7217 20.3008 20.8579 21.1646C19.9942 22.0283 18.7743 22.4981 17.1983 22.5738C16.5316 22.6117 15.3307 22.6307 13.5956 22.6307C11.8605 22.6307 10.6596 22.6117 9.99286 22.5738C8.41689 22.4981 7.19704 22.0283 6.33329 21.1646C5.46954 20.3008 4.99978 19.0809 4.92401 17.505C4.88613 16.8382 4.86719 15.6373 4.86719 13.9022C4.86719 12.1672 4.88613 10.9663 4.92401 10.2995C4.99978 8.72353 5.46954 7.50368 6.33329 6.63993C7.19704 5.77618 8.41689 5.30642 9.99286 5.23065C10.6596 5.19277 11.8605 5.17383 13.5956 5.17383C15.3307 5.17383 16.5316 5.19277 17.1983 5.23065C18.7743 5.30642 19.9942 5.77618 20.8579 6.63993C21.7217 7.50368 22.1914 8.72353 22.2672 10.2995C22.3051 10.9663 22.324 12.1672 22.324 13.9022Z" fill="white"/>
</svg>
