<svg width="22" height="22" viewBox="0 0 22 22" fill="none" xmlns="http://www.w3.org/2000/svg">
<circle cx="11" cy="11" r="11" fill="white"/>
<path d="M11 22C4.9247 22 0 17.0753 0 11C0 4.9247 4.9247 0 11 0C17.0753 0 22 4.9247 22 11C22 17.0753 17.0753 22 11 22ZM8.04027 15.8473V8.53747H5.84027V15.8473H8.04027V15.8473ZM6.94027 5.35333C6.23077 5.35333 5.76767 5.8465 5.78197 6.50467C5.7673 7.1324 6.23077 7.6406 6.92597 7.6406C7.6494 7.6406 8.11287 7.1324 8.11287 6.5043C8.0982 5.8465 7.6494 5.35333 6.94027 5.35333ZM9.8065 15.8473H12.0065V11.6318C12.0065 11.4228 12.0358 11.1984 12.0938 11.0634C12.2382 10.6454 12.6001 10.2117 13.2084 10.2117C14.0041 10.2117 14.3231 10.8544 14.3231 11.7964V15.8473H16.5231V11.5122C16.5231 9.3599 15.4378 8.37283 13.9898 8.37283C12.8176 8.37283 12.0938 9.07573 11.8041 9.53883H11.7605L11.6593 8.53747H9.74857C9.77753 9.18023 9.8065 9.95757 9.8065 10.8695V15.8473V15.8473Z" fill="black" fill-opacity="0.6"/>
</svg>
