<svg width="22" height="22" viewBox="0 0 22 22" fill="none" xmlns="http://www.w3.org/2000/svg">
<path fill-rule="evenodd" clip-rule="evenodd" d="M11 22C17.0751 22 22 17.0751 22 11C22 4.92487 17.0751 0 11 0C4.92487 0 0 4.92487 0 11C0 17.0751 4.92487 22 11 22ZM11.9875 11.0022C11.9875 8.58595 10.0422 6.62702 7.64226 6.62702C5.24236 6.62702 3.29688 8.58595 3.29688 11.0022C3.29688 13.4185 5.24251 15.3773 7.64226 15.3773C10.042 15.3773 11.9875 13.4185 11.9875 11.0022ZM16.7542 11.0022C16.7542 8.72723 15.7815 6.88331 14.5815 6.88331C13.3816 6.88331 12.409 8.72782 12.409 11.0022C12.409 13.2766 13.3817 15.1212 14.5817 15.1212C15.7816 15.1212 16.7544 13.2766 16.7544 11.0022H16.7542ZM18.7042 11.0022C18.7042 8.96433 18.3619 7.31233 17.94 7.31233C17.5181 7.31233 17.176 8.96448 17.176 11.0022C17.176 13.04 17.5179 14.6921 17.94 14.6921C18.3621 14.6921 18.7042 13.0396 18.7042 11.0022Z" fill="#090909" fill-opacity="0.7"/>
</svg>
