<svg width="22" height="22" viewBox="0 0 22 22" fill="none" xmlns="http://www.w3.org/2000/svg">
<path d="M13.4428 14.3267C13.5536 14.4375 13.5536 14.6088 13.4428 14.707C12.7427 15.4071 11.3929 15.4684 11 15.4684C10.6071 15.4684 9.2565 15.4071 8.55721 14.707C8.44643 14.6088 8.44643 14.4367 8.55721 14.3267C8.60689 14.2794 8.67286 14.253 8.74146 14.253C8.81007 14.253 8.87604 14.2794 8.92571 14.3267C9.36728 14.7809 10.3251 14.9286 11.0008 14.9286C11.6765 14.9286 12.6217 14.7816 13.0759 14.3267C13.1255 14.2794 13.1915 14.253 13.2601 14.253C13.3287 14.253 13.3947 14.2794 13.4444 14.3267H13.4428ZM9.6745 12.1047C9.6745 12.7066 9.18343 13.1976 8.58157 13.1976C8.43723 13.1986 8.29412 13.171 8.16044 13.1166C8.02676 13.0621 7.90513 12.9818 7.80251 12.8803C7.6999 12.7788 7.61832 12.658 7.56244 12.525C7.50655 12.3919 7.47747 12.2491 7.47686 12.1047C7.47623 11.9595 7.50438 11.8155 7.55968 11.6812C7.61497 11.5469 7.69632 11.4249 7.79903 11.3222C7.90174 11.2195 8.02377 11.1381 8.15808 11.0828C8.29239 11.0275 8.43632 10.9994 8.58157 11C9.18343 11 9.6745 11.4911 9.6745 12.1047ZM14.5231 12.1047C14.5231 12.7066 14.0321 13.1976 13.4184 13.1976C13.1288 13.197 12.8511 13.0817 12.6463 12.8768C12.4415 12.672 12.3261 12.3944 12.3255 12.1047C12.3255 11.4911 12.8166 11 13.4184 11C13.5637 10.9994 13.7076 11.0275 13.8419 11.0828C13.9762 11.1381 14.0983 11.2195 14.201 11.3222C14.3037 11.4249 14.385 11.5469 14.4403 11.6812C14.4956 11.8155 14.5238 11.9595 14.5231 12.1047ZM17.6047 10.6315C17.6039 10.4389 17.5651 10.2483 17.4907 10.0706C17.4162 9.89295 17.3074 9.7317 17.1706 9.59606C17.0338 9.46043 16.8716 9.35307 16.6934 9.28011C16.5151 9.20715 16.3241 9.17003 16.1315 9.17086C15.7143 9.17086 15.3458 9.34293 15.0755 9.61243C14.0808 8.92493 12.7427 8.48336 11.2577 8.43386L12.0309 4.95943L14.4862 5.51179C14.4862 6.11364 14.9773 6.60471 15.5791 6.60471C16.1928 6.60471 16.6839 6.10107 16.6839 5.5C16.6839 4.89893 16.1928 4.39529 15.5791 4.39529C15.375 4.3979 15.1754 4.4565 15.0022 4.5647C14.829 4.6729 14.6889 4.82656 14.597 5.00893L11.8839 4.40707C11.7488 4.37014 11.6136 4.46836 11.5767 4.6035L10.7297 8.43386C9.2565 8.49514 7.93021 8.9375 6.93629 9.625C6.79826 9.48103 6.63247 9.36656 6.44893 9.2885C6.2654 9.21044 6.06794 9.17042 5.8685 9.17086C5.67586 9.17003 5.48494 9.20715 5.30665 9.28011C5.12836 9.35307 4.96618 9.46043 4.82938 9.59606C4.69258 9.7317 4.58383 9.89295 4.50935 10.0706C4.43487 10.2483 4.39611 10.4389 4.39529 10.6315C4.39529 11.2208 4.73943 11.7119 5.22971 11.957C5.18004 12.1828 5.15527 12.4133 5.15586 12.6445C5.15586 14.9773 7.78329 16.8677 11.0118 16.8677C14.2529 16.8677 16.8803 14.9773 16.8803 12.6445C16.8803 12.4111 16.8559 12.166 16.7946 11.9444C17.0378 11.8216 17.2422 11.6338 17.3851 11.4019C17.5281 11.1701 17.6041 10.9031 17.6047 10.6307V10.6315ZM22 11C22 17.0767 17.0767 22 11 22C4.92329 22 0 17.0767 0 11C0 4.92329 4.92329 0 11 0C17.0767 0 22 4.92329 22 11Z" fill="#090909" fill-opacity="0.7"/>
</svg>
