<svg width="27" height="27" viewBox="0 0 27 27" fill="none" xmlns="http://www.w3.org/2000/svg">
<path d="M15.9572 17.832C16.0882 17.9629 16.0882 18.1653 15.9572 18.2814C15.1299 19.1087 13.5346 19.1812 13.0703 19.1812C12.606 19.1812 11.0098 19.1087 10.1834 18.2814C10.0525 18.1653 10.0525 17.962 10.1834 17.832C10.2421 17.776 10.3201 17.7449 10.4011 17.7449C10.4822 17.7449 10.5602 17.776 10.6189 17.832C11.1407 18.3687 12.2727 18.5432 13.0712 18.5432C13.8698 18.5432 14.9869 18.3696 15.5236 17.832C15.5823 17.776 15.6603 17.7449 15.7413 17.7449C15.8224 17.7449 15.9004 17.776 15.9591 17.832H15.9572ZM11.5038 15.206C11.5038 15.9172 10.9235 16.4976 10.2122 16.4976C10.0416 16.4987 9.87245 16.4661 9.71447 16.4018C9.55648 16.3374 9.41273 16.2426 9.29146 16.1226C9.17019 16.0026 9.07378 15.8599 9.00774 15.7026C8.9417 15.5453 8.90733 15.3766 8.9066 15.206C8.90586 15.0343 8.93913 14.8642 9.00448 14.7055C9.06983 14.5467 9.16597 14.4025 9.28735 14.2811C9.40873 14.1598 9.55295 14.0636 9.71168 13.9983C9.87041 13.9329 10.0405 13.8997 10.2122 13.9004C10.9235 13.9004 11.5038 14.4807 11.5038 15.206ZM17.234 15.206C17.234 15.9172 16.6537 16.4976 15.9285 16.4976C15.5861 16.4969 15.258 16.3605 15.0159 16.1185C14.7739 15.8764 14.6375 15.5483 14.6368 15.206C14.6368 14.4807 15.2172 13.9004 15.9285 13.9004C16.1001 13.8997 16.2702 13.9329 16.4289 13.9983C16.5877 14.0636 16.7319 14.1598 16.8533 14.2811C16.9747 14.4025 17.0708 14.5467 17.1361 14.7055C17.2015 14.8642 17.2348 15.0343 17.234 15.206ZM20.8759 13.4649C20.8749 13.2372 20.8291 13.012 20.7411 12.802C20.6531 12.5921 20.5245 12.4015 20.3629 12.2412C20.2012 12.0809 20.0095 11.954 19.7988 11.8678C19.5881 11.7816 19.3625 11.7377 19.1348 11.7387C18.6417 11.7387 18.2062 11.942 17.8868 12.2605C16.7112 11.448 15.1299 10.9262 13.3749 10.8677L14.2886 6.76153L17.1904 7.41432C17.1904 8.12561 17.7707 8.70596 18.482 8.70596C19.2072 8.70596 19.7876 8.11075 19.7876 7.40039C19.7876 6.69003 19.2072 6.09482 18.482 6.09482C18.2407 6.09791 18.0049 6.16716 17.8002 6.29504C17.5955 6.42291 17.4299 6.60451 17.3213 6.82003L14.115 6.10875C13.9552 6.0651 13.7955 6.18118 13.7519 6.34089L12.7509 10.8677C11.0098 10.9401 9.44238 11.4629 8.26774 12.2754C8.10462 12.1052 7.90868 11.97 7.69178 11.8777C7.47488 11.7855 7.24152 11.7382 7.00581 11.7387C6.77815 11.7377 6.55252 11.7816 6.34181 11.8678C6.1311 11.954 5.93944 12.0809 5.77776 12.2412C5.61609 12.4015 5.48757 12.5921 5.39955 12.802C5.31152 13.012 5.26571 13.2372 5.26474 13.4649C5.26474 14.1613 5.67146 14.7417 6.25088 15.0314C6.19217 15.2982 6.1629 15.5707 6.1636 15.8439C6.1636 18.6008 9.26874 20.835 13.0842 20.835C16.9146 20.835 20.0197 18.6008 20.0197 15.8439C20.0197 15.5681 19.991 15.2784 19.9185 15.0165C20.2059 14.8713 20.4474 14.6494 20.6164 14.3754C20.7854 14.1014 20.8752 13.7859 20.8759 13.464V13.4649ZM26.0703 13.9004C26.0703 21.082 20.2519 26.9004 13.0703 26.9004C5.88874 26.9004 0.0703125 21.082 0.0703125 13.9004C0.0703125 6.71882 5.88874 0.900391 13.0703 0.900391C20.2519 0.900391 26.0703 6.71882 26.0703 13.9004Z" fill="black" fill-opacity="0.6"/>
</svg>
