<svg width="22" height="22" viewBox="0 0 22 22" fill="none" xmlns="http://www.w3.org/2000/svg">
<circle cx="11" cy="11" r="11" fill="white"/>
<path d="M11 0C4.92339 0 0 4.92339 0 11C0 17.0766 4.92339 22 11 22C17.0766 22 22 17.0766 22 11C22 4.92339 17.0766 0 11 0ZM16.4024 7.53589L14.5972 16.0431C14.4641 16.6464 14.1048 16.7927 13.6036 16.5089L10.8536 14.4819L9.52742 15.7593C9.38105 15.9056 9.25685 16.0298 8.97298 16.0298L9.16814 13.231L14.2645 8.62702C14.4863 8.43185 14.2157 8.32097 13.923 8.51613L7.6246 12.4815L4.91008 11.6343C4.32016 11.448 4.30685 11.0444 5.03427 10.7605L15.6395 6.67097C16.1319 6.49355 16.5621 6.79073 16.4024 7.53589V7.53589Z" fill="black" fill-opacity="0.6"/>
</svg>
