<svg width="22" height="22" viewBox="0 0 22 22" fill="none" xmlns="http://www.w3.org/2000/svg">
<path d="M10.5217 0C4.70933 0 0 4.92339 0 11C0 17.0766 4.70933 22 10.5217 22C16.3342 22 21.0435 17.0766 21.0435 11C21.0435 4.92339 16.3342 0 10.5217 0ZM15.6893 7.53589L13.9625 16.0431C13.8352 16.6464 13.4916 16.7927 13.0122 16.5089L10.3817 14.4819L9.11318 15.7593C8.97318 15.9056 8.85438 16.0298 8.58285 16.0298L8.76953 13.231L13.6443 8.62702C13.8565 8.43185 13.5977 8.32097 13.3176 8.51613L7.29309 12.4815L4.6966 11.6343C4.13233 11.448 4.1196 11.0444 4.81539 10.7605L14.9595 6.67097C15.4305 6.49355 15.842 6.79073 15.6893 7.53589Z" fill="#090909" fill-opacity="0.7"/>
</svg>
