<svg width="22" height="22" viewBox="0 0 22 22" fill="none" xmlns="http://www.w3.org/2000/svg">
<circle cx="11" cy="11" r="11" fill="#606060"/>
<path d="M11 3.5C6.8645 3.5 3.5 6.8645 3.5 11C3.5 15.1355 6.8645 18.5 11 18.5C15.1355 18.5 18.5 15.1355 18.5 11C18.5 6.8645 15.1355 3.5 11 3.5ZM16.9482 10.25H14.8752C14.7827 8.60843 14.3235 7.00847 13.5312 5.56775C14.4494 5.99679 15.2441 6.65105 15.8416 7.46968C16.439 8.28832 16.8197 9.24474 16.9482 10.25V10.25ZM11.3975 5.02025C12.1737 6.04325 13.2177 7.85525 13.3677 10.25H8.7725C8.87675 8.303 9.518 6.479 10.6107 5.0195C10.7397 5.012 10.8688 5 11 5C11.1343 5 11.2655 5.012 11.3975 5.02025ZM8.516 5.54525C7.778 6.9635 7.352 8.5715 7.2725 10.25H5.05175C5.18133 9.23588 5.56748 8.27158 6.17367 7.44831C6.77986 6.62505 7.58606 5.97004 8.516 5.54525V5.54525ZM5.05175 11.75H7.28225C7.38425 13.5342 7.781 15.1085 8.44925 16.4225C7.53589 15.992 6.7458 15.3381 6.15197 14.5215C5.55814 13.7048 5.17975 12.7516 5.05175 11.75V11.75ZM10.5875 16.9797C9.53675 15.7062 8.9165 13.922 8.78075 11.75H13.3655C13.2095 13.8298 12.5277 15.647 11.4132 16.979C11.2767 16.988 11.1403 17 11 17C10.8605 17 10.7247 16.988 10.5875 16.9797ZM13.5958 16.4008C14.312 15.0553 14.7493 13.475 14.864 11.75H16.9475C16.8209 12.7432 16.448 13.689 15.8626 14.5013C15.2772 15.3135 14.4979 15.9665 13.5958 16.4008V16.4008Z" fill="white"/>
</svg>
