<svg width="22" height="22" viewBox="0 0 22 22" fill="none" xmlns="http://www.w3.org/2000/svg">
<circle cx="11" cy="11" r="11" fill="#090909" fill-opacity="0.7"/>
<path d="M10.8333 17.1667C14.3311 17.1667 17.1667 14.3311 17.1667 10.8333C17.1667 7.33553 14.3311 4.5 10.8333 4.5C7.33553 4.5 4.5 7.33553 4.5 10.8333C4.5 14.3311 7.33553 17.1667 10.8333 17.1667Z" fill="#535353" stroke="white" stroke-linecap="round" stroke-linejoin="round"/>
<path d="M8.0013 10.8333C8.0013 12.4915 8.26923 14.0157 8.72048 15.1438C8.94555 15.7065 9.22606 16.1954 9.56312 16.5518C9.90118 16.9093 10.3307 17.1667 10.8346 17.1667C11.3386 17.1667 11.7681 16.9093 12.1062 16.5518C12.4432 16.1954 12.7237 15.7065 12.9488 15.1438C13.4 14.0157 13.668 12.4915 13.668 10.8333C13.668 9.17518 13.4 7.65097 12.9488 6.52285C12.7237 5.96017 12.4432 5.47127 12.1062 5.11486C11.7681 4.75739 11.3386 4.5 10.8346 4.5C10.3307 4.5 9.90118 4.75739 9.56312 5.11486C9.22606 5.47127 8.94555 5.96017 8.72048 6.52285C8.26923 7.65097 8.0013 9.17518 8.0013 10.8333Z" fill="#535353" stroke="white" stroke-linecap="round" stroke-linejoin="round"/>
<path d="M5 10.3335C4.72386 10.3335 4.5 10.5574 4.5 10.8335C4.5 11.1096 4.72386 11.3335 5 11.3335H16.6667C16.9428 11.3335 17.1667 11.1096 17.1667 10.8335C17.1667 10.5574 16.9428 10.3335 16.6667 10.3335H5Z" fill="#535353" stroke="white" stroke-linecap="round" stroke-linejoin="round"/>
</svg>
