<svg width="21" height="21" viewBox="0 0 21 21" fill="none" xmlns="http://www.w3.org/2000/svg">
<path d="M10.1258 2.54937V2.27941L9.86753 2.35804C9.02717 2.61391 8.22903 3.37282 7.58221 4.5856L7.58186 4.58626C7.36843 4.99007 7.18487 5.40897 7.03265 5.83959L6.93838 6.10625H7.22121H9.92578H10.1258V5.90625V2.54937ZM6.00961 6.10625H6.15647L6.20044 5.96613C6.38825 5.36758 6.62961 4.78717 6.9216 4.23195C7.11496 3.86636 7.33826 3.51741 7.5892 3.18866L8.0402 2.59783L7.35361 2.88257C5.89543 3.4873 4.64085 4.49684 3.73815 5.79188L3.51903 6.10625H3.90223H6.00961ZM5.34122 10.1258H5.53449L5.5411 9.93262C5.57515 8.93735 5.69769 7.98378 5.89476 7.09813L5.94892 6.85469H5.69953H3.23498H3.10857L3.05433 6.96888C2.61538 7.89303 2.35345 8.89123 2.2821 9.91183L2.26714 10.1258H2.48161H5.34122ZM6.87898 6.85469H6.72128L6.6845 7.00803C6.45547 7.96264 6.3236 8.93797 6.29092 9.91912L6.28403 10.1258H6.4908H9.92578H10.1258V9.92578V7.05469V6.85469H9.92578H6.87898ZM11.0742 6.85469H10.8742V7.05469V9.92578V10.1258H11.0742H14.508H14.7147L14.7079 9.91921C14.6757 8.93808 14.5442 7.96274 14.3155 7.0081L14.2788 6.85469H14.121H11.0742ZM6.49195 10.8742H6.28526L6.29206 11.0808C6.32437 12.0619 6.45584 13.0372 6.68448 13.9919L6.72122 14.1453H6.87898H9.92578H10.1258V13.9453V11.0742V10.8742H9.92578H6.49195ZM11.0742 10.8742H10.8742V11.0742V13.9453V14.1453H11.0742H14.121H14.278L14.3153 13.9928C14.5334 13.1005 14.6718 12.1189 14.7091 11.0814L14.7165 10.8742H14.5092H11.0742ZM7.22121 14.8938H6.93731L7.03288 15.1611C7.19431 15.6126 7.37846 16.0328 7.58221 16.4144C8.22918 17.6275 9.02843 18.3848 9.86718 18.6419L10.1258 18.7211V18.4506V15.0938V14.8938H9.92578H7.22121ZM7.35362 18.1174L7.43023 17.9327L7.5892 17.8113C7.33816 17.4825 7.1148 17.1334 6.92141 16.7677L6.74461 16.8612L6.92162 16.7681C6.62963 16.2129 6.38826 15.6324 6.20044 15.0339L6.15647 14.8938H6.00961H3.90223H3.51905L3.73815 15.2081C4.6408 16.5032 5.8954 17.5128 7.35362 18.1174ZM5.69953 14.1453H5.94832L5.89486 13.9023C5.68983 12.9704 5.57141 12.0216 5.54112 11.0679L5.53497 10.8742H5.34122H2.48161H2.26719L2.28209 11.0881C2.35507 12.1357 2.62467 13.1283 3.05439 14.0313L3.10867 14.1453H3.23498H5.69953ZM17.2619 15.2081L17.481 14.8938H17.0978H14.9904H14.8435L14.7996 15.0339C14.6117 15.6324 14.3704 16.2128 14.0784 16.768C13.8851 17.1337 13.6618 17.4826 13.4108 17.8113L13.5698 17.9327L13.6464 18.1174C15.1046 17.5128 16.3592 16.5032 17.2619 15.2081ZM11.0742 14.8938H10.8742L13.4178 16.4144C13.6215 16.0328 13.8057 15.6126 13.9671 15.1611L14.0627 14.8938H13.7788H11.0742ZM15.1051 13.9023L15.0517 14.1453H15.3005H17.765H17.8913L17.9456 14.0313C18.3753 13.1283 18.6449 12.1357 18.7179 11.0881L18.7328 10.8742H18.5184H15.6588H15.465L15.4589 11.0679C15.4286 12.0216 15.3102 12.9704 15.1051 13.9023ZM18.5184 10.1258H18.7329L18.7179 9.91183C18.6465 8.89123 18.3846 7.89304 17.9457 6.96888L17.8914 6.85469H17.765H15.3005H15.0511L15.1052 7.09813C15.3023 7.98378 15.4249 8.93735 15.4589 9.93262L15.4655 10.1258H15.6588H18.5184ZM14.7998 5.96693L14.8442 6.10625H14.9904H17.0978H17.481L17.2619 5.79189C16.3592 4.4968 15.1046 3.48724 13.6464 2.88257L12.9561 2.59634L13.4111 3.18909C13.6541 3.50567 13.878 3.85684 14.0788 4.23278C14.3563 4.75398 14.5987 5.33529 14.7998 5.96693ZM13.7788 6.10625H14.0616L13.9674 5.8396C13.8151 5.40896 13.6316 4.99006 13.4181 4.58625L13.4178 4.5856C12.7709 3.37263 11.9728 2.61514 11.1327 2.35812L10.8742 2.27902V2.54937V5.90625V6.10625H11.0742H13.7788ZM1.5125 10.5C1.5125 8.11637 2.45939 5.83036 4.14488 4.14488C5.83036 2.45939 8.11637 1.5125 10.5 1.5125C12.8836 1.5125 15.1696 2.45939 16.8551 4.14488C18.5406 5.83036 19.4875 8.11637 19.4875 10.5C19.4875 12.8836 18.5406 15.1696 16.8551 16.8551C15.1696 18.5406 12.8836 19.4875 10.5 19.4875C8.11637 19.4875 5.83036 18.5406 4.14488 16.8551C2.45939 15.1696 1.5125 12.8836 1.5125 10.5Z" fill="#767676" stroke="#767676" stroke-width="0.4"/>
</svg>
