<svg width="22" height="22" viewBox="0 0 22 22" fill="none" xmlns="http://www.w3.org/2000/svg">
<path d="M10.5217 0C4.73478 0 0 4.95 0 11C0 17.05 4.73478 22 10.5217 22C16.3087 22 21.0435 17.05 21.0435 11C21.0435 4.95 16.3087 0 10.5217 0ZM14.7304 11.7857L8.71801 15.6357C8.5677 15.7143 8.41739 15.7143 8.26708 15.7143C8.11677 15.7143 8.04161 15.7143 7.8913 15.6357C7.66584 15.4786 7.51553 15.2429 7.51553 14.9286V7.07143C7.51553 6.75714 7.66584 6.52143 7.8913 6.36429C8.11677 6.20714 8.41739 6.20714 8.64286 6.36429L14.6553 10.45C14.8807 10.6071 15.0311 10.8429 15.0311 11.1571C15.0311 11.3929 14.9559 11.7071 14.7304 11.7857Z" fill="#090909" fill-opacity="0.7"/>
</svg>
