<svg width="22" height="22" viewBox="0 0 22 22" fill="none" xmlns="http://www.w3.org/2000/svg">
<circle cx="11" cy="11" r="11" fill="white"/>
<path d="M11 0C4.95 0 0 4.95 0 11C0 17.05 4.95 22 11 22C17.05 22 22 17.05 22 11C22 4.95 17.05 0 11 0ZM15.4 11.7857L9.11429 15.6357C8.95714 15.7143 8.8 15.7143 8.64286 15.7143C8.48571 15.7143 8.40714 15.7143 8.25 15.6357C8.01429 15.4786 7.85714 15.2429 7.85714 14.9286V7.07143C7.85714 6.75714 8.01429 6.52143 8.25 6.36429C8.48571 6.20714 8.8 6.20714 9.03571 6.36429L15.3214 10.45C15.5571 10.6071 15.7143 10.8429 15.7143 11.1571C15.7143 11.3929 15.6357 11.7071 15.4 11.7857Z" fill="black" fill-opacity="0.6"/>
</svg>
