<svg width="14" height="13" viewBox="0 0 14 13" fill="none" xmlns="http://www.w3.org/2000/svg">
<path d="M12.4174 0H1.58344C0.710149 0 0 0.703222 0 1.5693V11.4325C0 12.2975 0.710149 13 1.58344 13H12.4173C13.2906 13 14 12.2975 14 11.4325V1.5693C14 0.703222 13.2906 0 12.4174 0ZM9.05314 2.33385C9.89765 2.33385 10.5825 3.01232 10.5825 3.84883C10.5825 4.68533 9.8976 5.36381 9.05314 5.36381C8.2084 5.36381 7.52374 4.68533 7.52374 3.84883C7.52374 3.01232 8.2084 2.33385 9.05314 2.33385ZM11.9208 11.5501H2.29822C1.87583 11.5501 1.68771 11.2474 1.87812 10.8739L4.50286 5.72415C4.69304 5.35072 5.05549 5.31739 5.31217 5.64964L7.95143 9.06622C8.20811 9.39852 8.65676 9.42679 8.95369 9.12907L9.59935 8.48142C9.89606 8.18371 10.3332 8.22057 10.5754 8.56322L12.2473 10.9289C12.489 11.2721 12.3432 11.5501 11.9208 11.5501Z" fill="#6D6D6D"/>
</svg>
