<svg width="23" height="17" viewBox="0 0 23 17" fill="none" xmlns="http://www.w3.org/2000/svg">
<path d="M21.9403 7.49401L14.8714 0.425078C14.6809 0.241126 14.4258 0.139339 14.161 0.14164C13.8963 0.143941 13.643 0.250145 13.4557 0.437379C13.2685 0.624613 13.1623 0.877896 13.16 1.14267C13.1577 1.40745 13.2595 1.66254 13.4434 1.853L18.7886 7.19813H1.02938C0.761551 7.19813 0.504692 7.30452 0.315309 7.4939C0.125926 7.68329 0.0195313 7.94015 0.0195312 8.20797C0.0195313 8.4758 0.125926 8.73266 0.315309 8.92204C0.504692 9.11143 0.761551 9.21782 1.02938 9.21782H18.7886L13.4434 14.5629C13.347 14.6561 13.2701 14.7675 13.2171 14.8907C13.1642 15.0139 13.1363 15.1465 13.1352 15.2805C13.134 15.4146 13.1596 15.5476 13.2103 15.6717C13.2611 15.7958 13.3361 15.9086 13.4309 16.0034C13.5257 16.0982 13.6385 16.1732 13.7626 16.224C13.8867 16.2747 14.0197 16.3003 14.1538 16.2991C14.2879 16.298 14.4204 16.2701 14.5436 16.2172C14.6668 16.1643 14.7782 16.0873 14.8714 15.9909L21.9403 8.92194C22.1296 8.73256 22.236 8.47575 22.236 8.20797C22.236 7.9402 22.1296 7.68339 21.9403 7.49401Z" fill="#363636"/>
</svg>
