<svg width="15" height="22" viewBox="0 0 15 22" fill="none" xmlns="http://www.w3.org/2000/svg">
<path fill-rule="evenodd" clip-rule="evenodd" d="M5.73209 17.6793C5.43462 17.751 5.20295 17.9927 5.14819 18.2985C5.14009 18.3437 5.13586 18.3903 5.13586 18.438V19.1392C5.13586 19.9824 5.8204 20.6669 6.66355 20.6669H8.33315C9.1763 20.6669 9.86083 19.9824 9.86083 19.1392V18.4338C9.86083 18.0825 9.62952 17.7842 9.30808 17.6868C9.29118 17.6817 9.27403 17.6771 9.25665 17.6731C9.24842 17.6712 9.24014 17.6695 9.2318 17.6679C9.18285 17.6583 9.1322 17.6533 9.0803 17.6533C9.06375 17.6533 9.04983 17.6297 9.04477 17.6199C9.04345 17.6173 9.04273 17.6157 9.04273 17.6157V16.7225C9.04799 16.7214 9.04786 16.7221 9.04273 16.7225C9.04047 16.7227 9.03711 16.7221 9.03305 16.7225C9.01839 16.724 8.99235 16.727 8.95788 16.7311C8.93745 16.7335 8.91404 16.7362 8.88829 16.7392L8.29141 16.7726C8.28683 16.7737 8.28225 16.7771 8.27802 16.7813C8.26681 16.7926 8.25802 16.8101 8.25802 16.8101V17.6199C8.25802 17.6408 8.22045 17.6575 8.22045 17.6575H6.76789C6.74702 17.6575 6.73033 17.6199 6.73033 17.6199V16.8101C6.73033 16.7984 6.7198 16.788 6.71056 16.7811C6.70336 16.7758 6.69694 16.7726 6.69694 16.7726L6.10423 16.7434C6.10447 16.7434 6.10399 16.7433 6.10423 16.7434C6.04981 16.7391 5.94979 16.7267 5.94979 16.7267V17.6157C5.94979 17.6171 5.94962 17.6185 5.9493 17.6199C5.94859 17.6229 5.94715 17.6259 5.94523 17.6286C5.94207 17.6332 5.93763 17.6373 5.93302 17.6408C5.92688 17.6455 5.92045 17.6491 5.9164 17.6512C5.91384 17.6526 5.91222 17.6533 5.91222 17.6533L5.9164 17.6575C5.91562 17.6575 5.91485 17.6575 5.91408 17.6575C5.91206 17.6575 5.91003 17.6575 5.90801 17.6575C5.88268 17.6578 5.85763 17.6592 5.83292 17.6619C5.79861 17.6655 5.76495 17.6713 5.73209 17.6793ZM4.94979 16.9421C4.46094 17.2582 4.13586 17.8077 4.13586 18.438V19.1392C4.13586 20.5347 5.26811 21.6669 6.66355 21.6669H8.33315C9.72858 21.6669 10.8608 20.5347 10.8608 19.1392V18.4338C10.8608 17.8068 10.5363 17.2523 10.0427 16.9349V16.8151C10.0527 16.7121 10.047 16.5986 10.0163 16.4774C10.2732 16.2349 10.4586 15.9167 10.5371 15.5595L10.5388 15.5516C10.6895 14.8378 10.8217 14.4432 10.9092 14.2346C10.9519 14.1327 10.9816 14.0813 10.9935 14.062C11.0005 14.0507 11.0021 14.0489 11.0059 14.0444C11.0066 14.0436 11.0074 14.0428 11.0082 14.0417C11.0285 14.0178 11.0475 13.9931 11.0652 13.9677C11.3864 13.5805 11.7354 13.2048 12.097 12.8194L12.0995 12.8168C12.1337 12.78 12.1682 12.743 12.2029 12.7058C13.374 11.4502 14.7886 9.93363 14.7886 7.6941C14.7886 4.53458 12.7549 1.8063 9.89987 0.80822C9.55761 0.685517 9.22667 0.75056 8.97351 0.923488C8.7835 0.78459 8.57456 0.665514 8.34505 0.574519C8.31519 0.561183 8.28444 0.549203 8.25284 0.538673C8.00422 0.455796 7.72629 0.468163 7.48035 0.584583C7.25866 0.488397 6.95159 0.442572 6.63734 0.589114C6.42668 0.678116 6.2344 0.792103 6.05898 0.923674C5.80645 0.758833 5.4803 0.700125 5.14365 0.823436C2.75542 1.68702 0.882953 3.80957 0.329355 6.47149C-0.286431 9.42424 1.41459 11.2462 2.80694 12.7376C2.83316 12.7657 2.85928 12.7937 2.88527 12.8215C2.90257 12.8401 2.92051 12.8579 2.93903 12.875C2.9523 12.8893 2.96555 12.9035 2.97877 12.9178C3.32876 13.2946 3.66154 13.653 3.96987 14.0294L3.98011 14.0417C3.98098 14.0428 3.98173 14.0436 3.9824 14.0444C3.98627 14.0489 3.98781 14.0507 3.99483 14.062C4.00679 14.0813 4.0364 14.1327 4.07917 14.2346C4.1666 14.443 4.29863 14.8369 4.44914 15.5494C4.52616 15.9215 4.71688 16.2445 4.97888 16.4872C4.95973 16.5648 4.94979 16.6452 4.94979 16.7267V16.9421ZM3.61652 12.1394C2.16814 10.5867 0.799066 9.11744 1.30829 6.67565C1.66533 4.95817 2.64879 3.50625 3.96579 2.56422C4.17089 2.41752 4.38407 2.28318 4.60425 2.16213C4.79337 2.05816 4.98764 1.96399 5.18636 1.88021C5.27791 1.84161 5.37041 1.80521 5.46379 1.77108C5.46407 1.77098 5.4635 1.77119 5.46379 1.77108C5.47106 1.76843 5.47919 1.76547 5.48647 1.76284C5.51987 1.75032 5.54908 1.78788 5.52821 1.8171C5.5235 1.82357 5.5188 1.83005 5.51412 1.83655C5.51389 1.83687 5.51366 1.83718 5.51343 1.8375C5.33672 2.08267 5.17701 2.35299 5.03313 2.64159C4.93969 2.82901 4.85293 3.02414 4.77252 3.2251C4.22975 4.58159 3.97636 6.20381 3.91291 7.51396C3.91292 7.51373 3.9129 7.51418 3.91291 7.51396C3.9129 7.51408 3.91286 7.51487 3.91286 7.51499C3.8308 9.26644 4.09723 10.5478 4.4832 11.5986C4.68054 12.1359 4.90913 12.6129 5.13837 13.0617C5.13965 13.0642 5.14094 13.0667 5.14222 13.0692C5.21552 13.2126 5.28886 13.3531 5.36125 13.4918C5.36168 13.4926 5.3621 13.4934 5.36252 13.4942C5.36254 13.4942 5.3625 13.4942 5.36252 13.4942C5.40562 13.5762 5.44564 13.6518 5.4828 13.7219C5.82137 14.3612 5.92655 14.5598 6.03572 15.2168C6.03593 15.218 6.03613 15.2192 6.03634 15.2205C6.05743 15.3477 6.07868 15.4921 6.10182 15.6602C6.10536 15.6859 6.10894 15.7122 6.11257 15.739C6.12195 15.8082 6.13165 15.8813 6.14179 15.9586C6.1284 15.958 6.11507 15.957 6.10182 15.9556C6.08343 15.9537 6.06519 15.9512 6.04713 15.948C6.04713 15.948 6.04712 15.948 6.04713 15.948C6.00267 15.94 5.95925 15.9282 5.91736 15.9127C5.82717 15.8795 5.74396 15.8294 5.67219 15.766C5.55103 15.6588 5.46248 15.5132 5.42804 15.3451C5.24164 14.4621 5.06966 13.9813 4.94087 13.7128C4.94067 13.7124 4.94047 13.712 4.94028 13.7115C4.85018 13.524 4.78129 13.4405 4.7435 13.3958C4.41443 12.994 4.0608 12.6133 3.71477 12.2407C3.68334 12.2069 3.65197 12.1731 3.62069 12.1394H3.61652ZM6.88653 15.6081C6.72835 14.4001 6.62382 14.2018 6.1425 13.2886C6.12923 13.2634 6.11567 13.2376 6.10182 13.2113C6.08763 13.1844 6.07313 13.1569 6.05831 13.1287C6.05841 13.1288 6.05821 13.1285 6.05831 13.1287C6.05796 13.128 6.05731 13.1267 6.05696 13.1261C5.32279 11.7287 4.56835 10.2804 4.69757 7.55259C4.69758 7.55246 4.69756 7.55273 4.69757 7.55259C4.69758 7.55233 4.69761 7.55167 4.69763 7.55141C4.76615 6.14694 5.14492 3.65722 6.10182 2.31269C6.11398 2.29559 6.12625 2.27868 6.1386 2.26196C6.14003 2.26002 6.14146 2.25809 6.14289 2.25616C6.18643 2.1975 6.23112 2.1412 6.27701 2.08744C6.36122 1.98879 6.44944 1.89874 6.54181 1.81852C6.65085 1.72382 6.76567 1.64283 6.88653 1.57757C6.9024 1.569 6.91837 1.5607 6.93445 1.55268C6.94781 1.54602 6.96123 1.53955 6.97472 1.53327C6.98079 1.53045 6.98687 1.52767 6.99297 1.52492C7.0124 1.51617 7.03199 1.50782 7.05173 1.49988C7.07022 1.48878 7.09527 1.50391 7.10074 1.52492C7.10144 1.52762 7.10182 1.53042 7.10182 1.53327V15.9586H6.93068C6.92645 15.924 6.92228 15.89 6.91815 15.8568C6.91559 15.8361 6.91305 15.8158 6.91053 15.7956C6.90236 15.7305 6.89438 15.6681 6.88653 15.6081ZM7.88653 1.52492C7.88653 1.49733 7.90886 1.4809 7.93244 1.48619C7.93257 1.48622 7.93231 1.48616 7.93244 1.48619C7.9337 1.48649 7.93536 1.48694 7.93662 1.48736H7.93244C7.93368 1.48781 7.93492 1.48826 7.93616 1.48872C7.93631 1.48877 7.93601 1.48866 7.93616 1.48872C7.96649 1.49988 7.99692 1.51206 8.02654 1.52492C8.03286 1.52767 8.03917 1.53045 8.04546 1.53327C8.06439 1.54176 8.08317 1.55059 8.10182 1.55975C8.24634 1.63083 8.38227 1.7222 8.51001 1.83097C8.58699 1.89651 8.661 1.96837 8.73213 2.04592C8.73859 2.05297 8.74503 2.06007 8.75145 2.06721C8.7977 2.11868 8.84272 2.17256 8.88653 2.22868C8.89159 2.23516 8.89663 2.24167 8.90166 2.24821C8.90491 2.25243 8.90815 2.25667 8.91138 2.26092C9.9023 3.56289 10.2659 6.01574 10.31 7.49666C10.31 7.49716 10.31 7.49767 10.3101 7.49817C10.3106 7.51774 10.3112 7.53714 10.3116 7.55636C10.3742 10.0315 9.93182 11.2294 8.93846 13.1202C8.92074 13.1539 8.90336 13.1868 8.88653 13.2187C8.85621 13.276 8.82731 13.3304 8.79972 13.3824C8.39043 14.1527 8.27014 14.3791 8.10182 15.6228C8.09431 15.6783 8.08671 15.7357 8.07898 15.7954C8.07636 15.8157 8.07372 15.8362 8.07106 15.8569C8.0701 15.8645 8.06914 15.872 8.06817 15.8796C8.06487 15.9056 8.06154 15.9319 8.05819 15.9586C8.05801 15.96 8.05784 15.9614 8.05766 15.9628H7.88653V1.52492ZM9.63126 13.4835C9.70474 13.3432 9.77574 13.206 9.84421 13.0711C9.8459 13.0677 9.84758 13.0644 9.84927 13.0611C10.1074 12.5517 10.3294 12.074 10.5115 11.5864C10.9324 10.46 11.1412 9.28099 11.094 7.53724C11.094 7.53746 11.094 7.53702 11.094 7.53724C11.0934 7.51609 11.0928 7.4942 11.0922 7.47288C11.0498 6.16273 10.8188 4.54332 10.2784 3.19339C10.2001 2.99792 10.1153 2.8081 10.0237 2.62569C9.87942 2.33829 9.71807 2.06927 9.53827 1.82551C9.53783 1.82492 9.53739 1.82432 9.53695 1.82373C9.53223 1.81733 9.52749 1.81094 9.52274 1.80458C9.50187 1.77536 9.53109 1.7378 9.56448 1.75032C9.57151 1.75277 9.57853 1.75523 9.58554 1.7577C9.58617 1.75792 9.5868 1.75815 9.58743 1.75837C9.67709 1.79002 9.76581 1.82364 9.85353 1.8592C10.0584 1.94223 10.2578 2.03577 10.4511 2.13912C10.6693 2.25578 10.8798 2.38494 11.0816 2.5256C12.7209 3.6681 13.7886 5.56951 13.7886 7.6941C13.7886 9.53566 12.6211 10.7893 11.3828 12.1189L11.3677 12.1352C11.2121 12.3011 11.0551 12.469 10.8993 12.6397C10.6762 12.884 10.4555 13.1337 10.2448 13.3907C10.244 13.3917 10.2432 13.3927 10.2424 13.3937C10.2418 13.3944 10.2412 13.3951 10.2407 13.3958H10.2448C10.2443 13.3965 10.2437 13.3971 10.2431 13.3978C10.2423 13.3988 10.2415 13.3997 10.2407 13.4007C10.2027 13.4459 10.1369 13.5283 10.0518 13.7038C10.0518 13.7038 10.0518 13.7039 10.0518 13.7038C9.98597 13.8397 9.90855 14.0314 9.82357 14.3047C9.74171 14.5679 9.65278 14.907 9.56031 15.3451C9.52437 15.5087 9.43784 15.6524 9.31989 15.7595C9.24767 15.8252 9.16368 15.8771 9.07231 15.9116C9.01393 15.9336 8.95254 15.9485 8.88929 15.9553C8.88837 15.9554 8.88745 15.9555 8.88653 15.9556C8.87328 15.957 8.85995 15.958 8.84655 15.9586C8.85244 15.9137 8.8582 15.8702 8.86384 15.828C8.86813 15.7959 8.87236 15.7645 8.87653 15.7338C8.8799 15.709 8.88323 15.6847 8.88653 15.6609C8.90997 15.4912 8.9316 15.3452 8.9528 15.2168C8.95307 15.2152 8.95335 15.2135 8.95362 15.2119C9.05686 14.5887 9.15034 14.3847 9.39419 13.9283C9.41235 13.8943 9.43133 13.8589 9.45122 13.8219C9.50429 13.723 9.56413 13.6115 9.63126 13.4835Z" fill="#264D89"/>
</svg>
