<svg width="376" height="513" viewBox="0 0 376 513" fill="none" xmlns="http://www.w3.org/2000/svg">
<path d="M218.763 328.493H92.3223L148.503 447.279H227.803L283.984 328.493H218.763ZM158.038 432.22L116.102 343.552H159.416L170.45 432.22H158.038ZM185.625 432.22L174.591 343.552H201.715L190.68 432.22H185.625ZM218.267 432.22H205.856L216.89 343.552H260.204L218.267 432.22Z" fill="url(#paint0_linear_1485_2486)"/>
<path d="M242.69 512.043H133.613C124.319 512.043 117.129 505.432 118.284 497.95L130.037 421.865H246.265L258.018 497.95C259.175 505.432 251.985 512.043 242.69 512.043Z" fill="url(#paint1_linear_1485_2486)"/>
<path d="M242.693 512.04H213.809L126.99 441.592L130.037 421.865H246.265L258.018 497.95C259.177 505.434 251.987 512.04 242.693 512.04Z" fill="url(#paint2_linear_1485_2486)"/>
<path d="M118.286 497.95C117.131 505.432 124.321 512.043 133.615 512.043H242.691C251.985 512.043 259.176 505.432 258.02 497.95L253.715 470.082H122.591L118.286 497.95Z" fill="url(#paint3_linear_1485_2486)"/>
<path d="M255.627 431.509V418.317C255.627 412.047 250.545 406.966 244.276 406.966H132.031C125.762 406.966 120.68 412.047 120.68 418.317V431.509C120.68 437.779 125.762 442.861 132.031 442.861H244.276C250.544 442.862 255.627 437.779 255.627 431.509Z" fill="url(#paint4_linear_1485_2486)"/>
<path d="M120.678 426.234V431.687C120.678 437.858 125.841 442.862 132.209 442.862H244.093C250.462 442.862 255.624 437.859 255.624 431.687V426.234H120.678Z" fill="url(#paint5_linear_1485_2486)"/>
<path d="M188.151 367.075C204.488 367.075 219.729 368.608 233.046 371.306C240.181 372.752 247.794 371.361 254.007 367.581C284.56 348.989 317.592 317.393 337.919 282.796C399.222 178.452 409.558 0.0430298 188.151 0.0430298C-33.2555 0.0430298 -22.9191 178.452 38.3844 282.795C58.7108 317.393 91.7438 348.988 122.297 367.58C128.509 371.361 136.123 372.751 143.258 371.305C156.574 368.608 171.815 367.075 188.151 367.075Z" fill="url(#paint6_linear_1485_2486)"/>
<path d="M225.432 291.261C221.219 320.926 214.808 348.454 208.398 367.89C201.896 367.358 195.128 367.077 188.153 367.077C181.179 367.077 174.411 367.358 167.908 367.89C161.497 348.454 155.087 320.926 150.875 291.261C135.614 183.791 133.036 0.0430298 188.153 0.0430298C243.27 0.0430298 240.692 183.791 225.432 291.261Z" fill="url(#paint7_linear_1485_2486)"/>
<path d="M18.6465 241.988C24.2614 256.379 30.9465 270.133 38.3846 282.795C58.711 317.393 91.744 348.988 122.297 367.581C128.51 371.361 136.123 372.752 143.258 371.306C156.575 368.608 171.816 367.075 188.153 367.075C204.489 367.075 219.73 368.607 233.047 371.306C240.182 372.752 247.795 371.361 254.008 367.581C284.561 348.989 317.593 317.394 337.921 282.795C345.36 270.133 352.045 256.379 357.659 241.988H18.6465Z" fill="url(#paint8_linear_1485_2486)"/>
<path d="M188.152 0.0430298C243.267 0.0430298 240.694 183.794 225.434 291.26C221.22 320.938 214.811 348.462 208.393 367.899H208.388C217.131 368.61 270.38 298.838 281.66 267.166C319.934 159.7 326.387 0.0430298 188.152 0.0430298Z" fill="url(#paint9_linear_1485_2486)"/>
<path d="M94.6454 267.166C105.925 298.839 159.174 368.611 167.917 367.899H167.912C161.494 348.462 155.086 320.937 150.871 291.26C135.611 183.794 133.038 0.0430298 188.153 0.0430298C49.9177 0.0430298 56.3709 159.7 94.6454 267.166Z" fill="url(#paint10_linear_1485_2486)"/>
<path d="M289.743 241.988C287.269 250.622 284.553 259.045 281.664 267.167C270.465 298.589 217.972 367.508 208.603 367.91C208.534 367.91 208.465 367.91 208.396 367.9V367.89C214.808 348.454 221.218 320.927 225.43 291.261C227.582 276.111 229.481 259.446 230.989 241.988H289.743Z" fill="url(#paint11_linear_1485_2486)"/>
<path d="M167.907 367.89V367.9C167.838 367.91 167.769 367.91 167.701 367.91C158.332 367.508 105.839 298.589 94.6401 267.167C91.6851 258.86 88.9906 250.463 86.5605 241.988H145.315C146.823 259.446 148.721 276.111 150.874 291.261C155.086 320.927 161.497 348.454 167.907 367.89Z" fill="url(#paint12_linear_1485_2486)"/>
<path d="M205.991 367.91C205.931 367.91 205.871 367.91 205.811 367.9V367.89C205.871 367.89 205.931 367.9 205.991 367.91Z" fill="url(#paint13_linear_1485_2486)"/>
<path d="M170.492 367.89V367.9C170.442 367.91 170.392 367.91 170.332 367.91C170.382 367.9 170.442 367.89 170.492 367.89Z" fill="url(#paint14_linear_1485_2486)"/>
<defs>
<linearGradient id="paint0_linear_1485_2486" x1="127.248" y1="387.886" x2="245.005" y2="387.886" gradientUnits="userSpaceOnUse">
<stop stop-color="#537983"/>
<stop offset="1" stop-color="#3E5959"/>
</linearGradient>
<linearGradient id="paint1_linear_1485_2486" x1="170.084" y1="450.777" x2="226.534" y2="507.228" gradientUnits="userSpaceOnUse">
<stop stop-color="#FFE177"/>
<stop offset="1" stop-color="#FE9738"/>
</linearGradient>
<linearGradient id="paint2_linear_1485_2486" x1="194.14" y1="481.267" x2="183.87" y2="409.024" gradientUnits="userSpaceOnUse">
<stop stop-color="#FE9738" stop-opacity="0"/>
<stop offset="1" stop-color="#FE7701"/>
</linearGradient>
<linearGradient id="paint3_linear_1485_2486" x1="188.153" y1="483.255" x2="188.153" y2="516.216" gradientUnits="userSpaceOnUse">
<stop stop-color="#FE9738" stop-opacity="0"/>
<stop offset="1" stop-color="#FE7701"/>
</linearGradient>
<linearGradient id="paint4_linear_1485_2486" x1="5396.01" y1="406.966" x2="5396.01" y2="442.861" gradientUnits="userSpaceOnUse">
<stop stop-color="#FFE177"/>
<stop offset="1" stop-color="#FE9738"/>
</linearGradient>
<linearGradient id="paint5_linear_1485_2486" x1="188.152" y1="429.107" x2="188.152" y2="442.133" gradientUnits="userSpaceOnUse">
<stop stop-color="#FE9738" stop-opacity="0"/>
<stop offset="1" stop-color="#FE7701"/>
</linearGradient>
<linearGradient id="paint6_linear_1485_2486" x1="275.622" y1="185.955" x2="337.814" y2="185.955" gradientUnits="userSpaceOnUse">
<stop stop-color="#FE646F"/>
<stop offset="1" stop-color="#FB2B3A"/>
</linearGradient>
<linearGradient id="paint7_linear_1485_2486" x1="154.777" y1="183.966" x2="202.188" y2="183.966" gradientUnits="userSpaceOnUse">
<stop stop-color="#FE646F"/>
<stop offset="1" stop-color="#FB2B3A"/>
</linearGradient>
<linearGradient id="paint8_linear_1485_2486" x1="188.153" y1="292.184" x2="188.153" y2="362.717" gradientUnits="userSpaceOnUse">
<stop stop-color="#F82814" stop-opacity="0"/>
<stop offset="1" stop-color="#C0272D"/>
</linearGradient>
<linearGradient id="paint9_linear_1485_2486" x1="239.944" y1="183.974" x2="289.447" y2="183.974" gradientUnits="userSpaceOnUse">
<stop stop-color="#EDF5FF"/>
<stop offset="1" stop-color="#C7E9FF"/>
</linearGradient>
<linearGradient id="paint10_linear_1485_2486" x1="88.0226" y1="183.974" x2="121.578" y2="183.974" gradientUnits="userSpaceOnUse">
<stop stop-color="#EDF5FF"/>
<stop offset="1" stop-color="#C7E9FF"/>
</linearGradient>
<linearGradient id="paint11_linear_1485_2486" x1="249.07" y1="293.188" x2="249.07" y2="354.427" gradientUnits="userSpaceOnUse">
<stop stop-color="#7BACDF" stop-opacity="0"/>
<stop offset="1" stop-color="#7BACDF"/>
</linearGradient>
<linearGradient id="paint12_linear_1485_2486" x1="127.234" y1="293.188" x2="127.234" y2="354.427" gradientUnits="userSpaceOnUse">
<stop stop-color="#7BACDF" stop-opacity="0"/>
<stop offset="1" stop-color="#7BACDF"/>
</linearGradient>
<linearGradient id="paint13_linear_1485_2486" x1="205.891" y1="367.9" x2="205.967" y2="367.9" gradientUnits="userSpaceOnUse">
<stop stop-color="#EDF5FF"/>
<stop offset="1" stop-color="#C7E9FF"/>
</linearGradient>
<linearGradient id="paint14_linear_1485_2486" x1="170.355" y1="367.9" x2="170.401" y2="367.9" gradientUnits="userSpaceOnUse">
<stop stop-color="#EDF5FF"/>
<stop offset="1" stop-color="#C7E9FF"/>
</linearGradient>
</defs>
</svg>
