<svg width="40" height="40" viewBox="0 0 40 40" fill="none" xmlns="http://www.w3.org/2000/svg">
<rect width="40" height="40" rx="20" fill="white"/>
<path d="M29.1563 15.4804C29.0497 15.5471 26.5121 16.9555 26.5121 20.0781C26.6317 23.6392 29.7144 24.8881 29.7673 24.8881C29.7144 24.9548 29.3019 26.5893 28.0799 28.3027C27.1101 29.7787 26.0337 31.2667 24.3991 31.2667C22.8443 31.2667 22.2862 30.2831 20.4922 30.2831C18.5656 30.2831 18.0205 31.2667 16.5454 31.2667C14.9109 31.2667 13.7547 29.6989 12.7321 28.2369C11.4035 26.3233 10.2742 23.3203 10.2343 20.4369C10.2075 18.9089 10.5004 17.407 11.244 16.1313C12.2935 14.3503 14.1673 13.1413 16.2135 13.1014C17.7813 13.0485 19.1766 14.1778 20.1334 14.1778C21.0503 14.1778 22.7646 13.1014 24.7042 13.1014C25.5414 13.1023 27.7739 13.3545 29.1563 15.4804ZM20.0008 12.7963C19.7217 11.401 20.4922 10.0057 21.2098 9.11559C22.1267 8.03919 23.5749 7.30859 24.8238 7.30859C24.9035 8.70393 24.3983 10.0724 23.4952 11.0691C22.6849 12.1455 21.2895 12.9558 20.0008 12.7963Z" fill="black"/>
</svg>
