<svg width="81" height="81" viewBox="0 0 81 81" fill="none" xmlns="http://www.w3.org/2000/svg">
<path d="M40.5 81C18.1325 81 0 62.8675 0 40.5C0 18.1325 18.1325 0 40.5 0C62.8675 0 81 18.1325 81 40.5C81 62.8675 62.8675 81 40.5 81Z" fill="#F3BA2F"/>
<path d="M48.9719 37.0202L40.5001 28.5484L32.0283 37.0281L27.1003 32.1001L40.5001 18.6924L53.8999 32.0922L48.9719 37.0202Z" fill="white"/>
<path d="M57.3795 35.5689L62.3071 40.4966L57.3795 45.4243L52.4518 40.4966L57.3795 35.5689Z" fill="white"/>
<path d="M48.9718 43.9811L40.5 52.4528L32.0282 43.9731L27.0923 48.9012H27.1002L40.5 62.3089L53.8998 48.9091L53.9077 48.9012L48.9718 43.9811Z" fill="white"/>
<path d="M23.6226 35.5777L28.5503 40.5054L23.6226 45.433L18.6949 40.5054L23.6226 35.5777Z" fill="white"/>
<path d="M35.501 40.5008L40.5002 35.4937L44.1942 39.1956L44.6214 39.6148L45.4994 40.4929L45.5073 40.5008L45.4994 40.5087L40.5002 45.5079L35.501 40.5008Z" fill="white"/>
</svg>
