<?xml version="1.0" encoding="iso-8859-1"?>
<!-- Uploaded to: SVG Repo, www.svgrepo.com, Generator: SVG Repo Mixer Tools -->
<!DOCTYPE svg PUBLIC "-//W3C//DTD SVG 1.1//EN" "http://www.w3.org/Graphics/SVG/1.1/DTD/svg11.dtd">
<svg fill="#000000" version="1.1" id="Capa_1" xmlns="http://www.w3.org/2000/svg" xmlns:xlink="http://www.w3.org/1999/xlink" 
	 width="800px" height="800px" viewBox="0 0 30.334 30.334"
	 xml:space="preserve">
<g>
	<path d="M15.167,30.334c-8.362,0-15.166-6.805-15.166-15.167C0.001,6.804,6.805,0,15.167,0c8.361,0,15.166,6.804,15.166,15.167
		C30.333,23.529,23.528,30.334,15.167,30.334z M15.167,4C9.01,4,4.001,9.009,4.001,15.167S9.01,26.334,15.167,26.334
		s11.166-5.009,11.166-11.167S21.324,4,15.167,4z M24.824,15.167c0-1.657-1.343-3-3-3H8.509c-1.657,0-3,1.343-3,3
		c0,1.656,1.343,3,3,3h13.315C23.481,18.167,24.824,16.823,24.824,15.167z"/>
</g>
</svg>