<svg width="16" height="17" viewBox="0 0 16 17" fill="none" xmlns="http://www.w3.org/2000/svg">
<path d="M3.4075 7.39686H0.993947C0.773491 7.3974 0.562252 7.48538 0.406579 7.64148C0.250906 7.79758 0.163513 8.00906 0.163574 8.22951V16.0724C0.163513 16.2929 0.250906 16.5044 0.406579 16.6605C0.562252 16.8166 0.773491 16.9045 0.993947 16.9051H3.4075C3.62819 16.9046 3.8397 16.8167 3.99575 16.6607C4.1518 16.5046 4.23968 16.2931 4.24016 16.0724V8.22951C4.23968 8.00883 4.1518 7.79732 3.99575 7.64127C3.8397 7.48522 3.62819 7.39734 3.4075 7.39686ZM15.1628 10.1275C15.1627 9.75115 15.0134 9.39019 14.7476 9.12376C14.7249 9.0992 14.7005 9.07632 14.6746 9.05532C14.969 8.93057 15.2112 8.70796 15.3604 8.42516C15.5095 8.14235 15.5564 7.8167 15.4931 7.50331C15.4297 7.18992 15.2601 6.90802 15.0128 6.7053C14.7656 6.50258 14.4559 6.3915 14.1362 6.39083H9.1859C9.21327 6.34292 9.23836 6.29958 9.26118 6.25624C9.40363 6.02627 9.51704 5.77954 9.5988 5.52168C9.70793 5.16423 9.77454 4.79516 9.79727 4.42212C9.82886 3.88315 9.7523 3.34331 9.57208 2.83439C9.39186 2.32547 9.11163 1.85775 8.7479 1.45878C8.61087 1.30313 8.4439 1.17665 8.25695 1.0869C8.07 0.997151 7.8669 0.945958 7.65974 0.936375C7.37676 0.925509 7.10012 1.02195 6.88523 1.20639C6.67033 1.39083 6.53305 1.64964 6.50087 1.931C6.49898 1.94153 6.49821 1.95224 6.49859 1.96293V3.9613L5.17547 7.31473C5.06712 7.58746 4.90408 7.83511 4.69641 8.04245V15.7713C5.02301 15.8613 5.3553 15.9291 5.69103 15.9743C5.8158 15.991 5.94155 15.9994 6.06743 15.9994H12.7766C13.1082 15.999 13.4262 15.8678 13.6617 15.6344C13.7776 15.5185 13.8695 15.3809 13.9321 15.2294C13.9948 15.0779 14.0269 14.9155 14.0267 14.7516C14.0275 14.4491 13.9171 14.1568 13.7164 13.9303C13.9807 13.8748 14.2239 13.7457 14.418 13.558C14.6121 13.3703 14.7492 13.1316 14.8136 12.8694C14.8779 12.6071 14.8669 12.332 14.7818 12.0758C14.6967 11.8195 14.5409 11.5926 14.3324 11.421C14.58 11.3073 14.7898 11.1251 14.937 10.8958C15.0841 10.6666 15.1625 10.3999 15.1628 10.1275Z" fill="#676767"/>
</svg>
