<svg width="18" height="18" viewBox="0 0 18 18" fill="none" xmlns="http://www.w3.org/2000/svg">
<path d="M14.4358 6.26842C15.8496 6.26842 16.9958 5.12226 16.9958 3.7084C16.9958 2.29454 15.8496 1.14838 14.4358 1.14838C13.0219 1.14838 11.8757 2.29454 11.8757 3.7084C11.8757 5.12226 13.0219 6.26842 14.4358 6.26842Z" stroke="white" stroke-miterlimit="10"/>
<path d="M14.4358 6.26842C15.8496 6.26842 16.9958 5.12226 16.9958 3.7084C16.9958 2.29454 15.8496 1.14838 14.4358 1.14838C13.0219 1.14838 11.8757 2.29454 11.8757 3.7084C11.8757 5.12226 13.0219 6.26842 14.4358 6.26842Z" stroke="#002358" stroke-miterlimit="10"/>
<path d="M14.4358 17.1483C15.8496 17.1483 16.9958 16.0021 16.9958 14.5883C16.9958 13.1744 15.8496 12.0283 14.4358 12.0283C13.0219 12.0283 11.8757 13.1744 11.8757 14.5883C11.8757 16.0021 13.0219 17.1483 14.4358 17.1483Z" stroke="white" stroke-miterlimit="10"/>
<path d="M14.4358 17.1483C15.8496 17.1483 16.9958 16.0021 16.9958 14.5883C16.9958 13.1744 15.8496 12.0283 14.4358 12.0283C13.0219 12.0283 11.8757 13.1744 11.8757 14.5883C11.8757 16.0021 13.0219 17.1483 14.4358 17.1483Z" stroke="#002358" stroke-miterlimit="10"/>
<path d="M3.5577 12.0664C4.97157 12.0664 6.11773 10.9202 6.11773 9.50637C6.11773 8.09251 4.97157 6.94635 3.5577 6.94635C2.14384 6.94635 0.997681 8.09251 0.997681 9.50637C0.997681 10.9202 2.14384 12.0664 3.5577 12.0664Z" stroke="white" stroke-miterlimit="10"/>
<path d="M3.5577 12.0664C4.97157 12.0664 6.11773 10.9202 6.11773 9.50637C6.11773 8.09251 4.97157 6.94635 3.5577 6.94635C2.14384 6.94635 0.997681 8.09251 0.997681 9.50637C0.997681 10.9202 2.14384 12.0664 3.5577 12.0664Z" stroke="#002358" stroke-miterlimit="10"/>
<path d="M5.66235 8.13775L11.8756 4.9884" stroke="white" stroke-miterlimit="10"/>
<path d="M5.66235 8.13775L11.8756 4.9884" stroke="#002358" stroke-miterlimit="10"/>
<path d="M5.66235 10.7673L11.8756 13.9485" stroke="white" stroke-miterlimit="10"/>
<path d="M5.66235 10.7673L11.8756 13.9485" stroke="#002358" stroke-miterlimit="10"/>
</svg>
