<svg width="12" height="13" viewBox="0 0 12 13" fill="none" xmlns="http://www.w3.org/2000/svg">
<path d="M7.56809 12.5008C7.0953 12.5008 6.67454 12.1834 6.54469 11.729L5.2882 7.33127L0.890477 6.07478C0.436019 5.94493 0.118652 5.52417 0.118652 5.05156C0.118652 4.5723 0.426964 4.15791 0.88587 4.02023L11.2994 0.896173C11.3583 0.878525 11.4209 0.877143 11.4804 0.892175C11.54 0.907206 11.5945 0.93809 11.6379 0.98155C11.6814 1.02501 11.7123 1.07942 11.7273 1.13902C11.7423 1.19861 11.7409 1.26117 11.7233 1.32004L8.59921 11.7336C8.46155 12.1925 8.04717 12.5008 7.56809 12.5008Z" fill="#676767"/>
</svg>
