<svg width="25" height="25" viewBox="0 0 25 25" fill="none" xmlns="http://www.w3.org/2000/svg">
<path d="M19.5333 4.77273C19.2222 4.69545 18.9111 4.77273 18.6778 5.00455C17.9 5.46818 16.9667 5.62273 16.1111 5.54545C15.1 5.46818 14.1667 5.23636 13.3111 4.85C12.2222 4.30909 11.0556 4.07727 9.88889 4C8.95556 4 8.02222 4.15455 7.16667 4.46364C6.85556 4.54091 6.46667 4.77273 6.23333 5.00455C6.07778 5.15909 6 5.31364 6 5.54545V20.2273C6 20.6909 6.31111 21 6.77778 21C7.24444 21 7.55556 20.6909 7.55556 20.2273V15.2045C8.25556 14.8955 9.11111 14.8182 9.88889 14.8182C10.9 14.8955 11.8333 15.1273 12.6889 15.5136C13.7778 15.9773 14.9444 16.2864 16.1111 16.3636C17.0444 16.3636 17.9778 16.2091 18.8333 15.9C19.1444 15.7455 19.5333 15.5909 19.7667 15.3591C19.9222 15.2045 20 15.05 20 14.8182V5.54545C20 5.23636 19.8444 4.92727 19.5333 4.77273V4.77273Z" fill="#7F8DA7"/>
</svg>
