<svg width="25" height="25" viewBox="0 0 25 25" fill="none" xmlns="http://www.w3.org/2000/svg">
<path d="M19.0625 15.1197C17.7746 15.1197 16.6312 15.7385 15.9128 16.6952L9.72487 13.5885C9.82266 13.2449 9.87503 12.8822 9.87503 12.5072C9.87503 12.0964 9.81215 11.7004 9.6956 11.3281L15.8601 8.23309C16.5746 9.23046 17.7426 9.88038 19.0625 9.88038C21.2371 9.88038 23 8.11635 23 5.94019C23 3.76408 21.2371 2 19.0625 2C16.8878 2 15.125 3.76405 15.125 5.94019C15.125 6.09074 15.1338 6.23922 15.1502 6.38542L8.64839 9.64966C7.94238 8.97873 6.988 8.56694 5.9375 8.56694C3.76288 8.56694 2 10.331 2 12.5071C2 14.6833 3.76285 16.4473 5.9375 16.4473C7.02628 16.4473 8.01174 16.0051 8.72452 15.2904L15.1616 18.5221C15.1376 18.698 15.1249 18.8774 15.1249 19.0598C15.1249 21.2359 16.8878 23 19.0624 23C21.2371 23 22.9999 21.2359 22.9999 19.0598C22.9999 16.8837 21.2372 15.1197 19.0625 15.1197L19.0625 15.1197Z" fill="#7F8DA7"/>
</svg>
