<svg width="18" height="18" viewBox="0 0 18 18" fill="none" xmlns="http://www.w3.org/2000/svg">
<path d="M17.4432 7.40118L13.5798 11.1672L14.4922 16.4862C14.5117 16.6002 14.499 16.7175 14.4553 16.8247C14.4117 16.9319 14.339 17.0247 14.2454 17.0927C14.1517 17.1607 14.041 17.2012 13.9255 17.2095C13.8101 17.2179 13.6947 17.1937 13.5922 17.1399L8.8153 14.6286L4.03898 17.1393C3.93655 17.1931 3.8211 17.2172 3.70568 17.2089C3.59026 17.2006 3.47947 17.1601 3.38584 17.0921C3.29221 17.0241 3.21948 16.9312 3.17587 16.824C3.13225 16.7169 3.11949 16.5996 3.13904 16.4855L4.05138 11.1665L0.187406 7.40118C0.104469 7.32037 0.0458085 7.21796 0.0180652 7.10554C-0.0096782 6.99312 -0.00539648 6.87518 0.0304256 6.76507C0.0662478 6.65495 0.13218 6.55707 0.220758 6.48249C0.309336 6.40791 0.417023 6.35962 0.531629 6.34308L5.87111 5.5678L8.25896 0.728841C8.46797 0.30523 9.16262 0.30523 9.37164 0.728841L11.7595 5.5678L17.099 6.34308C17.2133 6.36005 17.3207 6.40858 17.4089 6.48321C17.4972 6.55784 17.5629 6.65562 17.5987 6.76555C17.6345 6.87547 17.6388 6.9932 17.6114 7.10548C17.5839 7.21777 17.5257 7.32017 17.4432 7.40118Z" fill="#727272"/>
</svg>
