<svg width="18" height="18" viewBox="0 0 18 18" fill="none" xmlns="http://www.w3.org/2000/svg">
<path d="M3.71565 10.4339L2.59311 7.42359C2.30736 6.75851 1.72957 6.88212 1.72957 6.88212C1.28239 6.96394 1.04174 7.33041 1.09273 7.74088L2.12245 11.8803C2.3884 12.9438 3.1298 13.9808 3.99295 14.651L5.77209 15.9239V16.6746C5.77209 16.8542 5.91769 16.9998 6.0973 16.9998H9.08096V15.1129C9.08096 15.1129 9.2754 12.9639 7.23355 11.7229L4.79262 10.1562C4.67254 10.0788 4.53269 10.0376 4.38982 10.0377C4.19688 10.0377 4.00576 10.1125 3.86157 10.2566C3.57581 10.5428 3.56992 11.005 3.84872 11.2981L5.49252 12.5945" stroke="#676767" stroke-width="1.1" stroke-miterlimit="10" stroke-linecap="round" stroke-linejoin="round"/>
<path d="M12.6793 12.5935L14.3231 11.2971C14.6019 11.004 14.5961 10.5418 14.3103 10.2556C14.241 10.1862 14.1586 10.1311 14.068 10.0935C13.9773 10.056 13.8802 10.0366 13.782 10.0367C13.643 10.0367 13.5029 10.0756 13.3792 10.1552L10.9383 11.7219C8.89649 12.9629 9.0909 15.1119 9.0909 15.1119V16.9988H12.0746C12.2542 16.9988 12.3998 16.8532 12.3998 16.6736V15.9229L14.1789 14.65C15.0421 13.9798 15.7835 12.9428 16.0494 11.8793L17.0792 7.73989C17.1302 7.32938 16.8895 6.96291 16.4423 6.88112C16.4423 6.88112 15.8646 6.75752 15.5788 7.42259L14.4563 10.4329M10.5649 9.90007H10.9766C11.1562 9.90007 11.3018 9.75448 11.3018 9.57487V7.83127C11.3018 7.12568 10.7298 6.55371 10.0242 6.55371H8.14768C7.44209 6.55371 6.87012 7.12571 6.87012 7.83127V9.57487C6.87012 9.75448 7.01572 9.90007 7.19533 9.90007H7.6017" stroke="#676767" stroke-width="1.1" stroke-miterlimit="10" stroke-linecap="round" stroke-linejoin="round"/>
<path d="M9.08582 6.55492C8.25301 6.55492 7.57789 5.8798 7.57789 5.04699C7.57789 4.21419 8.25301 3.53906 9.08582 3.53906C9.91863 3.53906 10.5938 4.21419 10.5938 5.04699C10.5938 5.8798 9.91863 6.55492 9.08582 6.55492Z" stroke="#676767" stroke-width="1.1" stroke-miterlimit="10" stroke-linecap="round" stroke-linejoin="round"/>
<path d="M7.5332 4.5H5.58313C4.87754 4.5 4.30557 5.072 4.30557 5.77756V7.49966C4.30557 7.69108 4.46076 7.84623 4.65214 7.84623H6.87164" stroke="#676767" stroke-width="1.1" stroke-miterlimit="10" stroke-linecap="round" stroke-linejoin="round"/>
<path d="M6.52137 4.49926C5.68856 4.49926 5.01344 3.82413 5.01344 2.99133C5.01344 2.15852 5.68856 1.4834 6.52137 1.4834C7.35417 1.4834 8.0293 2.15852 8.0293 2.99133C8.0293 3.82413 7.35417 4.49926 6.52137 4.49926Z" stroke="#676767" stroke-width="1.1" stroke-miterlimit="10" stroke-linecap="round" stroke-linejoin="round"/>
<path d="M11.3001 7.84623H13.5196C13.7111 7.84623 13.8662 7.69108 13.8662 7.49966V5.77756C13.8662 5.07197 13.2942 4.5 12.5887 4.5H10.5941" stroke="#676767" stroke-width="1.1" stroke-miterlimit="10" stroke-linecap="round" stroke-linejoin="round"/>
<path d="M11.6503 4.49926C10.8175 4.49926 10.1423 3.82413 10.1423 2.99133C10.1423 2.15852 10.8175 1.4834 11.6503 1.4834C12.4831 1.4834 13.1582 2.15852 13.1582 2.99133C13.1582 3.82413 12.4831 4.49926 11.6503 4.49926Z" stroke="#676767" stroke-width="1.1" stroke-miterlimit="10" stroke-linecap="round" stroke-linejoin="round"/>
</svg>
