<svg width="19" height="17" viewBox="0 0 19 17" fill="none" xmlns="http://www.w3.org/2000/svg">
<path d="M14.2123 0.346925C15.0985 0.362027 15.9577 0.546422 16.7064 1.06702C17.8454 1.85865 18.5369 2.94197 18.7094 4.3313C18.858 5.52272 18.5599 6.5965 17.8303 7.54948C17.6912 7.73069 17.5537 7.9127 17.4114 8.09154C17.2795 8.25686 17.1229 8.29819 16.9234 8.22983C16.8034 8.1885 16.6866 8.13843 16.6015 8.04146C16.4052 7.81892 16.1461 7.72195 15.8663 7.69095C15.275 7.62498 14.7917 7.83561 14.4182 8.29819C14.3657 8.36336 14.326 8.43728 14.2942 8.51517C14.264 8.58909 14.2306 8.66221 14.1917 8.73136C14.0438 8.99364 13.8992 9.05484 13.6067 8.98967C13.2435 8.90939 12.8818 8.90304 12.525 9.02226C11.8875 9.23447 11.5386 9.78845 11.6149 10.4577C11.6483 10.7486 11.7301 11.0236 11.8494 11.289C11.9495 11.5124 11.9122 11.6849 11.7158 11.8335C11.5736 11.9416 11.4186 12.0322 11.2739 12.1379C10.7382 12.5282 10.5459 13.1847 10.7804 13.8038C10.8209 13.9103 10.8606 14.0176 10.8892 14.1281C10.9322 14.2918 10.8988 14.4421 10.7629 14.5517C10.4585 14.7957 10.2033 15.0898 9.93706 15.372C9.72962 15.5921 9.51184 15.798 9.23445 15.9299C8.78538 16.1429 8.34109 16.0794 8.02157 15.7583C7.65676 15.3918 7.56376 14.8887 7.77518 14.4452C7.93653 14.1074 8.2012 13.8547 8.46746 13.6035C8.62563 13.4549 8.78538 13.3079 8.94117 13.1568C8.99044 13.11 9.03257 13.0543 9.07231 12.9995C9.12318 12.9287 9.13987 12.8461 9.07946 12.7785C9.01429 12.7062 8.93322 12.7324 8.86089 12.7785C8.75041 12.8493 8.66139 12.943 8.57476 13.04C8.32678 13.319 8.08436 13.6027 7.79267 13.8388C7.47157 14.0979 7.1139 14.2322 6.69901 14.1416C5.9511 13.9779 5.60456 13.1402 6.00117 12.4646C6.19987 12.1268 6.49395 11.8772 6.77929 11.6197C6.93745 11.4766 7.10198 11.3399 7.22518 11.1635C7.25935 11.1142 7.29909 11.0649 7.27286 10.9958C7.22438 10.8694 7.14967 10.8432 7.0384 10.9211C6.83095 11.0665 6.6696 11.2612 6.49872 11.4456C6.25789 11.7055 6.0266 11.975 5.72537 12.1697C5.14198 12.5472 4.39407 12.3271 4.14291 11.696C3.98315 11.2938 4.06502 10.9195 4.36307 10.6198C5.66576 9.30998 6.97799 8.00888 8.28863 6.70539C8.47541 6.5202 8.65424 6.50589 8.8752 6.65055C9.12 6.8111 9.31552 7.02649 9.50786 7.24189C10.1453 7.95562 11.1483 7.93019 11.7667 7.43264C12.4328 6.89614 12.5758 5.97973 12.0989 5.27315C11.9622 5.07047 11.8017 4.88687 11.6276 4.71599C11.2008 4.29712 10.7732 3.87985 10.3432 3.46337C10.2836 3.40535 10.2176 3.35209 10.1485 3.306C9.92037 3.15498 9.8703 2.92131 10.0245 2.69558C10.1326 2.53742 10.2645 2.39991 10.3996 2.26639C10.7112 1.958 11.018 1.64485 11.3415 1.35077C11.967 0.783275 12.7229 0.504297 13.5479 0.391434C13.7633 0.362027 13.9803 0.34931 14.2123 0.34613V0.346925ZM9.92355 12.8532C9.94421 12.7745 9.95852 12.7165 9.97442 12.6585C10.123 12.1077 10.4688 11.7063 10.9361 11.3995C10.995 11.3606 11.0069 11.3264 10.983 11.262C10.8884 11.0029 10.84 10.7343 10.8145 10.4601C10.7343 9.60008 11.1817 8.78461 11.9503 8.39833C12.4208 8.16148 12.9208 8.09631 13.439 8.1583C13.5399 8.17022 13.5924 8.14956 13.6321 8.05577C13.6623 7.98344 13.71 7.91588 13.7577 7.8523C14.5231 6.8111 15.9514 6.58776 16.9385 7.26891C16.9997 7.31103 17.0299 7.29593 17.0657 7.24268C17.1817 7.07339 17.3065 6.90886 17.4178 6.73639C17.7445 6.2293 17.9241 5.67532 17.9416 5.06967C17.9821 3.65015 17.4106 2.53185 16.2542 1.72671C15.5564 1.24108 14.7496 1.10756 13.9111 1.15922C13.2776 1.19896 12.6768 1.3611 12.1514 1.7291C11.7007 2.04543 11.3431 2.46827 10.9465 2.8458C10.9004 2.89031 10.9314 2.91813 10.9624 2.94913C11.1491 3.13352 11.3359 3.31871 11.5235 3.50311C11.9209 3.89177 12.3398 4.25897 12.6752 4.70724C13.1465 5.33753 13.3134 6.02583 13.0917 6.7952C12.6458 8.33952 10.9457 9.05325 9.54284 8.28468C9.22253 8.10902 8.97932 7.84594 8.7369 7.58286C8.66537 7.50497 8.62483 7.49464 8.54297 7.5773C7.76088 8.36257 6.97322 9.14307 6.18795 9.92516C5.77783 10.3337 5.3685 10.7438 4.95997 11.1539C4.86539 11.2485 4.84949 11.3582 4.91228 11.4528C4.97428 11.5466 5.10383 11.5855 5.21749 11.5402C5.3073 11.5044 5.38043 11.4424 5.45275 11.3805C5.63556 11.2239 5.78975 11.0395 5.95269 10.863C6.16172 10.6357 6.36758 10.406 6.63066 10.2367C6.97004 10.0189 7.3293 10.0078 7.61702 10.2065C8.12251 10.5562 8.22584 11.1317 7.87374 11.634C7.70603 11.874 7.48508 12.0616 7.27048 12.2555C7.0678 12.4391 6.85241 12.6124 6.70537 12.8485C6.6084 13.0042 6.61635 13.1712 6.72127 13.2816C6.82459 13.3897 6.99786 13.4048 7.15444 13.3126C7.22597 13.2705 7.29273 13.218 7.35711 13.1648C7.49938 13.0488 7.6202 12.912 7.7426 12.7753C7.95878 12.5353 8.15987 12.2794 8.43726 12.1021C8.99998 11.7429 9.71372 11.9988 9.87904 12.6219C9.89732 12.6903 9.90686 12.7618 9.92514 12.8524L9.92355 12.8532ZM9.89732 13.1894C9.72167 13.567 9.41487 13.8197 9.12477 14.086C8.9507 14.2457 8.77187 14.3999 8.62483 14.5867C8.55648 14.6733 8.4913 14.7632 8.46826 14.8744C8.43805 15.0199 8.51118 15.1256 8.61132 15.2138C8.69557 15.2877 8.79015 15.2543 8.87917 15.2138C8.99521 15.1614 9.09615 15.0866 9.18438 14.996C9.45302 14.721 9.72008 14.4436 9.98952 14.1694C10.0308 14.1273 10.0364 14.09 10.015 14.0375C9.94739 13.8706 9.91083 13.6949 9.89891 13.5161C9.89176 13.4072 9.89732 13.2983 9.89732 13.1894Z" fill="#002358"/>
<path d="M0.762451 4.76675C0.854649 3.11912 1.56123 1.75046 3.13813 0.989824C4.79054 0.192632 6.38969 0.34444 7.82512 1.56209C8.36559 2.02069 8.85519 2.53414 9.37897 3.01102C10.0633 3.63415 10.6991 4.30735 11.3763 4.93843C11.606 5.15303 11.8135 5.38511 11.9383 5.67919C12.1385 6.15051 12.0559 6.5813 11.7348 6.96917C11.4057 7.36737 10.9805 7.50646 10.4774 7.39916C10.0641 7.31093 9.75094 7.06216 9.47832 6.75377C9.36228 6.62263 9.24226 6.49467 9.10158 6.38816C8.79637 6.15528 8.46653 6.14416 8.1494 6.35796C7.8887 6.53441 7.67569 6.76331 7.45792 6.98745C6.53991 7.92771 5.61158 8.85763 4.67768 9.78279C4.50759 9.95049 4.2763 9.964 4.11257 9.80822C3.42903 9.15648 2.70099 8.55322 2.04209 7.87525C1.34107 7.15356 0.909491 6.30709 0.797423 5.30404C0.779937 5.14906 0.776758 4.99248 0.762451 4.76675ZM5.1331 1.31887C4.08237 1.33557 3.1731 1.68608 2.46334 2.48247C1.31325 3.77245 1.23536 5.79523 2.44903 7.13608C3.02527 7.77272 3.68496 8.32193 4.31286 8.90452C4.36929 8.95698 4.39949 8.93473 4.44321 8.89101C5.21099 8.11766 5.98116 7.3475 6.74815 6.57335C7.00805 6.31107 7.25683 6.03765 7.54852 5.80795C8.20583 5.28894 8.97044 5.27384 9.60708 5.76901C9.80657 5.92399 9.97507 6.11077 10.1436 6.29755C10.2811 6.45016 10.4424 6.57017 10.6451 6.61945C10.8422 6.66793 11.0044 6.6115 11.1307 6.45016C11.2571 6.28961 11.2817 6.12349 11.1792 5.94148C11.0862 5.77695 10.9638 5.63548 10.8231 5.51308C10.5561 5.2802 10.3089 5.02666 10.0609 4.77391C9.5427 4.24695 8.99508 3.75019 8.45858 3.24311C8.04369 2.85127 7.64549 2.44035 7.2004 2.0811C6.59793 1.59388 5.92235 1.30377 5.1339 1.31967L5.1331 1.31887Z" fill="#002358"/>
<path d="M15.9499 12.1268C15.9483 12.9208 15.1272 13.4763 14.3912 13.1807C14.1433 13.0813 13.9287 12.9287 13.7419 12.7435C13.2563 12.2611 12.7754 11.7731 12.3001 11.2803C12.1133 11.0863 11.9742 10.8574 11.9265 10.5864C11.8407 10.0984 12.1213 9.5937 12.5767 9.38069C13.0043 9.18119 13.3969 9.24955 13.7745 9.5015C14.0264 9.66921 14.2418 9.87904 14.4453 10.1016C14.7974 10.4871 15.1757 10.8463 15.5389 11.2199C15.8378 11.5275 15.9507 11.7794 15.9499 12.1283V12.1268ZM15.1495 12.0966C15.1614 11.9932 15.0907 11.9066 15.0128 11.8271C14.5486 11.3494 14.0844 10.8718 13.6163 10.398C13.4931 10.2733 13.3572 10.1612 13.1943 10.0905C13.0607 10.0332 12.893 10.0809 12.7929 10.1985C12.6848 10.3265 12.6768 10.4235 12.7651 10.5745C12.8255 10.677 12.9002 10.7684 12.986 10.8495C13.3596 11.2024 13.7141 11.5744 14.067 11.9479C14.2442 12.1355 14.427 12.3231 14.6686 12.4312C14.8983 12.5337 15.1487 12.3676 15.1487 12.0966H15.1495Z" fill="#002358"/>
<path d="M14.4786 9.17568C14.4873 8.69323 14.7003 8.33875 15.143 8.13369C15.5905 7.92624 16.0197 7.96439 16.3877 8.29424C16.7732 8.63919 17.1539 8.99129 17.4846 9.39266C17.6451 9.58819 17.7906 9.79722 17.8231 10.0547C17.8835 10.5308 17.715 10.9211 17.3232 11.1937C16.925 11.4703 16.5077 11.4401 16.0944 11.2112C15.9736 11.1444 15.8647 11.0618 15.7662 10.9656C15.461 10.6675 15.1558 10.3703 14.8561 10.0667C14.6153 9.82186 14.4706 9.53017 14.4778 9.17648L14.4786 9.17568ZM15.2798 9.17012C15.2662 9.30365 15.3266 9.40618 15.4165 9.49519C15.7217 9.79802 16.0269 10.1 16.3337 10.4013C16.4155 10.4823 16.5109 10.5443 16.6238 10.5753C16.7358 10.6055 16.8336 10.5809 16.9179 10.4998C17.0689 10.3544 17.08 10.1803 16.9361 9.98957C16.6222 9.57468 16.224 9.24165 15.8512 8.88399C15.7376 8.7751 15.6009 8.79735 15.4681 8.86173C15.337 8.92452 15.2734 9.02626 15.2805 9.17091L15.2798 9.17012Z" fill="#002358"/>
<path d="M11.0281 13.3062C11.036 12.8564 11.2387 12.5194 11.6282 12.3C12.0343 12.0703 12.4404 12.0997 12.8307 12.3397C13.2329 12.5869 13.5373 12.939 13.8179 13.311C13.9045 13.4262 13.9546 13.5653 13.9832 13.7092C14.0785 14.1845 13.9792 14.6049 13.5802 14.9022C13.1772 15.2018 12.7353 15.2161 12.2886 14.9864C11.9914 14.8338 11.7696 14.5906 11.5455 14.3522C11.4024 14.1996 11.2554 14.0502 11.1624 13.8578C11.0781 13.6838 11.0265 13.5033 11.0289 13.3078L11.0281 13.3062ZM12.8744 14.3379C13.1049 14.3371 13.248 14.1694 13.2146 13.9397C13.1995 13.8356 13.1621 13.7402 13.0898 13.6631C12.942 13.5041 12.7941 13.3468 12.6415 13.1926C12.5533 13.1027 12.4508 13.0304 12.3339 12.9796C12.2592 12.947 12.1837 12.9327 12.1019 12.9589C11.8253 13.0463 11.7323 13.3277 11.923 13.5701C12.1106 13.8085 12.3149 14.0351 12.5613 14.2179C12.6535 14.2862 12.7536 14.3411 12.8744 14.3379Z" fill="#002358"/>
</svg>
