<svg width="25" height="25" viewBox="0 0 25 25" fill="none" xmlns="http://www.w3.org/2000/svg">
<path d="M15.3776 10.2576C15.5476 9.97572 15.4507 9.61267 15.1607 9.44685C14.8718 9.28161 14.4977 9.37578 14.3271 9.65768C13.8366 10.4691 12.4333 11.1288 11.1976 11.1288C9.95767 11.1288 8.55135 10.4637 8.06268 9.64643C7.89329 9.36334 7.52038 9.2674 7.22974 9.43204C6.93848 9.59609 6.83977 9.95914 7.00916 10.2416C7.81347 11.5872 9.76756 12.3139 11.1982 12.3139C12.6222 12.3133 14.5708 11.5925 15.3776 10.2576ZM16.6529 15.2526C17.6607 15.2526 18.4808 14.4554 18.4808 13.4759V5.77672C18.4808 4.79716 17.6607 4 16.6529 4H5.68511C4.67729 4 3.85715 4.79716 3.85715 5.77672V13.4759C3.85715 14.4554 4.67729 15.2526 5.68511 15.2526H5.69303L5.68511 18.212C5.6845 18.4554 5.83744 18.6746 6.06959 18.7646C6.14271 18.7924 6.21887 18.806 6.29443 18.806C6.45956 18.806 6.62164 18.7409 6.73923 18.6189L9.98021 15.2526H16.6529ZM6.9135 14.7385C6.91655 14.7119 6.92934 14.6882 6.92934 14.6603C6.92934 14.3328 6.65637 14.0681 6.32002 14.0681H5.68511C5.34937 14.0681 5.07579 13.8028 5.07579 13.4759V5.77672C5.07579 5.4504 5.34937 5.18448 5.68511 5.18448H16.6529C16.9892 5.18448 17.2622 5.4504 17.2622 5.77672V13.4759C17.2622 13.8028 16.9892 14.0681 16.6529 14.0681H9.71942C9.71516 14.0681 9.7115 14.0705 9.70724 14.0705C9.64752 14.0711 9.59025 14.0871 9.53236 14.1048C9.51469 14.1107 9.49519 14.1102 9.47874 14.1173C9.42756 14.138 9.38308 14.1741 9.33799 14.2091C9.32154 14.2221 9.30021 14.2304 9.28559 14.2458C9.28132 14.2505 9.27523 14.2517 9.27096 14.2564L6.90802 16.7113L6.9135 14.7385ZM20.3051 7.56115C19.9682 7.56115 19.7013 7.82647 19.7013 8.15339C19.7013 8.48031 19.9792 8.74563 20.3161 8.74563C20.6512 8.74563 20.9236 9.01155 20.9236 9.33787V15.8525C20.9236 16.1794 20.6512 16.4448 20.3161 16.4448H19.6995C19.3625 16.4448 19.0902 16.7095 19.0902 17.037C19.0902 17.0388 19.0908 17.04 19.0908 17.0412C19.0908 17.0459 19.0883 17.0495 19.0883 17.0536L19.0853 17.9704L17.7046 16.613C17.5851 16.4951 17.4267 16.4377 17.2683 16.4383C17.2665 16.4383 17.2646 16.4371 17.2622 16.4371H14.2156C13.8786 16.4371 13.6063 16.7018 13.6063 17.0293C13.6063 17.3568 13.8786 17.6216 14.2156 17.6216H17.0173L19.2571 19.8241C19.3735 19.9384 19.5307 20 19.6903 20C19.7683 20 19.8463 19.9858 19.9213 19.9562C20.1492 19.8656 20.2991 19.6494 20.2997 19.4095L20.3058 17.6293H20.3167C21.3233 17.6293 22.1429 16.8321 22.1429 15.8525V9.33787C22.1423 8.35771 21.3227 7.56115 20.3051 7.56115Z" fill="#7F8DA7" stroke="#7F8DA7" stroke-width="0.5"/>
</svg>
