<svg width="29" height="26" viewBox="0 0 29 26" fill="none" xmlns="http://www.w3.org/2000/svg">
<path d="M20.9422 0.839821C22.2663 0.863366 23.5495 1.13885 24.6699 1.91664C26.3715 3.09941 27.4051 4.71857 27.6637 6.79568C27.8851 8.57573 27.4404 10.1804 26.3479 11.6053C26.1415 11.876 25.9347 12.1476 25.7232 12.4148C25.525 12.6621 25.2915 12.7241 24.9944 12.6213C24.8147 12.5612 24.6393 12.4855 24.5118 12.3407C24.2198 12.0083 23.8317 11.8619 23.413 11.8168C22.5292 11.7179 21.8076 12.0334 21.2491 12.7237C21.1706 12.821 21.1114 12.9321 21.0631 13.0474C21.0192 13.1585 20.9685 13.2676 20.9101 13.372C20.6899 13.7628 20.4733 13.8539 20.0361 13.7566C19.4934 13.6373 18.9526 13.6271 18.4186 13.8052C17.4661 14.1227 16.9454 14.9507 17.0592 15.9502C17.1078 16.3858 17.2307 16.7971 17.4092 17.1934C17.558 17.5282 17.503 17.7852 17.2107 18.0069C16.9976 18.1694 16.7649 18.3044 16.5486 18.4625C15.7493 19.0453 15.4616 20.0283 15.8117 20.9521C15.8717 21.1114 15.9321 21.2727 15.9741 21.4379C16.0385 21.6832 15.9894 21.9065 15.7862 22.0709C15.3305 22.4351 14.9491 22.8754 14.5512 23.2976C14.2408 23.6245 13.9162 23.9337 13.5014 24.1307C12.8292 24.4482 12.1652 24.354 11.6888 23.8737C11.1426 23.3259 11.0048 22.5752 11.3203 21.9116C11.5613 21.4077 11.9572 21.0298 12.3556 20.6535C12.591 20.4317 12.8292 20.2116 13.0627 19.9867C13.1365 19.9157 13.1989 19.8337 13.2597 19.7513C13.3354 19.6457 13.3598 19.5209 13.2691 19.4201C13.1718 19.3125 13.0513 19.351 12.9434 19.4201C12.777 19.5264 12.6444 19.6673 12.5157 19.8113C12.144 20.2285 11.783 20.6515 11.3462 21.0062C10.8675 21.392 10.3314 21.5941 9.71178 21.4575C8.59454 21.2127 8.07693 19.9612 8.66871 18.9515C8.96577 18.4457 9.40608 18.0729 9.83225 17.6879C10.0681 17.4748 10.3145 17.2696 10.4978 17.0062C10.55 16.9321 10.6081 16.8603 10.5704 16.7559C10.4978 16.5671 10.3856 16.5271 10.2192 16.6448C9.90956 16.8614 9.66783 17.1518 9.41275 17.4281C9.0525 17.8178 8.70677 18.2192 8.25666 18.5116C7.38469 19.0743 6.26784 18.7467 5.8915 17.8025C5.65251 17.2013 5.77495 16.6417 6.22114 16.1947C8.16797 14.2357 10.1285 12.2924 12.0871 10.3436C12.3681 10.0662 12.6346 10.0458 12.9638 10.2612C13.33 10.5014 13.6223 10.8236 13.91 11.145C14.8624 12.212 16.3622 12.1747 17.2864 11.4302C18.2808 10.6289 18.4963 9.25777 17.782 8.20332C17.5788 7.90076 17.3386 7.62527 17.0784 7.36941C16.4395 6.74467 15.8019 6.11992 15.1575 5.49832C15.0688 5.4112 14.9715 5.33193 14.8675 5.26365C14.5265 5.03604 14.4523 4.68678 14.6826 4.35126C14.8435 4.11423 15.0402 3.90899 15.243 3.70925C15.7088 3.24775 16.1676 2.78037 16.6515 2.34046C17.5858 1.49243 18.716 1.07488 19.9474 0.907711C20.27 0.863759 20.5938 0.845315 20.9419 0.840606L20.9422 0.839821Z" stroke="#002358" stroke-width="1.67998" stroke-miterlimit="22.9256" stroke-linecap="round" stroke-linejoin="round"/>
<path d="M0.83979 7.44476C0.977925 4.98385 2.03316 2.93813 4.39008 1.80009C6.85923 0.609467 9.24989 0.83629 11.3953 2.65558C12.2029 3.34154 12.9356 4.10913 13.7185 4.82178C14.7399 5.75379 15.6908 6.75997 16.704 7.70258C17.0466 8.02398 17.3555 8.37128 17.5423 8.80962C17.8425 9.5152 17.7189 10.1584 17.2381 10.738C16.7472 11.3333 16.1111 11.5417 15.36 11.38C14.7411 11.2493 14.273 10.8777 13.8664 10.4154C13.6933 10.2204 13.5132 10.0297 13.3033 9.86917C12.8469 9.52187 12.3548 9.505 11.8803 9.82404C11.4914 10.0874 11.172 10.4303 10.8463 10.7651C9.47554 12.1708 8.08713 13.5599 6.69127 14.9429C6.43815 15.1932 6.09203 15.2136 5.84677 14.9813C4.82528 14.0069 3.7359 13.1043 2.75169 12.0919C1.70352 11.0131 1.05837 9.7483 0.891983 8.24766C0.865298 8.0177 0.860197 7.78225 0.83979 7.44437V7.44476Z" stroke="#002358" stroke-width="1.67998" stroke-miterlimit="22.9256" stroke-linecap="round" stroke-linejoin="round"/>
<path d="M23.5393 18.4457C23.5362 19.6335 22.3102 20.4631 21.2095 20.0213C20.8379 19.8733 20.5176 19.6457 20.2382 19.3683C19.5126 18.6474 18.7937 17.9182 18.083 17.1809C17.8044 16.892 17.5964 16.5491 17.5246 16.1445C17.3971 15.4149 17.8158 14.6607 18.4962 14.3421C19.1363 14.0442 19.7222 14.147 20.2865 14.523C20.6628 14.7737 20.9858 15.0873 21.2899 15.42C21.8158 15.9965 22.3813 16.5322 22.9244 17.0918C23.3714 17.5501 23.5389 17.9269 23.5389 18.4496V18.4457H23.5393Z" stroke="#002358" stroke-width="1.67998" stroke-miterlimit="22.9256" stroke-linecap="round" stroke-linejoin="round"/>
<path d="M21.3402 14.0356C21.3523 13.3147 21.6714 12.7841 22.3334 12.478C23.0021 12.1676 23.6437 12.2249 24.1931 12.719C24.7692 13.2346 25.3386 13.7601 25.8327 14.3605C26.0728 14.6525 26.2899 14.9648 26.3381 15.3494C26.4292 16.0601 26.1772 16.6448 25.5909 17.051C24.996 17.4646 24.3732 17.4195 23.7548 17.0784C23.575 16.9772 23.4114 16.8548 23.2646 16.71C22.809 16.2649 22.3522 15.8219 21.9033 15.3679C21.5438 15.0013 21.3272 14.565 21.3386 14.0375L21.3406 14.0356H21.3402Z" stroke="#002358" stroke-width="1.67998" stroke-miterlimit="22.9256" stroke-linecap="round" stroke-linejoin="round"/>
<path d="M16.1829 20.21C16.1951 19.5366 16.4968 19.0335 17.08 18.7047C17.6863 18.3617 18.2934 18.4056 18.8761 18.7651C19.4773 19.1344 19.9329 19.6602 20.3524 20.2163C20.4819 20.3878 20.5557 20.5962 20.5997 20.8112C20.7425 21.5219 20.5934 22.1494 19.9965 22.5956C19.3953 23.0418 18.7348 23.0641 18.0661 22.7212C17.6227 22.4928 17.2903 22.1282 16.9552 21.7723C16.7421 21.5435 16.5223 21.3221 16.3826 21.0329C16.2567 20.7747 16.1794 20.5043 16.1829 20.2116V20.21Z" stroke="#002358" stroke-width="1.67998" stroke-miterlimit="22.9256" stroke-linecap="round" stroke-linejoin="round"/>
</svg>
