<svg width="21" height="20" viewBox="0 0 21 20" fill="none" xmlns="http://www.w3.org/2000/svg">
<rect x="4" width="17" height="20" rx="2" fill="#F1B50A"/>
<path d="M15.1987 9.1599L11.8675 6.22662C11.7012 6.08081 11.4778 5.99944 11.2454 6C11.0129 6.00057 10.79 6.08303 10.6246 6.22964C10.5434 6.3013 10.4789 6.3868 10.435 6.48112C10.391 6.57544 10.3685 6.67668 10.3687 6.77892C10.3689 6.88116 10.3919 6.98233 10.4362 7.07651C10.4805 7.17068 10.5453 7.25597 10.6269 7.32735L12.4525 8.9331H0.877993C0.647008 8.93175 0.424859 9.01271 0.260267 9.15821C0.0956744 9.30372 0.00207615 9.50188 0 9.70926C0 10.1387 0.392964 10.4854 0.877993 10.4854H12.4525L10.6269 12.0922C10.5453 12.1636 10.4805 12.2488 10.4362 12.343C10.3919 12.4372 10.3689 12.5384 10.3687 12.6406C10.3685 12.7428 10.391 12.8441 10.435 12.9384C10.4789 13.0327 10.5434 13.1182 10.6246 13.1899C10.7899 13.3368 11.013 13.4194 11.2456 13.4198C11.4782 13.4202 11.7016 13.3383 11.8675 13.1919L15.1987 10.2586C15.2802 10.1872 15.3451 10.1019 15.3897 10.0078C15.4342 9.91367 15.4574 9.81253 15.4581 9.71026C15.4579 9.60773 15.4349 9.50625 15.3906 9.41176C15.3463 9.31726 15.2814 9.23165 15.1998 9.1599H15.1987Z" fill="white"/>
</svg>
