<svg width="25" height="24" viewBox="0 0 25 24" fill="none" xmlns="http://www.w3.org/2000/svg">
<path d="M6.01477 5.3352C6.01477 2.394 8.76819 0 12.1525 0H18.8783C22.2533 0 25 2.388 25 5.3232V18.6624C25 21.6048 22.2479 24 18.865 24H12.1378C8.76285 24 6.01611 21.6108 6.01611 18.6744V5.3352H6.01477Z" fill="#F1B50A"/>
<path d="M18.0937 11.3448L14.128 7.85279C13.93 7.67921 13.6641 7.58234 13.3874 7.58301C13.1106 7.58368 12.8453 7.68185 12.6484 7.85639C12.5517 7.9417 12.4749 8.04348 12.4226 8.15577C12.3703 8.26805 12.3435 8.38859 12.3437 8.5103C12.344 8.63201 12.3713 8.75246 12.424 8.86457C12.4768 8.97668 12.554 9.07821 12.651 9.16319L14.8244 11.0748H1.04523C0.770248 11.0732 0.505785 11.1696 0.309842 11.3428C0.113898 11.516 0.00247161 11.7519 0 11.9988C0 12.51 0.467814 12.9228 1.04523 12.9228H14.8244L12.651 14.8356C12.554 14.9206 12.4768 15.0221 12.424 15.1342C12.3713 15.2463 12.344 15.3668 12.3437 15.4885C12.3435 15.6102 12.3703 15.7307 12.4226 15.843C12.4749 15.9553 12.5517 16.0571 12.6484 16.1424C12.8451 16.3173 13.1107 16.4157 13.3876 16.4161C13.6645 16.4166 13.9305 16.3191 14.128 16.1448L18.0937 12.6528C18.1908 12.5678 18.268 12.4663 18.321 12.3542C18.374 12.2421 18.4017 12.1217 18.4025 12C18.4023 11.8779 18.375 11.7571 18.3222 11.6446C18.2694 11.5321 18.1922 11.4302 18.0951 11.3448H18.0937Z" fill="white"/>
</svg>
