<svg width="17" height="19" viewBox="0 0 17 19" fill="none" xmlns="http://www.w3.org/2000/svg">
<path d="M11.8588 7.89269C11.8588 7.50753 11.5466 7.19531 11.1614 7.19531H3.97839C3.59322 7.19531 3.28101 7.50753 3.28101 7.89269C3.28101 8.27786 3.59322 8.59007 3.97839 8.59007H11.1614C11.5466 8.59007 11.8588 8.27786 11.8588 7.89269ZM3.97839 9.98483C3.59322 9.98483 3.28101 10.297 3.28101 10.6822C3.28101 11.0674 3.59322 11.3796 3.97839 11.3796H8.34088C8.72604 11.3796 9.03826 11.0674 9.03826 10.6822C9.03826 10.297 8.72604 9.98483 8.34088 9.98483H3.97839Z" fill="#676767"/>
<path d="M5.61723 16.6798H3.28488C2.51581 16.6798 1.89012 16.0542 1.89012 15.2851V3.0112C1.89012 2.24213 2.51581 1.61644 3.28488 1.61644H11.8588C12.6279 1.61644 13.2535 2.24213 13.2535 3.0112V7.30009C13.2535 7.68525 13.5658 7.99747 13.9509 7.99747C14.3361 7.99747 14.6483 7.68525 14.6483 7.30009V3.0112C14.6483 1.47306 13.3969 0.22168 11.8588 0.22168H3.28488C1.74674 0.22168 0.495361 1.47306 0.495361 3.0112V15.2851C0.495361 16.8232 1.74674 18.0746 3.28488 18.0746H5.61723C6.0024 18.0746 6.31461 17.7624 6.31461 17.3772C6.31461 16.9921 6.0024 16.6798 5.61723 16.6798Z" fill="#676767"/>
<path d="M15.8835 10.3191C15.0678 9.50333 13.7406 9.50329 12.9254 10.3185L9.09663 14.1387C9.01533 14.2199 8.95532 14.3198 8.92194 14.4297L8.08811 17.1748C8.05182 17.2943 8.04828 17.4213 8.07785 17.5426C8.10742 17.6639 8.16902 17.7751 8.25623 17.8645C8.34343 17.9539 8.45303 18.0182 8.57359 18.0507C8.69414 18.0833 8.82123 18.0829 8.94157 18.0495L11.7564 17.2698C11.8722 17.2378 11.9778 17.1763 12.0629 17.0913L15.8836 13.2778C16.6993 12.4621 16.6993 11.1348 15.8835 10.3191ZM11.2073 15.9747L9.79122 16.3669L10.2056 15.0026L12.789 12.4249L13.7755 13.4113L11.2073 15.9747ZM14.8978 12.2912L14.7627 12.426L13.7764 11.4397L13.9111 11.3054C14.183 11.0335 14.6254 11.0335 14.8973 11.3054C15.1692 11.5773 15.1692 12.0197 14.8978 12.2912ZM11.1614 4.40625H3.97839C3.59322 4.40625 3.28101 4.71847 3.28101 5.10363C3.28101 5.48879 3.59322 5.80101 3.97839 5.80101H11.1614C11.5466 5.80101 11.8588 5.48879 11.8588 5.10363C11.8588 4.71847 11.5466 4.40625 11.1614 4.40625Z" fill="#676767"/>
</svg>
