<svg width="24" height="29" viewBox="0 0 24 29" fill="none" xmlns="http://www.w3.org/2000/svg">
<path d="M15.471 2.73429C15.0149 2.64864 14.7147 2.20866 14.8011 1.75258C14.8868 1.2965 15.3268 0.996351 15.7828 1.08274L15.4717 2.73429H15.471ZM17.8414 1.86386L16.6189 3.0176L16.9593 3.23649L16.9117 3.22039L16.8648 3.20428L16.818 3.18744L16.766 3.16914L16.6672 3.13254L16.5647 3.0952L16.4585 3.0564L16.3517 3.0176L16.2448 2.9788L16.1379 2.94L16.0874 2.92243L16.0332 2.9034L15.982 2.88583L15.9336 2.86899L15.8853 2.85289L15.8348 2.83605L15.788 2.82068L15.7433 2.80677L15.7001 2.79286L15.6591 2.78114L15.6181 2.76943L15.583 2.75991L15.5508 2.75186L15.5171 2.74381L15.4922 2.73795L15.471 2.73356L15.7821 1.082L15.8407 1.09372L15.9 1.10689L15.9541 1.12007L16.0112 1.13471L16.0698 1.15082L16.1247 1.16619L16.1818 1.18303L16.2396 1.2006L16.2967 1.2189L16.3553 1.23793L16.411 1.25624L16.4702 1.276L16.5303 1.2965L16.5881 1.31627L16.643 1.33603L16.703 1.35653L16.8165 1.39753L16.9278 1.43779L17.0369 1.47805L17.1408 1.51612L17.2411 1.55273L17.337 1.58713L17.378 1.60177L17.4219 1.61715L17.4629 1.63179L17.4995 1.64424L17.84 1.86312L17.8414 1.86386ZM17.501 1.64497C17.9403 1.79431 18.1752 2.27162 18.0259 2.71086C17.8766 3.15011 17.3992 3.3851 16.96 3.23576L17.501 1.64424V1.64497ZM22.627 6.96787L21.3949 8.11063L21.3956 8.11137L21.0984 7.79145L20.8012 7.47227L20.504 7.15308L20.2067 6.83463L19.9095 6.51618L19.6123 6.19773L19.3144 5.88001L19.0164 5.56229L18.7184 5.2453L18.4198 4.92758L18.1211 4.60913L17.8224 4.29141L17.523 3.97296L17.2236 3.65451L16.9234 3.33606L16.6233 3.01687L17.8458 1.86312L18.1467 2.18231L18.4468 2.50149L18.747 2.82068L19.0464 3.13913L19.3458 3.45758L19.6445 3.77603L19.9432 4.09375L20.2419 4.4122L20.5406 4.73065L20.8393 5.04911L21.1372 5.36829L21.4352 5.68674L21.7331 6.00592L22.0311 6.32584L22.329 6.64649L22.627 6.96714L22.6277 6.96787H22.627ZM22.6262 6.96714C22.9418 7.30682 22.922 7.83903 22.5823 8.15456C22.2426 8.47008 21.7104 8.45032 21.3949 8.11063L22.6262 6.96714ZM23.7807 10.8654H22.1006L22.1014 10.719L22.1028 10.5799L22.1043 10.4474L22.1065 10.32L22.1087 10.1978L22.1109 10.0836L22.1116 9.97449L22.1123 9.8698L22.1116 9.77317L22.1094 9.68239L22.1057 9.59601L22.1014 9.51328L22.0955 9.43788L22.0874 9.36687L22.0779 9.29806L22.0669 9.2329L22.0545 9.17287L22.0391 9.11357L22.0223 9.05501L22.0033 8.99864L21.9806 8.94007L21.9549 8.88151L21.9257 8.82074L21.892 8.75705L21.8524 8.6897L21.8078 8.61869L21.758 8.54549L21.7016 8.46862L21.6365 8.38443L21.5647 8.29804L21.4857 8.20654L21.3978 8.1099L22.6299 6.96714L22.7419 7.09012L22.8488 7.21238L22.9484 7.3339L23.0406 7.4525L23.1299 7.57329L23.2126 7.69482L23.2888 7.81414L23.3591 7.9342L23.4242 8.055L23.4842 8.17798L23.5377 8.30097L23.5853 8.42396L23.627 8.54768L23.6629 8.66994L23.6936 8.79293L23.72 8.91665L23.7405 9.03671L23.7573 9.1553L23.7705 9.27536L23.78 9.39542L23.7866 9.51109L23.791 9.62822L23.7939 9.74682L23.7946 9.86468L23.7939 9.98035L23.7932 10.0997L23.791 10.2212L23.7888 10.3427L23.7866 10.4664L23.7851 10.596L23.7837 10.7278L23.7829 10.8632L23.7807 10.8654ZM23.7807 10.8654C23.7807 11.3288 23.4044 11.7058 22.9403 11.7058C22.4769 11.7058 22.0999 11.3296 22.0999 10.8654H23.78H23.7807ZM22.1006 19.4051V10.8654H23.7807V19.4051H22.1006ZM23.7807 19.4051C23.7807 19.8685 23.4044 20.2455 22.9403 20.2455C22.4769 20.2455 22.0999 19.8692 22.0999 19.4051H23.78H23.7807ZM22.329 26.1452L21.0018 25.1145V25.1152L21.1204 24.9564L21.2295 24.799L21.3297 24.643L21.422 24.4871L21.5062 24.3319L21.583 24.1774L21.6533 24.023L21.717 23.867L21.7748 23.7118L21.8261 23.5544L21.8729 23.3956L21.9139 23.236L21.9505 23.0742L21.9828 22.9088L22.0106 22.7426L22.0347 22.5735L22.0545 22.4L22.0713 22.225L22.0845 22.0471L22.0948 21.8648L22.1028 21.6803L22.1079 21.4922L22.1116 21.2997L22.1131 21.1042V20.9043L22.1116 20.7016L22.1094 20.4951L22.1065 20.2843L22.1043 20.069L22.1021 19.8516L22.1006 19.6298L22.0999 19.4043H23.78L23.7807 19.6217L23.7822 19.8377L23.7844 20.0522L23.7866 20.2652L23.7895 20.4775L23.7917 20.6898L23.7932 20.9007V21.1108L23.7917 21.3209L23.788 21.531L23.7822 21.7404L23.7734 21.9505L23.761 22.1591L23.7449 22.3692L23.7251 22.5801L23.7002 22.7887L23.6709 23.0003L23.635 23.2118L23.594 23.4219L23.5465 23.6328L23.4916 23.8451L23.4293 24.0559L23.3598 24.2675L23.2815 24.479L23.1951 24.6899L23.0992 24.9007L22.9952 25.1108L22.8817 25.3195L22.7588 25.5274L22.6255 25.7353L22.4813 25.9417L22.3276 26.1467V26.1474L22.329 26.1452ZM22.329 26.1445C22.045 26.5106 21.5164 26.5772 21.1504 26.2931C20.7844 26.0091 20.7177 25.4805 21.0018 25.1145L22.329 26.1445ZM18.3099 28.381L17.7946 26.7814L17.8831 26.758L18.0376 26.7265L18.1862 26.6958L18.3282 26.6658L18.4637 26.6365L18.5955 26.6065L18.7214 26.5764L18.8414 26.5472L18.9556 26.5171L19.0654 26.4864L19.1716 26.4549L19.2719 26.4234L19.3678 26.3905L19.46 26.3568L19.5493 26.3209L19.6335 26.2843L19.7148 26.2463L19.7961 26.2053L19.8737 26.1628L19.9513 26.1174L20.0267 26.0698L20.1013 26.0193L20.1767 25.9644L20.2529 25.9051L20.3297 25.8414L20.4073 25.7719L20.4864 25.698L20.5669 25.6182L20.6497 25.531L20.7346 25.4373L20.821 25.3378L20.9095 25.2302L21.001 25.1145L22.3283 26.1452L22.217 26.2858L22.1057 26.4212L21.993 26.5515L21.8817 26.6745L21.769 26.7924L21.6555 26.9059L21.5406 27.0142L21.4249 27.116L21.3078 27.2133L21.1899 27.3056L21.0691 27.3934L20.9469 27.4769L20.8232 27.5545L20.6994 27.627L20.5742 27.695L20.4483 27.7587L20.3195 27.8195L20.1899 27.8744L20.0603 27.9256L19.9286 27.9747L19.7961 28.0194L19.6628 28.0618L19.5288 28.1013L19.392 28.1394L19.2536 28.1753L19.113 28.2097L18.9717 28.2426L18.8275 28.2756L18.6796 28.3078L18.5296 28.3393L18.3766 28.3707L18.2192 28.403L18.3078 28.3795L18.3099 28.381ZM18.2214 28.4044C17.7667 28.4974 17.3224 28.2046 17.2294 27.75C17.1364 27.2953 17.4293 26.851 17.8839 26.758L18.2221 28.4044H18.2214ZM17.8597 28.422L17.34 26.8239L17.5998 26.7829H17.6445L17.684 26.7836L17.7162 26.7843L17.7463 26.7851L17.7624 26.7858H17.7763L17.7887 26.7851L17.7975 26.7843L17.7916 26.7851H17.7909L17.7814 26.7865L17.7719 26.788L17.7733 26.7873L17.7785 26.7865L17.7741 26.7873L17.7704 26.788L17.7792 26.7858L17.7785 26.7865L17.7851 26.7843L17.7931 26.7821L18.3085 28.3817L18.2829 28.3898L18.2572 28.3971L18.2287 28.4052L18.1957 28.4139L18.1665 28.4213L18.1467 28.4257L18.1159 28.4322L18.0845 28.4381L18.064 28.4418L18.0391 28.4462L18.0039 28.4513L17.9695 28.4557L17.9446 28.4579L17.9198 28.4601L17.8956 28.4615L17.8656 28.4637L17.8253 28.4652L17.7865 28.4659H17.7484L17.7104 28.4652L17.6826 28.4645L17.6525 28.4637L17.6247 28.463H17.5976L17.8575 28.422H17.8597ZM17.5998 28.463C17.1364 28.463 16.7594 28.0867 16.7594 27.6226C16.7594 27.1592 17.1357 26.7821 17.5998 26.7821V28.4623V28.463ZM6.30835 28.4952L6.54115 26.8305L6.42475 26.8224L6.58507 26.8231L6.78639 26.8246L7.02651 26.8268L7.30177 26.8297L7.94819 26.8363L8.70369 26.8444L9.54411 26.8524L10.4453 26.8612L10.9116 26.8649L11.3845 26.8685L11.8604 26.8715L12.337 26.8744L12.8106 26.8766L13.2784 26.878L13.7382 26.8788H14.1862L14.6196 26.878L15.0347 26.8759L15.4285 26.8729L15.7989 26.8685L16.1423 26.8634L16.4549 26.8568L16.7331 26.8495L16.9725 26.84L17.1694 26.8297L17.3136 26.8188L17.3919 26.81L17.3392 26.8246L17.859 28.4227L17.6474 28.471L17.4725 28.4923L17.2763 28.5076L17.0486 28.5201L16.788 28.5303L16.4944 28.5384L16.1716 28.545L15.8202 28.5501L15.4432 28.5545L15.0427 28.5574L14.6232 28.5596L14.1862 28.5604H13.7352L13.2733 28.5596L12.8026 28.5582L12.3267 28.556L11.8487 28.553L11.3714 28.5501L10.897 28.5464L10.4292 28.5428L9.52654 28.534L8.68539 28.5259L7.92989 28.5179L7.2842 28.5113L7.01041 28.5084L6.77395 28.5062L6.57702 28.5047L6.42328 28.504L6.30688 28.4959L6.30835 28.4952ZM6.42475 28.5033C5.96134 28.5033 5.58433 28.127 5.58433 27.6628C5.58433 27.1994 5.96061 26.8224 6.42475 26.8224V28.5025V28.5033ZM2.47448 27.1841L3.50744 25.8583L3.5067 25.8575L3.58211 25.9146L3.65751 25.9688L3.73292 26.0201L3.80978 26.0691L3.88592 26.1145L3.96425 26.1584L4.04331 26.2009L4.12311 26.2411L4.20437 26.2792L4.28636 26.3158L4.37128 26.3502L4.45694 26.3839L4.54259 26.4154L4.63117 26.4454L4.72048 26.4747L4.81272 26.5025L4.90716 26.5296L5.0016 26.5545L5.09896 26.5786L5.19779 26.6013L5.29955 26.6233L5.40277 26.6445L5.506 26.665L5.61434 26.6848L5.72342 26.7045L5.83396 26.7229L5.9467 26.7412L6.06091 26.7587L6.17804 26.7763L6.29737 26.7939L6.41816 26.8114L6.54041 26.8283L6.30762 28.493L6.1817 28.4754L6.05651 28.4571L5.93206 28.4388L5.80761 28.4205L5.68316 28.4015L5.56017 28.3817L5.43645 28.3612L5.31419 28.3393L5.19267 28.3166L5.06968 28.2924L4.94816 28.2668L4.82663 28.2397L4.70511 28.2112L4.58358 28.1811L4.46133 28.1489L4.342 28.1153L4.22194 28.0794L4.10115 28.0406L3.98182 27.9996L3.86103 27.9557L3.74243 27.9088L3.62457 27.8598L3.50524 27.8071L3.38738 27.7514L3.26951 27.6921L3.15385 27.6306L3.03818 27.5655L2.92251 27.4952L2.80904 27.4227L2.69557 27.3458L2.58356 27.2661L2.47302 27.1826L2.47229 27.1819L2.47448 27.1841ZM2.47521 27.1848C2.10918 26.9 2.04329 26.3722 2.32807 26.0054C2.61284 25.6394 3.14067 25.5735 3.50744 25.8583L2.47595 27.1848H2.47521ZM0.391735 23.949L2.00449 23.4768L2.00376 23.4739L2.03011 23.561L2.05866 23.6489L2.08722 23.7353L2.11869 23.8216L2.15017 23.9073L2.18385 23.9937L2.21972 24.0808L2.25559 24.165L2.29366 24.2492L2.33319 24.3326L2.37419 24.4168L2.41592 24.4988L2.45911 24.5801L2.50303 24.6599L2.54915 24.7382L2.59601 24.8158L2.64506 24.8934L2.6941 24.9688L2.74535 25.0427L2.79806 25.1167L2.85004 25.187L2.90494 25.2572L2.96058 25.3261L3.01768 25.3927L3.07478 25.4571L3.13335 25.5193L3.19338 25.5816L3.25414 25.6408L3.31563 25.6987L3.37932 25.7551L3.44301 25.8085L3.50744 25.8597L2.47448 27.1855L2.37565 27.1065L2.27902 27.0245L2.18531 26.941L2.0938 26.8561L2.00449 26.7682L1.91737 26.6789L1.83172 26.5874L1.749 26.4937L1.6692 26.3993L1.5916 26.3034L1.5162 26.206L1.4408 26.1057L1.36978 26.0062L1.29951 25.9044L1.23215 25.8019L1.167 25.6994L1.10331 25.594L1.04182 25.4878L0.982518 25.381L0.925416 25.2741L0.870511 25.1657L0.817802 25.0581L0.766557 24.949L0.717508 24.8392L0.669191 24.728L0.624534 24.6181L0.58061 24.5076L0.538882 24.3963L0.49935 24.285L0.461282 24.173L0.425411 24.0618L0.391003 23.9498L0.390271 23.9468L0.391735 23.949ZM0.392467 23.952C0.260694 23.5069 0.514723 23.0391 0.959092 22.9073C1.40419 22.7755 1.87199 23.0295 2.00376 23.4739L0.392467 23.952ZM0.00227251 19.6686L1.68238 19.6598V19.6605L1.68384 19.9321L1.68458 20.2001L1.68531 20.3311L1.68604 20.4622L1.6875 20.5917L1.68897 20.7199L1.69116 20.8465L1.69409 20.9724L1.69702 21.0976L1.70068 21.2213L1.70507 21.3436L1.7102 21.4658L1.71605 21.5852L1.72338 21.7038L1.73143 21.8231L1.74021 21.9402L1.74973 22.0559L1.76071 22.1708L1.77316 22.285L1.78707 22.397L1.80171 22.5076L1.81854 22.6196L1.83611 22.7301L1.85588 22.8399L1.87638 22.9483L1.89907 23.0552L1.92323 23.1621L1.94885 23.2667L1.9774 23.3729L2.00669 23.4776L0.393931 23.9498L0.355864 23.8158L0.320724 23.6826L0.287781 23.5479L0.257034 23.4132L0.229215 23.2785L0.203593 23.1445L0.180166 23.0105L0.158936 22.8773L0.13917 22.7448L0.120868 22.6101L0.104763 22.4746L0.0901212 22.3421L0.0769439 22.2089L0.0659628 22.0749L0.0557138 21.9417L0.0469289 21.8092L0.0388761 21.6752L0.0322875 21.5412L0.0264309 21.4087L0.0220385 21.2755L0.017646 21.1423L0.0147177 21.009L0.0117895 20.8758L0.00959324 20.7418L0.00812909 20.6086L0.00666495 20.4746L0.00593288 20.3414L0.0052008 20.2067L0.00446873 19.9387L0.00300458 19.6686V19.6693L0.00227251 19.6686ZM0.00227251 19.6679C7.62939e-05 19.2045 0.374898 18.826 0.839032 18.8238C1.30243 18.8216 1.68092 19.1964 1.68311 19.6605L0.00300458 19.6679H0.00227251ZM0.0366799 14.2315H1.71679L1.71605 14.3845L1.71459 14.5822L1.71239 14.8186L1.70947 15.0931L1.70581 15.3999L1.70215 15.7344L1.69849 16.0932L1.69482 16.4709L1.69116 16.8633L1.6875 17.2667L1.68458 17.6759L1.68238 18.0873L1.68165 18.2916L1.68092 18.4958L1.68018 18.6971V18.8963V19.0939V19.2865L1.68092 19.4753L1.68165 19.6598L0.00154044 19.6686L0.000808367 19.4819L7.62939e-05 19.2894V19.0939V18.8963V18.6942L0.000808367 18.49L0.00154044 18.2857L0.00227251 18.0793L0.00446873 17.6656L0.00739702 17.2535L0.0110574 16.8487L0.0147177 16.4548L0.0183781 16.0763L0.0220385 15.7176L0.0256988 15.3823L0.0293592 15.0763L0.0322875 14.8032L0.0344837 14.5675L0.0359479 14.3757L0.0366799 14.2315ZM0.0366799 14.2315C0.0366799 13.7681 0.412965 13.3911 0.877099 13.3911C1.3405 13.3911 1.71752 13.7674 1.71752 14.2315H0.037412H0.0366799ZM0.0505893 7.2768L1.7307 7.29584V7.29657L1.7285 7.49423L1.7263 7.70287L1.72411 7.92322L1.72264 8.15236L1.71972 8.63699L1.71752 9.14725L1.71605 9.67507L1.71459 10.2124L1.71386 10.7498V11.2798L1.71313 11.7937L1.71386 12.2827L1.71459 12.7395L1.71532 13.1546L1.71605 13.5192L1.71679 13.8259L1.71752 14.066V14.2315H0.037412V14.0675L0.0366799 13.8281L0.0359479 13.5214L0.0352158 13.1561L0.0344837 12.741L0.0337516 12.2842L0.0330196 11.7937L0.0337516 11.279V10.7483L0.0344837 10.2095L0.0359479 9.67068L0.037412 9.14139L0.0396082 8.62821L0.0425365 8.14211L0.0440007 7.91005L0.0461969 7.68823L0.0483931 7.47666L0.0505893 7.2768ZM0.0505893 7.27607C0.0557138 6.81267 0.437124 6.44078 0.900526 6.4459C1.36393 6.45103 1.73582 6.83244 1.7307 7.29584L0.0505893 7.27607ZM0.0828005 6.08426L1.75339 6.27094L1.74827 6.30827L1.75193 6.28265L1.75266 6.27826V6.27972L1.75193 6.28192L1.75046 6.30461L1.749 6.33902L1.7468 6.38001L1.74534 6.42979L1.74387 6.48982L1.74241 6.55644L1.74021 6.62965L1.73875 6.70505L1.73728 6.79071L1.73582 6.88295L1.73436 6.97812L1.73289 7.07914L1.73143 7.18529L1.72996 7.29584L0.0498572 7.2768L0.0513214 7.1648L0.0527855 7.05791L0.0542497 6.95542L0.0557138 6.85586L0.057178 6.76582L0.0586421 6.6787L0.0601063 6.59305L0.0623025 6.51691L0.0637666 6.44663L0.0659628 6.38221L0.067427 6.32072L0.0703553 6.26361L0.0725515 6.21457L0.0754798 6.16771L0.077676 6.14063L0.0798722 6.1172L0.0828005 6.09084L0.0886571 6.04765L0.0835326 6.08499L0.0828005 6.08426ZM0.087925 6.04692C0.1604 5.58864 0.590859 5.27532 1.0484 5.34779C1.50668 5.42027 1.82001 5.85073 1.74753 6.30827L0.087925 6.04692ZM1.23728 2.68744L2.61504 3.64938L2.61577 3.64865L2.5638 3.72405L2.51621 3.79653L2.46936 3.87193L2.42397 3.9466L2.38224 4.01981L2.34124 4.09448L2.30245 4.16989L2.26511 4.24456L2.2307 4.3185L2.19703 4.3939L2.16408 4.4715L2.13334 4.5469L2.10405 4.62377L2.07623 4.70137L2.04988 4.77751L2.02426 4.85657L1.99937 4.93856L1.97594 5.01909L1.95471 5.09962L1.93421 5.18234L1.91445 5.26653L1.89614 5.35072L1.87857 5.4371L1.86174 5.52569L1.84563 5.61353L1.83026 5.70211L1.81562 5.79436L1.80171 5.88733L1.78853 5.9803L1.77608 6.07401L1.76437 6.17137L1.75339 6.26947L0.0828005 6.08279L0.0959778 5.97298L0.109155 5.86463L0.123797 5.75409L0.13917 5.64428L0.155276 5.53593L0.172113 5.42978L0.190415 5.31997L0.210181 5.21163L0.230679 5.10547L0.252641 4.99786L0.2768 4.89025L0.302422 4.78263L0.329509 4.67575L0.358792 4.56813L0.388807 4.46125L0.421018 4.35583L0.454693 4.24968L0.491297 4.14134L0.530097 4.03518L0.570361 3.92903L0.612821 3.82288L0.656746 3.71893L0.703598 3.61424L0.754111 3.50809L0.806088 3.40414L0.860262 3.30092L0.916631 3.19696L0.975929 3.09301L1.03742 2.99125L1.10111 2.88876L1.1692 2.78554L1.23801 2.68451L1.23874 2.68378L1.23728 2.68744ZM1.23655 2.68817C1.50156 2.30749 2.02572 2.21452 2.4064 2.47953C2.78708 2.74454 2.88005 3.2687 2.61504 3.64938L1.23655 2.68817ZM6.36765 0.126648L6.89401 1.7233L6.63119 1.76503L6.47672 1.76722L6.32372 1.77235L6.17072 1.78113L6.02064 1.79358L5.87057 1.81042L5.72269 1.82945L5.57701 1.85288L5.43132 1.87996L5.28784 1.90998L5.14655 1.94438L5.00672 1.98245L4.86909 2.02345L4.73293 2.06884L4.59896 2.11789L4.46792 2.16986L4.33907 2.2255L4.21242 2.28553L4.08797 2.34922L3.96498 2.41657L3.84492 2.48758L3.72925 2.56225L3.61432 2.64132L3.50158 2.72404L3.3925 2.80969L3.28635 2.89974L3.18166 2.99491L3.07991 3.09374L2.98181 3.1955L2.88591 3.30311L2.7922 3.41512L2.70216 3.53079L2.61504 3.65085L1.23728 2.6889L1.3588 2.52126L1.48472 2.35947L1.61503 2.20427L1.74973 2.0542L1.88956 1.90851L2.03304 1.77015L2.17946 1.63765L2.33026 1.51027L2.48546 1.38801L2.64286 1.27307L2.80245 1.16326L2.96717 1.05858L3.13408 0.959747L3.30246 0.867506L3.47449 0.779657L3.64726 0.697665L3.82369 0.620797L4.00232 0.549786L4.18168 0.484632L4.36323 0.42387L4.54698 0.368232L4.73146 0.318451L4.91741 0.273795L5.10555 0.233531L5.29296 0.199123L5.48257 0.169108L5.67291 0.143486L5.86398 0.122988L6.05578 0.106882L6.24685 0.0959012L6.44012 0.0893125L6.63266 0.0871163L6.36984 0.128844L6.36765 0.126648ZM6.63046 0.0849201C7.09386 0.0849201 7.47088 0.461206 7.47088 0.92534C7.47088 1.38874 7.09459 1.76576 6.63046 1.76576V0.0856522V0.0849201ZM15.1708 0.0790635L14.6847 1.68743L14.9278 1.7233L14.8048 1.72257L14.6525 1.72183L14.471 1.72037L14.2652 1.71817L13.7843 1.71305L13.2242 1.70719L12.6027 1.7006L11.9358 1.69402L11.5924 1.69109L11.244 1.68816L10.8926 1.68596L10.5412 1.68377L10.1927 1.6823L9.84719 1.68157L9.50824 1.68084H9.17807L8.85889 1.6823L8.55288 1.6845L8.26152 1.68743L7.98772 1.69109L7.73516 1.69548L7.50529 1.70134L7.30031 1.70866L7.12388 1.71598L6.98039 1.72476L6.87863 1.73282L6.83178 1.73867L6.89327 1.72183L6.36691 0.125184L6.55506 0.0805277L6.70293 0.0607617L6.86033 0.0468523L7.03676 0.0366033L7.23588 0.0278184L7.45697 0.0204977L7.70002 0.013909L7.96283 0.0095166L8.24322 0.00585623L8.54044 0.00292794L8.85157 0.000731724L9.17588 -0.000732422H9.5097L9.85085 -3.4913e-07L10.1986 0.000731724L10.5507 0.00219587L10.9036 0.00439209L11.2564 0.00658831L11.6064 0.0095166L11.9519 0.0124449L12.6195 0.0190335L13.2418 0.0256222L13.8018 0.0314788L14.2828 0.0366033L14.4878 0.0387995L14.6642 0.0402637L14.8121 0.0409957L14.9285 0.0417278L15.1716 0.0775994L15.1708 0.0790635ZM14.9278 0.0431919C15.3912 0.0431919 15.7682 0.419477 15.7682 0.883611C15.7682 1.34701 15.3919 1.72403 14.9278 1.72403V0.043924V0.0431919ZM15.0961 1.81188L14.6847 1.68743L15.1708 0.0790635L15.5822 0.203516L16.0683 0.590782L15.0961 1.81188ZM15.5822 0.203516C16.0266 0.337485 16.2777 0.806744 16.1437 1.25111C16.0098 1.69548 15.5405 1.94658 15.0961 1.81261L15.5822 0.204248V0.203516ZM16.337 2.36093L14.9146 1.46561L14.7879 1.97513L14.7887 1.97806L14.7879 1.9744L14.7872 1.96854L14.7857 1.95976L14.7828 1.94365L14.7806 1.93267L14.777 1.91437L14.7711 1.88948L14.766 1.86898L14.7616 1.85214L14.755 1.82799L14.7484 1.80383L14.7411 1.7782L14.7338 1.75258L14.7265 1.72842L14.7177 1.69987L14.7096 1.67425L14.7008 1.6479L14.6935 1.62593L14.6862 1.6047L14.6767 1.57835L14.6664 1.55126L14.6591 1.53223L14.6518 1.51393L14.6437 1.49416L14.6364 1.47659L14.6276 1.45609L14.6225 1.44511L14.6188 1.43852L14.613 1.42681L14.6115 1.42388V1.42315L16.0705 0.589318L16.0918 0.626654L16.1115 0.664722L16.1276 0.696933L16.1467 0.737197L16.1635 0.775265L16.1774 0.806012L16.1935 0.843347L16.2082 0.878487L16.2243 0.918019L16.2396 0.959015L16.2521 0.99269L16.2653 1.02783L16.2806 1.06956L16.2953 1.11129L16.3077 1.14862L16.3209 1.18815L16.3319 1.22476L16.3451 1.26575L16.3568 1.30529L16.3678 1.34409L16.378 1.38362L16.389 1.42315L16.4007 1.46927L16.4102 1.50953L16.4183 1.54467L16.4271 1.58494L16.4358 1.63033L16.4424 1.66913L16.4498 1.71305L16.4556 1.75771L16.4607 1.80236L16.4651 1.85068L16.3385 2.3602L16.337 2.36093ZM16.4637 1.85141C16.4973 2.31408 16.1503 2.71745 15.6877 2.75113C15.225 2.7848 14.8216 2.4378 14.7879 1.97513L16.4637 1.85141ZM16.2206 2.18816L14.5405 2.21232L14.7865 1.60617L14.8106 1.58201L14.8333 1.55931L14.8494 1.54394L14.8633 1.53003L14.8758 1.51759L14.8795 1.51466L14.8853 1.50807L14.8948 1.49782L14.8926 1.50002L14.889 1.50441L14.8912 1.50221L14.8919 1.50075L14.8934 1.49928L14.8985 1.49123L14.9073 1.47805L14.9153 1.46561L16.3377 2.36093L16.3136 2.39754L16.2931 2.42902L16.2704 2.46196L16.2448 2.49783L16.2191 2.53151L16.195 2.56152L16.1657 2.59739L16.1372 2.62887L16.1196 2.64791L16.0976 2.67133L16.0713 2.69842L16.0515 2.71745L16.0317 2.73795L16.0105 2.75845L15.9937 2.77456L15.9746 2.79359L16.2206 2.18743V2.18816ZM15.9746 2.79432C15.6467 3.12229 15.1144 3.12229 14.7865 2.79432C14.4585 2.46635 14.4585 1.93414 14.7865 1.60617L15.9746 2.79432ZM14.5749 4.61645L14.5405 2.21159L16.2206 2.18743L16.255 4.59229L14.5749 4.61791V4.61645ZM16.255 4.59229C16.2616 5.05569 15.8904 5.43784 15.427 5.44443C14.9636 5.45101 14.5815 5.07985 14.5749 4.61645L16.255 4.59229ZM16.5852 6.4664L15.0815 7.21677L15.0822 7.21824L15.0442 7.1399L15.0076 7.05938L14.9739 6.97739L14.9431 6.89759L14.9139 6.81633L14.8853 6.73287L14.859 6.64868L14.8355 6.56816L14.8121 6.4847L14.7909 6.40051L14.7711 6.31632L14.7521 6.2314L14.7345 6.14575L14.7177 6.06083L14.7023 5.97664L14.6877 5.89319L14.6737 5.809L14.6606 5.72334L14.6489 5.63769L14.6386 5.55424L14.6291 5.47371L14.6203 5.39098L14.6122 5.3068L14.6057 5.22773L14.5991 5.1472L14.5932 5.06668L14.5881 4.98981L14.5844 4.91367L14.58 4.83607L14.5778 4.76287L14.5749 4.68966L14.5734 4.61645L16.2536 4.58936L16.255 4.64573L16.2572 4.70503L16.2594 4.76653L16.2623 4.82729L16.266 4.89098L16.2704 4.95613L16.2748 5.01982L16.2799 5.08424L16.2858 5.15233L16.2916 5.21675L16.2989 5.28337L16.307 5.35218L16.3158 5.41953L16.3246 5.48469L16.3341 5.54984L16.3443 5.61646L16.3553 5.68308L16.3678 5.74897L16.3802 5.81119L16.3934 5.87342L16.4066 5.93345L16.4212 5.99348L16.4358 6.05131L16.4512 6.10695L16.4681 6.16332L16.4834 6.21383L16.4995 6.26215L16.5164 6.30973L16.5339 6.35439L16.55 6.39466L16.5669 6.43126L16.5837 6.46567L16.5845 6.46713L16.5852 6.4664ZM16.5845 6.46493C16.7924 6.87929 16.624 7.38515 16.2096 7.59306C15.7953 7.80097 15.2894 7.63259 15.0815 7.21824L16.5845 6.46567V6.46493ZM18.8802 8.03303L18.534 9.678L18.4044 9.64945L18.2755 9.6187L18.1482 9.58503L18.0215 9.54916L17.8927 9.50962L17.7675 9.4679L17.6423 9.42397L17.5171 9.37566L17.3941 9.32514L17.2719 9.2717L17.1503 9.2146L17.0303 9.15457L16.9117 9.09161L16.7946 9.02572L16.6782 8.95545L16.5647 8.88224L16.4534 8.8061L16.3429 8.72558L16.2338 8.64065L16.1291 8.55427L16.0259 8.46349L15.9234 8.36759L15.8253 8.26949L15.7301 8.16774L15.6364 8.06159L15.5464 7.95104L15.4607 7.83904L15.378 7.72337L15.2975 7.60184L15.2221 7.47812L15.1503 7.35147L15.0822 7.2197L16.5859 6.46933L16.6269 6.54839L16.6716 6.62599L16.717 6.70066L16.7638 6.77167L16.8143 6.84268L16.867 6.9115L16.9197 6.97592L16.9754 7.03888L17.0339 7.10111L17.094 7.16114L17.1547 7.21824L17.2192 7.27387L17.2858 7.32951L17.3531 7.38149L17.4227 7.432L17.4959 7.48178L17.5698 7.52937L17.6445 7.57476L17.7228 7.61868L17.8026 7.66114L17.8831 7.70141L17.9666 7.74021L18.0515 7.77754L18.1386 7.81341L18.2258 7.84636L18.3158 7.87857L18.4073 7.90931L18.4981 7.93713L18.5925 7.96422L18.6892 7.98984L18.7851 8.01327L18.8824 8.0345L18.8802 8.03303ZM18.8802 8.03303C19.3341 8.1282 19.6248 8.57477 19.5296 9.02865C19.4344 9.48254 18.9878 9.77317 18.534 9.678L18.8802 8.03303Z" fill="#002358"/>
<path d="M18.7521 22.3377C19.2155 22.3377 19.5925 22.714 19.5925 23.1782C19.5925 23.6416 19.2163 24.0186 18.7521 24.0186V22.3385V22.3377ZM11.7301 22.3377H18.7521V24.0178H11.7301V22.3377ZM11.7301 24.0178C11.2667 24.0178 10.8897 23.6416 10.8897 23.1774C10.8897 22.714 11.2659 22.337 11.7301 22.337V24.0171V24.0178Z" fill="#002358"/>
<path d="M18.7521 18.0624C19.2155 18.0624 19.5925 18.4387 19.5925 18.9028C19.5925 19.3663 19.2162 19.7433 18.7521 19.7433V18.0632V18.0624ZM15.5771 18.0624H18.7521V19.7425H15.5771V18.0624ZM15.5771 19.7425C15.1137 19.7425 14.7367 19.3663 14.7367 18.9021C14.7367 18.4387 15.113 18.0617 15.5771 18.0617V19.7418V19.7425Z" fill="#002358"/>
</svg>
