<svg width="15" height="17" viewBox="0 0 15 17" fill="none" xmlns="http://www.w3.org/2000/svg">
<path d="M10.1185 1.30518C10.3641 1.35187 10.8026 1.53051 11.0604 1.61779C12.0043 2.61856 12.9361 3.60917 13.8698 4.61399C14.5194 5.31432 14.4159 5.66956 14.4159 6.56882V11.5868C14.4159 12.9834 14.5519 14.104 13.6668 15.2448C13.0254 16.071 12.5341 16.1887 11.5435 16.3917C11.4359 16.4262 11.3953 16.4161 11.2776 16.4161C10.9345 16.5277 5.5552 16.4404 4.71074 16.4404C3.92718 16.3308 3.27354 16.2212 2.69298 15.7685C2.17534 15.3646 1.82416 14.7414 1.63944 14.1182C1.42021 13.3712 1.43442 12.5917 1.43036 11.7391C1.42427 10.5901 1.45066 8.93573 1.45066 8.54599C1.45066 8.15624 1.44457 5.67159 1.45877 4.4658C1.46283 4.10853 1.46689 3.86291 1.47501 3.81419C1.54809 3.16055 1.68207 2.59826 2.06776 2.04611C2.70922 1.12655 3.74246 0.72665 4.83254 0.72665C5.11673 0.633273 9.05888 0.702291 9.70846 0.702291L9.95002 0.775369C10.015 0.889046 10.1084 1.16918 10.1185 1.30721C10.0678 1.38841 10.0454 1.40465 9.97438 1.4757L9.99468 2.88854C10.0008 3.28844 10.0657 3.85479 10.2403 4.20394C10.5752 4.87382 11.2167 5.23718 11.9292 5.3874" stroke="#002358" stroke-linecap="round" stroke-linejoin="round"/>
<path d="M7.89772 7.43762H5.53284" stroke="#002358" stroke-linecap="round" stroke-linejoin="round"/>
<path d="M9.65971 11.6863H5.53284" stroke="#002358" stroke-linecap="round" stroke-linejoin="round"/>
</svg>
