<svg width="14" height="15" viewBox="0 0 14 15" fill="none" xmlns="http://www.w3.org/2000/svg">
<path d="M5.30299 11.818C3.88301 11.818 2.72723 10.6622 2.72723 9.24223V3.03027H1.66668C0.74729 3.03027 0 3.77742 0 4.69684V12.8785C0 13.7979 0.74729 14.5452 1.66668 14.5452H9.24225C10.1616 14.5452 10.9089 13.7979 10.9089 12.8785V11.818H5.30299Z" fill="#8B8B8B"/>
<path d="M13.333 1.66668C13.333 0.746069 12.587 0 11.6665 0H5.30291C4.3823 0 3.63623 0.746069 3.63623 1.66668V9.24225C3.63623 10.1629 4.3823 10.9089 5.30291 10.9089H11.6665C12.587 10.9089 13.333 10.1629 13.333 9.24225V1.66668Z" fill="#8B8B8B"/>
</svg>
