<svg width="17" height="17" viewBox="0 0 17 17" fill="none" xmlns="http://www.w3.org/2000/svg">
<path fill-rule="evenodd" clip-rule="evenodd" d="M4.66699 2.74939C4.66699 2.21896 4.87771 1.71025 5.25278 1.33518C5.62785 0.960103 6.13656 0.74939 6.66699 0.74939L14.667 0.74939C15.1974 0.74939 15.7061 0.960103 16.0812 1.33518C16.4563 1.71025 16.667 2.21896 16.667 2.74939V10.7494C16.667 11.2798 16.4563 11.7885 16.0812 12.1636C15.7061 12.5387 15.1974 12.7494 14.667 12.7494H6.66699C6.13656 12.7494 5.62785 12.5387 5.25278 12.1636C4.87771 11.7885 4.66699 11.2798 4.66699 10.7494V2.74939ZM6.66699 1.74939C6.40178 1.74939 6.14742 1.85475 5.95989 2.04228C5.77235 2.22982 5.66699 2.48417 5.66699 2.74939V10.7494C5.66699 11.0146 5.77235 11.269 5.95989 11.4565C6.14742 11.644 6.40178 11.7494 6.66699 11.7494H14.667C14.9322 11.7494 15.1866 11.644 15.3741 11.4565C15.5616 11.269 15.667 11.0146 15.667 10.7494V2.74939C15.667 2.48417 15.5616 2.22982 15.3741 2.04228C15.1866 1.85475 14.9322 1.74939 14.667 1.74939H6.66699ZM2.66699 5.74939C2.40178 5.74939 2.14742 5.85475 1.95989 6.04228C1.77235 6.22982 1.66699 6.48417 1.66699 6.74939V14.7494C1.66699 15.0146 1.77235 15.269 1.95989 15.4565C2.14742 15.644 2.40178 15.7494 2.66699 15.7494H10.667C10.9322 15.7494 11.1866 15.644 11.3741 15.4565C11.5616 15.269 11.667 15.0146 11.667 14.7494V13.7494H12.667V14.7494C12.667 15.2798 12.4563 15.7885 12.0812 16.1636C11.7061 16.5387 11.1974 16.7494 10.667 16.7494H2.66699C2.13656 16.7494 1.62785 16.5387 1.25278 16.1636C0.877706 15.7885 0.666992 15.2798 0.666992 14.7494V6.74939C0.666992 6.21896 0.877706 5.71025 1.25278 5.33518C1.62785 4.9601 2.13656 4.74939 2.66699 4.74939H3.66699V5.74939H2.66699Z" fill="#264D89"/>
</svg>
