<svg width="20" height="20" viewBox="0 0 20 20" fill="none" xmlns="http://www.w3.org/2000/svg">
<path d="M10 0C4.47688 0 0 4.4775 0 10C0 15.5231 4.47688 20 10 20C15.5225 20 20 15.5231 20 10C20 4.4775 15.5225 0 10 0ZM15.715 6.97312L9.465 14.4731C9.22813 14.7575 8.8775 14.9225 8.5075 14.9238H8.505C8.32254 14.9237 8.14231 14.8837 7.977 14.8064C7.81168 14.7292 7.66529 14.6167 7.54812 14.4769L4.27625 10.5806C4.16724 10.4555 4.08426 10.3098 4.03213 10.1523C3.98 9.99469 3.95977 9.82831 3.97263 9.66284C3.98549 9.49736 4.03117 9.3361 4.10702 9.18847C4.18286 9.04084 4.28735 8.90979 4.41438 8.80297C4.54141 8.69615 4.68844 8.61569 4.8469 8.5663C5.00535 8.51691 5.17206 8.49957 5.33729 8.5153C5.50252 8.53102 5.66296 8.57949 5.80926 8.65788C5.95555 8.73627 6.08477 8.84301 6.18937 8.97187L8.50062 11.725L13.7944 5.3725C14.0099 5.12886 14.3119 4.9788 14.6363 4.95414C14.9606 4.92949 15.2818 5.03218 15.5317 5.24044C15.7816 5.4487 15.9405 5.74612 15.9747 6.06961C16.009 6.3931 15.9158 6.7172 15.715 6.97312V6.97312Z" fill="#4CAF50"/>
</svg>
