<svg width="23" height="23" viewBox="0 0 23 23" fill="none" xmlns="http://www.w3.org/2000/svg">
<g clip-path="url(#clip0_2440_3815)">
<path d="M21.5625 17.25V15.8125H20.0524C19.9597 15.3626 19.7811 14.9348 19.5263 14.5525L20.5972 13.4816L19.5809 12.4653L18.51 13.5362C18.1277 13.2814 17.6999 13.1028 17.25 13.0101V11.5H15.8125V13.0101C15.3626 13.1028 14.9348 13.2814 14.5525 13.5362L13.4816 12.4653L12.4653 13.4816L13.5362 14.5525C13.2814 14.9348 13.1028 15.3626 13.0101 15.8125H11.5V17.25H13.0101C13.1028 17.6999 13.2814 18.1277 13.5362 18.51L12.4653 19.5809L13.4816 20.5972L14.5525 19.5263C14.9348 19.7811 15.3626 19.9597 15.8125 20.0524V21.5625H17.25V20.0524C17.6999 19.9597 18.1277 19.7811 18.51 19.5263L19.5809 20.5972L20.5972 19.5809L19.5263 18.51C19.7811 18.1277 19.9597 17.6999 20.0524 17.25H21.5625ZM16.5312 18.6875C16.1048 18.6875 15.6879 18.561 15.3333 18.3241C14.9787 18.0872 14.7023 17.7504 14.5391 17.3564C14.3759 16.9624 14.3332 16.5289 14.4164 16.1106C14.4996 15.6923 14.705 15.3081 15.0066 15.0066C15.3081 14.705 15.6923 14.4996 16.1106 14.4164C16.5289 14.3332 16.9624 14.3759 17.3564 14.5391C17.7504 14.7023 18.0872 14.9787 18.3241 15.3333C18.561 15.6879 18.6875 16.1048 18.6875 16.5312C18.6869 17.1029 18.4596 17.6511 18.0553 18.0553C17.6511 18.4596 17.1029 18.6869 16.5312 18.6875Z" fill="#7C7C7C" stroke="#7C7C7C" stroke-width="0.5"/>
<path d="M21.3571 2H1.64286C1.20728 2.00042 0.789663 2.16737 0.481662 2.46421C0.173661 2.76105 0.000434927 3.16354 0 3.58333V19.4167C0.000434927 19.8365 0.173661 20.2389 0.481662 20.5358C0.789663 20.8326 1.20728 20.9996 1.64286 21H9.85714V19.4167H1.64286V8.33333H21.3571V10.7083H23V3.58333C22.9996 3.16354 22.8263 2.76105 22.5183 2.46421C22.2103 2.16737 21.7927 2.00042 21.3571 2V2ZM21.3571 6.75H1.64286V3.58333H21.3571V6.75Z" fill="white" stroke="white" stroke-width="0.5"/>
<path d="M21.3571 2H1.64286C1.20728 2.00042 0.789663 2.16737 0.481662 2.46421C0.173661 2.76105 0.000434927 3.16354 0 3.58333V19.4167C0.000434927 19.8365 0.173661 20.2389 0.481662 20.5358C0.789663 20.8326 1.20728 20.9996 1.64286 21H9.85714V19.4167H1.64286V8.33333H21.3571V10.7083H23V3.58333C22.9996 3.16354 22.8263 2.76105 22.5183 2.46421C22.2103 2.16737 21.7927 2.00042 21.3571 2V2ZM21.3571 6.75H1.64286V3.58333H21.3571V6.75Z" fill="#7C7C7C" stroke="#7C7C7C" stroke-width="0.5"/>
<path d="M14.7188 6.4375C15.1157 6.4375 15.4375 6.1157 15.4375 5.71875C15.4375 5.3218 15.1157 5 14.7188 5C14.3218 5 14 5.3218 14 5.71875C14 6.1157 14.3218 6.4375 14.7188 6.4375Z" fill="#7C7C7C"/>
<path d="M16.875 6.4375C17.272 6.4375 17.5938 6.1157 17.5938 5.71875C17.5938 5.3218 17.272 5 16.875 5C16.478 5 16.1562 5.3218 16.1562 5.71875C16.1562 6.1157 16.478 6.4375 16.875 6.4375Z" fill="#7C7C7C"/>
<path d="M19.0312 6.4375C19.4282 6.4375 19.75 6.1157 19.75 5.71875C19.75 5.3218 19.4282 5 19.0312 5C18.6343 5 18.3125 5.3218 18.3125 5.71875C18.3125 6.1157 18.6343 6.4375 19.0312 6.4375Z" fill="#7C7C7C"/>
</g>
<defs>
<clipPath id="clip0_2440_3815">
<rect width="23" height="23" fill="white"/>
</clipPath>
</defs>
</svg>
