<svg width="19" height="18" viewBox="0 0 19 18" fill="none" xmlns="http://www.w3.org/2000/svg">
<circle cx="9.2168" cy="9" r="9" fill="#5865F2"/>
<path d="M14.09 4.52919C13.1783 4.11067 12.2161 3.81224 11.2276 3.64135C11.2186 3.63969 11.2094 3.6409 11.2011 3.64481C11.1928 3.64873 11.186 3.65514 11.1816 3.66315C11.058 3.88294 10.9211 4.16982 10.8252 4.39524C9.74431 4.23338 8.66902 4.23338 7.61032 4.39524C7.51442 4.16476 7.37253 3.88294 7.24836 3.66315C7.24376 3.65531 7.23691 3.64903 7.22869 3.64514C7.22048 3.64125 7.21128 3.63993 7.2023 3.64135C6.21371 3.81189 5.25152 4.11034 4.33995 4.52919C4.33215 4.5325 4.32556 4.53815 4.32111 4.54536C2.49804 7.26898 1.99868 9.92567 2.24365 12.5495C2.24433 12.5559 2.2463 12.5621 2.24945 12.5678C2.25259 12.5734 2.25683 12.5784 2.26193 12.5824C3.4647 13.4657 4.62985 14.002 5.77334 14.3574C5.78224 14.3601 5.79173 14.3599 5.80055 14.357C5.80937 14.3541 5.8171 14.3486 5.8227 14.3412C6.09319 13.9718 6.33429 13.5823 6.54108 13.1728C6.54393 13.1672 6.54556 13.161 6.54585 13.1547C6.54615 13.1484 6.54511 13.1422 6.54281 13.1363C6.5405 13.1305 6.53698 13.1252 6.53248 13.1208C6.52797 13.1164 6.52259 13.113 6.51668 13.1108C6.13418 12.9657 5.77004 12.7889 5.41974 12.588C5.41336 12.5842 5.408 12.579 5.40414 12.5726C5.40028 12.5663 5.39803 12.5591 5.39759 12.5518C5.39715 12.5444 5.39854 12.537 5.40163 12.5302C5.40472 12.5235 5.40942 12.5177 5.41531 12.5132C5.48921 12.4579 5.56183 12.401 5.63314 12.3425C5.63938 12.3373 5.64694 12.334 5.65497 12.3329C5.66299 12.3318 5.67116 12.333 5.67856 12.3363C7.98003 13.387 10.4716 13.387 12.7458 12.3363C12.7532 12.3327 12.7615 12.3314 12.7697 12.3324C12.7778 12.3334 12.7855 12.3367 12.7919 12.3419C12.8632 12.4008 12.9361 12.4579 13.0103 12.5132C13.0162 12.5176 13.0209 12.5234 13.024 12.5301C13.0272 12.5368 13.0286 12.5442 13.0282 12.5516C13.0279 12.559 13.0257 12.5662 13.0219 12.5725C13.018 12.5789 13.0127 12.5842 13.0064 12.588C12.6559 12.7926 12.2888 12.9673 11.9089 13.1103C11.903 13.1125 11.8976 13.116 11.8932 13.1205C11.8887 13.1249 11.8852 13.1303 11.883 13.1362C11.8807 13.1421 11.8797 13.1484 11.8801 13.1547C11.8805 13.161 11.8821 13.1672 11.885 13.1728C12.0954 13.5791 12.3353 13.9694 12.6028 14.3407C12.6082 14.3483 12.6159 14.354 12.6248 14.357C12.6336 14.36 12.6432 14.3601 12.6522 14.3574C13.8012 14.002 14.9663 13.4657 16.1692 12.5824C16.1743 12.5786 16.1786 12.5737 16.1818 12.5681C16.1849 12.5626 16.1869 12.5564 16.1875 12.55C16.4807 9.51666 15.6963 6.8817 14.1083 4.54592C14.1044 4.53833 14.0979 4.53239 14.09 4.52919ZM6.88477 10.9519C6.19184 10.9519 5.6209 10.3158 5.6209 9.53452C5.6209 8.75328 6.1808 8.11716 6.88477 8.11716C7.59422 8.11716 8.15961 8.7589 8.1485 9.53452C8.1485 10.3158 7.58874 10.9519 6.88477 10.9519ZM11.5575 10.9519C10.8645 10.9519 10.2937 10.3158 10.2937 9.53452C10.2937 8.75328 10.8535 8.11716 11.5575 8.11716C12.2669 8.11716 12.8323 8.7589 12.8213 9.53452C12.8213 10.3158 12.2669 10.9519 11.5575 10.9519Z" fill="white"/>
</svg>
