<svg width="17" height="15" viewBox="0 0 17 15" fill="none" xmlns="http://www.w3.org/2000/svg">
<path d="M10.5003 6.1971C10.649 5.95043 10.5643 5.63277 10.3105 5.48767C10.0578 5.34309 9.73042 5.42549 9.58113 5.67215C9.15195 6.3821 7.92409 6.95939 6.84285 6.95939C5.75788 6.95939 4.52735 6.37744 4.09976 5.66231C3.95154 5.4146 3.62525 5.33065 3.37094 5.47471C3.11609 5.61826 3.02972 5.93592 3.17794 6.18311C3.8817 7.36049 5.59153 7.99633 6.84338 7.99633C8.08937 7.99581 9.7944 7.36515 10.5003 6.1971ZM11.6162 10.5677C12.498 10.5677 13.2157 9.87018 13.2157 9.01306V2.27631C13.2157 1.41919 12.498 0.72168 11.6162 0.72168H2.01939C1.13755 0.72168 0.419922 1.41919 0.419922 2.27631V9.01306C0.419922 9.87018 1.13755 10.5677 2.01939 10.5677H2.02632L2.01939 13.1572C2.01886 13.3702 2.15268 13.5619 2.35581 13.6407C2.41979 13.665 2.48643 13.677 2.55254 13.677C2.69703 13.677 2.83885 13.62 2.94175 13.5132L5.7776 10.5677H11.6162ZM3.09423 10.1179C3.0969 10.0946 3.10809 10.0738 3.10809 10.0495C3.10809 9.76291 2.86924 9.53127 2.57494 9.53127H2.01939C1.72562 9.53127 1.48623 9.29912 1.48623 9.01306V2.27631C1.48623 1.99078 1.72562 1.7581 2.01939 1.7581H11.6162C11.9105 1.7581 12.1493 1.99078 12.1493 2.27631V9.01306C12.1493 9.29912 11.9105 9.53127 11.6162 9.53127H5.54941C5.54568 9.53127 5.54248 9.53335 5.53875 9.53335C5.4865 9.53386 5.43638 9.54786 5.38573 9.5634C5.37027 9.56859 5.35321 9.56807 5.33882 9.57429C5.29403 9.59242 5.25511 9.62403 5.21566 9.65461C5.20126 9.66601 5.1826 9.67326 5.16981 9.68674C5.16607 9.69088 5.16074 9.69192 5.15701 9.69607L3.08943 11.8441L3.09423 10.1179ZM14.8119 3.83768C14.5171 3.83768 14.2836 4.06984 14.2836 4.3559C14.2836 4.64195 14.5267 4.87411 14.8215 4.87411C15.1148 4.87411 15.3531 5.10678 15.3531 5.39232V11.0926C15.3531 11.3787 15.1148 11.6109 14.8215 11.6109H14.282C13.9871 11.6109 13.7488 11.8425 13.7488 12.1291C13.7488 12.1306 13.7493 12.1317 13.7493 12.1327C13.7493 12.1368 13.7472 12.14 13.7472 12.1436L13.7445 12.9458L12.5364 11.758C12.4319 11.6549 12.2933 11.6046 12.1547 11.6052C12.1531 11.6052 12.1515 11.6041 12.1493 11.6041H9.48357C9.18873 11.6041 8.95041 11.8358 8.95041 12.1223C8.95041 12.4089 9.18873 12.6405 9.48357 12.6405H11.935L13.8949 14.5678C13.9967 14.6678 14.1343 14.7217 14.274 14.7217C14.3422 14.7217 14.4105 14.7092 14.476 14.6833C14.6754 14.604 14.8066 14.4149 14.8071 14.205L14.8125 12.6473H14.8221C15.7028 12.6473 16.4199 11.9498 16.4199 11.0926V5.39232C16.4194 4.53468 15.7023 3.83768 14.8119 3.83768Z" fill="#676767"/>
</svg>
