<svg width="33" height="33" viewBox="0 0 33 33" fill="none" xmlns="http://www.w3.org/2000/svg">
<circle cx="16.3519" cy="16.2726" r="15" fill="#DF233D" fill-opacity="0.2" stroke="#DF233D" stroke-width="2"/>
<path d="M12.0185 17.2727H8.6852C8.5968 17.2727 8.51201 17.2376 8.4495 17.1751C8.38699 17.1126 8.35187 17.0278 8.35187 16.9394V8.93939C8.35187 8.85099 8.38699 8.7662 8.4495 8.70369C8.51201 8.64118 8.5968 8.60606 8.6852 8.60606H12.0185C12.1069 8.60606 12.1917 8.64118 12.2542 8.70369C12.3167 8.7662 12.3519 8.85099 12.3519 8.93939V16.9394C12.3519 17.0278 12.3167 17.1126 12.2542 17.1751C12.1917 17.2376 12.1069 17.2727 12.0185 17.2727ZM24.3519 16.9394C24.3519 17.8581 23.6039 18.6061 22.6852 18.6061H18.4885C18.6919 19.2254 19.0185 20.3607 19.0185 21.2727C19.0185 22.7187 17.7899 23.9394 17.0185 23.9394C16.3259 23.9394 15.8312 23.5501 15.8099 23.5334C15.771 23.502 15.7397 23.4622 15.7181 23.4171C15.6965 23.372 15.6853 23.3227 15.6852 23.2727V21.0127L13.7652 16.8521L13.2032 16.5714C13.1478 16.5435 13.1012 16.5009 13.0686 16.4482C13.0361 16.3954 13.0187 16.3347 13.0185 16.2727V10.2727C13.0185 10.1841 13.0539 10.0994 13.1159 10.0367C13.6152 9.53806 14.7352 9.27273 15.3519 9.27273H21.5185C21.7737 9.27316 22.0245 9.33859 22.2473 9.46285C22.4701 9.58712 22.6576 9.76612 22.792 9.98295C22.9264 10.1998 23.0034 10.4473 23.0156 10.7021C23.0278 10.9569 22.9749 11.2107 22.8619 11.4394C23.215 11.6167 23.4834 11.9268 23.6084 12.3017C23.7333 12.6765 23.7046 13.0857 23.5285 13.4394C23.7758 13.5635 23.9838 13.754 24.1291 13.9894C24.2745 14.2248 24.3516 14.496 24.3519 14.7727C24.3519 15.1727 24.1925 15.5467 23.9185 15.8227C24.1952 16.1241 24.3519 16.5187 24.3519 16.9394Z" fill="#DF233D"/>
</svg>
