<svg width="24" height="17" viewBox="0 0 24 17" fill="none" xmlns="http://www.w3.org/2000/svg">
<path d="M10.8698 11.4154C11.0878 11.5516 11.333 11.6061 11.5509 11.6061C11.7689 11.6061 12.0141 11.5516 12.232 11.4154L23.0752 4.79504V13.5949C23.0752 15.4747 21.5495 17.0004 19.6697 17.0004H3.40497C1.52512 17.0004 -0.000545502 15.4747 -0.000545502 13.5949V4.79504L10.8698 11.4154Z" fill="#00247D"/>
<path d="M3.29615 0H19.5609C21.1683 0 23 1.5 22.8574 3.5L11.9374 10.1804C11.6167 10.3765 11.2132 10.3763 10.8928 10.1798L-0.000385284 3.5C-0.000385284 1.5 1.68875 0 3.29615 0Z" fill="#00247D"/>
</svg>
