<svg width="18" height="18" viewBox="0 0 18 18" fill="none" xmlns="http://www.w3.org/2000/svg">
<path d="M9 3.75L15 3.75M3 14.25H5.25M3 3.75L6 3.75M8.25 14.25L15 14.25M12.75 9H15M3 9L9.75 9" stroke="#264D89" stroke-linecap="round"/>
<path d="M6 3.75C6 4.57843 6.67157 5.25 7.5 5.25C8.32843 5.25 9 4.57843 9 3.75C9 2.92157 8.32843 2.25 7.5 2.25C6.67157 2.25 6 2.92157 6 3.75Z" stroke="#264D89" stroke-linecap="round"/>
<path d="M9.75 9C9.75 9.82843 10.4216 10.5 11.25 10.5C12.0784 10.5 12.75 9.82843 12.75 9C12.75 8.17157 12.0784 7.5 11.25 7.5C10.4216 7.5 9.75 8.17157 9.75 9Z" stroke="#264D89" stroke-linecap="round"/>
<path d="M5.25 14.25C5.25 15.0784 5.92157 15.75 6.75 15.75C7.57843 15.75 8.25 15.0784 8.25 14.25C8.25 13.4216 7.57843 12.75 6.75 12.75C5.92157 12.75 5.25 13.4216 5.25 14.25Z" stroke="#264D89" stroke-linecap="round"/>
</svg>
