<svg xmlns="http://www.w3.org/2000/svg" version="1.1" xmlns:xlink="http://www.w3.org/1999/xlink" width="20" height="20" x="0" y="0" viewBox="0 0 512 512" style="enable-background:new 0 0 512 512" xml:space="preserve" class=""><g><path fill-rule="evenodd" d="M241.293 186.324h29.413c5.508 0 10 4.492 10 10v158.163c0 5.508-4.492 10-10 10h-12.07c6.534-14.851 9.931-30.949 9.931-47.398 0-33.912-14.338-64.475-37.274-85.971v-34.793c0-5.509 4.492-10.001 10-10.001zm-105.245 83.367h29.413c5.508 0 10 4.492 10 10v74.796c0 5.508-4.492 10-10 10h-29.413c-5.508 0-10-4.492-10-10V279.69c0-5.507 4.492-9.999 10-9.999zM336.24 459.31l-55.912-54.255c-3.653-3.545-9.544-3.456-13.089.197l-1.15 1.185-31.917-30.971c11.59-16.528 18.395-36.657 18.395-58.377 0-56.23-45.584-101.814-101.814-101.814S48.939 260.859 48.939 317.089s45.583 101.814 101.814 101.814c25.249 0 48.348-9.195 66.14-24.414l31.31 30.381-1.15 1.185c-3.544 3.652-3.456 9.544.197 13.088l55.912 54.255c3.654 3.544 9.543 3.457 13.088-.196l20.187-20.804c3.546-3.654 3.456-9.542-.197-13.088zm-185.486-69.113c-40.376 0-73.108-32.732-73.108-73.109s32.732-73.109 73.108-73.109c40.377 0 73.109 32.732 73.109 73.109-.001 40.377-32.733 73.109-73.109 73.109zM455.349 60.642a23.6 23.6 0 0 0 11.141 2.777c13.094 0 23.709-10.615 23.709-23.709C490.2 26.615 479.585 16 466.491 16s-23.71 10.615-23.71 23.709c0 3.231.647 6.312 1.818 9.119l-72.213 65.695a23.601 23.601 0 0 0-11.142-2.777c-6.849 0-13.019 2.905-17.346 7.549l-64.236-27.622c.03-.488.047-.979.047-1.474 0-13.094-10.615-23.709-23.71-23.709-13.094 0-23.709 10.615-23.709 23.709 0 2.498.387 4.906 1.104 7.167l-69.668 52.899a23.596 23.596 0 0 0-12.972-3.862c-7.286 0-13.804 3.288-18.152 8.459l-63.387-23.563c.001-.103.004-.206.004-.309 0-13.094-10.615-23.709-23.709-23.709s-23.709 10.615-23.709 23.709 10.615 23.709 23.709 23.709c7.286 0 13.803-3.288 18.153-8.459l63.387 23.563c-.001.103-.004.206-.004.309 0 13.094 10.615 23.709 23.709 23.709s23.709-10.615 23.709-23.709c0-2.498-.387-4.905-1.104-7.167l69.668-52.899A23.598 23.598 0 0 0 256 113.908c6.849 0 13.018-2.906 17.347-7.549l64.236 27.623c-.03.488-.047.979-.047 1.474 0 13.094 10.615 23.709 23.709 23.709s23.709-10.615 23.709-23.709c0-3.231-.648-6.311-1.818-9.119zm-3.565 60.865h29.413c5.508 0 10 4.492 10 10v222.98c0 5.508-4.492 10-10 10h-29.413c-5.508 0-10-4.492-10-10v-222.98c0-5.508 4.492-10 10-10zm-105.246 98.516h29.414c5.508 0 10 4.492 10 10v124.464c0 5.508-4.492 10-10 10h-29.414c-5.508 0-10-4.492-10-10V230.023c0-5.508 4.492-10 10-10zM60.216 216.58c5.508 0 10 4.492 10 10v4.535c-22.938 21.497-37.276 52.06-37.276 85.973 0 16.862 3.551 32.894 9.934 47.398H30.803c-5.508 0-10-4.492-10-10V226.58c0-5.508 4.492-10 10-10z" clip-rule="evenodd" fill="#264D89" opacity="1" data-original="#264D89" class=""></path></g></svg>