<svg width="20" height="20" viewBox="0 0 20 20" fill="none" xmlns="http://www.w3.org/2000/svg">
<path fill-rule="evenodd" clip-rule="evenodd" d="M10.0003 2.52817C9.95199 2.61234 9.89783 2.709 9.83449 2.82317L9.75283 2.96984L9.73366 3.00317C9.66866 3.12317 9.56033 3.3215 9.37949 3.459C9.19533 3.599 8.97283 3.64734 8.84366 3.67567L8.80699 3.68317L8.64866 3.719C8.50199 3.75234 8.38282 3.779 8.28199 3.80484C8.34783 3.88567 8.43366 3.98734 8.54533 4.11817L8.65366 4.24484L8.67866 4.27317C8.76866 4.37734 8.91366 4.544 8.98116 4.76067C9.04783 4.974 9.02449 5.194 9.01033 5.33234C9.00886 5.34538 9.00747 5.35844 9.00616 5.3715L8.98949 5.54067C8.977 5.66837 8.96533 5.79615 8.95449 5.924C9.04199 5.88567 9.14033 5.84067 9.25783 5.7865L9.40699 5.71817L9.44033 5.7015C9.56033 5.64567 9.76783 5.54734 10.0003 5.54734C10.2328 5.54734 10.4403 5.64567 10.5603 5.70234L10.5937 5.71817L10.7428 5.7865C10.8595 5.84067 10.9595 5.8865 11.0462 5.924C11.0353 5.79615 11.0237 5.66837 11.0112 5.54067L10.9945 5.3715C10.9932 5.35844 10.9918 5.34538 10.9903 5.33234C10.9762 5.19317 10.9528 4.974 11.0195 4.76067C11.0862 4.544 11.232 4.37734 11.322 4.27317L11.347 4.24484L11.4553 4.11817C11.567 3.98734 11.6528 3.88567 11.7187 3.80484C11.6178 3.77984 11.4987 3.75234 11.352 3.719L11.1937 3.68317L11.157 3.67484C11.0278 3.64734 10.8053 3.599 10.6212 3.45817C10.4403 3.3215 10.332 3.12317 10.267 3.004L10.2478 2.96984L10.1662 2.82317C10.1028 2.709 10.0495 2.61234 10.0003 2.52817ZM9.17866 1.49984C9.32199 1.31234 9.58199 1.0415 10.0003 1.0415C10.4187 1.0415 10.6787 1.31234 10.822 1.49984C10.9595 1.67817 11.097 1.92567 11.2387 2.17984L11.2578 2.214L11.3395 2.3615L11.387 2.44484L11.4695 2.464L11.6278 2.49984L11.6678 2.50817C11.9403 2.57067 12.212 2.6315 12.4203 2.714C12.6503 2.80484 12.962 2.98067 13.0828 3.36817C13.2012 3.74734 13.052 4.069 12.922 4.2765C12.8012 4.46817 12.6178 4.6815 12.4303 4.90067L12.4053 4.92984L12.297 5.05734L12.2287 5.13817C12.2303 5.16817 12.2345 5.20317 12.2387 5.25067L12.2553 5.41984L12.2587 5.45817C12.287 5.7515 12.3145 6.03484 12.3045 6.2615C12.2945 6.49984 12.2378 6.85984 11.9145 7.104C11.5812 7.35734 11.2145 7.30234 10.9812 7.23484C10.7662 7.174 10.512 7.0565 10.2562 6.939L10.2203 6.92234L10.0703 6.85317L10.0003 6.82067L9.92949 6.854L9.78032 6.92234L9.74366 6.939C9.48866 7.0565 9.23532 7.174 9.01949 7.23484C8.78616 7.3015 8.41949 7.35734 8.08616 7.104C7.76366 6.85984 7.70616 6.49984 7.69616 6.26234C7.68616 6.03484 7.71283 5.7515 7.74199 5.45817L7.74533 5.41984L7.76199 5.25067L7.77283 5.13817C7.74994 5.11108 7.72689 5.08413 7.70366 5.05734L7.59533 4.92984L7.57032 4.90067C7.38282 4.6815 7.19949 4.46734 7.07866 4.27567C6.94866 4.069 6.79949 3.74734 6.91783 3.36734C7.03783 2.9815 7.35033 2.80484 7.58033 2.714C7.78866 2.6315 8.06033 2.57067 8.33283 2.509L8.37199 2.50067L8.53116 2.464L8.61449 2.44484L8.66116 2.3615L8.74283 2.214L8.76199 2.17984C8.90366 1.92567 9.04116 1.67817 9.17866 1.49984ZM9.12616 7.70817H10.8745C11.4287 7.70817 11.9062 7.70817 12.2887 7.75984C12.6987 7.81484 13.0912 7.939 13.4095 8.25734C13.7278 8.57567 13.852 8.96817 13.907 9.37817C13.9587 9.76067 13.9587 10.2382 13.9587 10.7923V12.8473C14.0953 12.8057 14.2362 12.779 14.3787 12.7598C14.7612 12.7082 15.2387 12.7082 15.7928 12.7082H15.8745C16.4287 12.7082 16.9062 12.7082 17.2887 12.7598C17.6987 12.8148 18.0912 12.939 18.4095 13.2573C18.7278 13.5757 18.852 13.9682 18.907 14.3782C18.9587 14.7607 18.9587 15.2382 18.9587 15.7923V18.3332C18.9587 18.4989 18.8928 18.6579 18.7756 18.7751C18.6584 18.8923 18.4994 18.9582 18.3337 18.9582C18.1679 18.9582 18.0089 18.8923 17.8917 18.7751C17.7745 18.6579 17.7087 18.4989 17.7087 18.3332V15.8332C17.7087 15.2265 17.707 14.8332 17.6687 14.5448C17.632 14.274 17.5728 14.189 17.5253 14.1415C17.4778 14.094 17.3928 14.0348 17.122 13.9982C16.8328 13.9598 16.4403 13.9582 15.8337 13.9582C15.227 13.9582 14.8337 13.9598 14.5453 13.9982C14.2745 14.0348 14.1895 14.094 14.142 14.1415C14.0945 14.189 14.0353 14.274 13.9987 14.5448C13.9603 14.834 13.9587 15.2265 13.9587 15.8332V18.3332C13.9587 18.4989 13.8928 18.6579 13.7756 18.7751C13.6584 18.8923 13.4994 18.9582 13.3337 18.9582C13.1679 18.9582 13.0089 18.8923 12.8917 18.7751C12.7745 18.6579 12.7087 18.4989 12.7087 18.3332V10.8332C12.7087 10.2265 12.707 9.83317 12.6687 9.54484C12.632 9.274 12.5728 9.189 12.5253 9.1415C12.4778 9.094 12.3928 9.03484 12.122 8.99817C11.8328 8.95984 11.4403 8.95817 10.8337 8.95817H9.16699C8.56033 8.95817 8.16699 8.95984 7.87866 8.99817C7.60783 9.03484 7.52283 9.094 7.47533 9.1415C7.42783 9.189 7.36866 9.274 7.33199 9.54484C7.29366 9.834 7.29199 10.2265 7.29199 10.8332V18.3332C7.29199 18.4989 7.22614 18.6579 7.10893 18.7751C6.99172 18.8923 6.83275 18.9582 6.66699 18.9582C6.50123 18.9582 6.34226 18.8923 6.22505 18.7751C6.10784 18.6579 6.04199 18.4989 6.04199 18.3332C6.04199 17.7265 6.04033 17.3332 6.00199 17.0448C5.96533 16.774 5.90616 16.689 5.85866 16.6415C5.81116 16.594 5.72616 16.5348 5.45533 16.4982C5.16616 16.4598 4.77366 16.4582 4.16699 16.4582C3.56033 16.4582 3.16699 16.4598 2.87866 16.4982C2.60783 16.5348 2.52283 16.594 2.47533 16.6415C2.42783 16.689 2.36866 16.774 2.33199 17.0448C2.29366 17.334 2.29199 17.7265 2.29199 18.3332C2.29199 18.4989 2.22614 18.6579 2.10893 18.7751C1.99172 18.8923 1.83275 18.9582 1.66699 18.9582C1.50123 18.9582 1.34226 18.8923 1.22505 18.7751C1.10784 18.6579 1.04199 18.4989 1.04199 18.3332V18.2915C1.04199 17.7382 1.04199 17.2607 1.09366 16.8782C1.14866 16.4682 1.27283 16.0757 1.59116 15.7573C1.90949 15.439 2.30283 15.3148 2.71199 15.2598C3.09449 15.2082 3.57199 15.2082 4.12616 15.2082H4.20783C4.76199 15.2082 5.23949 15.2082 5.62199 15.2598C5.76449 15.279 5.90533 15.3065 6.04199 15.3473V10.7923C6.04199 10.2382 6.04199 9.76067 6.09366 9.37817C6.14866 8.96817 6.27283 8.57567 6.59116 8.25734C6.90949 7.939 7.30282 7.81484 7.71199 7.75984C8.09449 7.70817 8.57199 7.70817 9.12616 7.70817Z" fill="#264D89"/>
</svg>
