<svg width="17" height="17" viewBox="0 0 17 17" fill="none" xmlns="http://www.w3.org/2000/svg">
<path d="M1.59451 10.7669C1.59451 11.6896 2.34263 12.4377 3.26536 12.4377H14.1737L11.9737 10.2378L12.7614 9.45023L15.912 12.6009C16.1294 12.8184 16.1294 13.1709 15.912 13.3884L12.7614 16.5391L11.9738 15.7515L14.1737 13.5516H3.26536C1.72818 13.5497 0.482497 12.304 0.480618 10.7669V8.53906H1.59451V10.7669ZM14.9613 6.31127C14.9613 5.38841 14.2132 4.64043 13.2904 4.64043H2.38204L4.58195 6.84037L3.79439 7.6279L0.643734 4.47728C0.426315 4.25972 0.426315 3.90728 0.643734 3.68972L3.79442 0.539062L4.58198 1.32662L2.38204 3.52657H13.2905C14.8276 3.52831 16.0734 4.77413 16.0752 6.31131V8.5391H14.9613L14.9613 6.31127Z" fill="#676767"/>
</svg>
