<svg width="16" height="17" viewBox="0 0 16 17" fill="none" xmlns="http://www.w3.org/2000/svg">
<path d="M2.21838 7.37411C2.21838 5.93405 2.78123 4.55297 3.7831 3.53469C4.78497 2.51642 6.1438 1.94435 7.56066 1.94435C8.97752 1.94435 10.3363 2.51642 11.3382 3.53469C12.3401 4.55297 12.9029 5.93405 12.9029 7.37411C12.9029 8.81417 12.3401 10.1953 11.3382 11.2135C10.3363 12.2318 8.97752 12.8039 7.56066 12.8039C6.1438 12.8039 4.78497 12.2318 3.7831 11.2135C2.78123 10.1953 2.21838 8.81417 2.21838 7.37411ZM15.4025 15.0627L12.4141 12.0261C13.5862 10.7703 14.2393 9.10507 14.2385 7.37411C14.2385 3.62554 11.2488 0.586914 7.56066 0.586914C3.87248 0.586914 0.882812 3.62554 0.882812 7.37411C0.882812 11.1227 3.87248 14.1613 7.56066 14.1613C8.93751 14.1623 10.2806 13.728 11.4038 12.9186L14.4575 16.023C14.7186 16.2877 15.1413 16.2877 15.4025 16.023C15.6629 15.7577 15.6629 15.328 15.4025 15.0627Z" fill="#676767"/>
</svg>
