<svg width="25" height="25" viewBox="0 0 25 25" fill="none" xmlns="http://www.w3.org/2000/svg">
<path d="M6.4522 11.3799C6.4522 9.81409 7.0642 8.31241 8.15356 7.2052C9.24293 6.098 10.7204 5.47598 12.261 5.47598C13.8016 5.47598 15.2791 6.098 16.3685 7.2052C17.4578 8.31241 18.0698 9.81409 18.0698 11.3799C18.0698 12.9457 17.4578 14.4474 16.3685 15.5546C15.2791 16.6618 13.8016 17.2838 12.261 17.2838C10.7204 17.2838 9.24293 16.6618 8.15356 15.5546C7.0642 14.4474 6.4522 12.9457 6.4522 11.3799V11.3799ZM20.7876 19.7399L17.5383 16.4381C18.8128 15.0727 19.5229 13.262 19.522 11.3799C19.522 7.30399 16.2713 4 12.261 4C8.25075 4 5 7.30399 5 11.3799C5 15.4558 8.25075 18.7598 12.261 18.7598C13.7581 18.7609 15.2185 18.2887 16.4397 17.4086L19.7602 20.7841C20.0441 21.072 20.5037 21.072 20.7876 20.7841C21.0708 20.4956 21.0708 20.0284 20.7876 19.7399" fill="#7F8DA7"/>
<path d="M20.7876 19.7399L17.5383 16.4381C18.8128 15.0727 19.5229 13.262 19.522 11.3799C19.522 7.30399 16.2713 4 12.261 4C8.25075 4 5 7.30399 5 11.3799C5 15.4558 8.25075 18.7598 12.261 18.7598C13.7581 18.7609 15.2185 18.2887 16.4397 17.4086L19.7602 20.7841C20.0441 21.072 20.5037 21.072 20.7876 20.7841C21.0708 20.4956 21.0708 20.0284 20.7876 19.7399M6.4522 11.3799C6.4522 9.81409 7.0642 8.31241 8.15356 7.2052C9.24293 6.098 10.7204 5.47598 12.261 5.47598C13.8016 5.47598 15.2791 6.098 16.3685 7.2052C17.4578 8.31241 18.0698 9.81409 18.0698 11.3799C18.0698 12.9457 17.4578 14.4474 16.3685 15.5546C15.2791 16.6618 13.8016 17.2838 12.261 17.2838C10.7204 17.2838 9.24293 16.6618 8.15356 15.5546C7.0642 14.4474 6.4522 12.9457 6.4522 11.3799V11.3799Z" stroke="#7F8DA7" stroke-width="0.6"/>
</svg>
