<svg width="29" height="29" viewBox="0 0 29 29" fill="none" xmlns="http://www.w3.org/2000/svg">
<g clip-path="url(#clip0_2788_724)">
<path d="M14.2798 1.68139V0L15.0121 0.019271L15.7396 0.077084L16.4526 0.168621L17.156 0.293883L17.8498 0.452869L18.5291 0.645579L19.1939 0.872013L19.8443 1.12735L20.4754 1.4116L21.0921 1.72475L21.6895 2.06681L22.2676 2.43778L22.8265 2.83765L23.3661 3.26162L23.8816 3.70967L24.3778 4.18181L24.85 4.67804L25.298 5.19353L25.722 5.73312L26.1218 6.29198L26.4928 6.87011L26.8349 7.46751L27.148 8.08418L27.4323 8.71531L27.6876 9.36571L27.914 10.0306L28.1068 10.7099L28.2657 11.4036L28.391 12.107L28.4825 12.82L28.5404 13.5475L28.5596 14.2798H26.8782L26.8638 13.6294L26.8156 12.9887L26.7337 12.3575L26.6229 11.736L26.4832 11.129L26.3146 10.5316L26.117 9.94865L25.8906 9.37534L25.6401 8.81648L25.3606 8.27208L25.0571 7.74212L24.7295 7.23144L24.3778 6.73521L24.002 6.25826L23.607 5.80057L23.1878 5.36216L22.7494 4.94301L22.2917 4.54796L21.8148 4.17217L21.3185 3.82048L20.8079 3.49287L20.2779 3.18935L19.7335 2.90992L19.1746 2.6594L18.6013 2.43296L18.0184 2.23544L17.421 2.06681L16.8139 1.9271L16.1925 1.81629L15.5613 1.73439L14.9206 1.68621L14.2702 1.67176L14.2798 1.68139ZM14.2798 1.68139C13.8173 1.68139 13.4415 1.30561 13.4415 0.843106C13.4415 0.380602 13.8173 0.00481775 14.2798 0.00481775V1.68621V1.68139ZM1.68139 14.2798H0L0.019271 13.5475L0.077084 12.82L0.168621 12.107L0.293883 11.4036L0.452869 10.7099L0.645579 10.0306L0.872013 9.36571L1.12735 8.71531L1.4116 8.08418L1.72475 7.46751L2.06681 6.87011L2.43778 6.29198L2.83765 5.73312L3.26162 5.19353L3.70967 4.67804L4.18181 4.18181L4.67804 3.70967L5.19353 3.26162L5.73312 2.83765L6.29198 2.43778L6.87011 2.06681L7.46751 1.72475L8.08418 1.4116L8.71531 1.12735L9.36571 0.872013L10.0306 0.645579L10.7099 0.452869L11.4036 0.293883L12.107 0.168621L12.82 0.077084L13.5475 0.019271L14.2798 0V1.68139L13.6294 1.69585L12.9887 1.74403L12.3575 1.82593L11.736 1.93674L11.129 2.07645L10.5316 2.24507L9.94865 2.4426L9.37534 2.66903L8.81648 2.91956L8.27208 3.19899L7.74212 3.5025L7.23144 3.83011L6.73521 4.18181L6.25826 4.55759L5.80057 4.95265L5.36216 5.37179L4.94301 5.81021L4.54796 6.26789L4.17217 6.74485L3.82048 7.24108L3.49287 7.75176L3.18935 8.28171L2.90992 8.82612L2.6594 9.38498L2.43296 9.95829L2.23544 10.5412L2.06681 11.1386L1.9271 11.7457L1.81629 12.3672L1.73439 12.9983L1.68621 13.6391L1.67176 14.2894L1.68139 14.2798ZM1.68139 14.2798C1.68139 14.7423 1.30561 15.1181 0.843106 15.1181C0.380602 15.1181 0.00481775 14.7423 0.00481775 14.2798H1.68621H1.68139ZM14.2798 26.8782V28.5596L13.5475 28.5404L12.82 28.4825L12.107 28.391L11.4036 28.2657L10.7099 28.1068L10.0306 27.914L9.36571 27.6876L8.71531 27.4323L8.08418 27.148L7.46751 26.8349L6.87011 26.4928L6.29198 26.1218L5.73312 25.722L5.19353 25.298L4.67804 24.85L4.18181 24.3778L3.70967 23.8816L3.26162 23.3661L2.83765 22.8265L2.43778 22.2676L2.06681 21.6895L1.72475 21.0921L1.4116 20.4754L1.12735 19.8443L0.872013 19.1939L0.645579 18.5291L0.452869 17.8498L0.293883 17.156L0.168621 16.4526L0.077084 15.7396L0.019271 15.0121L0 14.2798H1.68139L1.69585 14.9302L1.74403 15.571L1.82593 16.2021L1.93674 16.8236L2.07645 17.4306L2.24507 18.028L2.4426 18.611L2.66903 19.1843L2.91956 19.7431L3.19899 20.2875L3.5025 20.8175L3.83011 21.3282L4.18181 21.8244L4.55759 22.3014L4.95265 22.7591L5.37179 23.1975L5.81021 23.6166L6.26789 24.0117L6.74485 24.3875L7.24108 24.7391L7.75176 25.0668L8.28171 25.3703L8.82612 25.6497L9.38498 25.9002L9.95829 26.1267L10.5412 26.3242L11.1386 26.4928L11.7457 26.6325L12.3672 26.7433L12.9983 26.8252L13.6391 26.8734L14.2894 26.8879L14.2798 26.8782ZM14.2798 26.8782C14.7423 26.8782 15.1181 27.254 15.1181 27.7165C15.1181 28.179 14.7423 28.5548 14.2798 28.5548V26.8734V26.8782ZM26.8782 14.2798H28.5596L28.5404 15.0121L28.4825 15.7396L28.391 16.4526L28.2657 17.156L28.1068 17.8498L27.914 18.5291L27.6876 19.1939L27.4323 19.8443L27.148 20.4754L26.8349 21.0921L26.4928 21.6895L26.1218 22.2676L25.722 22.8265L25.298 23.3661L24.85 23.8816L24.3778 24.3778L23.8816 24.85L23.3661 25.298L22.8265 25.722L22.2676 26.1218L21.6895 26.4928L21.0921 26.8349L20.4754 27.148L19.8443 27.4323L19.1939 27.6876L18.5291 27.914L17.8498 28.1068L17.156 28.2657L16.4526 28.391L15.7396 28.4825L15.0121 28.5404L14.2798 28.5596V26.8782L14.9302 26.8638L15.571 26.8156L16.2021 26.7337L16.8236 26.6229L17.4306 26.4832L18.028 26.3146L18.611 26.117L19.1843 25.8906L19.7431 25.6401L20.2875 25.3606L20.8175 25.0571L21.3282 24.7295L21.8244 24.3778L22.3014 24.002L22.7591 23.607L23.1975 23.1878L23.6166 22.7494L24.0117 22.2917L24.3875 21.8148L24.7391 21.3185L25.0668 20.8079L25.3703 20.2779L25.6497 19.7335L25.9002 19.1746L26.1267 18.6013L26.3242 18.0184L26.4928 17.421L26.6325 16.8139L26.7433 16.1925L26.8252 15.5613L26.8734 14.9206L26.8879 14.2702L26.8782 14.2798ZM26.8782 14.2798C26.8782 13.8173 27.254 13.4415 27.7165 13.4415C28.179 13.4415 28.5548 13.8173 28.5548 14.2798H26.8734H26.8782Z" fill="#002358"/>
<path d="M15.4264 14.9495L17.1897 7.60241L18.8229 7.99265L17.0596 15.3397L15.8408 15.8793L15.4264 14.9447V14.9495ZM17.0596 15.3397C16.9537 15.7926 16.496 16.0672 16.0479 15.9612C15.5951 15.8552 15.3204 15.3975 15.4264 14.9495L17.0596 15.3397ZM12.9019 12.3575L16.6453 14.4051L15.8408 15.8793L12.0974 13.8318L11.9191 12.4876L12.9067 12.3575H12.9019ZM12.0974 13.8318C11.6927 13.6101 11.5433 13.0995 11.7649 12.69C11.9866 12.2853 12.4972 12.1359 12.9067 12.3575L12.1022 13.8318H12.0974ZM18.5869 8.40216L13.0802 13.7017L11.9143 12.4924L17.421 7.1929L18.8229 7.99265L18.5869 8.40216ZM17.421 7.1929C17.7534 6.87011 18.2882 6.87975 18.611 7.21699C18.9338 7.54941 18.9241 8.08418 18.5869 8.40697L17.421 7.19772V7.1929Z" fill="#002358"/>
<path d="M13.1332 13.6101L11.3699 20.9572L9.73667 20.567L11.5 13.2199L12.7189 12.6803L13.1332 13.615V13.6101ZM11.5 13.2199C11.606 12.767 12.0636 12.4924 12.5117 12.5984C12.9646 12.7044 13.2392 13.1621 13.1332 13.6101L11.5 13.2199ZM15.6577 16.2021L11.9143 14.1545L12.7189 12.6803L16.4623 14.7279L16.6405 16.072L15.6529 16.2021H15.6577ZM16.4623 14.7279C16.8669 14.9495 17.0211 15.4602 16.7947 15.8697C16.5731 16.2744 16.0624 16.4285 15.6529 16.2021L16.4574 14.7279H16.4623ZM9.96792 20.1623L15.4746 14.8628L16.6405 16.072L11.1338 21.3715L9.73185 20.5718L9.96792 20.1623ZM11.1338 21.3715C10.8014 21.6943 10.2666 21.6847 9.94383 21.3475C9.62105 21.015 9.63068 20.4803 9.96792 20.1575L11.1338 21.3667V21.3715Z" fill="#002358"/>
</g>
<defs>
<clipPath id="clip0_2788_724">
<rect width="28.5596" height="28.5596" fill="white"/>
</clipPath>
</defs>
</svg>
