<svg width="14" height="17" viewBox="0 0 14 17" fill="none" xmlns="http://www.w3.org/2000/svg">
<path d="M4.15677 13.2174C3.70301 12.4037 3.46303 11.4062 3.46303 10.3262C3.46303 8.51118 5.03427 7.03371 6.96178 7.03371C8.89302 7.03371 10.4605 8.51122 10.4605 10.3262C10.4605 10.5325 10.6293 10.7012 10.8355 10.7012C11.0418 10.7012 11.2106 10.5325 11.2106 10.3262C11.2106 8.09493 9.30554 6.28368 6.96182 6.28368C4.61809 6.28368 2.71301 8.09869 2.71301 10.3262C2.71301 11.5337 2.98677 12.6624 3.50427 13.5849C4.01052 14.4887 4.36303 14.9049 5.01177 15.5612C5.08676 15.6362 5.18052 15.6737 5.27801 15.6737C5.37177 15.6737 5.46926 15.6399 5.53676 15.5612C5.68677 15.4187 5.68677 15.1787 5.54052 15.0324C4.96301 14.4512 4.64052 14.08 4.15677 13.2174ZM2.79176 2.64245C4.07802 1.94119 5.48051 1.58495 6.96927 1.58495C8.46176 1.58495 9.71051 1.90371 11.1468 2.64621C11.203 2.67247 11.2593 2.68745 11.3193 2.68745C11.4543 2.68745 11.5855 2.61246 11.653 2.48495C11.7468 2.30119 11.6755 2.07246 11.4918 1.9787C9.96177 1.18747 8.56677 0.834961 6.96927 0.834961C5.35676 0.834961 3.83052 1.22122 2.43176 1.98246C2.248 2.08371 2.18426 2.30871 2.28175 2.49247C2.383 2.6762 2.608 2.73997 2.79176 2.64245Z" fill="white" stroke="white" stroke-width="0.4"/>
<path d="M6.93528 4.45703C4.51654 4.45703 2.30405 5.81079 1.3028 7.90329C0.961539 8.61204 0.789062 9.42953 0.789062 10.3295C0.789062 11.342 0.969062 12.3095 1.33655 13.2958C1.41154 13.4908 1.62529 13.5883 1.8203 13.517C2.01531 13.442 2.1128 13.2283 2.04154 13.0333C1.59527 11.837 1.54278 10.9145 1.54278 10.3295C1.54278 9.54203 1.68903 8.83328 1.98153 8.22578C2.85903 6.38827 4.80527 5.20329 6.93901 5.20329C9.93527 5.20329 12.3728 7.50205 12.3728 10.3295C12.3728 11.1358 11.6715 11.7883 10.8128 11.7883C9.95404 11.7883 9.25278 11.132 9.25278 10.3295C9.25278 9.11077 8.21778 8.12077 6.94277 8.12077C5.66776 8.12077 4.63276 9.11077 4.63276 10.3295C4.63276 11.8108 5.21027 13.202 6.25652 14.2445C7.06652 15.0508 7.84653 15.4933 9.04276 15.8195C9.07275 15.8308 9.1065 15.8345 9.14025 15.8345C9.30524 15.8345 9.45525 15.7258 9.50025 15.5608C9.5565 15.362 9.43651 15.1558 9.23774 15.0995C8.18024 14.8108 7.49023 14.4208 6.78148 13.7158C5.87772 12.8158 5.37899 11.612 5.37899 10.3333C5.37899 9.52705 6.08025 8.87455 6.93898 8.87455C7.7977 8.87455 8.49896 9.53081 8.49896 10.3333C8.49896 11.552 9.53772 12.542 10.809 12.542C12.0802 12.542 13.119 11.552 13.119 10.3333C13.119 7.09329 10.344 4.45703 6.93528 4.45703Z" fill="white" stroke="white" stroke-width="0.4"/>
<path d="M13.6447 6.00948C12.8985 4.96699 11.9535 4.14947 10.8322 3.57199C8.46975 2.35699 5.45475 2.36076 3.09602 3.57948C1.97102 4.16072 1.02226 4.98573 0.279758 6.03574C0.15977 6.20449 0.201008 6.43698 0.369758 6.557C0.437258 6.602 0.512246 6.6245 0.58727 6.6245C0.703531 6.6245 0.819758 6.57201 0.894781 6.47076C1.56602 5.51828 2.42478 4.77202 3.44104 4.24703C5.58979 3.13704 8.33855 3.13328 10.491 4.23954C11.5035 4.75704 12.3585 5.49954 13.0335 6.44454C13.1535 6.61329 13.3898 6.6508 13.5585 6.53078C13.7273 6.41072 13.7648 6.17823 13.6447 6.00948ZM11.436 13.4645C11.136 13.5169 10.8323 13.5357 10.6523 13.5357C9.9023 13.5357 9.27979 13.3595 8.75104 12.9995C7.83979 12.3807 7.29603 11.3832 7.29603 10.3295C7.29603 10.1232 7.12728 9.95446 6.92101 9.95446C6.71475 9.95446 6.546 10.1232 6.546 10.3295C6.546 11.6345 7.21351 12.8645 8.32726 13.622C8.976 14.0607 9.75977 14.2857 10.6522 14.2857C10.7573 14.2857 11.1285 14.2819 11.5673 14.2032C11.7698 14.1657 11.9085 13.9707 11.871 13.7682C11.8335 13.5657 11.6385 13.427 11.436 13.4645Z" fill="white" stroke="white" stroke-width="0.4"/>
</svg>
