<svg width="40" height="40" viewBox="0 0 40 40" fill="none" xmlns="http://www.w3.org/2000/svg">
<rect width="40" height="40" rx="20" fill="white"/>
<mask id="mask0_34_131" style="mask-type:luminance" maskUnits="userSpaceOnUse" x="9" y="8" width="23" height="23">
<path d="M32 8H9V31H32V8Z" fill="white"/>
</mask>
<g mask="url(#mask0_34_131)">
<path d="M31.7752 17.2473H30.849V17.1996H20.4995V21.7993H26.9984C26.0502 24.477 23.5025 26.3991 20.4995 26.3991C16.6891 26.3991 13.5998 23.3098 13.5998 19.4995C13.5998 15.6891 16.6891 12.5998 20.4995 12.5998C22.2583 12.5998 23.8584 13.2633 25.0768 14.3471L28.3294 11.0945C26.2756 9.18042 23.5284 8 20.4995 8C14.1489 8 9 13.1489 9 19.4995C9 25.85 14.1489 30.9989 20.4995 30.9989C26.85 30.9989 31.9989 25.85 31.9989 19.4995C31.9989 18.7284 31.9196 17.9758 31.7752 17.2473Z" fill="#FFC107"/>
<path d="M10.3203 14.147L14.0985 16.9178C15.1208 14.3868 17.5966 12.5998 20.4939 12.5998C22.2527 12.5998 23.8529 13.2633 25.0712 14.3471L28.3239 11.0945C26.2701 9.18042 23.5228 8 20.4939 8C16.0769 8 12.2465 10.4937 10.3203 14.147Z" fill="#FF3D00"/>
<path d="M20.4913 31.0045C23.4616 31.0045 26.1605 29.8677 28.2011 28.0192L24.642 25.0075C23.4487 25.915 21.9905 26.4059 20.4913 26.4047C17.5003 26.4047 14.9606 24.4975 14.0039 21.8359L10.2539 24.7252C12.1571 28.4493 16.022 31.0045 20.4913 31.0045Z" fill="#4CAF50"/>
<path d="M31.768 17.245H30.8417V17.1973H20.4922V21.797H26.9911C26.5376 23.0714 25.7206 24.185 24.6412 25.0002L24.6429 24.9991L28.202 28.0108C27.9502 28.2396 31.9916 25.2469 31.9916 19.4972C31.9916 18.7261 31.9123 17.9735 31.768 17.245Z" fill="#1976D2"/>
</g>
</svg>
