<svg width="18" height="17" viewBox="0 0 18 17" fill="none" xmlns="http://www.w3.org/2000/svg">
<path d="M16.3281 14.4375H0.890625C0.654417 14.4375 0.427883 14.5313 0.260858 14.6984C0.0938335 14.8654 0 15.0919 0 15.3281C0 15.5643 0.0938335 15.7909 0.260858 15.9579C0.427883 16.1249 0.654417 16.2188 0.890625 16.2188H16.3281C16.5643 16.2188 16.7909 16.1249 16.9579 15.9579C17.1249 15.7909 17.2188 15.5643 17.2188 15.3281C17.2188 15.0919 17.1249 14.8654 16.9579 14.6984C16.7909 14.5313 16.5643 14.4375 16.3281 14.4375Z" fill="#FF0000"/>
<path d="M0.890658 0.78125C1.00764 0.7811 1.1235 0.804067 1.23158 0.84883C1.33966 0.893594 1.43782 0.959271 1.52044 1.04209L6.53128 6.05297L8.57337 4.01084C8.65608 3.92813 8.75426 3.86253 8.86232 3.81777C8.97038 3.77301 9.08619 3.74997 9.20316 3.74997C9.32012 3.74997 9.43594 3.77301 9.544 3.81777C9.65205 3.86253 9.75024 3.92813 9.83294 4.01084L15.4372 9.6151L15.4369 7.60938C15.4369 7.37317 15.5307 7.14663 15.6977 6.97961C15.8647 6.81258 16.0913 6.71875 16.3275 6.71875C16.5637 6.71875 16.7902 6.81258 16.9573 6.97961C17.1243 7.14663 17.2181 7.37317 17.2181 7.60938L17.2188 11.7656C17.2188 12.0018 17.1249 12.2284 16.9579 12.3954C16.7909 12.5624 16.5644 12.6562 16.3282 12.6562H12.1719C11.9357 12.6562 11.7092 12.5624 11.5421 12.3954C11.3751 12.2284 11.2813 12.0018 11.2813 11.7656C11.2813 11.5294 11.3751 11.3029 11.5421 11.1359C11.7092 10.9688 11.9357 10.875 12.1719 10.875H14.178L9.20316 5.90015L7.16107 7.94228C7.07836 8.02499 6.98018 8.0906 6.87212 8.13536C6.76406 8.18012 6.64825 8.20316 6.53128 8.20316C6.41432 8.20316 6.2985 8.18012 6.19044 8.13536C6.08239 8.0906 5.9842 8.02499 5.9015 7.94228L0.260875 2.30166C0.136312 2.1771 0.0514829 2.0184 0.0171153 1.84564C-0.0172524 1.67287 0.000385009 1.49379 0.067797 1.33104C0.135209 1.1683 0.249368 1.0292 0.395836 0.931337C0.542305 0.833475 0.714504 0.781243 0.890658 0.78125Z" fill="#FF0000"/>
</svg>
