<svg width="19" height="19" viewBox="0 0 19 19" fill="none" xmlns="http://www.w3.org/2000/svg">
<path d="M1.78128 13.6562C1.89826 13.6564 2.01412 13.6334 2.1222 13.5887C2.23028 13.5439 2.32845 13.4782 2.41107 13.3954L7.42191 8.38453L9.464 10.4267C9.5467 10.5094 9.64489 10.575 9.75294 10.6197C9.861 10.6645 9.97682 10.6875 10.0938 10.6875C10.2107 10.6875 10.3266 10.6645 10.4346 10.6197C10.5427 10.575 10.6409 10.5094 10.7236 10.4267L16.3278 4.8224L16.3275 6.82812C16.3275 7.06433 16.4213 7.29087 16.5883 7.45789C16.7554 7.62492 16.9819 7.71875 17.2181 7.71875C17.4543 7.71875 17.6809 7.62492 17.8479 7.45789C18.0149 7.29087 18.1087 7.06433 18.1087 6.82812L18.1094 2.67188C18.1094 2.43567 18.0156 2.20913 17.8485 2.04211C17.6815 1.87508 17.455 1.78125 17.2188 1.78125H13.0625C12.8263 1.78125 12.5998 1.87508 12.4328 2.04211C12.2657 2.20913 12.1719 2.43567 12.1719 2.67188C12.1719 2.90808 12.2657 3.13462 12.4328 3.30164C12.5998 3.46867 12.8263 3.5625 13.0625 3.5625H15.0686L10.0938 8.53735L8.05169 6.49522C7.96899 6.41251 7.8708 6.3469 7.76275 6.30214C7.65469 6.25738 7.53887 6.23434 7.42191 6.23434C7.30495 6.23434 7.18913 6.25738 7.08107 6.30214C6.97301 6.3469 6.87483 6.41251 6.79212 6.49522L1.1515 12.1358C1.02694 12.2604 0.942108 12.4191 0.90774 12.5919C0.873373 12.7646 0.89101 12.9437 0.958422 13.1065C1.02583 13.2692 1.13999 13.4083 1.28646 13.5062C1.43293 13.604 1.60513 13.6563 1.78128 13.6562ZM17.2188 15.4375H1.78128C1.54507 15.4375 1.31854 15.5313 1.15152 15.6984C0.984491 15.8654 0.890658 16.0919 0.890658 16.3281C0.890658 16.5643 0.984491 16.7909 1.15152 16.9579C1.31854 17.1249 1.54507 17.2188 1.78128 17.2188H17.2188C17.455 17.2188 17.6815 17.1249 17.8485 16.9579C18.0156 16.7909 18.1094 16.5643 18.1094 16.3281C18.1094 16.0919 18.0156 15.8654 17.8485 15.6984C17.6815 15.5313 17.455 15.4375 17.2188 15.4375Z" fill="#3CD742"/>
</svg>
