<svg width="23" height="17" viewBox="0 0 23 17" fill="none" xmlns="http://www.w3.org/2000/svg">
<path d="M22.2196 7.74987L15.1507 0.680938C14.9602 0.496986 14.7051 0.395198 14.4403 0.397499C14.1756 0.3998 13.9223 0.506005 13.735 0.693239C13.5478 0.880473 13.4416 1.13375 13.4393 1.39853C13.437 1.66331 13.5388 1.9184 13.7227 2.10886L19.0679 7.45399H1.30868C1.04085 7.45399 0.783989 7.56038 0.594606 7.74976C0.405222 7.93915 0.298828 8.196 0.298828 8.46383C0.298828 8.73166 0.405222 8.98852 0.594606 9.1779C0.783989 9.36729 1.04085 9.47368 1.30868 9.47368H19.0679L13.7227 14.8188C13.6263 14.912 13.5493 15.0234 13.4964 15.1466C13.4435 15.2698 13.4156 15.4023 13.4145 15.5364C13.4133 15.6705 13.4389 15.8035 13.4896 15.9276C13.5404 16.0517 13.6154 16.1644 13.7102 16.2592C13.805 16.3541 13.9178 16.429 14.0419 16.4798C14.166 16.5306 14.299 16.5562 14.4331 16.555C14.5671 16.5538 14.6997 16.526 14.8229 16.473C14.9461 16.4201 15.0575 16.3432 15.1507 16.2467L22.2196 9.1778C22.4089 8.98842 22.5153 8.73161 22.5153 8.46383C22.5153 8.19606 22.4089 7.93925 22.2196 7.74987Z" fill="#363636"/>
</svg>
