<svg width="18" height="18" viewBox="0 0 18 18" fill="none" xmlns="http://www.w3.org/2000/svg">
<path d="M9.03027 0.695312C4.41786 0.695312 0.665039 4.44814 0.665039 9.06055C0.665039 13.673 4.41786 17.4258 9.03027 17.4258C13.6427 17.4258 17.3955 13.673 17.3955 9.06055C17.3955 4.44814 13.6427 0.695312 9.03027 0.695312ZM13.7056 6.85917L8.35938 12.1634C8.0449 12.4779 7.54172 12.4989 7.20627 12.1844L4.37593 9.60565C4.04048 9.29117 4.01952 8.76703 4.31304 8.43158C4.62752 8.09613 5.15166 8.07517 5.4871 8.38965L7.73041 10.4443L12.5105 5.66414C12.846 5.32869 13.3701 5.32869 13.7056 5.66414C14.041 5.99958 14.041 6.52372 13.7056 6.85917Z" fill="#676767"/>
</svg>
