<svg width="512" height="513" viewBox="0 0 512 513" fill="none" xmlns="http://www.w3.org/2000/svg">
<path d="M256 512.165C397.385 512.165 512 397.55 512 256.165C512 114.781 397.385 0.165405 256 0.165405C114.615 0.165405 0 114.781 0 256.165C0 397.55 114.615 512.165 256 512.165Z" fill="#123BCE"/>
<path d="M512 256.165C512 115.331 396.832 0.165405 256 0.165405V512.165C396.832 512.165 512 396.997 512 256.165Z" fill="#1131A3"/>
<path d="M256 451.165C363.696 451.165 451 363.861 451 256.165C451 148.47 363.696 61.1654 256 61.1654C148.304 61.1654 61 148.47 61 256.165C61 363.861 148.304 451.165 256 451.165Z" fill="#1131A3"/>
<path d="M451 256.165C451 148.645 363.52 61.1654 256 61.1654V451.165C363.52 451.165 451 363.685 451 256.165Z" fill="#123BCE"/>
<path d="M384.394 214.446C383.528 211.784 381.935 209.417 379.794 207.612C377.653 205.808 375.051 204.639 372.28 204.236L301.235 193.909L269.448 129.529C266.928 124.402 261.465 121.839 256.001 121.839C250.537 121.839 245.073 124.402 242.554 129.529L210.767 193.909L139.722 204.236C136.953 204.638 134.352 205.805 132.211 207.607C130.071 209.408 128.476 211.772 127.608 214.431C126.744 217.094 126.642 219.945 127.312 222.663C127.982 225.381 129.399 227.857 131.402 229.812L182.818 279.939L170.689 350.706C170.215 353.463 170.523 356.298 171.577 358.889C172.63 361.48 174.388 363.725 176.651 365.369C181.311 368.753 187.445 369.161 192.442 366.512L256 333.113L319.56 366.511C324.599 369.177 330.751 368.752 335.351 365.368C337.614 363.724 339.371 361.479 340.425 358.888C341.479 356.297 341.786 353.462 341.313 350.705L329.169 279.938L380.6 229.811C382.601 227.858 384.017 225.385 384.688 222.67C385.358 219.955 385.256 217.107 384.394 214.446Z" fill="white"/>
<path d="M335.352 365.369C337.615 363.725 339.373 361.48 340.426 358.889C341.48 356.298 341.787 353.463 341.314 350.706L329.17 279.939L380.601 229.812C382.603 227.859 384.019 225.386 384.689 222.67C385.36 219.955 385.258 217.107 384.395 214.446C383.529 211.784 381.936 209.417 379.795 207.612C377.655 205.808 375.052 204.639 372.281 204.236L301.236 193.909L269.449 129.529C266.929 124.402 261.466 121.839 256.002 121.839V333.113L319.562 366.511C324.6 369.178 330.752 368.753 335.352 365.369Z" fill="#E3E3E3"/>
</svg>
