<svg width="18" height="18" viewBox="0 0 18 18" fill="none" xmlns="http://www.w3.org/2000/svg">
<path d="M7.75596 2.91628C7.75596 2.00089 8.50069 1.25616 9.41608 1.25616H9.99061L9.81729 0.774395C9.71985 0.503463 9.46452 0.334961 9.19239 0.334961C9.11699 0.334961 9.04029 0.34791 8.96532 0.375202L3.15978 2.48824C2.81464 2.61388 2.63701 2.9958 2.76337 3.34068L3.07013 4.17798H7.75596V2.91628Z" fill="#71727D"/>
<path d="M9.41974 2.25281C9.05299 2.25281 8.75569 2.5501 8.75569 2.91686V4.17855H14.5661V2.91686C14.5661 2.5501 14.2688 2.25281 13.9021 2.25281H9.41974ZM16.3258 13.7574H14.0017C12.6286 13.7574 11.5115 12.6404 11.5115 11.2673C11.5115 9.89418 12.6286 8.77708 14.0017 8.77708H16.3258V6.50272C16.3258 5.76924 15.7312 5.17462 14.9977 5.17462H2.14841C1.41493 5.17462 0.820312 5.76924 0.820312 6.50272V16.0071C0.820312 16.7406 1.41493 17.3352 2.14841 17.3352H14.9977C15.7312 17.3352 16.3258 16.7406 16.3258 16.0071V13.7574Z" fill="#71727D"/>
<path d="M17.3144 9.77344H13.9941C13.1703 9.77344 12.5 10.4437 12.5 11.2675C12.5 12.0914 13.1703 12.7617 13.9941 12.7617H17.3144C17.589 12.7617 17.8124 12.5382 17.8124 12.2636V10.2715C17.8124 9.99686 17.589 9.77344 17.3144 9.77344ZM13.9941 11.7656C13.7191 11.7656 13.4961 11.5426 13.4961 11.2675C13.4961 10.9925 13.7191 10.7695 13.9941 10.7695C14.2692 10.7695 14.4921 10.9925 14.4921 11.2675C14.4921 11.5426 14.2692 11.7656 13.9941 11.7656Z" fill="#71727D"/>
</svg>
