<svg width="14" height="14" viewBox="0 0 14 14" fill="none" xmlns="http://www.w3.org/2000/svg">
<path opacity="0.6" d="M6.78349 0.288574C5.46495 0.288574 4.17602 0.679567 3.07969 1.41211C1.98336 2.14465 1.12888 3.18584 0.624294 4.40402C0.11971 5.62219 -0.0123124 6.96264 0.244922 8.25584C0.502157 9.54905 1.1371 10.7369 2.06945 11.6693C3.0018 12.6016 4.18968 13.2366 5.48289 13.4938C6.7761 13.751 8.11654 13.619 9.33471 13.1144C10.5529 12.6099 11.5941 11.7554 12.3266 10.659C13.0592 9.56271 13.4502 8.27378 13.4502 6.95524C13.4482 5.18773 12.7452 3.49318 11.4954 2.24337C10.2455 0.99355 8.551 0.29054 6.78349 0.288574ZM6.78349 12.2886C5.72866 12.2886 4.69751 11.9758 3.82045 11.3897C2.94339 10.8037 2.2598 9.97076 1.85613 8.99622C1.45247 8.02168 1.34685 6.94932 1.55264 5.91476C1.75842 4.88019 2.26637 3.92988 3.01225 3.184C3.75813 2.43812 4.70844 1.93017 5.74301 1.72439C6.77758 1.5186 7.84993 1.62422 8.82447 2.02788C9.79901 2.43155 10.632 3.11514 11.218 3.9922C11.804 4.86926 12.1168 5.90041 12.1168 6.95524C12.1152 8.36923 11.5528 9.72484 10.5529 10.7247C9.5531 11.7245 8.19748 12.287 6.78349 12.2886ZM6.78349 6.62191C6.60668 6.62191 6.43711 6.69215 6.31209 6.81717C6.18706 6.94219 6.11682 7.11176 6.11682 7.28857V9.28857C6.11682 9.46538 6.18706 9.63495 6.31209 9.75998C6.43711 9.885 6.60668 9.95524 6.78349 9.95524C6.9603 9.95524 7.12987 9.885 7.2549 9.75998C7.37992 9.63495 7.45016 9.46538 7.45016 9.28857V7.28857C7.45016 7.11176 7.37992 6.94219 7.2549 6.81717C7.12987 6.69215 6.9603 6.62191 6.78349 6.62191ZM6.78349 3.95524C6.61867 3.95524 6.45756 4.00411 6.32052 4.09568C6.18348 4.18725 6.07666 4.3174 6.01359 4.46967C5.95052 4.62194 5.93402 4.7895 5.96617 4.95115C5.99832 5.1128 6.07769 5.26129 6.19424 5.37783C6.31078 5.49437 6.45927 5.57374 6.62092 5.6059C6.78257 5.63805 6.95012 5.62155 7.10239 5.55847C7.25467 5.4954 7.38481 5.38859 7.47638 5.25155C7.56795 5.11451 7.61682 4.95339 7.61682 4.78857C7.61682 4.56756 7.52903 4.3556 7.37275 4.19932C7.21647 4.04304 7.00451 3.95524 6.78349 3.95524Z" fill="#264D89"/>
</svg>
