<svg width="18" height="18" viewBox="0 0 18 18" fill="none" xmlns="http://www.w3.org/2000/svg">
<circle cx="9" cy="9" r="9" fill="url(#paint0_radial_59_22)"/>
<circle cx="9" cy="9" r="9" fill="url(#paint1_radial_59_22)"/>
<path d="M9.00014 3.97876C7.63649 3.97876 7.46532 3.98473 6.92976 4.00909C6.3952 4.03359 6.03032 4.1182 5.71107 4.24237C5.38078 4.37061 5.10065 4.54219 4.82157 4.82136C4.54224 5.10049 4.37067 5.38062 4.24203 5.71076C4.1175 6.03011 4.03279 6.39515 4.00874 6.92945C3.98479 7.46506 3.97852 7.63628 3.97852 8.99998C3.97852 10.3637 3.98454 10.5343 4.00884 11.0699C4.03345 11.6044 4.11805 11.9693 4.24213 12.2885C4.37047 12.6188 4.54204 12.899 4.82122 13.178C5.10024 13.4574 5.38038 13.6293 5.71042 13.7576C6.02991 13.8818 6.39485 13.9664 6.92931 13.9909C7.46491 14.0152 7.63593 14.0212 8.99953 14.0212C10.3633 14.0212 10.534 14.0152 11.0695 13.9909C11.6041 13.9664 11.9694 13.8818 12.2889 13.7576C12.619 13.6293 12.8987 13.4574 13.1777 13.178C13.457 12.899 13.6285 12.6188 13.7572 12.2887C13.8807 11.9693 13.9654 11.6043 13.9905 11.07C14.0146 10.5344 14.0209 10.3637 14.0209 8.99998C14.0209 7.63628 14.0146 7.46516 13.9905 6.92955C13.9654 6.395 13.8807 6.03016 13.7572 5.71091C13.6285 5.38062 13.457 5.10049 13.1777 4.82136C12.8984 4.54208 12.6191 4.37051 12.2885 4.24242C11.9685 4.1182 11.6034 4.03354 11.0688 4.00909C10.5332 3.98473 10.3627 3.97876 8.99858 3.97876H9.00014ZM8.54969 4.88362C8.6834 4.88342 8.83258 4.88362 9.00014 4.88362C10.3408 4.88362 10.4997 4.88844 11.0291 4.9125C11.5187 4.93489 11.7844 5.01669 11.9614 5.08543C12.1958 5.17641 12.3628 5.28522 12.5385 5.46101C12.7142 5.63675 12.823 5.80411 12.9142 6.03844C12.9829 6.21519 13.0648 6.48091 13.0871 6.97047C13.1112 7.4998 13.1164 7.65877 13.1164 8.99882C13.1164 10.3389 13.1112 10.4979 13.0871 11.0272C13.0647 11.5167 12.9829 11.7825 12.9142 11.9593C12.8232 12.1936 12.7142 12.3604 12.5385 12.5361C12.3627 12.7118 12.1959 12.8206 11.9614 12.9116C11.7846 12.9807 11.5187 13.0623 11.0291 13.0846C10.4998 13.1087 10.3408 13.1139 9.00014 13.1139C7.65938 13.1139 7.50046 13.1087 6.97118 13.0846C6.48162 13.0621 6.2159 12.9803 6.03875 12.9115C5.80446 12.8205 5.63706 12.7117 5.46132 12.536C5.28558 12.3602 5.17682 12.1933 5.08558 11.9589C5.01684 11.7821 4.93495 11.5163 4.91265 11.0268C4.8886 10.4974 4.88378 10.3385 4.88378 8.99757C4.88378 7.65672 4.8886 7.49855 4.91265 6.96922C4.93505 6.47965 5.01684 6.21393 5.08558 6.03694C5.17662 5.8026 5.28558 5.63524 5.46137 5.4595C5.63711 5.28376 5.80446 5.17495 6.0388 5.08377C6.2158 5.01473 6.48162 4.93313 6.97118 4.91064C7.43439 4.8897 7.61389 4.88342 8.54969 4.88237V4.88362ZM11.6804 5.71734C11.3478 5.71734 11.0779 5.98698 11.0779 6.31968C11.0779 6.65233 11.3478 6.92222 11.6804 6.92222C12.0131 6.92222 12.283 6.65233 12.283 6.31968C12.283 5.98703 12.0131 5.71714 11.6804 5.71714V5.71734ZM9.00014 6.42136C7.57613 6.42136 6.42157 7.57593 6.42157 8.99998C6.42157 10.424 7.57613 11.578 9.00014 11.578C10.4242 11.578 11.5784 10.424 11.5784 8.99998C11.5784 7.57598 10.4241 6.42136 9.00004 6.42136H9.00014ZM9.00014 7.32622C9.92448 7.32622 10.6739 8.07553 10.6739 8.99998C10.6739 9.92433 9.92448 10.6737 9.00014 10.6737C8.07574 10.6737 7.32643 9.92433 7.32643 8.99998C7.32643 8.07553 8.07574 7.32622 9.00014 7.32622Z" fill="white"/>
<defs>
<radialGradient id="paint0_radial_59_22" cx="0" cy="0" r="1" gradientUnits="userSpaceOnUse" gradientTransform="translate(4.78125 19.3864) rotate(-90) scale(17.8393 16.592)">
<stop stop-color="#FFDD55"/>
<stop offset="0.1" stop-color="#FFDD55"/>
<stop offset="0.5" stop-color="#FF543E"/>
<stop offset="1" stop-color="#C837AB"/>
</radialGradient>
<radialGradient id="paint1_radial_59_22" cx="0" cy="0" r="1" gradientUnits="userSpaceOnUse" gradientTransform="translate(-3.01507 1.29663) rotate(78.681) scale(7.97428 32.8702)">
<stop stop-color="#3771C8"/>
<stop offset="0.128" stop-color="#3771C8"/>
<stop offset="1" stop-color="#6600FF" stop-opacity="0"/>
</radialGradient>
</defs>
</svg>
