<svg width="44" height="44" viewBox="0 0 44 44" fill="none" xmlns="http://www.w3.org/2000/svg">
<circle cx="21.5562" cy="21.7452" r="21" fill="#EDF4FF" stroke="#0066FF"/>
<path d="M25.5562 14.2452C25.5562 13.9691 25.78 13.7452 26.0562 13.7452C26.3323 13.7452 26.5562 13.9691 26.5562 14.2452H25.5562ZM26.4097 29.5988C26.2144 29.7941 25.8979 29.7941 25.7026 29.5988L22.5206 26.4168C22.3254 26.2216 22.3254 25.905 22.5206 25.7097C22.7159 25.5144 23.0325 25.5144 23.2277 25.7097L26.0562 28.5381L28.8846 25.7097C29.0798 25.5144 29.3964 25.5144 29.5917 25.7097C29.7869 25.905 29.7869 26.2216 29.5917 26.4168L26.4097 29.5988ZM26.5562 14.2452L26.5562 29.2452H25.5562L25.5562 14.2452H26.5562Z" fill="#0066FF"/>
<path d="M17.5562 29.2452C17.5562 29.5214 17.3323 29.7452 17.0562 29.7452C16.78 29.7452 16.5562 29.5214 16.5562 29.2452H17.5562ZM16.7026 13.8917C16.8979 13.6964 17.2144 13.6964 17.4097 13.8917L20.5917 17.0737C20.7869 17.2689 20.7869 17.5855 20.5917 17.7808C20.3964 17.976 20.0798 17.976 19.8846 17.7808L17.0562 14.9523L14.2277 17.7808C14.0325 17.976 13.7159 17.976 13.5206 17.7808C13.3254 17.5855 13.3254 17.2689 13.5206 17.0737L16.7026 13.8917ZM16.5562 29.2452L16.5562 14.2452H17.5562L17.5562 29.2452H16.5562Z" fill="#0066FF"/>
</svg>
