<svg width="17" height="18" viewBox="0 0 17 18" fill="none" xmlns="http://www.w3.org/2000/svg">
<path d="M13.75 1.79988H12.8333V0.899869C12.8333 0.661196 12.7367 0.432311 12.5648 0.263557C12.3929 0.094803 12.1598 0 11.9167 0C11.6736 0 11.4404 0.094803 11.2685 0.263557C11.0966 0.432311 11 0.661196 11 0.899869V1.79988H5.5V0.899869C5.49996 0.661196 5.40337 0.432311 5.23147 0.263557C5.05956 0.094803 4.82643 0 4.58333 0C4.34024 0 4.10711 0.094803 3.9352 0.263557C3.7633 0.432311 3.6667 0.661196 3.66667 0.899869V1.79988H2.75C2.02066 1.79988 1.32118 2.08434 0.805456 2.59069C0.289731 3.09705 0 3.78381 0 4.4999V15.3C0 16.0161 0.289731 16.7028 0.805456 17.2092C1.32118 17.7155 2.02066 18 2.75 18H13.75C14.4793 18 15.1788 17.7155 15.6945 17.2092C16.2103 16.7028 16.5 16.0161 16.5 15.3V4.4999C16.5 3.78381 16.2103 3.09705 15.6945 2.59069C15.1788 2.08434 14.4793 1.79988 13.75 1.79988ZM4.58333 13.5C4.40204 13.5 4.22481 13.4472 4.07406 13.3483C3.92332 13.2494 3.80582 13.1088 3.73644 12.9444C3.66706 12.7799 3.64891 12.599 3.68428 12.4244C3.71965 12.2498 3.80696 12.0894 3.93515 11.9636C4.06335 11.8377 4.22669 11.752 4.4045 11.7172C4.58232 11.6825 4.76663 11.7003 4.93413 11.7685C5.10163 11.8366 5.24479 11.9519 5.34551 12.0999C5.44624 12.2479 5.5 12.422 5.5 12.6C5.5 12.8387 5.40342 13.0676 5.23152 13.2364C5.05961 13.4051 4.82645 13.5 4.58333 13.5ZM11.9167 13.5H8.25C8.00691 13.4999 7.77379 13.4051 7.60191 13.2363C7.43003 13.0675 7.33348 12.8386 7.33348 12.6C7.33348 12.3613 7.43003 12.1324 7.60191 11.9636C7.77379 11.7948 8.00691 11.7 8.25 11.7H11.9167C12.1598 11.7 12.3929 11.7948 12.5648 11.9636C12.7366 12.1324 12.8332 12.3613 12.8332 12.6C12.8332 12.8386 12.7366 13.0675 12.5648 13.2363C12.3929 13.4051 12.1598 13.4999 11.9167 13.5ZM14.6667 8.09992H1.83333V4.4999C1.83333 4.2612 1.92991 4.03228 2.10182 3.8635C2.27373 3.69471 2.50689 3.59989 2.75 3.59989H3.66667V4.4999C3.6667 4.73857 3.7633 4.96745 3.9352 5.13621C4.10711 5.30496 4.34024 5.39977 4.58333 5.39977C4.82643 5.39977 5.05956 5.30496 5.23147 5.13621C5.40337 4.96745 5.49996 4.73857 5.5 4.4999V3.59989H11V4.4999C11 4.73857 11.0966 4.96745 11.2685 5.13621C11.4404 5.30496 11.6736 5.39977 11.9167 5.39977C12.1598 5.39977 12.3929 5.30496 12.5648 5.13621C12.7367 4.96745 12.8333 4.73857 12.8333 4.4999V3.59989H13.75C13.9931 3.59989 14.2263 3.69471 14.3982 3.8635C14.5701 4.03228 14.6667 4.2612 14.6667 4.4999V8.09992Z" fill="#7D8DA8"/>
</svg>
