<svg width="26" height="25" viewBox="0 0 26 25" fill="none" xmlns="http://www.w3.org/2000/svg">
<path d="M18.5514 15.8538C15.8834 18.4904 12.9308 20.3493 10.2572 21.2815C10.1009 21.3366 9.92228 21.2925 9.80507 21.1767L4.63092 16.0634C4.51371 15.9475 4.46905 15.7765 4.52487 15.6166C5.46816 12.9689 7.34916 10.051 10.0172 7.41432C12.5624 4.89904 15.3699 3.0898 17.9542 2.11899C19.8687 1.40191 21.6213 1.15369 23.039 1.39088C23.8595 1.52878 24.5182 2.17966 24.6577 2.99051C24.8977 4.39157 24.6465 6.11807 23.9209 8.01556C22.9386 10.5639 21.1078 13.3385 18.5626 15.8593L18.5514 15.8538Z" stroke="#264D89"/>
<path d="M0.63436 13.7358C2.14139 11.0054 5.0215 9.11891 8.35372 8.99756C7.18158 10.4372 6.21596 11.9155 5.49594 13.3662C5.01592 13.2945 4.52474 13.2559 4.02239 13.2559C2.85584 13.2559 1.73952 13.4545 0.70134 13.8185C0.651105 13.8351 0.612034 13.7854 0.63436 13.7413V13.7358Z" stroke="#264D89"/>
<path d="M16.821 17.4533C16.821 20.2002 15.5819 22.6769 13.606 24.3482C13.4107 24.5137 13.1037 24.3538 13.1372 24.1C13.2153 23.5429 13.2432 22.9692 13.2209 22.3846C13.193 21.6399 13.0702 20.9173 12.886 20.2278C14.2032 19.4887 15.5317 18.5565 16.8154 17.4478L16.821 17.4533Z" stroke="#264D89"/>
<path d="M15.0517 13.6472C16.6034 13.6472 17.8592 12.4061 17.8592 10.8727C17.8592 9.33924 16.6034 8.09814 15.0517 8.09814C13.5 8.09814 12.2441 9.33924 12.2441 10.8727C12.2441 12.4061 13.5 13.6472 15.0517 13.6472Z" fill="#264D89"/>
<path d="M24.5905 2.71488C25.0147 4.62341 24.4789 7.18834 23.0277 9.93529L15.9949 2.99068C18.7689 1.55653 21.37 1.027 23.3012 1.44069C23.9487 1.57859 24.451 2.07503 24.5905 2.71488Z" stroke="#264D89"/>
<path d="M3.48641 22.815C3.33571 22.8371 3.20175 22.8481 3.07337 22.8481C2.74964 22.8481 2.4873 22.5944 2.4873 22.269C2.4873 22.1476 2.49847 22.0097 2.52079 21.8608C2.59336 21.3974 2.76638 20.8569 3.0343 20.2777C3.55897 19.1359 4.41854 17.9113 5.40648 16.9185L8.48195 19.9578C7.48284 20.9341 6.23814 21.7835 5.08275 22.302C4.49668 22.5668 3.94968 22.7378 3.48083 22.8095L3.48641 22.815Z" stroke="#264D89"/>
</svg>
