<svg width="33" height="33" viewBox="0 0 33 33" fill="none" xmlns="http://www.w3.org/2000/svg">
<circle cx="16.3688" cy="16.2726" r="15" fill="#4FD154" fill-opacity="0.2" stroke="#16C784" stroke-width="2"/>
<path d="M12.0092 15.3915L8.6772 15.4847C8.58883 15.4872 8.50506 15.5246 8.44432 15.5889C8.38358 15.6531 8.35085 15.7388 8.35332 15.8272L8.577 23.8241C8.57948 23.9125 8.61695 23.9962 8.68119 24.057C8.74542 24.1177 8.83116 24.1504 8.91953 24.148L12.2516 24.0548C12.3399 24.0523 12.4237 24.0148 12.4844 23.9506C12.5452 23.8864 12.5779 23.8006 12.5754 23.7122L12.3518 15.7154C12.3493 15.627 12.3118 15.5432 12.2476 15.4825C12.1833 15.4218 12.0976 15.389 12.0092 15.3915ZM24.3471 15.3798C24.3214 14.4615 23.5528 13.7347 22.6344 13.7604L18.4394 13.8778C18.6254 13.253 18.9202 12.109 18.8947 11.1973C18.8542 9.7519 17.5919 8.56606 16.8209 8.58763C16.1285 8.607 15.6449 9.01001 15.624 9.02727C15.5861 9.05978 15.5558 9.10036 15.5355 9.14603C15.5152 9.19171 15.5054 9.24135 15.5067 9.29132L15.5699 11.5504L13.767 15.7632L13.213 16.0594C13.1585 16.0888 13.1131 16.1328 13.082 16.1864C13.0509 16.24 13.0352 16.3012 13.0368 16.3631L13.2046 22.3608C13.207 22.4494 13.2447 22.5331 13.3085 22.594C13.8215 23.0785 14.9485 23.3124 15.5649 23.2952L21.7292 23.1227C21.9842 23.1152 22.2331 23.0428 22.4523 22.9123C22.6716 22.7819 22.854 22.5977 22.9823 22.3772C23.1106 22.1567 23.1806 21.9071 23.1857 21.652C23.1908 21.397 23.1308 21.1448 23.0114 20.9194C23.3595 20.7322 23.6191 20.4148 23.7335 20.0365C23.848 19.6583 23.8078 19.2502 23.6219 18.9015C23.8656 18.7705 24.0682 18.5743 24.2069 18.3349C24.3457 18.0955 24.4151 17.8223 24.4076 17.5457C24.3965 17.1458 24.2267 16.7764 23.9451 16.5082C24.2133 16.1992 24.3588 15.8003 24.3471 15.3798Z" fill="#16C784"/>
</svg>
