<svg width="38" height="38" viewBox="0 0 38 38" fill="none" xmlns="http://www.w3.org/2000/svg">
<circle cx="19.3765" cy="19.054" r="18.4016" fill="#264D89"/>
<path d="M13.173 14.8099C14.2421 14.8099 15.1087 13.9432 15.1087 12.8742C15.1087 11.8051 14.2421 10.9385 13.173 10.9385C12.104 10.9385 11.2373 11.8051 11.2373 12.8742C11.2373 13.9432 12.104 14.8099 13.173 14.8099Z" fill="white"/>
<path d="M16.9365 16.2768V27.0161H20.2709V21.7052C20.2709 20.3039 20.5345 18.9468 22.2721 18.9468C23.9857 18.9468 24.0069 20.5489 24.0069 21.7937V27.0169H27.3431V21.1275C27.3431 18.2346 26.7203 16.0114 23.339 16.0114C21.7156 16.0114 20.6274 16.9022 20.1824 17.7454H20.1373V16.2768H16.9365ZM11.5027 16.2768H14.8424V27.0161H11.5027V16.2768Z" fill="white"/>
</svg>
