<svg width="23" height="23" viewBox="0 0 23 23" fill="none" xmlns="http://www.w3.org/2000/svg">
<g clip-path="url(#clip0_2427_3845)">
<path d="M22.7752 9.24729H21.849V9.19956H11.4995V13.7993H17.9984C17.0502 16.477 14.5025 18.3991 11.4995 18.3991C7.68911 18.3991 4.59978 15.3098 4.59978 11.4995C4.59978 7.68911 7.68911 4.59978 11.4995 4.59978C13.2583 4.59978 14.8584 5.2633 16.0768 6.34712L19.3294 3.0945C17.2756 1.18042 14.5284 0 11.4995 0C5.14888 0 0 5.14888 0 11.4995C0 17.85 5.14888 22.9989 11.4995 22.9989C17.85 22.9989 22.9989 17.85 22.9989 11.4995C22.9989 10.7284 22.9196 9.97578 22.7752 9.24729Z" fill="#FFC107"/>
<path d="M1.32031 6.14704L5.09846 8.91783C6.12076 6.3868 8.59659 4.59978 11.4939 4.59978C13.2527 4.59978 14.8529 5.2633 16.0712 6.34713L19.3239 3.0945C17.2701 1.18042 14.5228 0 11.4939 0C7.07694 0 3.24647 2.49366 1.32031 6.14704Z" fill="#FF3D00"/>
<path d="M11.4913 23.0045C14.4616 23.0045 17.1605 21.8677 19.2011 20.0192L15.642 17.0075C14.4487 17.915 12.9905 18.4059 11.4913 18.4047C8.50029 18.4047 5.96063 16.4975 5.00388 13.8359L1.25391 16.7252C3.15707 20.4493 7.02203 23.0045 11.4913 23.0045Z" fill="#4CAF50"/>
<path d="M22.768 9.24499H21.8417V9.19727H11.4922V13.797H17.9911C17.5376 15.0714 16.7206 16.185 15.6412 17.0002L15.6429 16.9991L19.202 20.0108C18.9502 20.2396 22.9916 17.2469 22.9916 11.4972C22.9916 10.7261 22.9123 9.97348 22.768 9.24499Z" fill="#1976D2"/>
</g>
<defs>
<clipPath id="clip0_2427_3845">
<rect width="23" height="23" fill="white"/>
</clipPath>
</defs>
</svg>
