<svg width="23" height="23" viewBox="0 0 23 23" fill="none" xmlns="http://www.w3.org/2000/svg">
<g clip-path="url(#clip0_2427_3840)">
<path d="M23 3.43585C22.1387 3.84224 21.2252 4.10899 20.2898 4.22724C21.2641 3.60523 22.0123 2.62025 22.3645 1.44666C21.4383 2.0321 20.4249 2.44458 19.3682 2.66628C18.5074 1.68953 17.2811 1.0791 15.9238 1.0791C13.3178 1.0791 11.205 3.32944 11.205 6.10494C11.205 6.49891 11.2467 6.88245 11.3271 7.25039C7.40546 7.04073 3.92851 5.03987 1.60111 1.9991C1.19501 2.7414 0.962316 3.60484 0.962316 4.5258C0.962316 6.26953 1.79544 7.80781 3.06152 8.70915C2.31217 8.68415 1.57932 8.46859 0.924133 8.08044C0.923863 8.1015 0.923863 8.12255 0.923863 8.1437C0.923863 10.5788 2.55039 12.6102 4.70898 13.0719C4.01412 13.2732 3.28525 13.3027 2.57807 13.1581C3.17849 15.1548 4.92119 16.6078 6.98598 16.6485C5.37104 17.9964 3.33635 18.8 1.12565 18.8C0.744715 18.8 0.369168 18.7761 0 18.7297C2.08824 20.1558 4.56855 20.9878 7.23332 20.9878C15.9129 20.9878 20.659 13.3293 20.659 6.68781C20.659 6.46982 20.6545 6.25307 20.6454 6.03757C21.5692 5.32626 22.3665 4.44524 23 3.43585Z" fill="#55ACEE"/>
</g>
<defs>
<clipPath id="clip0_2427_3840">
<rect width="23" height="20" fill="white" transform="translate(0 1)"/>
</clipPath>
</defs>
</svg>
