<svg width="23" height="23" viewBox="0 0 23 23" fill="none" xmlns="http://www.w3.org/2000/svg">
<g clip-path="url(#clip0_2427_3812)">
<path d="M22.4667 0L12.5977 7.45057L14.4329 3.05974L22.4667 0Z" fill="#E17726"/>
<path d="M0.55691 0.00878906L8.56926 3.06028L10.3119 7.50868L0.55691 0.00878906ZM18.4959 15.8453L22.8579 15.93L21.3335 21.2139L16.0108 19.7187L18.4959 15.8453ZM4.50536 15.8453L6.98119 19.7187L1.66756 21.2139L0.152344 15.93L4.50536 15.8453Z" fill="#E27625"/>
<path d="M10.0738 6.37609L10.2521 12.2504L4.91797 12.0028L6.43525 9.66729L6.45448 9.64483L10.0738 6.37609ZM12.87 6.31055L16.5446 9.64501L16.5637 9.66738L18.081 12.0029L12.748 12.2504L12.87 6.31055ZM7.1363 15.8629L10.0489 18.1783L6.66552 19.8449L7.1363 15.8629ZM15.8634 15.8625L16.3244 19.8449L12.9504 18.1781L15.8634 15.8625Z" fill="#E27625"/>
<path d="M13.0267 17.96L16.4504 19.6514L13.2657 21.1956L13.2988 20.175L13.0267 17.96ZM9.975 17.9607L9.71364 20.1583L9.73512 21.1944L6.54297 19.6514L9.975 17.9607Z" fill="#D5BFB2"/>
<path d="M8.98334 13.0166L9.878 14.935L6.83203 14.0246L8.98334 13.0166ZM14.0132 13.0168L16.1747 14.0246L13.1188 14.9347L14.0132 13.0168Z" fill="#233447"/>
<path d="M7.36961 15.8425L6.87726 19.9712L4.23828 15.9328L7.36961 15.8425ZM15.6307 15.8426L18.7622 15.9328L16.1133 19.9713L15.6307 15.8426ZM18.1586 11.7686L15.8797 14.1382L14.1226 13.319L13.2814 15.1234L12.73 12.0205L18.1586 11.7686ZM4.84041 11.7686L10.2701 12.0205L9.71857 15.1234L8.87718 13.3193L7.12945 14.1383L4.84041 11.7686Z" fill="#CC6228"/>
<path d="M4.6875 11.2821L7.26584 13.9515L7.35514 16.5869L4.6875 11.2821ZM18.3165 11.2773L15.644 16.5915L15.7447 13.9515L18.3165 11.2773ZM10.1447 11.4447L10.2485 12.1111L10.5049 13.7713L10.34 18.8703L9.56062 14.7742L9.56036 14.7318L10.1447 11.4447ZM12.8554 11.4355L13.4412 14.7318L13.441 14.7742L12.6596 18.8805L12.6287 17.8534L12.5068 13.7411L12.8554 11.4355Z" fill="#E27525"/>
<path d="M15.972 13.8457L15.8848 16.1354L13.1648 18.2975L12.615 17.9011L13.2313 14.6621L15.972 13.8457ZM7.03516 13.8457L9.76632 14.6621L10.3826 17.9011L9.8328 18.2975L7.11278 16.1352L7.03516 13.8457Z" fill="#F5841F"/>
<path d="M6.01953 19.1455L9.49936 20.8278L9.48463 20.1094L9.77581 19.8486H13.2199L13.5216 20.1085L13.4993 20.8263L16.9571 19.1497L15.2745 20.5684L13.24 21.994H9.74787L7.7147 20.5625L6.01953 19.1455Z" fill="#C0AC9D"/>
<path d="M12.7765 17.7354L13.2685 18.09L13.5568 20.437L13.1396 20.0776H9.86245L9.45312 20.4443L9.732 18.0902L10.2242 17.7354H12.7765Z" fill="#161616"/>
<path d="M21.8153 0.206055L23 3.83211L22.2601 7.49851L22.787 7.91311L22.0741 8.46806L22.6099 8.89028L21.9004 9.54945L22.336 9.8713L21.18 11.2487L16.439 9.84022L16.3979 9.81776L12.9814 6.87728L21.8153 0.206055ZM1.18468 0.206055L10.0187 6.87728L6.60208 9.81776L6.56102 9.84022L1.81996 11.2487L0.664035 9.8713L1.09924 9.54973L0.390191 8.89028L0.924941 8.46852L0.20134 7.91201L0.748039 7.49713L0 3.8323L1.18468 0.206055Z" fill="#763E1A"/>
<path d="M16.209 9.53231L21.2324 11.0245L22.8644 16.1566H18.5588L15.5921 16.1947L17.7496 11.904L16.209 9.53231ZM6.79481 9.53231L5.2539 11.904L7.41168 16.1947L4.44638 16.1566H0.148438L1.77129 11.0246L6.79481 9.53231ZM14.6809 3.03516L13.2759 6.90706L12.9777 12.1376L12.8636 13.777L12.8545 17.9651H10.1492L10.1404 13.7849L10.026 12.1362L9.72767 6.90706L8.32278 3.03516H14.6809Z" fill="#F5841F"/>
</g>
<defs>
<clipPath id="clip0_2427_3812">
<rect width="23" height="22" fill="white"/>
</clipPath>
</defs>
</svg>
