<svg width="20" height="20" viewBox="0 0 20 20" fill="none" xmlns="http://www.w3.org/2000/svg">
<path opacity="0.4" d="M16.1397 1.53669H14.8606V0.768344C14.8606 0.564567 14.7797 0.369135 14.6358 0.225043C14.4919 0.0809502 14.2967 0 14.0931 0C13.8896 0 13.6944 0.0809502 13.5504 0.225043C13.4065 0.369135 13.3257 0.564567 13.3257 0.768344V1.53669H6.67434V0.768344C6.67434 0.564567 6.59348 0.369135 6.44956 0.225043C6.30563 0.0809502 6.11042 0 5.90688 0C5.70334 0 5.50813 0.0809502 5.3642 0.225043C5.22028 0.369135 5.13942 0.564567 5.13942 0.768344V1.53669H3.86032C3.34187 1.47653 2.81653 1.53451 2.32362 1.70631C1.83071 1.8781 1.38298 2.15925 1.01393 2.52873C0.644868 2.89822 0.364038 3.34646 0.192443 3.83994C0.0208482 4.33342 -0.03707 4.85936 0.0230211 5.37841V16.1352C-0.03707 16.6543 0.0208482 17.1802 0.192443 17.6737C0.364038 18.1672 0.644868 18.6154 1.01393 18.9849C1.38298 19.3544 1.83071 19.6355 2.32362 19.8073C2.81653 19.9791 3.34187 20.0371 3.86032 19.977H16.1397C16.6581 20.0371 17.1835 19.9791 17.6764 19.8073C18.1693 19.6355 18.617 19.3544 18.9861 18.9849C19.3551 18.6154 19.636 18.1672 19.8076 17.6737C19.9792 17.1802 20.0371 16.6543 19.977 16.1352V5.37841C20.0371 4.85936 19.9792 4.33342 19.8076 3.83994C19.636 3.34646 19.3551 2.89822 18.9861 2.52873C18.617 2.15925 18.1693 1.8781 17.6764 1.70631C17.1835 1.53451 16.6581 1.47653 16.1397 1.53669ZM3.86032 3.07338H5.13942V3.84172C5.13942 4.0455 5.22028 4.24093 5.3642 4.38502C5.50813 4.52912 5.70334 4.61007 5.90688 4.61007C6.11042 4.61007 6.30563 4.52912 6.44956 4.38502C6.59348 4.24093 6.67434 4.0455 6.67434 3.84172V3.07338H13.3257V3.84172C13.3257 4.0455 13.4065 4.24093 13.5504 4.38502C13.6944 4.52912 13.8896 4.61007 14.0931 4.61007C14.2967 4.61007 14.4919 4.52912 14.6358 4.38502C14.7797 4.24093 14.8606 4.0455 14.8606 3.84172V3.07338H16.1397C17.7534 3.07338 18.4421 3.76284 18.4421 5.37841V6.14675H1.55794V5.37841C1.55794 3.76284 2.24661 3.07338 3.86032 3.07338ZM16.1397 18.4403H3.86032C2.24661 18.4403 1.55794 17.7508 1.55794 16.1352V7.68344H18.4421V16.1352C18.4421 17.7508 17.7534 18.4403 16.1397 18.4403ZM13.1005 10.808C13.1719 10.8794 13.2284 10.9641 13.267 11.0574C13.3056 11.1506 13.3255 11.2506 13.3255 11.3515C13.3255 11.4525 13.3056 11.5524 13.267 11.6457C13.2284 11.7389 13.1719 11.8236 13.1005 11.895L11.3968 13.6053L9.69302 15.3157C9.6219 15.3872 9.53738 15.4439 9.44431 15.4826C9.35125 15.5213 9.25146 15.5412 9.15068 15.5412C9.0499 15.5412 8.95011 15.5213 8.85704 15.4826C8.76397 15.4439 8.67946 15.3872 8.60834 15.3157L6.89946 13.6048C6.7639 13.4592 6.6901 13.2665 6.6936 13.0675C6.69711 12.8684 6.77766 12.6785 6.91827 12.5377C7.05888 12.3969 7.24858 12.3163 7.44741 12.3128C7.64623 12.3093 7.83865 12.3832 7.98414 12.5189L9.14761 13.6827L12.0128 10.8142C12.0836 10.742 12.168 10.6845 12.2612 10.645C12.3543 10.6056 12.4543 10.585 12.5554 10.5844C12.6565 10.5839 12.7567 10.6033 12.8503 10.6417C12.9438 10.6801 13.0289 10.7366 13.1005 10.808Z" fill="white"/>
</svg>
