<svg width="23" height="16" viewBox="0 0 23 16" fill="none" xmlns="http://www.w3.org/2000/svg">
<path d="M15.304 11.1099C15.304 13.2364 13.5802 14.9603 11.4537 14.9603C9.32722 14.9603 7.60337 13.2364 7.60337 11.1099C7.60337 8.98347 9.32722 7.25962 11.4537 7.25962C13.5802 7.25962 15.304 8.98347 15.304 11.1099Z" stroke="#264D89" stroke-width="0.8" stroke-miterlimit="10" stroke-linejoin="round"/>
<path d="M21.8663 9.11782L20.228 9.49444L21.8663 9.11782ZM21.8663 9.11782C22.1446 10.5747 22.1129 12.0719 21.7797 13.5163L20.1593 13.0735C20.1583 13.0712 20.1573 13.0672 20.1581 13.0616C20.4221 11.8921 20.4468 10.6824 20.227 9.50233L21.8663 9.11782Z" stroke="#264D89" stroke-width="0.8" stroke-miterlimit="10" stroke-linejoin="round"/>
<mask id="path-3-inside-1_650_23932" fill="white">
<path d="M11.4487 5.55548V11.099V5.55548Z"/>
</mask>
<path d="M12.2487 5.55548C12.2487 5.11365 11.8906 4.75548 11.4487 4.75548C11.0069 4.75548 10.6487 5.11365 10.6487 5.55548H12.2487ZM10.6487 11.099C10.6487 11.5408 11.0069 11.899 11.4487 11.899C11.8906 11.899 12.2487 11.5408 12.2487 11.099H10.6487ZM10.6487 5.55548V11.099H12.2487V5.55548H10.6487Z" fill="#264D89" mask="url(#path-3-inside-1_650_23932)"/>
<path d="M7.03055 3.35858L6.13589 1.93655C7.41675 1.19353 8.84537 0.72491 10.3146 0.566234L10.4324 2.24413C10.4313 2.2448 10.4298 2.24537 10.428 2.24558L10.4264 2.24576C9.23647 2.38576 8.08039 2.76071 7.03816 3.35666C7.03524 3.35823 7.03256 3.35866 7.03055 3.35858Z" stroke="#264D89" stroke-width="0.8" stroke-miterlimit="10" stroke-linejoin="round"/>
<path d="M12.656 0.619818L12.5316 2.25917C12.5317 2.25919 12.5317 2.25919 12.5317 2.25919L12.5364 2.25972L12.5364 2.25975C13.7314 2.40975 14.8768 2.79465 15.9171 3.39436M12.656 0.619818L12.66 0.566844C12.6614 0.56525 12.6625 0.563516 12.6635 0.561683C12.6652 0.558297 12.6656 0.555611 12.6657 0.5548C12.6651 0.563064 12.6643 0.571256 12.6633 0.579368M12.656 0.619818C12.6591 0.606585 12.6615 0.593091 12.6633 0.579368M12.656 0.619818L12.6633 0.579368M15.9171 3.39436C15.918 3.39487 15.9189 3.39539 15.9198 3.39591L15.7199 3.74238L15.9164 3.39399C15.9167 3.39412 15.9169 3.39424 15.9171 3.39436ZM15.9171 3.39436C15.9208 3.39635 15.9242 3.39713 15.9267 3.39736M15.9267 3.39736L15.924 3.40161L15.924 3.4016L15.9222 3.40442C15.9226 3.4037 15.9234 3.40278 15.9243 3.40181C15.9252 3.40082 15.9264 3.39979 15.9277 3.39888C15.9301 3.39729 15.9313 3.39711 15.9308 3.39723C15.93 3.3974 15.9286 3.39754 15.9267 3.39736ZM15.9267 3.39736L16.8369 1.98257M16.8369 1.98257C16.8443 1.98695 16.8517 1.99134 16.859 1.99574L16.859 1.99574L16.8607 1.99675C16.8603 1.99647 16.8597 1.9961 16.8591 1.99565C16.8569 1.99405 16.854 1.99137 16.8513 1.9876C16.8481 1.98308 16.8465 1.97883 16.8458 1.97573C16.8452 1.97271 16.8453 1.97069 16.8455 1.96966L16.8666 1.98299L16.8682 1.98401L17.1835 2.18311L16.8698 1.98132L16.8682 1.9803L16.8471 1.9667L16.8457 1.96888C16.8457 1.96885 16.8457 1.96884 16.8457 1.96884C16.8457 1.96883 16.8457 1.96892 16.8456 1.96911L16.8369 1.98257ZM16.8369 1.98257C15.5595 1.22492 14.1386 0.746843 12.6633 0.579368M16.2604 3.61802L16.2604 3.61802L16.2604 3.61802Z" stroke="#264D89" stroke-width="0.8" stroke-miterlimit="10" stroke-linejoin="round"/>
<path d="M17.284 4.89052L17.5578 4.59898C17.5549 4.59621 17.5536 4.59365 17.553 4.5918L18.5991 3.36984C18.6174 3.35624 18.6346 3.34101 18.6505 3.32423C19.7401 4.33298 20.6046 5.55699 21.1908 6.91634L19.623 7.51899C19.6206 7.51739 19.6168 7.51408 19.6136 7.5079C19.1327 6.40816 18.4324 5.41853 17.5575 4.59865L17.284 4.89052ZM17.284 4.89052C18.121 5.67493 18.7906 6.62197 19.2498 7.67423L17.2457 4.33569M17.284 4.89052C17.1261 4.74224 17.107 4.49831 17.2457 4.33569M17.2457 4.33569L17.5496 4.59582L17.55 4.59527L17.2457 4.33569Z" stroke="#264D89" stroke-width="0.8" stroke-miterlimit="10" stroke-linejoin="round"/>
<path d="M12.9765 11.1092C12.9765 11.9502 12.2948 12.632 11.4538 12.632C10.6128 12.632 9.93101 11.9502 9.93101 11.1092C9.93101 10.2682 10.6128 9.58646 11.4538 9.58646C12.2948 9.58646 12.9765 10.2682 12.9765 11.1092Z" stroke="#264D89" stroke-width="0.8" stroke-linejoin="round"/>
<path d="M5.64183 4.88478L5.36914 4.59214C4.48763 5.41355 3.78627 6.40047 3.30044 7.50234L3.30019 7.50292C3.29968 7.50408 3.29908 7.50499 3.2985 7.5057L1.76646 6.90581C1.75473 6.89905 1.74259 6.89285 1.73006 6.88725C2.32114 5.52725 3.19055 4.30343 4.28435 3.30441L5.3728 4.58605C5.37224 4.5879 5.37092 4.59047 5.36796 4.59325L5.64183 4.88478ZM5.64183 4.88478C5.79967 4.73651 5.8188 4.49258 5.68009 4.32995M5.64183 4.88478C4.80002 5.6692 4.1304 6.61145 3.66645 7.66372C3.58035 7.85982 3.35555 7.96026 3.15466 7.87895L5.68009 4.32995M5.68009 4.32995L4.57522 3.02897C4.43651 2.86635 4.19258 2.84722 4.03474 2.99071L5.68009 4.32995Z" stroke="#264D89" stroke-width="0.8" stroke-miterlimit="10" stroke-linejoin="round"/>
<path d="M1.11898 13.465C0.789597 12.0191 0.766938 10.5153 1.05525 9.06094L2.68962 9.44716C2.6901 9.44944 2.69033 9.45252 2.68965 9.45626L3.0832 9.52781M1.11898 13.465L0.667773 8.95863C0.71082 8.74818 0.921273 8.61904 1.12694 8.66687M1.11898 13.465L2.74532 13.0313M1.11898 13.465L1.20347 13.8564L2.85361 13.4164M3.0832 9.52781C2.86796 10.6566 2.88709 11.8141 3.13581 12.9381C3.18364 13.1486 3.05928 13.359 2.85361 13.4164M3.0832 9.52781L2.69027 9.45289C2.46476 10.6356 2.48492 11.848 2.74526 13.0245L2.74525 13.0245L2.74576 13.0267C2.74614 13.0284 2.74603 13.0292 2.74598 13.0295C2.74593 13.0298 2.74585 13.0301 2.74574 13.0304C2.74563 13.0307 2.74549 13.031 2.74532 13.0313M3.0832 9.52781C3.12146 9.31736 2.9971 9.1069 2.78665 9.05907L1.12694 8.66687M2.85361 13.4164L2.75055 13.0299L2.74532 13.0313M2.85361 13.4164L2.74609 13.0311C2.74608 13.0311 2.74607 13.0311 2.74605 13.0311C2.74591 13.0312 2.74549 13.0314 2.74509 13.0317C2.74497 13.0318 2.74492 13.0319 2.74492 13.0319C2.74492 13.0319 2.74508 13.0317 2.74531 13.0313C2.74531 13.0313 2.74531 13.0313 2.74532 13.0313M1.12694 8.66687L1.04033 9.03338L1.04165 9.03364L1.12694 8.66687ZM1.03634 9.05647C1.04167 9.05771 1.0464 9.05633 1.04924 9.05455C1.05086 9.05353 1.05305 9.05173 1.05521 9.04867C1.0576 9.0453 1.05909 9.04159 1.05966 9.03879L1.04132 9.03504L1.03634 9.05647ZM1.03634 9.05647L1.03495 9.05615L1.04 9.03477L1.03634 9.05647ZM1.12479 13.4904L1.12477 13.4903L1.12479 13.4904Z" stroke="#264D89" stroke-width="0.8" stroke-miterlimit="10" stroke-linejoin="round"/>
</svg>
