<svg width="45" height="45" viewBox="0 0 45 45" fill="none" xmlns="http://www.w3.org/2000/svg">
<g clip-path="url(#clip0_945_179)">
<path d="M33.913 26.308H33.9257C34.9453 26.308 35.9444 26.2146 36.9118 26.0357L36.8121 26.0515C34.9976 32.578 29.1076 37.29 22.1172 37.29H22.0253H22.0301C13.5703 37.2805 6.7145 30.4247 6.70658 21.9649V21.9634C6.72642 18.635 7.82037 15.4019 9.82564 12.7454C11.8309 10.0888 14.6403 8.15064 17.8358 7.21935L17.9451 7.19244C17.772 8.14265 17.6862 9.10668 17.6886 10.0725V10.0836C17.6965 19.0421 24.9561 26.3017 33.913 26.3096H33.9146L33.913 26.308ZM22.0095 3.74393C21.8209 3.48943 21.5698 3.28793 21.2805 3.15895C20.9912 3.02996 20.6734 2.97786 20.3581 3.00768H20.366C10.6206 3.94344 3.05383 12.0628 3 21.9618V21.9665C3.01267 32.4719 11.5263 40.9855 22.0301 40.9998H22.1267C32.0114 40.9998 40.1244 33.4219 40.9763 23.7589L40.981 23.6876C41.0083 23.3869 40.9615 23.084 40.8448 22.8055C40.728 22.5271 40.5448 22.2814 40.3113 22.09L40.3081 22.0869C40.0723 21.8929 39.7921 21.7605 39.4925 21.7016C39.1929 21.6428 38.8834 21.6593 38.5918 21.7496L38.6044 21.7464L37.7747 21.9934C36.5305 22.4014 35.2288 22.6072 33.9193 22.603H33.9083C30.5907 22.5992 27.4102 21.2797 25.0643 18.9339C22.7185 16.588 21.3989 13.4075 21.3952 10.0899V10.0614C21.3952 8.4306 21.7087 6.8726 22.2787 5.44602L22.2486 5.52994C22.365 5.23472 22.4036 4.91452 22.3606 4.6001C22.3177 4.28567 22.1946 3.98757 22.0032 3.73443L22.0063 3.73918L22.0095 3.74393Z" fill="#D7D7D7"/>
</g>
<defs>
<clipPath id="clip0_945_179">
<rect width="38" height="38" fill="white" transform="translate(3 3)"/>
</clipPath>
</defs>
</svg>
