<svg width="70" height="70" viewBox="0 0 70 70" fill="none" xmlns="http://www.w3.org/2000/svg">
<g opacity="0.4">
<path d="M34.3464 6.0001C44.7678 5.97266 53.9386 11.3856 59.18 19.5632C59.4124 19.9268 59.1527 20.4071 58.7222 20.4071H53.9181C53.5901 20.4071 53.2826 20.263 53.0775 20.0091C52.5992 19.426 52.0867 18.8635 51.5468 18.3283C49.319 16.0987 46.729 14.3424 43.8452 13.1213C40.8657 11.8589 37.6949 11.214 34.4216 11.214C31.1482 11.214 27.9774 11.8521 24.9979 13.1213C22.1141 14.3424 19.5241 16.0987 17.2963 18.3283C15.0685 20.558 13.3259 23.1581 12.1027 26.0463C10.8385 29.0375 10.2029 32.2139 10.2029 35.5001C10.2029 38.7862 10.8453 41.9626 12.1027 44.9538C13.3191 47.842 15.0685 50.4421 17.2963 52.6718C19.5241 54.9014 22.1141 56.6577 24.9979 57.8788C27.9797 59.1432 31.1847 59.7918 34.4216 59.786C37.6949 59.786 40.8657 59.1412 43.8452 57.8788C46.7234 56.6589 49.3388 54.8906 51.5468 52.6718C52.0867 52.1298 52.5924 51.5672 53.0775 50.991C53.2826 50.7371 53.5969 50.593 53.9181 50.593H58.7222C59.1527 50.593 59.4192 51.0733 59.18 51.4369C53.9454 59.594 44.8156 65 34.4216 65C18.2804 65 5.17333 51.9583 5.00932 35.8019C4.84531 19.3848 17.9728 6.04127 34.3464 6.0001ZM43.0033 43.1838V37.9698H64.4611C64.7618 37.9698 65.0078 37.7228 65.0078 37.421V33.5791C65.0078 33.2773 64.7618 33.0303 64.4611 33.0303H43.0033V27.8163C43.0033 27.3567 42.4703 27.096 42.1149 27.3841L32.4179 35.0678C32.3526 35.1192 32.2997 35.1848 32.2634 35.2597C32.227 35.3345 32.2082 35.4168 32.2082 35.5001C32.2082 35.5833 32.227 35.6656 32.2634 35.7404C32.2997 35.8153 32.3526 35.8809 32.4179 35.9323L42.1149 43.616C42.4703 43.8972 43.0033 43.6434 43.0033 43.1838Z" fill="white" stroke="white" stroke-width="1.2"/>
</g>
</svg>
