<svg width="80" height="80" viewBox="0 0 80 80" fill="none" xmlns="http://www.w3.org/2000/svg">
<path d="M10 16.6667V63.3333C10 67.01 12.99 70 16.6667 70H63.3333C67.01 70 70 67.01 70 63.3333V16.6667C70 12.99 67.01 10 63.3333 10H16.6667C12.99 10 10 12.99 10 16.6667ZM63.3364 60.3331C63.3366 61.9901 61.9934 63.3333 60.3364 63.3333H19.6667C18.0098 63.3333 16.6667 61.9902 16.6667 60.3333V19.6667C16.6667 18.0098 18.0098 16.6667 19.6667 16.6667H60.3335C61.9903 16.6667 63.3334 18.0097 63.3335 19.6665L63.3364 60.3331Z" fill="white"/>
<path d="M36.6615 26.3359C36.6615 24.6791 38.0046 23.3359 39.6615 23.3359H40.3281C41.985 23.3359 43.3281 24.6791 43.3281 26.3359V53.6693C43.3281 55.3261 41.985 56.6693 40.3281 56.6693H39.6615C38.0046 56.6693 36.6615 55.3261 36.6615 53.6693V26.3359ZM49.9948 36.3359C49.9948 34.6791 51.3379 33.3359 52.9948 33.3359H53.6614C55.3183 33.3359 56.6614 34.6791 56.6614 36.3359V53.6693C56.6614 55.3261 55.3183 56.6693 53.6614 56.6693H52.9948C51.3379 56.6693 49.9948 55.3261 49.9948 53.6693V36.3359ZM23.3281 43.0026C23.3281 41.3457 24.6713 40.0026 26.3281 40.0026H26.9948C28.6516 40.0026 29.9948 41.3457 29.9948 43.0026V53.6693C29.9948 55.3261 28.6516 56.6693 26.9948 56.6693H26.3281C24.6713 56.6693 23.3281 55.3261 23.3281 53.6693V43.0026Z" fill="white"/>
</svg>
