<svg width="70" height="70" viewBox="0 0 70 70" fill="none" xmlns="http://www.w3.org/2000/svg">
<g opacity="0.4">
<path d="M35.6637 5.60557C25.2389 5.57823 16.065 10.9718 10.8219 19.1202C10.5895 19.4825 10.8492 19.961 11.2799 19.961H16.0855C16.4137 19.961 16.7213 19.8175 16.9264 19.5646C17.4049 18.9835 17.9176 18.423 18.4576 17.8898C20.6861 15.6681 23.277 13.9181 26.1617 12.7013C29.1422 11.4435 32.3141 10.8009 35.5885 10.8009C38.8629 10.8009 42.0348 11.4366 45.0152 12.7013C47.9 13.9181 50.4908 15.6681 52.7193 17.8898C54.9478 20.1114 56.691 22.7023 57.9146 25.5802C59.1793 28.5607 59.815 31.7257 59.815 35.0001C59.815 38.2745 59.1725 41.4396 57.9146 44.42C56.6978 47.298 54.9478 49.8888 52.7193 52.1105C50.4908 54.3321 47.9 56.0821 45.0152 57.2989C42.0324 58.5588 38.8264 59.2051 35.5885 59.1993C32.3141 59.1993 29.1422 58.5567 26.1617 57.2989C23.2826 56.0834 20.6664 54.3214 18.4576 52.1105C17.9176 51.5704 17.4117 51.0099 16.9264 50.4356C16.7213 50.1827 16.4068 50.0392 16.0855 50.0392H11.2799C10.8492 50.0392 10.5826 50.5177 10.8219 50.88C16.0582 59.0079 25.191 64.3946 35.5885 64.3946C51.735 64.3946 64.8463 51.3995 65.0103 35.3009C65.1744 18.9425 52.0426 5.64659 35.6637 5.60557ZM27.0039 42.6564V37.461H5.53906C5.23828 37.461 4.99219 37.2149 4.99219 36.9142V33.086C4.99219 32.7853 5.23828 32.5392 5.53906 32.5392H27.0039V27.3439C27.0039 26.8858 27.5371 26.6261 27.8926 26.9132L37.5928 34.5694C37.6581 34.6206 37.711 34.686 37.7474 34.7606C37.7837 34.8352 37.8026 34.9171 37.8026 35.0001C37.8026 35.0831 37.7837 35.165 37.7474 35.2396C37.711 35.3142 37.6581 35.3796 37.5928 35.4308L27.8926 43.087C27.5371 43.3673 27.0039 43.1144 27.0039 42.6564Z" fill="white"/>
</g>
</svg>
