<svg width="80" height="80" viewBox="0 0 80 80" fill="none" xmlns="http://www.w3.org/2000/svg">
<path d="M50 32.5C50 31.837 50.2634 31.2011 50.7322 30.7322C51.2011 30.2634 51.837 30 52.5 30H62.5C63.163 30 63.7989 30.2634 64.2678 30.7322C64.7366 31.2011 65 31.837 65 32.5C65 33.163 64.7366 33.7989 64.2678 34.2678C63.7989 34.7366 63.163 35 62.5 35H52.5C51.837 35 51.2011 34.7366 50.7322 34.2678C50.2634 33.7989 50 33.163 50 32.5ZM52.5 45C51.837 45 51.2011 45.2634 50.7322 45.7322C50.2634 46.2011 50 46.837 50 47.5C50 48.163 50.2634 48.7989 50.7322 49.2678C51.2011 49.7366 51.837 50 52.5 50H62.5C63.163 50 63.7989 49.7366 64.2678 49.2678C64.7366 48.7989 65 48.163 65 47.5C65 46.837 64.7366 46.2011 64.2678 45.7322C63.7989 45.2634 63.163 45 62.5 45H52.5ZM30 30C30 31.3261 29.4732 32.5979 28.5355 33.5355C27.5979 34.4732 26.3261 35 25 35C23.6739 35 22.4021 34.4732 21.4645 33.5355C20.5268 32.5979 20 31.3261 20 30C20 28.6739 20.5268 27.4021 21.4645 26.4645C22.4021 25.5268 23.6739 25 25 25C26.3261 25 27.5979 25.5268 28.5355 26.4645C29.4732 27.4021 30 28.6739 30 30ZM18.75 40C17.7554 40 16.8016 40.3951 16.0983 41.0984C15.3951 41.8016 15 42.7554 15 43.75V47.5C15 47.5 15 55 25 55C35 55 35 47.5 35 47.5V43.75C35 42.7554 34.6049 41.8016 33.9017 41.0984C33.1984 40.3951 32.2446 40 31.25 40H18.75ZM42.5 31.25C42.5 32.2446 42.1049 33.1984 41.4016 33.9017C40.6984 34.6049 39.7446 35 38.75 35C37.7554 35 36.8016 34.6049 36.0983 33.9017C35.3951 33.1984 35 32.2446 35 31.25C35 30.2554 35.3951 29.3016 36.0983 28.5983C36.8016 27.8951 37.7554 27.5 38.75 27.5C39.7446 27.5 40.6984 27.8951 41.4016 28.5983C42.1049 29.3016 42.5 30.2554 42.5 31.25ZM39.725 49.755C39.7075 49.8369 39.6892 49.9185 39.67 50H40C41.3261 50 42.5979 49.4732 43.5355 48.5355C44.4732 47.5979 45 46.3261 45 45V42.5C45 41.837 44.7366 41.2011 44.2678 40.7322C43.7989 40.2634 43.163 40 42.5 40H39.16C39.7 41.135 40 42.41 40 43.75V47.765H39.995V47.805L39.96 48.295C39.9106 48.7859 39.8321 49.2734 39.725 49.755ZM5 27.5C5 24.1848 6.31696 21.0054 8.66117 18.6612C11.0054 16.317 14.1848 15 17.5 15H62.5C65.8152 15 68.9946 16.317 71.3388 18.6612C73.683 21.0054 75 24.1848 75 27.5V52.5C75 55.8152 73.683 58.9946 71.3388 61.3388C68.9946 63.683 65.8152 65 62.5 65H17.5C14.1848 65 11.0054 63.683 8.66117 61.3388C6.31696 58.9946 5 55.8152 5 52.5V27.5ZM17.5 20C15.5109 20 13.6032 20.7902 12.1967 22.1967C10.7902 23.6032 10 25.5109 10 27.5V52.5C10 54.4891 10.7902 56.3968 12.1967 57.8033C13.6032 59.2098 15.5109 60 17.5 60H62.5C64.4891 60 66.3968 59.2098 67.8033 57.8033C69.2098 56.3968 70 54.4891 70 52.5V27.5C70 25.5109 69.2098 23.6032 67.8033 22.1967C66.3968 20.7902 64.4891 20 62.5 20H17.5Z" fill="white"/>
</svg>
