<svg width="60" height="60" viewBox="0 0 60 60" fill="none" xmlns="http://www.w3.org/2000/svg">
<path d="M37.5009 47.5C37.5009 49.4892 36.7107 51.3968 35.3042 52.8033C33.8977 54.2099 31.99 55 30.0009 55C28.0118 55 26.1041 54.2099 24.6976 52.8033C23.2911 51.3968 22.5009 49.4892 22.5009 47.5M31.8034 12.5075L28.1384 12.5C19.7784 12.48 12.5209 19.2725 12.4634 27.5V36.975C12.4634 38.95 12.2134 40.8775 11.1359 42.52L10.4184 43.615C9.32589 45.275 10.5009 47.5 12.4634 47.5H47.5384C49.5009 47.5 50.6734 45.275 49.5834 43.615L48.8659 42.52C47.7909 40.8775 47.5384 38.9475 47.5384 36.9725V27.5025C47.4384 19.2725 40.1634 12.5275 31.8034 12.5075V12.5075Z" stroke="white" stroke-width="4" stroke-linecap="round" stroke-linejoin="round"/>
<path d="M30 5C31.3261 5 32.5979 5.52678 33.5355 6.46447C34.4732 7.40215 35 8.67392 35 10V12.5H25V10C25 8.67392 25.5268 7.40215 26.4645 6.46447C27.4021 5.52678 28.6739 5 30 5Z" stroke="white" stroke-width="4" stroke-linecap="round" stroke-linejoin="round"/>
</svg>
