<svg width="45" height="45" viewBox="0 0 45 45" fill="none" xmlns="http://www.w3.org/2000/svg">
<path d="M28.1257 35.625C28.1257 37.1169 27.533 38.5476 26.4781 39.6025C25.4232 40.6574 23.9925 41.25 22.5007 41.25C21.0088 41.25 19.5781 40.6574 18.5232 39.6025C17.4683 38.5476 16.8757 37.1169 16.8757 35.625M23.8525 9.38066L21.1038 9.37503C14.8338 9.36003 9.39066 14.4544 9.34754 20.625V27.7313C9.34754 29.2125 9.16004 30.6582 8.35191 31.89L7.81379 32.7113C6.99441 33.9563 7.87566 35.625 9.34754 35.625H35.6538C37.1257 35.625 38.005 33.9563 37.1875 32.7113L36.6494 31.89C35.8432 30.6582 35.6538 29.2107 35.6538 27.7294V20.6269C35.5788 14.4544 30.1225 9.39566 23.8525 9.38066V9.38066Z" stroke="#D7D7D7" stroke-width="3" stroke-linecap="round" stroke-linejoin="round"/>
<path d="M22.5 3.75C23.4946 3.75 24.4484 4.14509 25.1516 4.84835C25.8549 5.55161 26.25 6.50544 26.25 7.5V9.375H18.75V7.5C18.75 6.50544 19.1451 5.55161 19.8484 4.84835C20.5516 4.14509 21.5054 3.75 22.5 3.75Z" stroke="#D7D7D7" stroke-width="3" stroke-linecap="round" stroke-linejoin="round"/>
</svg>
