<svg width="70" height="70" viewBox="0 0 70 70" fill="none" xmlns="http://www.w3.org/2000/svg">
<g opacity="0.4">
<path d="M54.6901 58.3332H15.3151C12.8939 58.3333 10.5644 57.407 8.80443 55.7441C7.04451 54.0813 5.9876 51.808 5.85052 49.3907L5.83594 48.854V18.229C5.83573 16.5661 6.4668 14.9652 7.6016 13.7497C8.7364 12.5343 10.2903 11.7949 11.9493 11.6811L12.3984 11.6665H48.8568C50.5196 11.6663 52.1206 12.2974 53.3361 13.4322C54.5515 14.567 55.2909 16.1209 55.4047 17.7798L55.4193 18.229V20.4165H57.6068C59.2696 20.4163 60.8706 21.0474 62.0861 22.1822C63.3015 23.317 64.0409 24.8709 64.1547 26.5298L64.1693 26.979V48.854C64.1694 51.2752 63.2431 53.6048 61.5802 55.3647C59.9174 57.1246 57.6441 58.1815 55.2268 58.3186L54.6901 58.3332H15.3151H54.6901ZM15.3151 53.9582H54.6901C55.9715 53.9581 57.2061 53.476 58.1484 52.6076C59.0908 51.7393 59.6721 50.5482 59.7768 49.2711L59.7943 48.854V26.979C59.7943 26.4504 59.6028 25.9397 59.2554 25.5413C58.9079 25.1429 58.428 24.8838 57.9043 24.8119L57.6068 24.7915H55.4193V47.3957C55.4193 47.9243 55.2278 48.435 54.8804 48.8334C54.5329 49.2318 54.053 49.4909 53.5293 49.5628L53.2318 49.5832C52.7032 49.5831 52.1924 49.3917 51.7941 49.0443C51.3957 48.6968 51.1366 48.2169 51.0647 47.6932L51.0443 47.3957V18.229C51.0443 17.7004 50.8528 17.1897 50.5054 16.7913C50.1579 16.3929 49.678 16.1338 49.1543 16.0619L48.8568 16.0415H12.3984C11.8698 16.0415 11.3591 16.233 10.9607 16.5804C10.5623 16.9279 10.3032 17.4078 10.2314 17.9315L10.2109 18.229V48.854C10.211 50.135 10.6927 51.3691 11.5604 52.3114C12.4282 53.2537 13.6185 53.8353 14.8951 53.9407L15.3151 53.9582H54.6901H15.3151ZM35.7201 42.2915H44.4876C45.0418 42.2917 45.5754 42.5022 45.9803 42.8806C46.3853 43.259 46.6316 43.777 46.6694 44.3299C46.7071 44.8829 46.5336 45.4295 46.1838 45.8595C45.8341 46.2894 45.3342 46.5705 44.7851 46.6461L44.4876 46.6665H35.7201C35.1659 46.6663 34.6324 46.4558 34.2274 46.0774C33.8224 45.699 33.5761 45.181 33.5384 44.6281C33.5006 44.0752 33.6741 43.5285 34.0239 43.0985C34.3736 42.6686 34.8735 42.3875 35.4226 42.3119L35.7201 42.2915H44.4876H35.7201ZM26.9614 32.0978C27.5415 32.0978 28.0979 32.3282 28.5082 32.7385C28.9184 33.1487 29.1489 33.7051 29.1489 34.2853V44.479C29.1489 45.0592 28.9184 45.6156 28.5082 46.0258C28.0979 46.436 27.5415 46.6665 26.9614 46.6665H16.7676C16.1874 46.6665 15.631 46.436 15.2208 46.0258C14.8106 45.6156 14.5801 45.0592 14.5801 44.479V34.2853C14.5801 33.7051 14.8106 33.1487 15.2208 32.7385C15.631 32.3282 16.1874 32.0978 16.7676 32.0978H26.9614ZM24.7739 36.4728H18.9551V42.2915H24.7739V36.4728ZM35.7201 32.0978H44.4876C45.0418 32.0979 45.5754 32.3085 45.9803 32.6868C46.3853 33.0652 46.6316 33.5832 46.6694 34.1362C46.7071 34.6891 46.5336 35.2358 46.1838 35.6657C45.8341 36.0956 45.3342 36.3768 44.7851 36.4523L44.4876 36.4728H35.7201C35.1619 36.4784 34.6227 36.2705 34.2128 35.8915C33.803 35.5126 33.5535 34.9913 33.5154 34.4344C33.4774 33.8775 33.6537 33.3271 34.0083 32.8959C34.3629 32.4648 34.8688 32.1855 35.4226 32.1153L35.7201 32.0978H44.4876H35.7201ZM16.7676 21.8807H44.4876C45.0458 21.875 45.585 22.0829 45.9949 22.4619C46.4048 22.8408 46.6543 23.3621 46.6923 23.9191C46.7303 24.476 46.554 25.0264 46.1994 25.4575C45.8449 25.8886 45.3389 26.1679 44.7851 26.2382L44.4876 26.2557H16.7676C16.2134 26.2555 15.6799 26.045 15.2749 25.6666C14.8699 25.2882 14.6236 24.7702 14.5859 24.2173C14.5481 23.6643 14.7216 23.1177 15.0714 22.6877C15.4211 22.2578 15.921 21.9766 16.4701 21.9011L16.7676 21.8807H44.4876H16.7676Z" fill="white"/>
<path d="M54.6901 58.3332H15.3151C12.8939 58.3333 10.5644 57.407 8.80443 55.7441C7.04451 54.0813 5.9876 51.808 5.85052 49.3907L5.83594 48.854V18.229C5.83573 16.5661 6.4668 14.9652 7.6016 13.7497C8.7364 12.5343 10.2903 11.7949 11.9493 11.6811L12.3984 11.6665H48.8568C50.5196 11.6663 52.1206 12.2974 53.3361 13.4322C54.5515 14.567 55.2909 16.1209 55.4047 17.7798L55.4193 18.229V20.4165H57.6068C59.2696 20.4163 60.8706 21.0474 62.0861 22.1822C63.3015 23.317 64.0409 24.8709 64.1547 26.5298L64.1693 26.979V48.854C64.1694 51.2752 63.2431 53.6048 61.5802 55.3647C59.9174 57.1246 57.6441 58.1815 55.2268 58.3186L54.6901 58.3332ZM54.6901 58.3332H15.3151H54.6901ZM15.3151 53.9582H54.6901C55.9715 53.9581 57.2061 53.476 58.1484 52.6076C59.0908 51.7393 59.6721 50.5482 59.7768 49.2711L59.7943 48.854V26.979C59.7943 26.4504 59.6028 25.9397 59.2554 25.5413C58.9079 25.1429 58.428 24.8838 57.9043 24.8119L57.6068 24.7915H55.4193V47.3957C55.4193 47.9243 55.2278 48.435 54.8804 48.8334C54.5329 49.2318 54.053 49.4909 53.5293 49.5628L53.2318 49.5832C52.7032 49.5831 52.1924 49.3917 51.7941 49.0443C51.3957 48.6968 51.1366 48.2169 51.0647 47.6932L51.0443 47.3957V18.229C51.0443 17.7004 50.8528 17.1897 50.5054 16.7913C50.1579 16.3929 49.678 16.1338 49.1543 16.0619L48.8568 16.0415H12.3984C11.8698 16.0415 11.3591 16.233 10.9607 16.5804C10.5623 16.9279 10.3032 17.4078 10.2314 17.9315L10.2109 18.229V48.854C10.211 50.135 10.6927 51.3691 11.5604 52.3114C12.4282 53.2537 13.6185 53.8353 14.8951 53.9407L15.3151 53.9582ZM15.3151 53.9582H54.6901H15.3151ZM35.7201 42.2915H44.4876C45.0418 42.2917 45.5754 42.5022 45.9803 42.8806C46.3853 43.259 46.6316 43.777 46.6694 44.3299C46.7071 44.8828 46.5336 45.4295 46.1838 45.8595C45.8341 46.2894 45.3342 46.5705 44.7851 46.6461L44.4876 46.6665H35.7201C35.1659 46.6663 34.6324 46.4558 34.2274 46.0774C33.8224 45.699 33.5761 45.181 33.5384 44.6281C33.5006 44.0752 33.6741 43.5285 34.0239 43.0985C34.3736 42.6686 34.8735 42.3875 35.4226 42.3119L35.7201 42.2915ZM35.7201 42.2915H44.4876H35.7201ZM35.7201 32.0978H44.4876C45.0418 32.0979 45.5754 32.3085 45.9803 32.6868C46.3853 33.0652 46.6316 33.5832 46.6694 34.1362C46.7071 34.6891 46.5336 35.2358 46.1838 35.6657C45.8341 36.0956 45.3342 36.3768 44.7851 36.4523L44.4876 36.4728H35.7201C35.1619 36.4784 34.6227 36.2705 34.2128 35.8915C33.803 35.5126 33.5535 34.9913 33.5154 34.4344C33.4774 33.8775 33.6537 33.3271 34.0083 32.8959C34.3629 32.4648 34.8688 32.1855 35.4226 32.1153L35.7201 32.0978ZM35.7201 32.0978H44.4876H35.7201ZM26.9614 32.0978C27.5415 32.0978 28.0979 32.3282 28.5082 32.7385C28.9184 33.1487 29.1489 33.7051 29.1489 34.2853V44.479C29.1489 45.0592 28.9184 45.6156 28.5082 46.0258C28.0979 46.436 27.5415 46.6665 26.9614 46.6665H16.7676C16.1874 46.6665 15.631 46.436 15.2208 46.0258C14.8106 45.6156 14.5801 45.0592 14.5801 44.479V34.2853C14.5801 33.7051 14.8106 33.1487 15.2208 32.7385C15.631 32.3282 16.1874 32.0978 16.7676 32.0978H26.9614ZM24.7739 36.4728H18.9551V42.2915H24.7739V36.4728ZM16.7676 21.8807H44.4876C45.0458 21.875 45.585 22.0829 45.9949 22.4619C46.4048 22.8408 46.6543 23.3621 46.6923 23.9191C46.7303 24.476 46.554 25.0263 46.1994 25.4575C45.8449 25.8886 45.3389 26.1679 44.7851 26.2382L44.4876 26.2557H16.7676C16.2134 26.2555 15.6799 26.045 15.2749 25.6666C14.8699 25.2882 14.6236 24.7702 14.5859 24.2173C14.5481 23.6643 14.7216 23.1177 15.0714 22.6877C15.4211 22.2578 15.921 21.9766 16.4701 21.9011L16.7676 21.8807H44.4876H16.7676V21.8807Z" stroke="white" stroke-width="0.5"/>
</g>
</svg>
