<svg width="45" height="45" viewBox="0 0 45 45" fill="none" xmlns="http://www.w3.org/2000/svg">
<path d="M8 7.75008C8 6.49028 8.49167 5.28208 9.36683 4.39127C10.242 3.50045 11.429 3 12.6667 3L31.3333 3C32.571 3 33.758 3.50045 34.6332 4.39127C35.5083 5.28208 36 6.49028 36 7.75008V39.8131C35.9999 40.0279 35.9425 40.2387 35.8341 40.4229C35.7256 40.6072 35.57 40.758 35.384 40.8594C35.198 40.9608 34.9884 41.0089 34.7776 40.9986C34.5668 40.9884 34.3627 40.9201 34.187 40.8011L22 34.1154L9.813 40.8011C9.63731 40.9201 9.4332 40.9884 9.22241 40.9986C9.01162 41.0089 8.80204 40.9608 8.616 40.8594C8.42995 40.758 8.27441 40.6072 8.16593 40.4229C8.05746 40.2387 8.00011 40.0279 8 39.8131V7.75008ZM12.6667 5.37504C12.0478 5.37504 11.4543 5.62526 11.0168 6.07067C10.5792 6.51608 10.3333 7.12018 10.3333 7.75008V37.5948L21.3537 31.7C21.5451 31.5703 21.77 31.5011 22 31.5011C22.23 31.5011 22.4549 31.5703 22.6463 31.7L33.6667 37.5948V7.75008C33.6667 7.12018 33.4208 6.51608 32.9832 6.07067C32.5457 5.62526 31.9522 5.37504 31.3333 5.37504H12.6667Z" fill="#D7D7D7" stroke="#D7D7D7" stroke-width="1.6"/>
</svg>
