<svg width="60" height="60" viewBox="0 0 60 60" fill="none" xmlns="http://www.w3.org/2000/svg">
<path d="M10.6641 10.3334C10.6641 8.6537 11.3196 7.04277 12.4865 5.85502C13.6534 4.66727 15.236 4 16.8863 4H41.7752C43.4254 4 45.0081 4.66727 46.1749 5.85502C47.3418 7.04277 47.9974 8.6537 47.9974 10.3334V53.0841C47.9972 53.3705 47.9208 53.6515 47.7761 53.8972C47.6315 54.1429 47.4241 54.344 47.1761 54.4792C46.928 54.6144 46.6486 54.6785 46.3675 54.6649C46.0865 54.6512 45.8143 54.5601 45.5801 54.4015L29.3307 45.4872L13.0814 54.4015C12.8471 54.5601 12.575 54.6512 12.2939 54.6649C12.0129 54.6785 11.7335 54.6144 11.4854 54.4792C11.2373 54.344 11.0299 54.1429 10.8853 53.8972C10.7407 53.6515 10.6642 53.3705 10.6641 53.0841V10.3334ZM16.8863 7.16672C16.0612 7.16672 15.2698 7.50035 14.6864 8.09423C14.1029 8.6881 13.7752 9.49357 13.7752 10.3334V50.1264L28.469 42.2666C28.7242 42.0937 29.0241 42.0014 29.3307 42.0014C29.6374 42.0014 29.9372 42.0937 30.1925 42.2666L44.8863 50.1264V10.3334C44.8863 9.49357 44.5585 8.6881 43.9751 8.09423C43.3916 7.50035 42.6003 7.16672 41.7752 7.16672H16.8863Z" fill="white" stroke="white" stroke-width="3"/>
</svg>
