<svg width="34" height="36" viewBox="0 0 34 36" fill="none" xmlns="http://www.w3.org/2000/svg">
<path d="M9.93912 32.323L9.38318 34.2689C9.34179 34.4136 9.33457 34.566 9.36209 34.7141C9.3896 34.8621 9.45111 35.0017 9.54175 35.122C9.63239 35.2422 9.74971 35.3398 9.88446 35.4069C10.0192 35.4741 10.1677 35.5091 10.3183 35.5092H23.661C23.8116 35.5091 23.9601 35.4741 24.0949 35.4069C24.2296 35.3398 24.3469 35.2422 24.4376 35.122C24.5282 35.0017 24.5897 34.8621 24.6172 34.7141C24.6448 34.566 24.6375 34.4136 24.5961 34.2689L24.0402 32.323C23.9822 32.1198 23.8595 31.941 23.6908 31.8137C23.5221 31.6864 23.3165 31.6175 23.1051 31.6175H10.8742C10.6629 31.6175 10.4572 31.6864 10.2885 31.8137C10.1198 31.941 9.99713 32.1198 9.93912 32.323ZM20.1319 24.9462H13.8474L12.8629 29.6717H21.1165L20.1319 24.9462ZM17.5773 11.798L16.9897 10.6055L16.402 11.798C16.3321 11.9394 16.2289 12.0617 16.1012 12.1543C15.9736 12.247 15.8254 12.3073 15.6693 12.33L14.355 12.5207L15.3063 13.448C15.4188 13.5584 15.5028 13.6944 15.5512 13.8444C15.5997 13.9944 15.611 14.1539 15.5842 14.3092L15.3618 15.6185L16.5377 15.0002C16.6772 14.9269 16.8325 14.8885 16.9902 14.8885C17.1479 14.8885 17.3032 14.9269 17.4428 15.0002L18.6186 15.6185L18.3962 14.3092C18.3695 14.1539 18.3808 13.9944 18.4292 13.8444C18.4776 13.6944 18.5617 13.5584 18.6742 13.448L19.6243 12.5207L18.31 12.33C18.154 12.3073 18.0057 12.247 17.8781 12.1543C17.7504 12.0617 17.6472 11.9394 17.5773 11.798Z" fill="#363636"/>
<path d="M29.4975 0.206055C28.5499 0.207683 27.6332 0.542846 26.908 1.15277C26.1828 1.7627 25.6954 2.60846 25.5314 3.54175H8.44598C8.27254 2.5484 7.73285 1.65623 6.93355 1.04148C6.13424 0.426722 5.13345 0.13409 4.12886 0.221391C3.12427 0.308691 2.18896 0.769575 1.50768 1.513C0.826407 2.25642 0.448715 3.22831 0.449219 4.23668V10.0741C0.450838 11.5113 1.02244 12.889 2.03863 13.9052C3.05482 14.9214 4.43261 15.493 5.86972 15.4946H7.59316C7.686 15.7443 7.78885 15.99 7.89393 16.2346C7.66596 16.9741 7.23687 17.6357 6.65459 18.1454C6.07232 18.6552 5.35978 18.993 4.5966 19.1211C4.35508 19.1606 4.13733 19.2897 3.98676 19.4827C3.8362 19.6756 3.76388 19.9182 3.78422 20.1621C3.80456 20.406 3.91607 20.6332 4.09652 20.7986C4.27696 20.9639 4.51309 21.0551 4.75782 21.0541C4.81181 21.0539 4.86571 21.0497 4.91905 21.0413C5.74836 20.9026 6.54024 20.5947 7.24543 20.1368C7.95061 19.6788 8.55401 19.0806 9.01805 18.3795C10.1295 20.1822 11.581 21.7515 13.2916 22.9999H20.6857C22.3968 21.7516 23.8487 20.1823 24.9604 18.3795C25.4245 19.0806 26.0279 19.6788 26.7331 20.1368C27.4382 20.5947 28.2301 20.9026 29.0594 21.0413C29.1128 21.0497 29.1667 21.054 29.2207 21.0541C29.4652 21.0546 29.7009 20.9629 29.881 20.7974C30.061 20.6319 30.1721 20.4047 30.1921 20.161C30.2121 19.9173 30.1397 19.6749 29.9891 19.4822C29.8386 19.2895 29.621 19.1606 29.3797 19.1211C28.6165 18.993 27.904 18.6552 27.3217 18.1454C26.7394 17.6357 26.3103 16.9741 26.0823 16.2346C26.1874 15.99 26.2903 15.7443 26.3831 15.4946H28.1077C29.5448 15.493 30.9226 14.9214 31.9387 13.9052C32.9549 12.889 33.5265 11.5113 33.5282 10.0741V4.23668C33.527 3.16805 33.102 2.14353 32.3463 1.3879C31.5907 0.632264 30.5662 0.207232 29.4975 0.206055ZM5.86972 13.5488C4.94849 13.5478 4.06529 13.1814 3.41389 12.53C2.76248 11.8786 2.39607 10.9954 2.39504 10.0741V4.23668C2.39504 3.68376 2.61469 3.15348 3.00567 2.7625C3.39664 2.37152 3.92692 2.15187 4.47985 2.15187C5.03277 2.15187 5.56305 2.37152 5.95403 2.7625C6.34501 3.15348 6.56465 3.68376 6.56465 4.23668V9.82841C6.56591 11.0814 6.71349 12.33 7.00441 13.5488H5.86972ZM22.3931 12.5364L20.3967 14.4823L20.8681 17.2303C20.8988 17.4092 20.8788 17.5932 20.8104 17.7613C20.7421 17.9295 20.628 18.0752 20.4811 18.1819C20.3343 18.2886 20.1605 18.3521 19.9794 18.3652C19.7984 18.3783 19.6172 18.3405 19.4565 18.256L16.9887 16.9585L14.5208 18.256C14.3601 18.3405 14.179 18.3783 13.998 18.3652C13.8169 18.3521 13.6431 18.2886 13.4963 18.1819C13.3494 18.0752 13.2353 17.9295 13.1669 17.7613C13.0986 17.5932 13.0786 17.4092 13.1093 17.2303L13.5807 14.4823L11.5843 12.5364C11.4543 12.4098 11.3624 12.2492 11.3188 12.073C11.2753 11.8968 11.2819 11.7119 11.338 11.5393C11.394 11.3666 11.4972 11.2131 11.636 11.0961C11.7747 10.979 11.9434 10.9031 12.123 10.8769L14.8822 10.4761L16.1164 7.97432C16.1966 7.81144 16.3209 7.67428 16.475 7.57837C16.6292 7.48245 16.8071 7.43161 16.9887 7.43161C17.1703 7.43161 17.3482 7.48245 17.5024 7.57837C17.6565 7.67428 17.7807 7.81144 17.861 7.97432L19.0952 10.4761L21.8544 10.8769C22.034 10.9031 22.2027 10.979 22.3414 11.0961C22.4802 11.2131 22.5834 11.3666 22.6394 11.5393C22.6955 11.7119 22.7021 11.8968 22.6586 12.073C22.615 12.2492 22.5231 12.4098 22.3931 12.5364ZM31.5823 10.0741C31.5813 10.9954 31.2149 11.8786 30.5635 12.53C29.9121 13.1814 29.0289 13.5478 28.1077 13.5488H26.973C27.2639 12.33 27.4115 11.0814 27.4127 9.82841V4.23668C27.4127 3.68376 27.6324 3.15348 28.0234 2.7625C28.4143 2.37152 28.9446 2.15187 29.4975 2.15187C30.0505 2.15187 30.5807 2.37152 30.9717 2.7625C31.3627 3.15348 31.5823 3.68376 31.5823 4.23668V10.0741Z" fill="#363636"/>
</svg>
