<svg width="16" height="16" viewBox="0 0 16 16" fill="none" xmlns="http://www.w3.org/2000/svg">
<path d="M10.5 2C9.6035 2 8.791 2.168 8.156 2.4845C7.5215 2.801 7 3.3165 7 4V6C7 6.0645 7.0215 6.127 7.0315 6.1875C6.53101 6.06032 6.01638 5.99732 5.5 6C4.6035 6 3.791 6.168 3.156 6.4845C2.5215 6.801 2 7.3165 2 8V12C2 12.6835 2.5215 13.199 3.1565 13.5155C3.791 13.832 4.6035 14 5.5 14C6.3965 14 7.209 13.832 7.844 13.5155C8.478 13.199 9 12.6835 9 12V11.797C9.48912 11.9292 9.99333 11.9975 10.5 12C11.3965 12 12.209 11.832 12.844 11.5155C13.478 11.199 14 10.6835 14 10V4C14 3.3165 13.4785 2.801 12.8435 2.4845C12.2095 2.168 11.397 2 10.5 2ZM10.5 3C11.2615 3 11.9395 3.164 12.3905 3.3905C12.842 3.617 13 3.8555 13 4C13 4.145 12.842 4.383 12.3905 4.6095C11.94 4.836 11.2615 5 10.5 5C9.7385 5 9.0605 4.836 8.6095 4.6095C8.158 4.383 8 4.1445 8 4C8 3.855 8.158 3.617 8.6095 3.3905C9.06 3.164 9.7385 3 10.5 3ZM8 5.422C8.0525 5.451 8.1015 5.4885 8.1565 5.5155C8.791 5.832 9.6035 6 10.5 6C11.3965 6 12.209 5.832 12.844 5.5155C12.8985 5.4885 12.9475 5.451 13 5.422V6C13 6.145 12.842 6.383 12.3905 6.6095C11.9395 6.836 11.2615 7 10.5 7C9.7385 7 9.0605 6.836 8.6095 6.6095C8.158 6.383 8 6.1445 8 6V5.422ZM5.5 7C6.2615 7 6.9395 7.164 7.3905 7.3905C7.842 7.617 8 7.8555 8 8C8 8.145 7.842 8.383 7.3905 8.6095C6.9395 8.836 6.2615 9 5.5 9C4.7385 9 4.0605 8.836 3.6095 8.6095C3.158 8.383 3 8.1445 3 8C3 7.855 3.158 7.617 3.6095 7.3905C4.06 7.164 4.7385 7 5.5 7ZM13 7.422V8C13 8.145 12.842 8.383 12.3905 8.6095C11.9395 8.836 11.2615 9 10.5 9C9.99066 9.00276 9.48419 8.92358 9 8.7655V8C9 7.9355 8.9785 7.873 8.9685 7.8125C9.4335 7.9335 9.949 8 10.5 8C11.3965 8 12.209 7.832 12.844 7.5155C12.8985 7.4885 12.9475 7.451 13 7.422ZM3 9.422C3.0525 9.451 3.1015 9.4885 3.1565 9.5155C3.791 9.832 4.6035 10 5.5 10C6.3965 10 7.209 9.832 7.844 9.5155C7.8985 9.4885 7.9475 9.451 8 9.422V10C8 10.145 7.842 10.383 7.3905 10.6095C6.9395 10.836 6.2615 11 5.5 11C4.7385 11 4.0605 10.836 3.6095 10.6095C3.158 10.383 3 10.1445 3 10V9.422ZM13 9.422V10C13 10.145 12.842 10.383 12.3905 10.6095C11.9395 10.836 11.2615 11 10.5 11C9.9315 11 9.418 10.92 9 10.781V9.8125C9.459 9.9335 9.959 10 10.5 10C11.3965 10 12.209 9.832 12.844 9.5155C12.8985 9.4885 12.9475 9.451 13 9.422ZM3 11.422C3.0525 11.451 3.1015 11.4885 3.1565 11.5155C3.791 11.832 4.6035 12 5.5 12C6.3965 12 7.209 11.832 7.844 11.5155C7.8985 11.4885 7.9475 11.451 8 11.422V12C8 12.145 7.842 12.383 7.3905 12.6095C6.9395 12.836 6.2615 13 5.5 13C4.7385 13 4.0605 12.836 3.6095 12.6095C3.158 12.383 3 12.1445 3 12V11.422Z" fill="#727272"/>
</svg>
