<svg width="16" height="16" viewBox="0 0 16 16" fill="none" xmlns="http://www.w3.org/2000/svg">
<path d="M2.00016 16.0006H11.3343C11.8647 16.0006 12.3735 15.7899 12.7486 15.4149C13.1237 15.0398 13.3344 14.5312 13.3344 14.0008V8.98794C13.3344 8.81114 13.2642 8.64159 13.1391 8.51658C13.0141 8.39157 12.8445 8.32134 12.6677 8.32134C12.4909 8.32134 12.3213 8.39157 12.1963 8.51658C12.0712 8.64159 12.001 8.81114 12.001 8.98794V14.0008C12.001 14.1776 11.9307 14.3471 11.8057 14.4721C11.6807 14.5972 11.5111 14.6674 11.3343 14.6674H2.00016C1.82334 14.6674 1.65375 14.5972 1.52872 14.4721C1.40369 14.3471 1.33344 14.1776 1.33344 14.0008V4.00176C1.33344 3.82496 1.40369 3.65541 1.52872 3.5304C1.65375 3.40539 1.82334 3.33516 2.00016 3.33516H7.68063C7.85745 3.33516 8.02703 3.26493 8.15207 3.13991C8.2771 3.0149 8.34735 2.84535 8.34735 2.66855C8.34735 2.49176 8.2771 2.32221 8.15207 2.1972C8.02703 2.07218 7.85745 2.00195 7.68063 2.00195H2.00016C1.46969 2.00195 0.960937 2.21265 0.585834 2.58768C0.210731 2.96272 0 3.47138 0 4.00176L0 14.0008C0 14.5312 0.210731 15.0398 0.585834 15.4149C0.960937 15.7899 1.46969 16.0006 2.00016 16.0006Z" fill="#727272"/>
<path d="M14.0524 0.00829572C13.8034 -0.0163081 13.5521 0.0139764 13.316 0.0970158C13.08 0.180055 12.8651 0.31383 12.6863 0.488915L6.73452 6.437C6.62839 6.54256 6.56117 6.68096 6.54384 6.82963L6.28981 8.96875C6.2787 9.06227 6.28753 9.15709 6.31573 9.24695C6.34392 9.33681 6.39084 9.41967 6.45339 9.49009C6.51594 9.5605 6.59271 9.61686 6.67863 9.65546C6.76455 9.69406 6.85767 9.71401 6.95187 9.71402C6.97816 9.7141 7.00444 9.71254 7.03054 9.70935L9.17005 9.45537C9.31874 9.43804 9.45717 9.37084 9.56275 9.26473L15.5119 3.31731C15.6867 3.13822 15.8202 2.92316 15.9032 2.68713C15.9863 2.45111 16.0168 2.1998 15.9926 1.95077C15.9469 1.45208 15.726 0.985683 15.3692 0.634235C15.0181 0.276509 14.5516 0.0547408 14.0524 0.00829572ZM14.5718 2.37406L8.78602 8.15883L7.71593 8.28549L7.84327 7.21893L13.6297 1.43416C13.8464 1.21484 14.2451 1.39549 14.4258 1.57414C14.6065 1.75279 14.7925 2.15342 14.5718 2.37406Z" fill="#727272"/>
</svg>
