<svg width="16" height="16" viewBox="0 0 16 16" fill="none" xmlns="http://www.w3.org/2000/svg">
<path d="M6.66406 5.3335H10.6641V6.22238H6.66406V5.3335Z" fill="#727272"/>
<path d="M6.66406 7.11108H10.6641V7.99997H6.66406V7.11108Z" fill="#727272"/>
<path d="M6.66406 8.88892H10.6641V9.7778H6.66406V8.88892Z" fill="#727272"/>
<path d="M6.66406 10.6665H10.6641V11.5554H6.66406V10.6665Z" fill="#727272"/>
<path d="M4.89062 3.55566H5.77951V4.44455H4.89062V3.55566Z" fill="#727272"/>
<path d="M4.89062 5.3335H5.77951V6.22238H4.89062V5.3335Z" fill="#727272"/>
<path d="M4.89062 7.11108H5.77951V7.99997H4.89062V7.11108Z" fill="#727272"/>
<path d="M4.89062 8.88892H5.77951V9.7778H4.89062V8.88892Z" fill="#727272"/>
<path d="M4.89062 10.6665H5.77951V11.5554H4.89062V10.6665Z" fill="#727272"/>
<path d="M6.66406 3.55566V4.44455H10.513C10.338 4.16935 10.2048 3.86982 10.1174 3.55566H6.66406Z" fill="#727272"/>
<path d="M12.4554 5.82745L12.3918 5.80957V5.87558V14.1722H3.60295V1.8278H10.1218H10.16L10.1701 1.79101C10.2547 1.48184 10.3845 1.18685 10.5553 0.915547L10.6035 0.838916H10.513H3.55295C3.30394 0.838916 3.06513 0.937834 2.88906 1.11391C2.71298 1.28999 2.61406 1.5288 2.61406 1.7778V14.2222C2.61406 14.4713 2.71298 14.7101 2.88906 14.8861C3.06513 15.0622 3.30394 15.1611 3.55295 15.1611H12.4418C12.6908 15.1611 12.9297 15.0622 13.1057 14.8861C13.2818 14.7101 13.3807 14.4713 13.3807 14.2222V6.00003V5.95022L13.3309 5.95003C13.0349 5.94888 12.7404 5.90765 12.4554 5.82745Z" fill="#727272" stroke="#727272" stroke-width="0.1"/>
<path d="M13.2915 2.81552L13.2915 2.81552C13.4851 2.86332 13.6544 2.93497 13.7757 3.05172C13.8987 3.1702 13.9679 3.33083 13.9682 3.54602V3.54609C13.9682 3.78013 13.8804 3.96566 13.7296 4.09714C13.5898 4.21902 13.3991 4.29172 13.1815 4.31771L13.1824 4.45808L13.1824 4.4584C13.1824 4.51198 13.1393 4.55586 13.0855 4.55586H12.9191C12.8657 4.55586 12.8223 4.51238 12.8223 4.45898V4.32075C12.5756 4.29492 12.388 4.21076 12.2567 4.08995C12.1171 3.96162 12.0444 3.79491 12.0302 3.62224M13.2915 2.81552L12.4439 3.60586L12.4933 3.59806C12.4933 3.59804 12.4933 3.59802 12.4933 3.598C12.4858 3.55033 12.4439 3.51719 12.3977 3.51719H12.127C12.0703 3.51719 12.0255 3.56545 12.0302 3.62224M13.2915 2.81552L13.2908 2.81536M13.2915 2.81552L13.2908 2.81536M12.0302 3.62224L12.0801 3.61816L12.0303 3.6224C12.0303 3.62235 12.0302 3.6223 12.0302 3.62224ZM13.2908 2.81536L13.1807 2.78977M13.2908 2.81536L13.1807 2.78977M13.9205 2.36822L13.9205 2.36822C13.9253 2.42432 13.8813 2.47402 13.8238 2.47402H13.5607C13.513 2.47402 13.4712 2.43919 13.4649 2.39015M13.9205 2.36822L13.5145 2.38359M13.9205 2.36822L13.9205 2.36759M13.9205 2.36822L13.9205 2.36759M13.4649 2.39015C13.4649 2.39003 13.4649 2.38991 13.4648 2.3898L13.5145 2.38359M13.4649 2.39015C13.4649 2.39022 13.4649 2.3903 13.4649 2.39038L13.5145 2.38359M13.4649 2.39015C13.4468 2.25877 13.3495 2.14435 13.1807 2.10288M13.5145 2.38359C13.4928 2.2257 13.3739 2.09475 13.1807 2.05154V2.10288M13.1807 2.10288V2.78977M13.1807 2.10288C13.1646 2.09894 13.148 2.09566 13.1307 2.09308L13.1807 2.78977M13.9205 2.36759C13.8831 1.98613 13.5785 1.74298 13.183 1.68824M13.9205 2.36759L13.183 1.68824M13.183 1.68824V1.54102C13.183 1.48762 13.1395 1.44414 13.0861 1.44414H12.9215C12.8681 1.44414 12.8246 1.48762 12.8246 1.54102V1.68978C12.6278 1.71569 12.4493 1.78439 12.3165 1.90006C12.1723 2.02561 12.0852 2.20371 12.0852 2.43164C12.0852 2.6435 12.1638 2.80328 12.2848 2.91902C12.4044 3.03343 12.5629 3.10261 12.7214 3.14053L13.183 1.68824ZM12.8781 3.91457V3.96504C12.861 3.96275 12.8443 3.96 12.8281 3.95681V3.90578C12.8442 3.90918 12.8608 3.91212 12.8781 3.91457ZM12.8281 3.16775L12.8658 3.17736L12.8781 3.12891H12.8281V3.16775ZM12.6406 2.19115C12.6874 2.1493 12.7512 2.11885 12.8275 2.10191V2.70083C12.8211 2.69848 12.8147 2.69605 12.8084 2.69349L12.8084 2.69346L12.8066 2.69281C12.713 2.65901 12.6489 2.6164 12.6085 2.56867C12.5688 2.52177 12.5496 2.46732 12.5496 2.4041C12.5496 2.31176 12.584 2.24188 12.6406 2.19115ZM13 0.325C11.5228 0.325 10.325 1.52278 10.325 3C10.325 4.47722 11.5228 5.675 13 5.675C14.4772 5.675 15.675 4.47722 15.675 3C15.675 1.52278 14.4772 0.325 13 0.325ZM13 5.12969C11.8241 5.12969 10.8703 4.1759 10.8703 3C10.8703 1.8241 11.8241 0.870313 13 0.870313C14.1759 0.870313 15.1297 1.8241 15.1297 3C15.1297 4.1759 14.1759 5.12969 13 5.12969ZM13.402 3.81242C13.3481 3.86025 13.2729 3.89414 13.1807 3.90996V3.24815C13.308 3.28827 13.3871 3.33399 13.4347 3.38524C13.4822 3.43632 13.5025 3.49741 13.5025 3.57773C13.5025 3.67853 13.4652 3.75642 13.402 3.81242Z" fill="#727272" stroke="#727272" stroke-width="0.1"/>
</svg>
