<svg width="16" height="16" viewBox="0 0 16 16" fill="none" xmlns="http://www.w3.org/2000/svg">
<g clip-path="url(#clip0_378_2149)">
<mask id="mask0_378_2149" style="mask-type:luminance" maskUnits="userSpaceOnUse" x="0" y="0" width="16" height="16">
<path d="M16 0H0V16H16V0Z" fill="white"/>
</mask>
<g mask="url(#mask0_378_2149)">
<path d="M12.9118 1.22935H11.8885V0.614675C11.8885 0.451654 11.8238 0.295308 11.7086 0.180034C11.5935 0.0647602 11.4374 0 11.2745 0C11.1117 0 10.9555 0.0647602 10.8403 0.180034C10.7252 0.295308 10.6606 0.451654 10.6606 0.614675V1.22935H5.33947V0.614675C5.33947 0.451654 5.27478 0.295308 5.15965 0.180034C5.0445 0.0647602 4.88834 0 4.7255 0C4.56267 0 4.4065 0.0647602 4.29136 0.180034C4.17622 0.295308 4.11154 0.451654 4.11154 0.614675V1.22935H3.08826C2.6735 1.18122 2.25322 1.22761 1.8589 1.36505C1.46457 1.50248 1.10638 1.7274 0.811144 2.02298C0.515894 2.31858 0.29123 2.67717 0.153954 3.07195C0.0166786 3.46674 -0.029656 3.88749 0.0184169 4.30273V12.9082C-0.029656 13.3234 0.0166786 13.7442 0.153954 14.139C0.29123 14.5338 0.515894 14.8923 0.811144 15.1879C1.10638 15.4835 1.46457 15.7084 1.8589 15.8458C2.25322 15.9833 2.6735 16.0297 3.08826 15.9816H12.9118C13.3265 16.0297 13.7468 15.9833 14.1411 15.8458C14.5354 15.7084 14.8936 15.4835 15.1889 15.1879C15.4841 14.8923 15.7088 14.5338 15.8461 14.139C15.9834 13.7442 16.0297 13.3234 15.9816 12.9082V4.30273C16.0297 3.88749 15.9834 3.46674 15.8461 3.07195C15.7088 2.67717 15.4841 2.31858 15.1889 2.02298C14.8936 1.7274 14.5354 1.50248 14.1411 1.36505C13.7468 1.22761 13.3265 1.18122 12.9118 1.22935ZM3.08826 2.4587H4.11154V3.07338C4.11154 3.2364 4.17622 3.39274 4.29136 3.50802C4.4065 3.6233 4.56267 3.68806 4.7255 3.68806C4.88834 3.68806 5.0445 3.6233 5.15965 3.50802C5.27478 3.39274 5.33947 3.2364 5.33947 3.07338V2.4587H10.6606V3.07338C10.6606 3.2364 10.7252 3.39274 10.8403 3.50802C10.9555 3.6233 11.1117 3.68806 11.2745 3.68806C11.4374 3.68806 11.5935 3.6233 11.7086 3.50802C11.8238 3.39274 11.8885 3.2364 11.8885 3.07338V2.4587H12.9118C14.2027 2.4587 14.7537 3.01027 14.7537 4.30273V4.9174H1.24635V4.30273C1.24635 3.01027 1.79729 2.4587 3.08826 2.4587ZM12.9118 14.7522H3.08826C1.79729 14.7522 1.24635 14.2006 1.24635 12.9082V6.14675H14.7537V12.9082C14.7537 14.2006 14.2027 14.7522 12.9118 14.7522ZM10.4804 8.6464C10.5375 8.70352 10.5827 8.77128 10.6136 8.84592C10.6445 8.92048 10.6604 9.00048 10.6604 9.0812C10.6604 9.162 10.6445 9.24192 10.6136 9.31656C10.5827 9.39112 10.5375 9.45888 10.4804 9.516L9.11744 10.8842L7.75442 12.2526C7.69752 12.3098 7.6299 12.3551 7.55545 12.3861C7.481 12.417 7.40117 12.433 7.32054 12.433C7.23992 12.433 7.16009 12.417 7.08563 12.3861C7.01118 12.3551 6.94357 12.3098 6.88667 12.2526L5.51957 10.8838C5.41112 10.7674 5.35208 10.6132 5.35488 10.454C5.35769 10.2947 5.42213 10.1428 5.53462 10.0302C5.6471 9.91752 5.79886 9.85304 5.95793 9.85024C6.11698 9.84744 6.27092 9.90656 6.38731 10.0151L7.31809 10.9462L9.61024 8.65136C9.66688 8.5936 9.7344 8.5476 9.80896 8.516C9.88344 8.48448 9.96344 8.468 10.0443 8.46752C10.1252 8.46712 10.2054 8.48264 10.2802 8.51336C10.355 8.54408 10.4231 8.58928 10.4804 8.6464Z" fill="#727272"/>
</g>
</g>
<defs>
<clipPath id="clip0_378_2149">
<rect width="16" height="16" fill="white"/>
</clipPath>
</defs>
</svg>
