<svg width="16" height="16" viewBox="0 0 16 16" fill="none" xmlns="http://www.w3.org/2000/svg">
<path d="M6.66406 3.55566H10.6641V4.44455H6.66406V3.55566Z" fill="#727272"/>
<path d="M6.66406 5.33325H10.6641V6.22214H6.66406V5.33325Z" fill="#727272"/>
<path d="M6.66406 7.11108H10.6641V7.99997H6.66406V7.11108Z" fill="#727272"/>
<path d="M6.66406 8.88892H10.6641V9.7778H6.66406V8.88892Z" fill="#727272"/>
<path d="M6.66406 10.6667H10.6641V11.5556H6.66406V10.6667Z" fill="#727272"/>
<path d="M4.89062 3.55566H5.77951V4.44455H4.89062V3.55566Z" fill="#727272"/>
<path d="M4.89062 5.33325H5.77951V6.22214H4.89062V5.33325Z" fill="#727272"/>
<path d="M4.89062 7.11108H5.77951V7.99997H4.89062V7.11108Z" fill="#727272"/>
<path d="M4.89062 8.88892H5.77951V9.7778H4.89062V8.88892Z" fill="#727272"/>
<path d="M4.89062 10.6667H5.77951V11.5556H4.89062V10.6667Z" fill="#727272"/>
<path d="M12.4418 0.838916H3.55295C3.30394 0.838916 3.06513 0.937834 2.88906 1.11391C2.71298 1.28999 2.61406 1.5288 2.61406 1.7778V14.2222C2.61406 14.4713 2.71298 14.7101 2.88906 14.8861C3.06513 15.0622 3.30394 15.1611 3.55295 15.1611H12.4418C12.6908 15.1611 12.9297 15.0622 13.1057 14.8861C13.2818 14.7101 13.3807 14.4713 13.3807 14.2222V1.7778C13.3807 1.5288 13.2818 1.28999 13.1057 1.11391C12.9297 0.937834 12.6908 0.838916 12.4418 0.838916ZM12.3918 14.1722H3.60295V1.8278H12.3918V14.1722Z" fill="#727272" stroke="#727272" stroke-width="0.1"/>
</svg>
