<svg width="23" height="23" viewBox="0 0 23 23" fill="none" xmlns="http://www.w3.org/2000/svg">
<g clip-path="url(#clip0_2437_4053)">
<path d="M18.85 3.1H16.75V2.05C16.75 1.77152 16.6394 1.50445 16.4425 1.30754C16.2455 1.11062 15.9785 1 15.7 1C15.4215 1 15.1545 1.11062 14.9575 1.30754C14.7606 1.50445 14.65 1.77152 14.65 2.05V3.1H8.35V2.05C8.35 1.77152 8.23937 1.50445 8.04246 1.30754C7.84555 1.11062 7.57848 1 7.3 1C7.02152 1 6.75445 1.11062 6.55754 1.30754C6.36062 1.50445 6.25 1.77152 6.25 2.05V3.1H4.15C3.31457 3.1 2.51335 3.43187 1.92261 4.02261C1.33187 4.61335 1 5.41457 1 6.25V18.85C1 19.6854 1.33187 20.4866 1.92261 21.0774C2.51335 21.6681 3.31457 22 4.15 22H18.85C19.6854 22 20.4866 21.6681 21.0774 21.0774C21.6681 20.4866 22 19.6854 22 18.85V6.25C22 5.41457 21.6681 4.61335 21.0774 4.02261C20.4866 3.43187 19.6854 3.1 18.85 3.1V3.1ZM19.9 18.85C19.9 19.1285 19.7894 19.3955 19.5925 19.5925C19.3955 19.7894 19.1285 19.9 18.85 19.9H4.15C3.87152 19.9 3.60445 19.7894 3.40754 19.5925C3.21062 19.3955 3.1 19.1285 3.1 18.85V11.5H19.9V18.85ZM19.9 9.4H3.1V6.25C3.1 5.97152 3.21062 5.70445 3.40754 5.50754C3.60445 5.31062 3.87152 5.2 4.15 5.2H6.25V6.25C6.25 6.52848 6.36062 6.79555 6.55754 6.99246C6.75445 7.18937 7.02152 7.3 7.3 7.3C7.57848 7.3 7.84555 7.18937 8.04246 6.99246C8.23937 6.79555 8.35 6.52848 8.35 6.25V5.2H14.65V6.25C14.65 6.52848 14.7606 6.79555 14.9575 6.99246C15.1545 7.18937 15.4215 7.3 15.7 7.3C15.9785 7.3 16.2455 7.18937 16.4425 6.99246C16.6394 6.79555 16.75 6.52848 16.75 6.25V5.2H18.85C19.1285 5.2 19.3955 5.31062 19.5925 5.50754C19.7894 5.70445 19.9 5.97152 19.9 6.25V9.4Z" fill="white" stroke="white" stroke-width="0.5"/>
</g>
<defs>
<clipPath id="clip0_2437_4053">
<rect width="23" height="23" fill="white"/>
</clipPath>
</defs>
</svg>
