<svg width="20" height="20" viewBox="0 0 20 20" fill="none" xmlns="http://www.w3.org/2000/svg">
<g opacity="0.4" clip-path="url(#clip0_378_2157)">
<path d="M2.5 20H14.1667C14.8297 20 15.4656 19.7366 15.9344 19.2678C16.4033 18.7989 16.6667 18.163 16.6667 17.5V11.2333C16.6667 11.0123 16.5789 10.8004 16.4226 10.6441C16.2663 10.4878 16.0543 10.4 15.8333 10.4C15.6123 10.4 15.4004 10.4878 15.2441 10.6441C15.0878 10.8004 15 11.0123 15 11.2333V17.5C15 17.721 14.9122 17.933 14.7559 18.0893C14.5996 18.2455 14.3877 18.3333 14.1667 18.3333H2.5C2.27899 18.3333 2.06702 18.2455 1.91074 18.0893C1.75446 17.933 1.66667 17.721 1.66667 17.5V5C1.66667 4.77899 1.75446 4.56702 1.91074 4.41074C2.06702 4.25446 2.27899 4.16667 2.5 4.16667H9.6C9.82101 4.16667 10.033 4.07887 10.1893 3.92259C10.3455 3.76631 10.4333 3.55435 10.4333 3.33333C10.4333 3.11232 10.3455 2.90036 10.1893 2.74408C10.033 2.5878 9.82101 2.5 9.6 2.5H2.5C1.83696 2.5 1.20107 2.76339 0.732233 3.23223C0.263392 3.70107 0 4.33696 0 5L0 17.5C0 18.163 0.263392 18.7989 0.732233 19.2678C1.20107 19.7366 1.83696 20 2.5 20Z" fill="white"/>
<path d="M17.5638 0.00841753C17.2526 -0.0223402 16.9384 0.0155191 16.6434 0.119329C16.3483 0.223138 16.0797 0.390372 15.8563 0.609251L8.41712 8.04508C8.28447 8.17704 8.20046 8.35007 8.17879 8.53592L7.86129 11.2101C7.8474 11.327 7.85844 11.4455 7.89368 11.5579C7.92892 11.6702 7.98756 11.7738 8.06575 11.8618C8.14393 11.9498 8.23988 12.0203 8.34727 12.0685C8.45466 12.1168 8.57106 12.1417 8.68879 12.1418C8.72166 12.1419 8.7545 12.1399 8.78712 12.1359L11.4613 11.8184C11.6471 11.7968 11.8202 11.7127 11.9521 11.5801L19.388 4.14508C19.6064 3.92121 19.7733 3.65235 19.8771 3.35729C19.9809 3.06223 20.019 2.74807 19.9888 2.43675C19.9316 1.81333 19.6556 1.23027 19.2096 0.790918C18.7708 0.343717 18.1877 0.0664795 17.5638 0.00841753ZM18.213 2.96592L10.9813 10.1976L9.64379 10.3559L9.80296 9.02258L17.0355 1.79092C17.3063 1.51675 17.8046 1.74258 18.0305 1.96592C18.2563 2.18925 18.4888 2.69008 18.213 2.96592Z" fill="white"/>
</g>
<defs>
<clipPath id="clip0_378_2157">
<rect width="20" height="20" fill="white"/>
</clipPath>
</defs>
</svg>
