<svg width="40" height="40" viewBox="0 0 40 40" fill="none" xmlns="http://www.w3.org/2000/svg">
<rect width="40" height="40" rx="20" fill="white"/>
<mask id="mask0_34_134" style="mask-type:luminance" maskUnits="userSpaceOnUse" x="9" y="9" width="23" height="22">
<path d="M32 9H9V31H32V9Z" fill="white"/>
</mask>
<g mask="url(#mask0_34_134)">
<path d="M31.4667 9L21.5977 16.4506L23.4329 12.0597L31.4667 9Z" fill="#E17726"/>
<path d="M9.55691 9.00879L17.5693 12.0603L19.3119 16.5087L9.55691 9.00879ZM27.4959 24.8453L31.8579 24.93L30.3335 30.2139L25.0108 28.7187L27.4959 24.8453ZM13.5054 24.8453L15.9812 28.7187L10.6676 30.2139L9.15234 24.93L13.5054 24.8453Z" fill="#E27625"/>
<path d="M19.0738 15.3761L19.2521 21.2504L13.918 21.0028L15.4352 18.6673L15.4545 18.6448L19.0738 15.3761ZM21.87 15.3105L25.5446 18.645L25.5637 18.6674L27.081 21.0029L21.748 21.2504L21.87 15.3105ZM16.1363 24.8629L19.0489 27.1783L15.6655 28.8449L16.1363 24.8629ZM24.8634 24.8625L25.3244 28.8449L21.9504 27.1781L24.8634 24.8625Z" fill="#E27625"/>
<path d="M22.0267 26.96L25.4504 28.6514L22.2657 30.1956L22.2988 29.175L22.0267 26.96ZM18.975 26.9607L18.7136 29.1583L18.7351 30.1944L15.543 28.6514L18.975 26.9607Z" fill="#D5BFB2"/>
<path d="M17.9833 22.0166L18.878 23.935L15.832 23.0246L17.9833 22.0166ZM23.0132 22.0168L25.1747 23.0246L22.1188 23.9347L23.0132 22.0168Z" fill="#233447"/>
<path d="M16.3696 24.8425L15.8773 28.9712L13.2383 24.9328L16.3696 24.8425ZM24.6307 24.8426L27.7622 24.9328L25.1133 28.9713L24.6307 24.8426ZM27.1586 20.7686L24.8797 23.1382L23.1226 22.319L22.2814 24.1234L21.73 21.0205L27.1586 20.7686ZM13.8404 20.7686L19.2701 21.0205L18.7186 24.1234L17.8772 22.3193L16.1295 23.1383L13.8404 20.7686Z" fill="#CC6228"/>
<path d="M13.6875 20.2821L16.2658 22.9515L16.3551 25.5869L13.6875 20.2821ZM27.3165 20.2773L24.644 25.5915L24.7447 22.9515L27.3165 20.2773ZM19.1447 20.4447L19.2485 21.1111L19.5049 22.7713L19.34 27.8703L18.5606 23.7742L18.5604 23.7318L19.1447 20.4447ZM21.8554 20.4355L22.4412 23.7318L22.441 23.7742L21.6596 27.8805L21.6287 26.8534L21.5068 22.7411L21.8554 20.4355Z" fill="#E27525"/>
<path d="M24.972 22.8457L24.8848 25.1354L22.1648 27.2975L21.615 26.9011L22.2313 23.6621L24.972 22.8457ZM16.0352 22.8457L18.7663 23.6621L19.3826 26.9011L18.8328 27.2975L16.1128 25.1352L16.0352 22.8457Z" fill="#F5841F"/>
<path d="M15.0195 28.1455L18.4994 29.8278L18.4846 29.1094L18.7758 28.8486H22.2199L22.5216 29.1085L22.4993 29.8263L25.9571 28.1497L24.2745 29.5684L22.24 30.994H18.7479L16.7147 29.5625L15.0195 28.1455Z" fill="#C0AC9D"/>
<path d="M21.7765 26.7354L22.2685 27.09L22.5568 29.437L22.1396 29.0776H18.8625L18.4531 29.4443L18.732 27.0902L19.2242 26.7354H21.7765Z" fill="#161616"/>
<path d="M30.8153 9.20605L32 12.8321L31.2601 16.4985L31.787 16.9131L31.0741 17.4681L31.6099 17.8903L30.9004 18.5494L31.336 18.8713L30.18 20.2487L25.439 18.8402L25.3979 18.8178L21.9814 15.8773L30.8153 9.20605ZM10.1847 9.20605L19.0187 15.8773L15.6021 18.8178L15.561 18.8402L10.82 20.2487L9.66404 18.8713L10.0992 18.5497L9.39019 17.8903L9.92494 17.4685L9.20134 16.912L9.74804 16.4971L9 12.8323L10.1847 9.20605Z" fill="#763E1A"/>
<path d="M25.209 18.5323L30.2324 20.0245L31.8644 25.1566H27.5588L24.5921 25.1947L26.7496 20.904L25.209 18.5323ZM15.7948 18.5323L14.2539 20.904L16.4117 25.1947L13.4464 25.1566H9.14844L10.7713 20.0246L15.7948 18.5323ZM23.6809 12.0352L22.2759 15.9071L21.9777 21.1376L21.8636 22.777L21.8545 26.9651H19.1492L19.1404 22.7849L19.026 21.1362L18.7277 15.9071L17.3228 12.0352H23.6809Z" fill="#F5841F"/>
</g>
</svg>
