<svg width="70" height="70" viewBox="0 0 70 70" fill="none" xmlns="http://www.w3.org/2000/svg">
<path d="M29.1641 15.5554H46.6641V19.4443H29.1641V15.5554Z" fill="white" fill-opacity="0.5"/>
<path d="M29.1641 23.3333H46.6641V27.2221H29.1641V23.3333Z" fill="white" fill-opacity="0.5"/>
<path d="M29.1641 31.1111H46.6641V35H29.1641V31.1111Z" fill="white" fill-opacity="0.5"/>
<path d="M29.1641 38.8889H46.6641V42.7778H29.1641V38.8889Z" fill="white" fill-opacity="0.5"/>
<path d="M29.1641 46.6667H46.6641V50.5556H29.1641V46.6667Z" fill="white" fill-opacity="0.5"/>
<path d="M21.3906 15.5554H25.2795V19.4443H21.3906V15.5554Z" fill="white" fill-opacity="0.5"/>
<path d="M21.3906 23.3333H25.2795V27.2221H21.3906V23.3333Z" fill="white" fill-opacity="0.5"/>
<path d="M21.3906 31.1111H25.2795V35H21.3906V31.1111Z" fill="white" fill-opacity="0.5"/>
<path d="M21.3906 38.8889H25.2795V42.7778H21.3906V38.8889Z" fill="white" fill-opacity="0.5"/>
<path d="M21.3906 46.6667H25.2795V50.5556H21.3906V46.6667Z" fill="white" fill-opacity="0.5"/>
<path opacity="0.5" d="M54.4418 3.88892H15.553C14.5216 3.88892 13.5324 4.29864 12.8031 5.02795C12.0738 5.75725 11.6641 6.74641 11.6641 7.7778V62.2222C11.6641 63.2536 12.0738 64.2428 12.8031 64.9721C13.5324 65.7014 14.5216 66.1111 15.553 66.1111H54.4418C55.4732 66.1111 56.4624 65.7014 57.1917 64.9721C57.921 64.2428 58.3307 63.2536 58.3307 62.2222V7.7778C58.3307 6.74641 57.921 5.75725 57.1917 5.02795C56.4624 4.29864 55.4732 3.88892 54.4418 3.88892ZM54.4418 62.2222H15.553V7.7778H54.4418V62.2222Z" fill="white" stroke="white" stroke-width="1.5"/>
</svg>
