<svg width="70" height="70" viewBox="0 0 70 70" fill="none" xmlns="http://www.w3.org/2000/svg">
<g opacity="0.4">
<path d="M34.7987 6.00257C35.1599 5.5506 35.6072 5.17477 36.1146 4.89682C36.6221 4.61887 37.1796 4.44433 37.7549 4.3833C38.3302 4.32227 38.912 4.37595 39.4664 4.54126C40.0209 4.70656 40.537 4.98019 40.985 5.34632L55.2563 17.0013C56.0411 17.6421 56.5792 18.5355 56.7786 19.5289C56.9781 20.5223 56.8266 21.5541 56.35 22.4482C55.1023 22.0669 53.8047 21.8737 52.5 21.8751H51.1875L52.4913 20.3876L44.975 14.2494L38.7756 21.8794H33.1362L41.5844 11.4844L38.2156 8.73257L27.7244 21.8751H22.1244L34.7987 6.00257V6.00257ZM45.9375 43.7501C45.3573 43.7501 44.8009 43.9805 44.3907 44.3908C43.9805 44.801 43.75 45.3574 43.75 45.9376C43.75 46.5177 43.9805 47.0741 44.3907 47.4844C44.8009 47.8946 45.3573 48.1251 45.9375 48.1251H50.3125C50.8927 48.1251 51.4491 47.8946 51.8593 47.4844C52.2695 47.0741 52.5 46.5177 52.5 45.9376C52.5 45.3574 52.2695 44.801 51.8593 44.3908C51.4491 43.9805 50.8927 43.7501 50.3125 43.7501H45.9375ZM13.125 24.0626C13.125 23.4824 13.3555 22.926 13.7657 22.5158C14.1759 22.1055 14.7323 21.8751 15.3125 21.8751H17.7538L21.2319 17.5001H15.3125C13.572 17.5001 11.9028 18.1915 10.6721 19.4222C9.4414 20.6529 8.75 22.3221 8.75 24.0626V50.3126C8.75 53.2134 9.90234 55.9954 11.9535 58.0465C14.0047 60.0977 16.7867 61.2501 19.6875 61.2501H52.5C54.8206 61.2501 57.0462 60.3282 58.6872 58.6872C60.3281 57.0463 61.25 54.8207 61.25 52.5001V35.0001C61.25 32.6794 60.3281 30.4538 58.6872 28.8129C57.0462 27.1719 54.8206 26.2501 52.5 26.2501H15.3125C14.7323 26.2501 14.1759 26.0196 13.7657 25.6094C13.3555 25.1991 13.125 24.6427 13.125 24.0626ZM13.125 50.3126V30.2532C13.8075 30.4938 14.5469 30.6251 15.3125 30.6251H52.5C53.6603 30.6251 54.7731 31.086 55.5936 31.9065C56.4141 32.7269 56.875 33.8397 56.875 35.0001V52.5001C56.875 53.6604 56.4141 54.7732 55.5936 55.5937C54.7731 56.4141 53.6603 56.8751 52.5 56.8751H19.6875C17.947 56.8751 16.2778 56.1837 15.0471 54.953C13.8164 53.7222 13.125 52.053 13.125 50.3126Z" fill="white"/>
</g>
</svg>
