<svg width="45" height="45" viewBox="0 0 45 45" fill="none" xmlns="http://www.w3.org/2000/svg">
<g clip-path="url(#clip0_914_148)">
<path d="M36.6075 27.6017H36.6225C37.83 27.6017 39.0131 27.4911 40.1587 27.2792L40.0406 27.2979C37.8919 35.0267 30.9169 40.6067 22.6388 40.6067H22.53H22.5356C12.5175 40.5954 4.39875 32.4767 4.38938 22.4586V22.4567C4.41287 18.5152 5.70833 14.6866 8.083 11.5406C10.4577 8.3947 13.7846 6.09953 17.5687 4.99669L17.6981 4.96482C17.4932 6.09006 17.3915 7.23169 17.3944 8.37544V8.38857C17.4038 18.9973 26.0006 27.5942 36.6075 27.6036H36.6094L36.6075 27.6017ZM22.5112 0.881065C22.2879 0.579681 21.9905 0.341065 21.6479 0.18832C21.3053 0.0355739 20.9291 -0.026127 20.5556 0.00919047H20.565C9.02438 1.11732 0.06375 10.7323 0 22.4548V22.4604C0.015 34.9011 10.0969 44.9829 22.5356 44.9998H22.65C34.3556 44.9998 43.9631 36.0261 44.9719 24.5829L44.9775 24.4986C45.0098 24.1424 44.9544 23.7838 44.8162 23.454C44.6779 23.1242 44.461 22.8333 44.1844 22.6067L44.1806 22.6029C43.9014 22.3732 43.5695 22.2165 43.2148 22.1468C42.86 22.0771 42.4935 22.0966 42.1481 22.2036L42.1631 22.1998L41.1806 22.4923C39.7071 22.9755 38.1657 23.2192 36.615 23.2142H36.6019C32.6732 23.2097 28.9068 21.6471 26.1288 18.8691C23.3508 16.0912 21.7882 12.3247 21.7838 8.39607V8.36232C21.7838 6.43107 22.155 4.58607 22.83 2.89669L22.7944 2.99607C22.9323 2.64647 22.978 2.26729 22.9271 1.89494C22.8762 1.52259 22.7304 1.16958 22.5037 0.869815L22.5075 0.87544L22.5112 0.881065Z" fill="#D7D7D7"/>
</g>
<defs>
<clipPath id="clip0_914_148">
<rect width="45" height="45" fill="white"/>
</clipPath>
</defs>
</svg>
