<svg width="70" height="70" viewBox="0 0 70 70" fill="none" xmlns="http://www.w3.org/2000/svg">
<path d="M36.7403 5.80893L36.6687 5.74365H36.5719H33.4219H33.3249L33.2533 5.80906L5.47202 31.1841L5.27889 31.3605L5.46385 31.5454L8.5701 34.6517L8.73856 34.8201L8.91493 34.66L12.8719 31.0671V59.0187V59.1222L12.9451 59.1954L15.1326 61.3829L15.2058 61.4562H15.3094H28.4344H28.5379L28.6112 61.3829L30.7987 59.1954L30.8719 59.1222V59.0187V43.9562H39.1219V59.0187V59.1222L39.1951 59.1954L41.3826 61.3829L41.4558 61.4562H41.5594H54.6844H54.7879L54.8612 61.3829L57.0487 59.1954L57.1219 59.1222V59.0187V31.0316L61.1227 34.6601L61.299 34.82L61.4674 34.6517L64.5737 31.5454L64.7588 31.3603L64.5653 31.1839L36.7403 5.80893ZM26.0701 41.3419L25.9969 41.4151V41.5187V56.5812H17.7469V26.6362L34.997 10.9688L52.2469 26.6101V56.5812H43.9969V41.5187V41.4151L43.9237 41.3419L41.7362 39.1544L41.6629 39.0812H41.5594H28.4344H28.3308L28.2576 39.1544L26.0701 41.3419Z" fill="#8982A5" stroke="#8982A5" stroke-width="0.5"/>
</svg>
