<svg width="70" height="70" viewBox="0 0 70 70" fill="none" xmlns="http://www.w3.org/2000/svg">
<path d="M34.9974 43.7499C36.6016 43.7499 37.9753 43.1782 39.1186 42.0349C40.26 40.8935 40.8307 39.5207 40.8307 37.9166C40.8307 36.3124 40.26 34.9387 39.1186 33.7953C37.9753 32.6539 36.6016 32.0832 34.9974 32.0832C33.3932 32.0832 32.0205 32.6539 30.8791 33.7953C29.7357 34.9387 29.1641 36.3124 29.1641 37.9166C29.1641 39.5207 29.7357 40.8935 30.8791 42.0349C32.0205 43.1782 33.3932 43.7499 34.9974 43.7499ZM51.3307 58.3332L40.9036 47.9062C40.0773 48.4409 39.1663 48.8541 38.1707 49.1457C37.1732 49.4374 36.1154 49.5832 34.9974 49.5832C31.7891 49.5832 29.0425 48.4409 26.7578 46.1562C24.4731 43.8714 23.3307 41.1249 23.3307 37.9166C23.3307 34.7082 24.4731 31.9617 26.7578 29.677C29.0425 27.3923 31.7891 26.2499 34.9974 26.2499C38.2057 26.2499 40.9523 27.3923 43.237 29.677C45.5217 31.9617 46.6641 34.7082 46.6641 37.9166C46.6641 39.0346 46.5182 40.0798 46.2266 41.052C45.9349 42.0242 45.5217 42.9235 44.987 43.7499L52.4974 51.2603V25.4478L40.9766 11.6666H17.4974V58.3332H51.3307ZM17.4974 64.1666C15.8932 64.1666 14.5205 63.5959 13.3791 62.4545C12.2357 61.3112 11.6641 59.9374 11.6641 58.3332V11.6666C11.6641 10.0624 12.2357 8.68867 13.3791 7.54533C14.5205 6.40395 15.8932 5.83325 17.4974 5.83325H41.0495C41.9245 5.83325 42.7509 6.01603 43.5286 6.38159C44.3064 6.7452 44.9627 7.26728 45.4974 7.94783L56.9453 21.7291C57.3342 22.2638 57.6628 22.8471 57.9311 23.4791C58.1975 24.111 58.3307 24.7673 58.3307 25.4478V58.3332C58.3307 59.9374 57.76 61.3112 56.6186 62.4545C55.4753 63.5959 54.1016 64.1666 52.4974 64.1666H17.4974Z" fill="#8982A5"/>
</svg>
