<svg width="18" height="18" viewBox="0 0 18 18" fill="none" xmlns="http://www.w3.org/2000/svg">
<path d="M12 6H10.5V8.25H8.25V9.75H10.5V12H12V9.75H14.25V8.25H12M1.5 9C1.5 6.9075 2.73 5.1 4.5 4.26V2.625C1.875 3.57 0 6.0675 0 9C0 11.9325 1.875 14.43 4.5 15.375V13.74C2.73 12.9 1.5 11.0925 1.5 9ZM11.25 2.25C7.53 2.25 4.5 5.28 4.5 9C4.5 12.72 7.53 15.75 11.25 15.75C14.97 15.75 18 12.72 18 9C18 5.28 14.97 2.25 11.25 2.25ZM11.25 14.25C8.355 14.25 6 11.895 6 9C6 6.105 8.355 3.75 11.25 3.75C14.145 3.75 16.5 6.105 16.5 9C16.5 11.895 14.145 14.25 11.25 14.25Z" fill="#264D89"/>
</svg>
