<svg width="13" height="13" viewBox="0 0 13 13" fill="none" xmlns="http://www.w3.org/2000/svg">
<g clip-path="url(#clip0_770_1061)">
<path d="M8.30349 8.85672L6.10742 6.66065V2.96387H6.89314V6.33458L8.85742 8.30279L8.30349 8.85672Z" fill="#7C7C7C" stroke="#7C7C7C" stroke-width="0.2"/>
<path d="M6.5 1C5.7673 1.0001 5.04208 1.14723 4.36727 1.43268C3.69246 1.71812 3.08179 2.13607 2.57143 2.66179V1H1.78571V4.14286H4.92857V3.35714H2.99571C3.73272 2.53815 4.73331 2.00317 5.8237 1.84512C6.91409 1.68706 8.0254 1.91591 8.96462 2.49193C9.90385 3.06794 10.6116 3.95474 10.9651 4.99829C11.3186 6.04184 11.2953 7.17623 10.8995 8.20444C10.5036 9.23266 9.76012 10.0897 8.79811 10.6268C7.8361 11.1639 6.71636 11.3471 5.63335 11.1446C4.55034 10.942 3.57248 10.3666 2.86961 9.5181C2.16673 8.66964 1.78323 7.60178 1.78571 6.5H1C1 7.5878 1.32257 8.65116 1.92692 9.55563C2.53126 10.4601 3.39025 11.1651 4.39524 11.5813C5.40023 11.9976 6.5061 12.1065 7.573 11.8943C8.63989 11.6821 9.6199 11.1583 10.3891 10.3891C11.1583 9.6199 11.6821 8.63989 11.8943 7.573C12.1065 6.5061 11.9976 5.40023 11.5813 4.39524C11.1651 3.39025 10.4601 2.53126 9.55563 1.92692C8.65116 1.32257 7.5878 1 6.5 1Z" fill="#7C7C7C" stroke="#7C7C7C" stroke-width="0.3"/>
</g>
<defs>
<clipPath id="clip0_770_1061">
<rect width="13" height="13" fill="white"/>
</clipPath>
</defs>
</svg>
