<svg width="19" height="18" viewBox="0 0 19 18" fill="none" xmlns="http://www.w3.org/2000/svg">
<path d="M9.11523 18C14.0858 18 18.1152 13.9706 18.1152 9C18.1152 4.02944 14.0858 0 9.11523 0C4.14467 0 0.115234 4.02944 0.115234 9C0.115234 13.9706 4.14467 18 9.11523 18Z" fill="#FF4500"/>
<path d="M15.1021 9.0858C15.1021 8.35623 14.5122 7.77679 13.7931 7.77679C13.4535 7.77632 13.1268 7.90703 12.8812 8.14164C11.9799 7.49779 10.7459 7.07943 9.37259 7.02578L9.97334 4.21462L11.9261 4.63298C11.9477 5.12657 12.3553 5.52362 12.8597 5.52362C13.3747 5.52362 13.7931 5.10526 13.7931 4.59001C13.7931 4.07505 13.3748 3.65662 12.8597 3.65662C12.495 3.65662 12.1729 3.87121 12.0227 4.18241L9.84474 3.72102C9.78034 3.71019 9.71593 3.72102 9.67297 3.75323C9.61932 3.78543 9.58719 3.83901 9.57657 3.90341L8.91113 7.0364C7.51634 7.07943 6.26091 7.49779 5.34896 8.1524C5.10333 7.9178 4.7766 7.78712 4.43694 7.78762C3.7073 7.78762 3.12793 8.37761 3.12793 9.09662C3.12793 9.63304 3.44975 10.0836 3.90052 10.2876C3.87863 10.4188 3.86786 10.5516 3.86832 10.6846C3.86832 12.7016 6.21816 14.3434 9.11511 14.3434C12.0121 14.3434 14.362 12.7124 14.362 10.6846C14.3619 10.5517 14.3511 10.4189 14.3298 10.2876C14.7803 10.0836 15.1021 9.62221 15.1021 9.0858ZM6.11073 10.0192C6.11073 9.50422 6.52909 9.0858 7.04434 9.0858C7.55931 9.0858 7.97773 9.50415 7.97773 10.0192C7.97773 10.5342 7.55938 10.9528 7.04434 10.9528C6.52916 10.9633 6.11073 10.5342 6.11073 10.0192ZM11.3361 12.4978C10.6924 13.1416 9.46913 13.1846 9.11511 13.1846C8.75033 13.1846 7.52717 13.1308 6.89394 12.4978C6.79754 12.4012 6.79754 12.251 6.89394 12.1544C6.99055 12.058 7.14073 12.058 7.23734 12.1544C7.64516 12.5623 8.50353 12.7016 9.11511 12.7016C9.72676 12.7016 10.5958 12.5622 10.9927 12.1544C11.0893 12.058 11.2395 12.058 11.3361 12.1544C11.4219 12.251 11.4219 12.4012 11.3361 12.4978ZM11.1644 10.9634C10.6493 10.9634 10.231 10.5451 10.231 10.03C10.231 9.51498 10.6493 9.09662 11.1644 9.09662C11.6795 9.09662 12.0979 9.51498 12.0979 10.03C12.0979 10.5342 11.6795 10.9634 11.1644 10.9634Z" fill="white"/>
</svg>
