<svg width="16" height="16" viewBox="0 0 16 16" fill="none" xmlns="http://www.w3.org/2000/svg">
<path d="M14.2042 8.95252C14.0972 8.93577 13.988 8.94052 13.8829 8.9665C13.7778 8.99247 13.6789 9.03913 13.5921 9.10377C13.5053 9.1684 13.4322 9.24971 13.3771 9.34293C13.3221 9.43614 13.2862 9.5394 13.2715 9.64666C13.1055 10.7754 12.5773 11.8197 11.7664 12.6223C10.7633 13.6235 9.40382 14.1859 7.98648 14.1859C6.56913 14.1859 5.20969 13.6235 4.20651 12.6223C3.20547 11.619 2.64327 10.2596 2.64327 8.84231C2.64327 7.42503 3.20547 6.06563 4.20651 5.06234C4.98784 4.27895 5.99571 3.76106 7.08754 3.58194C7.58905 3.49082 8.10139 3.47558 8.60742 3.53671C9.32289 3.62279 10.0131 3.85455 10.6356 4.21769L9.56475 4.4011C9.457 4.4179 9.35367 4.45597 9.26077 4.51308C9.16787 4.57019 9.08725 4.6452 9.02361 4.73376C8.95997 4.82232 8.91458 4.92264 8.89007 5.02891C8.86557 5.13517 8.86244 5.24525 8.88087 5.35273C8.8993 5.46021 8.93893 5.56296 8.99744 5.65498C9.05595 5.74701 9.13217 5.82648 9.22168 5.88878C9.31119 5.95107 9.41219 5.99494 9.51882 6.01784C9.62544 6.04073 9.73555 6.04219 9.84274 6.02214L12.7131 5.53196C12.9278 5.49458 13.119 5.37363 13.2448 5.19559C13.3706 5.01756 13.4207 4.79694 13.3842 4.58204L12.8932 1.7117C12.8783 1.60228 12.8416 1.49699 12.7851 1.40208C12.7287 1.30718 12.6537 1.22461 12.5647 1.1593C12.4757 1.09399 12.3744 1.04727 12.2669 1.02194C12.1595 0.996606 12.048 0.993173 11.9392 1.01184C11.8303 1.03052 11.7264 1.07091 11.6335 1.13062C11.5406 1.19033 11.4607 1.26813 11.3985 1.35938C11.3364 1.45063 11.2932 1.55347 11.2716 1.66176C11.2501 1.77005 11.2505 1.88157 11.273 1.98968L11.4013 2.74551C10.597 2.29373 9.71063 2.00712 8.79412 1.9025C8.12921 1.82232 7.45601 1.84284 6.79722 1.96337C5.37421 2.19993 4.06132 2.87709 3.04357 3.8994C0.318809 6.62499 0.318809 11.0588 3.04357 13.7852C3.69222 14.4347 4.46281 14.9496 5.31108 15.3004C6.15934 15.6511 7.06856 15.8307 7.98648 15.829C8.90439 15.8307 9.81361 15.6511 10.6619 15.3004C11.5101 14.9496 12.2807 14.4347 12.9294 13.7852C13.9906 12.733 14.6816 11.3647 14.8983 9.88599C14.9301 9.67028 14.8749 9.45077 14.7449 9.27572C14.6149 9.10067 14.4207 8.98442 14.205 8.95252H14.2042Z" fill="#8B8B8B" stroke="#8B8B8B" stroke-width="0.2"/>
</svg>
