<svg width="19" height="17" viewBox="0 0 19 17" fill="none" xmlns="http://www.w3.org/2000/svg">
<path d="M4.27234 10.8733L4.05256 14.8321L7.51126 13.3744L4.27234 10.8733ZM15.1663 3.77401C15.3197 3.57012 15.4323 3.3369 15.4974 3.08787C15.5626 2.83884 15.5791 2.57897 15.546 2.32333C15.5129 2.06769 15.4309 1.82135 15.3046 1.59861C15.1784 1.37587 15.0104 1.18115 14.8105 1.02575L13.9949 0.391238C13.1663 -0.248714 11.9926 -0.0869129 11.3567 0.754588L10.8137 1.47807L14.6422 4.4708L15.1663 3.77401ZM14.1032 5.18748L10.2753 2.1953L4.48775 9.90649L8.3249 12.8698L14.1032 5.18748ZM18.5598 16.0936H0.440161C0.19706 16.0936 0 16.2965 0 16.5468C0 16.7971 0.19706 17 0.440161 17H18.5598C18.803 17 19 16.7971 19 16.5468C19 16.2964 18.803 16.0936 18.5598 16.0936Z" fill="#8B8B8B"/>
</svg>
