<svg xmlns="http://www.w3.org/2000/svg" version="1.1" xmlns:xlink="http://www.w3.org/1999/xlink" xmlns:svgjs="http://svgjs.com/svgjs" width="512" height="512" x="0" y="0" viewBox="0 0 511 512" style="enable-background:new 0 0 512 512" xml:space="preserve" class=""><g><path fill="#ff5b5b" d="M157.086 266.195c-.324 0-.649-.011-.977-.03l-140.96-8.802a15.617 15.617 0 0 1-12.657-23.222c.738-1.32 18.504-32.645 52.336-59.965 45.719-36.914 98.867-48.887 153.695-34.621a15.622 15.622 0 0 1 10.063 22.05l-47.504 95.903a15.627 15.627 0 0 1-13.996 8.687zm0 0" data-original="#ff5b5b" class=""></path><path fill="#ff193d" d="M270.723 512a15.623 15.623 0 0 1-15.59-14.648l-8.797-140.961a15.626 15.626 0 0 1 8.656-14.973l95.903-47.508a15.618 15.618 0 0 1 13.418-.21 15.603 15.603 0 0 1 8.632 10.277c14.27 54.828 2.297 107.976-34.62 153.695-27.317 33.832-58.645 51.594-59.966 52.336a15.619 15.619 0 0 1-7.636 1.992zm0 0" data-original="#ff193d" class=""></path><path fill="#e1f1fa" d="m487.441 126.059-101-101a15.623 15.623 0 0 0-15.472-3.934c-67.614 20-123.117 51.367-164.98 93.227-8.731 8.734-17.118 18.199-24.923 28.128-22.695 28.856-41.652 62.973-56.34 101.407-9.355 24.496-16.972 50.738-22.64 77.996-9.899 47.613-10.43 81.738-10.45 83.168a15.63 15.63 0 0 0 4.575 11.238 15.626 15.626 0 0 0 11.047 4.574h.191c1.434-.015 35.559-.547 83.168-10.445 27.258-5.668 53.5-13.285 78-22.645 38.43-14.687 72.547-33.64 101.395-56.332 9.937-7.808 19.402-16.195 28.136-24.93 41.864-41.863 73.23-97.366 93.227-164.98a15.615 15.615 0 0 0-3.934-15.472zm0 0" data-original="#e1f1fa" class=""></path><path fill="#fff261" d="m201.29 386.883-75.673-75.672c-5.586-5.586-14.465-6.121-20.683-1.246a152.26 152.26 0 0 0-13.664 12.094c-52.653 52.652-54.282 134.234-54.325 137.68a15.6 15.6 0 0 0 4.575 11.241 15.605 15.605 0 0 0 11.042 4.579c.067 0 .133 0 .2-.004 3.445-.043 85.031-1.672 137.68-54.325a152.26 152.26 0 0 0 12.093-13.664c4.875-6.218 4.34-15.097-1.246-20.683zm0 0" data-original="#fff261" class=""></path><path fill="#1b3b6b" d="m125.934 240.762-46.426 46.43a15.607 15.607 0 0 0 0 22.085l123.715 123.715c2.925 2.93 6.898 4.574 11.043 4.574s8.113-1.644 11.043-4.574l46.425-46.426zm0 0" data-original="#1b3b6b" class=""></path><path fill="#06ccab" d="M328.602 231.55c-12.727 0-24.696-4.956-33.696-13.956-18.578-18.578-18.578-48.805 0-67.387 9-9 20.969-13.957 33.696-13.957 12.726 0 24.695 4.957 33.695 13.957s13.957 20.965 13.957 33.695c0 12.727-4.957 24.692-13.957 33.692s-20.969 13.957-33.695 13.957zm0 0" data-original="#06ccab" class=""></path><path fill="#1b3b6b" d="M328.598 246.828c-16.809 0-32.61-6.547-44.493-18.43-24.535-24.535-24.535-64.457 0-88.992 11.883-11.883 27.688-18.43 44.493-18.43 16.808 0 32.609 6.547 44.496 18.43 11.886 11.887 18.43 27.688 18.43 44.496s-6.544 32.61-18.43 44.496c-11.887 11.883-27.688 18.43-44.496 18.43zm0-94.613c-8.461 0-16.422 3.297-22.407 9.281-12.351 12.356-12.351 32.457 0 44.813 5.985 5.984 13.946 9.28 22.407 9.28 8.464 0 16.422-3.296 22.406-9.28s9.281-13.942 9.281-22.407-3.297-16.422-9.281-22.406-13.942-9.281-22.406-9.281zm0 0" data-original="#1b3b6b" class=""></path><path fill="#ff5b5b" d="M507.926 4.578c-2.98-2.98-7.059-4.656-11.246-4.574-2.317.027-57.532.957-125.711 21.121l120.406 120.406c20.164-68.18 21.094-123.394 21.121-125.71a15.613 15.613 0 0 0-4.57-11.243zm0 0" data-original="#ff5b5b" class=""></path><path fill="#cdebfc" d="m487.441 126.059-50.5-50.5-340.73 340.73a15.617 15.617 0 0 0 11.043 4.574h.195c1.43-.015 35.555-.547 83.168-10.445 27.258-5.668 53.496-13.285 77.996-22.645 38.434-14.687 72.551-33.64 101.399-56.332 9.933-7.808 19.402-16.195 28.133-24.93 41.863-41.863 73.23-97.366 93.226-164.98a15.604 15.604 0 0 0-3.93-15.472zm0 0" data-original="#cdebfc" class=""></path><path fill="#fdbf00" d="m201.29 386.883-37.837-37.836L41.516 470.98v.004a15.633 15.633 0 0 0 11.047 4.575h.195c3.449-.043 85.031-1.676 137.683-54.329a151.615 151.615 0 0 0 12.09-13.664c4.88-6.218 4.348-15.097-1.242-20.683zm0 0" data-original="#fdbf00"></path><path fill="#001035" d="m198.836 313.664-57.473 57.473 61.86 61.86a15.62 15.62 0 0 0 22.086 0l46.425-46.43zm0 0" data-original="#001035" class=""></path><path fill="#1cadb5" d="M362.297 150.207h-.004l-67.387 67.387h.004c8.996 9 20.965 13.957 33.692 13.957 12.726 0 24.695-4.957 33.695-13.957s13.957-20.965 13.957-33.692c-.004-12.726-4.957-24.695-13.957-33.695zm0 0" data-original="#1cadb5" class=""></path><path fill="#001035" d="m373.094 139.406-22.09 22.09c5.984 5.984 9.281 13.941 9.281 22.406s-3.297 16.422-9.281 22.407-13.941 9.28-22.406 9.28-16.422-3.296-22.407-9.28v-.004l-22.09 22.09v.003c11.887 11.883 27.688 18.43 44.497 18.43s32.609-6.547 44.496-18.43c11.883-11.886 18.43-27.687 18.43-44.496s-6.547-32.609-18.43-44.496zm0 0" data-original="#001035" class=""></path><path fill="#ff193d" d="m507.922 4.574-76.75 76.754 60.203 60.203c20.164-68.18 21.094-123.394 21.121-125.71a15.616 15.616 0 0 0-4.574-11.247zm0 0" data-original="#ff193d" class=""></path></g></svg>