<svg width="31" height="31" viewBox="0 0 31 31" fill="none" xmlns="http://www.w3.org/2000/svg">
<path d="M15.014 0C6.7563 0 0 6.7563 0 15.014C0 23.2717 6.7563 30.028 15.014 30.028C23.2717 30.028 30.028 23.2717 30.028 15.014C30.028 6.7563 23.2717 0 15.014 0ZM9.66527 22.521C8.44538 22.521 7.507 21.5826 7.507 20.3627C7.507 19.1429 8.44538 18.2045 9.66527 18.2045C10.8852 18.2045 11.8235 19.1429 11.8235 20.3627C11.8235 21.5826 10.8852 22.521 9.66527 22.521ZM15.1078 22.521C15.1078 18.2983 11.7297 14.9202 7.507 14.9202V12.5742C12.9496 12.5742 17.4538 16.9846 17.4538 22.521H15.1078ZM20.1751 22.521C20.1751 15.4832 14.451 9.85294 7.507 9.85294V7.507C15.7647 7.507 22.521 14.2633 22.521 22.521H20.1751Z" fill="white"/>
</svg>
