<svg width="17" height="17" viewBox="0 0 17 17" fill="none" xmlns="http://www.w3.org/2000/svg">
<path d="M10.9239 11.1063L16.4326 16.5972M12.7358 6.73535C12.7358 10.1254 9.98165 12.8735 6.58422 12.8735C3.18678 12.8735 0.432617 10.1254 0.432617 6.73535C0.432617 3.34533 3.18678 0.597168 6.58422 0.597168C9.98165 0.597168 12.7358 3.34533 12.7358 6.73535Z" stroke="white" stroke-width="0.8" stroke-linecap="round"/>
<path d="M10.9239 11.1063L16.4326 16.5972M12.7358 6.73535C12.7358 10.1254 9.98165 12.8735 6.58422 12.8735C3.18678 12.8735 0.432617 10.1254 0.432617 6.73535C0.432617 3.34533 3.18678 0.597168 6.58422 0.597168C9.98165 0.597168 12.7358 3.34533 12.7358 6.73535Z" stroke="#002358" stroke-width="0.8" stroke-linecap="round"/>
</svg>
