<svg width="16" height="16" viewBox="0 0 16 16" fill="none" xmlns="http://www.w3.org/2000/svg">
<path d="M7.37923 5.33595L7.5019 5.33261H12.5019C13.0552 5.33257 13.5876 5.54421 13.9898 5.92415C14.3921 6.30409 14.6337 6.82353 14.6652 7.37595L14.6686 7.49928V12.4993C14.6686 13.0527 14.4569 13.5852 14.0768 13.9874C13.6967 14.3897 13.1771 14.6313 12.6246 14.6626L12.5019 14.6659H7.5019C6.94848 14.666 6.41601 14.4542 6.01375 14.0742C5.61148 13.6941 5.3699 13.1745 5.33857 12.6219L5.33523 12.4999V7.49995C5.3352 6.94652 5.54694 6.41406 5.92702 6.01179C6.30709 5.60952 6.8267 5.36795 7.37923 5.33661V5.33595ZM12.5019 6.33261H7.5019C7.20911 6.33262 6.92702 6.44273 6.71164 6.64107C6.49626 6.83941 6.36333 7.11148 6.33923 7.40328L6.33523 7.49928V12.4993C6.33526 12.7922 6.44545 13.0744 6.64393 13.2898C6.84241 13.5052 7.11465 13.638 7.40657 13.6619L7.5019 13.6659H12.5019C12.7948 13.6659 13.077 13.5557 13.2924 13.3572C13.5078 13.1588 13.6406 12.8865 13.6646 12.5946L13.6686 12.4993V7.49928C13.6686 7.18986 13.5457 6.89311 13.3269 6.67432C13.1081 6.45553 12.8113 6.33261 12.5019 6.33261V6.33261ZM10.0019 7.33328C10.1345 7.33328 10.2617 7.38596 10.3555 7.47973C10.4492 7.5735 10.5019 7.70067 10.5019 7.83328V9.49861H12.1686C12.3012 9.49861 12.4284 9.55129 12.5221 9.64506C12.6159 9.73883 12.6686 9.86601 12.6686 9.99861C12.6686 10.1312 12.6159 10.2584 12.5221 10.3522C12.4284 10.4459 12.3012 10.4986 12.1686 10.4986H10.5019V12.1666C10.5019 12.2992 10.4492 12.4264 10.3555 12.5202C10.2617 12.6139 10.1345 12.6666 10.0019 12.6666C9.86929 12.6666 9.74212 12.6139 9.64835 12.5202C9.55458 12.4264 9.5019 12.2992 9.5019 12.1666V10.4986H7.83523C7.70263 10.4986 7.57545 10.4459 7.48168 10.3522C7.38791 10.2584 7.33523 10.1312 7.33523 9.99861C7.33523 9.86601 7.38791 9.73883 7.48168 9.64506C7.57545 9.55129 7.70263 9.49861 7.83523 9.49861H9.5019V7.83328C9.5019 7.70067 9.55458 7.5735 9.64835 7.47973C9.74212 7.38596 9.86929 7.33328 10.0019 7.33328ZM10.3899 2.82195L10.4246 2.93995L10.8866 4.66528H9.85123L9.45923 3.19861C9.41962 3.05054 9.35122 2.91173 9.25794 2.7901C9.16466 2.66847 9.04833 2.56642 8.91559 2.48977C8.78285 2.41313 8.6363 2.36339 8.48433 2.3434C8.33236 2.32341 8.17794 2.33356 8.0299 2.37328L3.20057 3.66795C2.91865 3.74355 2.67531 3.92207 2.51857 4.16829C2.36183 4.41451 2.30308 4.71053 2.3539 4.99795L2.37523 5.09661L3.6699 9.92595C3.73063 10.1529 3.85845 10.3562 4.03664 10.5093C4.21482 10.6624 4.43507 10.7581 4.66857 10.7839V11.7879C4.23512 11.7621 3.81941 11.6067 3.4753 11.3419C3.13119 11.0771 2.87453 10.715 2.73857 10.3026L2.7039 10.1853L1.4099 5.35528C1.26657 4.82086 1.33312 4.25186 1.59592 3.76495C1.85871 3.27803 2.29783 2.91011 2.82323 2.73661L2.9419 2.70195L7.77123 1.40795C8.30565 1.26462 8.87466 1.33117 9.36157 1.59397C9.84848 1.85676 10.2164 2.29588 10.3899 2.82128V2.82195Z" fill="#727272" stroke="#727272" stroke-width="0.2"/>
</svg>
