<svg width="19" height="18" viewBox="0 0 19 18" fill="none" xmlns="http://www.w3.org/2000/svg">
<path d="M1.65557 9.44109L1.66656 9.45208L3.68244 11.358C3.2646 12.0214 3.34157 12.9121 3.92068 13.4912C4.25055 13.821 4.67938 13.986 5.10821 13.9933C5.12287 14.4331 5.29881 14.8693 5.63601 15.2065C5.96954 15.54 6.41304 15.727 6.88585 15.7343C6.89318 16.1888 7.06911 16.6359 7.41364 16.9841C8.08438 17.6842 9.29391 17.6842 9.96831 16.9841L11.0642 15.8882L11.3098 16.1338C12.0208 16.8448 13.1827 16.8448 13.8938 16.1338L13.9084 16.1191C14.253 15.7746 14.4289 15.3274 14.4436 14.873C14.9164 14.8766 15.3855 14.697 15.7447 14.3378L15.7594 14.3232C16.1002 13.9823 16.2908 13.5315 16.2945 13.0477C16.7563 13.044 17.2145 12.8644 17.5663 12.5125L17.581 12.4979C18.292 11.7868 18.292 10.625 17.581 9.9139L17.3941 9.72697L17.4894 9.63168C22.0599 4.66529 15.2646 -2.12271 10.3018 2.44416L9.36355 3.38246L8.52421 2.56512C6.62562 0.677522 3.54683 0.677522 1.65557 2.56878C-0.239356 4.4637 -0.239356 7.54616 1.65557 9.44109ZM16.7856 11.7355C16.4997 12.0214 16.0379 12.0214 15.7557 11.7355L14.7478 10.7276C14.4655 10.4564 14.4655 9.96888 14.7478 9.69765L14.7624 9.68299C15.0337 9.40077 15.5211 9.40077 15.7924 9.68299L16.8003 10.6909C17.0862 10.9768 17.0862 11.4386 16.8003 11.7209L16.7856 11.7355ZM13.9304 13.5608L12.2811 11.9115C11.9988 11.6402 11.9988 11.1527 12.2811 10.8815L12.2957 10.8669C12.5816 10.581 13.0434 10.581 13.3257 10.8669L13.9634 11.5046L14.9713 12.5125C15.2536 12.7838 15.2536 13.2712 14.9713 13.5425L14.9567 13.5571C14.6781 13.843 14.2163 13.843 13.9304 13.5608ZM12.0795 15.3568L11.4271 14.7044C11.1448 14.4331 11.1448 13.9457 11.4271 13.6744L11.4417 13.6598C11.7276 13.3739 12.1894 13.3739 12.4717 13.6598L13.1241 14.3122C13.41 14.5981 13.41 15.0599 13.1241 15.3421L13.1094 15.3568C12.8272 15.639 12.3654 15.639 12.0795 15.3568ZM4.69771 11.8381L8.46923 8.06662C8.48756 8.0483 8.52054 8.0483 8.53887 8.06662L9.1473 8.67505C9.88034 9.44109 11.2035 9.44109 11.9365 8.67505C12.7099 7.93468 12.6989 6.5932 11.9145 5.86382L10.1516 4.15216L11.0789 3.22486C12.6329 1.6708 15.1583 1.6708 16.7123 3.22486C18.2664 4.77891 18.2664 7.30426 16.7123 8.85831L16.617 8.95361L16.5694 8.90596C15.8877 8.19857 14.6635 8.19857 13.9854 8.90596L13.9707 8.92062C13.7508 9.14054 13.5969 9.40443 13.5126 9.69032C12.8492 9.41909 12.0612 9.55104 11.526 10.0862L11.5114 10.1008C10.881 10.7056 10.8003 11.7612 11.3171 12.4576C11.0825 12.5455 10.859 12.6848 10.6684 12.8754L10.6537 12.8901C10.0856 13.4399 9.95365 14.3672 10.3385 15.0562L9.19128 16.2034C8.92738 16.4783 8.45457 16.4783 8.19067 16.2034C7.91211 15.9249 7.91578 15.4741 8.19434 15.1992L9.21327 14.1802C9.42952 13.964 9.42952 13.6194 9.21327 13.4032C8.99702 13.187 8.65249 13.187 8.43624 13.4032L7.41364 14.4258C7.14975 14.7007 6.67693 14.7007 6.41304 14.4258C6.13814 14.1509 6.13814 13.7037 6.41304 13.4252L7.44297 12.3953C7.65921 12.179 7.65921 11.8345 7.44297 11.6182C7.22672 11.402 6.88218 11.402 6.66594 11.6182L5.57736 12.7068C5.33546 12.9487 4.94328 12.9487 4.70137 12.7068C4.4558 12.4722 4.4558 12.0801 4.69771 11.8381ZM2.4326 3.34947C3.89869 1.88338 6.28842 1.88338 7.75451 3.3568L11.1485 6.65551C11.3171 6.82045 11.4124 7.04036 11.4161 7.27493C11.4234 8.05563 10.4778 8.44781 9.92432 7.89802L9.3159 7.2896C8.88707 6.84244 8.12103 6.84244 7.6922 7.2896L4.43015 10.5517L2.42893 8.65673C0.966505 7.1943 0.966505 4.8119 2.4326 3.34947Z" fill="#676767"/>
</svg>
