<svg width="17" height="13" viewBox="0 0 17 13" fill="none" xmlns="http://www.w3.org/2000/svg">
<path d="M1.03136 6.75286L3.96134 9.68284C4.02891 9.7528 4.10974 9.80861 4.19911 9.847C4.28848 9.88539 4.38459 9.90559 4.48185 9.90644C4.57911 9.90728 4.67557 9.88875 4.76559 9.85192C4.85561 9.81509 4.9374 9.7607 5.00617 9.69192C5.07495 9.62315 5.12934 9.54136 5.16617 9.45134C5.203 9.36132 5.22153 9.26487 5.22069 9.16761C5.21984 9.07034 5.19963 8.97423 5.16125 8.88486C5.12286 8.79549 5.06705 8.71467 4.99709 8.64709L2.58498 6.23499L4.99709 3.82288C5.06705 3.75531 5.12286 3.67448 5.16125 3.58511C5.19963 3.49574 5.21984 3.39963 5.22069 3.30237C5.22153 3.20511 5.203 3.10865 5.16617 3.01863C5.12934 2.92861 5.07495 2.84682 5.00617 2.77805C4.9374 2.70927 4.85561 2.65488 4.76559 2.61805C4.67557 2.58122 4.57911 2.56269 4.48185 2.56353C4.38459 2.56438 4.28848 2.58458 4.19911 2.62297C4.10974 2.66136 4.02891 2.71717 3.96134 2.78713L1.03136 5.71711C0.894038 5.85447 0.816895 6.04075 0.816895 6.23499C0.816895 6.42922 0.894038 6.6155 1.03136 6.75286ZM13.787 2.78713C13.7195 2.71717 13.6386 2.66136 13.5493 2.62297C13.4599 2.58458 13.3638 2.56438 13.2665 2.56353C13.1693 2.56269 13.0728 2.58122 12.9828 2.61805C12.8928 2.65488 12.811 2.70927 12.7422 2.77805C12.6734 2.84682 12.619 2.92861 12.5822 3.01863C12.5454 3.10865 12.5269 3.20511 12.5277 3.30237C12.5285 3.39963 12.5488 3.49574 12.5871 3.58511C12.6255 3.67448 12.6813 3.75531 12.7513 3.82288L15.1634 6.23499L12.7513 8.64709C12.6813 8.71467 12.6255 8.79549 12.5871 8.88486C12.5488 8.97423 12.5285 9.07034 12.5277 9.16761C12.5269 9.26487 12.5454 9.36132 12.5822 9.45134C12.619 9.54136 12.6734 9.62315 12.7422 9.69192C12.811 9.7607 12.8928 9.81509 12.9828 9.85192C13.0728 9.88875 13.1693 9.90728 13.2665 9.90644C13.3638 9.90559 13.4599 9.88539 13.5493 9.847C13.6386 9.80861 13.7195 9.7528 13.787 9.68284L16.717 6.75286C16.8543 6.6155 16.9315 6.42922 16.9315 6.23499C16.9315 6.04075 16.8543 5.85447 16.717 5.71711L13.787 2.78713ZM9.63525 0.90681L6.70527 11.1618C6.65193 11.3484 6.6749 11.5487 6.76912 11.7184C6.86335 11.8882 7.02112 12.0136 7.20776 12.0671C7.27339 12.0852 7.34112 12.0946 7.4092 12.095C7.56838 12.0948 7.72319 12.0429 7.8502 11.9469C7.97722 11.851 8.06951 11.7163 8.11313 11.5632L11.0431 1.30822C11.0737 1.21457 11.085 1.11572 11.0764 1.01759C11.0679 0.91946 11.0396 0.82406 10.9934 0.737098C10.9471 0.650136 10.8838 0.573398 10.8072 0.511475C10.7306 0.449551 10.6423 0.403714 10.5476 0.376706C10.4528 0.349697 10.3536 0.342072 10.2559 0.354286C10.1581 0.3665 10.0639 0.398302 9.9787 0.44779C9.89353 0.497279 9.81922 0.563436 9.76021 0.642306C9.70119 0.721176 9.6587 0.811138 9.63525 0.90681Z" fill="#676767"/>
</svg>
