<svg width="24" height="29" viewBox="0 0 24 29" fill="none" xmlns="http://www.w3.org/2000/svg">
<path d="M15.4689 2.73639C15.0139 2.64818 14.7121 2.21179 14.8003 1.75218C14.8885 1.29721 15.3249 0.995447 15.7845 1.08365L15.4689 2.73639ZM17.8412 1.86824L16.6202 3.01958L16.9591 3.23778L16.9127 3.22385L16.8616 3.20528L16.8105 3.18671L16.7641 3.16814L16.662 3.131L16.5598 3.09386L16.4577 3.05672L16.3509 3.01958L16.2442 2.98244L16.1374 2.9453L16.0863 2.92673L16.0352 2.90816L15.9795 2.88959L15.9285 2.87102L15.8774 2.85245L15.831 2.83853L15.7845 2.8246L15.7381 2.81067L15.6917 2.79674L15.6499 2.78281L15.6128 2.77353L15.5756 2.76424L15.5385 2.75496L15.506 2.74567L15.4828 2.74103L15.4596 2.73639L15.7753 1.08365L15.831 1.09294L15.8913 1.10687L15.947 1.1208L16.0027 1.13472L16.0585 1.14865L16.1188 1.16722L16.1745 1.18579L16.2302 1.20436L16.2859 1.22293L16.3416 1.2415L16.402 1.26007L16.4624 1.27864L16.5181 1.29721L16.5738 1.31578L16.6295 1.33435L16.6898 1.35756L16.8013 1.39935L16.9127 1.44113L17.0241 1.48291L17.1309 1.52005L17.2284 1.55719L17.3212 1.58969L17.3676 1.60826L17.4094 1.62219L17.4466 1.63611L17.4837 1.65004L17.8226 1.86824H17.8412ZM17.5023 1.65004C17.9433 1.7986 18.1754 2.27678 18.0269 2.71782C17.8783 3.15886 17.4001 3.39098 16.9591 3.24242L17.4976 1.65004H17.5023ZM22.6276 6.975L21.3973 8.11706L21.1002 7.79673L20.8031 7.4764L20.506 7.15606L20.2089 6.83573L19.9117 6.5154L19.6146 6.19506L19.3175 5.87937L19.0204 5.56368L18.7233 5.24799L18.4261 4.9323L18.129 4.61661L17.8319 4.30092L17.5348 3.98523L17.233 3.66489L16.9312 3.34456L16.6295 3.02423L17.8505 1.87288L18.1522 2.19322L18.454 2.51355L18.7558 2.83388L19.0575 3.15422L19.3593 3.47455L19.6564 3.79024L19.9535 4.11057L20.2506 4.42626L20.5478 4.7466L20.8449 5.06693L21.142 5.38726L21.4391 5.7076L21.7362 6.02793L22.0334 6.34827L22.3305 6.6686L22.6276 6.98893V6.975ZM22.6276 6.975C22.9433 7.31391 22.9247 7.8478 22.5858 8.16349C22.2469 8.47918 21.713 8.46061 21.3973 8.12171L22.6276 6.97965V6.975ZM23.779 10.8747H22.0984V10.7262V10.5869V10.4569V10.3269V10.2062V10.0901V9.98335V9.88122V9.78372V9.69088L22.0937 9.60267L22.0891 9.52374L22.0844 9.44946L22.0752 9.37518L22.0659 9.30555L22.0566 9.24055L22.0427 9.1802L22.0287 9.11984L22.0102 9.05949L21.9916 8.99914L21.9684 8.94343L21.9405 8.88308L21.9127 8.82272L21.8802 8.75773L21.843 8.69273L21.7966 8.6231L21.7455 8.54882L21.6898 8.46989L21.6248 8.38633L21.5552 8.29812L21.4763 8.20527L21.3881 8.10778L22.6183 6.96572L22.7297 7.09107L22.8365 7.21177L22.934 7.33248L23.0269 7.45318L23.1151 7.57389L23.1986 7.69459L23.2729 7.8153L23.3426 7.936L23.4076 8.05671L23.4679 8.17741L23.5236 8.30276L23.57 8.42811L23.6118 8.54882L23.649 8.66952L23.6815 8.79023L23.7093 8.91558L23.7279 9.03628L23.7465 9.15699L23.7604 9.27305L23.7697 9.38911L23.7743 9.50982L23.779 9.62588L23.7836 9.74194V9.858V9.97407V10.0948V10.2155V10.3362V10.4615V10.5915V10.7215V10.8561L23.779 10.8747ZM23.779 10.8747C23.779 11.339 23.4029 11.715 22.9387 11.715C22.4744 11.715 22.0984 11.339 22.0984 10.8747H23.779ZM22.0984 19.4123V10.8747H23.779V19.4123H22.0984ZM23.779 19.4123C23.779 19.8765 23.4029 20.2526 22.9387 20.2526C22.4744 20.2526 22.0984 19.8765 22.0984 19.4123H23.779ZM22.3258 26.1532L20.9981 25.1226L21.1188 24.9647L21.2302 24.8069L21.3323 24.6491L21.4252 24.4958L21.5088 24.3426L21.5877 24.1894L21.6573 24.0362L21.7223 23.883L21.778 23.7298L21.8291 23.572L21.8755 23.4141L21.9173 23.2563L21.9544 23.0938L21.9869 22.9267L22.0148 22.7596L22.038 22.5924L22.0566 22.4206L22.0752 22.2442L22.0891 22.0678L22.0984 21.8868L22.1076 21.7011L22.1123 21.5107L22.1169 21.3204V21.1254V20.9258V20.7215V20.5126V20.3037L22.1123 20.0901V19.8719V19.6491V19.4216H23.7929V19.6398V19.8533V20.0669L23.7975 20.2804V20.494V20.7076V20.9165V21.1254V21.3343L23.7929 21.5432L23.7882 21.7521L23.779 21.961L23.765 22.17L23.7511 22.3789L23.7325 22.5878L23.7093 22.7967L23.6815 23.0102L23.6443 23.2238L23.6025 23.4327L23.5561 23.6463L23.5004 23.8598L23.4401 24.0734L23.3704 24.2869L23.2915 24.5005L23.2033 24.714L23.1058 24.923L23.0037 25.1319L22.8876 25.3408L22.7622 25.5497L22.6276 25.7586L22.4837 25.9629L22.3305 26.1672L22.3258 26.1532ZM22.3258 26.1532C22.0427 26.52 21.5134 26.585 21.1466 26.3018C20.7799 26.0186 20.7149 25.4893 20.9981 25.1226L22.3258 26.1532ZM18.3054 28.3909L17.7901 26.7893L17.8783 26.766L18.0315 26.7335L18.1801 26.701L18.324 26.6685L18.4633 26.6407L18.5933 26.6128L18.7186 26.5803L18.8393 26.5525L18.9554 26.52L19.0668 26.4875L19.1736 26.455L19.2757 26.4225L19.3732 26.39L19.4661 26.3575L19.5543 26.3204L19.6378 26.2832L19.7214 26.2461L19.8003 26.2043L19.8792 26.1625L19.9535 26.1161L20.0278 26.0697L20.1067 26.0186L20.181 25.9629L20.2553 25.9025L20.3342 25.8375L20.4131 25.7679L20.4921 25.6936L20.571 25.6147L20.6545 25.5265L20.7381 25.4336L20.8263 25.3315L20.9145 25.2247L21.0074 25.1087L22.3351 26.1393L22.2237 26.2786L22.1123 26.4132L22.0009 26.5432L21.8895 26.6639L21.778 26.7846L21.662 26.9007L21.5459 27.0074L21.4298 27.1096L21.3138 27.2071L21.1931 27.2999L21.0724 27.3881L20.9517 27.4717L20.831 27.5506L20.7056 27.6249L20.5803 27.6945L20.4549 27.7595L20.3249 27.8199L20.1949 27.8756L20.0649 27.9267L19.935 27.9731L19.8003 28.0195L19.6657 28.0613L19.5311 28.1031L19.3964 28.1402L19.2571 28.1774L19.1179 28.2099L18.9786 28.2424L18.8347 28.2749L18.6861 28.3074L18.5376 28.3399L18.3844 28.3723L18.2265 28.4048L18.3147 28.3816L18.3054 28.3909ZM18.2172 28.4141C17.7623 28.507 17.3166 28.2145 17.2237 27.7595C17.1309 27.3046 17.4234 26.8589 17.8783 26.766L18.2172 28.4141ZM17.8551 28.4327L17.3351 26.8357L17.5951 26.7939H17.6416H17.674H17.7112H17.7483H17.7669H17.7808H17.7948H17.7994H17.7901H17.7808H17.7762L17.7855 26.7893H17.7762H17.7808L17.7901 26.7846H17.7948L18.3101 28.3863L18.2822 28.3956L18.259 28.4002L18.2311 28.4095L18.194 28.4188L18.1662 28.4281L18.1476 28.4327L18.1151 28.4373L18.0826 28.442L18.064 28.4466L18.0269 28.4513L17.9897 28.4559L17.9665 28.4606H17.9433H17.9201H17.8969H17.869H17.8226H17.7855H17.7483H17.7112H17.688H17.6648H17.6323H17.6044L17.8644 28.4188L17.8551 28.4327ZM17.5951 28.4745C17.1309 28.4745 16.7548 28.0984 16.7548 27.6342C16.7548 27.1699 17.1309 26.7939 17.5951 26.7939V28.4745ZM6.30453 28.507L6.53666 26.8403L6.4206 26.831H6.58308H6.78271H7.02412L7.29803 26.8357L7.94334 26.8403L8.70007 26.8496L9.54037 26.8589L10.441 26.8682L10.9053 26.8728L11.3788 26.8775L11.857 26.8821L12.3352 26.8867H12.8087H13.2776H13.7372H14.1829H14.6146H15.0325L15.4271 26.8821L15.7985 26.8775L16.142 26.8728L16.4531 26.8682L16.7316 26.8589L16.973 26.8496L17.168 26.8403L17.3119 26.831L17.3909 26.8217L17.3398 26.8357L17.8598 28.4327L17.6508 28.4791L17.4744 28.5023L17.2794 28.5163L17.052 28.5302L16.792 28.5395L16.4995 28.5488L16.1745 28.5534L15.8217 28.558L15.4456 28.5627L15.0464 28.5673H14.6286H14.1922H13.7418H13.2776H12.8087H12.3352L11.857 28.5627L11.3788 28.558L10.9053 28.5534L10.4364 28.5488L9.53572 28.5395L8.69543 28.5302L7.9387 28.5209L7.29339 28.5163L7.01948 28.5116H6.78271H6.58773H6.43452L6.31846 28.5023L6.30453 28.507ZM6.4206 28.5163C5.95635 28.5163 5.5803 28.1402 5.5803 27.676C5.5803 27.2117 5.95635 26.8357 6.4206 26.8357V28.5163ZM2.46982 27.1931L3.5051 25.87L3.57938 25.9257L3.65366 25.9815L3.72794 26.0325L3.80686 26.0836L3.88114 26.13L3.96006 26.1718L4.03899 26.2136L4.11791 26.2554L4.19683 26.2925L4.2804 26.3296L4.36396 26.3668L4.44753 26.3993L4.53109 26.4318L4.6193 26.4643L4.71215 26.4921L4.805 26.52L4.89785 26.5478L4.99534 26.5711L5.09284 26.5943L5.19033 26.6175L5.29247 26.6407L5.3946 26.6639L5.49674 26.6825L5.60351 26.701L5.71493 26.7196L5.82635 26.7382L5.93777 26.7568L6.05384 26.7753L6.1699 26.7939L6.29061 26.8125L6.41131 26.831L6.53202 26.8496L6.29989 28.5163L6.17454 28.4977L6.0492 28.4791L5.92385 28.4606L5.7985 28.442L5.67315 28.4234L5.55245 28.4048L5.4271 28.3863L5.30639 28.3631L5.18569 28.3399L5.06034 28.3166L4.93963 28.2934L4.81893 28.2656L4.69822 28.2377L4.57752 28.2052L4.45681 28.1727L4.33611 28.1402L4.2154 28.1031L4.0947 28.0659L3.97399 28.0242L3.85329 27.9777L3.73258 27.9313L3.61652 27.8802L3.50046 27.8292L3.37975 27.7735L3.26369 27.7131L3.14762 27.6528L3.03156 27.5878L2.9155 27.5181L2.80408 27.4438L2.69266 27.3649L2.58124 27.286L2.46982 27.2024V27.1931ZM2.46982 27.1931C2.10306 26.91 2.03806 26.3807 2.3259 26.014C2.60909 25.6472 3.13834 25.5822 3.5051 25.87L2.46982 27.1931ZM0.385329 23.9573L1.99628 23.4838V23.4791L2.02414 23.5673L2.05199 23.6556L2.07985 23.7438L2.11234 23.832L2.14484 23.9155L2.17734 23.9991L2.21448 24.0827L2.25162 24.1662L2.28876 24.2498L2.3259 24.3334L2.36768 24.4169L2.40946 24.5005L2.45125 24.5794L2.49767 24.6583L2.5441 24.7373L2.59052 24.8162L2.63695 24.8905L2.68802 24.9694L2.73908 25.0437L2.79015 25.1133L2.84122 25.1829L2.89693 25.2526L2.95264 25.3222L3.00835 25.3872L3.06406 25.4522L3.12441 25.5172L3.18476 25.5776L3.24512 25.6379L3.30547 25.6936L3.37046 25.7493L3.43546 25.805L3.50046 25.8561L2.46517 27.1792L2.36768 27.1003L2.27019 27.0167L2.17734 26.9332L2.08449 26.8496L1.99628 26.7614L1.90807 26.6732L1.82451 26.5803L1.74094 26.4875L1.66202 26.3946L1.5831 26.2971L1.50882 26.1997L1.43454 26.1022L1.36026 26L1.29062 25.8979L1.22562 25.7958L1.16063 25.6936L1.09563 25.5868L1.03528 25.4801L0.974928 25.3733L0.919218 25.2665L0.863508 25.1597L0.81244 25.0529L0.761372 24.9415L0.710305 24.8301L0.663879 24.7187L0.617454 24.6073L0.575672 24.4958L0.533889 24.3844L0.496749 24.273L0.459609 24.1616L0.422469 24.0502L0.389971 23.9387V23.9341L0.385329 23.9573ZM0.385329 23.962C0.255338 23.5163 0.506034 23.0474 0.951715 22.9174C1.3974 22.7874 1.86629 23.0381 1.99628 23.4838L0.385329 23.962ZM-0.00464246 19.6769L1.67595 19.6676V19.9415V20.2108V20.3408V20.4708V20.6008V20.7261V20.8515V20.9815L1.68059 21.1068L1.68523 21.2322L1.68988 21.3575L1.69452 21.4782L1.69916 21.5989L1.7038 21.7196L1.71309 21.8357L1.72237 21.9518L1.73166 22.0678L1.74094 22.1839L1.75487 22.2999L1.7688 22.4114L1.78273 22.5228L1.8013 22.6342L1.81987 22.7456L1.83844 22.857L1.85701 22.9638L1.88022 23.0706L1.90343 23.1774L1.93129 23.2842L1.95914 23.3909L1.987 23.4977L0.376044 23.9712L0.338904 23.8366L0.301763 23.702L0.269266 23.5673L0.236768 23.4327L0.208913 23.2981L0.181058 23.1634L0.157846 23.0288L0.134633 22.8942L0.116063 22.7596L0.0974928 22.6249L0.0789228 22.4903L0.0649952 22.3557L0.0510677 22.221L0.0417827 22.0864L0.0324976 21.9518L0.0232126 21.8171L0.0139276 21.6825L0.00928508 21.5479L0.00464257 21.4132L5.30854e-08 21.2786L-0.00464246 21.144L-0.00928497 21.0093V20.8793V20.7447V20.6101V20.4754V20.3408V20.2062V19.9369V19.6676L-0.00464246 19.6769ZM-0.00464246 19.6769C-0.00464246 19.2127 0.366759 18.8366 0.83101 18.832C1.29526 18.832 1.6713 19.2034 1.67595 19.6676L-0.00464246 19.6769ZM0.0278551 14.2405H1.70844V14.3937V14.5934V14.8301L1.7038 15.104L1.69916 15.4104L1.69452 15.7447L1.68988 16.1022L1.68523 16.4782L1.68059 16.8728L1.67595 17.2767L1.6713 17.6853V18.0985V18.3027V18.507V18.7066V18.9063V19.1012V19.2962V19.4866V19.6723L-0.00928497 19.6816V19.4959V19.3055V19.1105V18.9109V18.7113V18.507V18.3027V18.0985V17.6853L-0.00464246 17.2721L5.30854e-08 16.8682L0.00464257 16.4736L0.00928508 16.0929L0.0139276 15.7354L0.0185701 15.4012L0.0232126 15.0948L0.0278551 14.8209V14.5841V14.3937V14.2498V14.2405ZM0.0278551 14.2405C0.0278551 13.7763 0.403899 13.4002 0.86815 13.4002C1.3324 13.4002 1.70844 13.7763 1.70844 14.2405H0.0278551ZM0.0417827 7.2907L1.72237 7.30927V7.50425V7.71316V7.93136V8.15884L1.71773 8.64167V9.15234V9.68159V10.2201V10.7587V11.2879V11.8032V12.2907V12.7456V13.1588V13.5256V13.832V14.0734V14.2405H0.0371402V14.078V13.8366V13.5302V13.1635V12.7503V12.2953V11.8032V11.2879V10.7587V10.2201V9.68159V9.15234V8.64167L0.0417827 8.1542V7.92208V7.69924V7.48568V7.28605V7.2907ZM0.0417827 7.2907C0.0464252 6.82644 0.427111 6.45504 0.891363 6.45969C1.35561 6.46433 1.72702 6.84501 1.72237 7.30927L0.0417827 7.2907ZM0.0742803 6.09757L1.74559 6.28327L1.74094 6.3297L1.74559 6.31112V6.30184V6.29255V6.32041V6.35291V6.39469V6.44576V6.50147V6.56646V6.64074V6.71967V6.80323V6.89608V6.98893V7.09107V7.19784V7.30927L0.0649952 7.2907V7.17928V7.0725V6.97036V6.87287V6.78002V6.69181V6.60825V6.53397V6.45969V6.39469V6.33434V6.27863L0.0696378 6.22756L0.0742803 6.18578V6.15792L0.0789228 6.12078L0.0835653 6.09293L0.0882078 6.05579L0.0835653 6.10221L0.0742803 6.09757ZM0.0789228 6.05114C0.157846 5.59154 0.589599 5.28513 1.04921 5.36405C1.50882 5.44298 1.81522 5.87473 1.7363 6.33434L0.0789228 6.05579V6.05114ZM1.22562 2.69925L2.60445 3.66025L2.55338 3.73453L2.50231 3.80881L2.45589 3.88309L2.41411 3.95737L2.37232 4.03165L2.33054 4.10593L2.2934 4.18021L2.25626 4.25449L2.21912 4.32877L2.18662 4.40305L2.15413 4.47733L2.12627 4.55161L2.09377 4.63054L2.06592 4.70946L2.03806 4.78838L2.01485 4.8673L1.99164 4.94623L1.96843 5.02979L1.94521 5.10871L1.92664 5.19228L1.90807 5.27584L1.8895 5.35941L1.87093 5.44762L1.85236 5.53583L1.83379 5.62403L1.81987 5.71224L1.80594 5.80509L1.79201 5.89794L1.77808 5.99079L1.76416 6.08364L1.75023 6.18113L1.74094 6.27863L0.0696378 6.09293L0.0835653 5.98151L0.0974928 5.87473L0.11142 5.76331L0.125348 5.65189L0.143918 5.54511L0.162488 5.43833L0.181058 5.32691L0.199628 5.22013L0.218198 5.11336L0.241411 5.00658L0.264623 4.8998L0.287836 4.79302L0.315691 4.68625L0.343546 4.57947L0.376044 4.47269L0.408541 4.36591L0.441039 4.25913L0.478179 4.15236L0.515319 4.04558L0.552459 3.94344L0.594242 3.83667L0.640667 3.72989L0.687092 3.62775L0.73816 3.52562L0.789227 3.41884L0.844938 3.31206L0.900648 3.20993L0.961 3.10779L1.026 3.00101L1.09099 2.89888L1.15599 2.79674L1.22562 2.69461V2.69925ZM1.22562 2.69925C1.49025 2.31856 2.01485 2.22571 2.39554 2.49034C2.77622 2.75496 2.86907 3.27956 2.60445 3.66025L1.22562 2.69925ZM6.3556 0.136582L6.88021 1.73361L6.62022 1.77539H6.46702L6.31382 1.78003L6.16062 1.78932L6.01205 1.80324L5.86349 1.82181L5.71493 1.84038L5.56637 1.8636L5.42246 1.89145L5.27854 1.92395L5.13462 1.95645L4.99534 1.99359L4.86071 2.03537L4.72608 2.0818L4.59145 2.12822L4.46146 2.17929L4.33147 2.235L4.20612 2.29535L4.08077 2.36035L3.96006 2.42998L3.83936 2.49962L3.7233 2.5739L3.60723 2.65282L3.49581 2.73639L3.38439 2.8246L3.27761 2.91745L3.17548 3.0103L3.07334 3.10779L2.97585 3.20993L2.87836 3.3167L2.78551 3.42812L2.6973 3.54419L2.60909 3.66489L1.23027 2.70389L1.35097 2.53676L1.47632 2.37427L1.60631 2.21643L1.74094 2.06787L1.88022 1.92395L2.02414 1.78467L2.1727 1.65004L2.32126 1.52469L2.47446 1.40399L2.63231 1.28793L2.79015 1.17651L2.95264 1.06973L3.11977 0.972234L3.2869 0.879384L3.45867 0.791176L3.63045 0.707611L3.80686 0.633331L3.98328 0.563693L4.16433 0.498698L4.34539 0.438345L4.53109 0.382635L4.71679 0.331568L4.90249 0.285143L5.08819 0.24336L5.27854 0.210862L5.46888 0.183007L5.65922 0.159795L5.84957 0.141225L6.03991 0.127297L6.23025 0.118012L6.42524 0.11337H6.62022L6.36024 0.155152L6.3556 0.136582ZM6.61558 0.0947995C7.07983 0.0947995 7.45588 0.470843 7.45588 0.935094C7.45588 1.39935 7.07983 1.77539 6.61558 1.77539V0.0947995ZM15.1578 0.090157L14.6703 1.69647L14.9118 1.73361H14.7864H14.6332H14.4521H14.2479L13.7651 1.72896L13.2033 1.72432L12.5812 1.71968L11.9127 1.71504L11.5691 1.71039L11.221 1.70575L10.8681 1.70111H10.5153H10.1671H9.82356H9.48466H9.15504H8.8347H8.5283L8.23582 1.70575L7.96191 1.71039L7.71122 1.71504L7.47909 1.71968L7.27482 1.72896L7.0984 1.73825L6.95448 1.74753L6.85235 1.75682L6.80592 1.76146L6.86628 1.74289L6.34167 0.145867L6.53202 0.099442L6.68058 0.0808719L6.83842 0.0669444L7.01484 0.0576594L7.21447 0.0483743L7.43731 0.0390893L7.67872 0.0344468L7.94334 0.0298043L8.22189 0.0251618L8.51901 0.0205193H8.83006H9.15504H9.4893H9.83284H10.181H10.5339H10.8867L11.2395 0.0251618L11.5877 0.0298043L11.9313 0.0344468L12.5998 0.0390893L13.2219 0.0437318L13.7836 0.0483743L14.2664 0.0530168H14.4707H14.6471H14.7957H14.9118L15.1532 0.090157H15.1578ZM14.9164 0.0530168C15.3806 0.0530168 15.7567 0.42906 15.7567 0.893312C15.7567 1.35756 15.3806 1.73361 14.9164 1.73361V0.0530168ZM15.0835 1.82181L14.6703 1.69647L15.1578 0.090157L15.571 0.215505L16.0585 0.600833L15.0835 1.82181ZM15.571 0.215505C16.0167 0.350138 16.2674 0.819032 16.1327 1.26471C15.9981 1.71039 15.5292 1.96109 15.0835 1.82646L15.571 0.220147V0.215505ZM16.3277 2.37427L14.9071 1.47827L14.7818 1.98895V1.99359V1.97966V1.96573V1.95645L14.7771 1.94252L14.7725 1.92395L14.7678 1.90538L14.7632 1.88681L14.7586 1.8636L14.7539 1.84038L14.7446 1.81717L14.74 1.79396L14.7307 1.77075L14.7214 1.74753L14.7121 1.71968L14.7028 1.68718L14.6982 1.66861L14.6889 1.6454L14.6796 1.61754L14.6703 1.59433L14.6611 1.57112L14.6518 1.54791L14.6425 1.52934L14.6332 1.51077L14.6239 1.4922L14.6193 1.47827L14.6146 1.46898L14.61 1.45506L14.6007 1.44113L16.0585 0.605476L16.0817 0.647259L16.1002 0.684399L16.1142 0.712254L16.1327 0.749394L16.1513 0.786534L16.1699 0.823674L16.1838 0.856172L16.1977 0.893312L16.2117 0.930452L16.2256 0.967592L16.2395 1.00473L16.2534 1.04187L16.2674 1.07901L16.2813 1.11615L16.2952 1.15794L16.3045 1.19043L16.3184 1.22757L16.3324 1.26936L16.3463 1.31114L16.3556 1.35292L16.3649 1.3947L16.3741 1.43649L16.3834 1.47363L16.3927 1.51541L16.402 1.55719L16.4113 1.59897L16.4206 1.64076L16.4299 1.68718L16.4345 1.72432L16.4391 1.76146L16.4438 1.81253L16.4484 1.85895L16.3231 2.36963L16.3277 2.37427ZM16.4531 1.8636C16.4856 2.32785 16.142 2.73175 15.6778 2.76424C15.2135 2.79674 14.8096 2.4532 14.7771 1.98895L16.4531 1.8636ZM16.2117 2.2025L14.5311 2.22571L14.7771 1.61754L14.8003 1.59433L14.8189 1.57576L14.8375 1.55719L14.8514 1.54326L14.8653 1.52934L14.8746 1.52005L14.8793 1.51541V1.52005L14.8839 1.51077L14.8932 1.49684L14.9025 1.48291L16.3231 2.37892L16.2999 2.41606L16.2813 2.44855L16.2581 2.48105L16.2349 2.51819L16.207 2.55533L16.1838 2.58319L16.1559 2.61568L16.1281 2.64818L16.1049 2.67139L16.077 2.69925L16.0538 2.72246L16.0399 2.73639L16.0213 2.75496L16.0027 2.77353L15.9842 2.7921L15.9656 2.81067L16.2117 2.2025ZM15.9656 2.81067C15.636 3.14029 15.1067 3.13565 14.7771 2.81067C14.4475 2.48105 14.4521 1.9518 14.7771 1.62219L15.9656 2.81067ZM14.5682 4.63054L14.5357 2.22571L16.2163 2.2025L16.2488 4.60732L14.5682 4.63054ZM16.2488 4.60732C16.2534 5.07157 15.882 5.45226 15.4224 5.4569C14.9582 5.46154 14.5775 5.09014 14.5728 4.63054L16.2534 4.60732H16.2488ZM16.5784 6.4829L15.0742 7.23498L15.0371 7.15606L15 7.07714L14.9675 6.99357L14.935 6.91001L14.9071 6.83109L14.8793 6.74752L14.8514 6.66396L14.8282 6.58503L14.805 6.50147L14.7818 6.4179L14.7632 6.33434L14.7446 6.25077L14.7261 6.16721L14.7075 6.08364L14.6936 6.00008L14.6796 5.91651L14.6657 5.83295L14.6518 5.74938L14.6378 5.66582L14.6286 5.58225L14.6193 5.49869L14.61 5.41512L14.6007 5.33155L14.5961 5.25263L14.5914 5.17371L14.5868 5.09479L14.5821 5.01586L14.5775 4.94158L14.5728 4.86266V4.78838L14.5682 4.7141V4.63982L16.2488 4.61197V4.66768V4.72803V4.78838L16.2534 4.84873L16.2581 4.91373L16.2627 4.97872L16.2674 5.04372L16.272 5.10871L16.2767 5.17835L16.2813 5.24335L16.2906 5.30834L16.2999 5.37798L16.3092 5.44298L16.3184 5.50797L16.3277 5.57297L16.337 5.63796L16.3463 5.70296L16.3602 5.76795L16.3741 5.83295L16.3881 5.8933L16.402 5.95365L16.4159 6.014L16.4299 6.07436L16.4438 6.13007L16.4624 6.18578L16.4763 6.23685L16.4949 6.28327L16.5134 6.3297L16.532 6.37612L16.5506 6.4179L16.5691 6.45504L16.5877 6.48754L16.5784 6.4829ZM16.5784 6.4829C16.7873 6.89608 16.6156 7.40211 16.2024 7.61103C15.7892 7.81994 15.2832 7.64817 15.0742 7.23498L16.5784 6.4829ZM18.8765 8.05207L18.5283 9.69552L18.3983 9.66766L18.2683 9.63516L18.1383 9.60267L18.013 9.56553L17.8876 9.52839L17.7623 9.4866L17.6369 9.44018L17.5116 9.39375L17.3909 9.34269L17.2655 9.28698L17.1448 9.23127L17.0241 9.17091L16.908 9.10592L16.7873 9.04092L16.6713 8.97128L16.5598 8.897L16.4484 8.81808L16.337 8.73916L16.2302 8.65559L16.1234 8.56739L16.0213 8.47454L15.9192 8.38169L15.8217 8.28419L15.7242 8.18206L15.6313 8.07528L15.5431 7.96386L15.4596 7.85244L15.376 7.73638L15.2971 7.61567L15.2228 7.49032L15.1485 7.36498L15.0789 7.23498L16.5831 6.4829L16.6248 6.56182L16.6713 6.64074L16.7177 6.71502L16.7641 6.78466L16.8152 6.8543L16.8663 6.92394L16.9173 6.98893L16.973 7.05393L17.0287 7.11428L17.0891 7.17463L17.1494 7.23498L17.2144 7.2907L17.2794 7.34641L17.3491 7.39747L17.4187 7.44854L17.4883 7.49961L17.5626 7.54603L17.6369 7.59246L17.7112 7.63424L17.7901 7.67602L17.8737 7.71781L17.9572 7.75495L18.0408 7.79209L18.129 7.82923L18.2172 7.86172L18.3054 7.89422L18.3983 7.92672L18.4911 7.95457L18.5886 7.98243L18.6815 8.00564L18.779 8.02886L18.8765 8.05207ZM18.8765 8.05207C19.3314 8.14956 19.6193 8.59524 19.5264 9.05021C19.4289 9.50517 18.9832 9.79301 18.5283 9.70016L18.8765 8.05671V8.05207Z" fill="#002358"/>
<path d="M12.5023 13.2331C12.7019 12.8153 13.2033 12.6389 13.6211 12.8385C14.039 13.0381 14.2154 13.5395 14.0157 13.9573L12.5023 13.2331ZM9.47072 19.5655L12.5023 13.2331L14.0157 13.9573L10.9842 20.2897L9.47072 19.5655ZM10.9842 20.2897C10.7846 20.7076 10.2832 20.884 9.86534 20.6843C9.44751 20.4847 9.2711 19.9833 9.47072 19.5655L10.9842 20.2897Z" fill="#002358"/>
<path d="M6.34632 13.2703C6.66665 12.936 7.20054 12.9221 7.5348 13.2424C7.86906 13.5627 7.88299 14.0966 7.56266 14.4309L6.34632 13.2703ZM3.57474 16.1765L6.34632 13.2703L7.56266 14.4309L4.79108 17.3371L3.64437 17.4021L3.57474 16.1765ZM4.79108 17.3371C4.47074 17.6714 3.93685 17.6853 3.60259 17.3649C3.26833 17.0446 3.2544 16.5107 3.57474 16.1765L4.79108 17.3371ZM6.62487 19.8812L3.64437 17.4021L4.72144 16.1115L7.70193 18.5906L6.62487 19.8812ZM7.70193 18.5906C8.0594 18.8877 8.10583 19.4169 7.80871 19.7744C7.51159 20.1319 6.98234 20.1783 6.62487 19.8812L7.70193 18.5906Z" fill="#002358"/>
<path d="M16.8755 20.1969C16.5552 20.5311 16.0213 20.5451 15.6871 20.2247C15.3528 19.9044 15.3389 19.3705 15.6592 19.0363L16.8755 20.1969ZM19.6471 17.2907L16.8755 20.1969L15.6592 19.0363L18.4308 16.13L19.5775 16.065L19.6471 17.2907ZM18.4308 16.13C18.7511 15.7958 19.285 15.7819 19.6193 16.1022C19.9535 16.4225 19.9674 16.9564 19.6471 17.2907L18.4308 16.13ZM16.597 13.5859L19.5775 16.065L18.5004 17.3557L15.5199 14.8766L16.597 13.5859ZM15.5199 14.8766C15.1624 14.5794 15.116 14.0502 15.4131 13.6927C15.7103 13.3352 16.2395 13.2888 16.597 13.5859L15.5199 14.8766Z" fill="#002358"/>
</svg>
