<svg width="192" height="98" viewBox="0 0 192 98" fill="none" xmlns="http://www.w3.org/2000/svg">
<path d="M189.487 95.8128C189.487 70.9532 179.612 47.1119 162.033 29.5335C144.455 11.9551 120.613 2.07971 95.7539 2.07971C70.8944 2.07971 47.053 11.9551 29.4746 29.5335C11.8962 47.1119 2.02082 70.9532 2.02081 95.8128L95.7539 95.8128H189.487Z" fill="url(#paint0_linear_1425_880)"/>
<path fill-rule="evenodd" clip-rule="evenodd" d="M28.0604 28.1193C46.0138 10.1658 70.3639 0.07971 95.7539 0.0797119C121.144 0.0797138 145.494 10.1659 163.447 28.1193C181.401 46.0727 191.487 70.4228 191.487 95.8128V97.8128L0.020813 97.8128L0.0208132 95.8128C0.020817 70.4228 10.107 46.0727 28.0604 28.1193ZM95.7539 4.07971C71.4248 4.07971 48.0921 13.7444 30.8888 30.9477C14.1575 47.679 4.55678 70.208 4.04259 93.8128L187.465 93.8128C186.951 70.2081 177.35 47.6791 160.619 30.9477C143.416 13.7444 120.083 4.07971 95.7539 4.07971Z" fill="white"/>
<rect x="3.43298" y="90.6936" width="6.17826" height="0.529566" fill="white"/>
<rect x="6.05383" y="71.9823" width="6.17826" height="0.529566" transform="rotate(16.4105 6.05383 71.9823)" fill="white"/>
<rect x="3.85254" y="84.3286" width="6.17826" height="0.529566" transform="rotate(7.22066 3.85254 84.3286)" fill="white"/>
<rect x="7.83691" y="65.9806" width="6.17826" height="0.529566" transform="rotate(18.432 7.83691 65.9806)" fill="white"/>
<rect x="4.7785" y="77.8075" width="6.17826" height="0.529566" transform="rotate(11.9709 4.7785 77.8075)" fill="white"/>
<rect x="10.2169" y="59.8252" width="6.17826" height="0.529566" transform="rotate(23.1822 10.2169 59.8252)" fill="white"/>
<rect x="13.3044" y="53.7777" width="6.17826" height="0.529566" transform="rotate(27.9499 13.3044 53.7777)" fill="white"/>
<rect x="16.0527" y="49.0344" width="6.17826" height="0.529566" transform="rotate(28.4559 16.0527 49.0344)" fill="white"/>
<rect x="53.6707" y="13.5167" width="6.17826" height="0.529566" transform="rotate(59.9911 53.6707 13.5167)" fill="white"/>
<rect x="70.4785" y="6.78662" width="6.17826" height="0.529566" transform="rotate(76.4016 70.4785 6.78662)" fill="white"/>
<rect x="58.6862" y="11.0554" width="6.17826" height="0.529566" transform="rotate(67.2118 58.6862 11.0554)" fill="white"/>
<rect x="76.5674" y="5.3291" width="6.17826" height="0.529566" transform="rotate(78.4231 76.5674 5.3291)" fill="white"/>
<rect x="64.7962" y="8.5957" width="6.17826" height="0.529566" transform="rotate(71.962 64.7962 8.5957)" fill="white"/>
<rect x="83.0878" y="4.3114" width="6.17826" height="0.529566" transform="rotate(83.1733 83.0878 4.3114)" fill="white"/>
<rect x="89.8689" y="3.31543" width="6.17826" height="0.529566" transform="rotate(87.941 89.8689 3.31543)" fill="white"/>
<rect x="95.3508" y="3.31543" width="6.17826" height="0.529566" transform="rotate(88.447 95.3508 3.31543)" fill="white"/>
<rect x="145.819" y="18.2762" width="6.17826" height="0.529566" transform="rotate(120.235 145.819 18.2762)" fill="white"/>
<rect x="160.665" y="29.9626" width="6.17826" height="0.529566" transform="rotate(136.646 160.665 29.9626)" fill="white"/>
<rect x="151.107" y="21.8439" width="6.17826" height="0.529566" transform="rotate(127.456 151.107 21.8439)" fill="white"/>
<rect x="164.953" y="34.5254" width="6.17826" height="0.529566" transform="rotate(138.667 164.953 34.5254)" fill="white"/>
<rect x="156.275" y="25.9275" width="6.17826" height="0.529566" transform="rotate(132.206 156.275 25.9275)" fill="white"/>
<rect x="169.072" y="39.681" width="6.17826" height="0.529566" transform="rotate(143.417 169.072 39.681)" fill="white"/>
<rect x="172.742" y="45.3938" width="6.17826" height="0.529566" transform="rotate(148.185 172.742 45.3938)" fill="white"/>
<rect x="175.456" y="50.1566" width="6.17826" height="0.529566" transform="rotate(148.691 175.456 50.1566)" fill="white"/>
<rect x="18.5319" y="45.1035" width="6.17826" height="0.529566" transform="rotate(30.7922 18.5319 45.1035)" fill="white"/>
<rect x="30.3621" y="30.3716" width="6.17826" height="0.529566" transform="rotate(47.2028 30.3621 30.3716)" fill="white"/>
<rect x="22.1508" y="39.8506" width="6.17826" height="0.529566" transform="rotate(38.0129 22.1508 39.8506)" fill="white"/>
<rect x="34.9662" y="26.1287" width="6.17826" height="0.529566" transform="rotate(49.2242 34.9662 26.1287)" fill="white"/>
<rect x="26.2845" y="34.7227" width="6.17826" height="0.529566" transform="rotate(42.7631 26.2845 34.7227)" fill="white"/>
<rect x="40.1617" y="22.0596" width="6.17826" height="0.529566" transform="rotate(53.9744 40.1617 22.0596)" fill="white"/>
<rect x="45.3683" y="17.9667" width="6.17826" height="0.529566" transform="rotate(58.7421 45.3683 17.9667)" fill="white"/>
<rect x="49.4307" y="15.4952" width="6.17826" height="0.529566" transform="rotate(59.2481 49.4307 15.4952)" fill="white"/>
<rect x="99.9948" y="3.65625" width="6.17826" height="0.529566" transform="rotate(90.7833 99.9948 3.65625)" fill="white"/>
<rect x="118.916" y="6.47266" width="6.17826" height="0.529566" transform="rotate(107.194 118.916 6.47266)" fill="white"/>
<rect x="106.353" y="4.16296" width="6.17826" height="0.529566" transform="rotate(98.004 106.353 4.16296)" fill="white"/>
<rect x="124.589" y="8.07922" width="6.17826" height="0.529566" transform="rotate(109.215 124.589 8.07922)" fill="white"/>
<rect x="112.861" y="5.17798" width="6.17826" height="0.529566" transform="rotate(102.754 112.861 5.17798)" fill="white"/>
<rect x="130.698" y="10.4148" width="6.17826" height="0.529566" transform="rotate(113.966 130.698 10.4148)" fill="white"/>
<rect x="136.434" y="13.1021" width="6.17826" height="0.529566" transform="rotate(118.733 136.434 13.1021)" fill="white"/>
<rect x="141.422" y="15.7539" width="6.17826" height="0.529566" transform="rotate(119.239 141.422 15.7539)" fill="white"/>
<rect x="177.604" y="54.2781" width="6.17826" height="0.529566" transform="rotate(151.027 177.604 54.2781)" fill="white"/>
<rect x="184.375" y="71.9174" width="6.17826" height="0.529566" transform="rotate(167.438 184.375 71.9174)" fill="white"/>
<rect x="180.32" y="60.0498" width="6.17826" height="0.529566" transform="rotate(158.248 180.32 60.0498)" fill="white"/>
<rect x="185.722" y="78.0315" width="6.17826" height="0.529566" transform="rotate(169.459 185.722 78.0315)" fill="white"/>
<rect x="182.669" y="66.2032" width="6.17826" height="0.529566" transform="rotate(162.998 182.669 66.2032)" fill="white"/>
<rect x="186.622" y="84.5695" width="6.17826" height="0.529566" transform="rotate(174.21 186.622 84.5695)" fill="white"/>
<rect x="187.536" y="91.1285" width="6.17826" height="0.529566" transform="rotate(178.977 187.536 91.1285)" fill="white"/>
<rect x="187.575" y="96.6707" width="6.17826" height="0.529566" transform="rotate(179.483 187.575 96.6707)" fill="white"/>
<defs>
<linearGradient id="paint0_linear_1425_880" x1="95.7539" y1="2.07971" x2="95.7539" y2="189.546" gradientUnits="userSpaceOnUse">
<stop stop-color="#DF233D"/>
<stop offset="0.489583" stop-color="white"/>
</linearGradient>
</defs>
</svg>
