<svg width="192" height="98" viewBox="0 0 192 98" fill="none" xmlns="http://www.w3.org/2000/svg">
<path d="M189.769 95.8128C189.769 70.9532 179.893 47.1119 162.315 29.5335C144.736 11.9551 120.895 2.07971 96.0355 2.07971C71.176 2.07971 47.3346 11.9551 29.7562 29.5335C12.1779 47.1119 2.30243 70.9532 2.30243 95.8128L96.0355 95.8128H189.769Z" fill="url(#paint0_linear_1425_879)"/>
<path fill-rule="evenodd" clip-rule="evenodd" d="M28.342 28.1193C46.2955 10.1658 70.6455 0.07971 96.0355 0.0797119C121.426 0.0797138 145.776 10.1659 163.729 28.1193C181.682 46.0727 191.769 70.4228 191.769 95.8128V97.8128L0.302429 97.8128L0.302429 95.8128C0.302433 70.4228 10.3886 46.0727 28.342 28.1193ZM96.0355 4.07971C71.7064 4.07971 48.3737 13.7444 31.1704 30.9477C14.4391 47.679 4.8384 70.208 4.32421 93.8128L187.747 93.8128C187.233 70.2081 177.632 47.6791 160.901 30.9477C143.697 13.7444 120.365 4.07971 96.0355 4.07971Z" fill="white"/>
<rect x="53.9523" y="13.5167" width="6.17826" height="0.529566" transform="rotate(59.9911 53.9523 13.5167)" fill="white"/>
<rect x="70.7601" y="6.78662" width="6.17826" height="0.529566" transform="rotate(76.4016 70.7601 6.78662)" fill="white"/>
<rect x="58.9678" y="11.0554" width="6.17826" height="0.529566" transform="rotate(67.2118 58.9678 11.0554)" fill="white"/>
<rect x="76.849" y="5.3291" width="6.17826" height="0.529566" transform="rotate(78.4231 76.849 5.3291)" fill="white"/>
<rect x="65.0778" y="8.5957" width="6.17826" height="0.529566" transform="rotate(71.962 65.0778 8.5957)" fill="white"/>
<rect x="83.3694" y="4.3114" width="6.17826" height="0.529566" transform="rotate(83.1733 83.3694 4.3114)" fill="white"/>
<rect x="90.1505" y="3.31543" width="6.17826" height="0.529566" transform="rotate(87.941 90.1505 3.31543)" fill="white"/>
<rect x="95.6324" y="3.31543" width="6.17826" height="0.529566" transform="rotate(88.447 95.6324 3.31543)" fill="white"/>
<rect x="146.1" y="18.2762" width="6.17826" height="0.529566" transform="rotate(120.235 146.1 18.2762)" fill="white"/>
<rect x="160.947" y="29.9626" width="6.17826" height="0.529566" transform="rotate(136.646 160.947 29.9626)" fill="white"/>
<rect x="151.388" y="21.8439" width="6.17826" height="0.529566" transform="rotate(127.456 151.388 21.8439)" fill="white"/>
<rect x="165.234" y="34.5254" width="6.17826" height="0.529566" transform="rotate(138.667 165.234 34.5254)" fill="white"/>
<rect x="156.556" y="25.9275" width="6.17826" height="0.529566" transform="rotate(132.206 156.556 25.9275)" fill="white"/>
<rect x="169.354" y="39.681" width="6.17826" height="0.529566" transform="rotate(143.417 169.354 39.681)" fill="white"/>
<rect x="173.024" y="45.3938" width="6.17826" height="0.529566" transform="rotate(148.185 173.024 45.3938)" fill="white"/>
<rect x="175.738" y="50.1566" width="6.17826" height="0.529566" transform="rotate(148.691 175.738 50.1566)" fill="white"/>
<rect x="30.6437" y="30.3716" width="6.17826" height="0.529566" transform="rotate(47.2028 30.6437 30.3716)" fill="white"/>
<rect x="35.2479" y="26.1287" width="6.17826" height="0.529566" transform="rotate(49.2242 35.2479 26.1287)" fill="white"/>
<rect x="26.5661" y="34.7227" width="6.17826" height="0.529566" transform="rotate(42.7631 26.5661 34.7227)" fill="white"/>
<rect x="40.4434" y="22.0596" width="6.17826" height="0.529566" transform="rotate(53.9744 40.4434 22.0596)" fill="white"/>
<rect x="45.6499" y="17.9667" width="6.17826" height="0.529566" transform="rotate(58.7421 45.6499 17.9667)" fill="white"/>
<rect x="49.7123" y="15.4952" width="6.17826" height="0.529566" transform="rotate(59.2481 49.7123 15.4952)" fill="white"/>
<rect x="100.276" y="3.65625" width="6.17826" height="0.529566" transform="rotate(90.7833 100.276 3.65625)" fill="white"/>
<rect x="119.197" y="6.47266" width="6.17826" height="0.529566" transform="rotate(107.194 119.197 6.47266)" fill="white"/>
<rect x="106.635" y="4.16296" width="6.17826" height="0.529566" transform="rotate(98.004 106.635 4.16296)" fill="white"/>
<rect x="124.871" y="8.07922" width="6.17826" height="0.529566" transform="rotate(109.215 124.871 8.07922)" fill="white"/>
<rect x="113.143" y="5.17798" width="6.17826" height="0.529566" transform="rotate(102.754 113.143 5.17798)" fill="white"/>
<rect x="130.979" y="10.4148" width="6.17826" height="0.529566" transform="rotate(113.966 130.979 10.4148)" fill="white"/>
<rect x="136.716" y="13.1021" width="6.17826" height="0.529566" transform="rotate(118.733 136.716 13.1021)" fill="white"/>
<rect x="141.704" y="15.7539" width="6.17826" height="0.529566" transform="rotate(119.239 141.704 15.7539)" fill="white"/>
<rect x="177.886" y="54.2781" width="6.17826" height="0.529566" transform="rotate(151.027 177.886 54.2781)" fill="white"/>
<rect x="184.656" y="71.9174" width="6.17826" height="0.529566" transform="rotate(167.438 184.656 71.9174)" fill="white"/>
<rect x="180.602" y="60.0498" width="6.17826" height="0.529566" transform="rotate(158.248 180.602 60.0498)" fill="white"/>
<rect x="186.004" y="78.0315" width="6.17826" height="0.529566" transform="rotate(169.459 186.004 78.0315)" fill="white"/>
<rect x="182.951" y="66.2032" width="6.17826" height="0.529566" transform="rotate(162.998 182.951 66.2032)" fill="white"/>
<rect x="186.903" y="84.5695" width="6.17826" height="0.529566" transform="rotate(174.21 186.903 84.5695)" fill="white"/>
<rect x="187.818" y="91.1285" width="6.17826" height="0.529566" transform="rotate(178.977 187.818 91.1285)" fill="white"/>
<rect x="187.857" y="96.6707" width="6.17826" height="0.529566" transform="rotate(179.483 187.857 96.6707)" fill="white"/>
<defs>
<linearGradient id="paint0_linear_1425_879" x1="96.0355" y1="2.07971" x2="96.0355" y2="189.546" gradientUnits="userSpaceOnUse">
<stop stop-color="#16C784"/>
<stop offset="0.489583" stop-color="white"/>
</linearGradient>
</defs>
</svg>
