<svg width="192" height="98" viewBox="0 0 192 98" fill="none" xmlns="http://www.w3.org/2000/svg">
<path d="M189.715 95.8128C189.715 70.9532 179.839 47.1119 162.261 29.5335C144.683 11.9551 120.841 2.07971 95.9818 2.07971C71.1222 2.07971 47.2808 11.9551 29.7025 29.5335C12.1241 47.1119 2.24866 70.9532 2.24866 95.8128L95.9818 95.8128H189.715Z" fill="url(#paint0_linear_1425_881)"/>
<path fill-rule="evenodd" clip-rule="evenodd" d="M28.2882 28.1193C46.2417 10.1658 70.5918 0.07971 95.9818 0.0797119C121.372 0.0797138 145.722 10.1659 163.675 28.1193C181.629 46.0727 191.715 70.4228 191.715 95.8128V97.8128L0.248657 97.8128L0.248657 95.8128C0.248661 70.4228 10.3348 46.0727 28.2882 28.1193ZM95.9818 4.07971C71.6526 4.07971 48.32 13.7444 31.1167 30.9477C14.3853 47.679 4.78462 70.208 4.27044 93.8128L187.693 93.8128C187.179 70.2081 177.578 47.6791 160.847 30.9477C143.644 13.7444 120.311 4.07971 95.9818 4.07971Z" fill="white"/>
<rect x="3.66083" y="90.6936" width="6.17826" height="0.529566" fill="white"/>
<rect x="6.28168" y="71.9823" width="6.17826" height="0.529566" transform="rotate(16.4105 6.28168 71.9823)" fill="white"/>
<rect x="4.08038" y="84.3286" width="6.17826" height="0.529566" transform="rotate(7.22066 4.08038 84.3286)" fill="white"/>
<rect x="8.06476" y="65.9806" width="6.17826" height="0.529566" transform="rotate(18.432 8.06476 65.9806)" fill="white"/>
<rect x="5.00635" y="77.8075" width="6.17826" height="0.529566" transform="rotate(11.9709 5.00635 77.8075)" fill="white"/>
<rect x="10.4447" y="59.8252" width="6.17826" height="0.529566" transform="rotate(23.1822 10.4447 59.8252)" fill="white"/>
<rect x="13.5322" y="53.7777" width="6.17826" height="0.529566" transform="rotate(27.9499 13.5322 53.7777)" fill="white"/>
<rect x="16.2805" y="49.0344" width="6.17826" height="0.529566" transform="rotate(28.4559 16.2805 49.0344)" fill="white"/>
<rect x="53.8986" y="13.5167" width="6.17826" height="0.529566" transform="rotate(59.9911 53.8986 13.5167)" fill="white"/>
<rect x="70.7063" y="6.78662" width="6.17826" height="0.529566" transform="rotate(76.4016 70.7063 6.78662)" fill="white"/>
<rect x="58.9141" y="11.0554" width="6.17826" height="0.529566" transform="rotate(67.2118 58.9141 11.0554)" fill="white"/>
<rect x="76.7952" y="5.3291" width="6.17826" height="0.529566" transform="rotate(78.4231 76.7952 5.3291)" fill="white"/>
<rect x="65.024" y="8.5957" width="6.17826" height="0.529566" transform="rotate(71.962 65.024 8.5957)" fill="white"/>
<rect x="83.3157" y="4.3114" width="6.17826" height="0.529566" transform="rotate(83.1733 83.3157 4.3114)" fill="white"/>
<rect x="90.0967" y="3.31543" width="6.17826" height="0.529566" transform="rotate(87.941 90.0967 3.31543)" fill="white"/>
<rect x="95.5786" y="3.31543" width="6.17826" height="0.529566" transform="rotate(88.447 95.5786 3.31543)" fill="white"/>
<rect x="146.047" y="18.2762" width="6.17826" height="0.529566" transform="rotate(120.235 146.047 18.2762)" fill="white"/>
<rect x="160.893" y="29.9626" width="6.17826" height="0.529566" transform="rotate(136.646 160.893 29.9626)" fill="white"/>
<rect x="151.335" y="21.8439" width="6.17826" height="0.529566" transform="rotate(127.456 151.335 21.8439)" fill="white"/>
<rect x="165.18" y="34.5254" width="6.17826" height="0.529566" transform="rotate(138.667 165.18 34.5254)" fill="white"/>
<rect x="156.502" y="25.9275" width="6.17826" height="0.529566" transform="rotate(132.206 156.502 25.9275)" fill="white"/>
<rect x="18.7598" y="45.1035" width="6.17826" height="0.529566" transform="rotate(30.7922 18.7598 45.1035)" fill="white"/>
<rect x="30.59" y="30.3716" width="6.17826" height="0.529566" transform="rotate(47.2028 30.59 30.3716)" fill="white"/>
<rect x="22.3786" y="39.8506" width="6.17826" height="0.529566" transform="rotate(38.0129 22.3786 39.8506)" fill="white"/>
<rect x="35.1941" y="26.1287" width="6.17826" height="0.529566" transform="rotate(49.2242 35.1941 26.1287)" fill="white"/>
<rect x="26.5123" y="34.7227" width="6.17826" height="0.529566" transform="rotate(42.7631 26.5123 34.7227)" fill="white"/>
<rect x="40.3896" y="22.0596" width="6.17826" height="0.529566" transform="rotate(53.9744 40.3896 22.0596)" fill="white"/>
<rect x="45.5961" y="17.9667" width="6.17826" height="0.529566" transform="rotate(58.7421 45.5961 17.9667)" fill="white"/>
<rect x="49.6585" y="15.4952" width="6.17826" height="0.529566" transform="rotate(59.2481 49.6585 15.4952)" fill="white"/>
<rect x="100.223" y="3.65625" width="6.17826" height="0.529566" transform="rotate(90.7833 100.223 3.65625)" fill="white"/>
<rect x="119.143" y="6.47266" width="6.17826" height="0.529566" transform="rotate(107.194 119.143 6.47266)" fill="white"/>
<rect x="106.581" y="4.16296" width="6.17826" height="0.529566" transform="rotate(98.004 106.581 4.16296)" fill="white"/>
<rect x="124.817" y="8.07922" width="6.17826" height="0.529566" transform="rotate(109.215 124.817 8.07922)" fill="white"/>
<rect x="113.089" y="5.17798" width="6.17826" height="0.529566" transform="rotate(102.754 113.089 5.17798)" fill="white"/>
<rect x="130.926" y="10.4148" width="6.17826" height="0.529566" transform="rotate(113.966 130.926 10.4148)" fill="white"/>
<rect x="136.662" y="13.1021" width="6.17826" height="0.529566" transform="rotate(118.733 136.662 13.1021)" fill="white"/>
<rect x="141.65" y="15.7539" width="6.17826" height="0.529566" transform="rotate(119.239 141.65 15.7539)" fill="white"/>
<defs>
<linearGradient id="paint0_linear_1425_881" x1="95.9818" y1="2.07971" x2="95.9818" y2="189.546" gradientUnits="userSpaceOnUse">
<stop stop-color="#FEE114"/>
<stop offset="0.489583" stop-color="white"/>
</linearGradient>
</defs>
</svg>
