<svg width="192" height="98" viewBox="0 0 192 98" fill="none" xmlns="http://www.w3.org/2000/svg">
<path d="M189.466 95.7331C189.466 70.8735 179.591 47.0322 162.012 29.4538C144.434 11.8754 120.593 2 95.7331 2C70.8735 2 47.0322 11.8754 29.4538 29.4538C11.8754 47.0321 2 70.8735 2 95.7331L95.7331 95.7331H189.466Z" fill="url(#paint0_linear_60_96)" stroke="white" stroke-width="4"/>
<rect x="3.41211" y="90.6138" width="6.17826" height="0.529566" fill="white"/>
<rect x="6.0332" y="71.9026" width="6.17826" height="0.529566" transform="rotate(16.4105 6.0332 71.9026)" fill="white"/>
<rect x="3.83203" y="84.2488" width="6.17826" height="0.529566" transform="rotate(7.22066 3.83203 84.2488)" fill="white"/>
<rect x="7.81641" y="65.9009" width="6.17826" height="0.529566" transform="rotate(18.432 7.81641 65.9009)" fill="white"/>
<rect x="4.75781" y="77.7278" width="6.17826" height="0.529566" transform="rotate(11.9709 4.75781 77.7278)" fill="white"/>
<rect x="10.1963" y="59.7454" width="6.17826" height="0.529566" transform="rotate(23.1822 10.1963 59.7454)" fill="white"/>
<rect x="13.2842" y="53.6978" width="6.17826" height="0.529566" transform="rotate(27.9499 13.2842 53.6978)" fill="white"/>
<rect x="16.0322" y="48.9546" width="6.17826" height="0.529566" transform="rotate(28.4559 16.0322 48.9546)" fill="white"/>
<rect x="53.6504" y="13.437" width="6.17826" height="0.529566" transform="rotate(59.9911 53.6504 13.437)" fill="white"/>
<rect x="70.458" y="6.70679" width="6.17826" height="0.529566" transform="rotate(76.4016 70.458 6.70679)" fill="white"/>
<rect x="58.666" y="10.9756" width="6.17826" height="0.529566" transform="rotate(67.2118 58.666 10.9756)" fill="white"/>
<rect x="76.5469" y="5.24927" width="6.17826" height="0.529566" transform="rotate(78.4231 76.5469 5.24927)" fill="white"/>
<rect x="64.7754" y="8.51587" width="6.17826" height="0.529566" transform="rotate(71.962 64.7754 8.51587)" fill="white"/>
<rect x="83.0674" y="4.23169" width="6.17826" height="0.529566" transform="rotate(83.1733 83.0674 4.23169)" fill="white"/>
<rect x="89.8486" y="3.2356" width="6.17826" height="0.529566" transform="rotate(87.941 89.8486 3.2356)" fill="white"/>
<rect x="95.3301" y="3.2356" width="6.17826" height="0.529566" transform="rotate(88.447 95.3301 3.2356)" fill="white"/>
<rect x="145.798" y="18.1965" width="6.17826" height="0.529566" transform="rotate(120.235 145.798 18.1965)" fill="white"/>
<rect x="160.645" y="29.8829" width="6.17826" height="0.529566" transform="rotate(136.646 160.645 29.8829)" fill="white"/>
<rect x="151.086" y="21.764" width="6.17826" height="0.529566" transform="rotate(127.456 151.086 21.764)" fill="white"/>
<rect x="164.932" y="34.4456" width="6.17826" height="0.529566" transform="rotate(138.667 164.932 34.4456)" fill="white"/>
<rect x="156.254" y="25.8477" width="6.17826" height="0.529566" transform="rotate(132.206 156.254 25.8477)" fill="white"/>
<rect x="169.052" y="39.6012" width="6.17826" height="0.529566" transform="rotate(143.417 169.052 39.6012)" fill="white"/>
<rect x="172.722" y="45.314" width="6.17826" height="0.529566" transform="rotate(148.185 172.722 45.314)" fill="white"/>
<rect x="175.436" y="50.0769" width="6.17826" height="0.529566" transform="rotate(148.691 175.436 50.0769)" fill="white"/>
<rect x="18.5117" y="45.0237" width="6.17826" height="0.529566" transform="rotate(30.7922 18.5117 45.0237)" fill="white"/>
<rect x="30.3418" y="30.2919" width="6.17826" height="0.529566" transform="rotate(47.2028 30.3418 30.2919)" fill="white"/>
<rect x="22.1299" y="39.7708" width="6.17826" height="0.529566" transform="rotate(38.0129 22.1299 39.7708)" fill="white"/>
<rect x="34.9453" y="26.0488" width="6.17826" height="0.529566" transform="rotate(49.2242 34.9453 26.0488)" fill="white"/>
<rect x="26.2637" y="34.6429" width="6.17826" height="0.529566" transform="rotate(42.7631 26.2637 34.6429)" fill="white"/>
<rect x="40.1416" y="21.9797" width="6.17826" height="0.529566" transform="rotate(53.9744 40.1416 21.9797)" fill="white"/>
<rect x="45.3477" y="17.8868" width="6.17826" height="0.529566" transform="rotate(58.7421 45.3477 17.8868)" fill="white"/>
<rect x="49.4102" y="15.4154" width="6.17826" height="0.529566" transform="rotate(59.2481 49.4102 15.4154)" fill="white"/>
<rect x="99.9746" y="3.57642" width="6.17826" height="0.529566" transform="rotate(90.7833 99.9746 3.57642)" fill="white"/>
<rect x="118.896" y="6.39282" width="6.17826" height="0.529566" transform="rotate(107.194 118.896 6.39282)" fill="white"/>
<rect x="106.333" y="4.08325" width="6.17826" height="0.529566" transform="rotate(98.004 106.333 4.08325)" fill="white"/>
<rect x="124.568" y="7.99939" width="6.17826" height="0.529566" transform="rotate(109.215 124.568 7.99939)" fill="white"/>
<rect x="112.841" y="5.09814" width="6.17826" height="0.529566" transform="rotate(102.754 112.841 5.09814)" fill="white"/>
<rect x="130.677" y="10.335" width="6.17826" height="0.529566" transform="rotate(113.966 130.677 10.335)" fill="white"/>
<rect x="136.414" y="13.0222" width="6.17826" height="0.529566" transform="rotate(118.733 136.414 13.0222)" fill="white"/>
<rect x="141.402" y="15.6741" width="6.17826" height="0.529566" transform="rotate(119.239 141.402 15.6741)" fill="white"/>
<rect x="177.584" y="54.1982" width="6.17826" height="0.529566" transform="rotate(151.027 177.584 54.1982)" fill="white"/>
<rect x="184.354" y="71.8374" width="6.17826" height="0.529566" transform="rotate(167.438 184.354 71.8374)" fill="white"/>
<rect x="180.3" y="59.97" width="6.17826" height="0.529566" transform="rotate(158.248 180.3 59.97)" fill="white"/>
<rect x="185.701" y="77.9517" width="6.17826" height="0.529566" transform="rotate(169.459 185.701 77.9517)" fill="white"/>
<rect x="182.648" y="66.1235" width="6.17826" height="0.529566" transform="rotate(162.998 182.648 66.1235)" fill="white"/>
<rect x="186.601" y="84.4897" width="6.17826" height="0.529566" transform="rotate(174.21 186.601 84.4897)" fill="white"/>
<rect x="187.516" y="91.0488" width="6.17826" height="0.529566" transform="rotate(178.977 187.516 91.0488)" fill="white"/>
<rect x="187.555" y="96.5908" width="6.17826" height="0.529566" transform="rotate(179.483 187.555 96.5908)" fill="white"/>
<defs>
<linearGradient id="paint0_linear_60_96" x1="95.7331" y1="2" x2="95.7331" y2="189.466" gradientUnits="userSpaceOnUse">
<stop stop-color="#30AD43"/>
<stop offset="0.489583" stop-color="white"/>
</linearGradient>
</defs>
</svg>
