<svg width="18" height="17" viewBox="0 0 18 17" fill="none" xmlns="http://www.w3.org/2000/svg">
<path d="M13.2308 10.5728L13.0426 10.7563L13.087 11.0154L13.9994 16.3343C13.9994 16.3343 13.9994 16.3343 13.9994 16.3344C14.0031 16.3565 14.0007 16.3791 13.9922 16.3999C13.9838 16.4207 13.9697 16.4387 13.9515 16.4518C13.9334 16.465 13.9119 16.4729 13.8895 16.4745C13.8672 16.4761 13.8448 16.4714 13.8249 16.461L13.8249 16.461L9.04796 13.9497L8.81531 13.8274L8.58266 13.9497L3.80634 16.4604L3.8063 16.4604C3.78644 16.4708 3.76406 16.4755 3.74169 16.4739C3.71932 16.4723 3.69784 16.4644 3.67969 16.4512C3.66155 16.438 3.64745 16.42 3.63899 16.3993C3.63055 16.3785 3.62807 16.3558 3.63184 16.3337C3.63184 16.3337 3.63185 16.3337 3.63186 16.3337L4.54419 11.0147L4.58863 10.7556L4.40034 10.5721L0.53636 6.80675L0.536326 6.80672C0.52025 6.79106 0.508879 6.77121 0.503502 6.74941C0.498124 6.72762 0.498954 6.70476 0.505898 6.68342C0.512841 6.66208 0.525621 6.6431 0.542791 6.62865C0.559961 6.61419 0.580835 6.60483 0.60305 6.60162L0.603474 6.60156L5.94295 5.82629L6.20314 5.78851L6.31949 5.55273L8.70734 0.713772L8.70735 0.713753C8.70784 0.712752 8.73046 0.674805 8.8153 0.674805C8.90013 0.674805 8.92275 0.712752 8.92325 0.713753L8.92326 0.713772L11.3111 5.55273L11.4275 5.78851L11.6876 5.82629L17.0256 6.60133C17.0257 6.60136 17.0259 6.60138 17.026 6.6014C17.0482 6.60479 17.069 6.61424 17.0861 6.62872C17.1034 6.6433 17.1162 6.66241 17.1232 6.6839C17.1302 6.70539 17.1311 6.72839 17.1257 6.75034C17.1204 6.77212 17.1091 6.79201 17.0932 6.80778C17.0931 6.8079 17.0929 6.80801 17.0928 6.80813L13.2308 10.5728Z" stroke="#727272"/>
</svg>
