<svg width="20" height="21" viewBox="0 0 20 21" fill="none" xmlns="http://www.w3.org/2000/svg">
<path d="M18.4182 7.96722L13.0222 7.146L10.61 2.02506C10.5441 1.88485 10.4357 1.77135 10.3018 1.70236C9.96604 1.52877 9.55799 1.67343 9.39009 2.02506L6.97791 7.146L1.58186 7.96722C1.4331 7.98947 1.29708 8.06292 1.19294 8.17419C1.06704 8.3097 0.997669 8.492 1.00006 8.68104C1.00245 8.87008 1.07641 9.05039 1.20569 9.18236L5.10981 13.1683L4.18744 18.7966C4.16581 18.9276 4.17965 19.0622 4.22738 19.1853C4.27511 19.3084 4.35483 19.4151 4.45749 19.4932C4.56016 19.5713 4.68166 19.6177 4.80823 19.6271C4.9348 19.6366 5.06136 19.6087 5.17356 19.5466L10 16.8894L14.8265 19.5466C14.9583 19.6201 15.1113 19.6446 15.258 19.6179C15.6277 19.5511 15.8764 19.1839 15.8126 18.7966L14.8903 13.1683L18.7944 9.18236C18.9007 9.07331 18.9708 8.93087 18.992 8.77509C19.0494 8.38562 18.7901 8.02508 18.4182 7.96722Z" fill="white" stroke="#6F6F6F" stroke-width="1.6" stroke-linejoin="round"/>
</svg>
