<svg width="16" height="17" viewBox="0 0 16 17" fill="none" xmlns="http://www.w3.org/2000/svg">
<path d="M3.63602 6.92811H1.22246C1.00201 6.92865 0.790768 7.01663 0.635095 7.17273C0.479422 7.32883 0.392029 7.54031 0.39209 7.76076V15.6037C0.392029 15.8241 0.479422 16.0356 0.635095 16.1917C0.790768 16.3478 1.00201 16.4358 1.22246 16.4363H3.63602C3.8567 16.4359 4.06821 16.348 4.22426 16.1919C4.38031 16.0359 4.46819 15.8244 4.46867 15.6037V7.76076C4.46819 7.54008 4.38031 7.32857 4.22426 7.17252C4.06821 7.01647 3.8567 6.92859 3.63602 6.92811ZM15.3913 9.65876C15.3912 9.2824 15.2419 8.92144 14.9761 8.65501C14.9535 8.63045 14.9291 8.60757 14.9031 8.58657C15.1975 8.46182 15.4397 8.23921 15.5889 7.95641C15.738 7.6736 15.7849 7.34795 15.7216 7.03456C15.6582 6.72117 15.4886 6.43927 15.2414 6.23655C14.9941 6.03383 14.6844 5.92275 14.3647 5.92208H9.41441C9.44179 5.87417 9.46688 5.83083 9.48969 5.78749C9.63215 5.55752 9.74555 5.31079 9.82732 5.05293C9.93644 4.69548 10.0031 4.32641 10.0258 3.95337C10.0574 3.4144 9.98081 2.87456 9.80059 2.36564C9.62038 1.85672 9.34015 1.389 8.97641 0.990029C8.83938 0.834376 8.67242 0.707904 8.48547 0.618152C8.29852 0.528401 8.09541 0.477208 7.88826 0.467625C7.60528 0.456759 7.32864 0.553203 7.11374 0.73764C6.89885 0.922077 6.76156 1.18089 6.72939 1.46225C6.72749 1.47278 6.72673 1.48349 6.72711 1.49418V3.49255L5.40398 6.84598C5.29563 7.11871 5.1326 7.36636 4.92492 7.5737V15.3026C5.25152 15.3925 5.58382 15.4603 5.91954 15.5056C6.04432 15.5223 6.17006 15.5307 6.29595 15.5307H13.0051C13.3367 15.5302 13.6547 15.3991 13.8902 15.1657C14.0061 15.0498 14.098 14.9121 14.1606 14.7606C14.2233 14.6091 14.2554 14.4468 14.2552 14.2828C14.256 13.9803 14.1456 13.688 13.945 13.4616C14.2092 13.406 14.4524 13.277 14.6465 13.0893C14.8406 12.9016 14.9777 12.6628 15.0421 12.4006C15.1065 12.1384 15.0954 11.8633 15.0103 11.607C14.9252 11.3508 14.7694 11.1238 14.5609 10.9522C14.8085 10.8386 15.0183 10.6563 15.1655 10.4271C15.3127 10.1978 15.391 9.93119 15.3913 9.65876Z" fill="#0029FF"/>
</svg>
