<svg width="22" height="22" viewBox="0 0 22 22" fill="none" xmlns="http://www.w3.org/2000/svg">
<path d="M11 17C14.3135 17 17 14.3135 17 11C17 7.6865 14.3135 5 11 5C7.6865 5 5 7.6865 5 11C5 14.3135 7.6865 17 11 17ZM11 15C9.93913 15 8.92172 14.5786 8.17157 13.8284C7.42143 13.0783 7 12.0609 7 11C7 9.93914 7.42143 8.92172 8.17157 8.17157C8.92172 7.42143 9.93913 7 11 7C12.0609 7 13.0783 7.42143 13.8284 8.17157C14.5786 8.92172 15 9.93914 15 11C15 12.0609 14.5786 13.0783 13.8284 13.8284C13.0783 14.5786 12.0609 15 11 15V15ZM12 1C12 0.734784 11.8946 0.48043 11.7071 0.292893C11.5196 0.105357 11.2652 0 11 0C10.7348 0 10.4804 0.105357 10.2929 0.292893C10.1054 0.48043 10 0.734784 10 1V3C10 3.26522 10.1054 3.51957 10.2929 3.70711C10.4804 3.89464 10.7348 4 11 4C11.2652 4 11.5196 3.89464 11.7071 3.70711C11.8946 3.51957 12 3.26522 12 3V1ZM12 19C12 18.7348 11.8946 18.4804 11.7071 18.2929C11.5196 18.1054 11.2652 18 11 18C10.7348 18 10.4804 18.1054 10.2929 18.2929C10.1054 18.4804 10 18.7348 10 19V21C10 21.2652 10.1054 21.5196 10.2929 21.7071C10.4804 21.8946 10.7348 22 11 22C11.2652 22 11.5196 21.8946 11.7071 21.7071C11.8946 21.5196 12 21.2652 12 21V19ZM21 12C21.2652 12 21.5196 11.8946 21.7071 11.7071C21.8946 11.5196 22 11.2652 22 11C22 10.7348 21.8946 10.4804 21.7071 10.2929C21.5196 10.1054 21.2652 10 21 10H19C18.7348 10 18.4804 10.1054 18.2929 10.2929C18.1054 10.4804 18 10.7348 18 11C18 11.2652 18.1054 11.5196 18.2929 11.7071C18.4804 11.8946 18.7348 12 19 12H21ZM3 12C3.26522 12 3.51957 11.8946 3.70711 11.7071C3.89464 11.5196 4 11.2652 4 11C4 10.7348 3.89464 10.4804 3.70711 10.2929C3.51957 10.1054 3.26522 10 3 10H0.999998C0.734782 10 0.480429 10.1054 0.292892 10.2929C0.105356 10.4804 -7.94729e-07 10.7348 -7.94729e-07 11C-7.94729e-07 11.2652 0.105356 11.5196 0.292892 11.7071C0.480429 11.8946 0.734782 12 0.999998 12H3ZM19.207 4.207C19.3892 4.0184 19.49 3.7658 19.4877 3.5036C19.4854 3.2414 19.3802 2.99059 19.1948 2.80518C19.0094 2.61977 18.7586 2.51461 18.4964 2.51233C18.2342 2.51005 17.9816 2.61084 17.793 2.793L16.293 4.293C16.1108 4.4816 16.01 4.7342 16.0123 4.9964C16.0146 5.2586 16.1198 5.50941 16.3052 5.69482C16.4906 5.88023 16.7414 5.9854 17.0036 5.98767C17.2658 5.98995 17.5184 5.88916 17.707 5.707L19.207 4.207V4.207ZM5.707 17.707C5.88916 17.5184 5.98995 17.2658 5.98767 17.0036C5.98539 16.7414 5.88023 16.4906 5.69482 16.3052C5.50941 16.1198 5.2586 16.0146 4.9964 16.0123C4.7342 16.01 4.4816 16.1108 4.293 16.293L2.793 17.793C2.61084 17.9816 2.51005 18.2342 2.51233 18.4964C2.5146 18.7586 2.61977 19.0094 2.80518 19.1948C2.99059 19.3802 3.2414 19.4854 3.5036 19.4877C3.76579 19.49 4.0184 19.3892 4.207 19.207L5.707 17.707ZM17.793 19.207C17.9816 19.3892 18.2342 19.49 18.4964 19.4877C18.7586 19.4854 19.0094 19.3802 19.1948 19.1948C19.3802 19.0094 19.4854 18.7586 19.4877 18.4964C19.49 18.2342 19.3892 17.9816 19.207 17.793L17.707 16.293C17.5184 16.1108 17.2658 16.01 17.0036 16.0123C16.7414 16.0146 16.4906 16.1198 16.3052 16.3052C16.1198 16.4906 16.0146 16.7414 16.0123 17.0036C16.01 17.2658 16.1108 17.5184 16.293 17.707L17.793 19.207ZM4.293 5.707C4.4816 5.88916 4.7342 5.98995 4.9964 5.98767C5.2586 5.9854 5.50941 5.88023 5.69482 5.69482C5.88023 5.50941 5.98539 5.2586 5.98767 4.9964C5.98995 4.7342 5.88916 4.4816 5.707 4.293L4.207 2.793C4.0184 2.61084 3.76579 2.51005 3.5036 2.51233C3.2414 2.51461 2.99059 2.61977 2.80518 2.80518C2.61977 2.99059 2.5146 3.2414 2.51233 3.5036C2.51005 3.7658 2.61084 4.0184 2.793 4.207L4.293 5.707Z" fill="white"/>
</svg>
