<svg width="14" height="3" viewBox="0 0 14 3" fill="none" xmlns="http://www.w3.org/2000/svg">
<path d="M11.4545 2.57143C11.1717 2.28571 11.0303 1.92857 11.0303 1.5C11.0303 1.07143 11.1717 0.714285 11.4545 0.428571C11.7374 0.142856 12.0909 0 12.5152 0C12.9394 0 13.2929 0.142856 13.5758 0.428571C13.8586 0.714285 14 1.07143 14 1.5C14 1.92857 13.8586 2.28571 13.5758 2.57143C13.2929 2.85714 12.9394 3 12.5152 3C12.0909 3 11.7374 2.85714 11.4545 2.57143ZM5.93939 2.57143C5.65657 2.28571 5.51515 1.92857 5.51515 1.5C5.51515 1.07143 5.65657 0.714285 5.93939 0.428571C6.22222 0.142856 6.57576 0 7 0C7.42424 0 7.77778 0.142856 8.06061 0.428571C8.34343 0.714285 8.48485 1.07143 8.48485 1.5C8.48485 1.92857 8.34343 2.28571 8.06061 2.57143C7.77778 2.85714 7.42424 3 7 3C6.57576 3 6.22222 2.85714 5.93939 2.57143ZM0.424242 2.57143C0.141414 2.28571 0 1.92857 0 1.5C0 1.07143 0.141414 0.714285 0.424242 0.428571C0.707071 0.142856 1.06061 0 1.48485 0C1.90909 0 2.26263 0.142856 2.54545 0.428571C2.82828 0.714285 2.9697 1.07143 2.9697 1.5C2.9697 1.92857 2.82828 2.28571 2.54545 2.57143C2.26263 2.85714 1.90909 3 1.48485 3C1.06061 3 0.707071 2.85714 0.424242 2.57143Z" fill="#8B8B8B"/>
</svg>
