<svg width="18" height="18" viewBox="0 0 18 18" fill="none" xmlns="http://www.w3.org/2000/svg">
<path d="M13.2308 11.0601L13.0426 11.2436L13.087 11.5027L13.9994 16.8216C13.9994 16.8216 13.9994 16.8216 13.9994 16.8217C14.0031 16.8438 14.0007 16.8664 13.9922 16.8872C13.9838 16.908 13.9697 16.926 13.9515 16.9392C13.9334 16.9523 13.9119 16.9602 13.8895 16.9618C13.8672 16.9634 13.8448 16.9587 13.8249 16.9483L13.8249 16.9483L9.04796 14.437L8.81531 14.3147L8.58266 14.437L3.80634 16.9477L3.8063 16.9477C3.78644 16.9581 3.76406 16.9628 3.74169 16.9612C3.71932 16.9596 3.69784 16.9517 3.67969 16.9385C3.66155 16.9254 3.64745 16.9074 3.63899 16.8866C3.63055 16.8658 3.62807 16.8431 3.63184 16.8211C3.63184 16.821 3.63185 16.821 3.63186 16.821L4.54419 11.502L4.58863 11.2429L4.40034 11.0594L0.53636 7.29406L0.536326 7.29402C0.52025 7.27836 0.508879 7.25851 0.503502 7.23672C0.498124 7.21493 0.498954 7.19207 0.505898 7.17072C0.512841 7.14938 0.525621 7.13041 0.542791 7.11595C0.559961 7.10149 0.580835 7.09213 0.60305 7.08893L0.603474 7.08887L5.94295 6.31359L6.20314 6.27581L6.31949 6.04004L8.70734 1.20108L8.70735 1.20106C8.70784 1.20006 8.73046 1.16211 8.8153 1.16211C8.90013 1.16211 8.92275 1.20006 8.92325 1.20106L8.92326 1.20108L11.3111 6.04004L11.4275 6.27581L11.6876 6.31359L17.0256 7.08864C17.0257 7.08866 17.0259 7.08868 17.026 7.08871C17.0482 7.09209 17.069 7.10154 17.0861 7.11603C17.1034 7.13061 17.1162 7.14972 17.1232 7.17121C17.1302 7.19269 17.1311 7.2157 17.1257 7.23765C17.1204 7.25943 17.1091 7.27931 17.0932 7.29509C17.0931 7.2952 17.0929 7.29532 17.0928 7.29544L13.2308 11.0601Z" stroke="#727272"/>
</svg>
