<svg width="32" height="32" viewBox="0 0 32 32" fill="none" xmlns="http://www.w3.org/2000/svg">
<rect x="1" y="1" width="30" height="30" rx="6" stroke="#7F8DA7"/>
<path d="M14.2562 13.4391L15.683 10.5854L18.2196 13.4391L21.3903 14.7074L19.3293 17.244V21.3659L16.0001 19.4635L12.5123 21.0489V17.244L10.2928 14.0733L14.2562 13.4391Z" fill="#7F8DA7"/>
<path d="M22.2282 13.5776L18.236 12.9845L16.4514 9.2861C16.4026 9.18484 16.3224 9.10287 16.2234 9.05305C15.975 8.92768 15.6731 9.03215 15.5488 9.2861L13.7642 12.9845L9.77202 13.5776C9.66196 13.5936 9.56133 13.6467 9.48428 13.727C9.29088 13.9312 9.29403 14.2558 9.49372 14.4551L12.3821 17.3338L11.6997 21.3986C11.6809 21.5095 11.6982 21.6253 11.75 21.7249C11.879 21.9757 12.184 22.0737 12.4293 21.9403L16.0001 20.0212L19.5709 21.9403C19.6684 21.9933 19.7816 22.011 19.8901 21.9917C20.1637 21.9435 20.3477 21.6783 20.3005 21.3986L19.6181 17.3338L22.5065 14.4551C22.5851 14.3764 22.637 14.2735 22.6527 14.161C22.6952 13.8797 22.5034 13.6194 22.2282 13.5776V13.5776ZM18.4027 16.9288L18.9703 20.3089L16.0001 18.7145L13.0299 20.3105L13.5976 16.9304L11.195 14.5355L14.5158 14.0421L16.0001 10.9673L17.4844 14.0421L20.8052 14.5355L18.4027 16.9288Z" fill="#7F8EA7" stroke="#7F8DA7" stroke-width="0.6"/>
</svg>
