<svg width="18" height="17" viewBox="0 0 18 17" fill="none" xmlns="http://www.w3.org/2000/svg">
<path d="M17.7391 6.99004L13.8757 10.756L14.7881 16.075C14.8076 16.1891 14.7949 16.3063 14.7512 16.4135C14.7076 16.5207 14.6349 16.6136 14.5413 16.6816C14.4476 16.7496 14.3369 16.7901 14.2214 16.7984C14.106 16.8067 13.9906 16.7826 13.8881 16.7287L9.1112 14.2175L4.33488 16.7281C4.23245 16.782 4.117 16.8061 4.00158 16.7978C3.88615 16.7894 3.77537 16.749 3.68174 16.681C3.58811 16.613 3.51538 16.5201 3.47176 16.4129C3.42815 16.3057 3.41539 16.1885 3.43494 16.0744L4.34728 10.7554L0.483305 6.99004C0.400367 6.90924 0.341707 6.80683 0.313964 6.69441C0.28622 6.58199 0.290502 6.46405 0.326324 6.35393C0.362146 6.24382 0.428078 6.14593 0.516656 6.07136C0.605235 5.99678 0.712922 5.94849 0.827527 5.93195L6.16701 5.15667L8.55486 0.317708C8.76387 -0.105903 9.45852 -0.105903 9.66753 0.317708L12.0554 5.15667L17.3949 5.93195C17.5092 5.94892 17.6166 5.99745 17.7048 6.07208C17.7931 6.14671 17.8588 6.24449 17.8946 6.35441C17.9304 6.46434 17.9347 6.58207 17.9073 6.69435C17.8798 6.80664 17.8216 6.90904 17.7391 6.99004Z" fill="#727272"/>
</svg>
