<svg width="18" height="18" viewBox="0 0 18 18" fill="none" xmlns="http://www.w3.org/2000/svg">
<g opacity="0.7">
<path fill-rule="evenodd" clip-rule="evenodd" d="M8.46575 1.22906C8.58344 0.923647 8.99882 0.923647 9.11651 1.22906L11.0549 6.20291C11.1034 6.3338 11.2211 6.42106 11.3526 6.4356L16.4618 6.83554C16.7803 6.85736 16.9049 7.27185 16.6626 7.49L12.7511 10.9586C12.6472 11.0459 12.6057 11.1913 12.6334 11.3295L13.8518 16.5433C13.928 16.8632 13.5888 17.1177 13.3257 16.9432L8.97112 14.1145C8.86036 14.0418 8.71497 14.0418 8.59728 14.1145L4.24271 16.9432C3.97271 17.1177 3.64041 16.8632 3.71656 16.5433L4.93501 11.3295C4.96963 11.1913 4.92117 11.0531 4.81732 10.9586L0.912745 7.47545C0.670439 7.26457 0.801977 6.85009 1.11351 6.821L6.22269 6.42106C6.35423 6.41378 6.47192 6.31925 6.52038 6.18836L8.46575 1.22906Z" stroke="white" stroke-miterlimit="10"/>
<path fill-rule="evenodd" clip-rule="evenodd" d="M8.46575 1.22906C8.58344 0.923647 8.99882 0.923647 9.11651 1.22906L11.0549 6.20291C11.1034 6.3338 11.2211 6.42106 11.3526 6.4356L16.4618 6.83554C16.7803 6.85736 16.9049 7.27185 16.6626 7.49L12.7511 10.9586C12.6472 11.0459 12.6057 11.1913 12.6334 11.3295L13.8518 16.5433C13.928 16.8632 13.5888 17.1177 13.3257 16.9432L8.97112 14.1145C8.86036 14.0418 8.71497 14.0418 8.59728 14.1145L4.24271 16.9432C3.97271 17.1177 3.64041 16.8632 3.71656 16.5433L4.93501 11.3295C4.96963 11.1913 4.92117 11.0531 4.81732 10.9586L0.912745 7.47545C0.670439 7.26457 0.801977 6.85009 1.11351 6.821L6.22269 6.42106C6.35423 6.41378 6.47192 6.31925 6.52038 6.18836L8.46575 1.22906Z" stroke="#002358" stroke-miterlimit="10"/>
</g>
</svg>
