<svg width="18" height="18" viewBox="0 0 18 18" fill="none" xmlns="http://www.w3.org/2000/svg">
<path d="M17.1732 7.84874C17.044 6.64162 16.6661 5.50864 16.0584 4.47261C17.1428 2.59825 17.3555 1.30178 16.687 0.62123C15.8361 -0.245615 14.0452 0.442538 12.5087 1.31319C11.3388 0.71818 10.0379 0.402618 8.7141 0.398816C4.04774 0.376004 0.241727 4.16275 0.222735 8.83155C0.217037 10.1546 0.520911 11.4568 1.10397 12.6316C0.16196 14.3539 0.00242655 15.5515 0.636763 16.1978C0.944435 16.5115 1.39455 16.6275 1.95102 16.5799C2.57016 16.5267 3.32225 16.2644 4.1541 15.8519C5.78172 16.9126 7.73411 17.3821 9.67131 17.173C14.3073 16.6731 17.6746 12.4909 17.1732 7.84874ZM1.32238 15.5325C1.12676 15.3329 1.09067 14.5041 2.19222 12.6563L2.19791 12.6525C2.19791 12.6506 2.19601 12.6506 2.19601 12.6487V12.6468L2.19412 12.6449C1.52179 11.4929 1.17044 10.1755 1.17424 8.83345C1.19133 4.69122 4.57193 1.336 8.71031 1.3493C9.99987 1.35691 11.2609 1.69528 12.3739 2.3245L12.4536 2.45187C14.7688 1.02804 15.7868 1.06606 16.0014 1.28467C16.2046 1.48998 16.2331 2.35492 15.0556 4.28631C13.992 6.03331 12.2903 8.07876 10.2658 10.0425C5.78742 14.3919 1.97761 16.1997 1.32238 15.5325ZM9.56685 16.2263C8.02279 16.3936 6.46734 16.0743 5.1189 15.3253C6.94784 14.2417 9.03507 12.5727 10.9362 10.7268C12.7841 8.9342 14.3719 7.06934 15.4791 5.40219C15.876 6.19679 16.1286 7.05033 16.2255 7.94949C16.6699 12.0689 13.6824 15.7815 9.56685 16.2263Z" fill="#676767"/>
<path d="M4.13971 7.95128C3.08236 7.95128 2.22266 8.8323 2.22266 9.91588C2.22266 10.9995 3.08236 11.8805 4.13971 11.8805C5.19707 11.8805 6.05677 10.9995 6.05677 9.91588C6.05677 8.8323 5.19707 7.95128 4.13971 7.95128ZM4.13971 11.1411C3.4815 11.1411 2.94419 10.5924 2.94419 9.91588C2.94419 9.23938 3.4815 8.69071 4.13971 8.69071C4.79792 8.69071 5.33524 9.24135 5.33524 9.91588C5.33524 10.5904 4.79792 11.1411 4.13971 11.1411ZM7.49408 3.22168C6.64398 3.22168 5.95123 3.93161 5.95123 4.8028C5.95123 5.67399 6.64398 6.38392 7.49408 6.38392C8.34419 6.38392 9.03694 5.67399 9.03694 4.8028C9.03694 3.93161 8.34611 3.22168 7.49408 3.22168ZM7.49408 5.64253C7.04121 5.64253 6.67468 5.26494 6.67468 4.8028C6.67468 4.34066 7.04313 3.96308 7.49408 3.96308C7.94696 3.96308 8.31349 4.34066 8.31349 4.8028C8.31349 5.26494 7.94696 5.64253 7.49408 5.64253ZM10.1442 13.0113C9.54931 13.0113 9.06573 13.5068 9.06573 14.1165C9.06573 14.7261 9.54931 15.2217 10.1442 15.2217C10.7391 15.2217 11.2227 14.7261 11.2227 14.1165C11.2227 13.5068 10.7391 13.0113 10.1442 13.0113ZM10.1442 14.4803C9.94846 14.4803 9.78918 14.3171 9.78918 14.1165C9.78918 13.9159 9.94846 13.7527 10.1442 13.7527C10.3399 13.7527 10.4992 13.9159 10.4992 14.1165C10.4992 14.3171 10.3399 14.4803 10.1442 14.4803Z" fill="#676767"/>
</svg>
