<svg width="25" height="25" viewBox="0 0 25 25" fill="none" xmlns="http://www.w3.org/2000/svg">
<path d="M20.9505 11.6271C20.8214 10.4199 20.4434 9.28696 19.8357 8.25093C20.9201 6.37657 21.1329 5.0801 20.4643 4.39955C19.6135 3.5327 17.8225 4.22086 16.2861 5.09151C15.1162 4.4965 13.8152 4.18094 12.4914 4.17714C7.82509 4.15432 4.01907 7.94107 4.00008 12.6099C3.99438 13.9329 4.29825 15.2351 4.88131 16.4099C3.9393 18.1322 3.77977 19.3298 4.41411 19.9762C4.72178 20.2898 5.17189 20.4058 5.72836 20.3582C6.3475 20.305 7.09959 20.0427 7.93144 19.6302C9.55907 20.6909 11.5115 21.1605 13.4487 20.9514C18.0846 20.4514 21.4519 16.2692 20.9505 11.6271V11.6271ZM5.09972 19.3108C4.9041 19.1112 4.86802 18.2824 5.96956 16.4346L5.97526 16.4308C5.97526 16.4289 5.97336 16.4289 5.97336 16.427V16.4251L5.97146 16.4232C5.29914 15.2712 4.94778 13.9539 4.95158 12.6118C4.96868 8.46954 8.34927 5.11432 12.4876 5.12762C13.7772 5.13523 15.0383 5.4736 16.1512 6.10283L16.231 6.23019C18.5461 4.80636 19.5641 4.84438 19.7787 5.06299C19.9819 5.2683 20.0104 6.13324 18.8329 8.06463C17.7694 9.81163 16.0677 11.8571 14.0431 13.8208C9.56476 18.1702 5.75495 19.9781 5.09972 19.3108V19.3108ZM13.3442 20.0047C11.8001 20.172 10.2447 19.8526 8.89624 19.1036C10.7252 18.02 12.8124 16.351 14.7135 14.5051C16.5615 12.7125 18.1492 10.8477 19.2564 9.18051C19.6534 9.97511 19.906 10.8287 20.0028 11.7278C20.4472 15.8472 17.4598 19.5598 13.3442 20.0047V20.0047Z" fill="#7F8DA7" stroke="#7F8DA7" stroke-width="0.7"/>
<path d="M7.91706 11.7296C6.8597 11.7296 6 12.6106 6 13.6942C6 14.7778 6.8597 15.6588 7.91706 15.6588C8.97441 15.6588 9.83412 14.7778 9.83412 13.6942C9.83412 12.6106 8.97441 11.7296 7.91706 11.7296V11.7296ZM7.91706 14.9194C7.25885 14.9194 6.72154 14.3707 6.72154 13.6942C6.72154 13.0177 7.25885 12.469 7.91706 12.469C8.57527 12.469 9.11258 13.0197 9.11258 13.6942C9.11258 14.3687 8.57527 14.9194 7.91706 14.9194ZM11.2714 7C10.4213 7 9.72857 7.70993 9.72857 8.58112C9.72857 9.45231 10.4213 10.1622 11.2714 10.1622C12.1215 10.1622 12.8143 9.45231 12.8143 8.58112C12.8143 7.70993 12.1235 7 11.2714 7V7ZM11.2714 9.42085C10.8185 9.42085 10.452 9.04326 10.452 8.58112C10.452 8.11898 10.8205 7.7414 11.2714 7.7414C11.7243 7.7414 12.0908 8.11898 12.0908 8.58112C12.0908 9.04326 11.7243 9.42085 11.2714 9.42085V9.42085ZM13.9215 16.7896C13.3267 16.7896 12.8431 17.2852 12.8431 17.8948C12.8431 18.5044 13.3267 19 13.9215 19C14.5164 19 15 18.5044 15 17.8948C15 17.2852 14.5164 16.7896 13.9215 16.7896ZM13.9215 18.2586C13.7258 18.2586 13.5665 18.0954 13.5665 17.8948C13.5665 17.6942 13.7258 17.531 13.9215 17.531C14.1173 17.531 14.2765 17.6942 14.2765 17.8948C14.2765 18.0954 14.1173 18.2586 13.9215 18.2586Z" fill="#7F8DA7" stroke="#7F8DA7" stroke-width="0.7"/>
</svg>
