<svg width="18" height="18" viewBox="0 0 18 18" fill="none" xmlns="http://www.w3.org/2000/svg">
<path d="M4.50273 16.0539C4.82043 16.4568 4.38699 16.2977 5.2154 16.6687C11.8154 19.6242 18.2576 13.5814 16.2092 6.98624C15.7532 5.51847 15.6215 5.83368 15.397 5.60781M4.50273 16.0539C3.92437 16.0539 3.12449 16.4854 2.81143 16.586C-0.926012 17.7884 1.28196 14.0165 1.40234 13.414C1.49354 12.9507 -0.449463 9.99884 1.38543 6.07282C2.86416 2.91009 6.70805 0.928152 10.223 1.77181C12.5918 2.33946 11.7431 2.84134 13.39 2.02026C14.5132 1.46092 15.1307 1.49779 15.2803 1.43933C16.3932 1.55724 16.4655 1.59212 16.3415 2.98383C16.2606 3.8896 15.4759 4.57317 15.397 5.60781M4.50273 16.0539C4.59658 15.6069 4.95673 15.5012 5.46445 15.1737C8.43318 13.2569 12.8561 9.07911 14.7172 6.18974C14.9928 5.76127 14.9026 5.83667 15.397 5.60781M3.77312 9.07908L3.54098 9.11196C3.47233 9.15149 3.23654 9.26276 3.15927 9.29464C3.0379 9.3727 2.77094 9.64307 2.71191 9.75965C2.695 9.82177 2.66946 9.85764 2.62933 9.90945L2.51293 10.3077L2.4801 10.6731C2.50729 10.8464 2.53847 11.1457 2.61275 11.3048L2.82798 11.6532L3.06012 11.8857C3.17486 11.9611 3.37881 12.0551 3.45873 12.1183C3.51975 12.1229 3.69751 12.1654 3.75687 12.184L4.13857 12.201L4.57002 12.1183C4.6254 12.0767 4.68575 12.0495 4.75241 12.0355C4.86052 11.9847 5.11985 11.7682 5.19978 11.6702C5.24853 11.5948 5.30789 11.5081 5.36526 11.4377L5.48166 11.1713C5.4863 11.1102 5.49658 11.1045 5.49758 11.0384C5.50885 10.9292 5.58314 10.6515 5.56424 10.5402L5.50023 10.2071C5.4926 10.1469 5.48232 10.1413 5.48133 10.0752C5.43822 10.0167 5.41268 9.94632 5.39776 9.87657C5.33011 9.79287 5.23029 9.64041 5.16661 9.54409C5.08769 9.45275 4.6967 9.18171 4.63535 9.16178L4.03842 9.06214L3.77312 9.07908ZM7.17232 4.34596C7.11859 4.3629 7.04928 4.37784 6.98992 4.37884C6.92492 4.41637 6.96372 4.40608 6.89043 4.41172C6.78033 4.4476 6.55383 4.63293 6.4759 4.72793L6.32633 4.9435C6.28787 5.02454 6.25769 5.15341 6.24376 5.2421L6.21093 5.54137L6.2935 6.02265L6.64138 6.47172C6.76839 6.57435 6.99655 6.66204 7.15573 6.68728L7.45453 6.70422L7.80241 6.63746C7.85779 6.59694 7.8495 6.60059 7.91881 6.58764C7.9911 6.55475 8.1934 6.39267 8.24977 6.32225L8.41625 6.0728L8.49883 5.79048C8.53464 5.57956 8.53564 5.458 8.49883 5.24243C8.47064 5.07868 8.3297 4.76314 8.16687 4.62862C7.91218 4.4177 7.67042 4.3423 7.35471 4.32935C7.27479 4.32935 7.25224 4.34596 7.17232 4.34596ZM9.6758 14.1773C9.60914 14.2384 9.55077 14.248 9.46057 14.36C9.37799 14.4616 9.35047 14.6011 9.32792 14.7423C9.31764 14.8081 9.35909 15.1096 9.37766 15.1575L9.64263 15.4561C9.64628 15.4581 9.97625 15.5381 10.0741 15.5228L10.3722 15.4561C10.4568 15.4175 10.612 15.2508 10.6372 15.1907L10.7038 14.8582C10.7019 14.7931 10.7058 14.8177 10.6869 14.7586C10.6558 14.5739 10.6455 14.3696 10.422 14.2275C10.3636 14.2029 10.3901 14.2172 10.3394 14.1776C10.3138 14.1683 10.018 14.1125 9.92485 14.1278C9.86847 14.1467 9.73781 14.1763 9.6758 14.1773Z" stroke="#002358" stroke-miterlimit="10" stroke-linecap="square"/>
</svg>
