<svg width="29" height="29" viewBox="0 0 29 29" fill="none" xmlns="http://www.w3.org/2000/svg">
<path d="M6.74594 25.9443C6.45836 25.5797 6.51998 25.0508 6.8846 24.7632C7.24922 24.4756 7.77817 24.5372 8.06576 24.9018L6.74594 25.9418V25.9443ZM8.94649 25.6901L8.25834 27.2231L8.13252 27.1666L8.01697 27.1152L7.91169 27.0664L7.81669 27.0228L7.72939 26.9817L7.64979 26.9432L7.57789 26.9072L7.50599 26.8687L7.43923 26.8302L7.37761 26.7917L7.31341 26.7506L7.24665 26.7018L7.17476 26.6428L7.10286 26.5734L7.0361 26.4964L6.9719 26.4065L6.92055 26.3115L6.8846 26.2294L6.86149 26.1626L6.84609 26.1087L6.83838 26.083L6.83582 26.0702L6.83068 26.0599L6.82041 26.0445L6.805 26.0188L6.78189 25.9854L6.75108 25.9443L8.07089 24.9044L8.13252 24.9866L8.18901 25.0636L8.24036 25.1406L8.28658 25.2177L8.32767 25.2921L8.36618 25.3692L8.39699 25.4411L8.4201 25.5001L8.44065 25.5617L8.45605 25.6131L8.46632 25.6491L8.47146 25.667L8.46889 25.6542L8.45862 25.6285L8.43808 25.5823L8.4047 25.5232L8.36618 25.4693L8.33023 25.4282L8.29685 25.3948L8.27118 25.3743L8.2609 25.3666L8.26347 25.3692L8.28145 25.3794L8.30712 25.3948L8.34564 25.4154L8.39699 25.4411L8.46119 25.4719L8.53565 25.5078L8.62296 25.5489L8.72053 25.5926L8.83094 25.6413L8.95419 25.6953L8.94649 25.6901ZM8.94649 25.6901C9.37016 25.8801 9.56018 26.3783 9.37016 26.7994C9.18015 27.2231 8.68201 27.4131 8.2609 27.2231L8.94906 25.6901H8.94649ZM26.2684 10.4404L27.8732 9.94225L28.1711 11.0361L28.3842 12.1248L28.5126 13.2033L28.5614 14.2689L28.5331 15.3191L28.4279 16.3487L28.2507 17.3579L28.0042 18.3413L27.6909 19.2965L27.3135 20.2209L26.8744 21.1119L26.3762 21.9669L25.8216 22.7835L25.2131 23.5564L24.5557 24.2856L23.8496 24.9686L23.0972 25.6003L22.3038 26.1806L21.4693 26.7044L20.5963 27.1717L19.6899 27.5774L18.7526 27.9189L17.7846 28.1937L16.7909 28.3991L15.7741 28.5326L14.7367 28.5917L13.6814 28.5737L12.6132 28.4736L11.5322 28.2912L10.4435 28.0242L9.35219 27.6699L8.25834 27.2256L8.94649 25.6927L9.92993 26.0907L10.9057 26.4065L11.8737 26.6453L12.8315 26.8071L13.7764 26.8944L14.7059 26.9098L15.6175 26.8585L16.511 26.7403L17.384 26.558L18.234 26.3167L19.0582 26.0162L19.8568 25.6593L20.6245 25.2485L21.3589 24.7863L22.0599 24.2753L22.7224 23.7181L23.3463 23.1173L23.9266 22.4728L24.4633 21.7898L24.9537 21.0708L25.3928 20.3159L25.7805 19.5302L26.1143 18.7162L26.3916 17.874L26.6099 17.0086L26.7665 16.1202L26.859 15.2112L26.8846 14.2843L26.841 13.3419L26.728 12.3867L26.5406 11.4187L26.2761 10.4404H26.2684ZM26.2684 10.4404C26.1323 9.99617 26.3788 9.52628 26.8205 9.39019C27.2647 9.2541 27.7346 9.5006 27.8707 9.94225L26.2658 10.4404H26.2684ZM25.1103 8.46837L26.3043 7.28465L26.3018 7.28208L26.2966 7.27695L26.2864 7.26924L26.2812 7.26411L26.2889 7.26667L26.2966 7.26924L26.3146 7.27951L26.3506 7.29749L26.3942 7.3206L26.4456 7.34884L26.5098 7.38479L26.5817 7.43101L26.6561 7.4875L26.7306 7.54912L26.8025 7.61589L26.8744 7.69035L26.9437 7.77252L27.0079 7.85725L27.0695 7.94712L27.1312 8.0447L27.1902 8.1474L27.2467 8.25525L27.3032 8.3708L27.3622 8.49662L27.4213 8.63271L27.4804 8.77907L27.542 8.93827L27.6036 9.1103L27.6678 9.29518L27.7346 9.49546L27.8039 9.70858L27.8758 9.93711L26.271 10.4353L26.2042 10.2196L26.14 10.0218L26.0784 9.84211L26.0193 9.67777L25.9654 9.52884L25.914 9.39532L25.8653 9.27721L25.8216 9.1745L25.7805 9.08463L25.742 9.0076L25.7086 8.9434L25.6804 8.89205L25.6573 8.85353L25.6367 8.82529L25.6239 8.80731L25.6162 8.79961L25.6239 8.80474L25.629 8.80988H25.6265L25.6136 8.80218L25.5931 8.79191L25.5648 8.7765L25.5186 8.75339L25.4621 8.72258L25.4031 8.6892L25.3312 8.64298L25.2541 8.58649L25.1797 8.52486L25.1078 8.4581L25.1103 8.46837ZM25.1103 8.46837C24.7842 8.1397 24.7842 7.60561 25.1155 7.27951C25.4442 6.95341 25.9782 6.95341 26.3043 7.28465L25.1103 8.46837ZM7.40585 24.586C7.87061 24.586 8.2455 24.9635 8.2455 25.4257C8.2455 25.8904 7.86804 26.2653 7.40585 26.2653V24.586ZM4.82272 27.1204L4.30917 25.5207L4.33998 25.5104L4.3785 25.4976L4.42728 25.4796L4.48634 25.4565L4.54797 25.4308L4.61473 25.4025L4.68663 25.3717L4.76366 25.3384L4.93313 25.2665L5.11544 25.1894L5.21301 25.1483L5.31058 25.1073L5.41329 25.0662L5.51857 25.0251L5.62385 24.984L5.73169 24.9455L5.8421 24.907L5.95508 24.8685L6.06806 24.8325L6.18361 24.7966L6.30173 24.7632L6.41984 24.7298L6.53796 24.7016L6.65864 24.6733L6.77933 24.6502L6.90258 24.6297L7.0284 24.6117L7.15421 24.5989L7.28003 24.5911L7.40842 24.5886V26.2679L7.3545 26.2704L7.29287 26.2756L7.22611 26.2833L7.15678 26.2936L7.08232 26.3064L7.00272 26.3218L6.92312 26.3398L6.83838 26.3603L6.75365 26.3834L6.66634 26.4091L6.57647 26.4373L6.4866 26.4656L6.39673 26.4964L6.30686 26.5298L6.21442 26.5632L6.12199 26.5991L6.03212 26.6351L5.94225 26.671L5.85238 26.707L5.76507 26.7429L5.59047 26.8174L5.42613 26.8893L5.34653 26.9226L5.26693 26.956L5.1899 26.9894L5.11544 27.0202L5.04354 27.0485L4.97164 27.0767L4.89718 27.1024L4.82528 27.1255L4.82272 27.1204ZM4.82272 27.1204C4.38107 27.2616 3.9086 27.0177 3.76481 26.576C3.62359 26.1344 3.86752 25.6619 4.30917 25.5181L4.82272 27.1178V27.1204ZM1.37425 20.8294L3.02274 21.153V21.1555L2.97395 21.3455L2.91489 21.5227L2.84556 21.7102L2.76596 21.9104L2.67866 22.1236L2.58365 22.3521L2.48608 22.5935L2.38594 22.8425L2.2858 23.1019L2.18822 23.3663L2.09579 23.6334L2.01105 23.9004L1.93659 24.1623L1.87496 24.4165L1.82617 24.6605L1.79279 24.889L1.77739 25.097V25.2793L1.79279 25.4308L1.81847 25.5489L1.84928 25.6336L1.8801 25.6876L1.91348 25.7261L1.96226 25.7646L2.04443 25.8031L2.17795 25.8416L2.37053 25.8673L2.62987 25.8699L2.95341 25.8416L3.34114 25.7774L3.79562 25.6696L4.3143 25.5155L4.82785 27.1152L4.227 27.2924L3.67494 27.4234L3.16396 27.5081L2.6915 27.5466L2.24985 27.5389L1.83388 27.4798L1.44615 27.3669L1.08924 27.1923L0.775973 26.956L0.521768 26.671L0.331756 26.3526L0.205937 26.0214L0.131473 25.685L0.0980925 25.3512V25.02L0.12377 24.6913L0.169989 24.3652L0.234182 24.0417L0.313782 23.7207L0.403652 23.4049L0.501226 23.0942L0.606503 22.7912L0.714348 22.4984L0.822192 22.2186L0.930037 21.9515L1.03275 21.7024L1.12775 21.4739L1.21249 21.2685L1.28438 21.0913L1.33831 20.9475L1.37169 20.8474L1.37939 20.8166V20.8192L1.37425 20.8294ZM1.37425 20.8269C1.46412 20.3724 1.90834 20.0771 2.36283 20.1669C2.81732 20.2568 3.11261 20.701 3.02274 21.1555L1.37425 20.8269ZM1.40763 8.30147L2.9303 9.01273L2.67353 9.59304L2.45013 10.1631L2.26012 10.7203L2.10092 11.2672L1.96997 11.8013L1.86469 12.3251L1.78509 12.8361L1.7286 13.3342L1.69265 13.8195L1.67725 14.292L1.67981 14.7516L1.69779 15.1984L1.73117 15.6323L1.77739 16.0509L1.83645 16.454L1.90577 16.8443L1.98281 17.2192L2.06497 17.5787L2.15228 17.9202L2.24471 18.2463L2.33972 18.557L2.43216 18.8497L2.5246 19.1245L2.61447 19.3838L2.6992 19.6252L2.7788 19.8511L2.8507 20.0617L2.91489 20.2594L2.96881 20.4494L3.01247 20.6445L3.03814 20.8628L3.0176 21.1504L1.36912 20.8269L1.35885 20.9424L1.34344 20.8731L1.30749 20.7524L1.25614 20.5932L1.19195 20.4032L1.11491 20.1824L1.02761 19.9359L0.935172 19.6662L0.837599 19.371L0.737457 19.0551L0.634748 18.7162L0.534607 18.3567L0.437033 17.9767L0.344595 17.5761L0.25986 17.1576L0.182828 16.7185L0.118634 16.2614L0.064712 15.7864L0.0261961 15.296L0.00308653 14.7876L0.000518799 14.2637L0.0184929 13.7245L0.0570089 13.1725L0.121202 12.605L0.211073 12.0247L0.329188 11.4315L0.478117 10.8255L0.657858 10.2093L0.870979 9.58277L1.12005 8.94597L1.40507 8.2989L1.40763 8.30147ZM1.40763 8.30147C1.60535 7.88036 2.10349 7.70062 2.5246 7.89577C2.9457 8.09348 3.12545 8.59162 2.9303 9.01273L1.40763 8.30147ZM17.212 0.613687L16.8191 2.24676L16.303 2.13635L15.7844 2.05161L15.2657 1.99256L14.7444 1.95661L14.2232 1.94377L13.7019 1.95404L13.1807 1.98999L12.662 2.04648L12.1459 2.12608L11.6349 2.22622L11.1265 2.34947L10.6232 2.49326L10.1251 2.6576L9.63464 2.84248L9.15191 3.04533L8.67688 3.26872L8.21212 3.51009L7.75763 3.76943L7.31341 4.04674L6.88203 4.34203L6.46349 4.65273L6.05779 4.97883L5.6675 5.32033L5.29261 5.67725L4.93313 6.04957L4.58905 6.43473L4.26295 6.83273L3.95482 7.24356L3.66724 7.66724L3.39762 8.10119L3.14856 8.54797L2.9226 9.00503L1.39993 8.29377L1.66184 7.76738L1.94686 7.25384L2.25499 6.75313L2.58622 6.26783L2.938 5.79793L3.31032 5.34344L3.70062 4.90436L4.10889 4.48325L4.53513 4.08012L4.97678 3.69239L5.43383 3.32264L5.9063 2.97086L6.3916 2.63963L6.89231 2.32636L7.40328 2.03364L7.9271 1.76146L8.46119 1.50982L9.00555 1.27873L9.55761 1.07074L10.1199 0.883298L10.69 0.721531L11.2651 0.582874L11.848 0.467326L12.436 0.377455L13.0266 0.310694L13.6198 0.272178L14.2155 0.25934L14.8138 0.272178L15.412 0.313262L16.0103 0.382591L16.6086 0.480165L17.2043 0.608551L17.212 0.613687ZM17.212 0.613687C17.6639 0.721531 17.9412 1.17602 17.8334 1.62794C17.7256 2.07986 17.2711 2.35717 16.8191 2.24933L17.212 0.616254V0.613687ZM25.4005 0.0385151L25.6239 1.70497L25.7215 1.68443L24.9743 1.88214L24.3118 2.06702L23.7315 2.23906L23.2282 2.39826L22.7943 2.54462L22.4245 2.67557L22.1138 2.79369L21.8596 2.8964L21.6542 2.98627L21.4924 3.0633L21.3692 3.12749L21.2742 3.17885L21.1971 3.22507L21.1227 3.27129L21.0251 3.32521L20.8608 3.39197L20.5963 3.43819L20.3267 3.40994L20.1521 3.35089L20.0468 3.29953L19.9723 3.25845L19.8927 3.21736L19.7951 3.16858L19.6668 3.10952L19.5024 3.04019L19.2944 2.96059L19.0351 2.86815L18.7218 2.76544L18.3495 2.65246L17.9104 2.52921L17.3995 2.39312L16.814 2.24676L17.2069 0.613687L17.818 0.765183L18.3547 0.906408L18.8245 1.03993L19.2328 1.16575L19.582 1.2813L19.8799 1.38657L20.1315 1.48415L20.3421 1.57402L20.5141 1.65362L20.6528 1.72038L20.7555 1.7743L20.8197 1.80768V1.81025L20.7298 1.782L20.5347 1.76146L20.3446 1.79484L20.265 1.82565L20.2727 1.82052L20.3344 1.78457L20.4371 1.72295L20.5732 1.64591L20.7426 1.55861L20.9506 1.45847L21.1997 1.34806L21.495 1.22737L21.8391 1.09642L22.2422 0.952627L22.707 0.798563L23.2385 0.631661L23.8445 0.454487L24.5275 0.264475L25.2952 0.0616246L25.3928 0.0410828L25.4005 0.0385151ZM25.3029 0.0590569C25.7523 -0.0564909 26.2119 0.213121 26.3274 0.662473C26.443 1.11183 26.1734 1.57145 25.724 1.687L25.3029 0.0590569ZM26.5483 7.93942L24.8715 7.81103L24.9049 7.57994L24.9589 7.36425L25.0256 7.14599L25.1052 6.92003L25.1951 6.68123L25.2952 6.42703L25.4031 6.15998L25.516 5.88267L25.6316 5.59508L25.7497 5.29979L25.8678 4.99937L25.9834 4.69638L26.0938 4.39338L26.1965 4.09039L26.2915 3.78997L26.3762 3.49981L26.4481 3.21993L26.5046 2.95289L26.5457 2.70382L26.5688 2.47786L26.574 2.27758L26.5637 2.11067L26.5406 1.97972L26.5123 1.88728L26.4841 1.83079L26.4584 1.79741L26.4302 1.77173L26.3762 1.74349L26.2812 1.71267L26.1272 1.68957L25.9115 1.68443L25.6316 1.71011L25.4082 0.0436505L25.8499 0.00513458L26.2658 0.0128378L26.6613 0.0744633L27.0361 0.197714L27.3777 0.385159L27.6704 0.634228L27.9015 0.929517L28.0658 1.25305L28.1711 1.58429L28.2301 1.91809L28.2507 2.2519L28.2404 2.58827L28.207 2.92464L28.1531 3.26102L28.0812 3.59996L27.9965 3.9389L27.8989 4.27784L27.7911 4.61421L27.6781 4.95058L27.56 5.27925L27.4367 5.60279L27.3135 5.91862L27.1928 6.22161L27.0747 6.51433L26.9642 6.78908L26.8615 7.04842L26.7691 7.28465L26.6895 7.49777L26.6253 7.68008L26.5791 7.82387L26.556 7.91888L26.5508 7.94199L26.5483 7.93942ZM26.5483 7.93942C26.5123 8.40161 26.1092 8.74825 25.647 8.71231C25.1848 8.67636 24.8382 8.27322 24.8741 7.81103L26.5508 7.93942H26.5483ZM8.23009 25.5977C8.13509 26.0522 7.6883 26.3423 7.23381 26.2473C6.77933 26.1523 6.48917 25.7055 6.58418 25.2511L8.23009 25.5977ZM23.8599 8.39904L25.2721 9.30802L24.661 10.2247L24.0268 11.1157L23.372 11.981L22.6992 12.8207L22.0137 13.6346L21.3152 14.4229L20.6065 15.1881L19.8927 15.9276L19.1738 16.6415L18.4548 17.3296L17.7384 17.9921L17.0271 18.6289L16.321 19.2426L15.6252 19.8306L14.9421 20.3929L14.2745 20.9296L13.6249 21.4405L12.9984 21.9258L12.3949 22.388L11.8172 22.8245L11.2703 23.2354L10.7542 23.6205L10.274 23.98L9.83236 24.3113L9.43436 24.6168L9.08001 24.8941L8.77702 25.1406L8.52795 25.3563L8.3405 25.5335L8.22496 25.6593L8.18901 25.7055L8.22752 25.5951L6.58161 25.2485L6.73054 24.8685L6.92312 24.5937L7.14394 24.3498L7.40072 24.1058L7.696 23.8516L8.02981 23.5795L8.40213 23.2867L8.81554 22.9735L9.26489 22.6371L9.74762 22.2776L10.2612 21.895L10.8055 21.4868L11.3781 21.0554L11.9738 20.6009L12.5901 20.1233L13.2269 19.6226L13.8791 19.0962L14.5467 18.5467L15.2246 17.9741L15.9127 17.3758L16.606 16.7544L17.3019 16.1099L17.9977 15.4423L18.6936 14.7516L19.3843 14.0378L20.0673 13.3008L20.7401 12.5408L21.4 11.7576L22.0445 10.9514L22.671 10.122L23.277 9.27207L23.8599 8.39904ZM23.8599 8.39904C24.1115 8.00875 24.6302 7.89577 25.0205 8.1474C25.4108 8.39904 25.5238 8.91772 25.2721 9.30802L23.8599 8.39904ZM25.3568 7.11261L26.063 8.63784L25.914 8.7046L25.7908 8.76109L25.7394 8.7842L25.6881 8.80731L25.647 8.82529L25.6162 8.84069L25.5828 8.8561L25.5623 8.86637L25.5494 8.87407L25.534 8.88178L25.5366 8.87921L25.5417 8.87664L25.5494 8.8715L25.5571 8.8638L25.5597 8.86123L25.5623 8.85867L25.5571 8.8638L25.552 8.8715L25.5392 8.88948L25.5212 8.91516L25.5032 8.9434L25.4801 8.97678L25.4544 9.01787L25.4262 9.06152L25.3568 9.17193L25.2747 9.30288L23.8624 8.39391L23.9395 8.27322L24.0062 8.16795L24.0396 8.11659L24.0704 8.07037L24.1012 8.02415L24.132 7.97793L24.1603 7.93428L24.1911 7.88806L24.2296 7.83671L24.2681 7.78792L24.3092 7.73914L24.3554 7.69035L24.4042 7.64156L24.4556 7.59534L24.5095 7.54912L24.5634 7.50804L24.6199 7.46952L24.6764 7.43358L24.7252 7.40533L24.7791 7.37452L24.833 7.34884L24.8793 7.32573L24.9357 7.30005L24.9897 7.27695L25.0385 7.25384L25.0975 7.22559L25.2208 7.1691L25.362 7.10491L25.3568 7.11261ZM25.3568 7.11261C25.778 6.91746 26.2787 7.10234 26.4738 7.52345C26.669 7.94455 26.4841 8.44526 26.063 8.64041L25.3568 7.11518V7.11261ZM7.56248 17.8765L8.094 19.4711L7.62668 19.6072L7.17219 19.6971L6.73311 19.7433H6.30943L5.90373 19.6996L5.51857 19.6123L5.15652 19.4839L4.82015 19.317L4.51202 19.1142L4.23727 18.8831L3.99334 18.6237L3.78278 18.3464L3.60561 18.0511L3.45925 17.7404L3.34627 17.4195L3.2641 17.0934L3.21018 16.7621L3.18707 16.4258L3.19221 16.0894L3.22815 15.7556L3.29235 15.4244L3.38735 15.0982L3.51317 14.7799L3.67237 14.4717L3.86238 14.179L4.08578 13.9043L4.34255 13.6526L4.6327 13.4267L4.95367 13.2315L5.30288 13.0723L5.67777 12.9516L6.0732 12.8746L6.30943 14.5385L6.09631 14.5821L5.90886 14.6438L5.73939 14.7208L5.5879 14.8107L5.45181 14.9159L5.33113 15.0341L5.22328 15.1676L5.12827 15.3139L5.04868 15.4706L4.98191 15.6375L4.93056 15.8146L4.89461 15.9995L4.87407 16.187L4.8715 16.377L4.88434 16.5644L4.91259 16.7493L4.9588 16.929L5.01786 17.0985L5.09233 17.2577L5.17963 17.4041L5.27977 17.5376L5.39275 17.6583L5.51857 17.7636L5.65723 17.8534L5.81129 17.9305L5.9859 17.9921L6.18104 18.0357L6.40187 18.0588H6.64837L6.92569 18.0306L7.23125 17.969L7.56762 17.8714L7.56248 17.8765ZM7.56248 17.8765C8.00156 17.7302 8.47916 17.9664 8.62552 18.4081C8.77188 18.8471 8.53565 19.3247 8.094 19.4711L7.56248 17.8765ZM6.30173 14.5385L6.0655 12.8746L6.12969 12.8669L6.54309 12.8566L6.93852 12.8772L7.31598 12.9311L7.67289 13.0158L8.00927 13.1314L8.32253 13.2777L8.61012 13.4523L8.87202 13.6526L9.10569 13.8734L9.31111 14.1122L9.48828 14.3664L9.63721 14.6335L9.75789 14.9082L9.8529 15.1881L9.92479 15.4731L9.97358 15.7607L9.99926 16.0457L10.0044 16.3308L9.99156 16.6132L9.95817 16.8931L9.90682 17.1678L9.83749 17.4349L9.75019 17.6968L9.64491 17.951L9.52166 18.1949L9.38043 18.4286L9.22124 18.6494L9.03893 18.8574L8.83608 19.0448L8.61268 19.2118L8.36361 19.3555L8.094 19.466L7.56248 17.8714L7.62411 17.8457L7.6883 17.8098L7.75763 17.7559L7.83209 17.6865L7.90656 17.6018L7.97845 17.5016L8.04778 17.3835L8.11198 17.2526L8.17103 17.1114L8.21982 16.9599L8.2609 16.8007L8.29172 16.6363L8.31226 16.4694L8.31996 16.3025L8.3174 16.1356L8.30199 15.9713L8.27631 15.8121L8.2378 15.658L8.18901 15.5117L8.12995 15.3756L8.06062 15.2497L7.98102 15.1316L7.88858 15.0238L7.78587 14.9262L7.67033 14.8363L7.53681 14.7567L7.38531 14.6848L7.2107 14.6232L7.01042 14.5744L6.78189 14.5411L6.52512 14.5282L6.23753 14.5359L6.30173 14.5282V14.5385ZM6.23753 14.5462C5.77534 14.5744 5.37478 14.2252 5.34396 13.7605C5.31572 13.2983 5.66493 12.8977 6.12969 12.8669L6.23753 14.5436V14.5462ZM13.2885 8.18592L14.6777 9.13085L14.4312 9.45438L14.159 9.73426L13.8611 9.97049L13.5453 10.1579L13.2166 10.2966L12.8777 10.389L12.5387 10.4327L12.2049 10.4353L11.8788 10.3967L11.5656 10.3248L11.2651 10.2221L10.9801 10.0912L10.7105 9.93454L10.4589 9.7548L10.2252 9.55195L10.0121 9.33113L9.82208 9.08976L9.65518 8.83042L9.51396 8.55311L9.40354 8.25782L9.32908 7.94712L9.2957 7.62102L9.30854 7.28722L9.37273 6.95084L9.49085 6.62217L9.66289 6.30634L9.88371 6.01362L10.1508 5.74658L10.4614 5.50778L10.8132 5.29722L11.2035 5.11492L11.6349 4.95828L12.1433 6.56055L11.8429 6.67096L11.5964 6.78651L11.4012 6.90206L11.2523 7.01504L11.1445 7.12288L11.07 7.22046L11.0212 7.31033L10.9904 7.39506L10.975 7.4798L10.9724 7.5671L10.9827 7.6621L11.0084 7.76738L11.0495 7.87779L11.1085 7.99334L11.183 8.10889L11.2754 8.22187L11.3807 8.33228L11.4962 8.43242L11.6221 8.52229L11.7556 8.59933L11.8917 8.66352L12.0278 8.70974L12.1639 8.74055L12.2948 8.75596H12.4232L12.5464 8.74055L12.6671 8.70717L12.7852 8.65582L12.9059 8.58392L13.0292 8.48635L13.1576 8.35539L13.2885 8.18335V8.18592ZM13.2885 8.18592C13.5504 7.80333 14.0717 7.70319 14.4568 7.96253C14.8394 8.22444 14.9396 8.74569 14.6802 9.13085L13.2911 8.18592H13.2885ZM12.1484 6.55798L11.64 4.95572L11.735 4.93261L11.9892 4.89152L12.2383 4.87098L12.4823 4.86841L12.7211 4.88639L12.9521 4.92234L13.1755 4.97626L13.3887 5.04816L13.5915 5.13803L13.7815 5.2433L13.9587 5.36142L14.123 5.49237L14.2745 5.6336L14.4106 5.78509L14.5339 5.94429L14.6443 6.10863L14.7419 6.2781L14.8266 6.4527L14.8985 6.62988L14.9601 6.80962L15.0089 6.99193L15.0474 7.17424L15.0731 7.35911L15.0885 7.54142L15.0936 7.72373L15.0859 7.90604L15.068 8.08835L15.0371 8.26809L14.9935 8.44526L14.937 8.62244L14.8677 8.79447L14.7829 8.96394L14.6828 9.12571L13.2937 8.18079L13.3142 8.14484L13.3347 8.10375L13.3553 8.05497L13.3733 7.99848L13.3887 7.93428L13.4015 7.86239L13.4092 7.78792L13.4118 7.71089L13.4092 7.62872L13.4015 7.54399L13.3887 7.45925L13.3707 7.37709L13.3476 7.29492L13.3193 7.21275L13.2885 7.13572L13.2526 7.06126L13.2141 6.99193L13.1704 6.92773L13.1242 6.86868L13.0728 6.81475L13.0215 6.76597L12.9676 6.72232L12.9085 6.6838L12.8443 6.64785L12.7775 6.61704L12.7031 6.59136L12.6209 6.57082L12.531 6.55541L12.4309 6.54771H12.3179L12.1947 6.55798L12.0586 6.58109L12.1536 6.55798H12.1484ZM12.0534 6.58109C11.599 6.66839 11.1573 6.37054 11.0674 5.91605C10.9801 5.46156 11.278 5.01991 11.7325 4.93004L12.0534 6.58109ZM16.434 23.0942L15.2195 21.9335L15.3915 21.7666L15.5712 21.6177L15.7587 21.4893L15.9538 21.3789L16.1567 21.2916L16.3647 21.2249L16.5752 21.1838L16.7883 21.1684L16.9989 21.1786L17.2043 21.2146L17.3995 21.2736L17.5843 21.3532L17.7538 21.4508L17.9104 21.5638L18.0517 21.6922L18.1775 21.8308L18.2879 21.9772L18.3855 22.1338L18.4676 22.2956L18.537 22.4651L18.5935 22.6422L18.6345 22.822L18.6602 23.0043L18.6705 23.1943L18.6653 23.3843L18.6422 23.5743L18.6037 23.7669L18.5447 23.9595L18.4676 24.1469L18.3726 24.3318L18.2571 24.509L18.1261 24.6784L16.8525 23.582L16.8885 23.5358L16.9167 23.4896L16.9398 23.4434L16.9578 23.3972L16.9706 23.3509L16.9809 23.3047L16.9861 23.2559L16.9886 23.2097L16.9861 23.1635L16.9783 23.1173L16.9681 23.0711L16.9552 23.03L16.9398 22.9915L16.9219 22.9555L16.9039 22.9273L16.8859 22.9016L16.8679 22.881L16.8525 22.8682L16.8397 22.8579L16.8294 22.8528L16.8217 22.8502L16.8166 22.8477H16.814H16.8089H16.796L16.7755 22.8502L16.7473 22.8605L16.7062 22.8785L16.6548 22.9067L16.5906 22.9504L16.5162 23.012L16.434 23.0916V23.0942ZM16.434 23.0942C16.113 23.428 15.5815 23.4408 15.2451 23.1198C14.9113 22.7989 14.8985 22.2674 15.2195 21.931L16.4314 23.0942H16.434ZM16.8525 23.5795L18.1261 24.6759L18.1236 24.6784L17.9721 24.8325L17.8052 24.9635L17.6254 25.0687L17.4354 25.1483L17.2428 25.2023L17.0528 25.2331L16.8654 25.2433L16.6831 25.2331L16.5085 25.2074L16.339 25.1663L16.1746 25.115L16.018 25.0508L15.8665 24.9763L15.7202 24.8916L15.5815 24.7966L15.4505 24.6939L15.3247 24.5809L15.2066 24.4576L15.0988 24.3267L14.9961 24.1803L14.9062 24.0262L14.8292 23.8619L14.7675 23.6847L14.7239 23.4973L14.6982 23.2996V23.0942L14.7213 22.8887L14.7727 22.6833L14.8497 22.483L14.9524 22.2905L15.0757 22.1082L15.2195 21.9412L16.434 23.1019L16.4057 23.1352L16.3903 23.1584L16.3826 23.1738L16.3801 23.1815V23.184V23.1866V23.1943L16.3826 23.2071L16.3903 23.2251L16.4006 23.2508L16.416 23.279L16.4366 23.3098L16.4648 23.3458L16.4982 23.3817L16.5341 23.4151L16.5752 23.4485L16.6189 23.4768L16.6625 23.5024L16.7062 23.523L16.7498 23.5409L16.7883 23.5538L16.8217 23.5615L16.85 23.5666L16.8705 23.5692H16.8808L16.8705 23.5743L16.8602 23.5795L16.8525 23.5872L16.85 23.5897L16.8474 23.5923L16.8525 23.5795ZM16.8551 23.5769C17.1581 23.2251 17.6896 23.1866 18.0414 23.4896C18.3932 23.7926 18.4317 24.3241 18.1287 24.6759L16.8577 23.5769H16.8551Z" fill="#002358"/>
</svg>
