<svg width="37" height="38" viewBox="0 0 37 38" fill="none" xmlns="http://www.w3.org/2000/svg">
<circle cx="18.5381" cy="19.054" r="18.4016" fill="#264D89"/>
<path d="M24.7739 12.7801C23.9628 11.9608 22.9967 11.3112 21.932 10.8692C20.8672 10.4272 19.7251 10.2016 18.5722 10.2056C13.7418 10.2056 9.80491 14.1425 9.80491 18.9729C9.80491 20.5211 10.2119 22.0251 10.9727 23.3522L9.73413 27.8995L14.3788 26.6786C15.6616 27.3775 17.1036 27.7491 18.5722 27.7491C23.4026 27.7491 27.3395 23.8122 27.3395 18.9818C27.3395 16.6373 26.4283 14.4345 24.7739 12.7801ZM18.5722 26.2628C17.2629 26.2628 15.9801 25.9089 14.8565 25.2454L14.5911 25.0862L11.8309 25.8116L12.5652 23.1221L12.3882 22.8479C11.6608 21.6863 11.2745 20.3435 11.2735 18.9729C11.2735 14.9564 14.5469 11.6831 18.5634 11.6831C20.5097 11.6831 22.341 12.4439 23.7123 13.824C24.3913 14.4999 24.9294 15.3038 25.2954 16.1892C25.6614 17.0745 25.848 18.0238 25.8444 18.9818C25.8621 22.9983 22.5887 26.2628 18.5722 26.2628ZM22.571 20.8131C22.3499 20.7069 21.2705 20.1761 21.0759 20.0965C20.8724 20.0257 20.7309 19.9903 20.5805 20.2027C20.4301 20.4238 20.0143 20.9193 19.8904 21.0608C19.7666 21.2112 19.6339 21.2289 19.4127 21.1139C19.1915 21.0077 18.4838 20.7689 17.6521 20.0257C16.9975 19.4418 16.564 18.7252 16.4313 18.504C16.3074 18.2829 16.4136 18.1679 16.5286 18.0529C16.6259 17.9555 16.7498 17.7963 16.8559 17.6724C16.9621 17.5486 17.0063 17.4513 17.0771 17.3097C17.1479 17.1593 17.1125 17.0355 17.0594 16.9293C17.0063 16.8231 16.564 15.7438 16.387 15.3015C16.2101 14.8768 16.0243 14.9299 15.8916 14.921H15.4669C15.3165 14.921 15.0865 14.9741 14.883 15.1953C14.6884 15.4165 14.1222 15.9473 14.1222 17.0266C14.1222 18.1059 14.9096 19.1499 15.0158 19.2914C15.1219 19.4418 16.564 21.6536 18.758 22.6002C19.28 22.8302 19.6869 22.9629 20.0054 23.0602C20.5274 23.2283 21.0051 23.2018 21.3855 23.1487C21.8102 23.0868 22.686 22.6179 22.863 22.1048C23.0488 21.5916 23.0488 21.1581 22.9868 21.0608C22.9249 20.9635 22.7922 20.9193 22.571 20.8131Z" fill="white"/>
</svg>
