<svg width="16" height="19" viewBox="0 0 16 19" fill="none" xmlns="http://www.w3.org/2000/svg">
<path d="M15.0391 5.72298L10.5832 0.94218C10.522 0.875992 10.4481 0.823254 10.3662 0.787196C10.2843 0.751138 10.196 0.732519 10.1068 0.73248H9.92589C9.91839 0.731399 9.911 0.729591 9.90383 0.72708C9.89475 0.723807 9.88523 0.721986 9.8756 0.72168C9.86568 0.721979 9.85587 0.723799 9.84648 0.72708C9.83932 0.729597 9.83193 0.731405 9.82442 0.73248H4.25501C2.06943 0.73248 0.222662 2.59098 0.222662 4.79148V8.53458C0.222662 8.90898 0.51825 9.21408 0.882661 9.21408C1.05833 9.21289 1.22637 9.14069 1.34993 9.01331C1.47349 8.88593 1.54248 8.71377 1.54178 8.53458V4.78968C1.54178 3.32718 2.78413 2.09058 4.25501 2.09058H9.21648V4.03728C9.21648 5.69508 10.525 7.04598 12.1344 7.04958C12.31 7.04886 12.4781 6.97709 12.6019 6.85002C12.7256 6.72296 12.7949 6.55098 12.7944 6.37188C12.7951 6.28312 12.7787 6.19509 12.746 6.11281C12.7134 6.03053 12.6651 5.95562 12.6041 5.89236C12.543 5.82909 12.4704 5.77871 12.3903 5.74409C12.3101 5.70947 12.2241 5.69129 12.1371 5.69058C11.71 5.68701 11.3018 5.51105 11.0017 5.2012C10.7015 4.89135 10.534 4.47285 10.5356 4.03728V2.85378L13.9035 6.46638V14.4989C13.9035 16.0244 12.6788 17.3627 11.283 17.3627H4.25501C2.73384 17.3627 1.54178 16.1045 1.54178 14.4989V8.33568C1.54248 8.15649 1.47349 7.98433 1.34993 7.85695C1.22637 7.72957 1.05833 7.65737 0.882661 7.65618C0.706835 7.65713 0.538569 7.72923 0.414819 7.85663C0.29107 7.98404 0.221958 8.15634 0.222662 8.33568V14.4989C0.222662 16.8677 1.99443 18.7217 4.25501 18.7217H11.283C13.4182 18.7217 15.2227 16.7885 15.2227 14.4989V6.19368C15.2228 6.0186 15.1571 5.85014 15.0391 5.72298ZM4.9609 13.6862H9.70972C9.88539 13.685 10.0534 13.6128 10.177 13.4854C10.3005 13.358 10.3695 13.1859 10.3688 13.0067C10.3695 12.8275 10.3005 12.6553 10.177 12.528C10.0534 12.4006 9.88539 12.3284 9.70972 12.3272H4.9609C4.78507 12.3281 4.6168 12.4002 4.49305 12.5276C4.3693 12.655 4.30019 12.8273 4.3009 13.0067C4.3009 13.382 4.59648 13.6862 4.9609 13.6862ZM7.91325 9.19878H4.9609C4.78507 9.19783 4.6168 9.12573 4.49305 8.99832C4.3693 8.87092 4.30019 8.69862 4.3009 8.51928C4.3009 8.14488 4.59648 7.83978 4.9609 7.83978H7.91325C8.27766 7.83978 8.57325 8.14488 8.57325 8.51928C8.57395 8.69862 8.50484 8.87092 8.38109 8.99832C8.25734 9.12573 8.08907 9.19783 7.91325 9.19878Z" fill="#676767"/>
</svg>
