<svg width="24" height="29" viewBox="0 0 24 29" fill="none" xmlns="http://www.w3.org/2000/svg">
<path d="M15.469 2.73345C15.0139 2.64703 14.7143 2.20726 14.8007 1.75212C14.8871 1.29698 15.3269 0.997391 15.782 1.08381L15.469 2.73537V2.73345ZM17.8407 1.8635L16.6193 3.01768L16.9593 3.2366L16.9113 3.22124L16.8652 3.20396L16.8191 3.18859L16.7672 3.16939L16.6674 3.1329L16.5637 3.09449L16.458 3.05608L16.3505 3.01768L16.2429 2.97927L16.1373 2.94086L16.0835 2.92166L16.0317 2.90437L15.9798 2.88709L15.9318 2.8698L15.8838 2.85444L15.8339 2.83716L15.784 2.82179L15.7417 2.80835L15.6975 2.79491L15.6534 2.78146L15.6188 2.77186L15.5804 2.76226L15.5458 2.75266L15.5151 2.74498L15.4901 2.73921L15.4671 2.73537L15.7801 1.08381L15.8377 1.09533L15.8973 1.10878L15.9549 1.12222L16.0087 1.13566L16.0643 1.15102L16.1258 1.16831L16.1796 1.18367L16.2372 1.20096L16.2967 1.22016L16.3524 1.23744L16.4081 1.25473L16.4676 1.27393L16.5272 1.29506L16.5848 1.31426L16.6424 1.33539L16.7 1.35651L16.8133 1.39684L16.9247 1.43717L17.0342 1.4775L17.1398 1.51591L17.2396 1.55239L17.3357 1.58696L17.376 1.6004L17.4202 1.61577L17.4605 1.62921L17.497 1.64073L17.8369 1.85966L17.8407 1.8635ZM17.5008 1.64457C17.9406 1.79437 18.1749 2.27063 18.0251 2.71041C17.8753 3.15019 17.399 3.38448 16.9593 3.23468L17.5008 1.64265V1.64457ZM22.6264 6.96799L21.3935 8.11064L21.0959 7.78993L20.7982 7.47114L20.5005 7.15235L20.2029 6.83356L19.9052 6.51477L19.6075 6.19598L19.3099 5.87719L19.0122 5.56032L18.7145 5.24153L18.4169 4.92466L18.1173 4.60587L17.8177 4.28708L17.5181 3.96829L17.2185 3.6495L16.9189 3.33071L16.6174 3.01191L17.8388 1.85774L18.1403 2.17653L18.4418 2.49532L18.7414 2.81411L19.041 3.1329L19.3406 3.45169L19.6402 3.77048L19.9398 4.08927L20.2374 4.40806L20.537 4.72685L20.8347 5.04564L21.1323 5.36443L21.43 5.68322L21.7277 6.00201L22.0253 6.3208L22.323 6.64152L22.6207 6.96223L22.6264 6.96799ZM22.6264 6.96799C22.9433 7.3079 22.9222 7.83986 22.5823 8.15673C22.2423 8.4736 21.7104 8.45248 21.3935 8.11256L22.6245 6.96799H22.6264ZM23.7787 10.8664H22.0983V10.7205L22.1002 10.5822L22.1022 10.4497L22.1041 10.321L22.106 10.1981L22.1079 10.0829L22.1098 9.97537V9.87167V9.77373L22.1079 9.68155L22.1041 9.59513L22.1002 9.51447L22.0945 9.43957L22.0868 9.36852L22.0772 9.29938L22.0657 9.23409L22.0522 9.17263L22.0388 9.11502L22.0215 9.05741L22.0023 8.99788L21.9792 8.94026L21.9543 8.88265L21.9236 8.82312L21.889 8.75782L21.8487 8.69061L21.8045 8.62147L21.7546 8.5485L21.6969 8.46976L21.6336 8.38718L21.5606 8.30076L21.4799 8.20858L21.3935 8.11256L22.6264 6.96991L22.7397 7.09474L22.8454 7.21572L22.9452 7.33671L23.0393 7.4577L23.1277 7.57676L23.2102 7.69775L23.2871 7.81873L23.3562 7.9378L23.4215 8.05879L23.481 8.18169L23.5348 8.30652L23.5828 8.42943L23.6231 8.55042L23.6596 8.67524L23.6903 8.80007L23.7153 8.92298L23.7364 9.04397L23.7537 9.16303L23.7672 9.2821L23.7768 9.40308L23.7844 9.52023L23.7883 9.63738L23.7902 9.75452V9.87167V9.98881L23.7883 10.1098L23.7864 10.2308L23.7844 10.3518L23.7825 10.4766L23.7806 10.6072L23.7787 10.7378V10.8722V10.8664ZM23.7787 10.8664C23.7787 11.3293 23.4023 11.7057 22.9395 11.7057C22.4766 11.7057 22.1002 11.3293 22.1002 10.8664H23.7806H23.7787ZM22.0983 19.4047V10.8664H23.7787V19.4047H22.0983ZM23.7787 19.4047C23.7787 19.8675 23.4023 20.2439 22.9395 20.2439C22.4766 20.2439 22.1002 19.8675 22.1002 19.4047H23.7806H23.7787ZM22.3268 26.1434L20.9979 25.1141L21.117 24.9566L21.2264 24.7991L21.3263 24.6436L21.4185 24.488L21.503 24.3344L21.5798 24.1807L21.6489 24.0271L21.7123 23.8716L21.7699 23.716L21.8218 23.5604L21.8679 23.403L21.9101 23.2417L21.9466 23.0803L21.9792 22.9171L22.0061 22.75L22.0311 22.581L22.0503 22.4082L22.0657 22.2334L22.0791 22.0548L22.0906 21.8724L22.0983 21.688L22.1041 21.4998L22.1079 21.3078L22.1098 21.1119V20.9122L22.1079 20.7086L22.106 20.5012L22.1041 20.2919L22.1022 20.0768L22.1002 19.8579L22.0983 19.6351V19.4104H23.7787V19.6274L23.7806 19.8425L23.7825 20.0557L23.7844 20.2688L23.7864 20.482L23.7883 20.6933L23.7902 20.9045V21.1157L23.7883 21.3251L23.7844 21.5344L23.7787 21.7437L23.7691 21.9531L23.7576 22.1624L23.7422 22.3717L23.723 22.583L23.698 22.7942L23.6692 23.0035L23.6347 23.2148L23.5924 23.426L23.5444 23.6373L23.4906 23.8485L23.4292 24.0598L23.36 24.271L23.2813 24.4803L23.1949 24.6916L23.0989 24.9028L22.9952 25.1121L22.8818 25.3215L22.757 25.5289L22.6245 25.7363L22.4805 25.9418L22.3268 26.1473V26.1434ZM22.3268 26.1434C22.0426 26.5102 21.5145 26.5755 21.1477 26.2913C20.7809 26.0071 20.7156 25.4789 20.9998 25.1121L22.3268 26.1434ZM18.3093 28.3807L17.7946 26.781L17.8849 26.758L18.0385 26.7253L18.1864 26.6946L18.3285 26.6638L18.4649 26.6331L18.5955 26.6043L18.7203 26.5755L18.8413 26.5448L18.9565 26.5141L19.066 26.4833L19.1697 26.4526L19.2695 26.42L19.3675 26.3873L19.4597 26.3527L19.548 26.3182L19.6325 26.2817L19.7151 26.2433L19.7938 26.2029L19.8725 26.1607L19.9494 26.1165L20.0243 26.0685L20.1011 26.0167L20.1779 25.961L20.2528 25.9014L20.3296 25.8381L20.4064 25.7689L20.4852 25.694L20.5677 25.6115L20.6503 25.525L20.7329 25.4329L20.8193 25.3311L20.9077 25.2235L20.9979 25.1083L22.3268 26.1377L22.2155 26.2798L22.1041 26.4142L21.9927 26.5429L21.8794 26.6677L21.7661 26.7868L21.6547 26.8981L21.5395 27.0057L21.4242 27.1094L21.3071 27.2073L21.188 27.3014L21.069 27.3878L20.948 27.4704L20.8232 27.5492L20.6983 27.6221L20.5735 27.6894L20.4448 27.7547L20.3162 27.8142L20.1875 27.8699L20.0569 27.9217L19.9263 27.9697L19.7957 28.0139L19.6632 28.0562L19.5269 28.0965L19.3905 28.1349L19.2522 28.1695L19.1121 28.204L18.9699 28.2386L18.8259 28.2712L18.678 28.3039L18.5282 28.3365L18.3746 28.3692L18.2171 28.4018L18.3074 28.3788L18.3093 28.3807ZM18.2191 28.4038C17.7639 28.4959 17.3203 28.2021 17.2281 27.7489C17.1359 27.2938 17.4298 26.8501 17.883 26.758L18.2191 28.4038ZM17.858 28.421L17.3395 26.8232L17.5988 26.7829H17.6449H17.6833H17.7159H17.7466H17.762H17.7754H17.787H17.7966H17.7908L17.7812 26.7848L17.7716 26.7868H17.7735H17.7793H17.7754H17.7716L17.7812 26.7848L17.787 26.7829L17.7946 26.781L18.3093 28.3807L18.2844 28.3884L18.2594 28.3961L18.2306 28.4038L18.1979 28.4134L18.1691 28.421L18.1499 28.4249L18.1192 28.4326L18.0885 28.4383L18.0673 28.4422L18.0424 28.446L18.0078 28.4518L17.9732 28.4556L17.9483 28.4575L17.9233 28.4594L17.8983 28.4614L17.8676 28.4633L17.8273 28.4652H17.7889H17.7505H17.7121H17.6833H17.6525H17.6256H17.5988L17.858 28.4249V28.421ZM17.5988 28.4614C17.1359 28.4614 16.7595 28.085 16.7595 27.6221C16.7595 27.1593 17.1359 26.7829 17.5988 26.7829V28.4633V28.4614ZM6.30859 28.4959L6.54097 26.8309L6.42382 26.8232H6.58321L6.78486 26.8252L7.02491 26.8271L7.29953 26.829L7.94672 26.8348L8.70144 26.8425L9.54067 26.8501L10.4433 26.8578L10.9099 26.8617L11.3824 26.8655L11.8586 26.8693L12.3349 26.8732L12.8092 26.8751L13.2759 26.877H13.7368H14.1842L14.6183 26.8751L15.0331 26.8732L15.4268 26.8693L15.7974 26.8655L16.1412 26.8597L16.4523 26.8521L16.7307 26.8444L16.9708 26.8348L17.1686 26.8232L17.3126 26.8117L17.3914 26.8021L17.3395 26.8175L17.858 28.4153L17.6468 28.4633L17.472 28.4844L17.2742 28.4998L17.0476 28.5113L16.7864 28.5209L16.4926 28.5305L16.168 28.5382L15.8166 28.5439L15.4402 28.5478L15.0408 28.5516L14.6221 28.5535L14.1842 28.5555H13.733H13.2701L12.7996 28.5535L12.3234 28.5516L11.8452 28.5478L11.3689 28.5439L10.8946 28.5401L10.4279 28.5363L9.5253 28.5286L8.68416 28.5209L7.92943 28.5132L7.28225 28.5075L7.00955 28.5055L6.77334 28.5036L6.57553 28.5017H6.4219L6.30475 28.494L6.30859 28.4959ZM6.42574 28.5036C5.96292 28.5036 5.58651 28.1272 5.58651 27.6644C5.58651 27.2016 5.96292 26.8252 6.42574 26.8252V28.5055V28.5036ZM2.47543 27.1824L3.50862 25.8573L3.58351 25.9149L3.66033 25.9687L3.73523 26.0205L3.81204 26.0685L3.88886 26.1146L3.9676 26.1588L4.04633 26.201L4.12699 26.2414L4.20957 26.2798L4.29215 26.3163L4.37473 26.3508L4.46115 26.3854L4.54756 26.418L4.6359 26.4488L4.72616 26.4776L4.81642 26.5045L4.91052 26.5313L5.00655 26.5563L5.10449 26.5813L5.20435 26.6043L5.30421 26.6254L5.40791 26.6466L5.51162 26.6677L5.61724 26.6869L5.72671 26.7061L5.83809 26.7253L5.95139 26.7445L6.0647 26.7618L6.18185 26.7791L6.30091 26.7964L6.4219 26.8136L6.54481 26.8309L6.31243 28.4959L6.18569 28.4786L6.06086 28.4614L5.93603 28.4441L5.8112 28.4249L5.68638 28.4057L5.56347 28.3865L5.44056 28.3653L5.31766 28.3442L5.19475 28.3212L5.07184 28.2962L4.94893 28.2712L4.82603 28.2444L4.70504 28.2156L4.58405 28.1848L4.46307 28.1522L4.34208 28.1176L4.22109 28.0811L4.10203 28.0427L3.98104 28.0024L3.86197 27.9582L3.74291 27.9121L3.62192 27.8622L3.50285 27.8103L3.38571 27.7547L3.26856 27.6951L3.15142 27.6337L3.03619 27.5684L2.92097 27.4992L2.80574 27.4263L2.69244 27.3494L2.58105 27.2688L2.46967 27.1843L2.47543 27.1824ZM2.47543 27.1824C2.11055 26.8962 2.04525 26.3681 2.3314 26.0032C2.61754 25.6383 3.14566 25.573 3.51054 25.8592L2.47543 27.1843V27.1824ZM0.393689 23.9484L2.00684 23.4759V23.474L2.03373 23.5604L2.06254 23.6469L2.09326 23.7352L2.12399 23.8216L2.15664 23.908L2.18928 23.9925L2.22385 24.077L2.26034 24.1635L2.29875 24.248L2.33716 24.3305L2.37749 24.415L2.41974 24.4976L2.46391 24.5783L2.50808 24.6589L2.55417 24.7377L2.60026 24.8145L2.65019 24.8932L2.70012 24.9681L2.75005 25.0411L2.8019 25.1141L2.85375 25.1851L2.90944 25.2562L2.96514 25.3253L3.02083 25.3887L3.07844 25.4521L3.13797 25.5174L3.19751 25.5788L3.25896 25.6383L3.32041 25.6979L3.38187 25.7536L3.44524 25.8073L3.51054 25.8592L2.47735 27.1843L2.37941 27.1055L2.28339 27.023L2.18928 26.9404L2.09903 26.8559L2.00877 26.7676L1.92043 26.6773L1.83785 26.587L1.75527 26.4949L1.67269 26.3988L1.59587 26.3028L1.52098 26.2068L1.44608 26.1069L1.37503 26.0071L1.30397 25.9053L1.23675 25.8016L1.17146 25.6998L1.10809 25.5942L1.04663 25.4886L0.9871 25.3829L0.929487 25.2754L0.873795 25.1678L0.821943 25.0603L0.770092 24.9508L0.720161 24.8414L0.674071 24.7338L0.627981 24.6244L0.583811 24.513L0.541562 24.4016L0.501233 24.2902L0.464745 24.1788L0.428257 24.0674L0.393689 23.9561V23.9541V23.9484ZM0.393689 23.9503C0.2631 23.5048 0.516596 23.0381 0.960214 22.9056C1.40575 22.775 1.87241 23.0285 2.00492 23.4721L0.393689 23.9484V23.9503ZM0.00384303 19.6677L1.68421 19.6601L1.68613 19.9308V20.1997V20.3303V20.4609L1.68805 20.5896L1.68997 20.7182L1.6919 20.845L1.69382 20.9717L1.69766 21.0965L1.7015 21.2194L1.70534 21.3424L1.7111 21.4633L1.71686 21.5843L1.72454 21.7034L1.73222 21.8205L1.74183 21.9358L1.75143 22.0529L1.76295 22.1681L1.77447 22.2814L1.78792 22.3948L1.80328 22.5061L1.81864 22.6156L1.83593 22.7251L1.85513 22.8345L1.87626 22.9421L1.8993 23.0496L1.92427 23.1552L1.94923 23.2589L1.97804 23.3646L2.00684 23.4702L0.393689 23.9426L0.355281 23.8082L0.320713 23.6757L0.288066 23.5412L0.257339 23.4068L0.228533 23.2743L0.201647 23.1399L0.178602 23.0074L0.157477 22.8729L0.138273 22.7385L0.120989 22.606L0.105625 22.4716L0.0902621 22.3371L0.0787395 22.2046L0.067217 22.0721L0.0576149 21.9377L0.0480128 21.8033L0.0403311 21.6707L0.0326494 21.5382L0.0268881 21.4038L0.0230473 21.2713L0.0192064 21.1388L0.0153656 21.0063L0.0134451 20.8738L0.0115247 20.7393L0.0096043 20.6049L0.00768388 20.4705V20.338V20.2035V19.9347L0.00576345 19.6639L0.00384303 19.6677ZM0.00384303 19.6677C0.00192261 19.2049 0.376405 18.8266 0.841148 18.8247C1.30397 18.8228 1.68229 19.1972 1.68421 19.662L0.00384303 19.6697V19.6677ZM0.0384107 14.231H1.71878V14.3847L1.71686 14.5825L1.71494 14.8206L1.71302 15.0952L1.70918 15.4025L1.70534 15.7366L1.7015 16.0958L1.69766 16.4741L1.69382 16.8659L1.68997 17.2691L1.68613 17.6782L1.68421 18.0892V18.2946L1.68229 18.4982V18.6999V18.8996V19.0974V19.2913V19.4795V19.6639L0.00192261 19.6716V19.4853V19.2933V19.0993V18.9015V18.6999V18.4963L0.00384303 18.2908V18.0853L0.00576345 17.6724L0.0096043 17.2615L0.0134451 16.8562L0.017286 16.4626L0.0211268 16.0842L0.0249677 15.7251L0.0288085 15.389L0.0326494 15.0837L0.0345698 14.811L0.0364902 14.5748L0.0384107 14.3827V14.2387V14.231ZM0.0384107 14.231C0.0384107 13.7682 0.414814 13.3918 0.877636 13.3918C1.34046 13.3918 1.71686 13.7682 1.71686 14.231H0.0364902H0.0384107ZM0.0518536 7.27718L1.73222 7.29638L1.7303 7.49418L1.72838 7.70351L1.72646 7.92244L1.72454 8.15289L1.72262 8.63684L1.7207 9.14767L1.71878 9.67579V10.2135V10.7512V11.2813V11.794V12.2837V12.7408V13.1556V13.5205V13.8277V14.0678V14.233H0.0384107V14.0697V13.8297V13.5224V13.1575V12.7427V12.2856V11.7959V11.2813V10.7512V10.2135V9.67579L0.0403311 9.14575L0.0422515 8.63299L0.0441719 8.14713L0.0460923 7.91668L0.0480128 7.69391L0.0499332 7.48074L0.0518536 7.28102V7.27718ZM0.0518536 7.27718C0.0576149 6.81435 0.437859 6.44179 0.900681 6.44563C1.3635 6.45139 1.73607 6.83164 1.73222 7.29446L0.0518536 7.27526V7.27718ZM0.0864212 6.08459L1.75719 6.27087L1.74759 6.33233L1.75335 6.29968L1.75527 6.292V6.29008V6.28816L1.75335 6.30736L1.75143 6.33809L1.74951 6.38226L1.74759 6.43027L1.74567 6.48788L1.74375 6.55126L1.74183 6.62423L1.73991 6.70297L1.73799 6.78747L1.73607 6.87581L1.73414 6.97183L1.73222 7.07361L1.7303 7.17923L1.72838 7.29062L0.0480128 7.27141L0.0499332 7.16003L0.0518536 7.05249L0.053774 6.94878L0.0556945 6.85084L0.0576149 6.75674L0.0595353 6.67032L0.0614557 6.58774L0.0633762 6.51093L0.0652966 6.43795L0.067217 6.37074L0.0691374 6.30928L0.0710579 6.25551L0.0729783 6.20174L0.0768191 6.15373L0.0787395 6.123L0.0825804 6.09612L0.0864212 6.06731L0.0941029 6.01738L0.0845008 6.07883L0.0864212 6.08459ZM0.0960234 6.02314C0.180522 5.568 0.622219 5.26649 1.07736 5.35291C1.5325 5.43741 1.83401 5.87911 1.74759 6.33425L0.0960234 6.02314ZM1.2406 2.68928L2.61946 3.65142L2.56761 3.72631L2.5196 3.80121L2.47351 3.87419L2.42934 3.94908L2.38709 4.02398L2.34676 4.09695L2.30835 4.17185L2.27186 4.24675L2.2373 4.31972L2.20273 4.39654L2.17008 4.47336L2.13935 4.54825L2.11055 4.62507L2.08174 4.70381L2.05486 4.78255L2.02989 4.86128L2.00684 4.94194L1.9838 5.02452L1.96267 5.10518L1.94155 5.18583L1.92235 5.27033L1.90314 5.35675L1.88586 5.44125L1.86857 5.52767L1.85321 5.61793L1.83785 5.70819L1.8244 5.79845L1.81096 5.89255L1.79752 5.98665L1.786 6.08075L1.77447 6.17869L1.76295 6.27664L0.0921825 6.09035L0.105625 5.98089L0.119068 5.87335L0.132511 5.76388L0.147875 5.65634L0.163238 5.54879L0.180522 5.43933L0.199726 5.33179L0.21893 5.22424L0.240055 5.1167L0.2631 5.00724L0.286145 4.90161L0.311111 4.79599L0.337997 4.68844L0.366803 4.5809L0.39753 4.47528L0.430177 4.36965L0.464745 4.26211L0.501233 4.15649L0.539641 4.05086L0.57997 3.94524L0.622219 3.8377L0.666389 3.73399L0.712479 3.63029L0.76241 3.52275L0.814262 3.41712L0.868034 3.31342L0.925646 3.20972L0.985179 3.10602L1.04663 3.00231L1.11193 2.89861L1.17914 2.79683L1.24828 2.69504L1.2406 2.68928ZM1.2406 2.68928C1.50561 2.30904 2.02989 2.21686 2.41013 2.48188C2.79038 2.7469 2.88256 3.27117 2.61754 3.65142L1.2406 2.68928ZM6.37005 0.127439L6.90008 1.72331L6.63507 1.76556L6.48143 1.76748L6.3278 1.77324L6.17416 1.78284L6.02245 1.79437L5.87266 1.80973L5.72478 1.82893L5.57883 1.85198L5.43288 1.87887L5.28885 1.90959L5.14674 1.94416L5.00655 1.98257L4.86828 2.02482L4.73193 2.06899L4.59942 2.117L4.46691 2.16885L4.33824 2.22454L4.21149 2.28407L4.08858 2.34745L3.96568 2.41466L3.84469 2.48572L3.72946 2.56062L3.61424 2.63935L3.50285 2.72193L3.39339 2.80835L3.28777 2.89861L3.18406 2.99271L3.08228 3.09065L2.98242 3.19436L2.8864 3.29998L2.79422 3.41136L2.70396 3.52851L2.61754 3.6495L1.23868 2.68736L1.35966 2.52029L1.48449 2.35897L1.61508 2.2015L1.74951 2.04978L1.88778 1.90575L2.02989 1.76748L2.17776 1.63305L2.32948 1.50438L2.48311 1.3834L2.64058 1.26817L2.79998 1.15871L2.96514 1.05308L3.13029 0.955141L3.29929 0.861041L3.47213 0.774622L3.64689 0.692043L3.82357 0.615227L4.00024 0.544171L4.18076 0.478876L4.3632 0.419343L4.54564 0.363651L4.73001 0.31372L4.91629 0.26955L5.10449 0.229221L5.29269 0.194654L5.48281 0.163927L5.67293 0.138962L5.86498 0.117837L6.05702 0.102473L6.24906 0.0909509L6.44302 0.0832692L6.63699 0.0813488L6.37197 0.123598L6.37005 0.127439ZM6.63507 0.0851896C7.09789 0.0851896 7.47429 0.461593 7.47429 0.924415C7.47429 1.38724 7.09789 1.76364 6.63507 1.76364V0.0832692V0.0851896ZM15.1752 0.0794284L14.6874 1.68874L14.9313 1.72523H14.8084H14.6548L14.4742 1.72331L14.2687 1.72139L13.7886 1.71563L13.2279 1.70987L12.6057 1.70219L11.9393 1.69642L11.5955 1.69258L11.246 1.69066L10.8946 1.68874L10.5431 1.68682L10.1955 1.6849H9.84985H9.51186H9.18155H8.86276L8.55741 1.68682L8.26743 1.69066L7.99473 1.6945L7.74123 1.70027L7.51078 1.70603L7.30529 1.71371L7.12861 1.72139L6.9865 1.73099L6.8828 1.74059L6.83671 1.74636L6.90008 1.72907L6.37005 0.1332L6.56017 0.0871101L6.70804 0.0679058L6.8636 0.0544629L7.04028 0.0429403L7.24 0.0333382L7.46085 0.0256565L7.70282 0.0198952L7.96592 0.014134L8.2463 0.0102931L8.54397 0.00645228L8.857 0.00453186H9.17963H9.51378H9.85562H10.2032L10.5547 0.00645228L10.908 0.00837271L11.2614 0.0102931L11.6109 0.0122136L11.9566 0.0160544L12.6249 0.0218157L13.2471 0.0294974L13.8059 0.0352586L14.286 0.0410199L14.4915 0.0429403L14.6682 0.0448608H14.8161H14.9332L15.1771 0.0813488L15.1752 0.0794284ZM14.9313 0.0429403C15.3941 0.0429403 15.7705 0.419343 15.7705 0.882165C15.7705 1.34499 15.3941 1.72139 14.9313 1.72139V0.0410199V0.0429403ZM15.0984 1.81165L14.6874 1.68682L15.1752 0.077508L15.5862 0.202335L16.072 0.590261L15.0984 1.81165ZM15.5862 0.202335C16.0298 0.336765 16.2814 0.805349 16.1469 1.25089C16.0125 1.6945 15.5439 1.94608 15.0984 1.81165L15.5862 0.202335ZM16.3428 2.35705L14.9159 1.46789L14.7911 1.97105V1.97681V1.97297L14.7892 1.96144L14.7873 1.95184L14.7853 1.94032L14.7834 1.9288L14.7796 1.91151L14.7738 1.88655L14.7681 1.86542L14.7642 1.85006L14.7565 1.82509L14.7489 1.79437L14.7431 1.77516L14.7354 1.75212L14.7277 1.72907L14.72 1.70411L14.7104 1.67338L14.7028 1.65226L14.6932 1.62729L14.6836 1.6004L14.6778 1.58312L14.6682 1.55815L14.6586 1.53319L14.6509 1.51398L14.6452 1.4967L14.6375 1.4775L14.6298 1.46021L14.624 1.44677L14.6202 1.43909L14.6144 1.42949L14.6106 1.41988L14.6125 1.42372L16.072 0.588341L16.0951 0.62867L16.1124 0.661317L16.1296 0.695884L16.1488 0.736213L16.1642 0.770781L16.1796 0.805348L16.1949 0.839916L16.2103 0.878325L16.2257 0.916733L16.2391 0.951301L16.2525 0.985868L16.2679 1.03004L16.2794 1.06653L16.2929 1.10493L16.3063 1.1491L16.3178 1.18367L16.3313 1.22208L16.3428 1.26241L16.3543 1.30274L16.3659 1.34691L16.3755 1.38148L16.387 1.41988L16.3985 1.46789L16.4081 1.50822L16.4158 1.54279L16.4254 1.58312L16.435 1.62921L16.4427 1.67338L16.4503 1.71755L16.4561 1.75596L16.4619 1.80013L16.4657 1.85198L16.3409 2.35513L16.3428 2.35705ZM16.4676 1.8539C16.5003 2.31672 16.1508 2.71809 15.6879 2.75074C15.2251 2.78338 14.8238 2.43387 14.7911 1.97105L16.4676 1.8539ZM16.2237 2.18805L14.5434 2.21302L14.7911 1.60424L14.8161 1.57928L14.8372 1.55815L14.8526 1.54279L14.866 1.52935L14.8775 1.51783L14.8852 1.51014L14.8871 1.50822L14.8929 1.50246L14.8948 1.50054L14.891 1.50438L14.889 1.5063V1.50438L14.8929 1.49862L14.8986 1.49094L14.9044 1.48134L14.9121 1.46789L16.339 2.35705L16.3159 2.39162L16.2929 2.42811L16.2698 2.46075L16.2487 2.49148L16.2237 2.52605L16.1969 2.56062L16.168 2.59518L16.1431 2.62207L16.122 2.64511L16.0951 2.672L16.072 2.69504L16.0528 2.71425L16.0336 2.73537L16.0125 2.7565L15.9933 2.7757L15.9741 2.79299L16.2218 2.18421L16.2237 2.18805ZM15.976 2.79683C15.6476 3.1233 15.1137 3.12138 14.7873 2.79299C14.4608 2.46459 14.4627 1.93072 14.7911 1.60424L15.976 2.79683ZM14.5799 4.61739L14.5453 2.21302L16.2257 2.18805L16.2602 4.59242L14.5799 4.61739ZM16.2602 4.59242C16.2679 5.05525 15.8953 5.43741 15.4325 5.44509C14.9697 5.45277 14.5875 5.08021 14.5799 4.61739L16.2602 4.59242ZM16.5886 6.46676L15.0868 7.21956L15.0484 7.1389L15.012 7.05825L14.9793 6.97951L14.9486 6.89885L14.9179 6.81627L14.891 6.7337L14.866 6.65112L14.841 6.56662L14.818 6.48212L14.7969 6.39954L14.7777 6.31504L14.7585 6.22862L14.7412 6.14605L14.7239 6.06347L14.7085 5.97705L14.6951 5.89255L14.6816 5.80997L14.6701 5.72547L14.6586 5.6429L14.6471 5.5584L14.6375 5.47582L14.6279 5.39324L14.6202 5.31258L14.6125 5.23192L14.6067 5.14935L14.601 5.07061L14.5952 4.99379L14.5914 4.91505L14.5875 4.84016L14.5837 4.76526L14.5818 4.69037L14.5799 4.61931L16.2602 4.59434L16.2621 4.65196L16.2641 4.70957L16.266 4.77102L16.2698 4.83248L16.2737 4.89393L16.2775 4.95922L16.2814 5.02452L16.2871 5.08597L16.2929 5.15127L16.3006 5.21848L16.3082 5.2857L16.3159 5.35291L16.3236 5.41821L16.3332 5.48542L16.3428 5.55264L16.3543 5.61985L16.3659 5.68514L16.3774 5.7466L16.3908 5.81189L16.4043 5.87527L16.4177 5.93288L16.4331 5.99241L16.4484 6.05195L16.4638 6.10764L16.4792 6.15949L16.4964 6.21134L16.5137 6.26127L16.5291 6.30736L16.5464 6.35153L16.5637 6.39378L16.579 6.43027L16.5944 6.46484L16.5886 6.46676ZM16.5886 6.46676C16.796 6.88157 16.627 7.38664 16.2122 7.59405C15.7974 7.80145 15.2923 7.63245 15.0849 7.21764L16.5886 6.46676ZM18.8854 8.03574L18.5378 9.67963L18.4092 9.65082L18.2805 9.62009L18.1538 9.58552L18.027 9.54904L17.8983 9.51063L17.7716 9.46838L17.6449 9.42229L17.5219 9.37428L17.399 9.32435L17.2761 9.27058L17.1551 9.21296L17.0342 9.15343L16.917 9.09006L16.7999 9.02476L16.6827 8.9537L16.5694 8.88073L16.458 8.80391L16.3486 8.72325L16.2391 8.63876L16.1335 8.55234L16.0298 8.46208L15.928 8.36606L15.8301 8.26811L15.734 8.16633L15.6399 8.05879L15.5516 7.94932L15.4652 7.83602L15.3826 7.72079L15.3019 7.59981L15.2251 7.47498L15.1541 7.34823L15.0849 7.21764L16.5867 6.46484L16.6289 6.54549L16.6731 6.62423L16.7173 6.69721L16.7653 6.77018L16.8152 6.84124L16.8671 6.90845L16.9228 6.97567L16.9765 7.03904L17.0342 7.1005L17.0956 7.16195L17.1571 7.21956L17.2224 7.27718L17.2877 7.33287L17.3549 7.38472L17.424 7.43465L17.497 7.48458L17.57 7.53259L17.6449 7.57868L17.7236 7.62285L17.8042 7.6651L17.8849 7.70543L17.9675 7.74384L18.052 7.78033L18.1384 7.81681L18.2267 7.85138L18.3151 7.88403L18.4053 7.91476L18.4975 7.94356L18.5916 7.97045L18.6876 7.99541L18.7837 8.01846L18.8816 8.03958L18.8854 8.03574ZM18.8854 8.03574C19.3387 8.13176 19.6306 8.5773 19.5345 9.03244C19.4385 9.48566 18.993 9.77757 18.5378 9.68155L18.8854 8.03766V8.03574ZM16.6558 15.1163C17.1187 15.1163 17.4951 15.4927 17.4951 15.9556C17.4951 16.4184 17.1187 16.7948 16.6558 16.7948V15.1144V15.1163ZM6.16648 15.1163H16.6558V16.7967H6.16648V15.1163ZM6.16648 16.7967C5.70366 16.7967 5.32726 16.4203 5.32726 15.9575C5.32726 15.4947 5.70366 15.1183 6.16648 15.1183V16.7986V16.7967ZM10.5393 19.3451C11.0021 19.3451 11.3785 19.7215 11.3785 20.1843C11.3785 20.6472 11.0021 21.0236 10.5393 21.0236V19.3432V19.3451ZM6.16648 19.3451H10.5393V21.0255H6.16648V19.3451ZM6.16648 21.0255C5.70366 21.0255 5.32726 20.6491 5.32726 20.1863C5.32726 19.7234 5.70366 19.347 6.16648 19.347V21.0274V21.0255ZM10.5393 10.5304C11.0021 10.5304 11.3785 10.9068 11.3785 11.3696C11.3785 11.8324 11.0021 12.2088 10.5393 12.2088V10.5285V10.5304ZM6.16648 10.5304H10.5393V12.2107H6.16648V10.5304ZM6.16648 12.2107C5.70366 12.2107 5.32726 11.8343 5.32726 11.3715C5.32726 10.9087 5.70366 10.5323 6.16648 10.5323V12.2127V12.2107Z" fill="#002358"/>
</svg>
