<svg width="25" height="25" viewBox="0 0 25 25" fill="none" xmlns="http://www.w3.org/2000/svg">
<path d="M19.8165 8.0013L15.3606 3.2205C15.2993 3.15431 15.2255 3.10157 15.1436 3.06552C15.0616 3.02946 14.9734 3.01084 14.8841 3.0108H14.7032C14.6957 3.00972 14.6883 3.00791 14.6812 3.0054C14.6721 3.00213 14.6626 3.00031 14.6529 3C14.643 3.0003 14.6332 3.00212 14.6238 3.0054C14.6167 3.00792 14.6093 3.00973 14.6018 3.0108H9.03236C6.84677 3.0108 5.00001 4.8693 5.00001 7.0698V10.8129C5.00001 11.1873 5.29559 11.4924 5.66001 11.4924C5.83568 11.4912 6.00372 11.419 6.12728 11.2916C6.25084 11.1642 6.31983 10.9921 6.31912 10.8129V7.068C6.31912 5.6055 7.56148 4.3689 9.03236 4.3689H13.9938V6.3156C13.9938 7.9734 15.3024 9.3243 16.9118 9.3279C17.0874 9.32718 17.2555 9.25541 17.3792 9.12834C17.503 9.00128 17.5722 8.8293 17.5718 8.6502C17.5725 8.56144 17.556 8.47341 17.5234 8.39113C17.4907 8.30885 17.4425 8.23394 17.3814 8.17068C17.3204 8.10741 17.2477 8.05703 17.1676 8.02241C17.0875 7.98779 17.0014 7.96961 16.9144 7.9689C16.4874 7.96533 16.0791 7.78937 15.779 7.47952C15.4789 7.16967 15.3113 6.75117 15.3129 6.3156V5.1321L18.6809 8.7447V16.7772C18.6809 18.3027 17.4562 19.641 16.0603 19.641H9.03236C7.51118 19.641 6.31912 18.3828 6.31912 16.7772V10.614C6.31983 10.4348 6.25084 10.2627 6.12728 10.1353C6.00372 10.0079 5.83568 9.93569 5.66001 9.9345C5.48418 9.93545 5.31591 10.0075 5.19216 10.135C5.06841 10.2624 4.9993 10.4347 5.00001 10.614V16.7772C5.00001 19.146 6.77177 21 9.03236 21H16.0603C18.1956 21 20 19.0668 20 16.7772V8.472C20.0001 8.29692 19.9345 8.12846 19.8165 8.0013ZM9.73824 15.9645H14.4871C14.6627 15.9633 14.8308 15.8911 14.9543 15.7637C15.0779 15.6363 15.1469 15.4642 15.1462 15.285C15.1469 15.1058 15.0779 14.9337 14.9543 14.8063C14.8308 14.6789 14.6627 14.6067 14.4871 14.6055H9.73824C9.56241 14.6065 9.39415 14.6785 9.2704 14.806C9.14665 14.9334 9.07754 15.1057 9.07824 15.285C9.07824 15.6603 9.37383 15.9645 9.73824 15.9645ZM12.6906 11.4771H9.73824C9.56241 11.4761 9.39415 11.4041 9.2704 11.2766C9.14665 11.1492 9.07754 10.9769 9.07824 10.7976C9.07824 10.4232 9.37383 10.1181 9.73824 10.1181H12.6906C13.055 10.1181 13.3506 10.4232 13.3506 10.7976C13.3513 10.9769 13.2822 11.1492 13.1584 11.2766C13.0347 11.4041 12.8664 11.4761 12.6906 11.4771Z" fill="#7F8DA7" stroke="#7F8DA7" stroke-width="0.5"/>
</svg>
