<svg width="16" height="17" viewBox="0 0 16 17" fill="none" xmlns="http://www.w3.org/2000/svg">
<path d="M15.8312 7.52779L12.3249 11.1144L13.1529 16.1802C13.1706 16.2888 13.1591 16.4005 13.1195 16.5025C13.0799 16.6046 13.0139 16.6931 12.9289 16.7578C12.8439 16.8226 12.7434 16.8611 12.6386 16.8691C12.5339 16.877 12.4291 16.854 12.3361 16.8027L8.00064 14.4111L3.66572 16.8022C3.57276 16.8534 3.46798 16.8764 3.36322 16.8685C3.25847 16.8605 3.15792 16.822 3.07294 16.7572C2.98797 16.6925 2.92196 16.604 2.88237 16.502C2.84279 16.3999 2.83121 16.2882 2.84895 16.1796L3.67698 11.1138L0.170087 7.52779C0.0948146 7.45083 0.0415752 7.3533 0.0163957 7.24623C-0.00878381 7.13917 -0.00489777 7.02684 0.0276139 6.92197C0.0601256 6.8171 0.119964 6.72388 0.200357 6.65285C0.280749 6.58182 0.378484 6.53583 0.482499 6.52008L5.32854 5.78172L7.49572 1.17318C7.68542 0.769746 8.31587 0.769746 8.50557 1.17318L10.6727 5.78172L15.5188 6.52008C15.6226 6.53624 15.72 6.58246 15.8001 6.65354C15.8802 6.72462 15.9399 6.81774 15.9723 6.92243C16.0048 7.02712 16.0088 7.13924 15.9838 7.24618C15.9589 7.35312 15.906 7.45064 15.8312 7.52779Z" fill="#264D89"/>
</svg>
