<svg width="22" height="22" viewBox="0 0 22 22" fill="none" xmlns="http://www.w3.org/2000/svg">
<path d="M10.9964 7.33203C8.97649 7.33203 7.32812 8.98039 7.32812 11.0003C7.32812 13.0201 8.97649 14.6685 10.9964 14.6685C13.0162 14.6685 14.6646 13.0201 14.6646 11.0003C14.6646 8.98039 13.0162 7.33203 10.9964 7.33203Z" fill="black" fill-opacity="0.2"/>
<path d="M21.9992 11C21.9992 9.48097 22.0129 7.97571 21.9276 6.45943C21.8423 4.69824 21.4406 3.13519 20.1527 1.84732C18.8621 0.556694 17.3018 0.157674 15.5406 0.0723668C14.0215 -0.0129408 12.5163 0.000818524 11 0.000818524C9.48098 0.000818524 7.97571 -0.0129408 6.45943 0.0723668C4.69824 0.157674 3.13519 0.559446 1.84732 1.84732C0.556694 3.13794 0.157675 4.69824 0.0723668 6.45943C-0.0129408 7.97846 0.000818525 9.48373 0.000818525 11C0.000818525 12.5163 -0.0129408 14.0243 0.0723668 15.5406C0.157675 17.3018 0.559446 18.8648 1.84732 20.1527C3.13794 21.4433 4.69824 21.8423 6.45943 21.9276C7.97846 22.0129 9.48373 21.9992 11 21.9992C12.519 21.9992 14.0243 22.0129 15.5406 21.9276C17.3018 21.8423 18.8648 21.4406 20.1527 20.1527C21.4433 18.8621 21.8423 17.3018 21.9276 15.5406C22.0157 14.0243 21.9992 12.519 21.9992 11ZM10.9973 16.6441C7.87389 16.6441 5.35319 14.1234 5.35319 11C5.35319 7.87664 7.87389 5.35594 10.9973 5.35594C14.1206 5.35594 16.6413 7.87664 16.6413 11C16.6413 14.1234 14.1206 16.6441 10.9973 16.6441ZM16.8725 6.44292C16.1432 6.44292 15.5543 5.85402 15.5543 5.12478C15.5543 4.39554 16.1432 3.80664 16.8725 3.80664C17.6017 3.80664 18.1906 4.39554 18.1906 5.12478C18.1879 5.85677 17.6017 6.44292 16.8725 6.44292Z" fill="black" fill-opacity="0.2"/>
</svg>
