<svg width="22" height="22" viewBox="0 0 22 22" fill="none" xmlns="http://www.w3.org/2000/svg">
<path d="M10.6562 0C4.76953 0 0 4.76953 0 10.6562C0 16.543 4.76953 21.3125 10.6562 21.3125C16.543 21.3125 21.3125 16.543 21.3125 10.6562C21.3125 4.76953 16.543 0 10.6562 0ZM15.8898 7.30039L14.141 15.5418C14.0121 16.1262 13.6641 16.268 13.1785 15.993L10.5145 14.0293L9.22969 15.2668C9.08789 15.4086 8.96758 15.5289 8.69258 15.5289L8.88164 12.8176L13.8188 8.35742C14.0336 8.16836 13.7715 8.06094 13.4879 8.25L7.38633 12.0914L4.75664 11.2707C4.18516 11.0902 4.17227 10.6992 4.87695 10.4242L15.1508 6.4625C15.6277 6.29062 16.0445 6.57852 15.8898 7.30039Z" fill="black" fill-opacity="0.2"/>
</svg>
