<svg width="60" height="60" viewBox="0 0 60 60" fill="none" xmlns="http://www.w3.org/2000/svg">
<path d="M30 60C46.5685 60 60 46.5685 60 30C60 13.4315 46.5685 0 30 0C13.4315 0 0 13.4315 0 30C0 46.5685 13.4315 60 30 60Z" fill="#E24141"/>
<path d="M33.1287 41.8159C33.4208 42 33.9213 42 34.9167 42H41.6628C42.6581 42 43.1587 42 43.4568 41.8103C43.6153 41.711 43.7472 41.5768 43.8415 41.4187C43.9357 41.2606 43.9898 41.0831 43.9991 40.9009C44.0162 40.5725 43.7772 40.174 43.3088 39.3934C43.2926 39.3667 43.2765 39.3397 43.2601 39.3122L39.8808 33.7295L39.8423 33.6667C39.3675 32.8913 39.1277 32.4996 38.8199 32.3483C38.6529 32.266 38.4681 32.2232 38.2806 32.2232C38.0931 32.2232 37.9083 32.266 37.7413 32.3483C37.4314 32.5037 37.1812 32.9124 36.6865 33.7353L33.3193 39.3181L33.3078 39.3373C32.8149 40.159 32.5686 40.5696 32.5864 40.9065C32.6103 41.275 32.8069 41.6144 33.1287 41.8159ZM34.8725 27.0288C35.0036 26.503 35.0036 25.9546 34.8725 25.4288C34.7542 24.9489 34.4832 24.4918 33.9491 23.5904L33.9368 23.5698L31.547 19.541C31.0524 18.7008 30.8021 18.2805 30.4862 18.1252C30.3181 18.0429 30.1323 18 29.9439 18C29.7554 18 29.5696 18.0429 29.4015 18.1252C29.0857 18.2805 28.8354 18.7008 28.3407 19.541L16.7161 39.3294C16.2274 40.1583 15.983 40.5727 16.0009 40.9122C16.0247 41.2806 16.2214 41.6144 16.5433 41.8159C16.8412 42 17.3299 42 18.3192 42H23.0273C24.1358 42 24.6901 42 25.1846 41.8678C25.7274 41.7124 26.2239 41.4341 26.6327 41.056C27.0105 40.7084 27.283 40.2478 27.8207 39.3389L27.8365 39.3121L33.9426 28.8878C34.4851 27.9727 34.7533 27.5123 34.8725 27.0288Z" fill="white"/>
</svg>
