<svg width="26" height="26" viewBox="0 0 26 26" fill="none" xmlns="http://www.w3.org/2000/svg">
<path fill-rule="evenodd" clip-rule="evenodd" d="M20.2882 23.7881C21.216 23.7881 22.1058 23.4195 22.7619 22.7634C23.4179 22.1074 23.7865 21.2176 23.7865 20.2898C23.7865 19.362 23.4179 18.4722 22.7619 17.8161C22.1058 17.1601 21.216 16.7915 20.2882 16.7915C19.3604 16.7915 18.4706 17.1601 17.8146 17.8161C17.1585 18.4722 16.7899 19.362 16.7899 20.2898C16.7899 21.2176 17.1585 22.1074 17.8146 22.7634C18.4706 23.4195 19.3604 23.7881 20.2882 23.7881ZM20.2882 25.1874C21.5871 25.1874 22.8328 24.6714 23.7513 23.7529C24.6698 22.8344 25.1858 21.5887 25.1858 20.2898C25.1858 18.9909 24.6698 17.7452 23.7513 16.8267C22.8328 15.9082 21.5871 15.3922 20.2882 15.3922C18.9893 15.3922 17.7436 15.9082 16.8251 16.8267C15.9066 17.7452 15.3906 18.9909 15.3906 20.2898C15.3906 21.5887 15.9066 22.8344 16.8251 23.7529C17.7436 24.6714 18.9893 25.1874 20.2882 25.1874Z" fill="#20212B"/>
<path fill-rule="evenodd" clip-rule="evenodd" d="M20.2902 17.8414C20.4757 17.8414 20.6537 17.9151 20.7849 18.0463C20.9161 18.1775 20.9898 18.3555 20.9898 18.541V20.0005L21.4845 20.4952C21.6119 20.6271 21.6825 20.8038 21.6809 20.9873C21.6793 21.1707 21.6057 21.3462 21.476 21.4759C21.3462 21.6057 21.1708 21.6792 20.9873 21.6808C20.8039 21.6824 20.6271 21.6119 20.4952 21.4845L19.5905 20.5798V18.541C19.5905 18.3555 19.6642 18.1775 19.7954 18.0463C19.9267 17.9151 20.1046 17.8414 20.2902 17.8414ZM5.59744 11.8943H4.19814V13.2936H5.59744V11.8943ZM4.19814 10.495C3.82702 10.495 3.4711 10.6424 3.20868 10.9048C2.94626 11.1673 2.79883 11.5232 2.79883 11.8943V13.2936C2.79883 13.6647 2.94626 14.0207 3.20868 14.2831C3.4711 14.5455 3.82702 14.6929 4.19814 14.6929H5.59744C5.96856 14.6929 6.32448 14.5455 6.5869 14.2831C6.84933 14.0207 6.99675 13.6647 6.99675 13.2936V11.8943C6.99675 11.5232 6.84933 11.1673 6.5869 10.9048C6.32448 10.6424 5.96856 10.495 5.59744 10.495H4.19814ZM11.1947 11.8943H9.79537V13.2936H11.1947V11.8943ZM9.79537 10.495C9.42425 10.495 9.06833 10.6424 8.80591 10.9048C8.54349 11.1673 8.39606 11.5232 8.39606 11.8943V13.2936C8.39606 13.6647 8.54349 14.0207 8.80591 14.2831C9.06833 14.5455 9.42425 14.6929 9.79537 14.6929H11.1947C11.5658 14.6929 11.9217 14.5455 12.1841 14.2831C12.4466 14.0207 12.594 13.6647 12.594 13.2936V11.8943C12.594 11.5232 12.4466 11.1673 12.1841 10.9048C11.9217 10.6424 11.5658 10.495 11.1947 10.495H9.79537ZM16.7919 11.8943H15.3926V13.2936H16.7919V11.8943ZM15.3926 10.495C15.0215 10.495 14.6656 10.6424 14.4031 10.9048C14.1407 11.1673 13.9933 11.5232 13.9933 11.8943V13.2936C13.9933 13.6647 14.1407 14.0207 14.4031 14.2831C14.6656 14.5455 15.0215 14.6929 15.3926 14.6929H16.7919C17.163 14.6929 17.5189 14.5455 17.7814 14.2831C18.0438 14.0207 18.1912 13.6647 18.1912 13.2936V11.8943C18.1912 11.5232 18.0438 11.1673 17.7814 10.9048C17.5189 10.6424 17.163 10.495 16.7919 10.495H15.3926ZM5.59744 17.4915H4.19814V18.8908H5.59744V17.4915ZM4.19814 16.0922C3.82702 16.0922 3.4711 16.2397 3.20868 16.5021C2.94626 16.7645 2.79883 17.1204 2.79883 17.4915V18.8908C2.79883 19.262 2.94626 19.6179 3.20868 19.8803C3.4711 20.1427 3.82702 20.2902 4.19814 20.2902H5.59744C5.96856 20.2902 6.32448 20.1427 6.5869 19.8803C6.84933 19.6179 6.99675 19.262 6.99675 18.8908V17.4915C6.99675 17.1204 6.84933 16.7645 6.5869 16.5021C6.32448 16.2397 5.96856 16.0922 5.59744 16.0922H4.19814ZM11.1947 17.4915H9.79537V18.8908H11.1947V17.4915ZM9.79537 16.0922C9.42425 16.0922 9.06833 16.2397 8.80591 16.5021C8.54349 16.7645 8.39606 17.1204 8.39606 17.4915V18.8908C8.39606 19.262 8.54349 19.6179 8.80591 19.8803C9.06833 20.1427 9.42425 20.2902 9.79537 20.2902H11.1947C11.5658 20.2902 11.9217 20.1427 12.1841 19.8803C12.4466 19.6179 12.594 19.262 12.594 18.8908V17.4915C12.594 17.1204 12.4466 16.7645 12.1841 16.5021C11.9217 16.2397 11.5658 16.0922 11.1947 16.0922H9.79537Z" fill="#20212B"/>
<mask id="path-3-inside-1_351_3470" fill="white">
<path fill-rule="evenodd" clip-rule="evenodd" d="M1.39931 4.19796C1.39931 4.0124 1.47302 3.83444 1.60423 3.70323C1.73544 3.57202 1.9134 3.49831 2.09896 3.49831H5.59723V2.099H2.09896C1.54228 2.099 1.0084 2.32014 0.614772 2.71377C0.22114 3.1074 0 3.64128 0 4.19796V20.9897C0 21.5463 0.22114 22.0802 0.614772 22.4738C1.0084 22.8675 1.54228 23.0886 2.09896 23.0886H16.2705C15.9721 22.6613 15.7441 22.1888 15.5953 21.6893H2.09896C1.9134 21.6893 1.73544 21.6156 1.60423 21.4844C1.47302 21.3532 1.39931 21.1752 1.39931 20.9897V4.19796ZM19.5903 15.4414C20.0544 15.375 20.5255 15.375 20.9896 15.4414V4.19796C20.9896 3.64128 20.7685 3.1074 20.3748 2.71377C19.9812 2.32014 19.4473 2.099 18.8907 2.099H16.7917V3.49831H18.8907C19.0762 3.49831 19.2542 3.57202 19.3854 3.70323C19.5166 3.83444 19.5903 4.0124 19.5903 4.19796V15.4414ZM6.99654 3.49831H14.387V2.099H6.99654V3.49831Z"/>
</mask>
<path fill-rule="evenodd" clip-rule="evenodd" d="M1.39931 4.19796C1.39931 4.0124 1.47302 3.83444 1.60423 3.70323C1.73544 3.57202 1.9134 3.49831 2.09896 3.49831H5.59723V2.099H2.09896C1.54228 2.099 1.0084 2.32014 0.614772 2.71377C0.22114 3.1074 0 3.64128 0 4.19796V20.9897C0 21.5463 0.22114 22.0802 0.614772 22.4738C1.0084 22.8675 1.54228 23.0886 2.09896 23.0886H16.2705C15.9721 22.6613 15.7441 22.1888 15.5953 21.6893H2.09896C1.9134 21.6893 1.73544 21.6156 1.60423 21.4844C1.47302 21.3532 1.39931 21.1752 1.39931 20.9897V4.19796ZM19.5903 15.4414C20.0544 15.375 20.5255 15.375 20.9896 15.4414V4.19796C20.9896 3.64128 20.7685 3.1074 20.3748 2.71377C19.9812 2.32014 19.4473 2.099 18.8907 2.099H16.7917V3.49831H18.8907C19.0762 3.49831 19.2542 3.57202 19.3854 3.70323C19.5166 3.83444 19.5903 4.0124 19.5903 4.19796V15.4414ZM6.99654 3.49831H14.387V2.099H6.99654V3.49831Z" fill="#20212B"/>
<path d="M1.39931 4.19796H4.39931H1.39931ZM5.59723 3.49831V6.49831H8.59723V3.49831H5.59723ZM5.59723 2.099H8.59723V-0.901001H5.59723V2.099ZM16.2705 23.0886V26.0886H22.0237L18.7303 21.3713L16.2705 23.0886ZM15.5953 21.6893L18.4704 20.8326L17.8317 18.6893H15.5953V21.6893ZM1.39931 20.9897H4.39931H1.39931ZM19.5903 15.4414H16.5903V18.9011L20.0151 18.4112L19.5903 15.4414ZM20.9896 15.4414L20.5648 18.4112L23.9896 18.9011V15.4414H20.9896ZM16.7917 2.099V-0.901001H13.7917V2.099H16.7917ZM16.7917 3.49831H13.7917V6.49831H16.7917V3.49831ZM6.99654 3.49831H3.99654V6.49831H6.99654V3.49831ZM14.387 3.49831V6.49831H17.387V3.49831H14.387ZM14.387 2.099H17.387V-0.901001H14.387V2.099ZM6.99654 2.099V-0.901001H3.99654V2.099H6.99654ZM4.39931 4.19796C4.39931 4.80805 4.15695 5.39315 3.72555 5.82455L-0.517088 1.58191C-1.21091 2.27573 -1.60069 3.21675 -1.60069 4.19796H4.39931ZM3.72555 5.82455C3.29416 6.25595 2.70905 6.49831 2.09896 6.49831V0.498307C1.11775 0.498307 0.17673 0.888093 -0.517088 1.58191L3.72555 5.82455ZM2.09896 6.49831H5.59723V0.498307H2.09896V6.49831ZM8.59723 3.49831V2.099H2.59723V3.49831H8.59723ZM5.59723 -0.901001H2.09896V5.099H5.59723V-0.901001ZM2.09896 -0.901001C0.746634 -0.901001 -0.550307 -0.363791 -1.50655 0.59245L2.73609 4.83509C2.56711 5.00407 2.33793 5.099 2.09896 5.099V-0.901001ZM-1.50655 0.59245C-2.46279 1.54869 -3 2.84563 -3 4.19796H3C3 4.43693 2.90507 4.66611 2.73609 4.83509L-1.50655 0.59245ZM-3 4.19796V20.9897H3V4.19796H-3ZM-3 20.9897C-3 22.342 -2.46279 23.6389 -1.50655 24.5952L2.73609 20.3525C2.90507 20.5215 3 20.7507 3 20.9897H-3ZM-1.50655 24.5952C-0.55031 25.5514 0.746629 26.0886 2.09896 26.0886V20.0886C2.33794 20.0886 2.56712 20.1836 2.73609 20.3525L-1.50655 24.5952ZM2.09896 26.0886H16.2705V20.0886H2.09896V26.0886ZM18.7303 21.3713C18.6154 21.2068 18.5277 21.0249 18.4704 20.8326L12.7202 22.5461C12.9606 23.3528 13.3288 24.1157 13.8106 24.806L18.7303 21.3713ZM15.5953 18.6893H2.09896V24.6893H15.5953V18.6893ZM2.09896 18.6893C2.70905 18.6893 3.29415 18.9317 3.72555 19.3631L-0.517088 23.6057C0.176735 24.2995 1.11776 24.6893 2.09896 24.6893V18.6893ZM3.72555 19.3631C4.15695 19.7945 4.39931 20.3796 4.39931 20.9897H-1.60069C-1.60069 21.9709 -1.21091 22.9119 -0.517088 23.6057L3.72555 19.3631ZM4.39931 20.9897V4.19796H-1.60069V20.9897H4.39931ZM20.0151 18.4112C20.1974 18.3851 20.3825 18.3851 20.5648 18.4112L21.4144 12.4716C20.6686 12.3649 19.9114 12.3649 19.1655 12.4716L20.0151 18.4112ZM23.9896 15.4414V4.19796H17.9896V15.4414H23.9896ZM23.9896 4.19796C23.9896 2.84563 23.4524 1.54869 22.4962 0.59245L18.2535 4.83509C18.0846 4.66612 17.9896 4.43693 17.9896 4.19796H23.9896ZM22.4962 0.59245C21.5399 -0.36379 20.243 -0.901001 18.8907 -0.901001V5.099C18.6517 5.099 18.4225 5.00407 18.2535 4.83509L22.4962 0.59245ZM18.8907 -0.901001H16.7917V5.099H18.8907V-0.901001ZM13.7917 2.099V3.49831H19.7917V2.099H13.7917ZM16.7917 6.49831H18.8907V0.498307H16.7917V6.49831ZM18.8907 6.49831C18.2806 6.49831 17.6955 6.25595 17.2641 5.82455L21.5067 1.58191C20.8129 0.88809 19.8719 0.498307 18.8907 0.498307V6.49831ZM17.2641 5.82455C16.8327 5.39315 16.5903 4.80805 16.5903 4.19796H22.5903C22.5903 3.21676 22.2005 2.27573 21.5067 1.58191L17.2641 5.82455ZM16.5903 4.19796V15.4414H22.5903V4.19796H16.5903ZM6.99654 6.49831H14.387V0.498307H6.99654V6.49831ZM17.387 3.49831V2.099H11.387V3.49831H17.387ZM14.387 -0.901001H6.99654V5.099H14.387V-0.901001ZM3.99654 2.099V3.49831H9.99654V2.099H3.99654Z" fill="black" mask="url(#path-3-inside-1_351_3470)"/>
<path fill-rule="evenodd" clip-rule="evenodd" d="M20.9907 8.39577H1.40039V6.99646H20.9907V8.39577Z" fill="#20212B"/>
<path d="M4.19922 0.699654C4.19922 0.514094 4.27293 0.336135 4.40414 0.204924C4.53535 0.0737135 4.71331 0 4.89887 0C5.08443 0 5.26239 0.0737135 5.3936 0.204924C5.52481 0.336135 5.59853 0.514094 5.59853 0.699654V4.19792C5.59853 4.38348 5.52481 4.56144 5.3936 4.69265C5.26239 4.82386 5.08443 4.89758 4.89887 4.89758C4.71331 4.89758 4.53535 4.82386 4.40414 4.69265C4.27293 4.56144 4.19922 4.38348 4.19922 4.19792V0.699654ZM13.9944 0.699654C13.9944 0.514094 14.0681 0.336135 14.1993 0.204924C14.3305 0.0737135 14.5085 0 14.694 0C14.8796 0 15.0575 0.0737135 15.1888 0.204924C15.32 0.336135 15.3937 0.514094 15.3937 0.699654V4.19792C15.3937 4.38348 15.32 4.56144 15.1888 4.69265C15.0575 4.82386 14.8796 4.89758 14.694 4.89758C14.5085 4.89758 14.3305 4.82386 14.1993 4.69265C14.0681 4.56144 13.9944 4.38348 13.9944 4.19792V0.699654Z" fill="#20212B"/>
</svg>
