<svg width="22" height="26" viewBox="0 0 22 26" fill="none" xmlns="http://www.w3.org/2000/svg">
<path d="M10.668 14.9166C13.0152 14.9166 14.918 13.0138 14.918 10.6666C14.918 8.31942 13.0152 6.41663 10.668 6.41663C8.32076 6.41663 6.41797 8.31942 6.41797 10.6666C6.41797 13.0138 8.32076 14.9166 10.668 14.9166Z" stroke="#20212B" stroke-width="2" stroke-linecap="round" stroke-linejoin="round"/>
<path d="M2.84469 16.1671C2.8527 16.1771 2.86091 16.1869 2.86931 16.1966L9.91098 24.3216C10.1009 24.5408 10.3766 24.6667 10.6667 24.6667C10.9567 24.6667 11.2324 24.5408 11.4224 24.3216L18.464 16.1966C18.4724 16.1869 18.4806 16.1771 18.4886 16.1671C19.1411 15.3529 19.6136 14.5434 19.9161 13.6309C20.2171 12.7228 20.3333 11.7621 20.3333 10.6667C20.3333 8.10291 19.3149 5.64415 17.502 3.8313C15.6892 2.01845 13.2304 1 10.6667 1C8.10291 1 5.64415 2.01845 3.8313 3.8313C2.01845 5.64415 1 8.10291 1 10.6667C1 11.7621 1.11624 12.7228 1.41723 13.6309C1.71969 14.5434 2.19219 15.3529 2.84469 16.1671Z" stroke="#20212B" stroke-width="2" stroke-linecap="round" stroke-linejoin="round"/>
</svg>
