<svg width="32" height="32" viewBox="0 0 32 32" fill="none" xmlns="http://www.w3.org/2000/svg">
<g clip-path="url(#clip0_351_3586)">
<path d="M16.239 0.62854C7.90732 0.62854 1.15332 7.38254 1.15332 15.7143C1.15332 24.046 7.90732 30.8 16.239 30.8C24.5708 30.8 31.3248 24.046 31.3248 15.7143C31.3248 7.38254 24.5708 0.62854 16.239 0.62854ZM12.5462 21.967H9.49132V12.1361H12.5462V21.967ZM10.9999 10.9293C10.035 10.9293 9.41118 10.2457 9.41118 9.40025C9.41118 8.53754 10.0539 7.8744 11.0392 7.8744C12.0245 7.8744 12.6279 8.53754 12.6467 9.40025C12.6467 10.2457 12.0245 10.9293 10.9999 10.9293ZM23.7033 21.967H20.6485V16.5188C20.6485 15.2507 20.2053 14.3895 19.1006 14.3895C18.2568 14.3895 17.7555 14.9725 17.5339 15.5335C17.4522 15.7331 17.4317 16.016 17.4317 16.2973V21.9654H14.3753V15.2711C14.3753 14.0438 14.336 13.0177 14.2952 12.1345H16.9493L17.0892 13.5001H17.1505C17.5527 12.859 18.538 11.913 20.1865 11.913C22.1963 11.913 23.7033 13.2597 23.7033 16.1543V21.967Z" fill="#0A66C2"/>
</g>
<defs>
<clipPath id="clip0_351_3586">
<rect width="31.4286" height="31.4286" fill="white" transform="translate(0.523926)"/>
</clipPath>
</defs>
</svg>
