<svg width="32" height="32" viewBox="0 0 32 32" fill="none" xmlns="http://www.w3.org/2000/svg">
<g clip-path="url(#clip0_351_3588)">
<path d="M20.4772 15.7143C20.4772 16.9646 19.9806 18.1637 19.0965 19.0478C18.2124 19.9319 17.0133 20.4285 15.763 20.4285C14.5127 20.4285 13.3136 19.9319 12.4295 19.0478C11.5454 18.1637 11.0487 16.9646 11.0487 15.7143C11.0487 15.4455 11.077 15.1831 11.1257 14.9285H9.47725V21.2095C9.47725 21.6464 9.83082 22 10.2677 22H21.2598C21.4692 21.9996 21.6698 21.9161 21.8177 21.7679C21.9656 21.6197 22.0487 21.4189 22.0487 21.2095V14.9285H20.4002C20.449 15.1831 20.4772 15.4455 20.4772 15.7143ZM15.763 18.8571C16.1758 18.857 16.5846 18.7756 16.9659 18.6175C17.3473 18.4594 17.6938 18.2278 17.9856 17.9358C18.2775 17.6438 18.5089 17.2972 18.6668 16.9158C18.8247 16.5343 18.9059 16.1255 18.9058 15.7127C18.9057 15.2999 18.8243 14.8911 18.6662 14.5097C18.5081 14.1284 18.2765 13.7819 17.9845 13.49C17.6925 13.1982 17.3459 12.9667 16.9645 12.8088C16.583 12.6509 16.1742 12.5697 15.7614 12.5698C14.9276 12.57 14.1281 12.9014 13.5387 13.4911C12.9493 14.0808 12.6183 14.8805 12.6185 15.7143C12.6187 16.548 12.9501 17.3475 13.5398 17.9369C14.1295 18.5263 14.9292 18.8573 15.763 18.8571ZM19.5344 12.4143H21.4185C21.5437 12.4143 21.6638 12.3646 21.7524 12.2763C21.8411 12.1879 21.8911 12.068 21.8915 11.9428V10.0587C21.8915 9.93324 21.8417 9.81293 21.753 9.72422C21.6643 9.63552 21.544 9.58568 21.4185 9.58568H19.5344C19.4089 9.58568 19.2886 9.63552 19.1999 9.72422C19.1112 9.81293 19.0614 9.93324 19.0614 10.0587V11.9428C19.063 12.2021 19.2751 12.4143 19.5344 12.4143ZM15.763 0.62854C11.762 0.62854 7.92487 2.21792 5.09575 5.04704C2.26663 7.87616 0.677246 11.7133 0.677246 15.7143C0.677246 19.7152 2.26663 23.5523 5.09575 26.3815C7.92487 29.2106 11.762 30.8 15.763 30.8C17.744 30.8 19.7057 30.4098 21.536 29.6516C23.3663 28.8935 25.0293 27.7823 26.4302 26.3815C27.831 24.9806 28.9422 23.3176 29.7003 21.4873C30.4585 19.657 30.8487 17.6953 30.8487 15.7143C30.8487 13.7332 30.4585 11.7715 29.7003 9.9412C28.9422 8.11092 27.831 6.44788 26.4302 5.04704C25.0293 3.6462 23.3663 2.535 21.536 1.77687C19.7057 1.01874 17.744 0.62854 15.763 0.62854ZM23.6201 21.8255C23.6201 22.7857 22.8344 23.5714 21.8742 23.5714H9.65168C8.69153 23.5714 7.90582 22.7857 7.90582 21.8255V9.60297C7.90582 8.64283 8.69153 7.85711 9.65168 7.85711H21.8742C22.8344 7.85711 23.6201 8.64283 23.6201 9.60297V21.8255Z" fill="#C837AB"/>
</g>
<defs>
<clipPath id="clip0_351_3588">
<rect width="31.4286" height="31.4286" fill="white" transform="translate(0.0478516)"/>
</clipPath>
</defs>
</svg>
