<svg width="26" height="26" viewBox="0 0 26 26" fill="none" xmlns="http://www.w3.org/2000/svg">
<path d="M7.13874 23.1542L7.57338 23.3799C9.38464 24.5084 11.4131 25.035 13.4416 25.035C19.8169 25.035 25.033 19.6184 25.033 12.998C25.033 9.83829 23.8013 6.75378 21.628 4.4968C19.4546 2.23982 16.5567 0.960938 13.4416 0.960938C7.06635 0.960938 1.85013 6.3776 1.92262 13.0733C1.92262 15.3301 2.57464 17.5119 3.66129 19.3926L3.95105 19.8441L2.79201 24.2828L7.13874 23.1542Z" fill="#00E676"/>
<path d="M22.2452 3.79459C19.8365 1.33518 16.5068 0 13.1062 0C5.88017 0 0.0708895 5.83241 0.141677 12.9297C0.141677 15.1784 0.779277 17.3568 1.84201 19.3243L0 26L6.87192 24.2432C8.78471 25.2974 10.91 25.7893 13.0354 25.7893C20.1907 25.7893 26 19.9567 26 12.8596C26 9.41626 24.6539 6.18378 22.2453 3.79459H22.2452ZM13.1062 23.6109C11.1934 23.6109 9.28064 23.1191 7.65119 22.1353L7.22616 21.9245L3.11721 22.9785L4.17984 18.9731L3.89649 18.5515C0.779277 13.5623 2.26704 6.95674 7.36784 3.8648C12.4686 0.772961 19.0572 2.24867 22.1744 7.30812C25.2915 12.3676 23.8037 18.9027 18.7031 21.9947C17.0735 23.0487 15.0899 23.6108 13.1062 23.6108V23.6109ZM19.3405 15.811L18.5613 15.4596C18.5613 15.4596 17.4279 14.9677 16.7194 14.6163C16.6485 14.6163 16.5777 14.546 16.5068 14.546C16.2942 14.546 16.1526 14.6163 16.0109 14.6867C16.0109 14.6867 15.9401 14.7569 14.9482 15.8812C14.8774 16.0217 14.7357 16.092 14.594 16.092H14.5231C14.4523 16.092 14.3106 16.0217 14.2398 15.9515L13.8855 15.811C13.1062 15.4596 12.3978 15.0379 11.831 14.4758C11.6894 14.3353 11.4768 14.1947 11.3351 14.0542C10.8392 13.5623 10.3433 13.0001 9.98913 12.3677L9.91824 12.2271C9.84745 12.1568 9.84745 12.0866 9.77656 11.9461C9.77656 11.8056 9.77656 11.665 9.84745 11.5947C9.84745 11.5947 10.1308 11.2433 10.3433 11.0326C10.485 10.892 10.5558 10.6812 10.6975 10.5407C10.8392 10.3298 10.9101 10.0488 10.8392 9.83794C10.7684 9.48657 9.91824 7.58928 9.70577 7.16769C9.56399 6.95685 9.42241 6.88663 9.20985 6.81632H8.43057C8.28879 6.81632 8.14722 6.88663 8.00544 6.88663L7.93455 6.95684C7.79287 7.02716 7.65119 7.16769 7.50952 7.2379C7.36784 7.37853 7.29695 7.51896 7.15527 7.65959C6.65935 8.29202 6.37599 9.06498 6.37599 9.83794C6.37599 10.4001 6.51767 10.9623 6.73024 11.4542L6.80113 11.665C7.43873 13.0001 8.28879 14.1947 9.42242 15.2488L9.70577 15.5298C9.91824 15.7407 10.1308 15.8812 10.2725 16.0919C11.7602 17.3569 13.4605 18.2704 15.3733 18.7623C15.5858 18.8325 15.8692 18.8325 16.0818 18.9028H16.7902C17.1444 18.9028 17.5694 18.7623 17.8529 18.6218C18.0654 18.4812 18.207 18.4812 18.3487 18.3407L18.4905 18.2001C18.6322 18.0596 18.7738 17.9893 18.9155 17.8488C19.0572 17.7083 19.1989 17.5677 19.2698 17.4271C19.4114 17.1461 19.4822 16.7947 19.5531 16.4434V15.9515C19.5531 15.9515 19.4822 15.8812 19.3405 15.811Z" fill="white"/>
</svg>
