<svg width="24" height="24" viewBox="0 0 24 24" fill="none" xmlns="http://www.w3.org/2000/svg">
<path d="M10.8197 1.64006L8.3361 6.90287C8.14323 7.30875 7.77291 7.59092 7.34284 7.65614L1.78587 8.49981C0.70681 8.66393 0.274086 10.0517 1.05604 10.8477L5.07783 14.945C5.38806 15.2605 5.52881 15.7163 5.45577 16.1621L4.50701 21.9474C4.32211 23.0706 5.45187 23.9293 6.41766 23.399L11.3882 20.6679C11.5757 20.5641 11.7864 20.5096 12.0007 20.5096C12.215 20.5096 12.4257 20.5641 12.6132 20.6679L17.5837 23.3992C18.5495 23.9291 19.6793 23.0706 19.4942 21.9476L18.5454 16.1621C18.4719 15.7163 18.614 15.2603 18.9241 14.945L22.9445 10.8477C23.7262 10.0517 23.2951 8.66393 22.2148 8.49981L16.6585 7.65614C16.2297 7.59092 15.859 7.30875 15.6667 6.90287L13.182 1.64006C12.6984 0.617377 11.3021 0.617377 10.8199 1.64006H10.8197Z" fill="#FF9900"/>
</svg>
