<svg width="26" height="26" viewBox="0 0 26 26" fill="none" xmlns="http://www.w3.org/2000/svg">
<path d="M9.80767 11.1575L5.71891 6.61426C4.56571 5.3329 4.64523 3.3329 5.89653 2.14714V2.14714C7.14782 0.961376 9.09704 1.03888 10.2502 2.32025L14.339 6.86345" stroke="#0029FF" stroke-width="1.3"/>
<path d="M6.71875 7.7258L10.4949 4.14745" stroke="#0029FF" stroke-width="1.3" stroke-linecap="round"/>
<path d="M14.5176 17.3307L18.1964 21.4184L23.7322 22.9049L22.7277 17.1244L19.0489 13.0367" stroke="#0029FF" stroke-width="1.3"/>
<path d="M18.3776 21.6205C18.3422 20.5446 19.1073 17.9889 22.1537 18.0421" stroke="#0029FF" stroke-width="1.3"/>
<path d="M8.74243 21.4553C8.34419 22.2852 7.14562 22.7494 5.88112 22.7449L2.09127 22.0494C5.26802 20.5064 4.08191 17.427 5.83942 16.883C7.59692 16.3389 9.66036 19.5423 8.74243 21.4553Z" stroke="#0029FF" stroke-width="1.3" stroke-linecap="round" stroke-linejoin="round"/>
<rect width="5.47802" height="21.6797" rx="2.73901" transform="matrix(0.683652 0.729962 -0.712478 0.701506 21.75 0.952484)" stroke="#0029FF" stroke-width="1.3"/>
<path d="M9.58988 13.0026C10.6065 12.982 13.0574 13.7809 13.1358 16.8223" stroke="#0029FF" stroke-width="1.3"/>
</svg>
