<svg width="469" height="469" viewBox="0 0 469 469" fill="none" xmlns="http://www.w3.org/2000/svg">
<circle cx="234.5" cy="234.5" r="234.5" fill="#F3BA2F"/>
<path d="M172.896 209.075L234.5 147.59L296.129 209.125L331.954 173.33L234.5 76L137.046 173.305L172.896 209.075Z" fill="white"/>
<path d="M76 234.513L111.659 198.829L147.343 234.513L111.659 270.172L76 234.513Z" fill="white"/>
<path d="M172.892 259.9L234.487 321.433L296.108 259.875L331.954 295.634L234.513 393L137.046 295.709L172.892 259.9Z" fill="white"/>
<path d="M321.656 234.5L357.316 198.829L393 234.475L357.316 270.172L321.656 234.5Z" fill="white"/>
<path d="M270.907 234.55L234.5 198.093L207.577 225.034L204.466 228.122L198.093 234.5L234.5 270.907L270.907 234.575V234.55Z" fill="white"/>
</svg>
