<svg width="20" height="20" viewBox="0 0 20 20" fill="none" xmlns="http://www.w3.org/2000/svg">
<path d="M9.50508 1.72215C9.7434 1.37441 10.2566 1.37441 10.4949 1.72215L13.4061 5.9699C13.4841 6.08374 13.599 6.1672 13.7314 6.20623L18.6708 7.66229C19.0752 7.78149 19.2338 8.26957 18.9767 8.60369L15.8364 12.685C15.7523 12.7944 15.7084 12.9294 15.7122 13.0674L15.8538 18.215C15.8654 18.6364 15.4502 18.9381 15.053 18.7968L10.201 17.0715C10.071 17.0252 9.929 17.0252 9.79897 17.0715L4.94702 18.7968C4.54981 18.9381 4.13463 18.6364 4.14622 18.215L4.2878 13.0674C4.29159 12.9294 4.24771 12.7944 4.16355 12.685L1.0233 8.60369C0.766226 8.26957 0.924812 7.78149 1.32918 7.66229L6.26863 6.20623C6.40101 6.1672 6.51589 6.08374 6.59391 5.9699L9.50508 1.72215Z" fill="black" stroke="black" stroke-width="1.6"/>
</svg>
