<svg width="21" height="21" viewBox="0 0 21 21" fill="none" xmlns="http://www.w3.org/2000/svg">
<path d="M10.8592 11.0974C12.2927 11.0974 13.4548 9.93532 13.4548 8.50182C13.4548 7.06833 12.2927 5.90625 10.8592 5.90625C9.42575 5.90625 8.26367 7.06833 8.26367 8.50182C8.26367 9.93532 9.42575 11.0974 10.8592 11.0974Z" stroke="#2C2B2B" stroke-width="1.6" stroke-linecap="round" stroke-linejoin="round"/>
<path d="M10.859 1.3125C9.02332 1.3125 7.26281 2.08687 5.96477 3.46527C4.66673 4.84366 3.9375 6.71316 3.9375 8.6625C3.9375 10.4008 4.28531 11.5382 5.23529 12.7969L10.859 19.6875L16.4828 12.7969C17.4327 11.5382 17.7805 10.4008 17.7805 8.6625C17.7805 6.71316 17.0513 4.84366 15.7533 3.46527C14.4552 2.08687 12.6947 1.3125 10.859 1.3125Z" stroke="#2C2B2B" stroke-width="1.6" stroke-linecap="round" stroke-linejoin="round"/>
</svg>
