<svg width="15" height="15" viewBox="0 0 15 15" fill="none" xmlns="http://www.w3.org/2000/svg">
<path d="M13.2417 14C11.6889 14 10.1754 13.6538 8.70106 12.9614C7.22628 12.2696 5.92026 11.3547 4.783 10.217C3.64526 9.07974 2.73044 7.77372 2.03856 6.29894C1.34619 4.82465 1 3.31111 1 1.75833C1 1.54167 1.07222 1.36111 1.21667 1.21667C1.36111 1.07222 1.54167 1 1.75833 1H4.68333C4.85185 1 5.00232 1.05417 5.13472 1.1625C5.26713 1.27083 5.34537 1.40926 5.36944 1.57778L5.83889 4.10556C5.86296 4.27407 5.86007 4.42743 5.83022 4.56561C5.79989 4.70428 5.73056 4.82778 5.62222 4.93611L3.87083 6.70555C4.37639 7.57222 5.01146 8.38472 5.77606 9.14305C6.54017 9.90139 7.37963 10.5574 8.29444 11.1111L9.99167 9.41389C10.1 9.30556 10.2416 9.22418 10.4163 9.16978C10.5906 9.11585 10.762 9.10093 10.9306 9.125L13.4222 9.63056C13.5907 9.66667 13.7292 9.7478 13.8375 9.87394C13.9458 10.0006 14 10.1481 14 10.3167V13.2417C14 13.4583 13.9278 13.6389 13.7833 13.7833C13.6389 13.9278 13.4583 14 13.2417 14ZM3.18472 5.33333L4.37639 4.14167L4.06944 2.44444H2.4625C2.52269 2.93796 2.60694 3.42546 2.71528 3.90694C2.82361 4.38843 2.98009 4.86389 3.18472 5.33333ZM12.5556 12.5194V10.9306L10.8583 10.5875L9.64861 11.7972C10.1181 12.0019 10.5966 12.1644 11.0844 12.2847C11.5716 12.4051 12.062 12.4833 12.5556 12.5194Z" fill="#444444"/>
</svg>
