<svg width="16" height="16" viewBox="0 0 16 16" fill="none" xmlns="http://www.w3.org/2000/svg">
<g clip-path="url(#clip0_1992_3969)">
<path d="M8.53206 12.8397C8.2061 12.6341 7.791 12.6341 7.46504 12.8397L4.76704 14.5415C4.62429 14.6366 4.47504 14.6774 4.31931 14.6638C4.16357 14.6502 4.0273 14.5958 3.9105 14.5007C3.7937 14.4056 3.70285 14.2868 3.63796 14.1444C3.57307 14.0015 3.5601 13.8417 3.59903 13.665L4.32925 10.3807C4.40733 10.0295 4.29075 9.66342 4.02394 9.42207L1.59394 7.22383C1.46416 7.10153 1.38318 6.96211 1.35099 6.80556C1.31829 6.64956 1.32789 6.49682 1.3798 6.34734C1.43171 6.19786 1.50958 6.07556 1.61341 5.98044C1.71723 5.88531 1.85999 5.82416 2.04168 5.79699L5.20996 5.50628C5.58341 5.47202 5.9063 5.23168 6.04629 4.88378L7.27827 1.82221C7.34316 1.65914 7.44387 1.53684 7.5804 1.45531C7.71641 1.37377 7.85579 1.33301 7.99855 1.33301C8.14131 1.33301 8.28095 1.37377 8.41748 1.45531C8.55349 1.53684 8.65394 1.65914 8.71883 1.82221L9.95081 4.88378C10.0908 5.23168 10.4137 5.47202 10.7871 5.50628L13.9554 5.79699C14.1371 5.82416 14.2799 5.88531 14.3837 5.98044C14.4875 6.07556 14.5654 6.19786 14.6173 6.34734C14.6692 6.49682 14.6791 6.64956 14.6469 6.80556C14.6142 6.96211 14.5329 7.10153 14.4032 7.22383L11.9732 9.42207C11.7064 9.66342 11.5898 10.0295 11.6678 10.3807L12.3981 13.665C12.437 13.8417 12.424 14.0015 12.3591 14.1444C12.2942 14.2868 12.2034 14.4056 12.0866 14.5007C11.9698 14.5958 11.8335 14.6502 11.6778 14.6638C11.5221 14.6774 11.3728 14.6366 11.2301 14.5415L8.53206 12.8397Z" fill="#F58B0E" stroke="#F58B0E" stroke-width="1.3"/>
</g>
<defs>
<clipPath id="clip0_1992_3969">
<rect width="16" height="16" fill="white"/>
</clipPath>
</defs>
</svg>
