<svg width="14" height="18" viewBox="0 0 14 18" fill="none" xmlns="http://www.w3.org/2000/svg">
<path d="M7 0C3.14045 0 0 3.1725 0 7.07143C0 10.8354 6.27264 17.5185 6.53927 17.8007C6.65955 17.9286 6.82627 18 7 18C7.00445 18 7.00954 18 7.014 18C7.19282 18 7.36145 17.9158 7.47918 17.7801L9.65109 15.2666C12.537 11.6955 14 8.93829 14 7.07143C14 3.1725 10.8595 0 7 0ZM7 10.2857C5.24236 10.2857 3.81818 8.847 3.81818 7.07143C3.81818 5.29586 5.24236 3.85714 7 3.85714C8.75764 3.85714 10.1818 5.29586 10.1818 7.07143C10.1818 8.847 8.75764 10.2857 7 10.2857Z" fill="#A7A7A7"/>
</svg>
