<svg width="20" height="20" viewBox="0 0 20 20" fill="none" xmlns="http://www.w3.org/2000/svg">
<path d="M14.582 9.99984C15.7976 9.99984 16.9634 10.4827 17.8229 11.3423C18.6825 12.2018 19.1654 13.3676 19.1654 14.5832C19.1654 15.7987 18.6825 16.9645 17.8229 17.8241C16.9634 18.6836 15.7976 19.1665 14.582 19.1665C13.3665 19.1665 12.2007 18.6836 11.3411 17.8241C10.4816 16.9645 9.9987 15.7987 9.9987 14.5832C9.9987 13.3676 10.4816 12.2018 11.3411 11.3423C12.2007 10.4827 13.3665 9.99984 14.582 9.99984ZM4.58453 3.85567L4.58203 5.62484V14.3782C4.58203 15.0965 4.86737 15.7853 5.37528 16.2933C5.88319 16.8012 6.57207 17.0865 7.29036 17.0865L9.77786 17.0873C10.017 17.5446 10.32 17.9655 10.6779 18.3373H7.29036C6.77048 18.3373 6.25568 18.2349 5.77538 18.0359C5.29508 17.837 4.85868 17.5453 4.49111 17.1777C4.12353 16.81 3.83198 16.3736 3.6331 15.8932C3.43423 15.4129 3.33192 14.8981 3.33203 14.3782V5.62484C3.33203 4.80817 3.85453 4.11234 4.58453 3.85567ZM15.2354 12.1573C15.1658 12.1093 15.0832 12.0836 14.9987 12.0836C14.9142 12.0836 14.8316 12.1093 14.762 12.1573L14.7037 12.2048L14.6562 12.2632C14.6082 12.3328 14.5825 12.4153 14.5825 12.4998C14.5825 12.5844 14.6082 12.6669 14.6562 12.7365L14.7037 12.7948L16.0754 14.1657L12.077 14.1665L12.002 14.1732C11.9188 14.1884 11.8421 14.2286 11.7823 14.2884C11.7224 14.3483 11.6822 14.4249 11.667 14.5082L11.6604 14.5832L11.667 14.6582C11.6822 14.7414 11.7224 14.8181 11.7823 14.8779C11.8421 14.9378 11.9188 14.978 12.002 14.9932L12.077 14.9998L16.077 14.999L14.7037 16.3715L14.6562 16.4298C14.6013 16.51 14.5762 16.6069 14.5852 16.7037C14.5942 16.8005 14.6367 16.891 14.7054 16.9598C14.7742 17.0285 14.8647 17.071 14.9615 17.08C15.0583 17.089 15.1552 17.0639 15.2354 17.009L15.2937 16.9615L17.402 14.8507L17.432 14.809L17.467 14.7423L17.4887 14.6732L17.497 14.6198V14.5465L17.4887 14.4932L17.4795 14.4573L17.4529 14.3923L17.4329 14.3573L17.4012 14.3157L15.2929 12.2048L15.2354 12.1573ZM14.7904 1.6665C15.0366 1.6665 15.2804 1.715 15.5079 1.80923C15.7354 1.90346 15.9421 2.04157 16.1162 2.21568C16.2903 2.38979 16.4284 2.59649 16.5226 2.82397C16.6169 3.05146 16.6654 3.29528 16.6654 3.5415V9.5815C16.2644 9.41451 15.8447 9.29671 15.4154 9.23067V3.5415C15.4154 3.37574 15.3495 3.21677 15.2323 3.09956C15.1151 2.98235 14.9561 2.9165 14.7904 2.9165H7.29036C7.1246 2.9165 6.96563 2.98235 6.84842 3.09956C6.73121 3.21677 6.66536 3.37574 6.66536 3.5415V14.3748C6.66536 14.7198 6.94536 14.9998 7.29036 14.9998H9.1812C9.21453 15.4332 9.29786 15.8515 9.42703 16.2498H7.29036C6.79308 16.2498 6.31617 16.0523 5.96454 15.7007C5.61291 15.349 5.41536 14.8721 5.41536 14.3748V3.5415C5.41536 3.04422 5.61291 2.56731 5.96454 2.21568C6.31617 1.86405 6.79308 1.6665 7.29036 1.6665H14.7904Z" fill="black"/>
</svg>
