<svg width="24" height="24" viewBox="0 0 24 24" fill="none" xmlns="http://www.w3.org/2000/svg">
<path d="M13.8974 4.9H10.1026C10.1273 4.43252 10.3238 3.98917 10.6565 3.6565C11.0128 3.30018 11.4961 3.1 12 3.1C12.5039 3.1 12.9872 3.30018 13.3435 3.6565C13.6762 3.98917 13.8727 4.43252 13.8974 4.9ZM18.8595 18.6206L18.76 18.611L18.8595 18.6206L20.0208 6.6H21.25C21.4754 6.6 21.6916 6.51045 21.851 6.35104C22.0104 6.19163 22.1 5.97543 22.1 5.75C22.1 5.52457 22.0104 5.30837 21.851 5.14896C21.6916 4.98955 21.4754 4.9 21.25 4.9H15.5986C15.5864 4.46133 15.4941 4.02829 15.326 3.62234C15.1451 3.18557 14.8799 2.78871 14.5456 2.45442C14.2113 2.12012 13.8144 1.85495 13.3777 1.67403C12.9409 1.49312 12.4728 1.4 12 1.4C11.5272 1.4 11.0591 1.49312 10.6223 1.67403C10.1856 1.85495 9.78871 2.12012 9.45442 2.45442C9.12012 2.78871 8.85495 3.18557 8.67403 3.62234C8.50588 4.02829 8.41358 4.46133 8.40139 4.9H2.75C2.52457 4.9 2.30837 4.98955 2.14896 5.14896C1.98955 5.30837 1.9 5.52457 1.9 5.75C1.9 5.97543 1.98955 6.19164 2.14896 6.35104C2.30837 6.51045 2.52457 6.6 2.75 6.6H3.9792L5.14146 18.6206C5.23359 19.5732 5.67718 20.4573 6.38573 21.1005C7.09429 21.7438 8.01702 22.1001 8.974 22.1H15.026C15.026 22.1 15.026 22.1 15.026 22.1C15.9832 22.1004 16.9061 21.7442 17.6149 21.1009C18.3237 20.4576 18.7674 19.5734 18.8595 18.6206ZM10.6 9.75C10.6 9.52457 10.5104 9.30837 10.351 9.14896C10.1916 8.98955 9.97543 8.9 9.75 8.9C9.52457 8.9 9.30837 8.98955 9.14896 9.14896C8.98955 9.30837 8.9 9.52457 8.9 9.75V17.25C8.9 17.4754 8.98955 17.6916 9.14896 17.851C9.30837 18.0104 9.52457 18.1 9.75 18.1C9.97543 18.1 10.1916 18.0104 10.351 17.851C10.5104 17.6916 10.6 17.4754 10.6 17.25V9.75ZM14.851 9.14896C14.6916 8.98955 14.4754 8.9 14.25 8.9C14.0246 8.9 13.8084 8.98955 13.649 9.14896C13.4896 9.30837 13.4 9.52457 13.4 9.75V17.25C13.4 17.4754 13.4896 17.6916 13.649 17.851C13.8084 18.0104 14.0246 18.1 14.25 18.1C14.4754 18.1 14.6916 18.0104 14.851 17.851C15.0104 17.6916 15.1 17.4754 15.1 17.25V9.75C15.1 9.52457 15.0104 9.30837 14.851 9.14896ZM7.52857 19.8421C7.13286 19.4829 6.88507 18.9893 6.83353 18.4574L5.68614 6.6H18.3139L17.1665 18.4574C17.1149 18.9893 16.8671 19.4829 16.4714 19.8421C16.0757 20.2012 15.5604 20.4001 15.026 20.4H8.974C8.43958 20.4001 7.92429 20.2012 7.52857 19.8421Z" fill="#E22525" stroke="#E22525" stroke-width="0.2"/>
</svg>
