<svg width="15" height="15" viewBox="0 0 15 15" fill="none" xmlns="http://www.w3.org/2000/svg">
<path d="M7.5 1.25C4.04375 1.25 1.25 4.04375 1.25 7.5C1.25 10.9563 4.04375 13.75 7.5 13.75C10.9563 13.75 13.75 10.9563 13.75 7.5C13.75 4.04375 10.9563 1.25 7.5 1.25ZM10.1875 10.1875C10.1297 10.2454 10.061 10.2914 9.98539 10.3228C9.90978 10.3541 9.82873 10.3703 9.74687 10.3703C9.66502 10.3703 9.58397 10.3541 9.50836 10.3228C9.43275 10.2914 9.36407 10.2454 9.30625 10.1875L7.5 8.38125L5.69375 10.1875C5.57689 10.3044 5.41839 10.37 5.25312 10.37C5.08786 10.37 4.92936 10.3044 4.8125 10.1875C4.69564 10.0706 4.62999 9.91214 4.62999 9.74687C4.62999 9.66504 4.64611 9.58401 4.67742 9.50841C4.70874 9.43281 4.75464 9.36411 4.8125 9.30625L6.61875 7.5L4.8125 5.69375C4.69564 5.57689 4.62999 5.41839 4.62999 5.25312C4.62999 5.08786 4.69564 4.92936 4.8125 4.8125C4.92936 4.69564 5.08786 4.62999 5.25312 4.62999C5.41839 4.62999 5.57689 4.69564 5.69375 4.8125L7.5 6.61875L9.30625 4.8125C9.36411 4.75464 9.43281 4.70874 9.50841 4.67742C9.58401 4.64611 9.66504 4.62999 9.74687 4.62999C9.82871 4.62999 9.90974 4.64611 9.98534 4.67742C10.0609 4.70874 10.1296 4.75464 10.1875 4.8125C10.2454 4.87036 10.2913 4.93906 10.3226 5.01466C10.3539 5.09026 10.37 5.17129 10.37 5.25312C10.37 5.33496 10.3539 5.41599 10.3226 5.49159C10.2913 5.56719 10.2454 5.63589 10.1875 5.69375L8.38125 7.5L10.1875 9.30625C10.425 9.54375 10.425 9.94375 10.1875 10.1875Z" fill="#D70000"/>
</svg>
