<svg width="24" height="24" viewBox="0 0 24 24" fill="none" xmlns="http://www.w3.org/2000/svg">
<path d="M20.0404 20.0399C19.5288 20.5514 18.835 20.8388 18.1115 20.8388C17.3881 20.8388 16.6943 20.5514 16.1827 20.0399C15.6712 19.5283 15.3838 18.8345 15.3838 18.1111C15.3838 17.3876 15.6712 16.6938 16.1827 16.1822C16.6943 15.6707 17.3881 15.3833 18.1115 15.3833C18.835 15.3833 19.5288 15.6707 20.0404 16.1822C20.5519 16.6938 20.8393 17.3876 20.8393 18.1111C20.8393 18.8345 20.5519 19.5283 20.0404 20.0399ZM18.1115 22.0499C19.1562 22.0499 20.1581 21.635 20.8968 20.8963C21.6354 20.1576 22.0504 19.1557 22.0504 18.1111C22.0504 17.0664 21.6354 16.0645 20.8968 15.3258C20.1581 14.5872 19.1562 14.1722 18.1115 14.1722C17.0669 14.1722 16.065 14.5872 15.3263 15.3258C14.5876 16.0645 14.1727 17.0664 14.1727 18.1111C14.1727 19.1557 14.5876 20.1576 15.3263 20.8963C16.065 21.635 17.0669 22.0499 18.1115 22.0499Z" fill="#14074D" stroke="black" stroke-width="0.1"/>
<path d="M19.0958 18.2393L19.0952 18.2387L18.7171 17.8606V16.7224C18.7171 16.5618 18.6533 16.4078 18.5397 16.2942C18.4262 16.1806 18.2721 16.1168 18.1115 16.1168C17.9509 16.1168 17.7969 16.1806 17.6834 16.2942C17.5698 16.4078 17.506 16.5618 17.506 16.7224V18.3413V18.362L17.5206 18.3766L18.239 19.095L18.2396 19.0956C18.3538 19.2059 18.5068 19.2669 18.6655 19.2655C18.8243 19.2642 18.9762 19.2005 19.0885 19.0882C19.2007 18.9759 19.2644 18.824 19.2658 18.6653C19.2672 18.5065 19.2061 18.3535 19.0958 18.2393ZM5.38377 12.5057V11.4946H6.39488V12.5057H5.38377ZM5.33377 10.2835C5.02582 10.2835 4.73049 10.4058 4.51274 10.6236C4.29499 10.8413 4.17266 11.1367 4.17266 11.4446V12.5557C4.17266 12.8637 4.29499 13.159 4.51274 13.3767C4.73049 13.5945 5.02582 13.7168 5.33377 13.7168H6.44488C6.75282 13.7168 7.04816 13.5945 7.26591 13.3767C7.48366 13.159 7.60599 12.8637 7.60599 12.5557V11.4446C7.60599 11.1367 7.48366 10.8413 7.26591 10.6236C7.04816 10.4058 6.75282 10.2835 6.44488 10.2835H5.33377ZM9.82821 12.5057V11.4946H10.8393V12.5057H9.82821ZM9.77821 10.2835C9.47027 10.2835 9.17493 10.4058 8.95718 10.6236C8.73943 10.8413 8.6171 11.1367 8.6171 11.4446V12.5557C8.6171 12.8637 8.73943 13.159 8.95718 13.3767C9.17493 13.5945 9.47027 13.7168 9.77821 13.7168H10.8893C11.1973 13.7168 11.4926 13.5945 11.7104 13.3767C11.9281 13.159 12.0504 12.8637 12.0504 12.5557V11.4446C12.0504 11.1367 11.9281 10.8413 11.7104 10.6236C11.4926 10.4058 11.1973 10.2835 10.8893 10.2835H9.77821ZM14.2727 12.5057V11.4946H15.2838V12.5057H14.2727ZM14.2227 10.2835C13.9147 10.2835 13.6194 10.4058 13.4016 10.6236C13.1839 10.8413 13.0615 11.1367 13.0615 11.4446V12.5557C13.0615 12.8637 13.1839 13.159 13.4016 13.3767C13.6194 13.5945 13.9147 13.7168 14.2227 13.7168H15.3338C15.6417 13.7168 15.937 13.5945 16.1548 13.3767C16.3725 13.159 16.4949 12.8637 16.4949 12.5557V11.4446C16.4949 11.1367 16.3725 10.8413 16.1548 10.6236C15.937 10.4058 15.6417 10.2835 15.3338 10.2835H14.2227ZM5.38377 16.9502V15.9391H6.39488V16.9502H5.38377ZM5.33377 14.7279C5.02582 14.7279 4.73049 14.8503 4.51274 15.068C4.29499 15.2858 4.17266 15.5811 4.17266 15.8891V17.0002C4.17266 17.3081 4.29499 17.6034 4.51274 17.8212C4.73049 18.0389 5.02582 18.1613 5.33377 18.1613H6.44488C6.75282 18.1613 7.04816 18.0389 7.26591 17.8212C7.48366 17.6034 7.60599 17.3081 7.60599 17.0002V15.8891C7.60599 15.5811 7.48366 15.2858 7.26591 15.068C7.04816 14.8503 6.75282 14.7279 6.44488 14.7279H5.33377ZM9.82821 16.9502V15.9391H10.8393V16.9502H9.82821ZM9.77821 14.7279C9.47027 14.7279 9.17493 14.8503 8.95718 15.068C8.73943 15.2858 8.6171 15.5811 8.6171 15.8891V17.0002C8.6171 17.3081 8.73943 17.6034 8.95718 17.8212C9.17493 18.0389 9.47027 18.1613 9.77821 18.1613H10.8893C11.1973 18.1613 11.4926 18.0389 11.7104 17.8212C11.9281 17.6034 12.0504 17.3081 12.0504 17.0002V15.8891C12.0504 15.5811 11.9281 15.2858 11.7104 15.068C11.4926 14.8503 11.1973 14.7279 10.8893 14.7279H9.77821Z" fill="#14074D" stroke="black" stroke-width="0.1"/>
<path d="M6.44444 4.82761H6.49444V4.77761V3.6665V3.6165H6.44444H3.66667C3.21138 3.6165 2.77474 3.79737 2.4528 4.1193C2.13086 4.44124 1.95 4.87788 1.95 5.33317V18.6665C1.95 19.1218 2.13086 19.5584 2.4528 19.8804C2.77474 20.2023 3.21138 20.3832 3.66667 20.3832H14.9194H15.0153L14.9604 20.3045C14.7266 19.9696 14.5479 19.5993 14.4313 19.2078L14.4206 19.1721H14.3833H3.66667C3.53258 19.1721 3.40399 19.1188 3.30918 19.024C3.21437 18.9292 3.16111 18.8006 3.16111 18.6665V5.33317C3.16111 5.19909 3.21437 5.0705 3.30918 4.97569C3.404 4.88088 3.53258 4.82761 3.66667 4.82761H6.44444ZM17.5056 14.2609V14.3186L17.5626 14.3104C17.9264 14.2584 18.2958 14.2584 18.6596 14.3104L18.7167 14.3186V14.2609V5.33317C18.7167 4.87788 18.5358 4.44124 18.2139 4.1193C17.8919 3.79737 17.4553 3.6165 17 3.6165H15.3333H15.2833V3.6665V4.77761V4.82761H15.3333H17C17.1341 4.82761 17.2627 4.88088 17.3575 4.97569C17.4523 5.0705 17.5056 5.19909 17.5056 5.33317V14.2609ZM7.50556 4.77761V4.82761H7.55556H13.4239H13.4739V4.77761V3.6665V3.6165H13.4239H7.55556H7.50556V3.6665V4.77761Z" fill="#14074D" stroke="black" stroke-width="0.1"/>
<path d="M18.6649 8.71678H18.7149V8.66678V7.55566V7.50566H18.6649H3.10938H3.05937V7.55566V8.66678V8.71678H3.10938H18.6649Z" fill="#14074D" stroke="black" stroke-width="0.1"/>
<path d="M5.45939 2.12736C5.34583 2.24093 5.28203 2.39495 5.28203 2.55556V5.33333C5.28203 5.49394 5.34583 5.64796 5.45939 5.76153C5.57296 5.87509 5.72698 5.93889 5.88759 5.93889C6.04819 5.93889 6.20222 5.87509 6.31578 5.76153C6.42934 5.64796 6.49314 5.49394 6.49314 5.33333V2.55556C6.49314 2.39495 6.42934 2.24093 6.31578 2.12736C6.20222 2.0138 6.04819 1.95 5.88759 1.95C5.72698 1.95 5.57296 2.0138 5.45939 2.12736ZM13.2372 2.12736C13.1236 2.24093 13.0598 2.39495 13.0598 2.55556V5.33333C13.0598 5.49394 13.1236 5.64796 13.2372 5.76153C13.3507 5.87509 13.5048 5.93889 13.6654 5.93889C13.826 5.93889 13.98 5.87509 14.0936 5.76153C14.2071 5.64796 14.2709 5.49394 14.2709 5.33333V2.55556C14.2709 2.39495 14.2071 2.24093 14.0936 2.12736C13.98 2.0138 13.826 1.95 13.6654 1.95C13.5048 1.95 13.3507 2.0138 13.2372 2.12736Z" fill="#14074D" stroke="black" stroke-width="0.1"/>
</svg>
