<svg width="30" height="24" viewBox="0 0 30 24" fill="none" xmlns="http://www.w3.org/2000/svg">
<path d="M14.1667 4.16667C14.1667 6.0625 11.6285 9.44097 10.5139 10.8021C10.2465 11.1667 9.75347 11.1667 9.48611 10.8021C8.37153 9.44097 5.83333 6.0625 5.83333 4.16667C5.83333 1.86563 7.69792 0 10 0C12.3021 0 14.1667 1.86563 14.1667 4.16667ZM10 5.27778C10.7674 5.27778 11.3889 4.65625 11.3889 3.88889C11.3889 3.12188 10.7674 2.5 10 2.5C9.23264 2.5 8.61111 3.12188 8.61111 3.88889C8.61111 4.65625 9.23264 5.27778 10 5.27778ZM14.7778 6.24306C14.7951 6.20139 14.8125 6.15972 14.8299 6.11458L18.8576 4.50347C19.4062 4.28472 20 4.6875 20 5.27778V14.6806C20 15.0208 19.7917 15.3264 19.4757 15.4549L14.4444 17.4653V6.95833C14.566 6.71875 14.6771 6.48264 14.7778 6.24306ZM5.22222 6.24306C5.32292 6.48264 5.43403 6.71875 5.55556 6.95833V15.6875L1.14271 17.4549C0.595486 17.6424 0 17.2708 0 16.6806V7.27778C0 6.9375 0.207465 6.60069 0.523958 6.50347L4.77778 4.80208C4.86111 5.29514 5.03125 5.78472 5.22222 6.24306ZM11.3819 11.4965C11.8646 10.9236 12.6215 9.94097 13.3333 8.85417V17.5104L6.66667 15.6042V8.85417C7.37847 9.94097 8.13542 10.9236 8.61806 11.4965C9.32986 12.4167 10.6701 12.4167 11.3819 11.4965Z" fill="#4CAF50"/>
<path fill-rule="evenodd" clip-rule="evenodd" d="M15.0501 7.63654C15.2375 7.82406 15.3429 8.07837 15.3429 8.34354C15.3429 8.6087 15.2375 8.86301 15.0501 9.05054C14.4 9.70056 13.8843 10.4723 13.5325 11.3216C13.1807 12.1709 12.9996 13.0812 12.9996 14.0005C12.9996 14.9198 13.1807 15.8302 13.5325 16.6795C13.8843 17.5288 14.4 18.3005 15.0501 18.9505C15.1456 19.0428 15.2218 19.1531 15.2742 19.2751C15.3266 19.3971 15.3542 19.5284 15.3553 19.6611C15.3565 19.7939 15.3312 19.9256 15.2809 20.0485C15.2306 20.1714 15.1564 20.283 15.0625 20.3769C14.9686 20.4708 14.8569 20.5451 14.734 20.5954C14.6111 20.6456 14.4795 20.6709 14.3467 20.6698C14.2139 20.6686 14.0827 20.641 13.9607 20.5886C13.8387 20.5362 13.7283 20.46 13.6361 20.3645C12.8003 19.5288 12.1374 18.5367 11.6851 17.4447C11.2328 16.3528 11 15.1824 11 14.0005C11 12.8186 11.2328 11.6483 11.6851 10.5564C12.1374 9.46442 12.8003 8.47227 13.6361 7.63654C13.8236 7.44907 14.0779 7.34375 14.3431 7.34375C14.6082 7.34375 14.8626 7.44907 15.0501 7.63654ZM24.9501 7.63654C25.1376 7.44907 25.3919 7.34375 25.6571 7.34375C25.9222 7.34375 26.1766 7.44907 26.3641 7.63654C27.1998 8.47227 27.8628 9.46442 28.3151 10.5564C28.7674 11.6483 29.0002 12.8186 29.0002 14.0005C29.0002 15.1824 28.7674 16.3528 28.3151 17.4447C27.8628 18.5367 27.1998 19.5288 26.3641 20.3645C26.2718 20.46 26.1615 20.5362 26.0395 20.5886C25.9175 20.641 25.7863 20.6686 25.6535 20.6698C25.5207 20.6709 25.389 20.6456 25.2661 20.5954C25.1432 20.5451 25.0316 20.4708 24.9377 20.3769C24.8438 20.283 24.7695 20.1714 24.7193 20.0485C24.669 19.9256 24.6437 19.7939 24.6448 19.6611C24.646 19.5284 24.6736 19.3971 24.726 19.2751C24.7784 19.1531 24.8546 19.0428 24.9501 18.9505C25.6002 18.3005 26.1158 17.5288 26.4677 16.6795C26.8195 15.8302 27.0006 14.9198 27.0006 14.0005C27.0006 13.0812 26.8195 12.1709 26.4677 11.3216C26.1158 10.4723 25.6002 9.70056 24.9501 9.05054C24.7626 8.86301 24.6573 8.6087 24.6573 8.34354C24.6573 8.07837 24.7626 7.82406 24.9501 7.63654ZM17.8791 10.4645C18.0665 10.6521 18.1719 10.9064 18.1719 11.1715C18.1719 11.4367 18.0665 11.691 17.8791 11.8785C17.6004 12.1571 17.3794 12.4879 17.2286 12.8519C17.0778 13.2159 17.0002 13.606 17.0002 14C17.0002 14.394 17.0778 14.7842 17.2286 15.1482C17.3794 15.5122 17.6004 15.843 17.8791 16.1215C17.9719 16.2144 18.0456 16.3247 18.0958 16.4461C18.146 16.5675 18.1718 16.6975 18.1718 16.8289C18.1717 16.9602 18.1458 17.0903 18.0955 17.2116C18.0452 17.333 17.9715 17.4432 17.8786 17.536C17.7857 17.6289 17.6754 17.7025 17.554 17.7527C17.4326 17.803 17.3026 17.8288 17.1712 17.8287C17.0399 17.8287 16.9098 17.8028 16.7885 17.7525C16.6672 17.7022 16.5569 17.6284 16.4641 17.5355C15.5267 16.5979 15.0001 15.3264 15.0001 14.0005C15.0001 12.6747 15.5267 11.4032 16.4641 10.4655C16.557 10.3726 16.6672 10.2988 16.7886 10.2485C16.91 10.1982 17.0402 10.1722 17.1716 10.1722C17.303 10.1722 17.4331 10.1982 17.5545 10.2485C17.6759 10.2988 17.7862 10.3726 17.8791 10.4655V10.4645ZM22.1211 10.4645C22.214 10.3716 22.3242 10.2978 22.4456 10.2475C22.567 10.1972 22.6972 10.1712 22.8286 10.1712C22.96 10.1712 23.0901 10.1972 23.2115 10.2475C23.3329 10.2978 23.4432 10.3716 23.5361 10.4645C24.0005 10.9288 24.3689 11.4801 24.6203 12.0868C24.8716 12.6935 25.001 13.3438 25.001 14.0005C25.001 14.6573 24.8716 15.3075 24.6203 15.9143C24.3689 16.521 24.0005 17.0722 23.5361 17.5365C23.3484 17.7242 23.0939 17.8296 22.8286 17.8296C22.5632 17.8296 22.3087 17.7242 22.1211 17.5365C21.9334 17.3489 21.828 17.0944 21.828 16.829C21.828 16.5637 21.9334 16.3092 22.1211 16.1215C22.6835 15.559 22.9994 14.796 22.9994 14.0005C22.9994 13.205 22.6835 12.4421 22.1211 11.8795C22.0281 11.7867 21.9543 11.6764 21.904 11.555C21.8537 11.4336 21.8278 11.3035 21.8278 11.172C21.8278 11.0406 21.8537 10.9105 21.904 10.7891C21.9543 10.6677 22.0281 10.5574 22.1211 10.4645ZM20.0001 13.0005C20.2653 13.0005 20.5196 13.1059 20.7072 13.2934C20.8947 13.481 21.0001 13.7353 21.0001 14.0005V14.0105C21.0001 14.2758 20.8947 14.5301 20.7072 14.7176C20.5196 14.9052 20.2653 15.0105 20.0001 15.0105C19.7349 15.0105 19.4805 14.9052 19.293 14.7176C19.1054 14.5301 19.0001 14.2758 19.0001 14.0105V14.0005C19.0001 13.7353 19.1054 13.481 19.293 13.2934C19.4805 13.1059 19.7349 13.0005 20.0001 13.0005Z" fill="#E22525"/>
</svg>
