<svg width="24" height="24" viewBox="0 0 24 24" fill="none" xmlns="http://www.w3.org/2000/svg">
<path d="M21.9988 12.8075C21.9836 12.3129 21.7763 11.844 21.4216 11.5018L14.1329 4.3454C14.0236 4.23548 13.8938 4.14839 13.751 4.08912C13.6082 4.02985 13.4553 3.99957 13.3008 4H12L20.5469 12.4103L20.5505 12.4138C20.6696 12.5276 20.7395 12.6842 20.7449 12.8496C20.7504 13.0149 20.691 13.1758 20.5796 13.2974L14.4409 20.1552L15.3025 21L21.5071 14.1509C21.8396 13.7855 22.0162 13.303 21.9988 12.8075V12.8075Z" fill="#14074D" stroke="#14074D" stroke-width="0.4"/>
<path d="M18.9442 13.0491C19.0034 12.8873 19.0158 12.7122 18.9799 12.5438C18.944 12.3753 18.8614 12.2202 18.7412 12.096C18.7371 12.0917 18.7335 12.0871 18.7293 12.0829L11.083 4.36469L11.0793 4.36106C10.9643 4.24624 10.8274 4.1552 10.6767 4.09322C10.526 4.03125 10.3644 3.99956 10.2013 4H4.71486C4.26021 4.00051 3.82433 4.18004 3.50284 4.49919C3.18135 4.81834 3.00051 5.25106 3 5.70241V11.1378C3.00028 11.3057 3.03498 11.4718 3.10199 11.6259C3.169 11.7801 3.26691 11.9191 3.38978 12.0345L11.5508 19.7465L11.5538 19.7493C11.7259 19.9107 11.9538 20.0005 12.1906 20C12.2021 20 12.2138 19.9998 12.2255 19.9993C12.3145 19.9962 12.4025 19.9804 12.487 19.9525C12.6364 19.9031 12.7706 19.8166 12.8769 19.7014L18.7534 13.36C18.8371 13.2699 18.9019 13.1643 18.9442 13.0491V13.0491ZM12.1769 18.6362L4.24469 11.1404L4.2417 11.1376V5.70241C4.24184 5.57788 4.29174 5.45848 4.38044 5.37042C4.46915 5.28236 4.58942 5.23283 4.71486 5.23268H10.2012L17.6398 12.7412L12.1769 18.6362Z" fill="#14074D" stroke="#14074D" stroke-width="0.4"/>
<path d="M8 7C7.60444 7 7.21776 7.1173 6.88886 7.33706C6.55996 7.55682 6.30362 7.86918 6.15224 8.23463C6.00087 8.60009 5.96126 9.00222 6.03843 9.39018C6.1156 9.77814 6.30608 10.1345 6.58579 10.4142C6.86549 10.6939 7.22186 10.8844 7.60982 10.9616C7.99778 11.0387 8.39991 10.9991 8.76537 10.8478C9.13082 10.6964 9.44318 10.44 9.66294 10.1111C9.8827 9.78224 10 9.39556 10 9C9.9994 8.46975 9.78849 7.96139 9.41355 7.58645C9.03861 7.21151 8.53025 7.0006 8 7V7ZM8 9.76923C7.84786 9.76923 7.69914 9.72412 7.57264 9.63959C7.44614 9.55507 7.34755 9.43493 7.28932 9.29437C7.2311 9.15381 7.21587 8.99915 7.24555 8.84993C7.27523 8.70071 7.34849 8.56365 7.45607 8.45607C7.56365 8.34849 7.70071 8.27523 7.84993 8.24555C7.99915 8.21587 8.15381 8.2311 8.29437 8.28932C8.43493 8.34754 8.55507 8.44614 8.63959 8.57264C8.72412 8.69914 8.76923 8.84786 8.76923 9C8.769 9.20394 8.68788 9.39946 8.54367 9.54367C8.39946 9.68788 8.20394 9.769 8 9.76923V9.76923Z" fill="#14074D" stroke="#14074D" stroke-width="0.4"/>
</svg>
