<svg width="20" height="18" viewBox="0 0 20 18" fill="none" xmlns="http://www.w3.org/2000/svg">
<g clip-path="url(#clip0_302_891)">
<path d="M14.1667 4.16667C14.1667 6.0625 11.6285 9.44097 10.5139 10.8021C10.2465 11.1667 9.75347 11.1667 9.48611 10.8021C8.37153 9.44097 5.83333 6.0625 5.83333 4.16667C5.83333 1.86563 7.69792 0 10 0C12.3021 0 14.1667 1.86563 14.1667 4.16667ZM10 5.27778C10.7674 5.27778 11.3889 4.65625 11.3889 3.88889C11.3889 3.12188 10.7674 2.5 10 2.5C9.23264 2.5 8.61111 3.12188 8.61111 3.88889C8.61111 4.65625 9.23264 5.27778 10 5.27778ZM14.7778 6.24306C14.7951 6.20139 14.8125 6.15972 14.8299 6.11458L18.8576 4.50347C19.4062 4.28472 20 4.6875 20 5.27778V14.6806C20 15.0208 19.7917 15.3264 19.4757 15.4549L14.4444 17.4653V6.95833C14.566 6.71875 14.6771 6.48264 14.7778 6.24306ZM5.22222 6.24306C5.32292 6.48264 5.43403 6.71875 5.55556 6.95833V15.6875L1.14271 17.4549C0.595486 17.6424 0 17.2708 0 16.6806V7.27778C0 6.9375 0.207465 6.60069 0.523958 6.50347L4.77778 4.80208C4.86111 5.29514 5.03125 5.78472 5.22222 6.24306ZM11.3819 11.4965C11.8646 10.9236 12.6215 9.94097 13.3333 8.85417V17.5104L6.66667 15.6042V8.85417C7.37847 9.94097 8.13542 10.9236 8.61806 11.4965C9.32986 12.4167 10.6701 12.4167 11.3819 11.4965Z" fill="#4CAF50"/>
</g>
<defs>
<clipPath id="clip0_302_891">
<rect width="20" height="17.7778" fill="white"/>
</clipPath>
</defs>
</svg>
