<svg width="15" height="15" viewBox="0 0 15 15" fill="none" xmlns="http://www.w3.org/2000/svg">
<path fill-rule="evenodd" clip-rule="evenodd" d="M12.0832 14.1666C12.6357 14.1666 13.1656 13.9471 13.5563 13.5564C13.947 13.1657 14.1665 12.6358 14.1665 12.0833C14.1665 11.5308 13.947 11.0009 13.5563 10.6102C13.1656 10.2195 12.6357 9.99996 12.0832 9.99996C11.5306 9.99996 11.0007 10.2195 10.61 10.6102C10.2193 11.0009 9.99984 11.5308 9.99984 12.0833C9.99984 12.6358 10.2193 13.1657 10.61 13.5564C11.0007 13.9471 11.5306 14.1666 12.0832 14.1666ZM12.0832 15C12.8567 15 13.5986 14.6927 14.1456 14.1457C14.6925 13.5987 14.9998 12.8568 14.9998 12.0833C14.9998 11.3097 14.6925 10.5679 14.1456 10.0209C13.5986 9.47392 12.8567 9.16663 12.0832 9.16663C11.3096 9.16663 10.5678 9.47392 10.0208 10.0209C9.47379 10.5679 9.1665 11.3097 9.1665 12.0833C9.1665 12.8568 9.47379 13.5987 10.0208 14.1457C10.5678 14.6927 11.3096 15 12.0832 15Z" fill="#6F7287"/>
<path fill-rule="evenodd" clip-rule="evenodd" d="M12.0832 10.625C12.1937 10.625 12.2997 10.6689 12.3778 10.747C12.4559 10.8252 12.4998 10.9312 12.4998 11.0417V11.9108L12.7944 12.2054C12.8703 12.284 12.9123 12.3893 12.9114 12.4985C12.9104 12.6078 12.8666 12.7123 12.7893 12.7895C12.7121 12.8668 12.6076 12.9106 12.4983 12.9115C12.3891 12.9125 12.2838 12.8705 12.2053 12.7946L11.6665 12.2558V11.0417C11.6665 10.9312 11.7104 10.8252 11.7885 10.747C11.8667 10.6689 11.9727 10.625 12.0832 10.625ZM3.33317 7.08333H2.49984V7.91667H3.33317V7.08333ZM2.49984 6.25C2.27882 6.25 2.06686 6.3378 1.91058 6.49408C1.7543 6.65036 1.6665 6.86232 1.6665 7.08333V7.91667C1.6665 8.13768 1.7543 8.34964 1.91058 8.50592C2.06686 8.6622 2.27882 8.75 2.49984 8.75H3.33317C3.55418 8.75 3.76615 8.6622 3.92243 8.50592C4.07871 8.34964 4.1665 8.13768 4.1665 7.91667V7.08333C4.1665 6.86232 4.07871 6.65036 3.92243 6.49408C3.76615 6.3378 3.55418 6.25 3.33317 6.25H2.49984ZM6.6665 7.08333H5.83317V7.91667H6.6665V7.08333ZM5.83317 6.25C5.61216 6.25 5.4002 6.3378 5.24392 6.49408C5.08764 6.65036 4.99984 6.86232 4.99984 7.08333V7.91667C4.99984 8.13768 5.08764 8.34964 5.24392 8.50592C5.4002 8.6622 5.61216 8.75 5.83317 8.75H6.6665C6.88752 8.75 7.09948 8.6622 7.25576 8.50592C7.41204 8.34964 7.49984 8.13768 7.49984 7.91667V7.08333C7.49984 6.86232 7.41204 6.65036 7.25576 6.49408C7.09948 6.3378 6.88752 6.25 6.6665 6.25H5.83317ZM9.99984 7.08333H9.1665V7.91667H9.99984V7.08333ZM9.1665 6.25C8.94549 6.25 8.73353 6.3378 8.57725 6.49408C8.42097 6.65036 8.33317 6.86232 8.33317 7.08333V7.91667C8.33317 8.13768 8.42097 8.34964 8.57725 8.50592C8.73353 8.6622 8.94549 8.75 9.1665 8.75H9.99984C10.2209 8.75 10.4328 8.6622 10.5891 8.50592C10.7454 8.34964 10.8332 8.13768 10.8332 7.91667V7.08333C10.8332 6.86232 10.7454 6.65036 10.5891 6.49408C10.4328 6.3378 10.2209 6.25 9.99984 6.25H9.1665ZM3.33317 10.4167H2.49984V11.25H3.33317V10.4167ZM2.49984 9.58333C2.27882 9.58333 2.06686 9.67113 1.91058 9.82741C1.7543 9.98369 1.6665 10.1957 1.6665 10.4167V11.25C1.6665 11.471 1.7543 11.683 1.91058 11.8393C2.06686 11.9955 2.27882 12.0833 2.49984 12.0833H3.33317C3.55418 12.0833 3.76615 11.9955 3.92243 11.8393C4.07871 11.683 4.1665 11.471 4.1665 11.25V10.4167C4.1665 10.1957 4.07871 9.98369 3.92243 9.82741C3.76615 9.67113 3.55418 9.58333 3.33317 9.58333H2.49984ZM6.6665 10.4167H5.83317V11.25H6.6665V10.4167ZM5.83317 9.58333C5.61216 9.58333 5.4002 9.67113 5.24392 9.82741C5.08764 9.98369 4.99984 10.1957 4.99984 10.4167V11.25C4.99984 11.471 5.08764 11.683 5.24392 11.8393C5.4002 11.9955 5.61216 12.0833 5.83317 12.0833H6.6665C6.88752 12.0833 7.09948 11.9955 7.25576 11.8393C7.41204 11.683 7.49984 11.471 7.49984 11.25V10.4167C7.49984 10.1957 7.41204 9.98369 7.25576 9.82741C7.09948 9.67113 6.88752 9.58333 6.6665 9.58333H5.83317Z" fill="#6F7287"/>
<path fill-rule="evenodd" clip-rule="evenodd" d="M0.833333 2.5C0.833333 2.38949 0.877232 2.28351 0.955372 2.20537C1.03351 2.12723 1.13949 2.08333 1.25 2.08333H3.33333V1.25H1.25C0.918479 1.25 0.600537 1.3817 0.366117 1.61612C0.131696 1.85054 0 2.16848 0 2.5V12.5C0 12.8315 0.131696 13.1495 0.366117 13.3839C0.600537 13.6183 0.918479 13.75 1.25 13.75H9.68958C9.51189 13.4955 9.37615 13.2141 9.2875 12.9167H1.25C1.13949 12.9167 1.03351 12.8728 0.955372 12.7946C0.877232 12.7165 0.833333 12.6105 0.833333 12.5V2.5ZM11.6667 9.19583C11.943 9.1563 12.2236 9.1563 12.5 9.19583V2.5C12.5 2.16848 12.3683 1.85054 12.1339 1.61612C11.8995 1.3817 11.5815 1.25 11.25 1.25H10V2.08333H11.25C11.3605 2.08333 11.4665 2.12723 11.5446 2.20537C11.6228 2.28351 11.6667 2.38949 11.6667 2.5V9.19583ZM4.16667 2.08333H8.56792V1.25H4.16667V2.08333Z" fill="#6F7287"/>
<path fill-rule="evenodd" clip-rule="evenodd" d="M12.5002 4.99996H0.833496V4.16663H12.5002V4.99996Z" fill="#6F7287"/>
<path d="M2.5 0.416667C2.5 0.30616 2.5439 0.200179 2.62204 0.122039C2.70018 0.0438988 2.80616 0 2.91667 0C3.02717 0 3.13315 0.0438988 3.21129 0.122039C3.28943 0.200179 3.33333 0.30616 3.33333 0.416667V2.5C3.33333 2.61051 3.28943 2.71649 3.21129 2.79463C3.13315 2.87277 3.02717 2.91667 2.91667 2.91667C2.80616 2.91667 2.70018 2.87277 2.62204 2.79463C2.5439 2.71649 2.5 2.61051 2.5 2.5V0.416667ZM8.33333 0.416667C8.33333 0.30616 8.37723 0.200179 8.45537 0.122039C8.53351 0.0438988 8.63949 0 8.75 0C8.86051 0 8.96649 0.0438988 9.04463 0.122039C9.12277 0.200179 9.16667 0.30616 9.16667 0.416667V2.5C9.16667 2.61051 9.12277 2.71649 9.04463 2.79463C8.96649 2.87277 8.86051 2.91667 8.75 2.91667C8.63949 2.91667 8.53351 2.87277 8.45537 2.79463C8.37723 2.71649 8.33333 2.61051 8.33333 2.5V0.416667Z" fill="#6F7287"/>
</svg>
