<svg width="17" height="17" viewBox="0 0 17 17" fill="none" xmlns="http://www.w3.org/2000/svg">
<g clip-path="url(#clip0_1524_10783)">
<path fill-rule="evenodd" clip-rule="evenodd" d="M8.23828 2.03711C6.72099 2.03711 5.26752 2.64699 4.19716 3.72991C3.12707 4.81255 2.52734 6.27921 2.52734 7.80682C2.52734 9.14498 2.82149 10.0875 3.6182 11.0932C3.62376 11.1002 3.62945 11.1071 3.63528 11.1139L7.70666 15.8668C7.83965 16.022 8.03385 16.1114 8.23828 16.1114C8.4427 16.1114 8.6369 16.022 8.76989 15.8668L12.8413 11.1139C12.8471 11.1071 12.8528 11.1002 12.8584 11.0932C13.6551 10.0875 13.9492 9.14498 13.9492 7.80682C13.9492 6.27921 13.3495 4.81255 12.2794 3.72991C11.209 2.64699 9.75556 2.03711 8.23828 2.03711ZM5.19286 4.71407C6.00197 3.89548 7.0976 3.43711 8.23828 3.43711C9.37895 3.43711 10.4746 3.89548 11.2837 4.71407C12.0931 5.53294 12.5492 6.64528 12.5492 7.80682C12.5492 8.86168 12.3417 9.48736 11.769 10.2136L8.23828 14.3354L4.7075 10.2136C4.13484 9.48736 3.92734 8.86168 3.92734 7.80682C3.92734 6.64528 4.38349 5.53294 5.19286 4.71407ZM7.05918 7.80682C7.05918 7.13573 7.59475 6.60568 8.23828 6.60568C8.8818 6.60568 9.41737 7.13573 9.41737 7.80682C9.41737 8.47791 8.8818 9.00796 8.23828 9.00796C7.59475 9.00796 7.05918 8.47791 7.05918 7.80682ZM8.23828 5.20568C6.8062 5.20568 5.65918 6.37797 5.65918 7.80682C5.65918 9.23567 6.8062 10.408 8.23828 10.408C9.67035 10.408 10.8174 9.23567 10.8174 7.80682C10.8174 6.37797 9.67035 5.20568 8.23828 5.20568Z" fill="#545353"/>
</g>
<defs>
<clipPath id="clip0_1524_10783">
<rect width="16.035" height="16.0096" fill="white" transform="translate(0.0195312 0.736328)"/>
</clipPath>
</defs>
</svg>
