<svg width="24" height="24" viewBox="0 0 24 24" fill="none" xmlns="http://www.w3.org/2000/svg">
<path d="M12.0008 12.9C13.4919 12.9 14.7008 11.6912 14.7008 10.2C14.7008 8.70883 13.4919 7.5 12.0008 7.5C10.5096 7.5 9.30078 8.70883 9.30078 10.2C9.30078 11.6912 10.5096 12.9 12.0008 12.9Z" stroke="#14074D" stroke-width="1.7" stroke-linecap="round" stroke-linejoin="round"/>
<path d="M12.0008 3C10.0912 3 8.25987 3.75857 6.90961 5.10883C5.55935 6.45909 4.80078 8.29044 4.80078 10.2C4.80078 11.9028 5.16258 13.017 6.15078 14.25L12.0008 21L17.8508 14.25C18.839 13.017 19.2008 11.9028 19.2008 10.2C19.2008 8.29044 18.4422 6.45909 17.092 5.10883C15.7417 3.75857 13.9103 3 12.0008 3V3Z" stroke="#14074D" stroke-width="1.6" stroke-linecap="round" stroke-linejoin="round"/>
</svg>
