<svg width="16" height="17" viewBox="0 0 16 17" fill="none" xmlns="http://www.w3.org/2000/svg">
<path d="M14.2759 8.39936L8.27594 2.39936C8.02595 2.15142 7.68803 2.01241 7.33594 2.0127H2.66927C2.31565 2.0127 1.97651 2.15317 1.72646 2.40322C1.47641 2.65327 1.33594 2.99241 1.33594 3.34603V8.0127C1.3358 8.18864 1.37048 8.36287 1.43799 8.52534C1.5055 8.68782 1.60449 8.83532 1.72927 8.95936L7.72927 14.9594C7.97926 15.2073 8.31717 15.3463 8.66927 15.346C9.02232 15.3445 9.36037 15.2031 9.60927 14.9527L14.2759 10.286C14.5263 10.0371 14.6678 9.69908 14.6693 9.34603C14.6694 9.17009 14.6347 8.99586 14.5672 8.83338C14.4997 8.67091 14.4007 8.5234 14.2759 8.39936ZM8.66927 14.0127L2.66927 8.0127V3.34603H7.33594L13.3359 9.34603M4.33594 4.0127C4.53372 4.0127 4.72706 4.07134 4.89151 4.18123C5.05596 4.29111 5.18413 4.44729 5.25982 4.63001C5.3355 4.81274 5.35531 5.0138 5.31672 5.20779C5.27814 5.40177 5.1829 5.57995 5.04304 5.7198C4.90319 5.85965 4.72501 5.9549 4.53103 5.99348C4.33705 6.03207 4.13598 6.01226 3.95325 5.93658C3.77053 5.86089 3.61435 5.73271 3.50447 5.56827C3.39459 5.40382 3.33594 5.21048 3.33594 5.0127C3.33594 4.74748 3.44129 4.49313 3.62883 4.30559C3.81637 4.11805 4.07072 4.0127 4.33594 4.0127V4.0127Z" fill="black"/>
</svg>
