<svg width="17" height="17" viewBox="0 0 17 17" fill="none" xmlns="http://www.w3.org/2000/svg">
<path d="M8.5 0C3.80658 0 0 3.80658 0 8.5C0 13.1934 3.80658 17 8.5 17C13.1934 17 17 13.1934 17 8.5C17 3.80658 13.1955 0 8.5 0ZM4.19333 8.78546L4.22946 8.72808L6.44158 5.26858C6.44899 5.25721 6.45932 5.24804 6.47149 5.24202C6.48365 5.236 6.49721 5.23336 6.51074 5.23438C6.52428 5.23539 6.53729 5.24002 6.54843 5.24778C6.55956 5.25554 6.56841 5.26615 6.57404 5.2785C6.94237 6.10654 7.26254 7.13646 7.11238 7.7775C7.05004 8.041 6.87508 8.398 6.67746 8.72808C6.65211 8.77637 6.62445 8.82341 6.59458 8.86904C6.58743 8.87922 6.57786 8.88746 6.56673 8.89303C6.5556 8.89859 6.54327 8.9013 6.53083 8.90092H4.25921C4.24565 8.90113 4.23229 8.89766 4.22054 8.89089C4.20879 8.88411 4.1991 8.87428 4.19249 8.86244C4.18588 8.8506 4.1826 8.83719 4.183 8.82364C4.18339 8.81008 4.18746 8.79689 4.19475 8.78546H4.19333ZM14.0491 9.97546C14.0493 9.99058 14.045 10.0054 14.0368 10.0181C14.0286 10.0309 14.0169 10.0409 14.003 10.047C13.8309 10.12 13.2451 10.3905 13.0015 10.7284C12.3795 11.594 11.905 12.8322 10.8425 12.8322H6.41254C6.03852 12.8316 5.66827 12.7574 5.32295 12.6136C4.97764 12.4699 4.66403 12.2596 4.40005 11.9946C4.13607 11.7296 3.92688 11.4152 3.78446 11.0694C3.64204 10.7235 3.56916 10.353 3.57 9.979V9.928C3.57 9.88692 3.604 9.85292 3.6465 9.85292H6.11504C6.16463 9.85292 6.20004 9.89754 6.1965 9.94642C6.17808 10.1065 6.20854 10.2715 6.28504 10.421C6.43096 10.7185 6.73554 10.9041 7.0635 10.9041H8.28608V9.94996H7.07625C7.06207 9.94981 7.04821 9.94579 7.03614 9.93834C7.02408 9.9309 7.01428 9.9203 7.00779 9.90769C7.00131 9.89508 6.99838 9.88095 6.99934 9.8668C7.00029 9.85265 7.00509 9.83904 7.01321 9.82742L7.05783 9.76367C7.17117 9.60004 7.33479 9.34858 7.49771 9.061C7.60821 8.86692 7.71588 8.66008 7.80229 8.45183C7.81929 8.415 7.83275 8.37604 7.84833 8.3385C7.87171 8.27192 7.89579 8.20958 7.91279 8.14796C7.92947 8.0957 7.94483 8.04303 7.95883 7.99C7.99921 7.81292 8.01621 7.62592 8.01621 7.43254C8.01621 7.35604 8.01338 7.276 8.00629 7.20092C8.00275 7.11804 7.99213 7.03446 7.98221 6.95158C7.97429 6.87743 7.96294 6.80369 7.94821 6.73058C7.92915 6.61927 7.90599 6.50869 7.87879 6.39908L7.86888 6.35658C7.84762 6.28008 7.82921 6.20783 7.80512 6.13204C7.73768 5.89929 7.66016 5.66957 7.57279 5.44354C7.54235 5.35852 7.5088 5.27464 7.47221 5.19208C7.42121 5.066 7.36879 4.95196 7.32133 4.845C7.29772 4.79918 7.27551 4.75264 7.25475 4.70546C7.23171 4.65456 7.20738 4.60425 7.18179 4.55458C7.16479 4.51704 7.14425 4.48092 7.13079 4.44692L6.98133 4.17208C6.96079 4.13454 6.99479 4.0885 7.03587 4.10054L7.97087 4.35342H7.97796L8.1005 4.38883L8.2365 4.42708L8.28608 4.44054V3.88592C8.28608 3.61746 8.5 3.4 8.76704 3.4C8.8301 3.39983 8.89254 3.41242 8.9506 3.43701C9.00867 3.4616 9.06116 3.49768 9.10492 3.54308C9.19536 3.6343 9.24625 3.75746 9.24658 3.88592V4.71042L9.34646 4.73804C9.35354 4.74158 9.36204 4.74512 9.36842 4.75008C9.3925 4.76708 9.42792 4.794 9.47254 4.828C9.50796 4.85492 9.5455 4.88892 9.58942 4.92504C9.72929 5.039 9.86491 5.15808 9.996 5.28204C10.1476 5.423 10.3176 5.58804 10.4805 5.7715C10.5265 5.82392 10.5705 5.87492 10.6165 5.93158C10.6604 5.98754 10.71 6.04208 10.7511 6.09592C10.807 6.16958 10.8644 6.24608 10.9175 6.32542C10.9409 6.36296 10.97 6.40192 10.9919 6.43946C11.0599 6.54004 11.118 6.64346 11.174 6.74758C11.198 6.79504 11.2214 6.84746 11.242 6.89846C11.305 7.038 11.3546 7.17896 11.385 7.32204C11.3951 7.35241 11.402 7.38375 11.4056 7.41554V7.42263C11.4155 7.463 11.419 7.50762 11.4226 7.55296C11.4425 7.76232 11.4169 7.97352 11.3475 8.17204C11.3255 8.23154 11.305 8.29246 11.2781 8.35196C11.225 8.47237 11.164 8.59492 11.0911 8.70754C11.067 8.75004 11.038 8.79396 11.011 8.83646C10.9806 8.88108 10.948 8.92358 10.9211 8.96396C10.8821 9.0176 10.8413 9.06981 10.7985 9.1205C10.761 9.1715 10.7235 9.2225 10.681 9.26854C10.6236 9.33796 10.5676 9.40312 10.5074 9.46546C10.4734 9.50654 10.4366 9.54904 10.3969 9.58587C10.3601 9.62838 10.3204 9.66592 10.2864 9.69992C10.2269 9.75942 10.1802 9.80404 10.1391 9.843L10.042 9.92942C10.0285 9.94298 10.0102 9.95062 9.99104 9.95067H9.24658V10.9041H10.183C10.392 10.9041 10.591 10.8304 10.7525 10.693C10.807 10.6455 11.0465 10.438 11.3305 10.1249C11.3398 10.1143 11.3522 10.1068 11.3659 10.1037L13.9513 9.35496C13.9627 9.35168 13.9746 9.35107 13.9863 9.35318C13.9979 9.35529 14.0089 9.36007 14.0183 9.36714C14.0278 9.37421 14.0355 9.38337 14.0408 9.39392C14.0462 9.40446 14.049 9.4161 14.0491 9.42792V9.97546Z" fill="white"/>
</svg>
