<svg width="12" height="12" viewBox="0 0 12 12" fill="none" xmlns="http://www.w3.org/2000/svg">
<path d="M6 0C9.31339 0 12 2.68661 12 6C12 9.31339 9.31339 12 6 12C2.68661 12 0 9.31339 0 6C0 2.68661 2.68661 0 6 0ZM5.57143 8.89286C5.57143 8.95179 5.61964 9 5.67857 9H6.32143C6.38036 9 6.42857 8.95179 6.42857 8.89286V5.25C6.42857 5.19107 6.38036 5.14286 6.32143 5.14286H5.67857C5.61964 5.14286 5.57143 5.19107 5.57143 5.25V8.89286ZM6 4.28571C6.16822 4.28228 6.3284 4.21304 6.44616 4.09286C6.56391 3.97267 6.62987 3.81112 6.62987 3.64286C6.62987 3.4746 6.56391 3.31304 6.44616 3.19286C6.3284 3.07267 6.16822 3.00343 6 3C5.83178 3.00343 5.6716 3.07267 5.55384 3.19286C5.43609 3.31304 5.37013 3.4746 5.37013 3.64286C5.37013 3.81112 5.43609 3.97267 5.55384 4.09286C5.6716 4.21304 5.83178 4.28228 6 4.28571Z" fill="#989898"/>
</svg>
