<svg width="24" height="32" viewBox="0 0 24 32" fill="none" xmlns="http://www.w3.org/2000/svg">
<path d="M11.6364 0C5.2205 0 0 5.64 0 12.5714C0 19.2629 10.4272 31.144 10.8705 31.6457C11.0704 31.8731 11.3476 32 11.6364 32C11.6438 32 11.6522 32 11.6596 32C11.9569 32 12.2372 31.8503 12.4329 31.6091L16.0434 27.1406C20.8407 20.792 23.2727 15.8903 23.2727 12.5714C23.2727 5.64 18.0522 0 11.6364 0ZM11.6364 18.2857C8.71458 18.2857 6.34711 15.728 6.34711 12.5714C6.34711 9.41486 8.71458 6.85714 11.6364 6.85714C14.5581 6.85714 16.9256 9.41486 16.9256 12.5714C16.9256 15.728 14.5581 18.2857 11.6364 18.2857Z" fill="#A4A4A4"/>
</svg>
