<svg width="20" height="20" viewBox="0 0 20 20" fill="none" xmlns="http://www.w3.org/2000/svg">
<g clip-path="url(#clip0_882_166)">
<path d="M20 4.07013C19.2511 4.41556 18.4567 4.6423 17.6433 4.74281C18.4905 4.2141 19.1411 3.37687 19.4474 2.37932C18.642 2.87694 17.7608 3.22755 16.8419 3.416C16.0934 2.58576 15.027 2.06689 13.8468 2.06689C11.5807 2.06689 9.74344 3.97968 9.74344 6.33886C9.74344 6.67373 9.77977 6.99974 9.84969 7.31249C6.43953 7.13428 3.41609 5.43355 1.39227 2.84889C1.03914 3.47985 0.836797 4.21378 0.836797 4.99659C0.836797 6.47876 1.56125 7.7863 2.66219 8.55244C2.01059 8.53119 1.37332 8.34796 0.803594 8.01803C0.803359 8.03593 0.803359 8.05382 0.803359 8.0718C0.803359 10.1417 2.21773 11.8683 4.09477 12.2608C3.49054 12.4319 2.85674 12.4569 2.2418 12.334C2.76391 14.0312 4.2793 15.2663 6.07477 15.3009C4.67047 16.4466 2.90117 17.1296 0.978828 17.1296C0.647578 17.1296 0.321016 17.1094 0 17.0699C1.81586 18.282 3.97266 18.9893 6.28984 18.9893C13.8373 18.9893 17.9644 12.4796 17.9644 6.8343C17.9644 6.64901 17.9605 6.46477 17.9525 6.28159C18.7558 5.67698 19.4492 4.92811 20 4.07013" fill="#55ACEE"/>
</g>
<defs>
<clipPath id="clip0_882_166">
<rect width="20" height="17" fill="white" transform="translate(0 2)"/>
</clipPath>
</defs>
</svg>
