<svg width="20" height="20" viewBox="0 0 20 20" fill="none" xmlns="http://www.w3.org/2000/svg">
<path d="M18.1765 8.36775H17.5052V8.33317H10.0052V11.6665H14.7148C14.0277 13.6069 12.1815 14.9998 10.0052 14.9998C7.24396 14.9998 5.00521 12.7611 5.00521 9.99984C5.00521 7.23859 7.24396 4.99984 10.0052 4.99984C11.2798 4.99984 12.4394 5.48067 13.3223 6.26609L15.6794 3.909C14.191 2.52192 12.2002 1.6665 10.0052 1.6665C5.40312 1.6665 1.67188 5.39775 1.67188 9.99984C1.67188 14.6019 5.40312 18.3332 10.0052 18.3332C14.6073 18.3332 18.3385 14.6019 18.3385 9.99984C18.3385 9.44109 18.281 8.89567 18.1765 8.36775Z" fill="#FFC107"/>
<path d="M2.63281 6.12109L5.37073 8.129C6.11156 6.29484 7.90573 4.99984 10.0053 4.99984C11.2799 4.99984 12.4395 5.48067 13.3224 6.26609L15.6795 3.909C14.1911 2.52192 12.2003 1.6665 10.0053 1.6665C6.80448 1.6665 4.02865 3.47359 2.63281 6.12109Z" fill="#FF3D00"/>
<path d="M9.99687 18.3331C12.1494 18.3331 14.1052 17.5094 15.584 16.1698L13.0048 13.9873C12.14 14.645 11.0833 15.0007 9.99687 14.9998C7.82937 14.9998 5.98896 13.6177 5.29562 11.689L2.57812 13.7827C3.95729 16.4815 6.75812 18.3331 9.99687 18.3331Z" fill="#4CAF50"/>
<path d="M18.1712 8.36784H17.5V8.33325H10V11.6666H14.7096C14.3809 12.5901 13.7889 13.3971 13.0067 13.9878L13.0079 13.987L15.5871 16.1695C15.4046 16.3353 18.3333 14.1666 18.3333 9.99992C18.3333 9.44117 18.2758 8.89575 18.1712 8.36784Z" fill="#1976D2"/>
</svg>
