<svg width="18" height="18" viewBox="0 0 18 18" fill="none" xmlns="http://www.w3.org/2000/svg">
<path d="M16.4829 6.63406L11.6864 5.90408L9.54222 1.35214C9.48365 1.22751 9.38731 1.12662 9.26829 1.06529C8.96981 0.910986 8.6071 1.03957 8.45786 1.35214L6.3137 5.90408L1.51721 6.63406C1.38497 6.65384 1.26407 6.71912 1.1715 6.81803C1.05959 6.93848 0.997928 7.10053 1.00005 7.26856C1.00218 7.4366 1.06792 7.59688 1.18284 7.71418L4.65316 11.2572L3.83328 16.2602C3.81405 16.3766 3.82635 16.4963 3.86878 16.6057C3.91121 16.7151 3.98207 16.8099 4.07333 16.8793C4.16459 16.9488 4.27259 16.99 4.38509 16.9984C4.4976 17.0068 4.6101 16.982 4.70983 16.9269L9.00004 14.5648L13.2902 16.9269C13.4074 16.9922 13.5434 17.0139 13.6737 16.9902C14.0024 16.9308 14.2235 16.6044 14.1668 16.2602L13.3469 11.2572L16.8172 7.71418C16.9117 7.61724 16.974 7.49064 16.9929 7.35216C17.0439 7.00597 16.8135 6.68549 16.4829 6.63406V6.63406Z" stroke="white" stroke-width="1.3"/>
</svg>
