<svg width="80" height="80" viewBox="0 0 80 80" fill="none" xmlns="http://www.w3.org/2000/svg">
<path d="M23 44.3872C23 44.2056 22.9016 44.0383 22.7428 43.9501L17.7428 41.1723C17.588 41.0863 17.3991 41.0886 17.2464 41.1784C17.0937 41.2683 17 41.4322 17 41.6094V57.7116C17 57.8922 17.0974 58.0588 17.2549 58.1473L39.7549 70.8036C39.9071 70.8892 40.0929 70.8892 40.2451 70.8036L62.7451 58.1473C62.9026 58.0588 63 57.8922 63 57.7116V41.6094C63 41.4322 62.9063 41.2683 62.7536 41.1784C62.6009 41.0886 62.412 41.0863 62.2572 41.1723L57.2572 43.9501C57.0984 44.0383 57 44.2056 57 44.3872V54.4951L40 64.0576L23 54.4951V44.3872Z" fill="white" stroke="white" stroke-linejoin="round"/>
<path d="M40.2302 6.74362C40.0858 6.66879 39.9142 6.66879 39.7698 6.74362L4.76984 24.8917C4.60406 24.9777 4.5 25.1489 4.5 25.3356V29.6691C4.5 29.8506 4.59845 30.018 4.75718 30.1061L39.7572 49.55C39.9082 49.6339 40.0918 49.6339 40.2428 49.55L69.5 33.2966V46.2536C69.5 46.5297 69.7239 46.7536 70 46.7536H75C75.2761 46.7536 75.5 46.5297 75.5 46.2536V25.3356C75.5 25.1489 75.3959 24.9777 75.2302 24.8917L40.2302 6.74362ZM59.7572 31.8454L60 32.2825L59.7572 31.8454L40 42.8222L20.2428 31.8454L20.2428 31.8454L15.2428 29.0678L15.2428 29.0678L12.5914 27.5947L40 13.3829L67.4086 27.5947L64.7572 29.0678L59.7572 31.8454Z" fill="white" stroke="white" stroke-linejoin="round"/>
</svg>
