<svg width="60" height="60" viewBox="0 0 60 60" fill="none" xmlns="http://www.w3.org/2000/svg">
<g clip-path="url(#clip0_1376_4699)">
<path d="M44.4885 34.2825H44.5055C45.874 34.2825 47.2149 34.1571 48.5132 33.917L48.3794 33.9382C45.9441 42.6975 38.0391 49.0215 28.6573 49.0215H28.534H28.5404C17.1865 49.0087 7.98525 39.8075 7.97463 28.4536V28.4515C8.00125 23.9844 9.46945 19.6454 12.1607 16.08C14.852 12.5145 18.6226 9.91336 22.9112 8.66347L23.0579 8.62734C22.8256 9.90263 22.7104 11.1965 22.7136 12.4927V12.5076C22.7243 24.5308 32.4674 34.274 44.4885 34.2846H44.4906L44.4885 34.2825ZM28.5127 3.99909C28.2596 3.65753 27.9226 3.38709 27.5343 3.21398C27.146 3.04087 26.7196 2.97094 26.2964 3.01097H26.307C13.2276 4.26684 3.07225 15.1638 3 28.4493V28.4557C3.017 42.5551 14.4431 53.9812 28.5404 54.0003H28.67C41.9364 54.0003 52.8249 43.8301 53.9681 30.8612L53.9745 30.7656C54.0111 30.362 53.9483 29.9555 53.7916 29.5818C53.6349 29.208 53.3891 28.8783 53.0756 28.6215L53.0714 28.6172C52.755 28.3569 52.3788 28.1792 51.9767 28.1002C51.5747 28.0212 51.1593 28.0433 50.7679 28.1646L50.7849 28.1603L49.6714 28.4918C48.0014 29.0394 46.2544 29.3156 44.497 29.31H44.4821C40.0297 29.3049 35.761 27.5339 32.6127 24.3856C29.4643 21.2372 27.6933 16.9686 27.6883 12.5161V12.4778C27.6883 10.2891 28.109 8.19809 28.874 6.28347L28.8336 6.39609C28.9899 5.99989 29.0417 5.57015 28.984 5.14815C28.9263 4.72616 28.7611 4.32608 28.5042 3.98634L28.5085 3.99272L28.5127 3.99909Z" fill="white"/>
</g>
<defs>
<clipPath id="clip0_1376_4699">
<rect width="51" height="51" fill="white" transform="translate(3 3)"/>
</clipPath>
</defs>
</svg>
