<svg width="80" height="80" viewBox="0 0 80 80" fill="none" xmlns="http://www.w3.org/2000/svg">
<path d="M39.9948 49.9974C41.8281 49.9974 43.3981 49.3441 44.7048 48.0374C46.0092 46.7329 46.6615 45.1641 46.6615 43.3307C46.6615 41.4974 46.0092 39.9274 44.7048 38.6207C43.3981 37.3163 41.8281 36.6641 39.9948 36.6641C38.1615 36.6641 36.5926 37.3163 35.2881 38.6207C33.9815 39.9274 33.3281 41.4974 33.3281 43.3307C33.3281 45.1641 33.9815 46.7329 35.2881 48.0374C36.5926 49.3441 38.1615 49.9974 39.9948 49.9974ZM58.6615 66.664L46.7448 54.7474C45.8003 55.3585 44.7592 55.8307 43.6215 56.1641C42.4815 56.4974 41.2726 56.6641 39.9948 56.6641C36.3281 56.6641 33.1892 55.3585 30.5781 52.7474C27.967 50.1363 26.6615 46.9974 26.6615 43.3307C26.6615 39.6641 27.967 36.5252 30.5781 33.9141C33.1892 31.3029 36.3281 29.9974 39.9948 29.9974C43.6615 29.9974 46.8003 31.3029 49.4115 33.9141C52.0226 36.5252 53.3281 39.6641 53.3281 43.3307C53.3281 44.6085 53.1615 45.8029 52.8281 46.9141C52.4948 48.0252 52.0226 49.0529 51.4115 49.9974L59.9948 58.5807V29.0807L46.8281 13.3307H19.9948V66.664H58.6615ZM19.9948 73.3307C18.1615 73.3307 16.5926 72.6785 15.2881 71.374C13.9815 70.0674 13.3281 68.4974 13.3281 66.664V13.3307C13.3281 11.4974 13.9815 9.92739 15.2881 8.62073C16.5926 7.31628 18.1615 6.66406 19.9948 6.66406H46.9115C47.9115 6.66406 48.8559 6.87295 49.7448 7.29073C50.6337 7.70628 51.3837 8.30295 51.9948 9.08073L65.0781 24.8307C65.5226 25.4418 65.8981 26.1085 66.2048 26.8307C66.5092 27.5529 66.6615 28.3029 66.6615 29.0807V66.664C66.6615 68.4974 66.0092 70.0674 64.7048 71.374C63.3981 72.6785 61.8281 73.3307 59.9948 73.3307H19.9948Z" fill="white"/>
</svg>
