<svg width="80" height="80" viewBox="0 0 80 80" fill="none" xmlns="http://www.w3.org/2000/svg">
<path d="M41.9638 6.66684L41.8922 6.60156H41.7953H38.1953H38.0983L38.0267 6.66697L6.27671 35.667L6.08358 35.8434L6.26854 36.0283L9.81854 39.5783L9.98699 39.7468L10.1634 39.5867L14.7453 35.4262V67.4516V67.5551L14.8185 67.6283L17.3185 70.1283L17.3918 70.2016H17.4953H32.4953H32.5989L32.6721 70.1283L35.1721 67.6283L35.2453 67.5551V67.4516V50.2016H44.7453V67.4516V67.5551L44.8185 67.6283L47.3185 70.1283L47.3918 70.2016H47.4953H62.4953H62.5989L62.6721 70.1283L65.1721 67.6283L65.2453 67.5551V67.4516V35.3858L69.8774 39.5868L70.0537 39.7467L70.2221 39.5783L73.7721 36.0283L73.9572 35.8432L73.7638 35.6668L41.9638 6.66684ZM29.8185 47.2748L29.7453 47.348V47.4516V64.7016H20.2453V30.4272L39.9954 12.4892L59.7453 30.3973V64.7016H50.2453V47.4516V47.348L50.1721 47.2748L47.6721 44.7748L47.5989 44.7016H47.4953H32.4953H32.3918L32.3185 44.7748L29.8185 47.2748Z" fill="white" stroke="white" stroke-width="0.5"/>
</svg>
