<svg width="80" height="80" viewBox="0 0 80 80" fill="none" xmlns="http://www.w3.org/2000/svg">
<path d="M44.1615 23.3307C44.1615 24.2148 43.8103 25.0626 43.1851 25.6878C42.56 26.3129 41.7122 26.6641 40.8281 26.6641C39.9441 26.6641 39.0962 26.3129 38.4711 25.6878C37.846 25.0626 37.4948 24.2148 37.4948 23.3307C37.4948 22.4467 37.846 21.5988 38.4711 20.9737C39.0962 20.3486 39.9441 19.9974 40.8281 19.9974C41.7122 19.9974 42.56 20.3486 43.1851 20.9737C43.8103 21.5988 44.1615 22.4467 44.1615 23.3307ZM38.3281 32.4974V49.1641C38.3281 49.8271 38.5915 50.463 39.0604 50.9318C39.5292 51.4007 40.1651 51.6641 40.8281 51.6641C41.4912 51.6641 42.127 51.4007 42.5959 50.9318C43.0647 50.463 43.3281 49.8271 43.3281 49.1641V32.4974C43.3281 31.8344 43.0647 31.1985 42.5959 30.7296C42.127 30.2608 41.4912 29.9974 40.8281 29.9974C40.1651 29.9974 39.5292 30.2608 39.0604 30.7296C38.5915 31.1985 38.3281 31.8344 38.3281 32.4974ZM13.3281 14.9974C13.3281 12.7873 14.2061 10.6676 15.7689 9.10484C17.3317 7.54204 19.4513 6.66406 21.6615 6.66406H59.9948C61.0891 6.66406 62.1728 6.87961 63.1838 7.2984C64.1949 7.71719 65.1135 8.33102 65.8873 9.10484C66.6612 9.87866 67.275 10.7973 67.6938 11.8084C68.1126 12.8194 68.3281 13.903 68.3281 14.9974V62.4974C68.3281 63.1604 68.0647 63.7963 67.5959 64.2652C67.1271 64.734 66.4912 64.9974 65.8281 64.9974H18.3281C18.3281 65.8815 18.6793 66.7293 19.3044 67.3544C19.9296 67.9795 20.7774 68.3307 21.6615 68.3307H65.8281C66.4912 68.3307 67.1271 68.5941 67.5959 69.063C68.0647 69.5318 68.3281 70.1677 68.3281 70.8307C68.3281 71.4938 68.0647 72.1297 67.5959 72.5985C67.1271 73.0673 66.4912 73.3307 65.8281 73.3307H21.6615C19.4513 73.3307 17.3317 72.4528 15.7689 70.89C14.2061 69.3272 13.3281 67.2075 13.3281 64.9974V14.9974ZM63.3281 59.9974V14.9974C63.3281 14.1133 62.9769 13.2655 62.3518 12.6404C61.7267 12.0153 60.8788 11.6641 59.9948 11.6641H21.6615C20.7774 11.6641 19.9296 12.0153 19.3044 12.6404C18.6793 13.2655 18.3281 14.1133 18.3281 14.9974V59.9974H63.3281Z" fill="white" stroke="white" stroke-width="0.5"/>
</svg>
