<svg width="45" height="45" viewBox="0 0 45 45" fill="none" xmlns="http://www.w3.org/2000/svg">
<path d="M21.0938 2.8125H23.9062V9.84375H21.0938V2.8125ZM30.4987 12.5156L35.4291 7.58531L37.4175 9.57375L32.4872 14.5041L30.4987 12.5156ZM35.1562 21.0938H42.1875V23.9062H35.1562V21.0938ZM30.4987 32.4844L32.4872 30.4973L37.4175 35.4277L35.4291 37.4161L30.4987 32.4844ZM21.0938 35.1562H23.9062V42.1875H21.0938V35.1562ZM7.58531 35.4262L12.5156 30.4959L14.5041 32.4844L9.57516 37.4147L7.58531 35.4262ZM2.8125 21.0938H9.84375V23.9062H2.8125V21.0938ZM7.58672 9.57375L9.57516 7.58531L14.5055 12.5156L12.5156 14.5041L7.58672 9.57375ZM22.5 16.875C23.6125 16.875 24.7001 17.2049 25.6251 17.823C26.5501 18.4411 27.2711 19.3196 27.6968 20.3474C28.1226 21.3752 28.234 22.5062 28.0169 23.5974C27.7999 24.6885 27.2641 25.6908 26.4775 26.4775C25.6908 27.2641 24.6885 27.7999 23.5974 28.0169C22.5062 28.234 21.3752 28.1226 20.3474 27.6968C19.3196 27.2711 18.4411 26.5501 17.823 25.6251C17.2049 24.7001 16.875 23.6125 16.875 22.5C16.8769 21.0087 17.4701 19.5791 18.5246 18.5246C19.5791 17.4701 21.0087 16.8769 22.5 16.875M22.5 14.0625C20.8312 14.0625 19.1999 14.5574 17.8124 15.4845C16.4248 16.4116 15.3434 17.7294 14.7048 19.2711C14.0662 20.8129 13.8991 22.5094 14.2246 24.1461C14.5502 25.7828 15.3538 27.2862 16.5338 28.4662C17.7138 29.6462 19.2172 30.4498 20.8539 30.7754C22.4906 31.1009 24.1871 30.9338 25.7289 30.2952C27.2706 29.6566 28.5884 28.5752 29.5155 27.1876C30.4426 25.8001 30.9375 24.1688 30.9375 22.5C30.9375 20.2622 30.0486 18.1161 28.4662 16.5338C26.8839 14.9514 24.7378 14.0625 22.5 14.0625Z" fill="#D7D7D7"/>
<path d="M22.5 16.875C23.6125 16.875 24.7001 17.2049 25.6251 17.823C26.5501 18.4411 27.2711 19.3196 27.6968 20.3474C28.1226 21.3752 28.234 22.5062 28.0169 23.5974C27.7999 24.6885 27.2641 25.6908 26.4775 26.4775C25.6908 27.2641 24.6885 27.7999 23.5974 28.0169C22.5062 28.234 21.3752 28.1226 20.3474 27.6968C19.3196 27.2711 18.4411 26.5501 17.823 25.6251C17.2049 24.7001 16.875 23.6125 16.875 22.5C16.8769 21.0087 17.4701 19.5791 18.5246 18.5246C19.5791 17.4701 21.0087 16.8769 22.5 16.875M21.0938 2.8125H23.9062V9.84375H21.0938V2.8125ZM30.4987 12.5156L35.4291 7.58531L37.4175 9.57375L32.4872 14.5041L30.4987 12.5156ZM35.1562 21.0938H42.1875V23.9062H35.1562V21.0938ZM30.4987 32.4844L32.4872 30.4973L37.4175 35.4277L35.4291 37.4161L30.4987 32.4844ZM21.0938 35.1562H23.9062V42.1875H21.0938V35.1562ZM7.58531 35.4262L12.5156 30.4959L14.5041 32.4844L9.57516 37.4147L7.58531 35.4262ZM2.8125 21.0938H9.84375V23.9062H2.8125V21.0938ZM7.58672 9.57375L9.57516 7.58531L14.5055 12.5156L12.5156 14.5041L7.58672 9.57375ZM22.5 14.0625C20.8312 14.0625 19.1999 14.5574 17.8124 15.4845C16.4248 16.4116 15.3434 17.7294 14.7048 19.2711C14.0662 20.8129 13.8991 22.5094 14.2246 24.1461C14.5502 25.7828 15.3538 27.2862 16.5338 28.4662C17.7138 29.6462 19.2172 30.4498 20.8539 30.7754C22.4906 31.1009 24.1871 30.9338 25.7289 30.2952C27.2706 29.6566 28.5884 28.5752 29.5155 27.1876C30.4426 25.8001 30.9375 24.1688 30.9375 22.5C30.9375 20.2622 30.0486 18.1161 28.4662 16.5338C26.8839 14.9514 24.7378 14.0625 22.5 14.0625Z" stroke="#D7D7D7" stroke-width="1.6"/>
</svg>
