<svg width="80" height="80" viewBox="0 0 80 80" fill="none" xmlns="http://www.w3.org/2000/svg">
<path d="M39.2474 6.85949C51.1576 6.82813 61.6385 13.0143 67.6287 22.3602C67.8943 22.7757 67.5975 23.3246 67.1055 23.3246H61.6151C61.2402 23.3246 60.8888 23.1599 60.6545 22.8698C60.1078 22.2034 59.522 21.5605 58.905 20.9489C56.359 18.4007 53.399 16.3936 50.1032 14.998C46.6981 13.5553 43.0743 12.8183 39.3333 12.8183C35.5924 12.8183 31.9686 13.5475 28.5634 14.998C25.2676 16.3936 22.3077 18.4007 19.7616 20.9489C17.2156 23.4971 15.2241 26.4686 13.8261 29.7695C12.3812 33.188 11.6549 36.8181 11.6549 40.5737C11.6549 44.3293 12.389 47.9595 13.8261 51.3779C15.2162 54.6788 17.2156 57.6504 19.7616 60.1985C22.3077 62.7467 25.2676 64.7539 28.5634 66.1495C31.9713 67.5945 35.634 68.3358 39.3333 68.3291C43.0743 68.3291 46.6981 67.5921 50.1032 66.1495C53.3926 64.7553 56.3816 62.7344 58.905 60.1985C59.522 59.5791 60.1 58.9362 60.6545 58.2776C60.8888 57.9875 61.248 57.8229 61.6151 57.8229H67.1055C67.5975 57.8229 67.9021 58.3717 67.6287 58.7872C61.6463 68.1096 51.2123 74.2879 39.3333 74.2879C20.8863 74.2879 5.9068 59.3831 5.71936 40.9187C5.53192 22.1563 20.5348 6.90654 39.2474 6.85949ZM49.1411 49.3551V43.3963H73.6643C74.0079 43.3963 74.2891 43.114 74.2891 42.7691V38.3784C74.2891 38.0334 74.0079 37.7511 73.6643 37.7511H49.1411V31.7923C49.1411 31.267 48.5319 30.9691 48.1258 31.2984L37.0435 40.0798C36.9688 40.1384 36.9084 40.2134 36.8669 40.299C36.8253 40.3846 36.8037 40.4785 36.8037 40.5737C36.8037 40.6689 36.8253 40.7629 36.8669 40.8484C36.9084 40.934 36.9688 41.009 37.0435 41.0677L48.1258 49.849C48.5319 50.1705 49.1411 49.8804 49.1411 49.3551Z" fill="white" stroke="white" stroke-width="1.2"/>
</svg>
