<svg width="80" height="80" viewBox="0 0 80 80" fill="none" xmlns="http://www.w3.org/2000/svg">
<path d="M40.7563 6.40637C28.8422 6.37512 18.3578 12.5392 12.3656 21.8517C12.1 22.2657 12.3969 22.8126 12.8891 22.8126H18.3813C18.7563 22.8126 19.1078 22.6486 19.3422 22.3595C19.8891 21.6954 20.475 21.0548 21.0922 20.4454C23.6391 17.9064 26.6 15.9064 29.8969 14.5157C33.3031 13.0782 36.9281 12.3439 40.6703 12.3439C44.4125 12.3439 48.0375 13.0704 51.4437 14.5157C54.7406 15.9064 57.7016 17.9064 60.2484 20.4454C62.7953 22.9845 64.7875 25.9454 66.1859 29.2345C67.6312 32.6407 68.3578 36.2579 68.3578 40.0001C68.3578 43.7423 67.6234 47.3595 66.1859 50.7657C64.7953 54.0548 62.7953 57.0157 60.2484 59.5548C57.7016 62.0939 54.7406 64.0939 51.4437 65.4845C48.0348 66.9243 44.3708 67.663 40.6703 67.6564C36.9281 67.6564 33.3031 66.922 29.8969 65.4845C26.6065 64.0953 23.6165 62.0816 21.0922 59.5548C20.475 58.9376 19.8969 58.297 19.3422 57.6407C19.1078 57.3517 18.7484 57.1876 18.3813 57.1876H12.8891C12.3969 57.1876 12.0922 57.7345 12.3656 58.1486C18.35 67.4376 28.7875 73.5939 40.6703 73.5939C59.1234 73.5939 74.1078 58.7423 74.2953 40.3439C74.4828 21.6486 59.475 6.45324 40.7563 6.40637ZM30.8594 48.7501V42.8126H6.32812C5.98438 42.8126 5.70312 42.5314 5.70312 42.1876V37.8126C5.70312 37.4689 5.98438 37.1876 6.32812 37.1876H30.8594V31.2501C30.8594 30.7267 31.4688 30.4298 31.875 30.7579L42.9609 39.5079C43.0356 39.5664 43.0961 39.6411 43.1376 39.7264C43.1791 39.8116 43.2007 39.9053 43.2007 40.0001C43.2007 40.095 43.1791 40.1886 43.1376 40.2739C43.0961 40.3591 43.0356 40.4338 42.9609 40.4923L31.875 49.2423C31.4688 49.5626 30.8594 49.2736 30.8594 48.7501Z" fill="white"/>
</svg>
