<svg width="80" height="80" viewBox="0 0 80 80" fill="none" xmlns="http://www.w3.org/2000/svg">
<path d="M62.5052 66.6693H17.5052C14.7381 66.6694 12.0758 65.6108 10.0644 63.7104C8.0531 61.81 6.8452 59.212 6.68854 56.4493L6.67188 55.8359V20.8359C6.67164 18.9355 7.39286 17.1059 8.68977 15.7168C9.98669 14.3277 11.7626 13.4827 13.6585 13.3526L14.1719 13.3359H55.8385C57.739 13.3357 59.5686 14.0569 60.9577 15.3538C62.3468 16.6507 63.1918 18.4266 63.3219 20.3226L63.3385 20.8359V23.3359H65.8385C67.739 23.3357 69.5686 24.0569 70.9577 25.3538C72.3468 26.6507 73.1918 28.4266 73.3219 30.3226L73.3385 30.8359V55.8359C73.3387 58.6031 72.28 61.2654 70.3796 63.2767C68.4792 65.288 65.8812 66.4959 63.1185 66.6526L62.5052 66.6693H17.5052H62.5052ZM17.5052 61.6693H62.5052C63.9697 61.6691 65.3806 61.1182 66.4576 60.1258C67.5346 59.1334 68.1989 57.7722 68.3185 56.3126L68.3385 55.8359V30.8359C68.3385 30.2318 68.1197 29.6481 67.7227 29.1928C67.3256 28.7375 66.7771 28.4414 66.1785 28.3593L65.8385 28.3359H63.3385V54.1693C63.3385 54.7734 63.1197 55.3571 62.7227 55.8124C62.3256 56.2677 61.7771 56.5638 61.1785 56.6459L60.8385 56.6693C60.2344 56.6692 59.6507 56.4505 59.1954 56.0534C58.7401 55.6563 58.444 55.1078 58.3619 54.5093L58.3385 54.1693V20.8359C58.3385 20.2318 58.1197 19.6481 57.7227 19.1928C57.3256 18.7375 56.7771 18.4414 56.1785 18.3593L55.8385 18.3359H14.1719C13.5677 18.336 12.9841 18.5547 12.5288 18.9518C12.0735 19.3489 11.7774 19.8974 11.6952 20.4959L11.6719 20.8359V55.8359C11.6719 57.2999 12.2224 58.7103 13.2141 59.7872C14.2058 60.8641 15.5662 61.5288 17.0252 61.6493L17.5052 61.6693H62.5052H17.5052ZM40.8252 48.3359H50.8452C51.4786 48.3361 52.0883 48.5768 52.5512 49.0092C53.014 49.4416 53.2955 50.0336 53.3386 50.6655C53.3818 51.2975 53.1835 51.9222 52.7838 52.4136C52.384 52.905 51.8127 53.2263 51.1852 53.3126L50.8452 53.3359H40.8252C40.1918 53.3357 39.5821 53.0951 39.1192 52.6627C38.6564 52.2303 38.375 51.6383 38.3318 51.0063C38.2886 50.3744 38.4869 49.7496 38.8867 49.2583C39.2864 48.7669 39.8577 48.4456 40.4852 48.3593L40.8252 48.3359H50.8452H40.8252ZM30.8152 36.6859C31.4783 36.6859 32.1141 36.9493 32.583 37.4182C33.0518 37.887 33.3152 38.5229 33.3152 39.1859V50.8359C33.3152 51.499 33.0518 52.1349 32.583 52.6037C32.1141 53.0725 31.4783 53.3359 30.8152 53.3359H19.1652C18.5022 53.3359 17.8663 53.0725 17.3974 52.6037C16.9286 52.1349 16.6652 51.499 16.6652 50.8359V39.1859C16.6652 38.5229 16.9286 37.887 17.3974 37.4182C17.8663 36.9493 18.5022 36.6859 19.1652 36.6859H30.8152ZM28.3152 41.6859H21.6652V48.3359H28.3152V41.6859ZM40.8252 36.6859H50.8452C51.4786 36.6861 52.0883 36.9268 52.5512 37.3592C53.014 37.7916 53.2955 38.3836 53.3386 39.0155C53.3818 39.6475 53.1835 40.2722 52.7838 40.7636C52.384 41.255 51.8127 41.5763 51.1852 41.6626L50.8452 41.6859H40.8252C40.1873 41.6924 39.571 41.4548 39.1026 41.0217C38.6342 40.5886 38.349 39.9928 38.3056 39.3564C38.2621 38.7199 38.4637 38.0909 38.8689 37.5981C39.2741 37.1054 39.8523 36.7862 40.4852 36.7059L40.8252 36.6859H50.8452H40.8252ZM19.1652 25.0093H50.8452C51.4831 25.0028 52.0994 25.2404 52.5678 25.6735C53.0362 26.1066 53.3214 26.7024 53.3648 27.3389C53.4083 27.9753 53.2068 28.6043 52.8016 29.0971C52.3963 29.5898 51.8181 29.909 51.1852 29.9893L50.8452 30.0093H19.1652C18.5318 30.0091 17.9221 29.7685 17.4592 29.336C16.9964 28.9036 16.715 28.3116 16.6718 27.6797C16.6286 27.0477 16.8269 26.423 17.2267 25.9316C17.6264 25.4403 18.1977 25.1189 18.8252 25.0326L19.1652 25.0093H50.8452H19.1652Z" fill="white"/>
<path d="M62.5052 66.6693H17.5052C14.7381 66.6695 12.0758 65.6108 10.0644 63.7104C8.0531 61.81 6.8452 59.212 6.68854 56.4493L6.67188 55.8359V20.8359C6.67164 18.9355 7.39286 17.1059 8.68977 15.7168C9.98669 14.3277 11.7626 13.4827 13.6585 13.3526L14.1719 13.3359H55.8385C57.739 13.3357 59.5686 14.0569 60.9577 15.3538C62.3468 16.6507 63.1918 18.4266 63.3219 20.3226L63.3385 20.8359V23.3359H65.8385C67.739 23.3357 69.5686 24.0569 70.9577 25.3538C72.3468 26.6507 73.1918 28.4266 73.3219 30.3226L73.3385 30.8359V55.8359C73.3387 58.6031 72.28 61.2654 70.3796 63.2767C68.4792 65.288 65.8812 66.4959 63.1185 66.6526L62.5052 66.6693ZM62.5052 66.6693H17.5052H62.5052ZM17.5052 61.6693H62.5052C63.9697 61.6691 65.3806 61.1182 66.4576 60.1258C67.5346 59.1334 68.1989 57.7722 68.3185 56.3126L68.3385 55.8359V30.8359C68.3385 30.2318 68.1197 29.6481 67.7227 29.1928C67.3256 28.7375 66.7771 28.4414 66.1785 28.3593L65.8385 28.3359H63.3385V54.1693C63.3385 54.7734 63.1197 55.3571 62.7227 55.8124C62.3256 56.2677 61.7771 56.5638 61.1785 56.6459L60.8385 56.6693C60.2344 56.6692 59.6507 56.4505 59.1954 56.0534C58.7401 55.6563 58.444 55.1078 58.3619 54.5093L58.3385 54.1693V20.8359C58.3385 20.2318 58.1197 19.6481 57.7227 19.1928C57.3256 18.7375 56.7771 18.4414 56.1785 18.3593L55.8385 18.3359H14.1719C13.5678 18.336 12.9841 18.5547 12.5288 18.9518C12.0735 19.3489 11.7774 19.8974 11.6952 20.4959L11.6719 20.8359V55.8359C11.6719 57.2999 12.2224 58.7103 13.2141 59.7872C14.2058 60.8641 15.5662 61.5288 17.0252 61.6493L17.5052 61.6693ZM17.5052 61.6693H62.5052H17.5052ZM40.8252 48.3359H50.8452C51.4786 48.3361 52.0883 48.5768 52.5512 49.0092C53.014 49.4416 53.2955 50.0336 53.3386 50.6655C53.3818 51.2975 53.1835 51.9222 52.7838 52.4136C52.384 52.905 51.8127 53.2263 51.1852 53.3126L50.8452 53.3359H40.8252C40.1918 53.3357 39.5821 53.0951 39.1192 52.6627C38.6564 52.2303 38.375 51.6383 38.3318 51.0063C38.2886 50.3744 38.4869 49.7496 38.8867 49.2583C39.2864 48.7669 39.8577 48.4456 40.4852 48.3593L40.8252 48.3359ZM40.8252 48.3359H50.8452H40.8252ZM40.8252 36.6859H50.8452C51.4786 36.6861 52.0883 36.9268 52.5512 37.3592C53.014 37.7916 53.2955 38.3836 53.3386 39.0155C53.3818 39.6475 53.1835 40.2722 52.7838 40.7636C52.384 41.255 51.8127 41.5763 51.1852 41.6626L50.8452 41.6859H40.8252C40.1873 41.6924 39.571 41.4548 39.1026 41.0217C38.6342 40.5886 38.349 39.9928 38.3056 39.3564C38.2621 38.7199 38.4637 38.0909 38.8689 37.5981C39.2741 37.1054 39.8523 36.7862 40.4852 36.7059L40.8252 36.6859ZM40.8252 36.6859H50.8452H40.8252ZM30.8152 36.6859C31.4783 36.6859 32.1141 36.9493 32.583 37.4182C33.0518 37.887 33.3152 38.5229 33.3152 39.1859V50.8359C33.3152 51.499 33.0518 52.1349 32.583 52.6037C32.1141 53.0725 31.4783 53.3359 30.8152 53.3359H19.1652C18.5022 53.3359 17.8663 53.0725 17.3974 52.6037C16.9286 52.1349 16.6652 51.499 16.6652 50.8359V39.1859C16.6652 38.5229 16.9286 37.887 17.3974 37.4182C17.8663 36.9493 18.5022 36.6859 19.1652 36.6859H30.8152ZM28.3152 41.6859H21.6652V48.3359H28.3152V41.6859ZM19.1652 25.0093H50.8452C51.4831 25.0028 52.0994 25.2404 52.5678 25.6735C53.0362 26.1066 53.3214 26.7024 53.3648 27.3389C53.4083 27.9753 53.2068 28.6043 52.8016 29.0971C52.3963 29.5898 51.8181 29.909 51.1852 29.9893L50.8452 30.0093H19.1652C18.5318 30.0091 17.9221 29.7685 17.4592 29.336C16.9964 28.9036 16.715 28.3116 16.6718 27.6797C16.6286 27.0477 16.8269 26.423 17.2267 25.9316C17.6264 25.4403 18.1977 25.1189 18.8252 25.0326L19.1652 25.0093H50.8452H19.1652V25.0093Z" stroke="white" stroke-width="0.5"/>
</svg>
