<svg width="80" height="80" viewBox="0 0 80 80" fill="none" xmlns="http://www.w3.org/2000/svg">
<path d="M36.7633 8.46342C37.7535 7.91355 38.8674 7.625 40 7.625C41.1326 7.625 42.2465 7.91355 43.2367 8.46342L68.2867 22.3768C68.806 22.6656 69.2387 23.0879 69.5399 23.6002C69.8412 24.1124 70 24.6958 70 25.2901V52.7401C69.9997 53.9289 69.6816 55.096 69.0785 56.1205C68.4754 57.145 67.6093 57.9896 66.57 58.5668L43.2367 71.5334C42.2465 72.0833 41.1326 72.3718 40 72.3718C38.8674 72.3718 37.7535 72.0833 36.7633 71.5334L13.43 58.5668C12.3912 57.9899 11.5254 57.1458 10.9224 56.122C10.3193 55.0981 10.0009 53.9317 10 52.7434V25.2901C9.99998 24.6958 10.1588 24.1124 10.4601 23.6002C10.7613 23.0879 11.194 22.6656 11.7133 22.3768L36.7667 8.46342H36.7633Z" stroke="white" stroke-width="4" stroke-linecap="round" stroke-linejoin="round"/>
<path d="M40 39.9948V73.3281M10 23.3281L40 39.9948L10 23.3281ZM40 39.9948L70 23.3281L40 39.9948Z" stroke="white" stroke-width="4" stroke-linejoin="round"/>
<path d="M20 41.0933L30 46.6667M25 31.6667L55 15L25 31.6667Z" stroke="white" stroke-width="4" stroke-linecap="round" stroke-linejoin="round"/>
</svg>
