<svg width="80" height="80" viewBox="0 0 80 80" fill="none" xmlns="http://www.w3.org/2000/svg">
<path d="M52.9924 50.1875C54.883 49.1719 57.0471 48.5938 59.3518 48.5938H59.3596C59.5939 48.5938 59.7033 48.3125 59.5314 48.1562C57.1347 46.0053 54.3968 44.268 51.4299 43.0156C51.3986 43 51.3674 42.9922 51.3361 42.9766C56.1877 39.4531 59.3439 33.7266 59.3439 27.2656C59.3439 16.5625 50.6877 7.89062 40.008 7.89062C29.3283 7.89062 20.6799 16.5625 20.6799 27.2656C20.6799 33.7266 23.8361 39.4531 28.6955 42.9766C28.6643 42.9922 28.633 43 28.6018 43.0156C25.1096 44.4922 21.9768 46.6094 19.2814 49.3125C16.6017 51.9874 14.4683 55.1583 13.0002 58.6484C11.5558 62.0661 10.7762 65.7278 10.7033 69.4375C10.7012 69.5209 10.7159 69.6038 10.7463 69.6815C10.7768 69.7591 10.8225 69.8299 10.8808 69.8896C10.939 69.9493 11.0086 69.9967 11.0855 70.0291C11.1623 70.0615 11.2449 70.0782 11.3283 70.0781H16.008C16.3439 70.0781 16.6252 69.8047 16.633 69.4688C16.7893 63.4375 19.2033 57.7891 23.4768 53.5078C27.8908 49.0781 33.7658 46.6406 40.0158 46.6406C44.4455 46.6406 48.6955 47.8672 52.3596 50.1641C52.4537 50.2232 52.5617 50.2565 52.6728 50.2606C52.7839 50.2647 52.8941 50.2395 52.9924 50.1875ZM40.0158 40.7031C36.4377 40.7031 33.0705 39.3047 30.5314 36.7656C29.2822 35.5196 28.2918 34.0387 27.6174 32.4083C26.9429 30.7778 26.5978 29.0301 26.6018 27.2656C26.6018 23.6797 28.0002 20.3047 30.5314 17.7656C33.0627 15.2266 36.4299 13.8281 40.0158 13.8281C43.6018 13.8281 46.9611 15.2266 49.5002 17.7656C50.7495 19.0116 51.7398 20.4925 52.4143 22.123C53.0887 23.7534 53.4339 25.5012 53.4299 27.2656C53.4299 30.8516 52.0314 34.2266 49.5002 36.7656C46.9611 39.3047 43.5939 40.7031 40.0158 40.7031ZM68.7502 59.2969H62.1877V52.7344C62.1877 52.3906 61.9064 52.1094 61.5627 52.1094H57.1877C56.8439 52.1094 56.5627 52.3906 56.5627 52.7344V59.2969H50.0002C49.6564 59.2969 49.3752 59.5781 49.3752 59.9219V64.2969C49.3752 64.6406 49.6564 64.9219 50.0002 64.9219H56.5627V71.4844C56.5627 71.8281 56.8439 72.1094 57.1877 72.1094H61.5627C61.9064 72.1094 62.1877 71.8281 62.1877 71.4844V64.9219H68.7502C69.0939 64.9219 69.3752 64.6406 69.3752 64.2969V59.9219C69.3752 59.5781 69.0939 59.2969 68.7502 59.2969Z" fill="white"/>
</svg>
