<svg width="14" height="14" viewBox="0 0 14 14" fill="none" xmlns="http://www.w3.org/2000/svg">
<path d="M7.13229 1.00002C5.04801 0.99444 3.21384 2.09537 2.16556 3.75862C2.11909 3.83257 2.17102 3.93025 2.25713 3.93025H3.21794C3.28355 3.93025 3.34505 3.90095 3.38605 3.84932C3.48173 3.73071 3.58423 3.6163 3.6922 3.50746C4.13776 3.05397 4.65575 2.69676 5.23252 2.44839C5.82842 2.19165 6.46258 2.06048 7.11725 2.06048C7.77192 2.06048 8.40609 2.19025 9.00198 2.44839C9.57875 2.69676 10.0967 3.05397 10.5423 3.50746C10.9879 3.96095 11.3364 4.48978 11.581 5.07722C11.8339 5.68559 11.961 6.33164 11.961 7.00001C11.961 7.66838 11.8325 8.31443 11.581 8.9228C11.3377 9.51024 10.9879 10.0391 10.5423 10.4926C10.0967 10.946 9.57875 11.3033 9.00198 11.5516C8.40562 11.8088 7.76463 11.9407 7.11725 11.9395C6.46258 11.9395 5.82842 11.8084 5.23252 11.5516C4.65689 11.3035 4.13381 10.9439 3.6922 10.4926C3.58423 10.3823 3.48309 10.2679 3.38605 10.1507C3.34505 10.0991 3.28218 10.0698 3.21794 10.0698H2.25713C2.17102 10.0698 2.11772 10.1674 2.16556 10.2414C3.21248 11.9005 5.03844 13 7.11725 13C10.3455 13 12.9669 10.3474 12.9997 7.06141C13.0325 3.72234 10.407 1.00839 7.13229 1.00002ZM5.4009 8.5628V7.50234H1.10934C1.0492 7.50234 1 7.4521 1 7.39071V6.60931C1 6.54792 1.0492 6.49769 1.10934 6.49769H5.4009V5.43722C5.4009 5.34373 5.50751 5.29071 5.57858 5.34932L7.51798 6.9121C7.53105 6.92255 7.54162 6.93589 7.54889 6.95112C7.55615 6.96635 7.55993 6.98307 7.55993 7.00001C7.55993 7.01695 7.55615 7.03367 7.54889 7.0489C7.54162 7.06413 7.53105 7.07748 7.51798 7.08792L5.57858 8.6507C5.50751 8.70791 5.4009 8.65629 5.4009 8.5628Z" fill="#FE4B4B" stroke="#FE4B4B" stroke-width="0.2"/>
</svg>
