<svg width="11" height="11" viewBox="0 0 11 11" fill="none" xmlns="http://www.w3.org/2000/svg">
<path d="M7.872 7.15547C8.17923 6.99043 8.53089 6.89648 8.9054 6.89648H8.90667C8.94476 6.89648 8.96253 6.85078 8.9346 6.82539C8.54513 6.47586 8.10022 6.19356 7.6181 5.99004C7.61302 5.9875 7.60794 5.98623 7.60286 5.98369C8.39124 5.41113 8.90413 4.48057 8.90413 3.43066C8.90413 1.69141 7.49749 0.282227 5.76204 0.282227C4.02659 0.282227 2.62122 1.69141 2.62122 3.43066C2.62122 4.48057 3.13411 5.41113 3.92376 5.98369C3.91868 5.98623 3.91361 5.9875 3.90853 5.99004C3.34105 6.22998 2.83197 6.57402 2.39398 7.01328C1.95852 7.44795 1.61184 7.96323 1.37327 8.53037C1.13855 9.08574 1.01188 9.68077 1.00003 10.2836C0.999693 10.2971 1.00207 10.3106 1.00702 10.3232C1.01197 10.3359 1.0194 10.3474 1.02887 10.3571C1.03833 10.3668 1.04964 10.3745 1.06213 10.3797C1.07462 10.385 1.08804 10.3877 1.10159 10.3877H1.86204C1.91663 10.3877 1.96234 10.3433 1.96361 10.2887C1.989 9.30859 2.38128 8.39072 3.07572 7.69502C3.793 6.9752 4.74769 6.5791 5.76331 6.5791C6.48314 6.5791 7.17376 6.77842 7.76917 7.15166C7.78447 7.16127 7.80203 7.16668 7.82008 7.16735C7.83813 7.16802 7.85604 7.16392 7.872 7.15547V7.15547ZM5.76331 5.61426C5.18187 5.61426 4.6347 5.38701 4.2221 4.97441C4.0191 4.77194 3.85816 4.53129 3.74857 4.26634C3.63897 4.0014 3.58288 3.71738 3.58353 3.43066C3.58353 2.84795 3.81077 2.29951 4.2221 1.88691C4.63343 1.47432 5.1806 1.24707 5.76331 1.24707C6.34603 1.24707 6.89193 1.47432 7.30452 1.88691C7.50753 2.08939 7.66846 2.33004 7.77806 2.59498C7.88766 2.85993 7.94375 3.14394 7.9431 3.43066C7.9431 4.01338 7.71585 4.56182 7.30452 4.97441C6.89193 5.38701 6.34476 5.61426 5.76331 5.61426ZM10.4326 8.63574H9.36624V7.56934C9.36624 7.51348 9.32054 7.46777 9.26468 7.46777H8.55374C8.49788 7.46777 8.45218 7.51348 8.45218 7.56934V8.63574H7.38577C7.32991 8.63574 7.28421 8.68145 7.28421 8.7373V9.44824C7.28421 9.5041 7.32991 9.5498 7.38577 9.5498H8.45218V10.6162C8.45218 10.6721 8.49788 10.7178 8.55374 10.7178H9.26468C9.32054 10.7178 9.36624 10.6721 9.36624 10.6162V9.5498H10.4326C10.4885 9.5498 10.5342 9.5041 10.5342 9.44824V8.7373C10.5342 8.68145 10.4885 8.63574 10.4326 8.63574Z" fill="white" stroke="white" stroke-width="0.2"/>
</svg>
