<svg width="70" height="70" viewBox="0 0 70 70" fill="none" xmlns="http://www.w3.org/2000/svg">
<g opacity="0.4">
<path d="M32.2754 23.345L32.812 23.3304H54.687C57.1078 23.3302 59.4369 24.2562 61.1967 25.9184C62.9566 27.5806 64.0138 29.8532 64.1516 32.27L64.1662 32.8096V54.6846C64.1664 57.1058 63.24 59.4353 61.5772 61.1953C59.9143 62.9552 57.641 64.0121 55.2237 64.1492L54.687 64.1638H32.812C30.3908 64.1639 28.0613 63.2376 26.3014 61.5747C24.5414 59.9119 23.4845 57.6386 23.3474 55.2213L23.3329 54.6875V32.8125C23.3327 30.3913 24.2591 28.0618 25.9219 26.3018C27.5847 24.5419 29.858 23.485 32.2754 23.3479V23.345ZM54.687 27.7054H32.812C31.5311 27.7055 30.2969 28.1872 29.3546 29.0549C28.4123 29.9226 27.8308 31.113 27.7254 32.3896L27.7079 32.8096V54.6846C27.708 55.966 28.1901 57.2005 29.0584 58.1429C29.9268 59.0853 31.1178 59.6666 32.3949 59.7713L32.812 59.7888H54.687C55.9685 59.7887 57.203 59.3065 58.1453 58.4382C59.0877 57.5699 59.669 56.3788 59.7737 55.1017L59.7912 54.6846V32.8096C59.7912 31.4559 59.2534 30.1576 58.2962 29.2004C57.339 28.2432 56.0407 27.7054 54.687 27.7054V27.7054ZM43.7495 32.0833C44.3297 32.0833 44.8861 32.3138 45.2963 32.7241C45.7066 33.1343 45.937 33.6907 45.937 34.2708V41.5567H53.2287C53.8089 41.5567 54.3653 41.7871 54.7755 42.1974C55.1857 42.6076 55.4162 43.164 55.4162 43.7442C55.4162 44.3243 55.1857 44.8807 54.7755 45.291C54.3653 45.7012 53.8089 45.9317 53.2287 45.9317H45.937V53.2292C45.937 53.8093 45.7066 54.3657 45.2963 54.776C44.8861 55.1862 44.3297 55.4167 43.7495 55.4167C43.1694 55.4167 42.613 55.1862 42.2027 54.776C41.7925 54.3657 41.562 53.8093 41.562 53.2292V45.9317H34.2704C33.6902 45.9317 33.1338 45.7012 32.7236 45.291C32.3133 44.8807 32.0829 44.3243 32.0829 43.7442C32.0829 43.164 32.3133 42.6076 32.7236 42.1974C33.1338 41.7871 33.6902 41.5567 34.2704 41.5567H41.562V34.2708C41.562 33.6907 41.7925 33.1343 42.2027 32.7241C42.613 32.3138 43.1694 32.0833 43.7495 32.0833ZM45.447 12.3463L45.5987 12.8625L47.6199 20.4108H43.0904L41.3754 13.9942C41.2021 13.3464 40.9028 12.739 40.4947 12.2069C40.0866 11.6748 39.5776 11.2283 38.9969 10.893C38.4162 10.5577 37.775 10.3401 37.1102 10.2526C36.4453 10.1652 35.7697 10.2096 35.122 10.3833L13.9937 16.0475C12.7603 16.3783 11.6957 17.1593 11.01 18.2365C10.3242 19.3137 10.0672 20.6088 10.2895 21.8663L10.3829 22.2979L16.047 43.4263C16.3127 44.4191 16.8719 45.3086 17.6515 45.9784C18.4311 46.6481 19.3947 47.0669 20.4162 47.18V51.5725C18.5198 51.4595 16.7011 50.7796 15.1956 49.621C13.6902 48.4624 12.5673 46.8784 11.9724 45.0742L11.8208 44.5608L6.15953 23.4296C5.53245 21.0915 5.82363 18.6021 6.97336 16.4719C8.12308 14.3416 10.0442 12.732 12.3429 11.9729L12.862 11.8213L33.9904 6.16001C36.3284 5.53294 38.8178 5.82412 40.9481 6.97385C43.0783 8.12357 44.688 10.0447 45.447 12.3433V12.3463Z" fill="white" stroke="white" stroke-width="1.5"/>
</g>
</svg>
