<svg width="70" height="70" viewBox="0 0 70 70" fill="none" xmlns="http://www.w3.org/2000/svg">
<path d="M8.75 14.5833V55.4167C8.75 58.6338 11.3662 61.25 14.5833 61.25H55.4167C58.6338 61.25 61.25 58.6338 61.25 55.4167V14.5833C61.25 11.3662 58.6338 8.75 55.4167 8.75H14.5833C11.3662 8.75 8.75 11.3662 8.75 14.5833ZM55.4194 52.4165C55.4195 54.0734 54.0763 55.4167 52.4194 55.4167H17.5833C15.9265 55.4167 14.5833 54.0735 14.5833 52.4167V17.5833C14.5833 15.9265 15.9265 14.5833 17.5833 14.5833H52.4169C54.0737 14.5833 55.4168 15.9263 55.4169 17.5831L55.4194 52.4165Z" fill="#8982A5"/>
<path d="M32.0807 23.3334C32.0807 21.7226 33.3866 20.4167 34.9974 20.4167V20.4167C36.6082 20.4167 37.9141 21.7226 37.9141 23.3334V46.6667C37.9141 48.2776 36.6082 49.5834 34.9974 49.5834V49.5834C33.3866 49.5834 32.0807 48.2776 32.0807 46.6667V23.3334ZM43.7474 32.0834C43.7474 30.4726 45.0532 29.1667 46.6641 29.1667V29.1667C48.2749 29.1667 49.5807 30.4726 49.5807 32.0834V46.6667C49.5807 48.2776 48.2749 49.5834 46.6641 49.5834V49.5834C45.0532 49.5834 43.7474 48.2776 43.7474 46.6667V32.0834ZM20.4141 37.9167C20.4141 36.3059 21.7199 35.0001 23.3307 35.0001V35.0001C24.9416 35.0001 26.2474 36.3059 26.2474 37.9167V46.6667C26.2474 48.2776 24.9416 49.5834 23.3307 49.5834V49.5834C21.7199 49.5834 20.4141 48.2776 20.4141 46.6667V37.9167Z" fill="#8982A5"/>
</svg>
