<svg width="70" height="70" viewBox="0 0 70 70" fill="none" xmlns="http://www.w3.org/2000/svg">
<g opacity="0.4">
<path d="M29.1562 23.3342H46.6562V27.2231H29.1562V23.3342Z" fill="white"/>
<path d="M29.1562 31.1113H46.6562V35.0002H29.1562V31.1113Z" fill="white"/>
<path d="M29.1562 38.8887H46.6562V42.7776H29.1562V38.8887Z" fill="white"/>
<path d="M29.1562 46.6658H46.6562V50.5547H29.1562V46.6658Z" fill="white"/>
<path d="M21.3984 15.5562H25.2873V19.445H21.3984V15.5562Z" fill="white"/>
<path d="M21.3984 23.3342H25.2873V27.2231H21.3984V23.3342Z" fill="white"/>
<path d="M21.3984 31.1113H25.2873V35.0002H21.3984V31.1113Z" fill="white"/>
<path d="M21.3984 38.8887H25.2873V42.7776H21.3984V38.8887Z" fill="white"/>
<path d="M21.3984 46.6658H25.2873V50.5547H21.3984V46.6658Z" fill="white"/>
<path d="M29.1562 15.5562V19.445H45.9951C45.2299 18.241 44.6468 16.9306 44.2646 15.5562H29.1562Z" fill="white"/>
<path d="M54.434 25.7053V62.222H15.5451V7.77756H44.284C44.6602 6.40421 45.2367 5.09383 45.9951 3.88867H15.5451C14.5137 3.88867 13.5246 4.29839 12.7953 5.0277C12.066 5.75701 11.6563 6.74616 11.6562 7.77756V62.222C11.6563 63.2534 12.066 64.2426 12.7953 64.9719C13.5246 65.7012 14.5137 66.1109 15.5451 66.1109H54.434C55.4654 66.1109 56.4546 65.7012 57.1839 64.9719C57.9132 64.2426 58.3229 63.2534 58.3229 62.222V26.2498C57.008 26.2447 55.6998 26.0615 54.434 25.7053V25.7053Z" fill="white" stroke="white" stroke-width="1.5"/>
<path d="M57.4967 12.3393L58.1091 12.4816L58.0978 12.5302L58.1098 12.4817C58.9441 12.6877 59.6518 12.9917 60.1515 13.4729C60.653 13.9557 60.9407 14.6127 60.942 15.5141V15.5142C60.942 16.4917 60.5774 17.2562 59.9562 17.7978C59.3456 18.3301 58.4908 18.644 57.4995 18.7385L57.5043 19.5052L57.5043 19.5055C57.5043 19.6481 57.3901 19.7631 57.2493 19.7631H56.5212C56.3808 19.7631 56.2662 19.6485 56.2662 19.5081V18.7494C55.14 18.659 54.3061 18.2926 53.7371 17.7693C53.1603 17.2389 52.8592 16.5501 52.8005 15.8337L57.4967 12.3393ZM57.4967 12.3393V8.9942C58.4182 9.14036 58.979 9.72629 59.0762 10.4347C59.0923 10.5629 59.2014 10.6551 59.3282 10.6551H60.4792C60.6296 10.6551 60.7468 10.5243 60.7341 10.3753L60.7341 10.3746C60.5761 8.76064 59.2564 7.72658 57.5069 7.53518V6.74194C57.5069 6.60154 57.3922 6.48687 57.2518 6.48687H56.5315C56.3911 6.48687 56.2764 6.60154 56.2764 6.74194V7.5427C55.3799 7.63713 54.5775 7.93326 53.9954 8.44003C53.4023 8.95639 53.0413 9.6887 53.0413 10.6384C53.0413 11.5187 53.3662 12.1738 53.8626 12.6488C54.3577 13.1223 55.021 13.4145 55.6966 13.576C55.6967 13.576 55.6969 13.5761 55.697 13.5761L56.2918 13.7278V17.2895C55.7599 17.2101 55.3462 17.0278 55.0487 16.7724C54.7412 16.5084 54.5552 16.1641 54.4916 15.7678C54.4916 15.7678 54.4916 15.7677 54.4916 15.7677L54.4423 15.7756M57.4967 12.3393L52.8005 15.8335L52.8503 15.8295C52.8401 15.709 52.9349 15.6064 53.0554 15.6064H54.2397C54.3397 15.6064 54.4269 15.6782 54.4423 15.7756M54.4423 15.7756C54.5711 16.5788 55.19 17.1778 56.2918 17.34L54.4423 15.7756ZM55.1902 9.46059C55.4639 9.21544 55.8459 9.05831 56.2892 8.99357V12.0484C56.174 12.0143 56.0736 11.9809 55.9735 11.9405L55.9735 11.9404L55.9717 11.9398C55.5438 11.7854 55.2351 11.585 55.0335 11.347C54.8326 11.1097 54.7358 10.8323 54.7358 10.5179C54.7358 10.0667 54.9061 9.715 55.1902 9.46059ZM56.875 1.59062C50.5053 1.59062 45.3406 6.75534 45.3406 13.125C45.3406 19.4947 50.5053 24.6594 56.875 24.6594C63.2447 24.6594 68.4094 19.4947 68.4094 13.125C68.4094 6.75534 63.2447 1.59062 56.875 1.59062ZM56.875 22.6111C51.6372 22.6111 47.3889 18.3628 47.3889 13.125C47.3889 7.88723 51.6372 3.63887 56.875 3.63887C62.1128 3.63887 66.3611 7.88723 66.3611 13.125C66.3611 18.3628 62.1128 22.6111 56.875 22.6111ZM58.7459 16.8056C58.4417 17.0753 58.011 17.2451 57.4967 17.2996V13.9933C57.5523 14.0083 57.6054 14.0209 57.6598 14.0323C58.2613 14.2156 58.6559 14.4325 58.9004 14.6955C59.1434 14.957 59.2424 15.2687 59.2424 15.6526C59.2424 16.14 59.0597 16.5274 58.7459 16.8056Z" fill="white" stroke="white" stroke-width="0.1"/>
</g>
</svg>
