<svg width="70" height="70" viewBox="0 0 70 70" fill="none" xmlns="http://www.w3.org/2000/svg">
<g opacity="0.4">
<path d="M43.75 28.4375C43.75 27.8573 43.9805 27.3009 44.3907 26.8907C44.8009 26.4805 45.3573 26.25 45.9375 26.25H54.6875C55.2677 26.25 55.8241 26.4805 56.2343 26.8907C56.6445 27.3009 56.875 27.8573 56.875 28.4375C56.875 29.0177 56.6445 29.5741 56.2343 29.9843C55.8241 30.3945 55.2677 30.625 54.6875 30.625H45.9375C45.3573 30.625 44.8009 30.3945 44.3907 29.9843C43.9805 29.5741 43.75 29.0177 43.75 28.4375ZM45.9375 39.375C45.3573 39.375 44.8009 39.6055 44.3907 40.0157C43.9805 40.4259 43.75 40.9823 43.75 41.5625C43.75 42.1427 43.9805 42.6991 44.3907 43.1093C44.8009 43.5195 45.3573 43.75 45.9375 43.75H54.6875C55.2677 43.75 55.8241 43.5195 56.2343 43.1093C56.6445 42.6991 56.875 42.1427 56.875 41.5625C56.875 40.9823 56.6445 40.4259 56.2343 40.0157C55.8241 39.6055 55.2677 39.375 54.6875 39.375H45.9375ZM26.25 26.25C26.25 27.4103 25.7891 28.5231 24.9686 29.3436C24.1481 30.1641 23.0353 30.625 21.875 30.625C20.7147 30.625 19.6019 30.1641 18.7814 29.3436C17.9609 28.5231 17.5 27.4103 17.5 26.25C17.5 25.0897 17.9609 23.9769 18.7814 23.1564C19.6019 22.3359 20.7147 21.875 21.875 21.875C23.0353 21.875 24.1481 22.3359 24.9686 23.1564C25.7891 23.9769 26.25 25.0897 26.25 26.25V26.25ZM16.4062 35C15.536 35 14.7014 35.3457 14.0861 35.9611C13.4707 36.5764 13.125 37.411 13.125 38.2812V41.5625C13.125 41.5625 13.125 48.125 21.875 48.125C30.625 48.125 30.625 41.5625 30.625 41.5625V38.2812C30.625 37.411 30.2793 36.5764 29.6639 35.9611C29.0486 35.3457 28.214 35 27.3438 35H16.4062ZM37.1875 27.3438C37.1875 28.214 36.8418 29.0486 36.2264 29.6639C35.6111 30.2793 34.7765 30.625 33.9062 30.625C33.036 30.625 32.2014 30.2793 31.5861 29.6639C30.9707 29.0486 30.625 28.214 30.625 27.3438C30.625 26.4735 30.9707 25.6389 31.5861 25.0236C32.2014 24.4082 33.036 24.0625 33.9062 24.0625C34.7765 24.0625 35.6111 24.4082 36.2264 25.0236C36.8418 25.6389 37.1875 26.4735 37.1875 27.3438V27.3438ZM34.7594 43.5356C34.7441 43.6072 34.728 43.6787 34.7113 43.75H35C36.1603 43.75 37.2731 43.2891 38.0936 42.4686C38.9141 41.6481 39.375 40.5353 39.375 39.375V37.1875C39.375 36.6073 39.1445 36.0509 38.7343 35.6407C38.3241 35.2305 37.7677 35 37.1875 35H34.265C34.7375 35.9931 35 37.1087 35 38.2812V41.7944H34.9956V41.8294L34.965 42.2581C34.9218 42.6877 34.8531 43.1142 34.7594 43.5356ZM4.375 24.0625C4.375 21.1617 5.52734 18.3797 7.57852 16.3285C9.6297 14.2773 12.4117 13.125 15.3125 13.125H54.6875C57.5883 13.125 60.3703 14.2773 62.4215 16.3285C64.4727 18.3797 65.625 21.1617 65.625 24.0625V45.9375C65.625 48.8383 64.4727 51.6203 62.4215 53.6715C60.3703 55.7227 57.5883 56.875 54.6875 56.875H15.3125C12.4117 56.875 9.6297 55.7227 7.57852 53.6715C5.52734 51.6203 4.375 48.8383 4.375 45.9375V24.0625ZM15.3125 17.5C13.572 17.5 11.9028 18.1914 10.6721 19.4221C9.4414 20.6528 8.75 22.322 8.75 24.0625V45.9375C8.75 47.678 9.4414 49.3472 10.6721 50.5779C11.9028 51.8086 13.572 52.5 15.3125 52.5H54.6875C56.428 52.5 58.0972 51.8086 59.3279 50.5779C60.5586 49.3472 61.25 47.678 61.25 45.9375V24.0625C61.25 22.322 60.5586 20.6528 59.3279 19.4221C58.0972 18.1914 56.428 17.5 54.6875 17.5H15.3125Z" fill="white"/>
</g>
</svg>
