<svg width="70" height="70" viewBox="0 0 70 70" fill="none" xmlns="http://www.w3.org/2000/svg">
<g opacity="0.4">
<path d="M35 65.625L16.5463 43.8616C16.2899 43.5348 16.0361 43.2059 15.785 42.875C12.6328 38.7226 10.9299 33.6508 10.9375 28.4375C10.9375 22.0557 13.4727 15.9353 17.9853 11.4227C22.4979 6.91015 28.6183 4.375 35 4.375C41.3818 4.375 47.5022 6.91015 52.0148 11.4227C56.5274 15.9353 59.0625 22.0557 59.0625 28.4375C59.0702 33.6484 57.368 38.718 54.2172 42.8684L54.215 42.875C54.215 42.875 53.5588 43.7369 53.4603 43.8528L35 65.625ZM19.2763 40.2391C19.2807 40.2391 19.7882 40.9128 19.9041 41.0572L35 58.8613L50.1156 41.0331C50.2119 40.9128 50.7238 40.2347 50.726 40.2325C53.301 36.8399 54.6926 32.6966 54.6875 28.4375C54.6875 23.2161 52.6133 18.2085 48.9212 14.5163C45.2291 10.8242 40.2215 8.75 35 8.75C29.7786 8.75 24.771 10.8242 21.0789 14.5163C17.3867 18.2085 15.3125 23.2161 15.3125 28.4375C15.3079 32.6993 16.7011 36.845 19.2785 40.2391H19.2763Z" fill="white" stroke="white" stroke-width="0.3"/>
<path d="M45.9375 39.375H41.5625V21.875H28.4375V39.375H24.0625V21.875C24.0637 20.715 24.525 19.6029 25.3452 18.7827C26.1654 17.9625 27.2775 17.5012 28.4375 17.5H41.5625C42.7225 17.5012 43.8346 17.9625 44.6548 18.7827C45.475 19.6029 45.9363 20.715 45.9375 21.875V39.375Z" fill="white"/>
<path d="M32.8125 35H37.1875V39.375H32.8125V35ZM32.8125 26.25H37.1875V30.625H32.8125V26.25Z" fill="white"/>
</g>
</svg>
