<svg width="70" height="70" viewBox="0 0 70 70" fill="none" xmlns="http://www.w3.org/2000/svg">
<path d="M46.3703 43.9141C48.0246 43.0254 49.9181 42.5195 51.9347 42.5195H51.9416C52.1467 42.5195 52.2424 42.2734 52.092 42.1367C49.9948 40.2546 47.5991 38.7345 45.0031 37.6387C44.9758 37.625 44.9484 37.6182 44.9211 37.6045C49.1662 34.5215 51.9279 29.5107 51.9279 23.8574C51.9279 14.4922 44.3537 6.9043 35.009 6.9043C25.6642 6.9043 18.0969 14.4922 18.0969 23.8574C18.0969 29.5107 20.8586 34.5215 25.1105 37.6045C25.0832 37.6182 25.0558 37.625 25.0285 37.6387C21.9728 38.9307 19.2316 40.7832 16.8732 43.1484C14.5284 45.489 12.6617 48.2635 11.3771 51.3174C10.1132 54.3078 9.43115 57.5119 9.36736 60.7578C9.36553 60.8308 9.37833 60.9034 9.405 60.9713C9.43166 61.0392 9.47165 61.1011 9.52262 61.1534C9.57358 61.2056 9.63449 61.2471 9.70175 61.2755C9.769 61.3038 9.84125 61.3184 9.91423 61.3184H14.009C14.3029 61.3184 14.549 61.0791 14.5558 60.7852C14.6926 55.5078 16.8049 50.5654 20.5441 46.8193C24.4064 42.9434 29.547 40.8105 35.0158 40.8105C38.8918 40.8105 42.6105 41.8838 45.8166 43.8936C45.8989 43.9453 45.9935 43.9745 46.0907 43.9781C46.1879 43.9817 46.2843 43.9596 46.3703 43.9141V43.9141ZM35.0158 35.6152C31.8849 35.6152 28.9386 34.3916 26.717 32.1699C25.6239 31.0797 24.7573 29.7839 24.1672 28.3572C23.577 26.9306 23.275 25.4013 23.2785 23.8574C23.2785 20.7197 24.5021 17.7666 26.717 15.5449C28.9318 13.3232 31.8781 12.0996 35.0158 12.0996C38.1535 12.0996 41.0929 13.3232 43.3146 15.5449C44.4077 16.6352 45.2743 17.931 45.8644 19.3576C46.4546 20.7842 46.7566 22.3135 46.7531 23.8574C46.7531 26.9951 45.5295 29.9482 43.3146 32.1699C41.0929 34.3916 38.1467 35.6152 35.0158 35.6152ZM60.1584 51.8848H54.4162V46.1426C54.4162 45.8418 54.1701 45.5957 53.8693 45.5957H50.0412C49.7404 45.5957 49.4943 45.8418 49.4943 46.1426V51.8848H43.7521C43.4513 51.8848 43.2052 52.1309 43.2052 52.4316V56.2598C43.2052 56.5605 43.4513 56.8066 43.7521 56.8066H49.4943V62.5488C49.4943 62.8496 49.7404 63.0957 50.0412 63.0957H53.8693C54.1701 63.0957 54.4162 62.8496 54.4162 62.5488V56.8066H60.1584C60.4592 56.8066 60.7052 56.5605 60.7052 56.2598V52.4316C60.7052 52.1309 60.4592 51.8848 60.1584 51.8848Z" fill="#8982A5"/>
</svg>
