<svg width="70" height="70" viewBox="0 0 70 70" fill="none" xmlns="http://www.w3.org/2000/svg">
<path d="M38.6432 20.4168C38.6432 21.1904 38.3359 21.9322 37.789 22.4792C37.242 23.0262 36.5001 23.3335 35.7266 23.3335C34.953 23.3335 34.2111 23.0262 33.6642 22.4792C33.1172 21.9322 32.8099 21.1904 32.8099 20.4168C32.8099 19.6433 33.1172 18.9014 33.6642 18.3544C34.2111 17.8075 34.953 17.5002 35.7266 17.5002C36.5001 17.5002 37.242 17.8075 37.789 18.3544C38.3359 18.9014 38.6432 19.6433 38.6432 20.4168ZM33.5391 28.4377V43.021C33.5391 43.6012 33.7695 44.1576 34.1798 44.5678C34.59 44.978 35.1464 45.2085 35.7266 45.2085C36.3067 45.2085 36.8631 44.978 37.2734 44.5678C37.6836 44.1576 37.9141 43.6012 37.9141 43.021V28.4377C37.9141 27.8575 37.6836 27.3011 37.2734 26.8909C36.8631 26.4806 36.3067 26.2502 35.7266 26.2502C35.1464 26.2502 34.59 26.4806 34.1798 26.8909C33.7695 27.3011 33.5391 27.8575 33.5391 28.4377ZM11.6641 13.1252C11.6641 11.1913 12.4323 9.33663 13.7997 7.96918C15.1672 6.60172 17.0219 5.8335 18.9557 5.8335H52.4974C53.455 5.8335 54.4031 6.0221 55.2878 6.38854C56.1725 6.75498 56.9763 7.29208 57.6534 7.96918C58.3305 8.64627 58.8676 9.4501 59.234 10.3348C59.6005 11.2194 59.7891 12.1676 59.7891 13.1252V54.6877C59.7891 55.2678 59.5586 55.8242 59.1484 56.2345C58.7381 56.6447 58.1817 56.8752 57.6016 56.8752H16.0391C16.0391 57.6487 16.3464 58.3906 16.8933 58.9376C17.4403 59.4845 18.1822 59.7918 18.9557 59.7918H57.6016C58.1817 59.7918 58.7381 60.0223 59.1484 60.4325C59.5586 60.8428 59.7891 61.3992 59.7891 61.9793C59.7891 62.5595 59.5586 63.1159 59.1484 63.5261C58.7381 63.9364 58.1817 64.1668 57.6016 64.1668H18.9557C17.0219 64.1668 15.1672 63.3986 13.7997 62.0312C12.4323 60.6637 11.6641 58.809 11.6641 56.8752V13.1252ZM55.4141 52.5002V13.1252C55.4141 12.3516 55.1068 11.6097 54.5598 11.0628C54.0128 10.5158 53.2709 10.2085 52.4974 10.2085H18.9557C18.1822 10.2085 17.4403 10.5158 16.8933 11.0628C16.3464 11.6097 16.0391 12.3516 16.0391 13.1252V52.5002H55.4141Z" fill="#8982A5" stroke="#8982A5" stroke-width="0.5"/>
</svg>
