<svg width="70" height="70" viewBox="0 0 70 70" fill="none" xmlns="http://www.w3.org/2000/svg">
<path d="M32.1679 7.40842C33.0343 6.92728 34.009 6.6748 35 6.6748C35.991 6.6748 36.9657 6.92728 37.8321 7.40842L59.7508 19.5826C60.2053 19.8353 60.5839 20.2049 60.8475 20.6531C61.111 21.1013 61.25 21.6118 61.25 22.1318V46.1505C61.2498 47.1907 60.9714 48.212 60.4437 49.1084C59.916 50.0048 59.1581 50.7438 58.2488 51.2488L37.8321 62.5947C36.9657 63.0758 35.991 63.3283 35 63.3283C34.009 63.3283 33.0343 63.0758 32.1679 62.5947L11.7512 51.2488C10.8423 50.7441 10.0848 50.0055 9.55708 49.1096C9.02941 48.2138 8.75077 47.1931 8.75 46.1534V22.1318C8.74998 21.6118 8.88896 21.1013 9.15254 20.6531C9.41613 20.2049 9.79474 19.8353 10.2492 19.5826L32.1708 7.40842H32.1679Z" stroke="#8982A5" stroke-width="4" stroke-linecap="round" stroke-linejoin="round"/>
<path d="M35 35.0001V64.1668M8.75 20.4167L35 35.0001L8.75 20.4167ZM35 35.0001L61.25 20.4167L35 35.0001Z" stroke="#8982A5" stroke-width="4" stroke-linejoin="round"/>
<path d="M17.5 35.9567L26.25 40.8333M21.875 27.7083L48.125 13.125L21.875 27.7083Z" stroke="#8982A5" stroke-width="4" stroke-linecap="round" stroke-linejoin="round"/>
</svg>
