<svg width="70" height="70" viewBox="0 0 70 70" fill="none" xmlns="http://www.w3.org/2000/svg">
<path d="M49.8125 47.6471L35 55.9792L20.1875 47.6471V38.8393C20.1875 38.6577 20.0891 38.4904 19.9303 38.4022L15.5553 35.9716C15.4005 35.8856 15.2116 35.8879 15.0589 35.9778C14.9062 36.0676 14.8125 36.2315 14.8125 36.4087V50.4981C14.8125 50.6787 14.9099 50.8453 15.0674 50.9339L34.7549 62.0081C34.9071 62.0937 35.0929 62.0937 35.2451 62.0081L54.9326 50.9339C55.0901 50.8453 55.1875 50.6787 55.1875 50.4981V36.4087C55.1875 36.2315 55.0938 36.0676 54.9411 35.9778C54.7884 35.8879 54.5995 35.8856 54.4447 35.9716L50.0697 38.4022C49.9109 38.4904 49.8125 38.6577 49.8125 38.8393V47.6471Z" fill="#8982A5" stroke="#8982A5" stroke-linejoin="round"/>
<path d="M35.2302 5.84201C35.0858 5.76718 34.9142 5.76718 34.7698 5.84201L4.14484 21.7216C3.97906 21.8076 3.875 21.9788 3.875 22.1655V25.9573C3.875 26.1388 3.97345 26.3062 4.13218 26.3943L34.7572 43.4078C34.9082 43.4916 35.0918 43.4916 35.2428 43.4078L60.75 29.2376V40.4687C60.75 40.7449 60.9739 40.9687 61.25 40.9687H65.625C65.9011 40.9687 66.125 40.7449 66.125 40.4687V22.1655C66.125 21.9788 66.0209 21.8076 65.8552 21.7216L35.2302 5.84201ZM52.2572 27.8069L52.4948 28.2347L52.2572 27.8069L35 37.3948L17.7428 27.8069L17.7428 27.8069L13.3678 25.3765L13.3678 25.3765L11.1496 24.1441L35 11.7773L58.8504 24.1441L56.6322 25.3765L52.2572 27.8069Z" fill="#8982A5" stroke="#8982A5" stroke-linejoin="round"/>
</svg>
