<svg width="70" height="70" viewBox="0 0 70 70" fill="none" xmlns="http://www.w3.org/2000/svg">
<g opacity="0.4">
<path d="M45.9375 8.75C42.0153 8.75 38.4606 9.485 35.6825 10.8697C32.9066 12.2544 30.625 14.5097 30.625 17.5V26.25C30.625 26.5322 30.7191 26.8056 30.7628 27.0703C28.5732 26.5139 26.3217 26.2383 24.0625 26.25C20.1403 26.25 16.5856 26.985 13.8075 28.3697C11.0316 29.7544 8.75 32.0097 8.75 35V52.5C8.75 55.4903 11.0316 57.7456 13.8097 59.1303C16.5856 60.515 20.1403 61.25 24.0625 61.25C27.9847 61.25 31.5394 60.515 34.3175 59.1303C37.0912 57.7456 39.375 55.4903 39.375 52.5V51.6119C41.5149 52.1904 43.7208 52.4889 45.9375 52.5C49.8597 52.5 53.4144 51.765 56.1925 50.3803C58.9662 48.9956 61.25 46.7403 61.25 43.75V17.5C61.25 14.5097 58.9684 12.2544 56.1903 10.8697C53.4166 9.485 49.8619 8.75 45.9375 8.75ZM45.9375 13.125C49.2691 13.125 52.2353 13.8425 54.2084 14.8334C56.1838 15.8244 56.875 16.8678 56.875 17.5C56.875 18.1344 56.1838 19.1756 54.2084 20.1666C52.2375 21.1575 49.2691 21.875 45.9375 21.875C42.6059 21.875 39.6397 21.1575 37.6666 20.1666C35.6912 19.1756 35 18.1322 35 17.5C35 16.8656 35.6912 15.8244 37.6666 14.8334C39.6375 13.8425 42.6059 13.125 45.9375 13.125ZM35 23.7212C35.2297 23.8481 35.4441 24.0122 35.6847 24.1303C38.4606 25.515 42.0153 26.25 45.9375 26.25C49.8597 26.25 53.4144 25.515 56.1925 24.1303C56.4309 24.0122 56.6453 23.8481 56.875 23.7212V26.25C56.875 26.8844 56.1838 27.9256 54.2084 28.9166C52.2353 29.9075 49.2691 30.625 45.9375 30.625C42.6059 30.625 39.6397 29.9075 37.6666 28.9166C35.6912 27.9256 35 26.8822 35 26.25V23.7212ZM24.0625 30.625C27.3941 30.625 30.3603 31.3425 32.3334 32.3334C34.3088 33.3244 35 34.3678 35 35C35 35.6344 34.3088 36.6756 32.3334 37.6666C30.3603 38.6575 27.3941 39.375 24.0625 39.375C20.7309 39.375 17.7647 38.6575 15.7916 37.6666C13.8162 36.6756 13.125 35.6322 13.125 35C13.125 34.3656 13.8162 33.3244 15.7916 32.3334C17.7625 31.3425 20.7309 30.625 24.0625 30.625ZM56.875 32.4712V35C56.875 35.6344 56.1838 36.6756 54.2084 37.6666C52.2353 38.6575 49.2691 39.375 45.9375 39.375C43.7091 39.3871 41.4933 39.0407 39.375 38.3491V35C39.375 34.7178 39.2809 34.4444 39.2372 34.1797C41.2716 34.7091 43.5269 35 45.9375 35C49.8597 35 53.4144 34.265 56.1925 32.8803C56.4309 32.7622 56.6453 32.5981 56.875 32.4712V32.4712ZM13.125 41.2212C13.3547 41.3481 13.5691 41.5122 13.8097 41.6303C16.5856 43.015 20.1403 43.75 24.0625 43.75C27.9847 43.75 31.5394 43.015 34.3175 41.6303C34.5559 41.5122 34.7703 41.3481 35 41.2212V43.75C35 44.3844 34.3088 45.4256 32.3334 46.4166C30.3603 47.4075 27.3941 48.125 24.0625 48.125C20.7309 48.125 17.7647 47.4075 15.7916 46.4166C13.8162 45.4256 13.125 44.3822 13.125 43.75V41.2212ZM56.875 41.2212V43.75C56.875 44.3844 56.1838 45.4256 54.2084 46.4166C52.2353 47.4075 49.2691 48.125 45.9375 48.125C43.4503 48.125 41.2038 47.775 39.375 47.1669V42.9297C41.3831 43.4591 43.5706 43.75 45.9375 43.75C49.8597 43.75 53.4144 43.015 56.1925 41.6303C56.4309 41.5122 56.6453 41.3481 56.875 41.2212V41.2212ZM13.125 49.9712C13.3547 50.0981 13.5691 50.2622 13.8097 50.3803C16.5856 51.765 20.1403 52.5 24.0625 52.5C27.9847 52.5 31.5394 51.765 34.3175 50.3803C34.5559 50.2622 34.7703 50.0981 35 49.9712V52.5C35 53.1344 34.3088 54.1756 32.3334 55.1666C30.3603 56.1575 27.3941 56.875 24.0625 56.875C20.7309 56.875 17.7647 56.1575 15.7916 55.1666C13.8162 54.1756 13.125 53.1322 13.125 52.5V49.9712Z" fill="white"/>
</g>
</svg>
