<svg width="28" height="28" viewBox="0 0 28 28" fill="none" xmlns="http://www.w3.org/2000/svg">
<path d="M9.14885 5.00016C8.21511 5.00016 7.35261 5.24059 6.56387 5.72016C5.78435 6.19088 5.13866 6.86389 4.69138 7.67185C4.23209 8.48905 3.99345 9.41764 4.00014 10.3615C4.00014 11.0597 4.12888 11.7385 4.38513 12.3968C4.64126 13.0539 5.02344 13.6512 5.50887 14.1531L14.0001 23L22.4913 14.1544C23.4592 13.1431 24.0011 11.7806 24 10.3615C24 9.38955 23.77 8.49213 23.3088 7.67057C22.8616 6.86324 22.2164 6.19071 21.4375 5.72016C20.6551 5.24173 19.7603 4.99274 18.85 5.00016C18.1726 5.00003 17.502 5.13892 16.8774 5.4087C16.2528 5.67848 15.6868 6.07372 15.2126 6.57129L14.0001 7.83514L12.7863 6.57129C12.3071 6.06786 11.7334 5.66981 11.1001 5.4013C10.481 5.136 9.81698 4.99965 9.14635 5.00016H9.14885Z" fill="#767676"/>
</svg>
