<svg width="28" height="28" viewBox="0 0 28 28" fill="none" xmlns="http://www.w3.org/2000/svg">
<path fill-rule="evenodd" clip-rule="evenodd" d="M7.60662 19.2468H9.79837C10.1231 19.2468 10.4345 19.3759 10.6641 19.6054C10.8937 19.8351 11.0227 20.1465 11.0227 20.4712C11.0227 20.796 10.8937 21.1074 10.6641 21.3369C10.4345 21.5666 10.1231 21.6956 9.79837 21.6957H7.34949C6.30277 21.6961 5.26805 21.4728 4.31463 21.0408C3.36122 20.6088 2.51113 19.9781 1.82129 19.1909C1.13144 18.4036 0.617785 17.4781 0.314709 16.4762C0.0116349 15.4743 -0.0738567 14.4192 0.0639611 13.3816C0.341236 11.5878 1.25713 9.95445 2.64304 8.78227C4.02896 7.61009 5.79163 6.97795 7.60662 7.0022H9.79837C10.1231 7.00225 10.4345 7.13128 10.6641 7.3609C10.8937 7.59053 11.0227 7.90195 11.0227 8.22666C11.0227 8.55137 10.8937 8.86279 10.6641 9.09242C10.4345 9.32204 10.1231 9.45107 9.79837 9.45112H7.34949C6.66632 9.44819 5.99011 9.58821 5.36429 9.86218C4.73847 10.1361 4.17689 10.538 3.71562 11.0419C3.25436 11.5459 2.90362 12.1407 2.68594 12.7883C2.46825 13.4358 2.38846 14.1218 2.45166 14.802C2.60359 16.0515 3.21609 17.1995 4.1694 18.0215C5.12271 18.8434 6.34832 19.2804 7.60662 19.2468ZM24.333 8.76648C25.7397 9.9478 26.667 11.6019 26.9408 13.4184C27.0736 14.4583 26.9823 15.5146 26.6731 16.5163C26.3639 17.518 25.8438 18.442 25.1479 19.226C24.452 20.0102 23.5963 20.6362 22.6384 21.0622C21.6804 21.4881 20.6424 21.7042 19.5941 21.6957H17.1451C16.8204 21.6956 16.509 21.5666 16.2794 21.3369C16.0499 21.1074 15.9209 20.796 15.9209 20.4712C15.9209 20.1465 16.0499 19.8351 16.2794 19.6054C16.509 19.3759 16.8204 19.2468 17.1451 19.2468H19.5941C20.2772 19.2497 20.9534 19.1096 21.5793 18.8357C22.2051 18.5617 22.7667 18.1599 23.2279 17.6559C23.6892 17.1521 24.04 16.5572 24.2576 15.9096C24.4753 15.2621 24.555 14.5761 24.4919 13.8959C24.34 12.6464 23.7275 11.4984 22.7742 10.6764C21.8208 9.85443 20.5953 9.41754 19.3369 9.45112H17.1451C16.8204 9.45112 16.5089 9.32212 16.2793 9.09248C16.0497 8.86285 15.9207 8.55141 15.9207 8.22666C15.9207 7.55321 16.4594 7.0022 17.4512 7.0022H19.3002C21.1366 6.95782 22.9261 7.58516 24.333 8.76648ZM8.93672 15.2163C8.7071 14.9867 8.57809 14.6752 8.57809 14.3505C8.57809 14.0257 8.7071 13.7143 8.93672 13.4847C9.16636 13.255 9.4778 13.126 9.80256 13.126H17.1493C17.474 13.126 17.7854 13.255 18.0151 13.4847C18.2447 13.7143 18.3738 14.0257 18.3738 14.3505C18.3738 14.6752 18.2447 14.9867 18.0151 15.2163C17.7854 15.4459 17.474 15.575 17.1493 15.575H9.80256C9.4778 15.575 9.16636 15.4459 8.93672 15.2163Z" fill="#767676"/>
</svg>
