<svg width="15" height="14" viewBox="0 0 15 14" fill="none" xmlns="http://www.w3.org/2000/svg">
<path d="M12.6923 9.01432V11.375C12.6923 12.0981 12.4384 12.7164 11.9306 13.2298C11.4228 13.7433 10.8113 14 10.0962 14H2.59615C1.88101 14 1.26953 13.7433 0.761719 13.2298C0.253906 12.7164 0 12.0981 0 11.375V3.79167C0 3.06858 0.253906 2.4503 0.761719 1.93685C1.26953 1.42339 1.88101 1.16667 2.59615 1.16667H4.89483C4.97296 1.16667 5.04057 1.19553 5.09766 1.25326C5.15475 1.31098 5.18329 1.37934 5.18329 1.45833C5.18329 1.6224 5.10517 1.71962 4.94892 1.75C4.48618 1.90799 4.08654 2.09028 3.75 2.29688C3.6899 2.32118 3.64183 2.33333 3.60577 2.33333H2.59615C2.19952 2.33333 1.85998 2.47613 1.57752 2.76172C1.29507 3.04731 1.15385 3.39062 1.15385 3.79167V11.375C1.15385 11.776 1.29507 12.1194 1.57752 12.4049C1.85998 12.6905 2.19952 12.8333 2.59615 12.8333H10.0962C10.4928 12.8333 10.8323 12.6905 11.1148 12.4049C11.3972 12.1194 11.5385 11.776 11.5385 11.375V9.42448C11.5385 9.30903 11.5925 9.22092 11.7007 9.16016C11.869 9.08116 12.0312 8.96875 12.1875 8.82292C12.2837 8.72569 12.3888 8.70139 12.503 8.75C12.6292 8.80469 12.6923 8.89279 12.6923 9.01432ZM14.8287 4.49349L11.3672 7.99349C11.259 8.10894 11.1238 8.16667 10.9615 8.16667C10.8894 8.16667 10.8143 8.15147 10.7362 8.12109C10.5018 8.01779 10.3846 7.83854 10.3846 7.58333V5.83333H8.94231C7.0012 5.83333 5.6851 6.23134 4.99399 7.02734C4.27885 7.85981 4.05649 9.29688 4.32692 11.3385C4.34495 11.4783 4.28486 11.5816 4.14663 11.6484C4.09856 11.6606 4.0625 11.6667 4.03846 11.6667C3.94231 11.6667 3.86418 11.6272 3.80409 11.5482C3.74399 11.4631 3.68089 11.3689 3.61478 11.2656C3.54868 11.1623 3.42999 10.9542 3.25871 10.6413C3.08744 10.3283 2.9387 10.026 2.8125 9.73438C2.6863 9.44271 2.57061 9.09635 2.46544 8.69531C2.36028 8.29427 2.30769 7.92361 2.30769 7.58333C2.30769 7.28559 2.31821 7.00911 2.33924 6.75391C2.36028 6.4987 2.40234 6.22526 2.46544 5.93359C2.52855 5.64193 2.61268 5.37457 2.71785 5.13151C2.82302 4.88845 2.96424 4.64084 3.14153 4.38867C3.31881 4.1365 3.52464 3.91168 3.75901 3.71419C3.99339 3.51671 4.27734 3.32986 4.61088 3.15365C4.94441 2.97743 5.31851 2.83008 5.73317 2.71159C6.14784 2.5931 6.6271 2.50043 7.17097 2.43359C7.71484 2.36675 8.30529 2.33333 8.94231 2.33333H10.3846V0.583333C10.3846 0.328125 10.5018 0.148872 10.7362 0.0455729C10.8143 0.015191 10.8894 0 10.9615 0C11.1178 0 11.253 0.0577257 11.3672 0.173177L14.8287 3.67318C14.9429 3.78863 15 3.92535 15 4.08333C15 4.24132 14.9429 4.37804 14.8287 4.49349Z" fill="#767676"/>
</svg>
