<svg width="27" height="24" viewBox="0 0 27 24" fill="none" xmlns="http://www.w3.org/2000/svg">
<path d="M26.6155 8.94327H19.0484C18.9183 8.94327 18.8119 9.04921 18.8119 9.17868V10.5911C18.8119 10.7206 18.9183 10.8265 19.0484 10.8265H26.6155C26.7456 10.8265 26.852 10.7206 26.852 10.5911V9.17868C26.852 9.04921 26.7456 8.94327 26.6155 8.94327ZM22.6546 12.9451H19.0484C18.9183 12.9451 18.8119 13.0511 18.8119 13.1805V14.593C18.8119 14.7224 18.9183 14.8284 19.0484 14.8284H22.6546C22.7846 14.8284 22.8911 14.7224 22.8911 14.593V13.1805C22.8911 13.0511 22.7846 12.9451 22.6546 12.9451ZM12.7907 6.30969H11.5108C11.3275 6.30969 11.1797 6.45682 11.1797 6.63926V13.9368C11.1797 14.0427 11.2299 14.1398 11.3157 14.2016L15.717 17.3972C15.8648 17.5032 16.0717 17.4737 16.1782 17.3266L16.9378 16.2938V16.2908C17.0442 16.1437 17.0117 15.9377 16.8639 15.8318L13.1188 13.1364V6.63926C13.1217 6.45682 12.971 6.30969 12.7907 6.30969V6.30969Z" fill="#5A4A9A"/>
<path d="M22.4735 16.6499H20.765C20.5995 16.6499 20.4428 16.7352 20.3541 16.8765C19.9787 17.4679 19.5413 18.0152 19.0388 18.5155C18.1727 19.3776 17.1647 20.0544 16.0444 20.5252C14.8827 21.0137 13.6501 21.2609 12.3791 21.2609C11.1051 21.2609 9.87243 21.0137 8.71371 20.5252C7.59341 20.0544 6.58544 19.3776 5.71936 18.5155C4.85327 17.6533 4.17341 16.6499 3.70046 15.5347C3.20978 14.3812 2.96148 13.1541 2.96148 11.8859C2.96148 10.6177 3.20978 9.39355 3.70046 8.23713C4.17341 7.12191 4.85327 6.1185 5.71936 5.25633C6.58544 4.39416 7.59341 3.71737 8.71371 3.24657C9.87243 2.7581 11.108 2.51093 12.3791 2.51093C13.6531 2.51093 14.8857 2.7581 16.0444 3.24657C17.1647 3.71737 18.1727 4.39416 19.0388 5.25633C19.5413 5.75656 19.9787 6.30388 20.3541 6.89533C20.4428 7.03657 20.5995 7.12191 20.765 7.12191H22.4735C22.6775 7.12191 22.8076 6.91004 22.7159 6.73055C20.7887 2.91406 16.8809 0.433489 12.518 0.383466C6.13023 0.304017 0.824344 5.50939 0.81252 11.8624C0.800696 18.2271 5.98243 23.3913 12.3761 23.3913C16.7952 23.3913 20.768 20.9019 22.7159 17.0412C22.8076 16.8617 22.6745 16.6499 22.4735 16.6499V16.6499Z" fill="#5A4A9A"/>
</svg>
