<svg width="23" height="17" viewBox="0 0 23 17" fill="none" xmlns="http://www.w3.org/2000/svg">
<path d="M23 2.01651C22.1542 2.35727 21.2456 2.58752 20.2904 2.69159C21.276 2.15539 22.0133 1.31147 22.3649 0.317296C21.4389 0.81738 20.4254 1.16939 19.3686 1.35801C18.6579 0.668066 17.7165 0.210762 16.6907 0.057094C15.6648 -0.0965741 14.6119 0.0619913 13.6953 0.508172C12.7787 0.954353 12.0498 1.66319 11.6217 2.52462C11.1936 3.38606 11.0903 4.35189 11.3278 5.27219C9.4515 5.18653 7.61598 4.74313 5.94036 3.97075C4.26474 3.19837 2.78646 2.11428 1.60147 0.78884C1.19629 1.42432 0.963314 2.16111 0.963314 2.94578C0.962862 3.65217 1.15419 4.34774 1.52031 4.97078C1.88644 5.59382 2.41604 6.12505 3.06214 6.51736C2.31284 6.49568 1.58007 6.31159 0.924822 5.98042V6.03568C0.924746 7.02642 1.30167 7.98668 1.99164 8.7535C2.68161 9.52033 3.64213 10.0465 4.71021 10.2427C4.01511 10.4138 3.28635 10.439 2.57897 10.3164C2.88032 11.1689 3.46732 11.9143 4.25779 12.4484C5.04827 12.9825 6.00265 13.2785 6.98732 13.2949C5.31578 14.4879 3.25145 15.1351 1.1264 15.1322C0.749968 15.1323 0.373855 15.1123 0 15.0724C2.15705 16.3334 4.66801 17.0026 7.23245 17C15.9134 17 20.6591 10.4629 20.6591 4.79328C20.6591 4.60908 20.654 4.42304 20.6449 4.23884C21.568 3.63189 22.3648 2.8803 22.998 2.01927L23 2.01651Z" fill="#7F8EA7"/>
</svg>
