<svg width="12" height="15" viewBox="0 0 12 15" fill="none" xmlns="http://www.w3.org/2000/svg">
<path d="M1.1875 2.47594V10.0938C1.18738 10.8475 1.47396 11.573 1.98911 12.1232C2.50426 12.6735 3.2094 13.0071 3.9615 13.0566L4.15625 13.0625H9.39787C9.2751 13.4097 9.04771 13.7104 8.74701 13.9231C8.4463 14.1357 8.08706 14.2499 7.71875 14.25H3.5625C2.61767 14.25 1.71153 13.8747 1.04343 13.2066C0.375334 12.5385 2.44906e-07 11.6323 2.44906e-07 10.6875V4.15625C-0.000192945 3.78774 0.113914 3.42824 0.326596 3.12729C0.539278 2.82635 0.840064 2.59877 1.1875 2.47594ZM10.0938 0C10.5662 0 11.0192 0.187667 11.3533 0.521716C11.6873 0.855765 11.875 1.30883 11.875 1.78125V10.0938C11.875 10.5662 11.6873 11.0192 11.3533 11.3533C11.0192 11.6873 10.5662 11.875 10.0938 11.875H4.15625C3.68383 11.875 3.23077 11.6873 2.89672 11.3533C2.56267 11.0192 2.375 10.5662 2.375 10.0938V1.78125C2.375 1.30883 2.56267 0.855765 2.89672 0.521716C3.23077 0.187667 3.68383 0 4.15625 0H10.0938Z" fill="#767676"/>
</svg>
