<svg width="19" height="19" viewBox="0 0 19 19" fill="none" xmlns="http://www.w3.org/2000/svg">
<path d="M13.642 11.4C13.718 10.773 13.775 10.146 13.775 9.5C13.775 8.854 13.718 8.227 13.642 7.6H16.853C17.005 8.208 17.1 8.8445 17.1 9.5C17.1 10.1555 17.005 10.792 16.853 11.4H13.642ZM11.9605 16.682C12.5305 15.6275 12.9675 14.4875 13.2715 13.3H16.074C15.1536 14.8849 13.6934 16.0854 11.9605 16.682ZM11.723 11.4H7.277C7.182 10.773 7.125 10.146 7.125 9.5C7.125 8.854 7.182 8.2175 7.277 7.6H11.723C11.8085 8.2175 11.875 8.854 11.875 9.5C11.875 10.146 11.8085 10.773 11.723 11.4ZM9.5 17.062C8.7115 15.922 8.075 14.6585 7.6855 13.3H11.3145C10.925 14.6585 10.2885 15.922 9.5 17.062ZM5.7 5.7H2.926C3.83691 4.11085 5.29606 2.90841 7.03 2.318C6.46 3.3725 6.0325 4.5125 5.7 5.7ZM2.926 13.3H5.7C6.0325 14.4875 6.46 15.6275 7.03 16.682C5.29969 16.0851 3.8426 14.8843 2.926 13.3ZM2.147 11.4C1.995 10.792 1.9 10.1555 1.9 9.5C1.9 8.8445 1.995 8.208 2.147 7.6H5.358C5.282 8.227 5.225 8.854 5.225 9.5C5.225 10.146 5.282 10.773 5.358 11.4H2.147ZM9.5 1.9285C10.2885 3.0685 10.925 4.3415 11.3145 5.7H7.6855C8.075 4.3415 8.7115 3.0685 9.5 1.9285ZM16.074 5.7H13.2715C12.9742 4.52339 12.5339 3.3876 11.9605 2.318C13.7085 2.9165 15.162 4.123 16.074 5.7ZM9.5 0C4.2465 0 0 4.275 0 9.5C0 12.0196 1.00089 14.4359 2.78249 16.2175C3.66464 17.0997 4.71191 17.7994 5.86451 18.2769C7.0171 18.7543 8.25244 19 9.5 19C12.0196 19 14.4359 17.9991 16.2175 16.2175C17.9991 14.4359 19 12.0196 19 9.5C19 8.25244 18.7543 7.0171 18.2769 5.86451C17.7994 4.71191 17.0997 3.66464 16.2175 2.78249C15.3354 1.90033 14.2881 1.20056 13.1355 0.723144C11.9829 0.245725 10.7476 0 9.5 0Z" fill="#7F8DA7"/>
</svg>
