<svg width="18" height="21" viewBox="0 0 18 21" fill="none" xmlns="http://www.w3.org/2000/svg">
<path d="M16.5412 9.80577C15.798 8.93855 15.4605 8.18723 15.4605 6.9103V6.47618C15.4605 4.81291 15.0772 3.74134 14.2456 2.66875C12.9605 1.00345 10.8011 0 8.68642 0H8.59695C6.526 0 4.43369 0.957702 3.12829 2.55489C2.24989 3.64781 1.82289 4.76614 1.82289 6.47618V6.9103C1.82289 8.18723 1.50772 8.93855 0.742168 9.80577C0.17995 10.4453 0 11.2667 0 12.1543C0 13.0449 0.291784 13.8877 0.878402 14.5729C1.65172 15.3972 2.70103 15.9085 3.82674 16.0095C5.42393 16.1915 7.02111 16.2596 8.6427 16.2596C10.2623 16.2596 11.8594 16.1457 13.4576 16.0095C14.5834 15.9085 15.6327 15.3972 16.406 14.5729C16.9802 13.8991 17.2917 13.0406 17.2834 12.1553C17.2834 11.2667 17.1034 10.4453 16.5412 9.80678V9.80577Z" fill="white"/>
<path opacity="0.4" d="M10.6842 17.5152C10.1758 17.4074 7.07906 17.4074 6.57073 17.5152C6.1356 17.6168 5.66589 17.8496 5.66589 18.361C5.69131 18.849 5.97699 19.2811 6.3735 19.5546H6.37248C6.87871 19.9502 7.4793 20.2071 8.11505 20.2998C8.45055 20.3456 8.79215 20.3435 9.13985 20.2998C9.76815 20.2083 10.37 19.9541 10.8814 19.5556V19.5546C11.2779 19.2801 11.5626 18.85 11.588 18.361C11.588 17.8496 11.1183 17.6158 10.6832 17.5152H10.6842Z" fill="white"/>
</svg>
