<svg width="15" height="15" viewBox="0 0 15 15" fill="none" xmlns="http://www.w3.org/2000/svg">
<g clip-path="url(#clip0_1508_4242)">
<path fill-rule="evenodd" clip-rule="evenodd" d="M7.5 14.0625C9.24048 14.0625 10.9097 13.3711 12.1404 12.1404C13.3711 10.9097 14.0625 9.24048 14.0625 7.5C14.0625 5.75952 13.3711 4.09032 12.1404 2.85961C10.9097 1.6289 9.24048 0.9375 7.5 0.9375C5.75952 0.9375 4.09032 1.6289 2.85961 2.85961C1.6289 4.09032 0.9375 5.75952 0.9375 7.5C0.9375 9.24048 1.6289 10.9097 2.85961 12.1404C4.09032 13.3711 5.75952 14.0625 7.5 14.0625ZM6.54375 10.1906H5.87813L3.75 8.0625L4.41563 7.39687L6.21563 9.19688L10.1531 5.25L10.8188 5.91563L6.54375 10.1906Z" fill="#16AA37"/>
</g>
<defs>
<clipPath id="clip0_1508_4242">
<rect width="15" height="15" fill="white"/>
</clipPath>
</defs>
</svg>
