<svg width="19" height="20" viewBox="0 0 19 20" fill="none" xmlns="http://www.w3.org/2000/svg">
<path d="M9.5 0C4.25442 0 0 4.47833 0 10C0 15.5217 4.25442 20 9.5 20C14.7456 20 19 15.5217 19 10C19 4.47833 14.748 0 9.5 0ZM4.68667 10.3358L4.72704 10.2683L7.19942 6.19833C7.2077 6.18495 7.21924 6.17416 7.23284 6.16708C7.24643 6.16 7.26159 6.1569 7.27672 6.15809C7.29184 6.15928 7.30639 6.16473 7.31883 6.17386C7.33128 6.18299 7.34116 6.19547 7.34746 6.21C7.75913 7.18417 8.11696 8.39583 7.94913 9.15C7.87946 9.46 7.68392 9.88 7.46304 10.2683C7.43471 10.3251 7.4038 10.3805 7.37042 10.4342C7.36242 10.4461 7.35172 10.4558 7.33929 10.4624C7.32685 10.4689 7.31307 10.4721 7.29917 10.4717H4.76029C4.74514 10.4719 4.7302 10.4678 4.71707 10.4599C4.70395 10.4519 4.69311 10.4403 4.68572 10.4264C4.67834 10.4125 4.67467 10.3967 4.67511 10.3808C4.67556 10.3648 4.6801 10.3493 4.68825 10.3358H4.68667ZM15.7019 11.7358C15.7021 11.7536 15.6973 11.7711 15.6882 11.7861C15.679 11.801 15.6659 11.8128 15.6505 11.82C15.4581 11.9058 14.8034 12.2242 14.531 12.6217C13.836 13.64 13.3055 15.0967 12.118 15.0967H7.16696C6.74893 15.096 6.33512 15.0086 5.94918 14.8396C5.56324 14.6705 5.21274 14.423 4.9177 14.1113C4.62266 13.7996 4.38887 13.4297 4.22969 13.0228C4.07051 12.6159 3.98906 12.18 3.99 11.74V11.68C3.99 11.6317 4.028 11.5917 4.0755 11.5917H6.83446C6.88988 11.5917 6.92946 11.6442 6.9255 11.7017C6.90492 11.89 6.93896 12.0842 7.02446 12.26C7.18754 12.61 7.52796 12.8283 7.8945 12.8283H9.26092V11.7058H7.90875C7.89291 11.7057 7.87741 11.7009 7.86392 11.6922C7.85044 11.6834 7.83949 11.6709 7.83224 11.6561C7.82499 11.6413 7.82172 11.6246 7.82279 11.608C7.82386 11.5914 7.82922 11.5753 7.83829 11.5617L7.88817 11.4867C8.01483 11.2942 8.19771 10.9983 8.37979 10.66C8.50329 10.4317 8.62363 10.1883 8.72021 9.94333C8.73921 9.9 8.75425 9.85417 8.77167 9.81C8.79779 9.73167 8.82471 9.65833 8.84371 9.58583C8.86235 9.52436 8.87951 9.46239 8.89517 9.4C8.94029 9.19167 8.95929 8.97167 8.95929 8.74417C8.95929 8.65417 8.95613 8.56 8.94821 8.47167C8.94425 8.37417 8.93237 8.27583 8.92129 8.17833C8.91244 8.0911 8.89976 8.00434 8.88329 7.91833C8.86199 7.78737 8.83611 7.65729 8.80571 7.52833L8.79463 7.47833C8.77087 7.38833 8.75029 7.30333 8.72338 7.21417C8.64799 6.94034 8.56136 6.67008 8.46371 6.40417C8.42969 6.30414 8.39219 6.20546 8.35129 6.10833C8.29429 5.96 8.23571 5.82583 8.18267 5.7C8.15627 5.64609 8.13146 5.59134 8.10825 5.53583C8.0825 5.47595 8.05531 5.41676 8.02671 5.35833C8.00771 5.31417 7.98475 5.27167 7.96971 5.23167L7.80267 4.90833C7.77971 4.86417 7.81771 4.81 7.86363 4.82417L8.90863 5.12167H8.91654L9.0535 5.16333L9.2055 5.20833L9.26092 5.22417V4.57167C9.26092 4.25583 9.5 4 9.79846 4C9.86893 3.9998 9.93872 4.01461 10.0036 4.04354C10.0685 4.07247 10.1272 4.11492 10.1761 4.16833C10.2772 4.27565 10.334 4.42054 10.3344 4.57167V5.54167L10.446 5.57417C10.454 5.57833 10.4635 5.5825 10.4706 5.58833C10.4975 5.60833 10.5371 5.64 10.587 5.68C10.6265 5.71167 10.6685 5.75167 10.7176 5.79417C10.8739 5.92823 11.0255 6.06833 11.172 6.21417C11.3414 6.38 11.5314 6.57417 11.7135 6.79C11.765 6.85167 11.814 6.91167 11.8655 6.97833C11.9146 7.04417 11.97 7.10833 12.0159 7.17167C12.0785 7.25833 12.1426 7.34833 12.202 7.44167C12.2281 7.48583 12.2605 7.53167 12.2851 7.57583C12.3611 7.69417 12.426 7.81583 12.4885 7.93833C12.5155 7.99417 12.5416 8.05583 12.5645 8.11583C12.635 8.28 12.6904 8.44583 12.7245 8.61417C12.7357 8.64989 12.7434 8.68676 12.7474 8.72417V8.7325C12.7585 8.78 12.7625 8.8325 12.7664 8.88583C12.7887 9.13214 12.7601 9.38061 12.6825 9.61417C12.658 9.68417 12.635 9.75583 12.6049 9.82583C12.5455 9.9675 12.4775 10.1117 12.3959 10.2442C12.369 10.2942 12.3365 10.3458 12.3065 10.3958C12.2724 10.4483 12.236 10.4983 12.2059 10.5458C12.1624 10.6089 12.1167 10.6704 12.069 10.73C12.027 10.79 11.985 10.85 11.9375 10.9042C11.8734 10.9858 11.8109 11.0625 11.7436 11.1358C11.7056 11.1842 11.6644 11.2342 11.6201 11.2775C11.5789 11.3275 11.5346 11.3717 11.4966 11.4117C11.4301 11.4817 11.3778 11.5342 11.3319 11.58L11.2235 11.6817C11.2084 11.6976 11.1879 11.7066 11.1665 11.7067H10.3344V12.8283H11.381C11.6145 12.8283 11.837 12.7417 12.0175 12.58C12.0785 12.5242 12.346 12.28 12.6635 11.9117C12.6738 11.8991 12.6877 11.8904 12.7031 11.8867L15.5927 11.0058C15.6054 11.002 15.6187 11.0013 15.6317 11.0037C15.6447 11.0062 15.657 11.0118 15.6676 11.0202C15.6781 11.0285 15.6868 11.0393 15.6927 11.0517C15.6987 11.0641 15.7018 11.0778 15.7019 11.0917V11.7358Z" fill="#7F8DA7"/>
</svg>
