<svg width="16" height="17" viewBox="0 0 16 17" fill="none" xmlns="http://www.w3.org/2000/svg">
<g clip-path="url(#clip0_1482_3029)">
<path d="M11.439 5.24215C11.1791 4.98209 11.0268 4.63348 11.0128 4.26603C10.9988 3.89858 11.124 3.53938 11.3634 3.26027C11.3832 3.23706 11.3935 3.20722 11.3922 3.17674C11.3909 3.14625 11.3782 3.11738 11.3565 3.0959L9.97746 1.71527C9.95467 1.69249 9.92375 1.67969 9.89152 1.67969C9.85929 1.67969 9.82838 1.69249 9.80559 1.71527L7.60746 3.9134C7.52636 3.99448 7.46526 4.09334 7.42902 4.20215C7.39292 4.3112 7.3319 4.41035 7.2508 4.49171C7.16971 4.57308 7.07077 4.63443 6.96184 4.6709C6.85296 4.70718 6.754 4.76826 6.67277 4.84933L1.03558 10.4853C1.0128 10.5081 1 10.539 1 10.5712C1 10.6034 1.0128 10.6344 1.03558 10.6571L2.41465 12.0362C2.43613 12.0579 2.465 12.0706 2.49549 12.0719C2.52597 12.0732 2.55581 12.0629 2.57902 12.0431C2.85808 11.8034 3.21735 11.678 3.58493 11.692C3.9525 11.7059 4.30125 11.8582 4.56135 12.1183C4.82145 12.3784 4.97371 12.7271 4.98765 13.0947C5.00159 13.4623 4.87618 13.8215 4.63652 14.1006C4.61672 14.1238 4.60643 14.1536 4.6077 14.1841C4.60898 14.2146 4.62173 14.2435 4.6434 14.265L6.02246 15.644C6.04526 15.6668 6.07617 15.6796 6.1084 15.6796C6.14063 15.6796 6.17154 15.6668 6.19434 15.644L11.8318 10.0068C11.9129 9.92561 11.974 9.82665 12.0103 9.71777C12.0464 9.60872 12.1074 9.50957 12.1885 9.42821C12.2696 9.34684 12.3685 9.28549 12.4775 9.24902C12.5863 9.21278 12.6851 9.15169 12.7662 9.07059L14.9643 6.87246C14.9871 6.84966 14.9999 6.81875 14.9999 6.78652C14.9999 6.75429 14.9871 6.72338 14.9643 6.70059L13.5853 5.32152C13.5638 5.29985 13.5349 5.2871 13.5044 5.28583C13.474 5.28455 13.4441 5.29485 13.4209 5.31465C13.1422 5.55445 12.7832 5.68021 12.4158 5.66676C12.0483 5.65332 11.6995 5.50168 11.439 5.24215V5.24215Z" stroke="black" stroke-width="1.3" stroke-miterlimit="10"/>
<path d="M7.82844 5.06867L7.3125 4.55273M9.20406 6.4443L8.86 6.10055M10.5797 7.82023L10.2359 7.47617M12.1275 9.36773L11.6116 8.8518" stroke="black" stroke-width="1.3" stroke-miterlimit="10" stroke-linecap="round"/>
</g>
<defs>
<clipPath id="clip0_1482_3029">
<rect width="16" height="16" fill="white" transform="translate(0 0.679688)"/>
</clipPath>
</defs>
</svg>
