<svg width="42" height="42" viewBox="0 0 42 42" fill="none" xmlns="http://www.w3.org/2000/svg">
<path d="M16.6578 1.09731e-06C14.0506 0.00139461 11.4801 0.614407 9.15296 1.78977C6.82579 2.96513 4.8068 4.67006 3.25829 6.76752C1.70977 8.86498 0.674919 11.2965 0.236902 13.8666C-0.201115 16.4367 -0.0300792 19.0737 0.736264 21.5656C1.50261 24.0576 2.84288 26.3351 4.64936 28.2149C6.45585 30.0948 8.67815 31.5246 11.1377 32.3895C13.5972 33.2544 16.2253 33.5302 18.8108 33.1948C21.3963 32.8594 23.867 31.9222 26.0244 30.4583L36.3244 40.75C36.6105 41.057 36.9555 41.3033 37.3388 41.4741C37.7222 41.6449 38.136 41.7367 38.5556 41.7441C38.9752 41.7515 39.392 41.6743 39.7811 41.5172C40.1702 41.36 40.5237 41.1261 40.8204 40.8293C41.1172 40.5326 41.3511 40.1791 41.5083 39.79C41.6654 39.4009 41.7426 38.9841 41.7352 38.5645C41.7278 38.1449 41.636 37.7311 41.4652 37.3478C41.2944 36.9644 41.0481 36.6194 40.7411 36.3333L30.4494 26.0333C32.1521 23.5274 33.1395 20.6048 33.3054 17.5797C33.4714 14.5547 32.8097 11.5416 31.3914 8.86442C29.9732 6.18728 27.852 3.94735 25.256 2.38549C22.66 0.823622 19.6874 -0.00109809 16.6578 1.09731e-06ZM6.24109 16.6667C6.24109 13.904 7.33856 11.2545 9.29206 9.30097C11.2456 7.34747 13.8951 6.25 16.6578 6.25C19.4204 6.25 22.07 7.34747 24.0235 9.30097C25.977 11.2545 27.0744 13.904 27.0744 16.6667C27.0744 19.4293 25.977 22.0789 24.0235 24.0324C22.07 25.9859 19.4204 27.0833 16.6578 27.0833C13.8951 27.0833 11.2456 25.9859 9.29206 24.0324C7.33856 22.0789 6.24109 19.4293 6.24109 16.6667Z" fill="#19224C"/>
</svg>
