<svg width="56" height="59" viewBox="0 0 56 59" fill="none" xmlns="http://www.w3.org/2000/svg">
<path d="M5.08271 25.6126C5.08271 20.1783 7.2247 14.9666 11.0375 11.1239C14.8502 7.2813 20.0215 5.12253 25.4135 5.12253C30.8056 5.12253 35.9768 7.2813 39.7896 11.1239C43.6024 14.9666 45.7444 20.1783 45.7444 25.6126C45.7444 31.047 43.6024 36.2587 39.7896 40.1013C35.9768 43.944 30.8056 46.1028 25.4135 46.1028C20.0215 46.1028 14.8502 43.944 11.0375 40.1013C7.2247 36.2587 5.08271 31.047 5.08271 25.6126ZM55.2567 54.6266L43.8841 43.1675C48.3448 38.4287 50.8301 32.1447 50.8271 25.6126C50.8271 11.4668 39.4494 0 25.4135 0C11.3776 0 0 11.4668 0 25.6126C0 39.7585 11.3776 51.2253 25.4135 51.2253C30.6534 51.229 35.7646 49.59 40.039 46.5356L51.6606 58.2508C52.6543 59.2497 54.263 59.2497 55.2567 58.2508C56.2478 57.2494 56.2478 55.6281 55.2567 54.6266Z" fill="#7F8DA7" fill-opacity="0.6"/>
</svg>
