<svg width="16" height="17" viewBox="0 0 16 17" fill="none" xmlns="http://www.w3.org/2000/svg">
<path d="M0.5 2.67969H15.5V3.67969H0.5V2.67969Z" fill="black"/>
<path d="M3 3.67969V11.6797H13V3.67969H3ZM2 2.67969H14V12.1797C14 12.3123 13.9473 12.4395 13.8536 12.5332C13.7598 12.627 13.6326 12.6797 13.5 12.6797H2.5C2.36739 12.6797 2.24021 12.627 2.14645 12.5332C2.05268 12.4395 2 12.3123 2 12.1797V2.67969Z" fill="black"/>
<path d="M5.03681 15.6796H3.88281L6.14281 11.7646L7.00881 12.2646L5.03681 15.6796ZM12.1288 15.6796H10.9748L9.00281 12.2646L9.86881 11.7646L12.1288 15.6796Z" fill="black"/>
</svg>
