<svg width="66" height="65" viewBox="0 0 66 65" fill="none" xmlns="http://www.w3.org/2000/svg">
<circle cx="33.1647" cy="32.2233" r="32.2233" fill="#C837AB" fill-opacity="0.2"/>
<path d="M33.6533 27.3623C31.2368 27.3593 29.2623 29.3288 29.2592 31.7453C29.2561 34.1618 31.2257 36.1363 33.6421 36.1394C36.0586 36.1424 38.0332 34.1729 38.0362 31.7564C38.0393 29.34 36.0698 27.3654 33.6533 27.3623ZM46.81 31.7676C46.8123 29.9503 46.831 28.1495 46.7313 26.3353C46.6319 24.2282 46.1536 22.3576 44.6148 20.8149C43.0727 19.2689 41.2066 18.7892 39.0998 18.6844C37.2826 18.5801 35.4817 18.5942 33.6677 18.5919C31.8504 18.5896 30.0496 18.5709 28.2355 18.6706C26.1283 18.77 24.2578 19.2483 22.7151 20.7871C21.169 22.3292 20.6893 24.1952 20.5846 26.3021C20.4802 28.1193 20.4944 29.9201 20.4921 31.7341C20.4898 33.5481 20.471 35.3522 20.5708 37.1664C20.6701 39.2735 21.1484 41.1441 22.6872 42.6868C24.2293 44.2328 26.0954 44.7126 28.2023 44.8173C30.0194 44.9217 31.8203 44.9075 33.6343 44.9098C35.4516 44.9121 37.2524 44.9309 39.0665 44.8311C41.1737 44.7317 43.0443 44.2534 44.587 42.7146C46.133 41.1726 46.6127 39.3065 46.7175 37.1996C46.8251 35.3857 46.8076 33.5849 46.81 31.7676ZM33.6391 38.5032C29.9025 38.4984 26.8907 35.4789 26.8954 31.7423C26.9002 28.0056 29.9196 24.9938 33.6563 24.9985C37.3929 25.0033 40.4048 28.0228 40.4 31.7594C40.3953 35.4961 37.3758 38.5079 33.6391 38.5032ZM40.6835 26.3079C39.8111 26.3068 39.1074 25.6014 39.1085 24.7289C39.1096 23.8565 39.8151 23.1529 40.6875 23.154C41.5599 23.1551 42.2636 23.8605 42.2625 24.7329C42.2625 24.9401 42.2216 25.1452 42.1422 25.3366C42.0628 25.5279 41.9464 25.7017 41.7998 25.848C41.6531 25.9943 41.479 26.1102 41.2874 26.1892C41.0959 26.2681 40.8907 26.3084 40.6835 26.3079Z" fill="#C837AB"/>
</svg>
