<svg width="21" height="21" viewBox="0 0 21 21" fill="none" xmlns="http://www.w3.org/2000/svg">
<path d="M20.8111 5.56337L16.9929 9.8967C16.8736 10.0396 16.7244 10.1111 16.5455 10.1111C16.4659 10.1111 16.383 10.0923 16.2969 10.0547C16.0384 9.92679 15.9091 9.70486 15.9091 9.38889V7.22222H14.3182C12.1771 7.22222 10.7254 7.71499 9.96307 8.70052C9.17424 9.73119 8.92898 11.5104 9.22727 14.0382C9.24716 14.2112 9.18087 14.3391 9.02841 14.4219C8.97538 14.4369 8.93561 14.4444 8.90909 14.4444C8.80303 14.4444 8.71686 14.3955 8.65057 14.2977C8.58428 14.1924 8.51468 14.0758 8.44176 13.9479C8.36884 13.82 8.23793 13.5624 8.04901 13.1749C7.86009 12.7875 7.69602 12.4132 7.55682 12.0521C7.41761 11.691 7.29001 11.2622 7.17401 10.7656C7.058 10.2691 7 9.81018 7 9.38889C7 9.02025 7.0116 8.67795 7.0348 8.36198C7.058 8.04601 7.1044 7.70746 7.17401 7.34635C7.24361 6.98524 7.33641 6.65422 7.45241 6.3533C7.56842 6.05237 7.7242 5.7458 7.91974 5.43359C8.11529 5.12138 8.34233 4.84303 8.60085 4.59852C8.85937 4.35402 9.17259 4.12268 9.54048 3.90451C9.90838 3.68634 10.321 3.50391 10.7784 3.3572C11.2358 3.2105 11.7644 3.09578 12.3643 3.01302C12.9643 2.93027 13.6155 2.88889 14.3182 2.88889H15.9091V0.722222C15.9091 0.40625 16.0384 0.184317 16.2969 0.0564236C16.383 0.0188079 16.4659 0 16.5455 0C16.7178 0 16.867 0.0714699 16.9929 0.21441L20.8111 4.54774C20.937 4.69068 21 4.85995 21 5.05556C21 5.25116 20.937 5.42043 20.8111 5.56337Z" fill="black"/>
<path d="M17 11.6671V18.0004C17 19.105 16.1046 20.0004 15 20.0004H3C1.89543 20.0004 1 19.105 1 18.0004V4.22266C1 3.11809 1.89543 2.22266 3 2.22266H7.5" stroke="black" stroke-width="1.6" stroke-linecap="round"/>
</svg>
