<svg width="45" height="45" viewBox="0 0 45 45" fill="none" xmlns="http://www.w3.org/2000/svg">
<rect width="45" height="45" rx="6" fill="#35B947" fill-opacity="0.1"/>
<circle cx="22.0381" cy="23.0396" r="8.33498" fill="white"/>
<path d="M30.1607 17.8407C27.2807 13.4007 21.4007 12.0807 16.8407 14.8407C12.4007 17.6007 10.9607 23.6007 13.8407 28.0407L14.0807 28.4007L13.1207 32.0007L16.7207 31.0407L17.0807 31.2807C18.6407 32.1207 20.3207 32.6007 22.0007 32.6007C23.8007 32.6007 25.6007 32.1207 27.1607 31.1607C31.6007 28.2807 32.9207 22.4007 30.1607 17.8407V17.8407ZM27.6407 27.0807C27.1607 27.8007 26.5607 28.2807 25.7207 28.4007C25.2407 28.4007 24.6407 28.6407 22.2407 27.6807C20.2007 26.7207 18.5207 25.1607 17.3207 23.3607C16.6007 22.5207 16.2407 21.4407 16.1207 20.3607C16.1207 19.4007 16.4807 18.5607 17.0807 17.9607C17.3207 17.7207 17.5607 17.6007 17.8007 17.6007H18.4007C18.6407 17.6007 18.8807 17.6007 19.0007 18.0807C19.2407 18.6807 19.8407 20.1207 19.8407 20.2407C19.9607 20.3607 19.9607 20.6007 19.8407 20.7207C19.9607 20.9607 19.8407 21.2007 19.7207 21.3207C19.6007 21.4407 19.4807 21.6807 19.3607 21.8007C19.1207 21.9207 19.0007 22.1607 19.1207 22.4007C19.6007 23.1207 20.2007 23.8407 20.8007 24.4407C21.5207 25.0407 22.2407 25.5207 23.0807 25.8807C23.3207 26.0007 23.5607 26.0007 23.6807 25.7607C23.8007 25.5207 24.4007 24.9207 24.6407 24.6807C24.8807 24.4407 25.0007 24.4407 25.2407 24.5607L27.1607 25.5207C27.4007 25.6407 27.6407 25.7607 27.7607 25.8807C27.8807 26.2407 27.8807 26.7207 27.6407 27.0807V27.0807Z" fill="#35B947"/>
</svg>
