<svg width="28" height="28" viewBox="0 0 28 28" fill="none" xmlns="http://www.w3.org/2000/svg">
<path d="M24.4615 17.1654V20.875C24.4615 22.0113 24.0722 22.9829 23.2936 23.7897C22.5149 24.5966 21.5773 25 20.4808 25H8.98077C7.88421 25 6.94661 24.5966 6.16797 23.7897C5.38932 22.9829 5 22.0113 5 20.875V8.95833C5 7.82205 5.38932 6.85048 6.16797 6.04362C6.94661 5.23676 7.88421 4.83333 8.98077 4.83333H12.5054C12.6252 4.83333 12.7289 4.87869 12.8164 4.9694C12.904 5.06011 12.9477 5.16753 12.9477 5.29167C12.9477 5.54948 12.8279 5.70226 12.5883 5.75C11.8788 5.99826 11.266 6.28472 10.75 6.60938C10.6578 6.64757 10.5841 6.66667 10.5289 6.66667H8.98077C8.3726 6.66667 7.85196 6.89106 7.41887 7.33984C6.98578 7.78863 6.76923 8.32812 6.76923 8.95833V20.875C6.76923 21.5052 6.98578 22.0447 7.41887 22.4935C7.85196 22.9423 8.3726 23.1667 8.98077 23.1667H20.4808C21.0889 23.1667 21.6096 22.9423 22.0427 22.4935C22.4758 22.0447 22.6923 21.5052 22.6923 20.875V17.8099C22.6923 17.6285 22.7752 17.49 22.9411 17.3945C23.1991 17.2704 23.4479 17.0938 23.6875 16.8646C23.8349 16.7118 23.9962 16.6736 24.1713 16.75C24.3648 16.8359 24.4615 16.9744 24.4615 17.1654ZM27.7374 10.0612L22.4297 15.5612C22.2638 15.7426 22.0565 15.8333 21.8077 15.8333C21.6971 15.8333 21.5819 15.8095 21.4621 15.7617C21.1028 15.5994 20.9231 15.3177 20.9231 14.9167V12.1667H18.7115C15.7352 12.1667 13.7172 12.7921 12.6575 14.043C11.5609 15.3511 11.22 17.6094 11.6346 20.8177C11.6623 21.0373 11.5701 21.1997 11.3582 21.3047C11.2845 21.3238 11.2292 21.3333 11.1923 21.3333C11.0449 21.3333 10.9251 21.2713 10.8329 21.1471C10.7408 21.0135 10.644 20.8655 10.5427 20.7031C10.4413 20.5408 10.2593 20.2138 9.99669 19.722C9.73407 19.2303 9.50601 18.7552 9.3125 18.2969C9.11899 17.8385 8.94161 17.2943 8.78035 16.6641C8.61909 16.0339 8.53846 15.4514 8.53846 14.9167C8.53846 14.4488 8.55459 14.0143 8.58684 13.6133C8.61909 13.2122 8.68359 12.7825 8.78035 12.3242C8.8771 11.8659 9.00611 11.4457 9.16737 11.0638C9.32863 10.6819 9.54517 10.2928 9.81701 9.89648C10.0888 9.50022 10.4045 9.14692 10.7638 8.83659C11.1232 8.52626 11.5586 8.23264 12.07 7.95573C12.5814 7.67882 13.1551 7.44727 13.7909 7.26107C14.4267 7.07487 15.1616 6.92925 15.9955 6.82422C16.8294 6.71918 17.7348 6.66667 18.7115 6.66667H20.9231V3.91667C20.9231 3.51562 21.1028 3.23394 21.4621 3.07161C21.5819 3.02387 21.6971 3 21.8077 3C22.0473 3 22.2546 3.09071 22.4297 3.27213L27.7374 8.77214C27.9125 8.95356 28 9.1684 28 9.41667C28 9.66493 27.9125 9.87977 27.7374 10.0612Z" fill="#767676"/>
</svg>
