<svg width="45" height="45" viewBox="0 0 45 45" fill="none" xmlns="http://www.w3.org/2000/svg">
<rect width="45" height="45" rx="6" fill="#1D9BF0" fill-opacity="0.1"/>
<path d="M33.6435 15.9371C32.8085 16.3071 31.9115 16.5571 30.9685 16.6701C31.9415 16.0879 32.6694 15.1715 33.0165 14.0921C32.1023 14.6351 31.1018 15.0173 30.0585 15.2221C29.3569 14.4729 28.4276 13.9764 27.4148 13.8096C26.4021 13.6427 25.3626 13.8149 24.4577 14.2993C23.5529 14.7838 22.8333 15.5534 22.4107 16.4888C21.988 17.4241 21.886 18.4728 22.1205 19.4721C20.2682 19.3791 18.4561 18.8976 16.8019 18.059C15.1477 17.2203 13.6883 16.0432 12.5185 14.6041C12.1185 15.2941 11.8885 16.0941 11.8885 16.9461C11.8881 17.7131 12.0769 18.4683 12.4384 19.1448C12.7998 19.8213 13.3227 20.3981 13.9605 20.8241C13.2208 20.8005 12.4974 20.6007 11.8505 20.2411V20.3011C11.8504 21.3768 12.2225 22.4195 12.9037 23.2521C13.5848 24.0847 14.5331 24.656 15.5875 24.8691C14.9013 25.0548 14.1818 25.0821 13.4835 24.9491C13.781 25.8747 14.3605 26.6841 15.1409 27.264C15.9212 27.8439 16.8634 28.1653 17.8355 28.1831C16.1853 29.4785 14.1474 30.1812 12.0495 30.1781C11.6779 30.1782 11.3066 30.1565 10.9375 30.1131C13.067 31.4822 15.5458 32.2089 18.0775 32.2061C26.6475 32.2061 31.3325 25.1081 31.3325 18.9521C31.3325 18.7521 31.3275 18.5501 31.3185 18.3501C32.2298 17.6911 33.0164 16.875 33.6415 15.9401L33.6435 15.9371V15.9371Z" fill="#1D9BF0"/>
</svg>
