<svg width="45" height="45" viewBox="0 0 45 45" fill="none" xmlns="http://www.w3.org/2000/svg">
<rect width="45" height="45" rx="6" fill="#0673E7" fill-opacity="0.1"/>
<path d="M27 14.5005C27 14.3679 26.9473 14.2408 26.8536 14.147C26.7598 14.0532 26.6326 14.0005 26.5 14.0005H24C22.7411 13.9378 21.5086 14.3759 20.5717 15.2191C19.6348 16.0623 19.0698 17.242 19 18.5005V21.2005H16.5C16.3674 21.2005 16.2402 21.2532 16.1464 21.347C16.0527 21.4408 16 21.5679 16 21.7005V24.3005C16 24.4332 16.0527 24.5603 16.1464 24.6541C16.2402 24.7479 16.3674 24.8005 16.5 24.8005H19V31.5005C19 31.6331 19.0527 31.7603 19.1464 31.8541C19.2402 31.9479 19.3674 32.0005 19.5 32.0005H22.5C22.6326 32.0005 22.7598 31.9479 22.8536 31.8541C22.9473 31.7603 23 31.6331 23 31.5005V24.8005H25.62C25.7312 24.8021 25.8397 24.7666 25.9285 24.6996C26.0172 24.6326 26.0811 24.5379 26.11 24.4305L26.83 21.8305C26.8499 21.7567 26.8526 21.6792 26.8378 21.6041C26.8231 21.5291 26.7913 21.4584 26.7449 21.3975C26.6985 21.3367 26.6388 21.2872 26.5704 21.2531C26.5019 21.219 26.4265 21.201 26.35 21.2005H23V18.5005C23.0249 18.253 23.1411 18.0237 23.326 17.8572C23.5109 17.6908 23.7512 17.5993 24 17.6005H26.5C26.6326 17.6005 26.7598 17.5479 26.8536 17.4541C26.9473 17.3603 27 17.2331 27 17.1005V14.5005Z" fill="#0673E7"/>
</svg>
