<svg width="45" height="45" viewBox="0 0 45 45" fill="none" xmlns="http://www.w3.org/2000/svg">
<rect width="45" height="45" rx="6" fill="#0A66C2" fill-opacity="0.1"/>
<path d="M23 31.9995H19V19.9995H23V21.9995C23.4211 21.4638 23.9555 21.0279 24.565 20.7231C25.1744 20.4183 25.8438 20.2521 26.525 20.2365C27.7164 20.2431 28.8565 20.7219 29.6954 21.5679C30.5343 22.414 31.0035 23.5581 31 24.7495V31.9995H27V25.2495C26.9226 24.7091 26.6527 24.2148 26.2398 23.8576C25.8269 23.5004 25.2989 23.3043 24.753 23.3055C24.5087 23.3132 24.2684 23.3702 24.0466 23.4731C23.8249 23.576 23.6262 23.7226 23.4624 23.9041C23.2987 24.0857 23.1734 24.2984 23.0939 24.5296C23.0144 24.7608 22.9825 25.0057 23 25.2495V31.9995ZM17 31.9995H13V19.9995H17V31.9995ZM15 17.9995C14.4696 17.9995 13.9609 17.7888 13.5858 17.4137C13.2107 17.0387 13 16.5299 13 15.9995C13 15.4691 13.2107 14.9604 13.5858 14.5853C13.9609 14.2102 14.4696 13.9995 15 13.9995C15.5304 13.9995 16.0391 14.2102 16.4142 14.5853C16.7893 14.9604 17 15.4691 17 15.9995C17 16.5299 16.7893 17.0387 16.4142 17.4137C16.0391 17.7888 15.5304 17.9995 15 17.9995Z" fill="#0A66C2"/>
</svg>
