<svg width="46" height="46" viewBox="0 0 46 46" fill="none" xmlns="http://www.w3.org/2000/svg">
<path d="M23.0002 3.83337C12.401 3.83337 3.8335 12.4009 3.8335 23C3.8335 33.5992 12.401 42.1667 23.0002 42.1667C33.5993 42.1667 42.1668 33.5992 42.1668 23C42.1668 12.4009 33.5993 3.83337 23.0002 3.83337ZM31.2418 31.2417C31.0645 31.4194 30.8539 31.5604 30.622 31.6565C30.3902 31.7527 30.1416 31.8022 29.8906 31.8022C29.6396 31.8022 29.391 31.7527 29.1591 31.6565C28.9273 31.5604 28.7166 31.4194 28.5393 31.2417L23.0002 25.7025L17.461 31.2417C17.1026 31.6001 16.6166 31.8014 16.1097 31.8014C15.6029 31.8014 15.1169 31.6001 14.7585 31.2417C14.4001 30.8833 14.1988 30.3973 14.1988 29.8905C14.1988 29.6395 14.2482 29.391 14.3443 29.1592C14.4403 28.9273 14.581 28.7167 14.7585 28.5392L20.2977 23L14.7585 17.4609C14.4001 17.1025 14.1988 16.6164 14.1988 16.1096C14.1988 15.6028 14.4001 15.1167 14.7585 14.7584C15.1169 14.4 15.6029 14.1987 16.1097 14.1987C16.6166 14.1987 17.1026 14.4 17.461 14.7584L23.0002 20.2975L28.5393 14.7584C28.7168 14.5809 28.9274 14.4402 29.1593 14.3441C29.3911 14.2481 29.6396 14.1987 29.8906 14.1987C30.1415 14.1987 30.39 14.2481 30.6219 14.3441C30.8537 14.4402 31.0644 14.5809 31.2418 14.7584C31.4193 14.9358 31.56 15.1465 31.6561 15.3783C31.7521 15.6102 31.8015 15.8587 31.8015 16.1096C31.8015 16.3606 31.7521 16.6091 31.6561 16.8409C31.56 17.0728 31.4193 17.2834 31.2418 17.4609L25.7027 23L31.2418 28.5392C31.9702 29.2675 31.9702 30.4942 31.2418 31.2417Z" fill="#E22525"/>
</svg>
