<svg width="50" height="50" viewBox="0 0 50 50" fill="none" xmlns="http://www.w3.org/2000/svg">
<path d="M44.3388 17.2422L31.9413 15.4404L26.3993 4.2051C26.248 3.89748 25.9989 3.64846 25.6913 3.49709C24.9198 3.11623 23.9823 3.43361 23.5966 4.2051L18.0546 15.4404L5.65715 17.2422C5.31535 17.291 5.00285 17.4522 4.7636 17.6963C4.47435 17.9936 4.31496 18.3936 4.32045 18.8083C4.32594 19.2231 4.49587 19.6187 4.79289 19.9082L13.7626 28.6533L11.6435 41.002C11.5938 41.2892 11.6256 41.5847 11.7352 41.8548C11.8449 42.1249 12.0281 42.3589 12.2639 42.5302C12.4998 42.7015 12.779 42.8033 13.0697 42.824C13.3605 42.8448 13.6513 42.7836 13.9091 42.6475L24.998 36.8174L36.0868 42.6475C36.3896 42.8086 36.7411 42.8623 37.0781 42.8037C37.9277 42.6572 38.4989 41.8516 38.3525 41.002L36.2333 28.6533L45.203 19.9082C45.4472 19.669 45.6083 19.3565 45.6572 19.0147C45.789 18.1602 45.1933 17.3692 44.3388 17.2422Z" fill="#F1B50A"/>
</svg>
