<svg width="20" height="20" viewBox="0 0 20 20" fill="none" xmlns="http://www.w3.org/2000/svg">
<path d="M19.0858 7.12651L13.2615 6.24011L10.6578 0.712749C10.5867 0.561413 10.4697 0.438903 10.3252 0.364436C9.96279 0.177068 9.52235 0.333208 9.34113 0.712749L6.73751 6.24011L0.913201 7.12651C0.752625 7.15053 0.605813 7.2298 0.49341 7.34991C0.357521 7.49617 0.28264 7.69294 0.285221 7.89698C0.287802 8.10103 0.367633 8.29565 0.507174 8.43809L4.72114 12.7404L3.72557 18.8154C3.70222 18.9567 3.71716 19.1021 3.76868 19.235C3.8202 19.3678 3.90624 19.4829 4.01706 19.5672C4.12787 19.6515 4.25902 19.7016 4.39563 19.7118C4.53224 19.722 4.66884 19.6919 4.78996 19.6249L9.99949 16.7568L15.209 19.6249C15.3512 19.7042 15.5164 19.7306 15.6747 19.7018C16.0738 19.6297 16.3422 19.2334 16.2734 18.8154L15.2778 12.7404L19.4918 8.43809C19.6065 8.32038 19.6822 8.16664 19.7051 7.99849C19.7671 7.57811 19.4872 7.18897 19.0858 7.12651Z" fill="#F0BB00"/>
</svg>
