<svg width="9" height="9" viewBox="0 0 9 9" fill="none" xmlns="http://www.w3.org/2000/svg">
<path d="M4.5 0.75C2.42625 0.75 0.75 2.42625 0.75 4.5C0.75 6.57375 2.42625 8.25 4.5 8.25C6.57375 8.25 8.25 6.57375 8.25 4.5C8.25 2.42625 6.57375 0.75 4.5 0.75ZM6.1125 6.1125C6.07781 6.14726 6.0366 6.17484 5.99123 6.19366C5.94587 6.21248 5.89724 6.22217 5.84813 6.22217C5.79901 6.22217 5.75038 6.21248 5.70502 6.19366C5.65965 6.17484 5.61844 6.14726 5.58375 6.1125L4.5 5.02875L3.41625 6.1125C3.34613 6.18262 3.25103 6.22201 3.15187 6.22201C3.05272 6.22201 2.95762 6.18262 2.8875 6.1125C2.81738 6.04238 2.77799 5.94728 2.77799 5.84813C2.77799 5.79903 2.78766 5.75041 2.80645 5.70505C2.82524 5.65968 2.85278 5.61847 2.8875 5.58375L3.97125 4.5L2.8875 3.41625C2.81738 3.34613 2.77799 3.25103 2.77799 3.15187C2.77799 3.05272 2.81738 2.95762 2.8875 2.8875C2.95762 2.81738 3.05272 2.77799 3.15187 2.77799C3.25103 2.77799 3.34613 2.81738 3.41625 2.8875L4.5 3.97125L5.58375 2.8875C5.61847 2.85278 5.65968 2.82524 5.70505 2.80645C5.75041 2.78766 5.79903 2.77799 5.84813 2.77799C5.89722 2.77799 5.94584 2.78766 5.9912 2.80645C6.03657 2.82524 6.07778 2.85278 6.1125 2.8875C6.14722 2.92222 6.17476 2.96343 6.19355 3.0088C6.21234 3.05416 6.22201 3.10278 6.22201 3.15187C6.22201 3.20097 6.21234 3.24959 6.19355 3.29495C6.17476 3.34032 6.14722 3.38153 6.1125 3.41625L5.02875 4.5L6.1125 5.58375C6.255 5.72625 6.255 5.96625 6.1125 6.1125Z" fill="#E22525"/>
</svg>
