<svg width="9" height="9" viewBox="0 0 9 9" fill="none" xmlns="http://www.w3.org/2000/svg">
<path fill-rule="evenodd" clip-rule="evenodd" d="M4.5 0.375C2.22188 0.375 0.375 2.22188 0.375 4.5C0.375 6.77812 2.22188 8.625 4.5 8.625C6.77812 8.625 8.625 6.77812 8.625 4.5C8.625 2.22188 6.77812 0.375 4.5 0.375ZM3 4.125C2.90054 4.125 2.80516 4.16451 2.73484 4.23484C2.66451 4.30516 2.625 4.40054 2.625 4.5C2.625 4.59946 2.66451 4.69484 2.73484 4.76516C2.80516 4.83549 2.90054 4.875 3 4.875H6C6.09946 4.875 6.19484 4.83549 6.26517 4.76516C6.33549 4.69484 6.375 4.59946 6.375 4.5C6.375 4.40054 6.33549 4.30516 6.26517 4.23484C6.19484 4.16451 6.09946 4.125 6 4.125H3Z" fill="#EDB106"/>
</svg>
