<svg width="46" height="46" viewBox="0 0 46 46" fill="none" xmlns="http://www.w3.org/2000/svg">
<path fill-rule="evenodd" clip-rule="evenodd" d="M23 43.125C28.3375 43.125 33.4564 41.0047 37.2305 37.2305C41.0047 33.4564 43.125 28.3375 43.125 23C43.125 17.6625 41.0047 12.5436 37.2305 8.76948C33.4564 4.99531 28.3375 2.875 23 2.875C17.6625 2.875 12.5436 4.99531 8.76948 8.76948C4.99531 12.5436 2.875 17.6625 2.875 23C2.875 28.3375 4.99531 33.4564 8.76948 37.2305C12.5436 41.0047 17.6625 43.125 23 43.125V43.125ZM20.0675 31.2512H18.0262L11.5 24.725L13.5413 22.6837L19.0613 28.2038L31.1362 16.1L33.1775 18.1412L20.0675 31.2512V31.2512Z" fill="#12BA84"/>
</svg>
