<svg width="108" height="80" viewBox="0 0 108 80" fill="none" xmlns="http://www.w3.org/2000/svg">
<rect x="28.2851" y="0.877523" width="88.1751" height="41.713" rx="5.35" transform="rotate(27.5708 28.2851 0.877523)" stroke="#0029FF" stroke-width="1.3"/>
<line x1="40.4873" y1="7.24813" x2="36.4591" y2="14.9628" stroke="#0029FF" stroke-width="1.3" stroke-linecap="round"/>
<line x1="32.1523" y1="23.2091" x2="28.5871" y2="30.0371" stroke="#0029FF" stroke-width="1.3" stroke-linecap="round"/>
<line x1="24.2812" y1="38.2833" x2="21.179" y2="44.2246" stroke="#0029FF" stroke-width="1.3" stroke-linecap="round"/>
<path d="M95.7305 49.4663C94.4854 51.8509 91.5873 52.7762 89.2674 51.5649C86.9474 50.3535 86.0503 47.4466 87.2954 45.062C88.5405 42.6774 91.4385 41.7521 93.7585 42.9634C96.0785 44.1748 96.9756 47.0817 95.7305 49.4663Z" stroke="#0029FF" stroke-width="1.3"/>
<line x1="47.3263" y1="21.7667" x2="73.193" y2="35.2727" stroke="#0029FF" stroke-width="1.3" stroke-linecap="round"/>
<line x1="41.7696" y1="32.4078" x2="61.5353" y2="42.7282" stroke="#0029FF" stroke-width="1.3" stroke-linecap="round"/>
<line x1="36.213" y1="43.0474" x2="48.1344" y2="49.272" stroke="#0029FF" stroke-width="1.3" stroke-linecap="round"/>
<rect x="7.31881" y="21.9759" width="90.3315" height="43.2899" rx="5.35" transform="rotate(3.44014 7.31881 21.9759)" fill="white" stroke="#0029FF" stroke-width="1.3"/>
<line x1="21.3819" y1="23.3039" x2="20.4256" y2="33.4348" stroke="#0029FF" stroke-width="1.3" stroke-linecap="round"/>
<line x1="19.8569" y1="42.5516" x2="19.4045" y2="50.0773" stroke="#0029FF" stroke-width="1.3" stroke-linecap="round"/>
<line x1="18.854" y1="59.2176" x2="18.4605" y2="65.7629" stroke="#0029FF" stroke-width="1.3" stroke-linecap="round"/>
<circle cx="83.7857" cy="40.3319" r="4.75179" transform="rotate(3.44014 83.7857 40.3319)" fill="white" stroke="#0029FF" stroke-width="1.3"/>
<line x1="33.0921" y1="35.1573" x2="62.1861" y2="36.9062" stroke="#0029FF" stroke-width="1.3" stroke-linecap="round"/>
<line x1="32.3851" y1="46.9224" x2="54.6164" y2="48.2588" stroke="#0029FF" stroke-width="1.3" stroke-linecap="round"/>
<line x1="31.6781" y1="58.6861" x2="45.086" y2="59.4921" stroke="#0029FF" stroke-width="1.3" stroke-linecap="round"/>
</svg>
