<svg width="23" height="23" viewBox="0 0 23 23" fill="none" xmlns="http://www.w3.org/2000/svg">
<path d="M14.8494 8.53125C14.0372 8.53125 13.3055 9.20256 13.3055 10.0528C13.3055 10.9031 14.0372 11.5752 14.8494 11.5752C15.6687 11.5752 16.3738 10.8959 16.3738 10.0528C16.3738 9.21047 15.6695 8.53125 14.8494 8.53125ZM14.0242 10.0528C14.0242 9.62303 14.4109 9.25 14.8494 9.25C15.2806 9.25 15.6551 9.61512 15.6551 10.0528C15.6551 10.4913 15.2799 10.8564 14.8494 10.8564C14.4109 10.8564 14.0242 10.4834 14.0242 10.0528ZM14.8494 12.1516C14.0451 12.1516 13.2969 12.8049 13.2969 13.6624C13.2969 14.5112 14.0357 15.1962 14.8494 15.1962C15.681 15.1962 16.3559 14.4933 16.3559 13.6624C16.3559 13.2625 16.1973 12.8788 15.9149 12.5956C15.6325 12.3124 15.2493 12.1527 14.8494 12.1516ZM14.0156 13.6624C14.0156 13.2398 14.403 12.8703 14.8494 12.8703C15.2778 12.8703 15.6371 13.2225 15.6371 13.6624C15.6371 14.1123 15.2684 14.4775 14.8494 14.4775C14.4124 14.4775 14.0156 14.0937 14.0156 13.6624ZM11.0874 15.0942H4.0135C3.78063 15.0942 3.59375 14.9339 3.59375 14.7348C3.59375 14.5357 3.78063 14.3754 4.0135 14.3754H11.0803C11.3124 14.3754 11.5 14.5357 11.5 14.7348C11.5072 14.9274 11.3131 15.0942 11.0874 15.0942ZM11.0874 13.6567H4.0135C3.78063 13.6567 3.59375 13.4964 3.59375 13.2973C3.59375 13.0982 3.78063 12.9379 4.0135 12.9379H11.0803C11.3124 12.9379 11.5 13.0982 11.5 13.2973C11.5072 13.4964 11.3131 13.6567 11.0874 13.6567ZM19.5938 12.2192H17.7819C17.4872 12.2192 17.2507 12.4563 17.2507 12.7503V14.563C17.2507 14.8577 17.4879 15.0942 17.7819 15.0942H19.5946C19.8892 15.0942 20.1257 14.857 20.1257 14.563V12.751C20.1259 12.6812 20.1123 12.6121 20.0857 12.5475C20.059 12.483 20.0199 12.4244 19.9706 12.375C19.9212 12.3257 19.8626 12.2865 19.7981 12.2599C19.7335 12.2333 19.6644 12.2197 19.5946 12.2199L19.5938 12.2192ZM7.27088 10.0629H4.22912C3.87766 10.0629 3.59375 9.75312 3.59375 9.36931C3.59375 8.9855 3.87766 8.67572 4.22912 8.67572H7.27088C7.62234 8.67572 7.90625 8.9855 7.90625 9.36931C7.90625 9.76103 7.62234 10.0629 7.27088 10.0629Z" fill="black"/>
<path d="M3.01156 5.75C1.72931 5.75 0.71875 6.80944 0.71875 8.08019V15.6386C0.71875 16.9093 1.72931 17.9688 3.01156 17.9688H13.3831C13.9186 17.9688 14.3268 17.5957 14.4555 17.1458C14.4793 17.0587 14.5304 16.9815 14.6013 16.9257C14.6722 16.8698 14.7591 16.8381 14.8494 16.8353C15.0262 16.8353 15.1901 16.956 15.2425 17.1429L15.2432 17.1451C15.3719 17.5957 15.7802 17.9688 16.3156 17.9688H19.9884C21.2707 17.9688 22.2812 16.9093 22.2812 15.6386V8.08019C22.2812 6.80944 21.2707 5.75 19.9884 5.75H16.3156C15.7802 5.75 15.3719 6.12303 15.2432 6.57297C15.2195 6.66005 15.1684 6.73721 15.0975 6.7931C15.0266 6.84899 14.9396 6.88066 14.8494 6.88347C14.7593 6.88207 14.6721 6.85126 14.6011 6.79572C14.5301 6.74019 14.4792 6.66297 14.4562 6.57584L14.4555 6.57369C14.3268 6.12303 13.9186 5.75 13.3831 5.75H3.01156ZM2.15625 8.08019C2.15625 7.57059 2.55444 7.1875 3.01156 7.1875H13.1502C13.2906 7.52258 13.5267 7.80883 13.8289 8.01044C14.1311 8.21205 14.4861 8.32006 14.8494 8.32097C15.2123 8.31899 15.5667 8.21054 15.8686 8.00905C16.1705 7.80757 16.4067 7.52191 16.5478 7.1875H19.9884C20.4456 7.1875 20.8438 7.57059 20.8438 8.08019V15.6386C20.8438 16.1482 20.4456 16.5312 19.9884 16.5312H16.5485C16.4081 16.1962 16.1721 15.9099 15.8698 15.7083C15.5676 15.5067 15.2127 15.3987 14.8494 15.3978C14.4864 15.3998 14.132 15.5082 13.8301 15.7097C13.5282 15.9112 13.2921 16.1968 13.151 16.5312H3.01156C2.55444 16.5312 2.15625 16.1482 2.15625 15.6386V8.08019Z" fill="black"/>
</svg>
