<svg width="20" height="20" viewBox="0 0 20 20" fill="none" xmlns="http://www.w3.org/2000/svg">
<path d="M12.4987 18.3327V16.666H15.832V8.33268H4.16536V11.666H2.4987V4.99935C2.4987 4.54102 2.66175 4.14879 2.98786 3.82268C3.31453 3.49602 3.70703 3.33268 4.16536 3.33268H4.9987V1.66602H6.66536V3.33268H13.332V1.66602H14.9987V3.33268H15.832C16.2904 3.33268 16.6829 3.49602 17.0095 3.82268C17.3356 4.14879 17.4987 4.54102 17.4987 4.99935V16.666C17.4987 17.1243 17.3356 17.5168 17.0095 17.8435C16.6829 18.1696 16.2904 18.3327 15.832 18.3327H12.4987ZM6.66536 19.9993L5.4987 18.8327L7.64453 16.666H0.832031V14.9993H7.64453L5.4987 12.8327L6.66536 11.666L10.832 15.8327L6.66536 19.9993ZM4.16536 6.66602H15.832V4.99935H4.16536V6.66602ZM4.16536 6.66602V4.99935V6.66602Z" fill="white"/>
</svg>
