<svg width="60" height="60" viewBox="0 0 60 60" fill="none" xmlns="http://www.w3.org/2000/svg">
<g clip-path="url(#clip0_159_11257)">
<path d="M23.9992 36H35.9992V18H44.9992L29.9992 3L14.9992 18H23.9992V36ZM58.0132 40.596C57.3832 39.924 53.1802 35.427 51.9802 34.254C51.1393 33.4479 50.0191 32.9985 48.8542 33H43.5832L52.7752 41.982H42.1432C41.9987 41.9793 41.8561 42.0148 41.7297 42.0849C41.6033 42.1549 41.4976 42.2571 41.4232 42.381L38.9752 48H21.0232L18.5752 42.381C18.5004 42.2575 18.3946 42.1557 18.2683 42.0857C18.142 42.0157 17.9996 41.98 17.8552 41.982H7.22321L16.4122 33H11.1442C9.95321 33 8.81621 33.477 8.01821 34.254C6.81821 35.43 2.61521 39.927 1.98521 40.596C0.51821 42.159 -0.28879 43.404 0.0952104 44.943L1.77821 54.165C2.16221 55.707 3.85121 56.973 5.53421 56.973H54.4702C56.1532 56.973 57.8422 55.707 58.2262 54.165L59.9092 44.943C60.2872 43.404 59.4832 42.159 58.0132 40.596V40.596Z" fill="#7F8186"/>
</g>
<defs>
<clipPath id="clip0_159_11257">
<rect width="60" height="60" fill="white"/>
</clipPath>
</defs>
</svg>
