<svg width="28" height="28" viewBox="0 0 28 28" fill="none" xmlns="http://www.w3.org/2000/svg">
<path d="M10.1213 3.12987L9.19617 3.44383C8.37246 3.72367 7.64073 4.24851 7.08711 4.95657C6.5335 5.66464 6.18102 6.52645 6.07119 7.4406C5.7266 10.3047 6.63439 13.6316 8.76356 17.4289C10.8874 21.2165 13.2008 23.641 15.7239 24.677C16.5347 25.0098 17.4181 25.0874 18.2692 24.9005C19.1204 24.7136 19.9034 24.27 20.5253 23.6226L21.2177 22.9007C21.6674 22.4328 21.9425 21.8068 21.9919 21.1392C22.0414 20.4715 21.8619 19.8076 21.4866 19.2708L19.6925 16.7021C19.4499 16.3554 19.1115 16.0984 18.7249 15.967C18.3383 15.8356 17.9228 15.8366 17.5366 15.9696L14.8905 16.8803L14.822 16.8953C14.5297 16.9458 13.8436 16.2814 12.9791 14.7394C12.0748 13.1263 11.8799 12.1772 12.1188 11.9272L13.4517 10.5602C13.9391 10.0606 14.2677 9.41106 14.3914 8.70253C14.515 7.99402 14.4276 7.26212 14.1413 6.60952L13.2546 4.59113C12.9879 3.98375 12.5232 3.5006 11.9469 3.23174C11.3707 2.96289 10.7223 2.92667 10.1226 3.12986L10.1213 3.12987ZM12.0818 5.17737L12.966 7.19579C13.1381 7.58716 13.1909 8.02627 13.1169 8.45142C13.043 8.87659 12.8459 9.26643 12.5535 9.56617L11.2167 10.9347C10.362 11.8252 10.6709 13.3156 11.8677 15.449C12.9929 17.4565 14.0076 18.4402 15.0809 18.2483L15.2411 18.2096L17.935 17.2844C18.0637 17.2398 18.2023 17.2394 18.3313 17.2831C18.4602 17.3269 18.5731 17.4125 18.6541 17.528L20.4482 20.0966C20.6361 20.365 20.7261 20.6971 20.7015 21.031C20.6769 21.3651 20.5393 21.6781 20.3145 21.9122L19.6207 22.6342C19.1764 23.0965 18.6172 23.4129 18.0095 23.5463C17.4016 23.6797 16.7708 23.6243 16.1919 23.3867C13.9777 22.4781 11.8657 20.2645 9.87754 16.7192C7.88404 13.1657 7.05424 10.1291 7.35711 7.61545C7.43548 6.96236 7.68722 6.34662 8.08271 5.84075C8.47819 5.33487 9.00094 4.95991 9.58942 4.76002L10.5145 4.44606C10.8144 4.34451 11.1387 4.36272 11.4269 4.49727C11.715 4.63183 11.9473 4.87356 12.0805 5.17738L12.0818 5.17737Z" fill="#767676"/>
</svg>
