<svg width="28" height="28" viewBox="0 0 28 28" fill="none" xmlns="http://www.w3.org/2000/svg">
<path d="M14.3998 15.5096C15.9738 15.5096 17.2498 14.1539 17.2498 12.4815C17.2498 10.8091 15.9738 9.45337 14.3998 9.45337C12.8258 9.45337 11.5498 10.8091 11.5498 12.4815C11.5498 14.1539 12.8258 15.5096 14.3998 15.5096Z" stroke="#8C8C8C" stroke-width="1.5" stroke-linecap="round" stroke-linejoin="round"/>
<path d="M14.4003 4.40625C12.3846 4.40625 10.4515 5.25701 9.02628 6.77135C7.601 8.2857 6.80029 10.3396 6.80029 12.4812C6.80029 14.3909 7.18219 15.6405 8.22529 17.0234L14.4003 24.5937L20.5752 17.0234C21.6183 15.6405 22.0002 14.3909 22.0002 12.4812C22.0002 10.3396 21.1995 8.2857 19.7743 6.77135C18.349 5.25701 16.4159 4.40625 14.4003 4.40625Z" stroke="#8C8C8C" stroke-width="1.5" stroke-linecap="round" stroke-linejoin="round"/>
</svg>
