<svg width="28" height="28" viewBox="0 0 28 28" fill="none" xmlns="http://www.w3.org/2000/svg">
<path d="M4 10.557V19C4 19.7957 4.31607 20.5587 4.87868 21.1213C5.44129 21.684 7 22 7 22H21C21.7957 22 22.5587 21.684 23.1213 21.1213C23.684 20.5587 24 19.7957 24 19V9C24 8.20435 23.684 7.44128 23.1213 6.87868C22.5587 6.31607 21.7957 6 21 6H7C6.20435 6 5.44129 6.31607 4.87868 6.87868C4.31607 7.44128 4 8.20435 4 9V10.557ZM7 7.5H21C21.3979 7.5 21.7794 7.65803 22.0606 7.93934C22.342 8.22065 22.5 8.60217 22.5 9V10.11L14 14.148L5.5 10.11V9C5.5 8.60217 5.65804 8.22065 5.93934 7.93934C6.22064 7.65803 6.60217 7.5 7 7.5ZM5.5 11.814L13.6445 15.66C13.7538 15.7188 13.8759 15.7496 14 15.7496C14.1241 15.7496 14.2462 15.7188 14.3555 15.66L22.5 11.814V19C22.5 19.3978 22.342 19.7793 22.0606 20.0607C21.7794 20.3419 21.3979 20.5 21 20.5H7C6.60217 20.5 6.22064 20.3419 5.93934 20.0607C5.65804 19.7793 5.5 19.3978 5.5 19V11.814Z" fill="#767676"/>
</svg>
