<svg width="16" height="17" viewBox="0 0 16 17" fill="none" xmlns="http://www.w3.org/2000/svg">
<path d="M13.3333 3.34668C13.687 3.34668 14.0261 3.48716 14.2761 3.7372C14.5262 3.98725 14.6667 4.32639 14.6667 4.68001V11.3467C14.6667 12.0867 14.0733 12.68 13.3333 12.68H16V14.0133H0V12.68H2.66667C2.31304 12.68 1.97391 12.5395 1.72386 12.2895C1.47381 12.0394 1.33333 11.7003 1.33333 11.3467V4.68001C1.33333 3.94001 1.92667 3.34668 2.66667 3.34668H13.3333ZM13.3333 4.68001H2.66667V11.3467H13.3333V4.68001ZM8 8.68001C9.47333 8.68001 10.6667 9.28001 10.6667 10.0133V10.68H5.33333V10.0133C5.33333 9.28001 6.52667 8.68001 8 8.68001ZM8 5.34668C8.35362 5.34668 8.69276 5.48716 8.94281 5.7372C9.19286 5.98725 9.33333 6.32639 9.33333 6.68001C9.33333 7.03363 9.19286 7.37277 8.94281 7.62282C8.69276 7.87287 8.35362 8.01335 8 8.01335C7.26 8.01335 6.66667 7.42001 6.66667 6.68001C6.66667 5.94001 7.26667 5.34668 8 5.34668Z" fill="black"/>
</svg>
