<svg width="24" height="24" viewBox="0 0 24 24" fill="none" xmlns="http://www.w3.org/2000/svg">
<path fill-rule="evenodd" clip-rule="evenodd" d="M12.3008 2C10.0421 2 7.87872 2.90933 6.28571 4.52358C4.69314 6.13738 3.80078 8.32338 3.80078 10.6C3.80078 12.5958 4.23792 13.9974 5.4227 15.4953C5.43063 15.5054 5.43876 15.5152 5.44707 15.525L11.5408 22.65C11.7308 22.8721 12.0085 23 12.3008 23C12.5931 23 12.8708 22.8721 13.0607 22.65L19.1545 15.525C19.1628 15.5152 19.1709 15.5054 19.1789 15.4953C20.3636 13.9974 20.8008 12.5958 20.8008 10.6C20.8008 8.32338 19.9084 6.13738 18.3159 4.52358C16.7228 2.90933 14.5594 2 12.3008 2ZM7.70925 5.9284C8.92929 4.69209 10.5812 4 12.3008 4C14.0204 4 15.6723 4.69209 16.8923 5.9284C18.1128 7.16515 18.8008 8.84533 18.8008 10.6C18.8008 12.1919 18.487 13.1412 17.6218 14.24L12.3008 20.4615L6.97981 14.24C6.1146 13.1412 5.80078 12.1919 5.80078 10.6C5.80078 8.84533 6.48877 7.16515 7.70925 5.9284ZM10.4883 10.6C10.4883 9.56574 11.3122 8.75 12.3008 8.75C13.2894 8.75 14.1133 9.56574 14.1133 10.6C14.1133 11.6343 13.2894 12.45 12.3008 12.45C11.3122 12.45 10.4883 11.6343 10.4883 10.6ZM12.3008 6.75C10.1827 6.75 8.48828 8.48623 8.48828 10.6C8.48828 12.7138 10.1827 14.45 12.3008 14.45C14.4188 14.45 16.1133 12.7138 16.1133 10.6C16.1133 8.48623 14.4188 6.75 12.3008 6.75Z" fill="white"/>
</svg>
