<svg width="16" height="15" viewBox="0 0 16 15" fill="none" xmlns="http://www.w3.org/2000/svg">
<path d="M14.5475 5.57757L10.3506 4.98448L8.47443 1.2861C8.42319 1.18484 8.33889 1.10287 8.23475 1.05305C7.97358 0.927678 7.6562 1.03215 7.52562 1.2861L5.64948 4.98448L1.45254 5.57757C1.33684 5.59364 1.23104 5.64668 1.15005 5.72704C0.946731 5.93117 0.950037 6.25584 1.15997 6.45514L4.1965 9.3338L3.47911 13.3986C3.45927 13.5095 3.47745 13.6253 3.532 13.7249C3.66755 13.9756 3.98823 14.0737 4.24609 13.9403L8.00003 12.0212L11.754 13.9403C11.8564 13.9933 11.9755 14.011 12.0895 13.9917C12.3771 13.9435 12.5705 13.6783 12.5209 13.3986L11.8035 9.3338L14.8401 6.45514C14.9227 6.37639 14.9773 6.27352 14.9938 6.16101C15.0384 5.87974 14.8368 5.61935 14.5475 5.57757Z" fill="#7F8EA7"/>
<path d="M8.00003 2.96733L6.43961 6.04207L2.9485 6.53551L5.47426 8.93037L4.87753 12.3105L8.00003 10.7145L11.1225 12.3089L10.5258 8.92876L13.0516 6.53551M14.5475 5.57757L10.3506 4.98448L8.47443 1.2861C8.42319 1.18484 8.33889 1.10287 8.23475 1.05305C7.97358 0.927678 7.6562 1.03215 7.52562 1.2861L5.64948 4.98448L1.45254 5.57757C1.33684 5.59364 1.23104 5.64668 1.15005 5.72704C0.946731 5.93117 0.950037 6.25584 1.15997 6.45514L4.1965 9.3338L3.47911 13.3986C3.45927 13.5095 3.47745 13.6253 3.532 13.7249C3.66755 13.9756 3.98823 14.0737 4.24609 13.9403L8.00003 12.0212L11.754 13.9403C11.8564 13.9933 11.9755 14.011 12.0895 13.9917C12.3771 13.9435 12.5705 13.6783 12.5209 13.3986L11.8035 9.3338L14.8401 6.45514C14.9227 6.37639 14.9773 6.27352 14.9938 6.16101C15.0384 5.87974 14.8368 5.61935 14.5475 5.57757Z" stroke="#7F8EA7" stroke-width="0.6"/>
</svg>
