<svg width="20" height="20" viewBox="0 0 20 20" fill="none" xmlns="http://www.w3.org/2000/svg">
<path d="M2.79437 9.09137C2.79437 7.43344 3.48287 5.84342 4.7084 4.67109C5.93394 3.49876 7.59612 2.84015 9.32928 2.84015C11.0624 2.84015 12.7246 3.49876 13.9502 4.67109C15.1757 5.84342 15.8642 7.43344 15.8642 9.09137C15.8642 10.7493 15.1757 12.3393 13.9502 13.5117C12.7246 14.684 11.0624 15.3426 9.32928 15.3426C7.59612 15.3426 5.93394 14.684 4.7084 13.5117C3.48287 12.3393 2.79437 10.7493 2.79437 9.09137ZM18.9217 17.9431L15.2662 14.4471C16.7 13.0013 17.4989 11.0842 17.4979 9.09137C17.4979 4.77568 13.8408 1.27734 9.32928 1.27734C4.81774 1.27734 1.16064 4.77568 1.16064 9.09137C1.16064 13.4071 4.81774 16.9054 9.32928 16.9054C11.0135 16.9065 12.6564 16.4065 14.0303 15.4746L17.7659 19.0488C18.0852 19.3535 18.6023 19.3535 18.9217 19.0488C19.2403 18.7433 19.2403 18.2486 18.9217 17.9431Z" fill="#676767"/>
<path d="M18.9217 17.9431L15.2662 14.4471C16.7 13.0013 17.4989 11.0842 17.4979 9.09137C17.4979 4.77568 13.8408 1.27734 9.32928 1.27734C4.81774 1.27734 1.16064 4.77568 1.16064 9.09137C1.16064 13.4071 4.81774 16.9054 9.32928 16.9054C11.0135 16.9065 12.6564 16.4065 14.0303 15.4746L17.7658 19.0488C18.0852 19.3535 18.6023 19.3535 18.9217 19.0488C19.2403 18.7433 19.2403 18.2486 18.9217 17.9431M2.79437 9.09137C2.79437 7.43344 3.48287 5.84342 4.7084 4.67109C5.93394 3.49876 7.59612 2.84015 9.32928 2.84015C11.0624 2.84015 12.7246 3.49876 13.9502 4.67109C15.1757 5.84342 15.8642 7.43344 15.8642 9.09137C15.8642 10.7493 15.1757 12.3393 13.9502 13.5117C12.7246 14.684 11.0624 15.3426 9.32928 15.3426C7.59612 15.3426 5.93394 14.684 4.7084 13.5117C3.48287 12.3393 2.79437 10.7493 2.79437 9.09137V9.09137Z" stroke="#676767"/>
</svg>
