<svg width="31" height="23" viewBox="0 0 31 23" fill="none" xmlns="http://www.w3.org/2000/svg">
<path d="M28.1875 22.75C28.1875 22.75 30 22.75 30 20.9375C30 19.125 28.1875 13.6875 20.9375 13.6875C13.6875 13.6875 11.875 19.125 11.875 20.9375C11.875 22.75 13.6875 22.75 13.6875 22.75H28.1875ZM13.7274 20.9375C13.714 20.9357 13.7007 20.9332 13.6875 20.9303C13.6893 20.4518 13.9902 19.0634 15.065 17.8128C16.0655 16.6401 17.8236 15.5 20.9375 15.5C24.0496 15.5 25.8077 16.6419 26.81 17.8128C27.8848 19.0634 28.1839 20.4536 28.1875 20.9303L28.173 20.9339C28.1646 20.9353 28.1561 20.9365 28.1476 20.9375H13.7274V20.9375ZM20.9375 10.0625C21.8989 10.0625 22.8209 9.68058 23.5008 9.00076C24.1806 8.32094 24.5625 7.39891 24.5625 6.4375C24.5625 5.47609 24.1806 4.55406 23.5008 3.87424C22.8209 3.19442 21.8989 2.8125 20.9375 2.8125C19.9761 2.8125 19.0541 3.19442 18.3742 3.87424C17.6944 4.55406 17.3125 5.47609 17.3125 6.4375C17.3125 7.39891 17.6944 8.32094 18.3742 9.00076C19.0541 9.68058 19.9761 10.0625 20.9375 10.0625ZM26.375 6.4375C26.375 7.15156 26.2344 7.85863 25.9611 8.51834C25.6878 9.17805 25.2873 9.77747 24.7824 10.2824C24.2775 10.7873 23.678 11.1878 23.0183 11.4611C22.3586 11.7344 21.6516 11.875 20.9375 11.875C20.2234 11.875 19.5164 11.7344 18.8567 11.4611C18.197 11.1878 17.5975 10.7873 17.0926 10.2824C16.5877 9.77747 16.1872 9.17805 15.9139 8.51834C15.6406 7.85863 15.5 7.15156 15.5 6.4375C15.5 4.99539 16.0729 3.61234 17.0926 2.59261C18.1123 1.57288 19.4954 1 20.9375 1C22.3796 1 23.7627 1.57288 24.7824 2.59261C25.8021 3.61234 26.375 4.99539 26.375 6.4375V6.4375ZM13.5715 14.195C12.8465 13.9667 12.0991 13.8166 11.3421 13.7473C10.9168 13.7069 10.4898 13.6869 10.0625 13.6875C2.8125 13.6875 1 19.125 1 20.9375C1 22.1464 1.60356 22.75 2.8125 22.75H10.454C10.1853 22.1842 10.0513 21.5638 10.0625 20.9375C10.0625 19.1069 10.7458 17.2364 12.0381 15.674C12.4786 15.1411 12.9915 14.6427 13.5715 14.195ZM9.9175 15.5C8.84478 17.1118 8.2653 19.0014 8.25 20.9375H2.8125C2.8125 20.4663 3.10975 19.0706 4.19 17.8128C5.17781 16.66 6.89425 15.5363 9.9175 15.5018V15.5ZM3.71875 7.34375C3.71875 5.90164 4.29163 4.51859 5.31136 3.49886C6.33109 2.47913 7.71414 1.90625 9.15625 1.90625C10.5984 1.90625 11.9814 2.47913 13.0011 3.49886C14.0209 4.51859 14.5937 5.90164 14.5938 7.34375C14.5938 8.78586 14.0209 10.1689 13.0011 11.1886C11.9814 12.2084 10.5984 12.7812 9.15625 12.7812C7.71414 12.7812 6.33109 12.2084 5.31136 11.1886C4.29163 10.1689 3.71875 8.78586 3.71875 7.34375V7.34375ZM9.15625 3.71875C8.19484 3.71875 7.27281 4.10067 6.59299 4.78049C5.91317 5.46031 5.53125 6.38234 5.53125 7.34375C5.53125 8.30516 5.91317 9.22719 6.59299 9.90701C7.27281 10.5868 8.19484 10.9687 9.15625 10.9688C10.1177 10.9687 11.0397 10.5868 11.7195 9.90701C12.3993 9.22719 12.7812 8.30516 12.7812 7.34375C12.7812 6.38234 12.3993 5.46031 11.7195 4.78049C11.0397 4.10067 10.1177 3.71875 9.15625 3.71875Z" fill="#363636" stroke="#363636" stroke-width="0.5"/>
</svg>
