<svg width="23" height="20" viewBox="0 0 23 20" fill="none" xmlns="http://www.w3.org/2000/svg">
<path d="M3.5816 1.87796L3.57838 1.87984C2.87037 2.29293 2.28487 2.88295 1.87968 3.59015L1.8797 3.59016L1.87558 3.59724C1.4598 4.31202 1.24407 5.1236 1.25012 5.9481L1.25016 5.9481V5.95727C1.25016 6.56941 1.36615 7.16514 1.60213 7.75102C1.83356 8.32471 2.17913 8.84673 2.6186 9.28571L2.62202 9.28914L11.5001 18.2264L20.3769 9.29181C20.3771 9.29163 20.3773 9.29145 20.3774 9.29128C21.2589 8.40123 21.751 7.20382 21.75 5.95831V5.95727C21.75 5.09183 21.5409 4.31226 21.1243 3.59531L21.1243 3.59532L21.1206 3.58891C20.7155 2.88227 20.1305 2.29266 19.423 1.87973L19.423 1.87974L19.4173 1.87639C18.7133 1.46048 17.9075 1.24368 17.0874 1.25014V1.25018L17.0773 1.25018C16.4634 1.25006 15.8559 1.37167 15.2904 1.60769C14.7249 1.84369 14.2129 2.18924 13.7843 2.62372L13.7814 2.62663L12.3871 4.0309L11.5005 4.92375L10.6135 4.03136L9.21772 2.62708L9.21771 2.62709L9.21386 2.62318C8.78156 2.18442 8.26363 1.83707 7.69126 1.6026L7.69126 1.60261L7.68688 1.60079C7.12763 1.36922 6.52748 1.24999 5.92118 1.25018C5.06541 1.25018 4.2928 1.46016 3.5816 1.87796Z" fill="white" stroke="#EA3A13" stroke-width="2.5"/>
</svg>
