<svg width="24" height="24" viewBox="0 0 24 24" fill="none" xmlns="http://www.w3.org/2000/svg">
<rect width="24" height="24" fill="white"/>
<path d="M18.7286 9.59309V10.5414H5.34835V9.59309C5.34835 9.34157 5.44827 9.10036 5.62612 8.92251C5.80397 8.74466 6.04519 8.64474 6.29671 8.64474H17.7802C18.0318 8.64474 18.273 8.74466 18.4508 8.92251C18.6287 9.10036 18.7286 9.34157 18.7286 9.59309ZM5.34835 17.6316V12.0898H18.7286V17.6316C18.7286 17.8831 18.6287 18.1243 18.4508 18.3022C18.273 18.48 18.0318 18.5799 17.7802 18.5799H6.29671C6.04519 18.5799 5.80397 18.48 5.62612 18.3022C5.44827 18.1243 5.34835 17.8831 5.34835 17.6316ZM17.7802 7.09639H6.29671C5.63454 7.09639 4.99949 7.35943 4.53127 7.82765C4.06305 8.29588 3.8 8.93093 3.8 9.59309V17.6316C3.8 18.2937 4.06305 18.9288 4.53127 19.397C4.99949 19.8652 5.63454 20.1283 6.29671 20.1283H17.7802C18.4424 20.1283 19.0774 19.8652 19.5457 19.397C20.0139 18.9288 20.2769 18.2937 20.2769 17.6316V9.59309C20.2769 8.93093 20.0139 8.29588 19.5457 7.82765C19.0774 7.35943 18.4424 7.09639 17.7802 7.09639Z" fill="#636B71" stroke="#636B71" stroke-width="0.4"/>
<path d="M14.5167 6.51667H9.48333V5.48333H14.5167V6.51667ZM14.6667 3.85H9.33333C8.93993 3.85 8.56264 4.00628 8.28446 4.28446C8.00628 4.56264 7.85 4.93993 7.85 5.33333V6.66667C7.85 7.06007 8.00628 7.43736 8.28446 7.71554C8.56264 7.99372 8.93993 8.15 9.33333 8.15H14.6667C15.0601 8.15 15.4374 7.99372 15.7155 7.71554C15.9937 7.43736 16.15 7.06007 16.15 6.66667V5.33333C16.15 4.93993 15.9937 4.56264 15.7155 4.28446C15.4374 4.00628 15.0601 3.85 14.6667 3.85Z" fill="#636B71" stroke="#636B71" stroke-width="0.3"/>
</svg>
