<svg width="24" height="24" viewBox="0 0 24 24" fill="none" xmlns="http://www.w3.org/2000/svg">
<rect width="24" height="24" fill="white"/>
<path d="M12 4.8C15.9699 4.8 19.2 8.0301 19.2 12C19.2 15.9699 15.9699 19.2 12 19.2C8.0301 19.2 4.8 15.9699 4.8 12C4.8 8.0301 8.0301 4.8 12 4.8ZM12 3C7.0293 3 3 7.0293 3 12C3 16.9707 7.0293 21 12 21C16.9707 21 21 16.9707 21 12C21 7.0293 16.9707 3 12 3ZM15.42 15.06L12.9 11.7003V7.5H11.1V12.2997L13.98 16.1391L15.42 15.06Z" fill="#636B71" stroke="#636B71" stroke-width="0.3"/>
</svg>
