<svg width="24" height="24" viewBox="0 0 24 24" fill="none" xmlns="http://www.w3.org/2000/svg">
<rect width="24" height="24" fill="white"/>
<path d="M12.5 2C7.2617 2 3 5.40955 3 9.6C3 12.3626 4.8031 14.8392 7.75 16.1873V21L12.823 17.1953C17.9121 17.0594 22 13.704 22 9.6C22 5.40955 17.7383 2 12.5 2ZM12.5 15.3H12.1836L9.65 17.2V14.9039L9.04105 14.6692C6.4865 13.686 4.9 11.7432 4.9 9.6C4.9 6.45645 8.30955 3.9 12.5 3.9C16.6904 3.9 20.1 6.45645 20.1 9.6C20.1 12.7435 16.6904 15.3 12.5 15.3Z" fill="#636B71"/>
<path d="M7.75 7.7C7.75 7.17533 8.17533 6.75 8.7 6.75H16.3C16.8247 6.75 17.25 7.17533 17.25 7.7V7.7C17.25 8.22467 16.8247 8.65 16.3 8.65H8.7C8.17533 8.65 7.75 8.22467 7.75 7.7V7.7ZM7.75 11.5C7.75 10.9753 8.17533 10.55 8.7 10.55H13.45C13.9747 10.55 14.4 10.9753 14.4 11.5V11.5C14.4 12.0247 13.9747 12.45 13.45 12.45H8.7C8.17533 12.45 7.75 12.0247 7.75 11.5V11.5Z" fill="#636B71"/>
</svg>
