<svg width="20" height="20" viewBox="0 0 20 20" fill="none" xmlns="http://www.w3.org/2000/svg">
<path d="M7.5 9C8.32843 9 9 8.32843 9 7.5C9 6.67157 8.32843 6 7.5 6C6.67157 6 6 6.67157 6 7.5C6 8.32843 6.67157 9 7.5 9Z" fill="#7F8DA7"/>
<path d="M12.5 9C13.3284 9 14 8.32843 14 7.5C14 6.67157 13.3284 6 12.5 6C11.6716 6 11 6.67157 11 7.5C11 8.32843 11.6716 9 12.5 9Z" fill="#7F8DA7"/>
<path d="M10 0C4.486 0 0 3.589 0 8C0 10.908 1.897 13.515 5 14.934V20L10.34 15.996C15.697 15.852 20 12.32 20 8C20 3.589 15.514 0 10 0ZM10 14H9.667L7 16V13.583L6.359 13.336C3.671 12.301 2 10.256 2 8C2 4.691 5.589 2 10 2C14.411 2 18 4.691 18 8C18 11.309 14.411 14 10 14Z" fill="#7F8DA7"/>
</svg>
