<svg width="23" height="22" viewBox="0 0 23 22" fill="none" xmlns="http://www.w3.org/2000/svg">
<path d="M19.4615 14.1654V17.875C19.4615 19.0113 19.0722 19.9829 18.2936 20.7897C17.5149 21.5966 16.5773 22 15.4808 22H3.98077C2.88421 22 1.94661 21.5966 1.16797 20.7897C0.389323 19.9829 0 19.0113 0 17.875V5.95833C0 4.82205 0.389323 3.85048 1.16797 3.04362C1.94661 2.23676 2.88421 1.83333 3.98077 1.83333H7.50541C7.6252 1.83333 7.72887 1.87869 7.81641 1.9694C7.90395 2.06011 7.94772 2.16753 7.94772 2.29167C7.94772 2.54948 7.82792 2.70226 7.58834 2.75C6.87881 2.99826 6.26603 3.28472 5.75 3.60938C5.65785 3.64757 5.58413 3.66667 5.52885 3.66667H3.98077C3.3726 3.66667 2.85196 3.89106 2.41887 4.33984C1.98578 4.78863 1.76923 5.32812 1.76923 5.95833V17.875C1.76923 18.5052 1.98578 19.0447 2.41887 19.4935C2.85196 19.9423 3.3726 20.1667 3.98077 20.1667H15.4808C16.0889 20.1667 16.6096 19.9423 17.0427 19.4935C17.4758 19.0447 17.6923 18.5052 17.6923 17.875V14.8099C17.6923 14.6285 17.7752 14.49 17.9411 14.3945C18.1991 14.2704 18.4479 14.0938 18.6875 13.8646C18.8349 13.7118 18.9962 13.6736 19.1713 13.75C19.3648 13.8359 19.4615 13.9744 19.4615 14.1654ZM22.7374 7.0612L17.4297 12.5612C17.2638 12.7426 17.0565 12.8333 16.8077 12.8333C16.6971 12.8333 16.5819 12.8095 16.4621 12.7617C16.1028 12.5994 15.9231 12.3177 15.9231 11.9167V9.16667H13.7115C10.7352 9.16667 8.71715 9.7921 7.65745 11.043C6.5609 12.3511 6.21995 14.6094 6.63462 17.8177C6.66226 18.0373 6.57011 18.1997 6.35817 18.3047C6.28445 18.3238 6.22917 18.3333 6.19231 18.3333C6.04487 18.3333 5.92508 18.2713 5.83293 18.1471C5.74079 18.0135 5.64403 17.8655 5.54267 17.7031C5.44131 17.5408 5.25931 17.2138 4.99669 16.722C4.73407 16.2303 4.50601 15.7552 4.3125 15.2969C4.11899 14.8385 3.94161 14.2943 3.78035 13.6641C3.61909 13.0339 3.53846 12.4514 3.53846 11.9167C3.53846 11.4488 3.55459 11.0143 3.58684 10.6133C3.61909 10.2122 3.68359 9.78255 3.78035 9.32422C3.8771 8.86589 4.00611 8.44575 4.16737 8.0638C4.32863 7.68186 4.54517 7.29275 4.81701 6.89648C5.08884 6.50022 5.40445 6.14692 5.76382 5.83659C6.1232 5.52626 6.55859 5.23264 7.07001 4.95573C7.58143 4.67882 8.15505 4.44727 8.79086 4.26107C9.42668 4.07487 10.1616 3.92925 10.9955 3.82422C11.8294 3.71918 12.7348 3.66667 13.7115 3.66667H15.9231V0.916667C15.9231 0.515625 16.1028 0.233941 16.4621 0.0716146C16.5819 0.0238715 16.6971 0 16.8077 0C17.0473 0 17.2546 0.0907118 17.4297 0.272135L22.7374 5.77214C22.9125 5.95356 23 6.1684 23 6.41667C23 6.66493 22.9125 6.87977 22.7374 7.0612Z" fill="#7F8DA7"/>
</svg>
