<svg width="18" height="18" viewBox="0 0 18 18" fill="none" xmlns="http://www.w3.org/2000/svg">
<path d="M16.4829 6.63393L11.6864 5.90397L9.54221 1.35213C9.48365 1.2275 9.3873 1.12661 9.26829 1.06529C8.9698 0.910988 8.60709 1.03957 8.45785 1.35213L6.31369 5.90397L1.51719 6.63393C1.38496 6.65371 1.26405 6.71899 1.17148 6.8179C0.939121 7.06913 0.942899 7.46873 1.18282 7.71403L4.65315 11.257L3.83326 16.2599C3.8106 16.3964 3.83138 16.5388 3.89372 16.6614C4.04863 16.97 4.41512 17.0907 4.70982 16.9265L9.00003 14.5645L13.2902 16.9265C13.4074 16.9918 13.5434 17.0136 13.6737 16.9898C14.0024 16.9305 14.2235 16.6041 14.1668 16.2599L13.3469 11.257L16.8172 7.71403C16.9117 7.61709 16.974 7.49049 16.9929 7.35201C17.0439 7.00583 16.8135 6.68536 16.4829 6.63393V6.63393ZM11.8866 10.7585L12.5686 14.9186L9.00003 12.9563L5.43147 14.9206L6.11344 10.7605L3.22685 7.81294L7.21669 7.20563L9.00003 3.42133L10.7834 7.20563L14.7732 7.81294L11.8866 10.7585Z" fill="#4281FF" stroke="#4281FF" stroke-width="0.3"/>
</svg>
