<svg width="23" height="23" viewBox="0 0 23 23" fill="none" xmlns="http://www.w3.org/2000/svg">
<path d="M21.3213 8.39453L15.0259 7.43646L12.2116 1.46217C12.1348 1.29859 12.0083 1.16618 11.8521 1.08569C11.4604 0.883172 10.9843 1.05194 10.7884 1.46217L7.97422 7.43646L1.67882 8.39453C1.50525 8.42049 1.34657 8.50617 1.22507 8.63599C0.920096 8.96573 0.925055 9.49021 1.23995 9.81216L5.79475 14.4623L4.71866 21.0286C4.68891 21.2077 4.71618 21.3947 4.798 21.5556C5.00132 21.9607 5.48234 22.119 5.86914 21.9035L11.5 18.8035L17.1309 21.9035C17.2847 21.9892 17.4632 22.0178 17.6343 21.9866C18.0657 21.9087 18.3558 21.4803 18.2814 21.0286L17.2053 14.4623L21.7601 9.81216C21.8841 9.68493 21.9659 9.51877 21.9907 9.33702C22.0577 8.88265 21.7552 8.46204 21.3213 8.39453ZM15.2887 13.808L16.1838 19.2682L11.5 16.6926L6.8163 19.2708L7.71139 13.8106L3.92275 9.94198L9.15941 9.14489L11.5 4.17799L13.8407 9.14489L19.0773 9.94198L15.2887 13.808Z" fill="#636B71" stroke="#636B71" stroke-width="0.3"/>
</svg>
