<svg width="16" height="17" viewBox="0 0 16 17" fill="none" xmlns="http://www.w3.org/2000/svg">
<path d="M15.9577 6.74206C15.9074 6.59397 15.8149 6.46385 15.6915 6.36776C15.5681 6.27166 15.4192 6.21381 15.2633 6.20133L10.7025 5.83898L8.72887 1.47076C8.66602 1.33007 8.56378 1.21057 8.43451 1.12669C8.30523 1.04281 8.15444 0.998132 8.00033 0.998047C7.84622 0.997962 7.69537 1.04248 7.56601 1.12621C7.43664 1.20995 7.33427 1.32934 7.27126 1.46996L5.29765 5.83898L0.736825 6.20133C0.583589 6.21347 0.437094 6.26949 0.314867 6.36269C0.19264 6.4559 0.099856 6.58234 0.0476158 6.72688C-0.00462433 6.87143 -0.0141088 7.02797 0.0202971 7.17776C0.054703 7.32756 0.131542 7.46427 0.241623 7.57155L3.61204 10.8567L2.42004 16.0176C2.38384 16.1738 2.39544 16.3373 2.45333 16.4869C2.51122 16.6364 2.61273 16.7651 2.74468 16.8563C2.87663 16.9474 3.03293 16.9968 3.19331 16.998C3.35368 16.9992 3.51072 16.9522 3.64404 16.8631L8.00007 13.9595L12.3561 16.8631C12.4924 16.9536 12.6531 17.0002 12.8166 16.9966C12.9801 16.993 13.1386 16.9394 13.2708 16.8431C13.403 16.7467 13.5025 16.6122 13.5559 16.4576C13.6093 16.3031 13.6142 16.1358 13.5697 15.9784L12.1065 10.8591L15.7353 7.59395C15.9729 7.37958 16.0601 7.04522 15.9577 6.74206V6.74206Z" fill="#4281FF"/>
</svg>
