<svg width="31" height="31" viewBox="0 0 31 31" fill="none" xmlns="http://www.w3.org/2000/svg">
<path fill-rule="evenodd" clip-rule="evenodd" d="M14.5568 30.028H16.726C24.362 30.028 30.6097 23.7804 30.6097 16.1443V13.9751C30.6097 6.33909 24.3621 0.0914307 16.726 0.0914307H14.5568C6.92082 0.0914307 0.673157 6.33909 0.673157 13.9751V16.1443C0.673157 23.7804 6.92082 30.028 14.5568 30.028ZM11.0773 15.1346C11.0773 12.5726 13.1542 10.4957 15.7162 10.4957C18.2782 10.4957 20.3551 12.5726 20.3551 15.1346C20.3551 17.6965 18.2782 19.7734 15.7162 19.7734C13.1542 19.7734 11.0773 17.6965 11.0773 15.1346ZM12.6976 15.1346C12.6976 16.8017 14.0491 18.1532 15.7162 18.1532C17.3834 18.1532 18.7349 16.8017 18.7349 15.1346C18.7349 13.4674 17.3834 12.1159 15.7162 12.1159C14.0491 12.1159 12.6976 13.4674 12.6976 15.1346ZM19.6522 6.14279C22.4798 6.14279 24.7081 8.37103 24.7081 11.1987C24.7081 11.1987 24.7721 13.1562 24.7721 15.0706C24.7721 17.0277 24.7081 19.0706 24.7081 19.0706C24.7081 21.8982 22.4799 24.1264 19.6522 24.1264C19.6522 24.1264 17.5221 24.1904 15.5243 24.1904C13.6544 24.1904 11.8444 24.1264 11.8444 24.1264C9.01673 24.1264 6.72445 21.8342 6.72445 19.0065C6.72445 19.0065 6.66046 16.9404 6.66046 14.9426C6.66046 13.0727 6.72445 11.2627 6.72445 11.2627C6.72445 8.43506 9.01673 6.14279 11.8444 6.14279C11.8444 6.14279 13.7803 6.0788 15.7163 6.0788C17.6522 6.0788 19.6522 6.14279 19.6522 6.14279ZM19.3392 22.5078C21.6579 22.5078 23.0895 21.0762 23.0895 18.7575C23.0895 18.7575 23.142 16.6868 23.142 15.0821C23.142 13.5123 23.0895 11.5116 23.0895 11.5116C23.0895 9.19291 21.6579 7.7613 19.3392 7.7613C19.3392 7.7613 17.3038 7.7088 15.7163 7.7088C14.1288 7.7088 12.1573 7.7613 12.1573 7.7613C9.83869 7.7613 8.34301 9.19291 8.34301 11.5116C8.34301 11.5116 8.29051 13.4438 8.29051 14.9771C8.29051 16.6153 8.34301 18.6935 8.34301 18.6935C8.34301 21.0121 9.83865 22.5078 12.1573 22.5078C12.1573 22.5078 14.0256 22.5603 15.5589 22.5603C17.197 22.5603 19.3392 22.5078 19.3392 22.5078ZM19.4562 10.3348C19.4562 9.71268 19.9581 9.20835 20.5771 9.20835C21.1961 9.20835 21.6979 9.71264 21.6979 10.3348C21.6979 10.9569 21.1961 11.4612 20.5771 11.4612C19.9581 11.4612 19.4562 10.9569 19.4562 10.3348Z" fill="white"/>
</svg>
