<svg width="36" height="36" viewBox="0 0 36 36" fill="none" xmlns="http://www.w3.org/2000/svg">
<path d="M17.6953 35.3984C8.03006 35.3984 0.195312 27.5637 0.195312 17.8984C0.195312 8.23319 8.03006 0.398438 17.6953 0.398438C27.3606 0.398438 35.1953 8.23319 35.1953 17.8984C35.1953 27.5637 27.3606 35.3984 17.6953 35.3984ZM12.9866 25.6101V13.9808H9.48665V25.6101H12.9866V25.6101ZM11.2366 8.9151C10.1079 8.9151 9.37115 9.69969 9.3939 10.7468C9.37056 11.7454 10.1079 12.5539 11.2139 12.5539C12.3648 12.5539 13.1021 11.7454 13.1021 10.7462C13.0788 9.69969 12.3648 8.9151 11.2366 8.9151ZM15.7966 25.6101H19.2966V18.9035C19.2966 18.571 19.3432 18.214 19.4354 17.9994C19.6652 17.3344 20.241 16.6443 21.2087 16.6443C22.4746 16.6443 22.9821 17.6669 22.9821 19.1654V25.6101H26.4821V18.7134C26.4821 15.2892 24.7554 13.7189 22.4518 13.7189C20.5869 13.7189 19.4354 14.8371 18.9746 15.5739H18.9051L18.7441 13.9808H15.7044C15.7505 15.0034 15.7966 16.24 15.7966 17.6908V25.6101V25.6101Z" fill="#666666"/>
</svg>
