<svg width="31" height="31" viewBox="0 0 31 31" fill="none" xmlns="http://www.w3.org/2000/svg">
<path d="M20.6266 21.9011L23.09 10.2889C23.3077 9.26686 22.7211 8.8647 22.0508 9.11565L7.57304 14.6955C6.58426 15.0805 6.60142 15.6339 7.40575 15.8848L11.1088 17.0409L19.7054 11.6283C20.1076 11.3602 20.4765 11.5115 20.1752 11.7796L13.2215 18.0629L12.9534 21.884C13.3384 21.884 13.5068 21.7167 13.7073 21.5151L15.5165 19.7724L19.27 22.5371C19.9575 22.9221 20.4433 22.7216 20.6277 21.9001L20.6266 21.9011ZM30.7311 15.014C30.7311 23.3082 24.0112 30.028 15.7171 30.028C7.4229 30.028 0.703064 23.3082 0.703064 15.014C0.703064 6.71984 7.4229 0 15.7171 0C24.0112 0 30.7311 6.71984 30.7311 15.014Z" fill="white"/>
</svg>
