<svg width="36" height="36" viewBox="0 0 36 36" fill="none" xmlns="http://www.w3.org/2000/svg">
<path d="M17.6016 0.398438C7.9375 0.398438 0.101562 8.23438 0.101562 17.8984C0.101562 27.5625 7.9375 35.3984 17.6016 35.3984C27.2656 35.3984 35.1016 27.5625 35.1016 17.8984C35.1016 8.23438 27.2656 0.398438 17.6016 0.398438ZM26.0117 13.5898C26.0234 13.7734 26.0234 13.9648 26.0234 14.1523C26.0234 19.8867 21.6563 26.4922 13.6758 26.4922C11.2148 26.4922 8.93359 25.7773 7.01172 24.5469C7.36328 24.5859 7.69922 24.6016 8.05859 24.6016C10.0898 24.6016 11.957 23.9141 13.4453 22.75C11.5391 22.7109 9.9375 21.4609 9.39062 19.7422C10.0586 19.8398 10.6602 19.8398 11.3477 19.6641C9.36328 19.2617 7.875 17.5156 7.875 15.4063V15.3516C8.44922 15.6758 9.125 15.875 9.83203 15.9023C8.625 15.0977 7.89844 13.7422 7.89844 12.293C7.89844 11.4844 8.10938 10.7461 8.48828 10.1055C10.625 12.7383 13.8359 14.457 17.4336 14.6406C16.8203 11.6914 19.0234 9.30469 21.6719 9.30469C22.9219 9.30469 24.0469 9.82812 24.8398 10.6719C25.8203 10.4883 26.7578 10.1211 27.5937 9.62891C27.2695 10.6328 26.5898 11.4805 25.6875 12.0156C26.5625 11.9219 27.4062 11.6797 28.1875 11.3398C27.5977 12.207 26.8594 12.9766 26.0117 13.5898V13.5898Z" fill="#666666"/>
</svg>
