<svg width="24" height="20" viewBox="0 0 24 20" fill="none" xmlns="http://www.w3.org/2000/svg">
<path d="M23.6435 2.93708C22.8085 3.30708 21.9115 3.55708 20.9685 3.67008C21.9415 3.08787 22.6694 2.17154 23.0165 1.09208C22.1023 1.63507 21.1018 2.01727 20.0585 2.22208C19.3569 1.47294 18.4276 0.976403 17.4148 0.809551C16.4021 0.642699 15.3626 0.814868 14.4577 1.29933C13.5529 1.78379 12.8333 2.55344 12.4107 3.48878C11.988 4.42412 11.886 5.47283 12.1205 6.47208C10.2682 6.37907 8.45613 5.89763 6.80192 5.05898C5.14772 4.22034 3.68834 3.04324 2.5185 1.60408C2.1185 2.29408 1.8885 3.09408 1.8885 3.94608C1.88805 4.71307 2.07693 5.46832 2.43838 6.14481C2.79982 6.8213 3.32266 7.39812 3.9605 7.82408C3.22078 7.80054 2.49737 7.60066 1.8505 7.24108V7.30108C1.85043 8.37682 2.22253 9.41945 2.90368 10.2521C3.58483 11.0847 4.53307 11.656 5.5875 11.8691C4.90128 12.0548 4.18184 12.0821 3.4835 11.9491C3.781 12.8747 4.3605 13.6841 5.14087 14.264C5.92124 14.8439 6.86342 15.1653 7.8355 15.1831C6.18533 16.4785 4.14739 17.1812 2.0495 17.1781C1.67788 17.1782 1.30658 17.1565 0.9375 17.1131C3.06698 18.4823 5.54584 19.2089 8.0775 19.2061C16.6475 19.2061 21.3325 12.1081 21.3325 5.95208C21.3325 5.75208 21.3275 5.55008 21.3185 5.35008C22.2298 4.69105 23.0164 3.87497 23.6415 2.94008L23.6435 2.93708Z" fill="#2B90E9"/>
</svg>
