<svg width="31" height="31" viewBox="0 0 31 31" fill="none" xmlns="http://www.w3.org/2000/svg">
<path d="M15.1793 0C6.88807 0 0.165283 6.72279 0.165283 15.014C0.165283 23.3052 6.88807 30.028 15.1793 30.028C23.4705 30.028 30.1933 23.3052 30.1933 15.014C30.1933 6.72279 23.4705 0 15.1793 0ZM22.3947 11.3175C22.4048 11.475 22.4048 11.6392 22.4048 11.8001C22.4048 16.7198 18.658 22.387 11.8112 22.387C9.69985 22.387 7.74266 21.7737 6.0938 20.718C6.39542 20.7515 6.68364 20.7649 6.99196 20.7649C8.73466 20.7649 10.3366 20.1751 11.6135 19.1764C9.97801 19.1429 8.60396 18.0704 8.13477 16.5958C8.70785 16.6796 9.22396 16.6796 9.81379 16.5288C8.11131 16.1836 6.83445 14.6856 6.83445 12.8759V12.8289C7.3271 13.1071 7.90688 13.278 8.51347 13.3015C7.47791 12.6111 6.85456 11.4482 6.85456 10.2048C6.85456 9.5111 7.03553 8.8777 7.36061 8.32808C9.1938 10.5869 11.9486 12.0615 15.0352 12.219C14.509 9.68873 16.3992 7.64106 18.6714 7.64106C19.7438 7.64106 20.709 8.09014 21.3893 8.81402C22.2305 8.65651 23.0348 8.34149 23.752 7.91922C23.4739 8.78051 22.8907 9.50775 22.1166 9.96689C22.8673 9.88645 23.5912 9.67867 24.2614 9.3871C23.7554 10.1311 23.122 10.7913 22.3947 11.3175Z" fill="white"/>
</svg>
