<svg width="36" height="36" viewBox="0 0 36 36" fill="none" xmlns="http://www.w3.org/2000/svg">
<path d="M17.8995 1.67578C8.17869 1.67578 0.423921 8.88749 0.423921 17.8475C0.423921 20.6885 1.18848 23.3109 2.49914 25.7148C2.71759 26.0426 2.82681 26.4797 2.60836 27.026L0.423921 33.1997C0.205476 33.746 0.751587 34.2924 1.40692 34.1831L7.63258 31.7792C7.96025 31.6699 8.39714 31.6699 8.83402 31.8885C11.4554 33.4182 14.6228 34.2924 17.8995 34.2924C27.6202 34.1831 35.375 26.9714 35.375 18.0114C35.2658 8.88749 27.511 1.67578 17.8995 1.67578ZM25.8727 24.0211C25.4358 25.0046 23.7975 25.8787 23.0329 25.8787C22.2683 25.8787 22.2683 26.425 18.1179 24.6768C13.9675 22.8192 11.4554 18.3392 11.2369 18.1207C11.0185 17.7929 9.59858 15.826 9.7078 13.7499C9.81702 11.6738 10.9092 10.6904 11.3461 10.3626C11.783 9.92554 12.2199 9.92554 12.4384 9.92554H13.2029C13.4214 9.92554 13.8582 9.92554 14.0767 10.6904C14.4044 11.5646 15.1689 13.6407 15.2781 13.8592C15.3874 14.0777 15.3874 14.2963 15.2781 14.6241C15.1689 14.9519 15.0597 15.0611 14.8412 15.2797C14.6228 15.4982 14.4044 15.826 14.1859 16.0446C13.9675 16.2631 13.749 16.4816 13.9675 16.9187C14.1859 17.3558 14.9505 18.7763 16.1519 19.869C17.681 21.3987 18.9917 21.8358 19.4286 22.0543C19.8655 22.2729 20.0839 22.2729 20.3023 21.945C20.5208 21.7265 21.3946 20.7431 21.7222 20.306C22.0499 19.8689 22.2683 19.9782 22.7052 20.0875C23.0329 20.1968 25.1081 21.2894 25.545 21.508C25.9819 21.7265 26.2003 21.8358 26.3096 22.0543C26.2003 22.2729 26.2003 23.147 25.8727 24.0211V24.0211Z" fill="#666666"/>
</svg>
